<svg width="915" height="186" viewBox="0 0 915 186" fill="none" xmlns="http://www.w3.org/2000/svg">
<g clip-path="url(#clip0_17_11437)">
<path d="M131.829 0H53.7617C24.1218 0 0 24.1784 0 53.8878V132.138C0 161.848 24.1218 186.026 53.7617 186.026H131.829C161.469 186.026 185.591 161.848 185.591 132.138V53.8878C185.591 24.1784 161.469 0 131.829 0ZM173.714 132.138C173.714 143.306 169.352 153.841 161.39 161.795C153.455 169.749 142.944 174.148 131.803 174.148H53.7354C42.5942 174.148 32.0836 169.776 24.1481 161.795C16.2126 153.841 11.8244 143.306 11.8244 132.138V53.8878C11.8244 42.7205 16.1863 32.1852 24.1481 24.2311C32.0836 16.277 42.5942 11.8785 53.7354 11.8785H131.803C142.944 11.8785 153.455 16.2506 161.39 24.2311C169.326 32.1852 173.714 42.7205 173.714 53.8878V132.138Z" fill="#91C7C4"/>
<path d="M95.0157 139.566H90.391C86.197 139.566 82.7971 142.974 82.7971 147.178V151.813C82.7971 156.017 86.197 159.425 90.391 159.425H95.0157C99.2097 159.425 102.61 156.017 102.61 151.813V147.178C102.61 142.974 99.2097 139.566 95.0157 139.566Z" fill="#00A39B"/>
<path d="M89.1299 35.1089C97.0128 35.1089 103.083 35.3459 108.102 35.662C107.34 28.3399 103.976 22.6772 99.6405 22.6772H85.714C81.3521 22.6772 77.9887 28.3926 77.2529 35.7673C80.5375 35.3196 84.295 35.1089 88.7358 35.0825C88.8671 35.0825 88.9985 35.0825 89.1299 35.0825V35.1089Z" fill="#00A39B"/>
<path d="M103.345 114.545L102.636 123.289C105.395 123.921 107.891 124.448 109.862 124.843C112.437 125.343 114.96 123.868 115.459 121.551L115.511 121.287C115.984 119.075 114.408 116.915 111.938 116.441C109.652 115.993 106.656 115.361 103.372 114.571C103.372 114.571 103.372 114.571 103.345 114.571V114.545Z" fill="#EEB569"/>
<path d="M106.446 66.8989L105.789 75.7222C107.208 76.1172 108.522 76.5913 109.678 77.0918C113.83 78.9618 114.355 80.8318 114.303 82.5701C114.303 83.3339 114.224 84.7825 110.309 85.9941C108.706 86.4945 106.866 86.8105 104.948 87.0476C103.818 87.1793 102.688 87.2846 101.559 87.39C100.429 87.469 99.3514 87.548 98.3266 87.627C96.3033 87.7587 94.5428 87.8641 93.045 88.1011C92.1516 88.2328 91.3371 88.3908 90.6276 88.6279C90.4437 88.6805 90.2334 88.7332 90.0232 88.7859C89.813 88.8386 89.5503 88.8912 89.2612 88.9703C89.1298 88.9966 88.9984 89.0229 88.8408 89.0493C88.4204 89.1283 87.9474 89.2336 87.4744 89.3127C87.2116 89.3653 86.9489 89.418 86.6861 89.4707C85.346 89.7341 83.9008 90.0501 82.403 90.4452C81.7987 90.6032 81.2206 90.7876 80.6162 90.972C79.2236 91.4197 77.8309 91.9728 76.4908 92.6839C71.7085 95.2387 68.8969 99.1631 68.4239 104.088C68.0298 108.092 70.8939 111.753 76.9901 114.913C78.5929 115.756 80.4586 116.573 82.5607 117.389L82.2454 113.833C82.1403 112.332 81.825 110.12 81.6147 107.328C81.6147 107.328 81.4571 107.249 81.3783 107.196C78.5667 105.669 78.5404 101.586 81.352 100.085C81.352 100.085 81.4045 100.085 81.4045 100.059C83.7169 98.8207 86.8175 98.215 89.5765 97.6619C91.1268 97.3458 92.5983 97.0561 93.8333 96.661C94.5428 96.4503 97.1441 96.2659 99.0361 96.1606C103.398 95.8709 108.811 95.5285 113.462 94.0799C121.923 91.4724 123.841 86.4945 123.946 82.7545C124.156 75.4588 118.665 71.4291 113.987 69.3483C111.701 68.3212 109.126 67.531 106.525 66.8726C106.525 66.8726 106.472 66.8726 106.446 66.8726V66.8989Z" fill="#EEB569"/>
<path d="M131.514 45.0647C129.123 43.9058 127.257 42.826 126.837 42.2202C124.261 39.9288 123.184 37.9271 114.565 36.1624C112.595 35.978 110.493 35.7937 108.154 35.662C103.135 35.3459 97.0653 35.1089 89.1823 35.1089C89.051 35.1089 88.9196 35.1089 88.7882 35.1089C84.3737 35.1089 80.5899 35.3459 77.3054 35.7937C74.5463 36.1624 72.1552 36.6892 70.0268 37.374C59.8578 40.6662 58.3337 47.2508 58.3337 50.9118C58.3337 57.5753 62.0913 62.8166 69.475 66.4776C72.4968 67.9789 75.9127 69.0851 79.2761 69.9806L78.5929 60.7096C78.5929 60.7096 78.5666 60.7096 78.5404 60.7096C76.99 60.1828 75.4923 59.6034 74.1522 58.9449C68.6604 56.2321 67.9772 53.2032 67.9772 50.9118C67.9772 48.9891 67.9772 43.8268 88.867 43.7478C88.9721 43.7478 89.1035 43.7478 89.2086 43.7478C99.8769 43.7478 110.361 51.7019 123.92 53.0978C128.886 53.6246 133.537 52.3604 133.747 50.2006C134.141 46.1972 131.566 45.091 131.566 45.091L131.514 45.0647ZM119.716 46.8294C118.218 46.8294 116.983 45.5915 116.983 44.0902C116.983 42.5889 118.218 41.351 119.716 41.351C121.213 41.351 122.448 42.5889 122.448 44.0902C122.448 45.5915 121.213 46.8294 119.716 46.8294Z" fill="#EEB569"/>
<path d="M78.5141 60.7095L79.1973 69.9805L80.0907 81.859C80.0907 82.1224 80.1695 82.4121 80.2746 82.6492L80.6162 90.972C81.2206 90.7877 81.8249 90.6033 82.403 90.4453C83.9008 90.0502 85.346 89.7341 86.6861 89.4708C86.9488 89.4181 87.2116 89.3654 87.4744 89.3127C87.9474 89.2074 88.4203 89.1284 88.8408 89.0493C88.9721 89.023 89.1298 88.9967 89.2612 88.9703C89.5239 88.9176 89.7867 88.865 90.0232 88.786C90.2597 88.7069 90.4699 88.6806 90.6276 88.6279C91.337 88.4172 92.1253 88.2329 93.045 88.1012C94.5428 87.8905 96.3033 87.7588 98.3266 87.6271C99.3513 87.5481 100.455 87.4954 101.559 87.39C102.688 87.311 103.818 87.1793 104.948 87.0476L105.132 82.7018C105.237 82.4385 105.316 82.1487 105.342 81.859L105.789 75.7222L106.446 66.899C106.446 66.899 106.499 66.899 106.525 66.899L107.103 58.102L107.261 55.9423C107.261 55.9423 107.261 55.6789 107.261 55.5472V55.4945C107.418 53.2031 105.763 51.2014 103.477 50.938C98.274 50.3323 92.7822 49.8845 88.0262 49.8845C87.9211 49.8845 87.7897 49.8845 87.6846 49.8845C85.6087 49.8845 83.7694 49.9635 82.0877 50.0689C79.7228 50.2269 77.936 52.2813 78.0937 54.6517L78.1725 55.916V56.0213L78.4878 60.6305C78.4878 60.6305 78.5141 60.6305 78.5404 60.6305L78.5141 60.7095Z" fill="#00A39B"/>
<path d="M82.5606 117.415L83.4803 127.582C83.4803 127.793 83.5328 128.003 83.5854 128.214C83.9795 130.716 86.3182 132.613 88.9721 132.613H96.4083C96.855 132.613 97.2754 132.56 97.6959 132.455C98.9834 132.244 100.429 131.559 101.506 129.505C102.031 128.504 102.321 127.371 102.399 126.239L102.636 123.263L103.345 114.518C103.345 114.518 103.345 114.518 103.372 114.518L103.529 112.043L103.976 105.3C104.081 103.509 102.426 102.034 100.455 102.192C99.5352 102.271 98.6155 102.324 97.7747 102.376C95.9091 102.508 93.334 102.666 92.6245 102.877C91.3895 103.272 89.9443 103.562 88.4203 103.878C86.9488 104.167 85.3459 104.51 83.8482 104.931C82.6394 105.274 81.7723 106.222 81.5884 107.328C81.7986 110.12 82.1139 112.306 82.219 113.834L82.5343 117.389L82.5606 117.415Z" fill="#00A39B"/>
<path d="M237.329 133.245V55.3364C237.329 47.0399 241.954 42.2463 249.6 42.2463H279.871C306.62 42.2463 320.311 53.4137 320.311 74.4842C320.311 89.3389 312.822 99.7162 298.501 103.693C296.898 104.167 295.164 104.483 293.403 104.641L320.468 137.538C321.414 138.644 316.973 146.15 306.936 146.15C300.078 146.15 296.425 143.279 291.485 136.563L268.861 108.302H260.742V135.431C260.742 142.147 257.247 146.124 250.389 146.124H247.209C240.85 146.124 237.329 141.488 237.329 133.192V133.245ZM296.872 76.0909C296.872 65.8717 290.513 60.604 277.769 60.604H260.4V91.5777H278.242C290.828 91.5777 296.872 85.6779 296.872 76.0909Z" fill="#00A39B"/>
<path d="M367.424 65.8716C390.521 65.8716 406.13 81.9905 406.13 104.826V106.274C405.972 110.093 404.842 112.174 400.717 112.174H346.876L347.349 114.729C349.74 124.948 358.175 131.48 369.631 131.48C381.088 131.48 387.946 126.37 391.441 120.154C391.599 119.838 402.425 120.787 402.425 129.742C402.425 134.061 399.403 138.512 393.832 141.883C388.104 145.386 379.827 147.783 368.975 147.783C343.644 147.783 327.09 131.98 327.09 107.249C327.09 82.5173 343.959 65.8979 367.372 65.8979L367.424 65.8716ZM367.267 81.3584C356.598 81.3584 348.637 89.0228 347.191 99.8741H385.424C384.793 88.5487 377.935 81.3584 367.267 81.3584Z" fill="#00A39B"/>
<path d="M455.188 84.7034C448.829 84.7034 443.074 88.7068 439.895 94.2905V135.483C439.895 143.622 435.743 146.177 430.015 146.177H427.624C421.58 146.177 417.428 143.78 417.428 135.483V69.4009C417.428 68.6108 421.422 66.8461 425.863 66.8461C431.434 66.8461 437.477 69.2429 439.238 79.6201C444.493 71.7977 451.982 65.8979 463.281 65.8979C476.182 65.8979 484.302 72.1138 488.138 81.8589C493.394 72.9302 501.355 65.8979 514.257 65.8979C534.017 65.8979 542.294 78.5139 542.294 96.8716V135.51C542.294 143.648 538.142 146.203 532.414 146.203H530.023C523.979 146.203 519.828 143.806 519.828 135.51V100.401C519.828 90.1817 515.361 84.7561 506.295 84.7561C499.936 84.7561 494.182 88.7595 491.002 94.3431V135.536C491.002 143.674 486.851 146.229 481.122 146.229H478.731C472.845 146.229 468.536 143.833 468.536 135.536V100.901C468.536 90.2081 464.069 84.7824 455.161 84.7824L455.188 84.7034Z" fill="#00A39B"/>
<path d="M593.901 65.8716C616.998 65.8716 632.607 81.9905 632.607 104.826V106.274C632.449 110.093 631.319 112.174 627.194 112.174H573.353L573.826 114.729C576.217 124.948 584.652 131.48 596.109 131.48C607.565 131.48 614.423 126.37 617.918 120.154C618.076 119.838 628.902 120.787 628.902 129.742C628.902 134.061 625.88 138.512 620.309 141.883C614.581 145.386 606.304 147.783 595.452 147.783C570.121 147.783 553.567 131.98 553.567 107.249C553.567 82.5173 570.436 65.8979 593.849 65.8979L593.901 65.8716ZM593.744 81.3584C583.075 81.3584 575.114 89.0228 573.668 99.8741H611.901C611.27 88.5487 604.412 81.3584 593.744 81.3584Z" fill="#00A39B"/>
<path d="M641.199 106.749C641.199 82.017 655.861 65.8717 677.355 65.8717C688.497 65.8717 697.431 70.9814 701.871 77.6712V37.1368C701.871 36.5047 705.839 34.582 710.306 34.582C717.007 34.582 724.312 38.085 724.312 52.6237V135.483C724.312 143.622 720.344 146.177 714.432 146.177H712.198C707.1 146.177 703.29 144.412 702.476 138.354C702.318 136.59 702.16 134.851 702.16 132.929C696.905 142.042 688.313 147.783 676.83 147.783C655.809 147.783 641.146 131.19 641.146 106.749H641.199ZM682.768 83.9134C670.655 83.9134 662.536 92.684 662.536 106.749C662.536 120.813 670.813 129.742 682.453 129.742C693.121 129.742 702.055 122.235 702.055 111.068V96.3713C698.718 88.7069 692.333 83.9134 682.795 83.9134H682.768Z" fill="#00A39B"/>
<path d="M753.005 146.177C745.201 146.177 740.419 141.699 740.419 134.535C740.419 127.371 745.044 122.894 753.005 122.894C760.967 122.894 765.592 127.371 765.592 134.535C765.592 141.699 760.81 146.177 753.005 146.177ZM754.293 111.384H751.902C746.016 111.384 741.864 108.829 741.864 100.533V42.7468C741.864 34.6083 746.016 32.0535 751.902 32.0535H754.135C760.179 32.0535 764.331 34.4502 764.331 42.7468V100.533C764.331 108.671 760.021 111.384 754.293 111.384Z" fill="#EEB569"/>
<path d="M789.477 85.2039H783.276C776.76 85.2039 773.869 82.3331 773.869 76.9074V75.4851C773.869 70.3755 776.733 67.6627 783.276 67.6627H789.635V63.5013C789.635 41.9567 800.303 33.6602 816.384 33.6602C823.716 33.6602 828.813 35.4248 831.993 37.8216C834.857 40.0603 836.144 42.9312 836.144 45.9601C836.144 51.3857 831.677 55.5472 831.362 55.0731C829.129 52.9924 825.161 50.9116 820.694 50.9116C814.151 50.9116 811.129 54.5726 811.129 63.5276V67.689H821.167C827.71 67.689 830.574 70.5599 830.574 75.9856V77.2498C830.574 82.5174 827.71 85.2303 821.167 85.2303H811.917V135.51C811.917 143.806 807.95 146.203 802.038 146.203H799.646C793.918 146.203 789.451 143.648 789.451 135.51V85.2303L789.477 85.2039Z" fill="#00A39B"/>
<path d="M854.932 169.96L867.676 140.593C864.181 139.961 861.79 138.828 860.503 135.483L833.753 73.3781C833.28 72.0875 839.166 66.8199 846.024 66.6619C851.437 66.6619 855.904 69.3747 858.768 77.9873L875.322 122.683L890.3 78.1453C893.007 69.3747 897.789 66.6619 902.886 66.6619C909.088 66.6619 915.473 71.9295 915 73.0357L879.658 165.14C876.321 173.595 871.854 176.15 866.914 176.15C860.397 176.15 854.485 171.04 854.984 169.934L854.932 169.96Z" fill="#00A39B"/>
</g>
<defs>
<clipPath id="clip0_17_11437">
<rect width="915" height="186" fill="white"/>
</clipPath>
</defs>
</svg>
