<?xml version="1.0" encoding="UTF-8"?>
<svg id="Layer_2" data-name="Layer 2" xmlns="http://www.w3.org/2000/svg" xmlns:xlink="http://www.w3.org/1999/xlink" viewBox="0 0 1152.05 483.97">
  <defs>
    <style>
      .cls-1, .cls-2 {
        fill: none;
      }

      .cls-3 {
        fill: url(#Hair_Sunset_Pattern);
      }

      .cls-4 {
        fill: #2b5597;
      }

      .cls-5 {
        fill: #2e5793;
      }

      .cls-2 {
        stroke: #2e5793;
        stroke-miterlimit: 10;
      }
    </style>
    <pattern id="Hair_Sunset_Pattern" data-name="Hair Sunset Pattern" x="0" y="0" width="496.24" height="272.99" patternTransform="translate(1704.26 -583.26)" patternUnits="userSpaceOnUse" viewBox="0 0 496.24 272.99">
      <g>
        <rect class="cls-1" width="496.24" height="272.99"/>
        <path id="Dryer" class="cls-5" d="M145.59,34.92c0,9.17-7.43,16.6-16.6,16.6l-14.94,17.81-5.71-3.21,2.32-7.86-1.93-.65,2.15-8.11,2.14.8,1.93-6.54h.02s-.01,0-.02-.01h0s-22.68-17.99-22.68-17.99l6.07-13.57,30.66,6.14c9.17,0,16.6,7.43,16.6,16.6ZM101.75,14.22l-3.18-.64-5,11.18,2.3,1.82,5.88-12.37ZM141.14,34.89c0-6.94-5.63-12.57-12.57-12.57s-12.57,5.63-12.57,12.57,5.63,12.57,12.57,12.57,12.57-5.63,12.57-12.57Z"/>
        <path id="Mirror" class="cls-4" d="M191.75,129.68h0c-2.31-1.19-3.22-4.06-2.02-6.37l12.39-23.93c.03-.06.07-.11.1-.17-1.45-1.21-2.79-2.6-3.97-4.17-8.3-11.02-6.1-26.69,4.93-34.99,11.02-8.3,26.69-6.1,34.99,4.93,8.3,11.02,6.1,26.69-4.93,34.99-6.76,5.09-15.27,6.22-22.75,3.8l-12.36,23.88c-1.19,2.31-4.06,3.22-6.37,2.02ZM235.75,72.8l-36.49,8.05c.09,2.16.55,4.31,1.4,6.37l36.49-8.05c-.09-2.16-.55-4.31-1.4-6.37ZM206.8,64.86c-2,1.51-3.62,3.34-4.83,5.36l26.86-5.92c-6.52-4.41-15.39-4.44-22.03.56ZM199.26,79.17l35.78-7.89c-.48-.92-1.04-1.82-1.69-2.68-.85-1.12-1.8-2.12-2.82-3l-29.58,6.52c-1.02,2.23-1.59,4.62-1.7,7.05ZM205.88,94.42l29.58-6.52c1.02-2.23,1.59-4.62,1.7-7.05l-35.78,7.89c.48.92,1.04,1.82,1.69,2.68.85,1.12,1.8,2.12,2.82,3ZM229.61,95.16c2-1.51,3.62-3.34,4.83-5.36l-26.86,5.92c6.52,4.41,15.39,4.44,22.03-.56Z"/>
        <path id="Comb" class="cls-4" d="M73.63,220.22l-8.57,10.5c-2.19,2.68-5.65,3.75-8.83,3.05l12.42-15.21c.65-.8.53-1.98-.27-2.63s-1.98-.53-2.63.27l-13.02,15.95c-.07-.05-.14-.1-.21-.16l-4.22-3.45,13.03-15.96c.65-.8.53-1.98-.27-2.63s-1.98-.53-2.63.27l-13.03,15.96-4.43-3.62,13.03-15.96c.65-.8.53-1.98-.27-2.63s-1.98-.53-2.63.27l-13.03,15.96-4.43-3.62,13.03-15.96c.65-.8.53-1.98-.27-2.63h0c-.8-.65-1.98-.53-2.63.27l-13.03,15.96-4.43-3.62,13.03-15.96c.65-.8.53-1.98-.27-2.63h0c-.8-.65-1.98-.53-2.63.27l-13.03,15.96-4.43-3.62,13.03-15.96c.65-.8.53-1.98-.27-2.63s-1.98-.53-2.63.27l-13.03,15.96-4.22-3.45c-.07-.06-.13-.12-.2-.18l13.02-15.95c.65-.8.53-1.98-.27-2.63s-1.98-.53-2.63.27l-12.42,15.21c-1.32-2.98-.97-6.58,1.22-9.27l8.57-10.5c-3.43-1.18-7.41-.2-9.83,2.77l-7.36,9.01c-3.1,3.8-2.53,9.44,1.27,12.55l49.71,40.6c3.8,3.1,9.44,2.53,12.55-1.27l7.36-9.01c2.42-2.97,2.6-7.06.75-10.18Z"/>
        <path id="Scissors" class="cls-4" d="M115.81,146.71l-3.02,8.29c3.09,1.9,5.06,5.41,4.8,9.29-.37,5.58-5.18,9.8-10.76,9.44-5.58-.37-9.8-5.18-9.44-10.76s5.18-9.8,10.76-9.44c.75.05,1.47.18,2.16.38l3.83-8.37-.19-.65c-.06-.21-.27-.34-.49-.3l-9.24,1.78c.03.72-.01,1.45-.14,2.19-.96,5.51-6.21,9.19-11.72,8.23-5.51-.96-9.19-6.21-8.23-11.72.96-5.51,6.21-9.19,11.72-8.23,3.83.67,6.77,3.41,7.89,6.86l8.93-.99c.18-.49.35-.97.52-1.45l-.02-.14c-.02-.18.07-.33.22-.42,10.48-28.77,12.67-26.48,12.99-22.94,0,.05,0,.11-.02.16l-6.57,22.44,23.19-1.08c.05,0,.11,0,.16.02,3.43,1.17,5.13,3.93-27.32,7.41ZM99.89,147.15c0-3.34-2.7-6.04-6.04-6.04s-6.04,2.7-6.04,6.04,2.7,6.04,6.04,6.04,6.04-2.7,6.04-6.04ZM107.63,157.48c-3.34,0-6.04,2.7-6.04,6.04s2.7,6.04,6.04,6.04,6.04-2.7,6.04-6.04-2.7-6.04-6.04-6.04Z"/>
        <path id="line" class="cls-2" d="M104.7,261c17.71-19.93,34.05-16.39,34.29-4.43s-17.68,26.58-14.26,4.43c3.43-22.15,19.19-30.06,19.19-30.06"/>
        <path id="line-2" data-name="line" class="cls-2" d="M68.7,99.61c-19.61,18.06-35.52,12.9-34.57.97.95-11.92,20.26-24.67,14.63-2.98-5.63,21.69-22.11,27.99-22.11,27.99"/>
        <path id="Sparkling" class="cls-4" d="M39.65.5c-6.58,10.03-15.19,13.14-15.19,13.14,0,0,4.3,8.08,2.45,19.94,6.58-10.03,15.19-13.14,15.19-13.14,0,0-4.3-8.08-2.45-19.94Z"/>
        <path id="Sparkling-2" data-name="Sparkling" class="cls-4" d="M174.86,201.1c2.71,11.69-.98,20.06-.98,20.06,0,0,8.81,2.47,16.11,11.99-2.71-11.69.98-20.06.98-20.06,0,0-8.81-2.47-16.11-11.99Z"/>
        <path id="Sparkling-3" data-name="Sparkling" class="cls-4" d="M178.98,173.38c-.02,7.69-3.56,12.36-3.56,12.36,0,0,5.13,2.83,8.28,9.84.02-7.69,3.56-12.36,3.56-12.36,0,0-5.13-2.83-8.28-9.84Z"/>
        <path id="Dryer-2" data-name="Dryer" class="cls-5" d="M265.28,197.66c0-9.17,7.43-16.6,16.6-16.6l14.94-17.81,5.71,3.21-2.32,7.86,1.93.65-2.15,8.11-2.14-.8-1.93,6.54h-.02s.01,0,.02.01h0s22.68,17.99,22.68,17.99l-6.07,13.57-30.66-6.14c-9.17,0-16.6-7.43-16.6-16.6ZM309.12,218.36l3.18.64,5-11.18-2.3-1.82-5.88,12.37ZM269.74,197.68c0,6.94,5.63,12.57,12.57,12.57s12.57-5.63,12.57-12.57-5.63-12.57-12.57-12.57-12.57,5.63-12.57,12.57Z"/>
        <path id="Mirror-2" data-name="Mirror" class="cls-4" d="M434.28,192.94h0c2.2-1.38,5.13-.71,6.51,1.5l14.3,22.84c.03.06.06.11.09.17,1.78-.63,3.65-1.08,5.61-1.3,13.71-1.54,26.08,8.33,27.62,22.04,1.54,13.71-8.33,26.08-22.04,27.62-13.71,1.54-26.08-8.33-27.62-22.04-.94-8.41,2.41-16.31,8.3-21.52l-14.27-22.79c-1.38-2.2-.71-5.13,1.5-6.51ZM460.86,259.75l11.63-35.51c-1.91-1.02-4-1.72-6.19-2.03l-11.63,35.51c1.91,1.02,4,1.72,6.19,2.03ZM482.43,238.87c-.28-2.49-1.03-4.81-2.16-6.89l-8.56,26.14c7.12-3.37,11.65-10.99,10.72-19.25ZM473.94,225.1l-11.41,34.82c1.04.06,2.1.03,3.16-.09,1.4-.16,2.74-.47,4.02-.9l9.43-28.78c-1.4-2.01-3.17-3.72-5.21-5.05ZM457.45,223.04l-9.43,28.78c1.4,2.01,3.17,3.72,5.21,5.05l11.41-34.82c-1.04-.06-2.1-.03-3.16.09-1.4.16-2.74.47-4.02.9ZM444.74,243.1c.28,2.49,1.03,4.81,2.16,6.89l8.56-26.14c-7.12,3.37-11.65,10.99-10.72,19.25Z"/>
        <path id="Comb-2" data-name="Comb" class="cls-4" d="M260.76,31.1l8.57-10.5c2.19-2.68,5.65-3.75,8.83-3.05l-12.42,15.21c-.65.8-.53,1.98.27,2.63s1.98.53,2.63-.27l13.02-15.95c.07.05.14.1.21.16l4.22,3.45-13.03,15.96c-.65.8-.53,1.98.27,2.63s1.98.53,2.63-.27l13.03-15.96,4.43,3.62-13.03,15.96c-.65.8-.53,1.98.27,2.63s1.98.53,2.63-.27l13.03-15.96,4.43,3.62-13.03,15.96c-.65.8-.53,1.98.27,2.63h0c.8.65,1.98.53,2.63-.27l13.03-15.96,4.43,3.62-13.03,15.96c-.65.8-.53,1.98.27,2.63h0c.8.65,1.98.53,2.63-.27l13.03-15.96,4.43,3.62-13.03,15.96c-.65.8-.53,1.98.27,2.63s1.98.53,2.63-.27l13.03-15.96,4.22,3.45c.07.06.13.12.2.18l-13.02,15.95c-.65.8-.53,1.98.27,2.63s1.98.53,2.63-.27l12.42-15.21c1.32,2.98.97,6.58-1.22,9.27l-8.57,10.5c3.43,1.18,7.41.2,9.83-2.77l7.36-9.01c3.1-3.8,2.53-9.44-1.27-12.55l-49.71-40.6c-3.8-3.1-9.44-2.53-12.55,1.27l-7.36,9.01c-2.42,2.97-2.6,7.06-.75,10.18Z"/>
        <path id="Scissors-2" data-name="Scissors" class="cls-4" d="M379.65,114.06l3.02-8.29c-3.09-1.9-5.06-5.41-4.8-9.29.37-5.58,5.18-9.8,10.76-9.44,5.58.37,9.8,5.18,9.44,10.76s-5.18,9.8-10.76,9.44c-.75-.05-1.47-.18-2.16-.38l-3.83,8.37.19.65c.06.21.27.34.49.3l9.24-1.78c-.03-.72.01-1.45.14-2.19.96-5.51,6.21-9.19,11.72-8.23,5.51.96,9.19,6.21,8.23,11.72-.96,5.51-6.21,9.19-11.72,8.23-3.83-.67-6.77-3.41-7.89-6.86l-8.93.99c-.18.49-.35.97-.52,1.45l.02.14c.02.18-.07.33-.22.42-10.48,28.77-12.67,26.48-12.99,22.94,0-.05,0-.11.02-.16l6.57-22.44-23.19,1.08c-.05,0-.11,0-.16-.02-3.43-1.17-5.13-3.93,27.32-7.41ZM395.57,113.62c0,3.34,2.7,6.04,6.04,6.04s6.04-2.7,6.04-6.04-2.7-6.04-6.04-6.04-6.04,2.7-6.04,6.04ZM387.83,103.29c3.34,0,6.04-2.7,6.04-6.04s-2.7-6.04-6.04-6.04-6.04,2.7-6.04,6.04,2.7,6.04,6.04,6.04Z"/>
        <path id="line-3" data-name="line" class="cls-2" d="M398.28,11.99c-17.71,19.93-34.05,16.39-34.29,4.43s17.68-26.58,14.26-4.43c-3.43,22.15-19.19,30.06-19.19,30.06"/>
        <path id="line-4" data-name="line" class="cls-2" d="M454.02,147.07c19.61-18.06,35.52-12.9,34.57-.97-.95,11.92-20.26,24.67-14.63,2.98,5.63-21.69,22.11-27.99,22.11-27.99"/>
        <path id="Sparkling-4" data-name="Sparkling" class="cls-4" d="M362.77,258.39c6.58-10.03,15.19-13.14,15.19-13.14,0,0-4.3-8.08-2.45-19.94-6.58,10.03-15.19,13.14-15.19,13.14,0,0,4.3,8.08,2.45,19.94Z"/>
        <path id="Sparkling-5" data-name="Sparkling" class="cls-4" d="M486,32.42c-2.71-11.69.98-20.06.98-20.06,0,0-8.81-2.47-16.11-11.99,2.71,11.69-.98,20.06-.98,20.06,0,0,8.81,2.47,16.11,11.99Z"/>
        <path id="Sparkling-6" data-name="Sparkling" class="cls-4" d="M481.89,60.13c.02-7.69,3.56-12.36,3.56-12.36,0,0-5.13-2.83-8.28-9.84-.02,7.69-3.56,12.36-3.56,12.36,0,0,5.13,2.83,8.28,9.84Z"/>
      </g>
    </pattern>
  </defs>
  <g id="Design_Asset" data-name="Design Asset">
    <rect class="cls-3" width="1152.05" height="483.97"/>
  </g>
</svg>