<?xml version="1.0" encoding="UTF-8"?>
<svg id="Layer_1" xmlns="http://www.w3.org/2000/svg" xmlns:xlink="http://www.w3.org/1999/xlink" version="1.1" viewBox="0 0 44 36.2">
  <!-- Generator: Adobe Illustrator 29.3.1, SVG Export Plug-In . SVG Version: 2.1.0 Build 151)  -->
  <defs>
    <style>
      .st0 {
        fill: #006afe;
        fill-rule: evenodd;
      }
    </style>
  </defs>
  <path class="st0" d="M22,0l2.1,1.7,2.7-.4,1,2.5,2.5,1-.4,2.7,1.7,2.1-1.7,2.1.4,2.7-2.5,1-1,2.5-2.7-.4-2.1,1.7-2.1-1.7-2.7.4-1-2.5-2.5-1,.4-2.7-1.7-2.1,1.7-2.1-.4-2.7,2.5-1,1-2.5,2.7.4,2.1-1.7h0ZM23.8,30.4h7.8c.6-.6,1.3-1.3,2-1.9,1.5-1.4,3-2.8,4.6-4.7,1.8-2.1,2-2.8,2.5-4.8,0-.4.2-.8.4-1.3l.9-3.3h0c.5-1.5.5-2.5.3-3,0-.2,0-.3-.2-.3h-.3c-.2,0-.5.2-.8.5l-2.8,6.6s0,.1,0,.2c-.2.3-.4.6-.7.9l-4.9,5.5c-.3.3-.7.3-1,0s-.3-.7,0-1c.7-.7,5.9-5.8,5.6-7-.3-1.4-3.9,2.2-4.3,2.6h0c-2.1,2-3,2.4-4.6,3.3-.3.2-.7.4-1.2.6-.2.1-.4.2-.5.4-.2.1-.4.3-.5.4-.9.7-1.3,1.3-1.6,2-.3.7-.4,1.5-.5,2.6,0,.5,0,.9-.1,1.4v.6h0v-.3ZM20.2,30.4h-7.9c-.6-.6-1.3-1.3-2-1.9-1.5-1.4-3-2.8-4.6-4.7-1.8-2.1-2-2.8-2.5-4.8s-.2-.8-.4-1.3l-.9-3.3h0c-.5-1.5-.5-2.5-.3-3,0-.2.1-.3.2-.3h.3c.2,0,.5.2.8.5l2.8,6.6s0,.1,0,.2c.2.3.4.6.7.9l4.9,5.5c.3.3.7.3,1,0s.3-.7,0-1c-.7-.7-5.9-5.8-5.6-7,.3-1.4,3.9,2.2,4.3,2.6h0c2.1,2,3,2.4,4.6,3.3.3.2.7.4,1.2.6.2.1.4.2.5.4.2.1.4.3.5.4.9.7,1.3,1.3,1.6,2,.3.7.4,1.5.5,2.6,0,.5,0,.9.1,1.4v.6h0v-.3ZM10.5,30.6c-.1.1-.2.3-.2.5v4.3c0,.4.3.7.7.7h9.9c.4,0,.7-.3.7-.7v-5.8c0-.5,0-.9-.1-1.4-.1-1.2-.3-2.1-.6-3-.4-.9-.9-1.6-2-2.5-.2-.2-.4-.3-.6-.5s-.5-.3-.7-.5c-.4-.2-.8-.4-1.2-.6-1.5-.8-2.3-1.2-4.3-3.1h0l-1.9-1.7c-.9-1.1-2.8-2.4-4.2-1.2-.7-1.7-1.4-5.5-3.8-5.7-.4,0-.9,0-1.2.3-.3.2-.6.6-.8,1.1-.3.8-.3,2.1.3,4l.9,3.3c.1.5.3.9.4,1.3.6,2.3.8,3.1,2.9,5.4,1.6,1.9,3.2,3.3,4.7,4.8.4.4.8.8,1.2,1.1h0ZM11.9,31.8h8.3v2.9h-8.4v-2.9s.1,0,0,0ZM33.5,30.6c0,.1.2.3.2.5v4.3c0,.4-.3.7-.7.7h-9.9c-.4,0-.7-.3-.7-.7v-4.4h0v-1.4c0-.5,0-.9.1-1.4.1-1.2.3-2.1.6-3,.4-.9.9-1.6,2-2.5.2-.2.4-.3.6-.5s.5-.3.7-.5c.4-.2.8-.4,1.2-.6,1.5-.8,2.3-1.2,4.3-3.1h0l1.9-1.7c.9-1.1,2.8-2.4,4.2-1.2.4-.8,1.6-4.2,2-4.7.5-.6,1.2-1,1.8-1.1.4,0,.9,0,1.2.3.3.2.6.6.8,1.1.3.8.3,2.1-.3,4l-.9,3.3c0,.5-.3.9-.4,1.3-.6,2.3-.8,3.1-2.9,5.4-1.6,1.9-3.2,3.3-4.7,4.8-.4.4-.8.8-1.2,1.1h.1ZM32.1,31.8h-8.3v2.9h8.4v-2.9s0,0,0,0ZM22,6.1l1,2.4,2.6.2-2,1.7.6,2.5-2.2-1.4-2.2,1.4.6-2.5-2-1.7,2.6-.2,1-2.4h0ZM22,4.2c3,0,5.4,2.4,5.4,5.4s-2.4,5.4-5.4,5.4-5.4-2.4-5.4-5.4,2.4-5.4,5.4-5.4h0Z"/>
</svg>