<?xml version="1.0" encoding="UTF-8"?>
<svg id="Layer_1" xmlns="http://www.w3.org/2000/svg" xmlns:xlink="http://www.w3.org/1999/xlink" version="1.1" viewBox="0 0 44 46.7">
  <!-- Generator: Adobe Illustrator 29.3.1, SVG Export Plug-In . SVG Version: 2.1.0 Build 151)  -->
  <defs>
    <style>
      .st0 {
        fill: #006afe;
        fill-rule: evenodd;
      }
    </style>
  </defs>
  <path class="st0" d="M18.1,6.9l2.5,11.7,11.7,2.6-10.4,5.9,1.2,11.9-8.9-8-10.9,4.8,4.9-10.9L.2,16l11.9,1.3,6-10.3h0ZM24.8,36.2l10.1,10.3c.2.2.6.2.9,0l3.9-3.9c.2-.2.2-.6,0-.9l-13.8-14c-.2-.2-.9-.3-.9,0l-.2,8.5h0ZM30.8,40l4.6,4.7c.1.1.4.1.5,0l2.3-2.3c.1-.1.1-.4,0-.5l-4.7-4.8-2.7,2.9h0ZM6.1,12.6h-.2c0-1.6-.6-3-1.8-4.2C3,7.2,1.6,6.6,0,6.6v-.2c1.6,0,3-.6,4.2-1.8,1.2-1.2,1.8-2.6,1.8-4.2h.2c0,1.6.6,3,1.8,4.2,1.2,1.2,2.6,1.8,4.2,1.8v.2c-1.6,0-3,.6-4.2,1.8-1.2,1.2-1.8,2.6-1.8,4.2h0ZM34.9,18.6h-.3c0-2.4-.9-4.6-2.7-6.4-1.8-1.8-4-2.7-6.4-2.7v-.3c2.4,0,4.6-.9,6.4-2.7,1.8-1.8,2.7-4,2.7-6.4h.3c0,2.4.9,4.6,2.7,6.4,1.8,1.8,4,2.7,6.4,2.7v.3c-2.4,0-4.6.9-6.4,2.7-1.8,1.8-2.7,4-2.7,6.4h0Z"/>
</svg>