<?xml version="1.0" encoding="UTF-8"?>
<svg id="Layer_1" xmlns="http://www.w3.org/2000/svg" xmlns:xlink="http://www.w3.org/1999/xlink" version="1.1" viewBox="0 0 44 35.3">
  <!-- Generator: Adobe Illustrator 29.3.1, SVG Export Plug-In . SVG Version: 2.1.0 Build 151)  -->
  <defs>
    <style>
      .st0 {
        fill: #006afe;
        fill-rule: evenodd;
      }
    </style>
  </defs>
  <path class="st0" d="M2.7,5.9v8.4c0,0,0,17.7,0,17.7,0,.2,0,.4.2.5,0,0,.3.2.5.2h30.8c.2,0,.4,0,.5-.2,0,0,.2-.3.2-.5h2.5v.6c0,1.5-1.2,2.7-2.7,2.7H2.7c-1.5,0-2.7-1.2-2.7-2.7V8.6c0-1.5,1.2-2.7,2.7-2.7h0ZM9.3,0h32c1.5,0,2.7,1.2,2.7,2.7v24c0,1.5-1.2,2.7-2.7,2.7H9.3c-1.5,0-2.7-1.2-2.7-2.7V2.7c0-1.5,1.2-2.7,2.7-2.7h0ZM41.5,8.4H9.2v17.7c0,.2,0,.4.2.5.1.1.3.2.5.2h30.8c.2,0,.4,0,.5-.2,0-.1.2-.3.2-.5V8.4h.1ZM38.7,3c.7,0,1.3.6,1.3,1.3s-.6,1.3-1.3,1.3-1.3-.6-1.3-1.3.6-1.3,1.3-1.3h0ZM29.7,3c.7,0,1.3.6,1.3,1.3s-.6,1.3-1.3,1.3-1.3-.6-1.3-1.3.6-1.3,1.3-1.3h0ZM34.2,3c.7,0,1.3.6,1.3,1.3s-.6,1.3-1.3,1.3-1.3-.6-1.3-1.3.6-1.3,1.3-1.3h0Z"/>
</svg>