<?xml version="1.0" encoding="UTF-8"?>
<svg id="svg21119" xmlns="http://www.w3.org/2000/svg" version="1.1" viewBox="0 0 149.6 135.6">
  <!-- Generator: Adobe Illustrator 29.3.1, SVG Export Plug-In . SVG Version: 2.1.0 Build 151)  -->
  <defs>
    <style>
      .st0 {
        fill: #fff;
      }

      .st1 {
        fill: #003e6b;
      }
    </style>
  </defs>
  <g id="layer1">
    <g id="g21154">
      <path id="rect21123" class="st1" d="M1,1h133.5v133.6H1V1Z"/>
      <path id="path21125" class="st1" d="M137.2,10.6V3.5h-1.7v-1.5h5.1v1.5h-1.7v7.1h-1.7ZM147,10.6v-6l-1.3,6h-1.2l-1.4-6v6h-1.5V2h2.3l1.2,5.4,1.3-5.4h2.2v8.6h-1.6Z"/>
      <path id="path21127" class="st0" d="M61.5,43.3c-10.9,0-14.7,10.1-14.7,23.3s3.6,23.7,14.6,23.7,12.6-5.3,14.1-15.5l-7.1-.8c-1,6.3-3.1,9.5-6.8,9.5s-7-4.3-7-17,2.4-16.5,7.1-16.5,5.4,2.9,6.3,8.7l7-.6c-1.1-9.3-4.7-14.8-13.5-14.8h0ZM81.9,43.8v45.9h7.6v-45.9h-7.6ZM95.7,43.8v6.9h9.5v39h7.5v-39h9.5v-6.9h-26.5ZM14.5,43.9v45.9h11.9c8.9,0,15.8-2.7,15.8-13.3s-1.9-9.1-7-10.9h0c3.8-1.8,5.9-5,5.9-9.8,0-8.5-4.8-11.9-15.3-11.9h-11.3ZM21.9,50.6h4.2c3.7,0,7.3.9,7.3,5.8s-3.4,6.5-7.3,6.5h-4.2v-12.3ZM21.9,69h5c5,0,7.5,2,7.5,7s-2.3,6.8-7.6,6.8h-4.9v-13.8Z"/>
    </g>
  </g>
</svg>