<?xml version="1.0" encoding="utf-8"?>
<!-- Generator: Adobe Illustrator 28.2.0, SVG Export Plug-In . SVG Version: 6.00 Build 0)  -->
<svg version="1.1" id="Layer_2_00000018214474537835550420000011690892540294821763_"
	 xmlns="http://www.w3.org/2000/svg" xmlns:xlink="http://www.w3.org/1999/xlink" x="0px" y="0px" viewBox="0 0 210.4 210.4"
	 style="enable-background:new 0 0 210.4 210.4;" xml:space="preserve">
<style type="text/css">
	.st0{fill:none;stroke:#665130;stroke-width:3.03;stroke-linecap:round;stroke-miterlimit:10;}
	.st1{fill:none;stroke:#665130;stroke-width:3.03;stroke-miterlimit:10;}
	.st2{fill:#665130;}
	.st3{fill:none;}
</style>
<g id="Layer_3">
	<g>
		<path class="st0" d="M157,68.1c5.8,11.6,10.5,24.1,10.4,37.2c-0.1,13.5-5.6,26.2-13.4,37"/>
		<g>
			<ellipse class="st1" cx="101.3" cy="103.9" rx="84.7" ry="83.1"/>
			<circle class="st0" cx="101.3" cy="105.5" r="26.6"/>
			<path class="st0" d="M46.4,68.1c-12.6,22.8-16.6,54.2,3.2,74.2"/>
			<path class="st0" d="M37.1,114.2c6.3-1.6,8.9-9.1,13.7-9.8c7.4,1.1-0.7,18.7,8.3,19.9c9,1.2,11.9-17.4,15.6-14.3"/>
			<path class="st0" d="M165.5,110.9c-6.3-1.6-8.9-9.1-13.7-9.8c-7.4,1.1,0.7,18.7-8.3,19.9c-9,1.2-11.9-17.4-15.6-14.3"/>
			<g>
				<path class="st2" d="M53.6,65.9c-2.9-4.2-4.3-6.3-7.2-10.6c-0.6-0.9-1.7-0.8-3.2,0.1c-0.2-0.3-0.3-0.5-0.5-0.8
					c3.6-2.6,5.4-3.8,9.2-5.9c7.2-4.1,13.2-3.5,15.6,2.4c2.8,7.1-2.6,11.1-6,13c-1.1,0.6-3.4,1.8-4.8,2.7c-1.1,0.7-2.2,1.6-3.2,2.5
					c-0.2-0.3-0.3-0.5-0.5-0.8C53.8,67.7,54.2,66.8,53.6,65.9L53.6,65.9z M60.2,63.5c4-2.3,4.2-6.2,2.3-10.2
					c-2.1-4.5-5.8-5.9-10-3.6c-0.2,0.1-0.3,0.2-0.5,0.3c-1.5,0.8-1.9,1.6-1.3,2.6c2.7,4.4,4,6.5,6.6,10.9
					C58.1,64.5,59.2,64.1,60.2,63.5z"/>
				<path class="st2" d="M69.9,50.5c-2-5.6,2.3-11.2,9-12.7c6.4-1.4,12.6,1.5,13.1,7.3c0.6,6-3.9,10.1-9.2,11.3
					C77.6,57.6,71.9,56,69.9,50.5z M83.3,54.9c2.3-0.5,4.6-2.7,3.8-7.7c-0.8-5.4-4.9-8.9-9-7.9c-2.8,0.7-5.2,3.3-3.8,8.1
					C75.9,52.7,79.9,55.7,83.3,54.9L83.3,54.9z"/>
				<path class="st2" d="M96.6,51.5c-0.2-5.1-0.3-7.7-0.6-12.8c-0.1-1.1-1-1.5-2.7-1.6c0-0.4,0-0.6-0.1-0.9
					c4.2-0.3,6.2-0.3,10.4-0.2l0,0.9c-1.7,0.1-2.6,0.6-2.6,1.7c0,5.1-0.1,7.7-0.1,12.8c0,1.1,0.6,1.7,2.3,1.6c1.2,0,1.8,0,3,0
					c2.1,0.1,3-0.4,4-1.5c0.3-0.4,0.5-0.6,0.8-0.9c0.4,0,0.6,0.1,1,0.1c-0.3,0.7-0.5,1-0.8,1.7c-0.4,0.8-0.6,1.3-0.6,2.3
					c-6.4-0.8-9.6-0.9-16-0.4c0-0.4,0-0.6-0.1-0.9C95.9,53.1,96.6,52.6,96.6,51.5L96.6,51.5z"/>
				<path class="st2" d="M114.1,46c0.9-5.9,7.4-8.5,14.3-6.5c5.9,1.7,8.1,5.6,7.3,7.7c-0.4,1.1-1.7,1.8-3.4,1.2
					c-1.6-0.6-2.2-1.8-1.9-3c0.5-1.8-0.2-4.2-3.5-5.2c-3.8-1.1-6.6,1.1-7.4,5.1c-1.2,5.6,2.1,9.5,6.2,10.8c1.7,0.5,3.6,0.6,5.8-0.3
					c0.2,0.3,0.3,0.5,0.5,0.8c-1.3,1-4.6,2.4-9.2,1.1C117.5,56.1,113.1,51.9,114.1,46z"/>
				<path class="st2" d="M135.5,59.2c2.2-4.6,3.3-7,5.4-11.6c0.5-1-0.2-1.8-1.7-2.7c0.1-0.3,0.2-0.5,0.4-0.9
					c6.9,3,10.2,4.8,16.6,9.2c0.3,0.2,0.4,0.4,0.3,0.6c-0.4,0.7-0.8,1.5-1.4,3.4c-0.3-0.2-0.4-0.3-0.7-0.5c0.1-2.1-0.5-3.7-2.6-5
					c-1.4-0.8-2.1-1.3-3.4-2c-1.4-0.8-2.4-0.7-2.9,0.3c-0.7,1.4-1.1,2.1-1.8,3.4c-0.5,1-0.1,1.8,1.2,2.5c0.8,0.5,1.2,0.7,2,1.2
					c2.2,1.4,3,1.1,4.1,0c0.2,0.2,0.4,0.2,0.6,0.4c-1.2,1.8-1.8,2.7-3,4.6c-0.2-0.2-0.3-0.2-0.6-0.4c0.6-1.3,0.5-2.2-1.7-3.6
					c-0.8-0.5-1.2-0.7-2-1.2c-1.3-0.8-2.2-0.7-2.7,0.3c-0.8,1.5-1.2,2.2-2,3.7c-0.5,1-0.2,1.8,1.2,2.6c1.2,0.7,1.9,1.1,3.1,1.9
					c1.9,1.2,2.9,1.1,4,0.7c0.5-0.2,0.8-0.2,1.3-0.4c0.2,0.2,0.4,0.3,0.6,0.5c-0.9,0.4-1.8,1.1-2.8,2.2c-0.2,0.2-0.4,0.2-0.7,0
					c-5.3-3.7-8.1-5.3-13.9-7.8c0.1-0.3,0.2-0.5,0.4-0.9C134.1,60.3,135,60.2,135.5,59.2L135.5,59.2z"/>
			</g>
			<g>
				<path class="st2" d="M49.8,153.8c2.3-3.3,3.4-5,5.7-8.3c0.5-0.7,0.2-1.4-0.7-2.2c0.2-0.2,0.3-0.4,0.4-0.6
					c2.3,1.7,3.5,2.4,5.8,3.9c4.6,2.8,6.9,5.9,4.9,10.5c-2.5,5.5-8.5,4-11.6,2.1c-1-0.6-2.9-1.9-4.3-2.9c-1-0.7-2.1-1.3-3.2-2
					c0.2-0.2,0.3-0.4,0.4-0.6C48.5,154.4,49.3,154.5,49.8,153.8L49.8,153.8z M54.4,158.1c3.6,2.1,6.4,0.4,8-2.8
					c1.8-3.4,1.2-6.2-1.6-7.9c-0.1-0.1-0.2-0.1-0.3-0.2c-0.9-0.6-1.6-0.6-2,0.2c-2.1,3.4-3.2,5.1-5.3,8.5
					C52.6,156.8,53.5,157.6,54.4,158.1L54.4,158.1z"/>
				<path class="st2" d="M67.8,158.1c1.8-4.3,6.5-5.4,10.7-4.2c4,1.2,7.2,4.6,6.3,9.1c-0.9,4.6-5.9,6.6-10.9,5.1
					C69.1,166.6,66,162.3,67.8,158.1L67.8,158.1z M75,167.4c2.1,0.6,4.7-0.2,5.7-4.1c1-4.2-0.4-7.8-3.1-8.6
					c-1.8-0.6-4.2,0.1-5.6,3.8C70.5,162.5,71.9,166.4,75,167.4L75,167.4z"/>
				<path class="st2" d="M87,168.7c0.6-4,0.9-6,1.6-9.9c0.1-0.9-0.5-1.3-1.6-1.7c0.1-0.3,0.1-0.4,0.1-0.7c1.6,0.3,2.4,0.4,4,0.6
					c2.9,4.3,4.6,6.4,8.3,10.3c0.1-3,0.1-4.5,0.1-7.5c0-0.9-0.7-1.2-1.8-1.4c0-0.3,0-0.4,0-0.7c1.9,0.1,2.9,0.1,4.8,0.1
					c0,0.3,0,0.4,0,0.7c-1.1,0.2-1.8,0.5-1.8,1.4c0,4.9,0,7.3,0,12.2c-0.6,0-0.9,0-1.4,0c-4.5-4.4-6.4-6.8-9.8-11.6
					c-0.5,3.4-0.7,5.2-1.2,8.6c-0.1,0.9,0.6,1.4,1.9,1.6c0,0.3-0.1,0.4-0.1,0.7c-2.3-0.3-3.4-0.4-5.6-0.9c0.1-0.3,0.1-0.4,0.1-0.7
					C86,169.8,86.9,169.6,87,168.7L87,168.7z"/>
				<path class="st2" d="M106.2,165.7c-0.1-2.4-0.2-3.7-0.4-6.1c-0.1-0.9-0.7-1.2-1.8-1.3c0-0.3,0-0.4,0-0.7c2.7-0.1,4-0.2,6.7-0.5
					c0,0.3,0.1,0.4,0.1,0.7c-1.1,0.3-1.6,0.7-1.6,1.6c0.2,2.3,0.3,3.5,0.6,5.8c0.4,3.6,2.3,5,5,4.6c2.6-0.4,4.4-2.2,3.7-5.7
					c-0.5-2.3-0.7-3.5-1.2-5.8c-0.2-0.9-0.9-1.1-2.1-1c-0.1-0.3-0.1-0.4-0.1-0.7c1.9-0.4,2.9-0.6,4.8-1c0.1,0.3,0.1,0.4,0.2,0.7
					c-1.1,0.4-1.7,0.9-1.5,1.8c0.6,2.5,0.8,3.7,1.4,6.2c0.8,3.7-1.1,6.6-5.9,7.3C109.8,171.9,106.5,170.1,106.2,165.7L106.2,165.7z"
					/>
				<path class="st2" d="M130.6,164.9c-1.3-3.7-1.9-5.5-3.2-9.2c-0.4-1.2-0.7-1.3-2.2-0.8c-1.7,0.5-2,1.2-2.3,3.2
					c-0.3,0.1-0.5,0.1-0.8,0.2c-0.2-1.3-0.2-1.9-0.4-3.2c0-0.2,0.1-0.4,0.3-0.5c0.3-0.1,0.9-0.2,1.4-0.4c3.8-1.1,5.6-1.8,9.2-3.4
					c0.5-0.2,1.1-0.5,1.3-0.7c0.2-0.1,0.5-0.1,0.6,0.1c0.7,1.1,1.1,1.6,1.8,2.7c-0.3,0.1-0.5,0.2-0.8,0.4c-1.5-1.4-2.2-1.7-3.8-1
					c-1.5,0.6-1.6,0.9-1.2,2c1.4,3.6,2.1,5.4,3.5,9c0.3,0.8,1.1,0.9,3.3,0.1c0.1,0.3,0.2,0.4,0.3,0.7c-3.7,1.6-5.6,2.3-9.5,3.5
					c-0.1-0.3-0.1-0.4-0.2-0.7C130.3,166.4,130.8,165.8,130.6,164.9L130.6,164.9z"/>
				<path class="st2" d="M142.9,160.8c-1.2-0.4-2.5-2.9-1.3-3.5c0.3-0.2,0.4-0.1,0.8,0.2c1.9,1.6,4.7,1.5,6.9,0.1
					c1.8-1.1,2.2-2.4,1.6-3.4c-1-1.5-3.1-0.7-5.6,0c-2.9,0.9-5.8,0.7-6.9-1.6c-1.2-2.3,0.4-4.8,3.2-6.6c1.6-1,4.1-2.1,5-1.9
					c1.2,0.3,2.8,2.5,1.8,3.2c-0.3,0.2-0.4,0.1-0.8-0.1c-2-1.3-4.3-1.2-5.9-0.2c-1.6,1-1.7,2.2-1.2,3.1c0.8,1.4,2.4,1.3,4.7,0.6
					c2.7-0.8,6.2-2.1,8.1,0.4c1.9,2.6-1,5.8-4,7.6C146.9,160.2,143.9,161.1,142.9,160.8L142.9,160.8z"/>
			</g>
			<rect x="0.4" y="0.4" class="st3" width="209.5" height="209.5"/>
		</g>
	</g>
</g>
</svg>
