<?xml version="1.0" encoding="UTF-8"?>
<svg id="Layer_2" data-name="Layer 2" xmlns="http://www.w3.org/2000/svg" version="1.1" viewBox="0 0 349.2 403.4">
  <defs>
    <style>
      .cls-1 {
        fill: #febe50;
      }

      .cls-1, .cls-2, .cls-3, .cls-4 {
        stroke-width: 0px;
      }

      .cls-2 {
        fill: #302321;
      }

      .cls-5 {
        stroke-miterlimit: 10;
        stroke-width: .6px;
      }

      .cls-5, .cls-6 {
        fill: #fff9f7;
        stroke: #000;
      }

      .cls-6 {
        stroke-miterlimit: 10;
        stroke-width: .6px;
      }

      .cls-3 {
        fill: #ff6752;
      }

      .cls-4 {
        fill: #ff880d;
      }
    </style>
  </defs>
  <g id="Layer_2-2" data-name="Layer 2-2">
    <g>
      <path class="cls-3" d="M90,158.7c5.4-41.1,8.6-70.1,38.8-53.3s30.6-57.9,50-31.8c19.4,26.2,26.4,103.5,34,71.7s17.4-69.8,30.3-31.5c12.9,38.3,1.6,86,8.1,105.6s0,28.4,21.7,49,31.5,36.4-21.7,54.9c-58.7,20.4-182.4,13.3-191-8.2-8.6-21.5,24.6-50.9,24.6-65.9s-7-19.9-12.8-52.8-6.4-70.8,10.8-53.1c17.3,17.8,7.1,15.3,7.1,15.3h0Z"/>
      <path class="cls-4" d="M112.2,206.5c-25.3-35.6,27.7-103.4,44.2-43.6,16.5,59.7,21.8-44,31.9-13.6,10.1,30.4,14.6,37,32.2,17.8s4.3,13.9,12.3,59.7c8,45.9,59.2,84.3-4.8,91.8s-154.2,9.1-149.9-17.6,35.2-32.5,40-45.9-5.9-48.5-5.9-48.5h0Z"/>
      <path class="cls-1" d="M139.4,252.6c-3.2-45.8-24.5-84.7,7.1-66.3,31.7,18.3,46.7,13.7,56.2,6.1,9.5-7.6-6.4,79.5,23.8,85.4s5.5,30.5-4.8,32-102.1,13-110.8-3.8c-8.7-16.8,14.2-36.6,21.4-45l7.1-8.4h0Z"/>
      <g>
        <ellipse class="cls-6" cx="127.9" cy="249.2" rx="18" ry="16.1" transform="translate(-84.5 66.6) rotate(-22.2)"/>
        <ellipse class="cls-2" cx="128.8" cy="245.8" rx="6.6" ry="6" transform="translate(-83.2 66.7) rotate(-22.2)"/>
      </g>
      <g>
        <ellipse class="cls-5" cx="212.4" cy="248.3" rx="16.1" ry="18" transform="translate(-93.2 364.2) rotate(-70.2)"/>
        <ellipse class="cls-2" cx="211.7" cy="244" rx="6" ry="6.6" transform="translate(-89.5 360.7) rotate(-70.2)"/>
      </g>
      <path class="cls-3" d="M186.6,279.3c23.9-9.7,36.7-2.9,15.5,9.1-12.3,7-42.8,14.4-62.2,4.2-16.7-14.6,5.4-11.2,20.9-9.6,8,.8,18.2-.4,25.8-3.8Z"/>
    </g>
  </g>
</svg>