<?xml version="1.0" encoding="UTF-8"?>
<svg id="Layer_2" data-name="Layer 2" xmlns="http://www.w3.org/2000/svg" viewBox="0 0 576 576">
  <defs>
    <style>
      .cls-1, .cls-2, .cls-3, .cls-4, .cls-5 {
        stroke-width: 0px;
      }

      .cls-1, .cls-6 {
        fill: none;
      }

      .cls-7 {
        stroke-width: 1.88px;
      }

      .cls-7, .cls-5 {
        fill: #f66a23;
      }

      .cls-7, .cls-6 {
        stroke: #310000;
        stroke-miterlimit: 10;
      }

      .cls-2 {
        fill: #50845e;
      }

      .cls-3 {
        fill: #d6b2a5;
      }

      .cls-4 {
        fill: #310000;
      }

      .cls-6 {
        stroke-linecap: round;
        stroke-width: 3.76px;
      }
    </style>
  </defs>
  <g id="Layer_1-2" data-name="Layer 1">
    <g>
      <rect class="cls-1" width="576" height="576"/>
      <g>
        <path class="cls-3" d="M119.88,170.63c-1.61,1.02-3.2,2.04-4.8,3.08-.6-10.14-.95-20.35-1.03-30.61,0-1.96.34-3.46,1.02-4.5.68-1.04,1.88-1.93,3.59-2.66,4.95-2.12,9.93-4.14,14.94-6.07,1.14-.44,2.05-.56,2.74-.37.69.19,1.17.63,1.43,1.33.23.61.25,1.18.05,1.71-.19.53-.56,1.01-1.1,1.44-.43.34-.85.67-1.28,1.01-.7.54-1.11,1.05-1.23,1.53-.12.47-.01,1.08.34,1.82,4.74,9.79,9.42,19.6,14.04,29.44.36.79.72,1.29,1.09,1.53.37.23.88.34,1.54.31.5-.02,1-.03,1.5-.04.6-.03,1.11.11,1.54.39.42.29.74.72.95,1.29.25.68.21,1.33-.1,1.96-.32.63-.98,1.13-1.99,1.51-6.41,2.43-12.77,5.03-19.08,7.81-1.02.45-1.85.58-2.5.4-.65-.18-1.12-.6-1.42-1.26-.25-.55-.33-1.09-.25-1.61.08-.52.4-1.04.97-1.54.38-.35.76-.69,1.14-1.04.58-.54.92-1.03,1.01-1.49.09-.46-.04-1.03-.4-1.71-5.44-10.18-10.95-20.32-16.54-30.43,1.59-.84,3.18-1.68,4.78-2.5-.09,13.78.29,27.47,1.15,41.05.12,1.9-.04,3.23-.49,3.98-.45.76-1.13,1.36-2.05,1.81-.67.33-1.31.56-1.93.68-.62.13-1.31.03-2.06-.28-.76-.31-1.7-.94-2.82-1.88-10.08-8.45-20.56-16.59-31.41-24.4,1.4-1.07,2.8-2.13,4.21-3.19,4.32,10.2,8.72,20.36,13.19,30.49.45,1.03,1.09,1.65,1.91,1.86.82.21,1.76.31,2.82.29.4,0,.8,0,1.2-.01.48-.02.9.07,1.28.27.37.2.69.53.94,1,.35.66.4,1.31.17,1.95-.24.64-.84,1.22-1.8,1.74-3.23,1.76-6.45,3.56-9.64,5.42-.95.55-1.76.78-2.42.67-.66-.11-1.18-.47-1.54-1.09-.37-.62-.47-1.2-.32-1.74.15-.54.44-1.1.86-1.7.17-.23.34-.47.52-.7.5-.7.86-1.45,1.05-2.26.2-.81.07-1.71-.38-2.72-4.15-9.02-8.23-18.07-12.26-27.14-.55-1.26-1.11-2.1-1.69-2.49-.57-.4-1.32-.5-2.23-.3-.54.12-1.08.24-1.62.36-.74.16-1.38.15-1.9-.03-.52-.18-.95-.55-1.28-1.12-.79-1.37-.15-2.66,1.96-3.86,4.7-2.67,9.43-5.25,14.2-7.74,1.54-.8,2.92-1.17,4.12-1.11,1.21.06,2.62.74,4.22,2.01,7.92,6.31,15.63,12.8,23.1,19.46Z"/>
        <path class="cls-3" d="M190.08,140.87c.4,1.58.24,2.92-.48,4.03-.71,1.11-1.94,1.89-3.68,2.36-7.27,1.95-14.5,4.11-21.68,6.47-.38-1.15-.76-2.3-1.13-3.45,3.26-1.07,6.53-2.1,9.81-3.09,1.35-.41,1.86-1.19,1.51-2.35-.83-2.81-1.79-4.71-2.87-5.7-1.09-.99-2.24-1.3-3.45-.93-.88.27-1.58.8-2.1,1.6-.52.8-.8,1.86-.83,3.17-.03,1.32.24,2.88.82,4.7,1.29,4.03,3.23,6.66,5.79,7.93,2.56,1.26,5.51,1.39,8.92.41,1.58-.46,2.98-1.03,4.19-1.72,1.21-.7,2.3-1.73,3.29-3.09.55-.77.98-1.31,1.29-1.6.31-.3.64-.49.98-.58.49-.13.91,0,1.25.4.35.39.6.92.77,1.57.51,2.01.25,4.07-.74,6.19-.99,2.12-2.61,4.05-4.85,5.8-2.24,1.76-5.02,3.12-8.35,4.13-3.57,1.08-6.97,1.43-10.26,1.03-3.29-.39-6.18-1.47-8.69-3.27-2.51-1.79-4.35-4.26-5.49-7.44-1.28-3.57-1.61-6.96-.95-10.18.67-3.22,2.32-6.11,4.96-8.63,2.64-2.52,6.22-4.49,10.71-5.84,3.95-1.19,7.43-1.57,10.39-1.17,2.96.39,5.35,1.42,7.18,3.03,1.82,1.62,3.04,3.7,3.68,6.23Z"/>
        <path class="cls-3" d="M195.05,145.32c-.9-3.68-.86-7.11.18-10.29,1.03-3.17,2.87-5.88,5.52-8.08,2.65-2.2,5.89-3.69,9.68-4.42,3.17-.61,6.04-.52,8.58.25,2.54.78,4.85,2.24,6.93,4.39-1.26,1.07-2.52,2.15-3.76,3.23-1.43-1.32-2.73-2.2-3.89-2.64-1.16-.44-2.36-.55-3.59-.32-1.21.22-2.19.81-2.95,1.77-.76.95-1.21,2.33-1.37,4.13-.16,1.8.05,4.1.62,6.91.51,2.55,1.18,4.56,1.99,6.03.81,1.46,1.72,2.47,2.72,3.02,1,.55,2.05.73,3.14.52,1.36-.25,2.51-.9,3.47-1.96.96-1.05,1.78-2.63,2.46-4.72,1.01.63,2.01,1.27,3,1.91-1.57,3.53-3.48,6.44-5.73,8.74-2.25,2.31-4.99,3.77-8.27,4.44-2.83.57-5.5.42-8.04-.46-2.55-.88-4.77-2.38-6.66-4.5-1.89-2.12-3.25-4.76-4.02-7.95ZM223.52,149.12c-.18.02-.37.04-.55.06-2.04-11.66-4.07-23.33-6.11-34.99-.13-.73-.33-1.24-.61-1.51-.28-.27-.66-.42-1.13-.46-.31-.03-.61-.06-.92-.08-.59-.06-1.04-.21-1.34-.47-.31-.25-.5-.61-.59-1.06-.1-.55,0-1.02.28-1.4.29-.38.89-.82,1.8-1.32,2.81-1.52,5.64-3,8.5-4.46,1.31-.68,2.38-1.18,3.21-1.51.83-.33,1.65-.56,2.47-.68,1.23-.17,2.2,0,2.92.49.72.5,1.14,1.2,1.26,2.1,1.87,13.95,3.74,27.9,5.61,41.85.12.92.28,1.56.48,1.92.2.36.49.6.87.71.28.08.56.16.85.24.59.16,1.03.4,1.31.71.29.32.46.7.52,1.17.08.65-.07,1.18-.46,1.61-.39.42-1.06.7-2.02.82-3.06.41-6.12.85-9.18,1.33-1.61.25-3.11-.08-4.54-.99-1.43-.92-2.28-2.14-2.55-3.67-.02-.14-.05-.28-.07-.41Z"/>
        <path class="cls-3" d="M262.99,118.88c.54,8.05,1.08,16.11,1.62,24.16.06.93.18,1.58.35,1.95.17.37.45.63.82.77.28.1.55.2.83.3.58.2,1,.46,1.26.8.26.33.41.73.44,1.2.04.65-.15,1.17-.56,1.57-.41.4-1.1.63-2.07.69-5.51.36-11.01.84-16.5,1.43-.96.1-1.68,0-2.16-.32-.48-.32-.75-.8-.83-1.45-.05-.46.02-.88.22-1.25.2-.37.57-.71,1.11-1,.25-.15.51-.29.77-.44.35-.2.57-.5.68-.9.11-.4.11-1.06.01-1.98-.58-5.44-1.16-10.87-1.74-16.31-.08-.74-.24-1.26-.5-1.54-.25-.29-.6-.47-1.05-.54-.29-.05-.58-.1-.87-.15-.56-.1-.98-.29-1.26-.56-.28-.27-.45-.64-.5-1.1-.06-.55.05-1.01.35-1.38.3-.36.9-.76,1.8-1.18,2.77-1.31,5.57-2.59,8.39-3.85,1.37-.61,2.46-1.05,3.26-1.31.8-.26,1.51-.42,2.14-.47,1.26-.1,2.23.13,2.9.68.67.55,1.03,1.28,1.09,2.18ZM253.28,113.41c-2.96.26-5.36-.1-7.21-1.12-1.85-1.02-2.9-2.56-3.14-4.64-.23-2.06.46-3.78,2.1-5.14,1.64-1.37,4-2.2,7.05-2.47,3.06-.27,5.52.14,7.38,1.19,1.85,1.06,2.84,2.63,2.98,4.69.14,2.09-.63,3.79-2.27,5.12-1.64,1.33-3.94,2.11-6.9,2.37Z"/>
        <path class="cls-3" d="M271.96,120.82c-.42-.13-.85-.26-1.27-.39-.58-.18-1.03-.43-1.33-.74-.3-.31-.47-.7-.49-1.16-.04-.67.19-1.2.69-1.59.49-.39,1.15-.6,1.96-.64.72-.03,1.44-.06,2.17-.09.5-.02.96-.15,1.39-.4.43-.25.97-.69,1.63-1.32,2.08-1.99,4.2-3.97,6.34-5.93.87-.78,1.68-1.37,2.44-1.75.76-.38,1.49-.58,2.19-.58.78,0,1.39.21,1.84.65.44.44.67,1.08.67,1.92.02,9.33.04,18.66.06,27.99,0,1.7.32,2.99.94,3.87.62.88,1.5,1.33,2.66,1.34.94,0,1.66-.21,2.17-.64.51-.44.93-.94,1.25-1.5.32-.57.66-1.07,1.01-1.5.36-.44.83-.65,1.43-.64.5.01.89.18,1.18.52.29.33.43.9.41,1.69-.05,1.98-.7,3.76-1.94,5.35-1.23,1.59-2.89,2.85-4.99,3.78-2.09.94-4.45,1.41-7.11,1.44-3.93.04-6.99-.79-9.21-2.54-2.22-1.75-3.43-4.46-3.59-8.16-.23-5.59-.47-11.18-.7-16.77-.03-.67-.18-1.16-.47-1.45-.29-.29-.73-.54-1.34-.74ZM284.52,120.86c-.03-1.65-.05-3.3-.08-4.95,4.8-.08,9.59-.07,14.39.02.81.01,1.46.19,1.94.51.48.33.71.78.7,1.36-.02.88-.52,1.62-1.5,2.2-.98.59-2.57.86-4.77.83-3.56-.03-7.12-.02-10.68.03Z"/>
        <path class="cls-3" d="M304.12,142.27c.1-3.18,1.72-5.66,4.92-7.37,3.19-1.71,7.65-2.41,13.31-1.97,1.49.11,2.78.32,3.87.6,1.09.28,1.98.63,2.65,1.04-.52.97-1.04,1.94-1.56,2.91-.5-.32-.98-.57-1.43-.72-.45-.16-.96-.26-1.5-.3-1.23-.1-2.23.2-3,.9-.77.7-1.2,1.76-1.3,3.18-.11,1.49.16,2.64.78,3.47.63.83,1.5,1.29,2.63,1.38.71.06,1.39-.04,2.04-.3.65-.26,1.16-.58,1.51-.97.21.95.42,1.91.62,2.86-1.32,1.54-3.13,2.66-5.41,3.38-2.28.73-4.67,1.01-7.17.86-3.37-.21-6.05-1.14-8.06-2.82-2.01-1.69-2.99-3.72-2.92-6.11ZM326.44,146.3c.02-.27.05-.53.07-.8-.39-.05-.78-.09-1.17-.14.65-7.49,1.3-14.97,1.95-22.46.08-.88-.13-1.61-.61-2.19-.49-.58-1.19-.91-2.1-.98-.68-.05-1.28.05-1.81.3-.53.25-.81.62-.85,1.11-.09,1.26-.19,2.53-.28,3.79-.14,1.95-.99,3.4-2.53,4.37-1.54.97-3.65,1.37-6.37,1.22-2.31-.12-4.01-.64-5.11-1.58-1.1-.94-1.62-2.21-1.56-3.81.06-1.53.88-3.04,2.51-4.51,1.62-1.47,4.04-2.64,7.26-3.48,3.22-.84,7.25-1.08,12.06-.66,5.57.49,9.61,1.85,12.08,3.95,2.47,2.11,3.49,4.72,3.1,7.81-.7,5.52-1.4,11.03-2.09,16.55-.06.44.01.82.21,1.13.2.32.54.51,1.03.57.42.05.77,0,1.05-.18.28-.17.55-.35.8-.53.19-.14.39-.25.59-.34.2-.09.42-.12.67-.08.42.06.7.24.84.56.14.31.18.69.12,1.13-.14,1.01-.68,2.02-1.61,3.03-.93,1.01-2.21,1.81-3.84,2.39-1.63.59-3.57.75-5.82.49-2.67-.3-4.79-1.07-6.39-2.32-1.6-1.25-2.33-2.69-2.18-4.34Z"/>
        <path class="cls-3" d="M353.17,125.01c-.39-.21-.78-.42-1.17-.63-.54-.29-.93-.62-1.16-.98-.24-.36-.33-.77-.26-1.24.1-.67.42-1.14.98-1.43.56-.28,1.24-.37,2.05-.25.72.11,1.43.22,2.15.33.49.08.97.03,1.44-.13.47-.16,1.09-.49,1.86-.97,2.44-1.55,4.9-3.08,7.39-4.59,1.01-.6,1.92-1.01,2.75-1.24.82-.23,1.58-.28,2.27-.15.77.15,1.33.48,1.68,1,.35.52.45,1.19.29,2.01-1.79,9.16-3.57,18.31-5.36,27.47-.32,1.67-.26,2.99.17,3.98.44.99,1.23,1.59,2.37,1.83.92.19,1.68.12,2.26-.21.59-.33,1.1-.74,1.52-1.23.42-.49.85-.92,1.29-1.28.44-.36.95-.47,1.53-.34.49.11.85.35,1.07.74.22.38.25.96.07,1.73-.43,1.93-1.42,3.55-2.94,4.87-1.52,1.32-3.41,2.23-5.65,2.74-2.24.51-4.66.52-7.28.03-3.88-.72-6.73-2.13-8.58-4.28-1.85-2.15-2.51-5.04-1.95-8.7.85-5.53,1.7-11.06,2.56-16.59.1-.67.04-1.17-.18-1.51-.22-.34-.62-.67-1.17-.99ZM365.53,127.48c.29-1.63.59-3.25.88-4.88,4.74.86,9.46,1.79,14.18,2.81.8.17,1.4.47,1.81.88.41.41.55.9.42,1.47-.19.86-.83,1.48-1.9,1.87-1.08.38-2.7.34-4.87-.11-3.5-.73-7.01-1.41-10.52-2.04Z"/>
        <path class="cls-3" d="M406,133.92c-2.2,7.77-4.41,15.53-6.61,23.3-.25.9-.36,1.55-.32,1.96.04.41.21.74.52,1,.23.19.46.37.69.56.48.38.79.77.93,1.18.14.4.14.83.01,1.28-.18.63-.54,1.05-1.07,1.29-.53.23-1.26.22-2.2-.05-5.35-1.53-10.73-2.94-16.13-4.23-.95-.23-1.59-.57-1.93-1.03-.34-.46-.44-1.01-.29-1.65.11-.45.32-.82.64-1.11.32-.28.78-.48,1.38-.57.29-.05.58-.1.87-.15.4-.07.71-.28.95-.62.23-.34.46-.96.68-1.86,1.28-5.31,2.56-10.63,3.84-15.94.17-.72.19-1.26.05-1.62-.14-.36-.41-.64-.82-.86-.26-.15-.52-.29-.78-.44-.49-.28-.83-.6-1-.95-.17-.35-.21-.75-.1-1.21.13-.54.39-.94.8-1.18.4-.24,1.1-.41,2.1-.51,3.07-.3,6.15-.56,9.24-.79,1.51-.11,2.68-.16,3.53-.13.85.02,1.58.12,2.19.29,1.23.34,2.07.88,2.52,1.62.45.74.55,1.55.31,2.43ZM398.64,125.48c-2.9-.75-5.04-1.9-6.45-3.49-1.41-1.59-1.88-3.39-1.4-5.43.47-2.01,1.71-3.4,3.72-4.13,2.01-.73,4.53-.72,7.52.05,2.99.78,5.19,2,6.6,3.62,1.4,1.62,1.81,3.43,1.24,5.42-.57,2.01-1.87,3.36-3.88,4.06-2.01.7-4.45.66-7.34-.1Z"/>
        <path class="cls-3" d="M435.8,140.24c4.27,1.55,7.72,3.68,10.32,6.32,2.6,2.64,4.23,5.58,4.9,8.79.67,3.21.28,6.46-1.12,9.75-1.29,3.04-3.33,5.42-6.08,7.17-2.75,1.76-5.9,2.75-9.47,3.03-3.57.28-7.31-.31-11.27-1.74-3.91-1.41-7.09-3.3-9.58-5.73-2.48-2.42-4.17-5.17-5.06-8.26-.88-3.1-.84-6.34.18-9.72.97-3.23,2.75-5.85,5.39-7.82,2.63-1.97,5.84-3.17,9.61-3.56,3.77-.38,7.85.2,12.17,1.77ZM427.92,169.94c.96.13,1.85-.19,2.67-.97.83-.78,1.57-2.09,2.21-3.94.64-1.85,1.17-4.3,1.55-7.36.39-2.93.5-5.4.33-7.4-.17-2-.59-3.54-1.26-4.62-.67-1.08-1.56-1.7-2.66-1.84-1.02-.14-1.94.19-2.77.99-.83.79-1.53,2.12-2.1,3.98-.57,1.86-1.02,4.33-1.37,7.41-.32,2.92-.39,5.38-.22,7.38.17,2,.56,3.52,1.17,4.57.61,1.05,1.42,1.65,2.45,1.81Z"/>
        <path class="cls-3" d="M478.47,161.93c-3.59,7.23-7.18,14.46-10.78,21.69-.41.83-.64,1.45-.67,1.85-.03.4.08.77.34,1.1.17.23.33.45.5.68.54.77.62,1.53.24,2.27-.67,1.33-1.86,1.56-3.57.71-4.92-2.45-9.89-4.79-14.89-7.02-.9-.4-1.48-.86-1.74-1.38-.26-.52-.26-1.08,0-1.68.19-.43.46-.75.83-.97.37-.22.86-.32,1.48-.3.3,0,.6,0,.89.01.41,0,.76-.14,1.05-.43.29-.29.63-.86,1.01-1.71,2.23-4.99,4.47-9.98,6.7-14.97.3-.68.42-1.21.34-1.59-.08-.38-.3-.71-.66-1-.23-.19-.46-.38-.7-.58-.44-.37-.72-.75-.82-1.12-.11-.38-.07-.78.12-1.21.22-.51.56-.85,1-1.01.45-.16,1.17-.2,2.18-.11,3.11.28,6.22.61,9.35.97,1.44.16,2.59.33,3.44.51.86.18,1.65.44,2.38.8,1.09.53,1.79,1.21,2.1,2.02.31.81.25,1.63-.15,2.44ZM473.41,168.92c-.38-1.02-.76-2.03-1.15-3.05.5-.12,1-.24,1.5-.36,4.73-1.18,8.67-1.64,11.73-1.46,3.06.19,5.65.86,7.72,1.98,3.2,1.74,5.27,4.08,6.18,6.96.91,2.89.5,5.77-1.17,8.65-2.71,4.67-5.41,9.34-8.12,14.01-.47.81-.73,1.41-.79,1.82-.06.41.03.78.28,1.11.18.24.36.48.55.72.38.5.6.96.64,1.39.04.43-.06.84-.3,1.24-.33.56-.79.89-1.37.98-.58.09-1.3-.12-2.16-.62-4.79-2.79-9.63-5.47-14.51-8.03-1.7-.89-2.21-1.99-1.52-3.31.38-.74,1.04-1.12,1.99-1.13.28,0,.56,0,.85,0,.42.01.79-.11,1.09-.37.31-.26.68-.8,1.11-1.62,2.19-4.16,4.38-8.32,6.57-12.48.69-1.32.87-2.49.52-3.51-.35-1.02-1.15-1.86-2.4-2.5-.78-.4-1.66-.68-2.65-.84-.99-.16-1.94-.14-2.86.05-.57.12-1.15.24-1.72.36Z"/>
      </g>
      <g>
        <path class="cls-2" d="M113.61,169.08c-1.61,1.02-3.2,2.04-4.8,3.08-.6-10.14-.95-20.35-1.03-30.61,0-1.96.34-3.46,1.02-4.5.68-1.04,1.88-1.93,3.59-2.66,4.95-2.12,9.93-4.14,14.94-6.07,1.14-.44,2.05-.56,2.74-.37.69.19,1.17.63,1.43,1.33.23.61.25,1.18.05,1.71-.19.53-.56,1.01-1.1,1.44-.43.34-.85.67-1.28,1.01-.7.54-1.11,1.05-1.23,1.53-.12.47-.01,1.08.34,1.82,4.74,9.79,9.42,19.6,14.04,29.44.36.79.72,1.29,1.09,1.53.37.23.88.34,1.54.31.5-.02,1-.03,1.5-.04.6-.03,1.11.11,1.54.39.42.29.74.72.95,1.29.25.68.21,1.33-.1,1.96-.32.63-.98,1.13-1.99,1.51-6.41,2.43-12.77,5.03-19.08,7.81-1.02.45-1.85.58-2.5.4-.65-.18-1.12-.6-1.42-1.26-.25-.55-.33-1.09-.25-1.61.08-.52.4-1.04.97-1.54.38-.35.76-.69,1.14-1.04.58-.54.92-1.03,1.01-1.49.09-.46-.04-1.03-.4-1.71-5.44-10.18-10.95-20.32-16.54-30.43,1.59-.84,3.18-1.68,4.78-2.5-.09,13.78.29,27.47,1.15,41.05.12,1.9-.04,3.23-.49,3.98-.45.76-1.13,1.36-2.05,1.81-.67.33-1.31.56-1.93.68-.62.13-1.31.03-2.06-.28-.76-.31-1.7-.94-2.82-1.88-10.08-8.45-20.56-16.59-31.41-24.4,1.4-1.07,2.8-2.13,4.21-3.19,4.32,10.2,8.72,20.36,13.19,30.49.45,1.03,1.09,1.65,1.91,1.86.82.21,1.76.31,2.82.29.4,0,.8,0,1.2-.01.48-.02.9.07,1.28.27.37.2.69.53.94,1,.35.66.4,1.31.17,1.95-.24.64-.84,1.22-1.8,1.74-3.23,1.76-6.45,3.56-9.64,5.42-.95.55-1.76.78-2.42.67-.66-.11-1.18-.47-1.54-1.09-.37-.62-.47-1.2-.32-1.74.15-.54.44-1.1.86-1.7.17-.23.34-.47.52-.7.5-.7.86-1.45,1.05-2.26.2-.81.07-1.71-.38-2.72-4.15-9.02-8.23-18.07-12.26-27.14-.55-1.26-1.11-2.1-1.69-2.49-.57-.4-1.32-.5-2.23-.3-.54.12-1.08.24-1.62.36-.74.16-1.38.15-1.9-.03-.52-.18-.95-.55-1.28-1.12-.79-1.37-.15-2.66,1.96-3.86,4.7-2.67,9.43-5.25,14.2-7.74,1.54-.8,2.92-1.17,4.12-1.11,1.21.06,2.62.74,4.22,2.01,7.92,6.31,15.63,12.8,23.1,19.46Z"/>
        <path class="cls-2" d="M183.81,139.31c.4,1.58.24,2.92-.48,4.03-.71,1.11-1.94,1.89-3.68,2.36-7.27,1.95-14.5,4.11-21.68,6.47-.38-1.15-.76-2.3-1.13-3.45,3.26-1.07,6.53-2.1,9.81-3.09,1.35-.41,1.86-1.19,1.51-2.35-.83-2.81-1.79-4.71-2.87-5.7-1.09-.99-2.24-1.3-3.45-.93-.88.27-1.58.8-2.1,1.6-.52.8-.8,1.86-.83,3.17-.03,1.32.24,2.88.82,4.7,1.29,4.03,3.23,6.66,5.79,7.93,2.56,1.26,5.51,1.39,8.92.41,1.58-.46,2.98-1.03,4.19-1.72,1.21-.7,2.3-1.73,3.29-3.09.55-.77.98-1.31,1.29-1.6.31-.3.64-.49.98-.58.49-.13.91,0,1.25.4.35.39.6.92.77,1.57.51,2.01.25,4.07-.74,6.19-.99,2.12-2.61,4.05-4.85,5.8-2.24,1.76-5.02,3.12-8.35,4.13-3.57,1.08-6.97,1.43-10.26,1.03-3.29-.39-6.18-1.47-8.69-3.27-2.51-1.79-4.35-4.26-5.49-7.44-1.28-3.57-1.61-6.96-.95-10.18.67-3.22,2.32-6.11,4.96-8.63,2.64-2.52,6.22-4.49,10.71-5.84,3.95-1.19,7.43-1.57,10.39-1.17,2.96.39,5.35,1.42,7.18,3.03,1.82,1.62,3.04,3.7,3.68,6.23Z"/>
        <path class="cls-2" d="M188.78,143.76c-.9-3.68-.86-7.11.18-10.29,1.03-3.17,2.87-5.88,5.52-8.08,2.65-2.2,5.89-3.69,9.68-4.42,3.17-.61,6.04-.52,8.58.25,2.54.78,4.85,2.24,6.93,4.39-1.26,1.07-2.52,2.15-3.76,3.23-1.43-1.32-2.73-2.2-3.89-2.64-1.16-.44-2.36-.55-3.59-.32-1.21.22-2.19.81-2.95,1.77-.76.95-1.21,2.33-1.37,4.13-.16,1.8.05,4.1.62,6.91.51,2.55,1.18,4.56,1.99,6.03.81,1.46,1.72,2.47,2.72,3.02,1,.55,2.05.73,3.14.52,1.36-.25,2.51-.9,3.47-1.96.96-1.05,1.78-2.63,2.46-4.72,1.01.63,2.01,1.27,3,1.91-1.57,3.53-3.48,6.44-5.73,8.74-2.25,2.31-4.99,3.77-8.27,4.44-2.83.57-5.5.42-8.04-.46-2.55-.88-4.77-2.38-6.66-4.5-1.89-2.12-3.25-4.76-4.02-7.95ZM217.26,147.56c-.18.02-.37.04-.55.06-2.04-11.66-4.07-23.33-6.11-34.99-.13-.73-.33-1.24-.61-1.51-.28-.27-.66-.42-1.13-.46-.31-.03-.61-.06-.92-.08-.59-.06-1.04-.21-1.34-.47-.31-.25-.5-.61-.59-1.06-.1-.55,0-1.02.28-1.4.29-.38.89-.82,1.8-1.32,2.81-1.52,5.64-3,8.5-4.46,1.31-.68,2.38-1.18,3.21-1.51.83-.33,1.65-.56,2.47-.68,1.23-.17,2.2,0,2.92.49.72.5,1.14,1.2,1.26,2.1,1.87,13.95,3.74,27.9,5.61,41.85.12.92.28,1.56.48,1.92.2.36.49.6.87.71.28.08.56.16.85.24.59.16,1.03.4,1.31.71.29.32.46.7.52,1.17.08.65-.07,1.18-.46,1.61-.39.42-1.06.7-2.02.82-3.06.41-6.12.85-9.18,1.33-1.61.25-3.11-.08-4.54-.99-1.43-.92-2.28-2.14-2.55-3.67-.02-.14-.05-.28-.07-.41Z"/>
        <path class="cls-2" d="M256.72,117.32c.54,8.05,1.08,16.11,1.62,24.16.06.93.18,1.58.35,1.95.17.37.45.63.82.77.28.1.55.2.83.3.58.2,1,.46,1.26.8.26.33.41.73.44,1.2.04.65-.15,1.17-.56,1.57-.41.4-1.1.63-2.07.69-5.51.36-11.01.84-16.5,1.43-.96.1-1.68,0-2.16-.32-.48-.32-.75-.8-.83-1.45-.05-.46.02-.88.22-1.25.2-.37.57-.71,1.11-1,.25-.15.51-.29.77-.44.35-.2.57-.5.68-.9.11-.4.11-1.06.01-1.98-.58-5.44-1.16-10.87-1.74-16.31-.08-.74-.24-1.26-.5-1.54-.25-.29-.6-.47-1.05-.54-.29-.05-.58-.1-.87-.15-.56-.1-.98-.29-1.26-.56-.28-.27-.45-.64-.5-1.1-.06-.55.05-1.01.35-1.38.3-.36.9-.76,1.8-1.18,2.77-1.31,5.57-2.59,8.39-3.85,1.37-.61,2.46-1.05,3.26-1.31.8-.26,1.51-.42,2.14-.47,1.26-.1,2.23.13,2.9.68.67.55,1.03,1.28,1.09,2.18ZM247.02,111.85c-2.96.26-5.36-.1-7.21-1.12-1.85-1.02-2.9-2.56-3.14-4.64-.23-2.06.46-3.78,2.1-5.14,1.64-1.37,4-2.2,7.05-2.47,3.06-.27,5.52.14,7.38,1.19,1.85,1.06,2.84,2.63,2.98,4.69.14,2.09-.63,3.79-2.27,5.12-1.64,1.33-3.94,2.11-6.9,2.37Z"/>
        <path class="cls-2" d="M265.69,119.26c-.42-.13-.85-.26-1.27-.39-.58-.18-1.03-.43-1.33-.74-.3-.31-.47-.7-.49-1.16-.04-.67.19-1.2.69-1.59.49-.39,1.15-.6,1.96-.64.72-.03,1.44-.06,2.17-.09.5-.02.96-.15,1.39-.4.43-.25.97-.69,1.63-1.32,2.08-1.99,4.2-3.97,6.34-5.93.87-.78,1.68-1.37,2.44-1.75.76-.38,1.49-.58,2.19-.58.78,0,1.39.21,1.84.65.44.44.67,1.08.67,1.92.02,9.33.04,18.66.06,27.99,0,1.7.32,2.99.94,3.87.62.88,1.5,1.33,2.66,1.34.94,0,1.66-.21,2.17-.64.51-.44.93-.94,1.25-1.5.32-.56.66-1.07,1.01-1.5.36-.44.83-.65,1.43-.64.5.01.89.18,1.19.52.29.33.43.9.41,1.69-.05,1.98-.7,3.76-1.94,5.35-1.23,1.59-2.9,2.85-4.99,3.78-2.09.94-4.45,1.41-7.11,1.44-3.93.04-6.99-.79-9.21-2.54-2.22-1.75-3.43-4.46-3.59-8.16-.23-5.59-.47-11.18-.7-16.77-.03-.67-.18-1.16-.47-1.45-.29-.29-.73-.54-1.34-.74ZM278.25,119.3c-.03-1.65-.05-3.3-.08-4.95,4.8-.08,9.59-.07,14.39.02.81.01,1.46.19,1.94.51.48.33.71.78.7,1.36-.02.88-.52,1.62-1.5,2.2-.98.59-2.57.86-4.77.83-3.56-.03-7.12-.02-10.68.03Z"/>
        <path class="cls-2" d="M297.85,140.71c.1-3.18,1.72-5.66,4.92-7.37,3.19-1.71,7.65-2.41,13.31-1.97,1.49.11,2.78.32,3.87.6,1.09.28,1.97.63,2.65,1.04-.52.97-1.04,1.94-1.56,2.91-.5-.33-.98-.57-1.43-.72-.45-.16-.95-.26-1.5-.3-1.23-.1-2.23.2-2.99.9-.77.7-1.2,1.76-1.3,3.18-.11,1.49.16,2.64.78,3.47.63.83,1.5,1.29,2.63,1.38.71.06,1.39-.04,2.04-.3.65-.26,1.16-.58,1.51-.97.21.95.42,1.91.62,2.86-1.32,1.54-3.13,2.66-5.41,3.38-2.28.73-4.67,1.01-7.17.86-3.37-.21-6.05-1.14-8.06-2.82-2.01-1.69-2.99-3.72-2.92-6.11ZM320.17,144.74c.02-.27.05-.53.07-.8-.39-.05-.78-.09-1.17-.14.65-7.49,1.3-14.97,1.95-22.46.08-.88-.13-1.61-.62-2.19-.49-.58-1.19-.91-2.1-.98-.68-.05-1.28.05-1.81.3-.53.25-.81.62-.85,1.11-.09,1.26-.19,2.53-.28,3.79-.14,1.95-.99,3.4-2.53,4.37-1.54.97-3.66,1.37-6.37,1.22-2.31-.12-4.01-.64-5.11-1.58-1.1-.94-1.62-2.21-1.57-3.81.06-1.53.88-3.04,2.51-4.51,1.62-1.47,4.04-2.64,7.26-3.48,3.22-.84,7.25-1.08,12.06-.66,5.57.49,9.61,1.85,12.09,3.95,2.47,2.11,3.49,4.72,3.09,7.81-.7,5.52-1.4,11.03-2.09,16.55-.06.44.01.82.21,1.13.2.32.54.51,1.03.57.41.05.76,0,1.05-.18.28-.17.55-.35.8-.53.19-.14.39-.25.59-.34.2-.09.42-.12.67-.08.42.06.7.24.84.56.14.31.18.69.12,1.13-.14,1.01-.68,2.02-1.61,3.03-.93,1.01-2.21,1.81-3.84,2.39-1.63.59-3.56.75-5.82.49-2.67-.3-4.79-1.07-6.39-2.32-1.6-1.25-2.33-2.69-2.18-4.34Z"/>
        <path class="cls-2" d="M346.91,123.45c-.39-.21-.78-.42-1.17-.63-.54-.29-.93-.62-1.16-.98-.24-.36-.33-.77-.26-1.24.1-.67.42-1.14.98-1.43.56-.28,1.24-.37,2.05-.25.72.11,1.43.22,2.15.33.49.08.97.03,1.44-.13.47-.16,1.09-.49,1.86-.97,2.44-1.55,4.9-3.08,7.39-4.59,1.01-.6,1.92-1.01,2.75-1.24.82-.23,1.58-.28,2.27-.15.77.15,1.33.48,1.68,1,.35.52.45,1.19.29,2.01-1.79,9.16-3.57,18.31-5.36,27.47-.32,1.67-.26,2.99.17,3.98.44.99,1.23,1.59,2.37,1.83.92.19,1.68.12,2.27-.21.59-.33,1.1-.74,1.52-1.23.42-.49.85-.92,1.29-1.28.43-.36.95-.47,1.53-.34.49.11.85.35,1.07.74.22.38.25.96.07,1.73-.43,1.93-1.42,3.55-2.94,4.87-1.52,1.32-3.41,2.23-5.65,2.74-2.24.51-4.66.52-7.28.03-3.88-.72-6.73-2.13-8.58-4.28-1.85-2.15-2.51-5.04-1.95-8.7.85-5.53,1.7-11.06,2.56-16.59.1-.67.04-1.17-.18-1.51-.22-.34-.62-.67-1.17-.99ZM359.26,125.92c.29-1.63.59-3.25.88-4.88,4.74.86,9.46,1.79,14.18,2.81.8.17,1.4.47,1.81.88.41.41.55.9.42,1.47-.19.86-.83,1.48-1.9,1.87-1.08.38-2.7.34-4.87-.11-3.5-.73-7.01-1.41-10.52-2.04Z"/>
        <path class="cls-2" d="M399.74,132.36c-2.2,7.77-4.41,15.53-6.61,23.3-.25.9-.36,1.55-.32,1.96.04.41.21.74.52,1,.23.19.46.37.69.56.48.38.79.77.93,1.18.14.4.14.83.01,1.28-.18.63-.54,1.05-1.07,1.29-.53.23-1.26.22-2.2-.05-5.35-1.53-10.73-2.94-16.13-4.23-.95-.23-1.59-.57-1.93-1.03-.34-.46-.44-1.01-.29-1.65.11-.45.32-.82.63-1.11.32-.28.78-.48,1.38-.57.29-.05.58-.1.87-.15.4-.07.71-.28.95-.62.23-.34.46-.96.68-1.86,1.28-5.31,2.56-10.63,3.84-15.94.17-.72.19-1.26.05-1.62-.14-.36-.41-.64-.82-.86-.26-.15-.52-.29-.78-.44-.49-.28-.83-.6-1-.95-.17-.35-.21-.75-.1-1.21.13-.54.39-.94.8-1.18.41-.24,1.11-.41,2.1-.51,3.07-.3,6.15-.56,9.24-.79,1.51-.11,2.68-.15,3.53-.13.85.02,1.58.12,2.19.29,1.23.34,2.07.88,2.52,1.62.45.74.55,1.55.3,2.42ZM392.37,123.92c-2.9-.75-5.04-1.9-6.45-3.49-1.41-1.59-1.89-3.39-1.41-5.43.47-2.01,1.71-3.4,3.72-4.13,2.01-.73,4.53-.72,7.52.05,2.99.78,5.19,2,6.6,3.62,1.41,1.62,1.81,3.43,1.24,5.42-.57,2.01-1.87,3.36-3.88,4.06-2.01.7-4.45.66-7.34-.1Z"/>
        <path class="cls-2" d="M429.54,138.68c4.27,1.55,7.72,3.68,10.32,6.32,2.6,2.64,4.23,5.58,4.9,8.79.67,3.21.28,6.46-1.12,9.75-1.29,3.04-3.33,5.42-6.08,7.17-2.75,1.76-5.9,2.75-9.47,3.03-3.57.28-7.31-.31-11.27-1.74-3.91-1.41-7.09-3.3-9.58-5.73-2.48-2.42-4.17-5.17-5.06-8.26-.88-3.1-.84-6.34.18-9.72.97-3.23,2.75-5.85,5.39-7.82,2.63-1.97,5.84-3.17,9.61-3.56,3.77-.38,7.85.2,12.17,1.77ZM421.65,168.38c.96.13,1.85-.19,2.67-.97.83-.78,1.57-2.09,2.21-3.94.64-1.85,1.17-4.3,1.55-7.36.39-2.93.5-5.4.33-7.4-.17-2-.59-3.54-1.26-4.62-.67-1.08-1.56-1.7-2.66-1.84-1.02-.14-1.94.19-2.77.99-.83.79-1.53,2.12-2.1,3.98-.57,1.86-1.02,4.33-1.37,7.41-.32,2.92-.39,5.38-.22,7.38.17,2,.56,3.52,1.17,4.57.61,1.05,1.42,1.65,2.45,1.81Z"/>
        <path class="cls-2" d="M472.21,160.37c-3.59,7.23-7.18,14.46-10.78,21.69-.41.83-.64,1.45-.67,1.85-.03.4.08.77.33,1.1.17.23.33.45.5.68.54.77.62,1.53.24,2.27-.67,1.33-1.86,1.56-3.57.71-4.92-2.45-9.89-4.79-14.89-7.02-.9-.4-1.48-.86-1.74-1.38-.26-.52-.26-1.08,0-1.67.19-.43.46-.75.83-.97.37-.22.86-.32,1.48-.3.3,0,.6,0,.89.01.41,0,.76-.14,1.05-.43.29-.29.63-.86,1.01-1.71,2.23-4.99,4.47-9.98,6.7-14.97.3-.68.42-1.21.34-1.59-.08-.38-.3-.71-.66-1-.23-.19-.46-.38-.7-.58-.44-.37-.72-.75-.82-1.12-.11-.38-.07-.78.12-1.21.22-.51.56-.85,1-1.01.45-.16,1.17-.2,2.18-.11,3.11.28,6.22.61,9.35.97,1.44.16,2.59.33,3.44.51.86.18,1.65.45,2.38.8,1.09.53,1.79,1.21,2.1,2.02.31.81.25,1.63-.15,2.44ZM467.15,167.36c-.38-1.02-.76-2.03-1.15-3.05.5-.12,1-.24,1.5-.36,4.73-1.18,8.67-1.64,11.73-1.46,3.06.19,5.65.86,7.72,1.98,3.2,1.73,5.27,4.08,6.18,6.96.91,2.89.5,5.77-1.17,8.65-2.71,4.67-5.41,9.34-8.12,14.01-.47.81-.73,1.41-.79,1.82-.06.41.03.78.28,1.11.18.24.36.48.55.72.38.5.6.96.64,1.39.04.43-.06.84-.3,1.24-.33.56-.79.89-1.36.98-.58.09-1.3-.12-2.16-.62-4.79-2.79-9.63-5.47-14.51-8.03-1.7-.89-2.21-1.99-1.52-3.31.38-.74,1.04-1.12,1.98-1.13.28,0,.57,0,.85,0,.42,0,.79-.11,1.09-.37.31-.26.68-.8,1.11-1.62,2.19-4.16,4.38-8.32,6.57-12.48.69-1.32.87-2.49.52-3.51-.35-1.02-1.15-1.86-2.4-2.5-.78-.4-1.66-.68-2.65-.84-.99-.16-1.94-.14-2.86.05-.57.12-1.15.24-1.72.36Z"/>
      </g>
      <path class="cls-5" d="M304.25,489.42c-58.7-9.92-143.52-82.96-193.81-160-54.73-74.47,64.98-212.45,173.76-64.95,45.17-140.53,208.47-103.74,165.94,35.03-57.16,143.82-145.9,189.91-145.9,189.91Z"/>
      <circle class="cls-4" cx="301.93" cy="299.27" r="2.46"/>
      <circle class="cls-4" cx="239.13" cy="306.79" r="2.46"/>
      <path class="cls-7" d="M130.23,357.26s135.16,40.51,177.05,13.79c20.34-30.82,27.23-19.34,27.23-10.34,13.79-9.76,19.83-4.95,10.35,4.85,13.79-3.99,15.23,8.08,4.6,10.67,13.68,3,10.32,9.91.22,10.15,7.99,5.95,1.22,10.53-3.95,8.81-6.9,12.07-28.44,7.76-28.44,7.76-99.99,21.55-140.88,6.38-140.88,6.38-36.83-7.84-61.98-55.09-46.16-52.06Z"/>
      <path class="cls-7" d="M429.45,335.19s-128.12,59.12-173.35,38.55c-24.47-27.65-29.68-15.32-28.41-6.41-15.03-7.73-20.33-2.12-9.56,6.26-14.21-2.01-13.94,10.14-3.05,11.21-10.25,5.44-6.92,10.56-.21,8.74-3.79,10.11,1.7,11.95,6.57,9.51,8.52,10.98,29.25,3.68,29.25,3.68,102.02,7.28,140.38-13.5,140.38-13.5,35.36-12.94,53.61-63.26,38.38-58.04Z"/>
      <path class="cls-6" d="M224.34,324.54c23.96,22.73,68.81,19.04,82.94,0"/>
    </g>
  </g>
</svg>