<?xml version="1.0" encoding="UTF-8"?>
<svg id="Layer_1" data-name="Layer 1" xmlns="http://www.w3.org/2000/svg" xmlns:xlink="http://www.w3.org/1999/xlink" version="1.1" viewBox="0 0 576 576">
  <defs>
    <style>
      .cls-1 {
        fill: #bf6a6a;
      }

      .cls-1, .cls-2, .cls-3, .cls-4 {
        stroke-width: 0px;
      }

      .cls-5, .cls-6, .cls-7, .cls-8, .cls-9, .cls-10, .cls-11, .cls-12, .cls-13, .cls-14, .cls-15, .cls-16, .cls-17, .cls-18, .cls-19 {
        stroke-miterlimit: 10;
      }

      .cls-5, .cls-6, .cls-7, .cls-8, .cls-9, .cls-10, .cls-11, .cls-12, .cls-13, .cls-15, .cls-16, .cls-17, .cls-18, .cls-19 {
        stroke: #33f;
      }

      .cls-5, .cls-6, .cls-11, .cls-13, .cls-15, .cls-16 {
        stroke-width: .3px;
      }

      .cls-5, .cls-12, .cls-4 {
        fill: #ede6d2;
      }

      .cls-20 {
        mask: url(#mask);
      }

      .cls-6 {
        fill: #f2d358;
      }

      .cls-2 {
        fill: #6a5acd;
        opacity: .3;
      }

      .cls-7 {
        stroke-width: .4px;
      }

      .cls-7, .cls-9 {
        fill: #d77871;
      }

      .cls-8, .cls-3, .cls-18 {
        fill: #33f;
      }

      .cls-8, .cls-14, .cls-19 {
        stroke-width: .4px;
      }

      .cls-9, .cls-17 {
        stroke-width: .3px;
      }

      .cls-10 {
        stroke-width: 1px;
      }

      .cls-10, .cls-14, .cls-15, .cls-19 {
        fill: none;
      }

      .cls-11, .cls-17 {
        fill: #f3acb9;
      }

      .cls-12 {
        stroke-width: .4px;
      }

      .cls-13 {
        fill: #f2f2f2;
      }

      .cls-14 {
        stroke: #6a5acd;
      }

      .cls-21 {
        mask: url(#mask-1);
      }

      .cls-16 {
        fill: #42d190;
      }

      .cls-18 {
        stroke-width: .2px;
      }
    </style>
    <mask id="mask" x="58.1" y="95.7" width="233" height="245" maskUnits="userSpaceOnUse">
      <image width="233" height="245" transform="translate(58.1 95.7)" xlink:href="konmari-1.png"/>
    </mask>
    <mask id="mask-1" x="25.1" y="314.7" width="132" height="132" maskUnits="userSpaceOnUse">
      <image width="132" height="132" transform="translate(25.1 314.7)" xlink:href="konmari-2.png"/>
    </mask>
  </defs>
  <rect class="cls-4" x="-40.7" width="657.1" height="576"/>
  <line class="cls-15" x1="144.3" y1="430.1" x2="418" y2="430.1"/>
  <line class="cls-15" x1="433.2" y1="437.9" x2="544.5" y2="437.9"/>
  <line class="cls-15" x1="-79" y1="391" x2="638.6" y2="391"/>
  <g>
    <rect class="cls-5" x="423.8" y="155.6" width="56.3" height="56.3" transform="translate(635.8 -268.2) rotate(90)"/>
    <rect class="cls-5" x="427.2" y="159" width="49.5" height="49.5"/>
  </g>
  <g>
    <rect class="cls-5" x="497.9" y="199.6" width="56.3" height="56.3" transform="translate(753.9 -298.3) rotate(90)"/>
    <rect class="cls-5" x="501.4" y="203.1" width="49.5" height="49.5"/>
  </g>
  <path class="cls-13" d="M253,168c-10.5,1.5-37.6,5.5-41.3,2.4s-10.6-10,13.4-6.5c5.3-12.4,45.1,1.5,27.9,4.1Z"/>
  <path class="cls-13" d="M291,189.8c8.1,1.2,34.4,2.7,37.2.3,2.8-2.4-2.4-12.2-19.4-4.4-12.7-3.2-31.2,2.1-17.9,4.1Z"/>
  <g>
    <rect class="cls-19" x="175.4" y="144.5" width="160.5" height="135.9"/>
    <line class="cls-8" x1="134.4" y1="284.5" x2="366" y2="284.5"/>
    <line class="cls-19" x1="265.2" y1="144.5" x2="265.2" y2="280.4"/>
    <g>
      <path class="cls-19" d="M184.3,144.5c5.1-9.9,2.3-11.1-1-7.4"/>
      <path class="cls-19" d="M214.4,144.5c5.1-9.9,2.3-11.1-1-7.4"/>
      <path class="cls-19" d="M249.2,144.5c5.1-9.9,2.3-11.1-1-7.4"/>
      <path class="cls-19" d="M281.8,144.5c5.1-9.9,2.3-11.1-1-7.4"/>
      <path class="cls-19" d="M315.8,143.6c5.1-9.9,2.3-11.1-1-7.4"/>
    </g>
    <rect class="cls-19" x="169.4" y="139" width="172.5" height="145.3"/>
  </g>
  <g>
    <path class="cls-2" d="M207.9,295.6c-15,4.5-16.4,8.5-27.6,3.3-11.9-3.4-30.8,1.6-51.5-3.3,16.2-17.5,17.5-20.9,18.2-48.4-2.4-22.2,8.8-62.4,14-68.2,8.1-14.5,8.4-24.9,8.9-39.3h73.5c.2,17.6-2.3,31.9-9.2,40.6-9.8,18.5-18.8,51.5-15.1,66.4,1.7,17.5-2,33.7-11.1,48.7Z"/>
    <g class="cls-20">
      <path class="cls-2" d="M207.9,295.6c-15.1,4.1-16.4,8.8-27.6,3.3-8.6-4-35.1,1.6-51.5-3.3,9.6-11.4,19.4-17,17.9-47-1.1-17.7,3.5-43,10.3-61,8.4-15.5,14.6-31.4,12.5-47.8h73.5c.6,19.2-2.3,33.4-9.4,41.7-8.9,15.9-18.3,43-14.5,64.7,1.6,19.3-2.4,35.6-11.1,49.5Z"/>
    </g>
    <path class="cls-14" d="M176.5,154.8c-.2,12.7-2.4,23.8-7.4,32.8-5.1,8.6-6.7,20.3-7.4,32.8"/>
    <path class="cls-14" d="M183.7,168.4c3.8,18.7-3.5,31.6-11.3,53.4-15,34.2-13.1,54.6-12.5,58.8"/>
    <path class="cls-14" d="M199.5,164.7c2.2,12.8-2.5,23-6.9,30.7-9.2,16.2-12.6,31.9-11.4,50.5"/>
    <path class="cls-14" d="M222.2,162.2c2.1,7.6,2.2,16.5-7,31.3-6.7,11.9-10.7,28.8-10.3,45.7,1.2,15-1.3,23.7-7.8,34.9"/>
  </g>
  <g>
    <path class="cls-10" d="M106.5,309.1c-11.2,14.3-15.5,36.7-14.3,58.3"/>
    <path class="cls-10" d="M86.7,352c11.4,12.4,14.5,16.7,14.5,16.7"/>
    <path class="cls-10" d="M101.2,339.6c-7.6,6.8-7.7,30-7.7,30"/>
    <g>
      <path class="cls-10" d="M78.7,283c1.4,2.6,9.5,23.6,11.4,37.1l6.9,51"/>
      <line class="cls-10" x1="87.8" y1="288.9" x2="85.2" y2="300.5"/>
      <line class="cls-10" x1="79.2" y1="289.5" x2="82.7" y2="293.2"/>
      <line class="cls-10" x1="81.8" y1="304.1" x2="88" y2="309.9"/>
      <line class="cls-10" x1="90.1" y1="307.7" x2="88.9" y2="314.1"/>
    </g>
    <path class="cls-15" d="M104.2,309.9c-2.3-9,.2-16.8,2.3-20.4l2.8,3.6v-9.5c3.5-3.7,9.2-6.4,9.2-6.4,0,0,.9,4.5.9,4.9s1.3,4.6,1.6.8,0-8.5,0-8.5c5.5-4,12.5-4.9,12.5-4.9-.3,18-10.8,40.6-28.1,42.7l-1.2-2.3Z"/>
    <path class="cls-15" d="M98.4,339.6c2.6-5.4,15.4-21.1,24.3-25.5-1.5,9.9-10.6,21-10.6,21l-2.4-2.3v4.4l-10.5,6.1s-5.5,6.1-.8-3.6Z"/>
    <path class="cls-15" d="M58.9,335c4.1,0,10.2,1.7,10.2,1.7l2.6,3.6v-2c10.1,2.4,18.8,16.3,18.8,16.3l-11.4-3.1v-1.8l-3,1.6c-4.7-.8-8.3-5.1-8.3-5.1l2.6-1.1-4.6-.3c-2.5-1.7-7-9.8-7-9.8Z"/>
    <path class="cls-15" d="M77.1,272c-3.7,6.5-4,14.7-4,14.7l5.3,6.8-5.3-1.8c2.6,11,5.3,16,5.3,16l3.5,1.5-2.7.8,11.3,13.5c5.8-11.9,3.5-25.7,3.5-25.7l-3.9,1.5,3.5-5.2c-1.6-7.7-6.1-13.7-6.1-13.7,0,0-1.3,4.8-2.3,6.6s-2.2-.5-1.4-3.7.8-6.3.8-6.3c-3.7-4.5-7.4-5-7.4-5Z"/>
    <path class="cls-5" d="M74.7,364.4c-5.9,14.5-3.5,36,7.5,43.3h23.1c10.7-11.6,12.8-25.5,7.4-43.3h-38Z"/>
    <g class="cls-21">
      <path class="cls-1" d="M75,364.7c-5.9,14.3-3.5,35.5,7.4,42.7h22.8c10.5-11.5,12.6-25.1,7.3-42.7h-37.5Z"/>
    </g>
  </g>
  <g>
    <g>
      <path class="cls-16" d="M397,428.2l-3.7-21.1c0-.3-.3-.5-.6-.5h-7.7c-.5,0-.8.5-.6.9l11.4,21.1c.3.6,1.3.3,1.2-.4Z"/>
      <polygon class="cls-18" points="393.6 408.7 391.9 403.1 383.1 405.1 386.4 410.7 393.6 408.7"/>
    </g>
    <g>
      <path class="cls-16" d="M188.7,428.2l3.7-21.1c0-.3.3-.5.6-.5h7.7c.5,0,.8.5.6.9l-11.4,21.1c-.3.6-1.3.3-1.2-.4Z"/>
      <polygon class="cls-18" points="192.2 408.7 193.8 403.1 202.6 405.1 199.3 410.7 192.2 408.7"/>
    </g>
    <path class="cls-16" d="M180.2,312.7c5.9-20,18.9-36.6,36.3-37.9h0l147.5-1c35.1,0,39.5,42,39.5,42l-5.3,53.1h-218v-56.2Z"/>
    <path class="cls-16" d="M154.3,345c-26.9-4.6-26.4-55.7,23.5-34.6,13.7,15,16.6,25.8,16.1,58.1h199.9c.5-42,2.9-48.9,16.6-58.1,38.3-25.7,61.6,31.4,22.5,31.4l.5,40.8c-2.9,25.8-26.9,24.9-26.9,24.9,0,0-206.8,2-225.8,0s-24.9-17.6-25.9-24-.5-38.6-.5-38.6Z"/>
  </g>
  <rect class="cls-12" x="18.6" y="232" width="77.2" height="4.4"/>
  <g>
    <rect class="cls-5" x="32" y="193.5" width="7.7" height="38.5"/>
    <rect class="cls-3" x="32" y="197.2" width="7.7" height="1.2"/>
    <rect class="cls-3" x="32" y="198.8" width="7.7" height="1.2"/>
    <rect class="cls-3" x="32" y="228.4" width="7.7" height="1.2"/>
  </g>
  <g>
    <rect class="cls-5" x="39.7" y="193.5" width="7.7" height="38.5"/>
    <rect class="cls-3" x="39.7" y="197.2" width="7.7" height="1.2"/>
    <rect class="cls-3" x="39.7" y="198.8" width="7.7" height="1.2"/>
    <rect class="cls-3" x="39.7" y="228.4" width="7.7" height="1.2"/>
  </g>
  <g>
    <rect class="cls-5" x="47.4" y="193.5" width="7.7" height="38.5"/>
    <rect class="cls-3" x="47.4" y="197.2" width="7.7" height="1.2"/>
    <rect class="cls-3" x="47.4" y="198.8" width="7.7" height="1.2"/>
    <rect class="cls-3" x="47.4" y="228.4" width="7.7" height="1.2"/>
  </g>
  <g>
    <rect class="cls-5" x="55.1" y="193.5" width="7.7" height="38.5"/>
    <rect class="cls-3" x="55.1" y="197.2" width="7.7" height="1.2"/>
    <rect class="cls-3" x="55.1" y="198.8" width="7.7" height="1.2"/>
    <rect class="cls-3" x="55.1" y="228.4" width="7.7" height="1.2"/>
  </g>
  <g>
    <rect class="cls-5" x="62.8" y="193.5" width="7.7" height="38.5"/>
    <rect class="cls-3" x="62.8" y="197.2" width="7.7" height="1.2"/>
    <rect class="cls-3" x="62.8" y="198.8" width="7.7" height="1.2"/>
    <rect class="cls-3" x="62.8" y="228.4" width="7.7" height="1.2"/>
  </g>
  <g>
    <rect class="cls-5" x="76.7" y="193.2" width="7.7" height="38.5" transform="translate(-66.8 39.5) rotate(-19.7)"/>
    <rect class="cls-3" x="71.7" y="197.8" width="7.7" height="1.2" transform="translate(-62.3 37) rotate(-19.7)"/>
    <rect class="cls-3" x="72.2" y="199.3" width="7.7" height="1.2" transform="translate(-62.8 37.3) rotate(-19.7)"/>
    <rect class="cls-3" x="82.2" y="227.2" width="7.7" height="1.2" transform="translate(-71.6 42.2) rotate(-19.7)"/>
  </g>
  <g>
    <path class="cls-11" d="M455.6,372.1h11.7l-11.6,65c-.8,2.5-4.1,1.5-3.7-1.1l3.6-63.8Z"/>
    <path class="cls-11" d="M517.6,371.5h-12.3l11.7,65c.8,2.5,4.1,1.5,3.7-1.1l-3.2-63.8Z"/>
    <polygon class="cls-3" points="455.1 382 455.6 372.2 467.3 372.2 465.4 383.2 455.1 382"/>
    <polygon class="cls-3" points="518 381.6 517.4 371.8 505.7 371.8 507.7 382.8 518 381.6"/>
    <rect class="cls-17" x="440.1" y="368.6" width="96.1" height="11.5" rx="5.7" ry="5.7"/>
  </g>
  <path class="cls-7" d="M514.9,343.1c13.2-.2,16.6,16.6,0,16.6v-4.2c6.3-.2,9.8-7.3,0-7.1v-5.4Z"/>
  <path class="cls-9" d="M493.6,338.6h23.5v19.3c0,6.5-5.3,11.7-11.7,11.7h0c-6.5,0-11.7-5.3-11.7-11.7v-19.3h0Z"/>
  <rect class="cls-6" x="408.7" y="109.4" width="2.4" height="69"/>
  <path class="cls-6" d="M386.7,198.4c0-12.9,10.4-23.3,23.3-23.3s23.3,10.4,23.3,23.3h-46.5Z"/>
</svg>