<?xml version="1.0" encoding="UTF-8"?>
<svg id="Layer_2" xmlns="http://www.w3.org/2000/svg" version="1.1" viewBox="0 0 107.7 33.6">
  <!-- Generator: Adobe Illustrator 29.1.0, SVG Export Plug-In . SVG Version: 2.1.0 Build 142)  -->
  <defs>
    <style>
      .st0 {
        fill: none;
      }

      .st1 {
        fill: #ff6f26;
      }

      .st2, .st3 {
        fill: #006afe;
      }

      .st3 {
        font-family: Unbounded-Bold, Unbounded;
        font-size: 11.4px;
        font-weight: 700;
      }

      .st3, .st4, .st5 {
        isolation: isolate;
      }

      .st5 {
        display: none;
      }

      .st6 {
        fill: #fff5e4;
      }
    </style>
  </defs>
  <g id="Layer_1-2">
    <g>
      <circle class="st0" cx="16.8" cy="16.8" r="16.8"/>
      <path class="st1" d="M16.8,9.5l-1,.2c-.3,0-.4.4-.3.6l.4.9c.2.4-.3.7-.6.5l-.8-.6c-.2-.2-.5,0-.6.1l-.5.9c-.2.4-.7.2-.8-.2v-1c0-.3-.3-.5-.5-.4l-1,.2c-.4,0-.6-.4-.3-.7l.8-.7c.2-.2.2-.5,0-.7l-.8-.7c-.3-.3,0-.8.3-.7l1,.2c.3,0,.5,0,.5-.4v-1c0-.4.6-.5.8-.2l.5.9c.1.2.4.3.6.2l.8-.6c.3-.2.8,0,.6.5l-.4.9c-.1.2,0,.5.3.6l1,.2c.4.1.4.7,0,.8h0v.2Z"/>
      <path class="st2" d="M4,21.2c.7-3.6,3.8-9.3,7.1-8.7,1.3.3,1.2,1.7,1,3.1,0,.4,0,1.7.4,1.8.9.2,1.9-3.3,4-2.9,2.5.5,2.3,5.8,1.4,10.6-.4,1.9-1.6,3.8-3.6,3.4-1.2-.2-2-1.4-1.7-2.6.4-2,2.5-1.9,3-4.3.3-1.5-.2-2-.6-2-2.3-.5-1.4,3.9-4.3,3.3-1.7-.3-1.9-1.2-1.7-2.3.2-1,.7-2,.8-2.7,0-.5,0-.8-.4-.9-1-.2-1.6,1.2-1.7,2-.3,1.4,0,3-.3,4.2-.2,1-.8,1.8-1.8,1.6-1.4-.3-2-1.2-1.5-3.5h0Z"/>
      <path class="st2" d="M25.4,9.6c1.4-.3,2.4.4,2.7,1.7.4,1.4.1,3.8.9,7,.7,2.9,1.7,3.3,1.9,3.9,0,.3-.3.6-.6.7-.8.2-2-.1-3.1-.8-2.2-1.4-4.2-6.1-5.9-5.7-.6.1-.7.8-.5,1.3.7,2.7,2.7,2.9,3.1,4.8.3,1.1-.9,2.1-1.9,2.4-1.4.4-2.3-.3-2.5-1.1-.2-.7,0-1.7.2-2.5.2-.7.5-1.8-.1-4.1-.1-.6-.4-1.2-.6-1.9-.8-1.9-1.8-1.9-2-2.6-.1-.4.4-.8,1-1,1.8-.4,3.9.6,6.6,4.2.6.9,1.3,2.1,2.3,1.8.4-.1.6-.6.4-1.5-.5-2-3-1.8-3.6-4.1-.3-1.3.5-2.3,1.7-2.6h0Z"/>
    </g>
  </g>
  <g class="st4">
    <g class="st4">
      <path class="st2" d="M50.4,7.2v8.5h-2.2v-7.7h.5c0,0-3.3,7.7-3.3,7.7h-2.4l-3.3-7.6h.5c0,0,0,7.6,0,7.6h-2.2V7.2h3.6l3.1,7.3h-.9l3-7.3h3.6Z"/>
      <path class="st2" d="M58.2,7.2l3.9,8.5h-2.5l-3.3-7.5h.7l-3.3,7.5h-2.5l3.9-8.5h3.1ZM53.7,14.2v-1.9h5.9v1.9h-5.9Z"/>
      <path class="st2" d="M67.2,7.2c1,0,1.9.2,2.7.5s1.4.9,1.8,1.5.6,1.4.6,2.3-.2,1.6-.6,2.3-1,1.1-1.8,1.5-1.7.5-2.7.5h-4.3V7.2h4.3ZM65.2,14.8l-1.1-1.1h3.2c.5,0,1,0,1.3-.3s.7-.4.9-.8c.2-.3.3-.7.3-1.2s-.1-.8-.3-1.2c-.2-.3-.5-.6-.9-.8s-.8-.3-1.3-.3h-3.2l1.1-1.1v6.6Z"/>
      <path class="st2" d="M78.2,16c-1,0-1.9-.2-2.7-.6s-1.4-.9-1.8-1.6c-.4-.7-.6-1.4-.6-2.3s.2-1.7.6-2.3c.4-.7,1-1.2,1.8-1.6s1.7-.6,2.7-.6,1.9.2,2.7.6,1.4.9,1.8,1.6c.4.7.6,1.4.6,2.3s-.2,1.7-.6,2.3c-.4.7-1,1.2-1.8,1.6s-1.6.6-2.7.6ZM78.2,13.9c.6,0,1,0,1.4-.3.4-.2.7-.5.9-.8.2-.3.3-.8.3-1.3s-.1-.9-.3-1.3c-.2-.3-.5-.6-.9-.8-.4-.2-.9-.3-1.4-.3s-1,0-1.4.3c-.4.2-.7.5-.9.8s-.3.8-.3,1.3.1.9.3,1.3c.2.4.5.6.9.8.4.2.9.3,1.4.3Z"/>
      <path class="st2" d="M84.5,15.8V7.2h2.3v6.7l-.6-.5,4.8-6.2h2.5l-6.9,8.5h-2.1ZM88.5,11.7l1.7-1.4,3.4,5.5h-2.7l-2.4-4.1Z"/>
      <path class="st2" d="M100.6,7.2l3.9,8.5h-2.5l-3.3-7.5h.7l-3.3,7.5h-2.5l3.9-8.5h3.1ZM96,14.2v-1.9h5.9v1.9h-5.9Z"/>
    </g>
    <g class="st4">
      <path class="st2" d="M45.8,25h-.7c0,.1,0-6.9,0-6.9h2.3v8.5h-3l-4.9-7h.7c0-.1,0,7,0,7h-2.3v-8.5h3.1l4.9,6.9Z"/>
      <path class="st2" d="M53.7,26.9c-1,0-1.9-.2-2.7-.6s-1.4-.9-1.8-1.6c-.4-.7-.6-1.4-.6-2.3s.2-1.7.6-2.3c.4-.7,1-1.2,1.8-1.6s1.7-.6,2.7-.6,1.9.2,2.7.6,1.4.9,1.8,1.6c.4.7.6,1.4.6,2.3s-.2,1.7-.6,2.3c-.4.7-1,1.2-1.8,1.6s-1.6.6-2.7.6ZM53.7,24.8c.6,0,1,0,1.4-.3.4-.2.7-.5.9-.8.2-.3.3-.8.3-1.3s-.1-.9-.3-1.3c-.2-.3-.5-.6-.9-.8-.4-.2-.9-.3-1.4-.3s-1,0-1.4.3c-.4.2-.7.5-.9.8-.2.3-.3.8-.3,1.3s.1.9.3,1.3c.2.4.5.6.9.8.4.2.9.3,1.4.3Z"/>
      <path class="st2" d="M68.7,23c0,.5-.1,1-.3,1.5-.2.5-.5.9-.8,1.2-.4.4-.8.6-1.3.9-.5.2-1.1.3-1.8.3s-1.3,0-1.9-.3c-.6-.2-1.1-.5-1.5-.9s-.8-.8-1-1.4-.4-1.2-.4-1.9.1-1.3.4-1.9c.2-.6.6-1,1.1-1.4s1-.7,1.6-.9c.6-.2,1.2-.3,2-.3s1.8.1,2.4.4c.7.3,1.2.7,1.7,1.2.4.5.7,1.1.8,1.7h-2.4c0-.3-.2-.5-.5-.7-.2-.2-.5-.4-.9-.5s-.7-.2-1.2-.2-1,0-1.4.3c-.4.2-.7.5-.9.8-.2.4-.3.8-.3,1.4s.1,1,.3,1.4c.2.4.6.7,1,.9.4.2.9.3,1.5.3s1,0,1.5-.2c.4-.2.8-.4,1-.7.3-.3.4-.7.4-1.1h1ZM65,23.9v-1.7h4.5v4.4h-1.7l-.3-3.4.4.6h-3Z"/>
      <path class="st2" d="M77,18.2l3.9,8.5h-2.5l-3.3-7.5h.7l-3.3,7.5h-2.5l3.9-8.5h3.1ZM72.5,25.1v-1.9h5.9v1.9h-5.9Z"/>
      <path class="st2" d="M81.7,26.7v-8.5h2.3v6.7l-.6-.5,4.8-6.2h2.5l-6.9,8.5h-2.1ZM85.8,22.6l1.7-1.4,3.4,5.5h-2.7l-2.4-4.1Z"/>
      <path class="st2" d="M91.6,18.2h2.4v8.5h-2.4v-8.5Z"/>
    </g>
  </g>
  <g class="st5">
    <text class="st3" transform="translate(37.1 -48.8)"><tspan x="0" y="0">MADOKA</tspan></text>
    <text class="st3" transform="translate(37.1 -37.9)"><tspan x="0" y="0">NOGAKI</tspan></text>
  </g>
  <g id="Initial_Ideas">
    <g>
      <circle class="st6" cx="16.6" cy="16.7" r="16.6"/>
      <path class="st2" d="M11.4,17.7c-.4,0-.8-.3-.8-.7s-.4-2,.4-3.2c.3-.4.8-.5,1.2-.3.4.3.5.8.3,1.2-.4.6-.3,1.6-.2,1.9,0,.5-.2.9-.7,1h-.2Z"/>
      <path class="st2" d="M15.6,17.6c-.4,0-.7-.3-.8-.7,0-.2-.4-1.9.4-3.2.3-.4.8-.5,1.2-.2s.5.8.2,1.2c-.4.6-.3,1.6-.2,1.9,0,.5-.2.9-.7,1h-.2.1Z"/>
      <path class="st2" d="M15.9,23.6c-1.8,0-3.6-.7-4.8-1.8-.3-.3-.3-.9,0-1.2.3-.3.9-.4,1.2,0,1.2,1.2,3.3,1.7,5.1,1.2.7-.2,1.8-.7,2.1-1.9.3-1.1-.1-1.6-.3-1.7h0c-.4-.4-.4-.9-.1-1.3.3-.3.8-.4,1.2-.1.4.3,1.6,1.3,1,3.5-.4,1.5-1.6,2.6-3.3,3.1-.6.2-1.3.3-1.9.3h-.2Z"/>
      <path class="st2" d="M21.6,6.1c-1,.2-1.7.7-2.4,1.3-.9.6-1.8,1.3-3.2,1.4-1.5.1-2.4-.5-3.5-1.1-.9-.5-1.7-1.1-2.9-1.1h0c-1.8,0-5.1,1.4-8.5,16.1.4.9.8,1.8,1.3,2.6h0c.6.9,1.2,1.8,1.9,2.6,1-12.1,4-19.5,5.3-19.5h0c.8,0,1.5.8,2.3,1.3,1.1.7,2.3,1.1,4.1.9,1.7-.2,2.9-.8,3.9-1.5.7-.5,1.2-.7,2-.9,1.3-.2,6,10.6,8.1,18.5,1.2-1.6,2.1-3.4,2.7-5.4-6.1-13.8-9.3-15.4-11.1-15.1h0Z"/>
    </g>
  </g>
</svg>