<?xml version="1.0" encoding="UTF-8"?>
<svg id="Layer_2" xmlns="http://www.w3.org/2000/svg" version="1.1" viewBox="0 0 129.9 50.1">
  <!-- Generator: Adobe Illustrator 29.1.0, SVG Export Plug-In . SVG Version: 2.1.0 Build 142)  -->
  <defs>
    <style>
      .st0 {
        fill: none;
      }

      .st1 {
        fill: #ff6f26;
      }

      .st2, .st3 {
        fill: #006afe;
      }

      .st3 {
        font-family: Unbounded-Bold, Unbounded;
        font-size: 11.4px;
        font-weight: 700;
      }

      .st3, .st4, .st5 {
        isolation: isolate;
      }

      .st5 {
        display: none;
      }

      .st6 {
        fill: #fff5e4;
      }
    </style>
  </defs>
  <g class="st5">
    <g class="st5">
      <text class="st3" transform="translate(48.5 -41.4)"><tspan x="0" y="0">MADOKA</tspan></text>
    </g>
    <g class="st5">
      <text class="st3" transform="translate(48.5 -30.5)"><tspan x="0" y="0">NOGAKI</tspan></text>
    </g>
  </g>
  <g>
    <g id="Layer_1-2">
      <g>
        <circle class="st0" cx="29.5" cy="25.1" r="16.8"/>
        <path class="st1" d="M29.5,17.8l-1,.2c-.3,0-.4.4-.3.6l.4.9c.2.4-.3.7-.6.5l-.8-.6c-.2-.2-.5,0-.6.1l-.5.9c-.2.4-.7.2-.8-.2v-1c0-.3-.3-.5-.5-.4l-1,.2c-.4,0-.6-.4-.3-.7l.8-.7c.2-.2.2-.5,0-.7l-.8-.7c-.3-.3,0-.8.3-.7l1,.2c.3,0,.5,0,.5-.4v-1c0-.4.6-.5.8-.2l.5.9c.1.2.4.3.6.2l.8-.6c.3-.2.8,0,.6.5l-.4.9c-.1.2,0,.5.3.6l1,.2c.4.1.4.7,0,.8h0s0,.2,0,.2Z"/>
        <path class="st2" d="M16.7,29.5c.7-3.6,3.8-9.3,7.1-8.7,1.3.3,1.2,1.7,1,3.1,0,.4,0,1.7.4,1.8.9.2,1.9-3.3,4-2.9,2.5.5,2.3,5.8,1.4,10.6-.4,1.9-1.6,3.8-3.6,3.4-1.2-.2-2-1.4-1.7-2.6.4-2,2.5-1.9,3-4.3.3-1.5-.2-2-.6-2-2.3-.5-1.4,3.9-4.3,3.3-1.7-.3-1.9-1.2-1.7-2.3.2-1,.7-2,.8-2.7,0-.5,0-.8-.4-.9-1-.2-1.6,1.2-1.7,2-.3,1.4,0,3-.3,4.2-.2,1-.8,1.8-1.8,1.6-1.4-.3-2-1.2-1.5-3.5h0Z"/>
        <path class="st2" d="M38.1,17.9c1.4-.3,2.4.4,2.7,1.7.4,1.4.1,3.8.9,7,.7,2.9,1.7,3.3,1.9,3.9,0,.3-.3.6-.6.7-.8.2-2-.1-3.1-.8-2.2-1.4-4.2-6.1-5.9-5.7-.6.1-.7.8-.5,1.3.7,2.7,2.7,2.9,3.1,4.8.3,1.1-.9,2.1-1.9,2.4-1.4.4-2.3-.3-2.5-1.1-.2-.7,0-1.7.2-2.5.2-.7.5-1.8-.1-4.1-.1-.6-.4-1.2-.6-1.9-.8-1.9-1.8-1.9-2-2.6-.1-.4.4-.8,1-1,1.8-.4,3.9.6,6.6,4.2.6.9,1.3,2.1,2.3,1.8.4-.1.6-.6.4-1.5-.5-2-3-1.8-3.6-4.1-.3-1.3.5-2.3,1.7-2.6h0Z"/>
      </g>
    </g>
    <g class="st4">
      <g class="st4">
        <path class="st2" d="M63.1,15.5v8.5h-2.2v-7.7h.5l-3.3,7.7h-2.4l-3.3-7.6h.5v7.6h-2.2v-8.5h3.6l3.1,7.3h-.9l3-7.3h3.6Z"/>
        <path class="st2" d="M70.9,15.5l3.9,8.5h-2.5l-3.3-7.5h.7l-3.3,7.5h-2.5l3.9-8.5s3.1,0,3.1,0ZM66.4,22.5v-1.9h5.9v1.9h-5.9Z"/>
        <path class="st2" d="M79.9,15.5c1,0,1.9.2,2.7.5s1.4.9,1.8,1.5.6,1.4.6,2.3-.2,1.6-.6,2.3-1,1.1-1.8,1.5-1.7.5-2.7.5h-4.3v-8.6h4.3ZM77.9,23.1l-1.1-1.1h3.2c.5,0,1,0,1.3-.3s.7-.4.9-.8c.2-.3.3-.7.3-1.2s0-.8-.3-1.2c-.2-.3-.5-.6-.9-.8s-.8-.3-1.3-.3h-3.2l1.1-1.1v6.8Z"/>
        <path class="st2" d="M90.9,24.3c-1,0-1.9-.2-2.7-.6s-1.4-.9-1.8-1.6c-.4-.7-.6-1.4-.6-2.3s.2-1.7.6-2.3c.4-.7,1-1.2,1.8-1.6s1.7-.6,2.7-.6,1.9.2,2.7.6,1.4.9,1.8,1.6.6,1.4.6,2.3-.2,1.7-.6,2.3c-.4.7-1,1.2-1.8,1.6s-1.6.6-2.7.6ZM90.9,22.2c.6,0,1,0,1.4-.3.4-.2.7-.5.9-.8.2-.3.3-.8.3-1.3s0-.9-.3-1.3c-.2-.3-.5-.6-.9-.8s-.9-.3-1.4-.3-1,0-1.4.3c-.4.2-.7.5-.9.8s-.3.8-.3,1.3,0,.9.3,1.3c.2.4.5.6.9.8s.9.3,1.4.3Z"/>
        <path class="st2" d="M97.2,24.1v-8.6h2.3v6.7l-.6-.5,4.8-6.2h2.5l-6.9,8.5h-2.1ZM101.2,20l1.7-1.4,3.4,5.5h-2.7s-2.4-4.1-2.4-4.1Z"/>
        <path class="st2" d="M113.3,15.5l3.9,8.5h-2.5l-3.3-7.5h.7l-3.3,7.5h-2.5l3.9-8.5h3.1ZM108.7,22.5v-1.9h5.9v1.9h-5.9Z"/>
      </g>
      <g class="st4">
        <path class="st2" d="M58.5,33.3h-.7c0,.1,0-6.9,0-6.9h2.3v8.5h-3l-4.9-7h.7c0-.1,0,7,0,7h-2.3v-8.5h3.1l4.9,6.9h0Z"/>
        <path class="st2" d="M66.4,35.2c-1,0-1.9-.2-2.7-.6s-1.4-.9-1.8-1.6c-.4-.7-.6-1.4-.6-2.3s.2-1.7.6-2.3c.4-.7,1-1.2,1.8-1.6s1.7-.6,2.7-.6,1.9.2,2.7.6,1.4.9,1.8,1.6c.4.7.6,1.4.6,2.3s-.2,1.7-.6,2.3c-.4.7-1,1.2-1.8,1.6s-1.6.6-2.7.6ZM66.4,33.1c.6,0,1,0,1.4-.3.4-.2.7-.5.9-.8s.3-.8.3-1.3,0-.9-.3-1.3c-.2-.3-.5-.6-.9-.8-.4-.2-.9-.3-1.4-.3s-1,0-1.4.3c-.4.2-.7.5-.9.8s-.3.8-.3,1.3,0,.9.3,1.3.5.6.9.8c.4.2.9.3,1.4.3Z"/>
        <path class="st2" d="M81.4,31.3c0,.5,0,1-.3,1.5-.2.5-.5.9-.8,1.2-.4.4-.8.6-1.3.9-.5.2-1.1.3-1.8.3s-1.3,0-1.9-.3c-.6-.2-1.1-.5-1.5-.9s-.8-.8-1-1.4-.4-1.2-.4-1.9,0-1.3.4-1.9c.2-.6.6-1,1.1-1.4s1-.7,1.6-.9c.6-.2,1.2-.3,2-.3s1.8.1,2.4.4c.7.3,1.2.7,1.7,1.2.4.5.7,1.1.8,1.7h-2.4c0-.3-.2-.5-.5-.7-.2-.2-.5-.4-.9-.5s-.7-.2-1.2-.2-1,0-1.4.3c-.4.2-.7.5-.9.8-.2.4-.3.8-.3,1.4s0,1,.3,1.4.6.7,1,.9c.4.2.9.3,1.5.3s1,0,1.5-.2c.4-.2.8-.4,1-.7.3-.3.4-.7.4-1.1h1,0ZM77.7,32.2v-1.7h4.5v4.4h-1.7l-.3-3.4.4.6h-3,0Z"/>
        <path class="st2" d="M89.7,26.5l3.9,8.5h-2.5l-3.3-7.5h.7l-3.3,7.5h-2.5l3.9-8.5h3.1ZM85.2,33.4v-1.9h5.9v1.9h-5.9Z"/>
        <path class="st2" d="M94.4,35v-8.5h2.3v6.7l-.6-.5,4.8-6.2h2.5l-6.9,8.5h-2.1ZM98.5,30.9l1.7-1.4,3.4,5.5h-2.7l-2.4-4.1Z"/>
        <path class="st2" d="M104.3,26.5h2.4v8.5h-2.4v-8.5Z"/>
      </g>
    </g>
    <g id="Initial_Ideas">
      <g>
        <circle class="st6" cx="29.3" cy="25" r="16.6"/>
        <path class="st2" d="M24.1,26c-.4,0-.8-.3-.8-.7s-.4-2,.4-3.2c.3-.4.8-.5,1.2-.3.4.3.5.8.3,1.2-.4.6-.3,1.6-.2,1.9,0,.5-.2.9-.7,1h-.2Z"/>
        <path class="st2" d="M28.3,25.9c-.4,0-.7-.3-.8-.7,0-.2-.4-1.9.4-3.2.3-.4.8-.5,1.2-.2s.5.8.2,1.2c-.4.6-.3,1.6-.2,1.9,0,.5-.2.9-.7,1h-.2.1Z"/>
        <path class="st2" d="M28.6,31.9c-1.8,0-3.6-.7-4.8-1.8-.3-.3-.3-.9,0-1.2.3-.3.9-.4,1.2,0,1.2,1.2,3.3,1.7,5.1,1.2.7-.2,1.8-.7,2.1-1.9.3-1.1-.1-1.6-.3-1.7h0c-.4-.4-.4-.9-.1-1.3.3-.3.8-.4,1.2-.1.4.3,1.6,1.3,1,3.5-.4,1.5-1.6,2.6-3.3,3.1-.6.2-1.3.3-1.9.3h-.2Z"/>
        <path class="st2" d="M34.3,14.4c-1,.2-1.7.7-2.4,1.3-.9.6-1.8,1.3-3.2,1.4-1.5.1-2.4-.5-3.5-1.1-.9-.5-1.7-1.1-2.9-1.1h0c-1.8,0-5.1,1.4-8.5,16.1.4.9.8,1.8,1.3,2.6h0c.6.9,1.2,1.8,1.9,2.6,1-12.1,4-19.5,5.3-19.5h0c.8,0,1.5.8,2.3,1.3,1.1.7,2.3,1.1,4.1.9,1.7-.2,2.9-.8,3.9-1.5.7-.5,1.2-.7,2-.9,1.3-.2,6,10.6,8.1,18.5,1.2-1.6,2.1-3.4,2.7-5.4-6.1-13.8-9.3-15.4-11.1-15.1h0Z"/>
      </g>
    </g>
  </g>
</svg>