<?xml version="1.0" encoding="UTF-8"?>
<svg id="Layer_2" data-name="Layer 2" xmlns="http://www.w3.org/2000/svg" viewBox="0 0 33.58 33.58">
  <defs>
    <style>
      .cls-1 {
        fill: none;
      }

      .cls-2 {
        fill: #ff6f26;
      }

      .cls-3 {
        fill: #006afe;
      }
    </style>
  </defs>
  <g id="Layer_1-2" data-name="Layer 1">
    <g>
      <circle class="cls-1" cx="16.79" cy="16.79" r="16.79"/>
      <path class="cls-2" d="M16.75,9.46l-1,.25c-.26.07-.4.35-.29.6l.43.94c.17.38-.27.73-.6.48l-.82-.62c-.21-.16-.52-.09-.65.15l-.47.92c-.19.37-.74.24-.75-.17l-.02-1.03c0-.27-.25-.47-.52-.41l-1.01.21c-.4.08-.65-.43-.33-.69l.79-.66c.21-.17.21-.49,0-.66l-.79-.66c-.32-.26-.07-.78.33-.69l1.01.21c.26.05.51-.14.52-.41l.02-1.03c0-.41.56-.54.75-.17l.47.92c.12.24.43.31.65.15l.82-.62c.33-.25.77.1.6.48l-.43.94c-.11.24.03.53.29.6l1,.25c.4.1.4.67,0,.77Z"/>
      <path class="cls-3" d="M3.96,21.22c.71-3.61,3.84-9.32,7.1-8.68,1.32.26,1.17,1.71,1.03,3.08-.04.41.02,1.72.35,1.78.95.19,1.85-3.33,4.03-2.89,2.51.49,2.29,5.83,1.36,10.56-.37,1.87-1.56,3.84-3.64,3.43-1.21-.24-1.96-1.36-1.71-2.62.39-2,2.49-1.91,2.96-4.32.3-1.54-.18-1.96-.6-2.04-2.33-.46-1.41,3.85-4.26,3.29-1.68-.33-1.91-1.2-1.69-2.31.19-.95.68-1.98.82-2.69.09-.48.06-.77-.35-.85-.97-.19-1.57,1.19-1.73,2.04-.27,1.35-.09,2.95-.33,4.18-.2.99-.79,1.78-1.81,1.58-1.41-.28-1.97-1.19-1.51-3.51Z"/>
      <path class="cls-3" d="M25.42,9.59c1.39-.34,2.37.41,2.68,1.66.36,1.45.12,3.82.9,6.99.71,2.88,1.72,3.29,1.86,3.88.07.29-.26.58-.64.68-.78.19-2.01-.14-3.08-.78-2.24-1.37-4.18-6.08-5.86-5.66-.6.15-.68.75-.55,1.29.66,2.68,2.66,2.92,3.12,4.76.28,1.14-.85,2.09-1.88,2.35-1.43.35-2.28-.26-2.47-1.06-.18-.74,0-1.67.21-2.48.19-.7.46-1.8-.12-4.12-.15-.6-.36-1.24-.63-1.86-.77-1.88-1.78-1.85-1.97-2.59-.11-.45.35-.84.97-.99,1.76-.43,3.89.56,6.61,4.25.64.86,1.33,2.09,2.3,1.85.43-.11.65-.56.42-1.49-.49-1.99-3.04-1.79-3.61-4.09-.33-1.32.53-2.3,1.72-2.6Z"/>
    </g>
  </g>
</svg>