<?xml version="1.0" encoding="UTF-8"?>
<svg id="Layer_2" data-name="Layer 2" xmlns="http://www.w3.org/2000/svg" viewBox="0 0 89.87 89.87">
  <defs>
    <style>
      .cls-1 {
        fill: #006afe;
      }

      .cls-2 {
        fill: #fff5e4;
      }
    </style>
  </defs>
  <g id="Initial_Ideas" data-name="Initial Ideas">
    <g>
      <circle class="cls-2" cx="44.93" cy="44.93" r="44.93"/>
      <path class="cls-1" d="M30.85,47.6c-1.08,0-2.05-.76-2.26-1.86-.1-.53-.95-5.28,1.21-8.64.69-1.07,2.12-1.38,3.19-.69,1.07.69,1.38,2.12.69,3.19-.98,1.52-.73,4.37-.56,5.25.24,1.25-.58,2.46-1.83,2.7-.15.03-.3.04-.44.04Z"/>
      <path class="cls-1" d="M42.14,47.41c-1.06,0-2.01-.73-2.25-1.81-.12-.52-1.06-5.22,1.21-8.7.7-1.07,2.13-1.37,3.2-.67,1.07.7,1.37,2.13.67,3.2-1.03,1.58-.76,4.28-.57,5.19.27,1.24-.53,2.47-1.77,2.74-.17.04-.33.05-.49.05Z"/>
      <path class="cls-1" d="M43,63.77c-4.87,0-9.71-1.78-13.04-4.98-.92-.89-.94-2.35-.06-3.27.89-.92,2.35-.95,3.27-.06,3.33,3.21,9,4.51,13.79,3.15,1.8-.51,4.94-1.85,5.78-5.09.78-3.03-.37-4.22-.9-4.59l-.2-.15c-.98-.82-1.1-2.28-.28-3.26.79-.94,2.17-1.09,3.14-.37,1.06.75,4.24,3.57,2.71,9.52-1.03,4-4.3,7.06-8.99,8.39-1.7.48-3.46.71-5.23.71Z"/>
      <path class="cls-1" d="M58.3,16.42c-2.65.53-4.65,1.99-6.57,3.41-2.33,1.72-4.75,3.49-8.61,3.84-4.01.37-6.6-1.25-9.35-2.95-2.3-1.43-4.67-2.9-7.73-2.9h0c-4.82,0-13.87,3.8-22.98,43.39.95,2.44,2.09,4.77,3.43,6.98,0,0,0,0,0,0,.05.08.11.17.15.23,1.52,2.47,3.27,4.78,5.22,6.9,2.73-32.63,10.7-52.76,14.19-52.76h0c2.23,0,4.07,2.05,6.21,3.38,2.89,1.8,6.16,2.92,11.14,2.47,4.67-.43,7.92-2.29,10.45-4.15,1.83-1.34,3.29-1.94,5.32-2.34,3.41-.66,16.22,28.77,21.81,49.87,3.24-4.34,5.7-9.29,7.21-14.63-16.53-37.22-25.14-41.68-29.87-40.74Z"/>
    </g>
  </g>
</svg>