<?xml version="1.0" encoding="UTF-8"?>
<svg id="Layer_1" data-name="Layer 1" xmlns="http://www.w3.org/2000/svg" version="1.1" viewBox="0 0 294.9 234.3">
  <defs>
    <style>
      .cls-1 {
        fill: #cbb07b;
        stroke-width: 0px;
      }
    </style>
  </defs>
  <path class="cls-1" d="M137.1,92.2l.2-.5v-.7c0-.1,0-.3,0-.4h0c-.1-1-.3-1.8-.6-2.5-.1-.4-.2-.8-.3-1.3-1.9-8.6-6.2-18.1-12.1-26.7-.2-.3-.4-.5-.6-.8l-.3-.4c-6.1-8.6-13.3-16-21.5-22.2-11-8.3-29-18-53.7-19-5-.9-10.2-1.3-15.3-1.2l-22.7.7,22.4,4.2c23.1,4.4,45.3,33.1,60,54.3,13.4,19.3,27.1,40.1,27.5,48.4l.5,12.3,9.2-24.5h0c0,0,7.5-19.7,7.5-19.7h0ZM98.7,40.7c7.6,5.7,14.7,13,20.4,21.1l.4.5c.2.2.3.5.5.7,5.6,8,9.6,16.9,11.4,24.9.1.5.3,1.1.4,1.6.2.6.3,1.1.4,1.6l-2.6,7c-1.4-3.2-3.1-6.8-5.2-10.8-4.1-8.1-9.8-18.2-17.4-28.3-10.4-13.9-21.8-24.5-33.9-31.6,10.9,3.6,19.4,8.8,25.6,13.4h0ZM122.7,115.9c-4-10-13.5-24.7-26.3-43-11.4-16.4-27.2-37.2-44.9-48.6,11.3,3,22.3,9,32.6,17.9,16.9,14.6,28.9,34,35.8,47.5,3.8,7.6,6.1,13.3,6.8,15.2l-4.1,10.9Z"/>
  <path class="cls-1" d="M262.2,16.5c-5.2-.2-10.3.2-15.3,1.2-24.7,1.1-42.7,10.8-53.7,19-8.1,6.1-15.3,13.6-21.5,22.2l-.3.4c-.2.3-.4.5-.6.8-5.9,8.6-10.2,18-12.1,26.7-.1.4-.2.9-.4,1.3-.2.8-.5,1.5-.6,2.4h0c0,.3,0,.4,0,.5v.8s7.6,20.3,7.6,20.3h0c0,0,9.2,24.4,9.2,24.4l.5-12.3c.3-8.3,14.1-29.1,27.5-48.4,14.7-21.2,37-49.9,60-54.3l22.4-4.2-22.7-.7ZM163.2,89.4c.2-.5.3-1.1.4-1.6,1.8-8,5.8-16.9,11.4-24.9.2-.2.3-.5.5-.7l.4-.5c5.7-8.1,12.8-15.3,20.4-21.1,6.2-4.7,14.8-9.8,25.6-13.4-12.1,7.1-23.5,17.7-33.9,31.6-7.5,10.1-13.3,20.2-17.4,28.3-2,3.9-3.8,7.6-5.2,10.8l-2.6-7c0-.4.2-1,.4-1.6ZM198.5,72.9c-12.7,18.3-22.2,33-26.3,43l-4.1-10.9c.7-1.9,3-7.6,6.8-15.2,6.9-13.5,18.9-33,35.8-47.6,10.3-8.9,21.3-14.9,32.6-17.9-17.7,11.4-33.5,32.1-44.9,48.6h0Z"/>
  <path class="cls-1" d="M149.7,93.2l-.5-3,.5-2.7c0-.2.1-.5.2-.8v-.5c1.8-8.2,5.7-17.1,10.9-25.1l1.5-2.3-2.5-1.3c-4.5-2.3-8.6-6.5-10.3-10.7l-1.8-4.3c2.8-8.5,7.9-15.3,16.4-19.2l-4.4-2c-5.2-3.1-9.7-8.2-12.5-13.6-2.9,7.3-9.8,12.2-16.5,15.8l3.8,2.2c6.3,3.4,9.9,10.2,12.2,16.8l-1.8,4.2c-1.7,4.2-5.8,8.3-10.3,10.7l-2.5,1.3,1.5,2.3c5.3,8,9.1,16.9,10.8,25.1v.5c.2.3.2.5.3.8l.5,2.6-.5,3.1c-1.9,12-6.2,23.9-11,30.4l-.7.9.3,1.1c5.4,21.8,9.4,46,11.1,68.3v1.2c.2.8.2,1.5.3,2.3l2.7,28.9,2.2-28.9c0-.7.1-1.5.2-2.3v-1.2c1.9-22.2,5.8-46.5,11.2-68.3l.3-1.1-.7-.9c-4.8-6.5-9.1-18.5-11-30.4h0ZM140.2,23.9c3.3-2.4,6.4-5.3,7-9.5.7,4.1,3.7,7.1,6.8,9.5-2.7,2.2-5.1,4.8-6.9,7.7-1.8-3-4.2-5.6-7-7.8ZM139.2,60.7c3.1-2,5.9-4.7,8-7.7,2,2.9,4.8,5.6,8,7.7-3.3,5.4-6,11.1-8,16.8-1.9-5.6-4.6-11.4-8-16.8ZM147.2,172.7c-2.1-15.8-5.1-32-8.8-47,3.4-5,6.5-12.3,8.8-20.3,2.2,8,5.4,15.4,8.8,20.3-3.7,15-6.7,31.2-8.8,47Z"/>
</svg>