<?xml version="1.0" encoding="UTF-8"?>
<svg id="Layer_2" data-name="Layer 2" xmlns="http://www.w3.org/2000/svg" viewBox="0 0 129.07 65.62">
  <defs>
    <style>
      .cls-1 {
        fill: #2d2a26;
        stroke-width: 0px;
      }
    </style>
  </defs>
  <g id="Colour_Logo_1" data-name="Colour Logo 1">
    <g id="Black_and_white" data-name="Black and white">
      <circle id="Eye" class="cls-1" cx="11.83" cy="32.86" r="1.34"/>
      <path id="Faceline" class="cls-1" d="M32.43,45.14l-17.99,6.51c-1.04.38-2.19-.16-2.56-1.2l-1.86-5.15s-.03-.07-.04-.11l-1.98-4.62c-.2-.46-.57-.84-1.03-1.04l-.5-.22c-1.01-.45-1.47-1.63-1.02-2.64l7.75-17.49c.21-.48.23-1.04.04-1.53h0c-.64-1.66-2.97-1.72-3.69-.09L.17,38.7c-.45,1.01,0,2.19,1.02,2.64l2.96,1.31c.5.22.88.64,1.07,1.15l4.26,11.77c.38,1.04,1.52,1.58,2.56,1.2l21.75-7.87c1.68-.61,1.78-2.94.17-3.69h0c-.48-.23-1.03-.25-1.53-.07Z"/>
      <path class="cls-1" d="M121.87,40.67h0s-19.56-2.61-19.56-2.61l18.67-5.81s.05-.02.08-.02l.18-.06h0c3.1-1.07,5.33-4.01,5.33-7.46,0-4.35-3.54-7.89-7.89-7.89s-7.89,3.54-7.89,7.89c0,2.27.97,4.31,2.5,5.75l-20.42,6.35-9.37-1.24h0c-2.51-.62-4.79-.35-6.89-.08-3.07.39-5.49.7-8.6-1.54-3.11-2.24-3.58-4.64-4.17-7.67-.64-3.27-1.37-6.98-5.75-10.15-4.38-3.16-8.13-2.69-11.44-2.27-3.07.39-5.49.7-8.59-1.54-3.1-2.24-3.57-4.64-4.17-7.67-.24-1.23-.49-2.51-.94-3.81-1.31.26-2.62.59-3.9.97.43,1.11.67,2.3.92,3.61.64,3.27,1.37,6.98,5.75,10.14,4.39,3.17,8.14,2.69,11.44,2.27,3.07-.39,5.49-.7,8.59,1.54,3.11,2.24,3.58,4.64,4.17,7.67.64,3.27,1.37,6.98,5.75,10.15,4.39,3.17,8.14,2.69,11.44,2.27,2.28-.29,4.21-.53,6.33.29l-11.66,3.63c-.32.04-.64.08-.95.12-3.07.39-5.49.7-8.6-1.54-3.11-2.24-3.58-4.64-4.17-7.67-.64-3.27-1.37-6.98-5.75-10.15-4.39-3.17-8.14-2.69-11.44-2.27-3.07.39-5.49.7-8.59-1.54-3.1-2.24-3.57-4.64-4.17-7.67-.56-2.86-1.19-6.06-4.27-8.93-1.25.55-2.48,1.17-3.69,1.85l-.13.19c3.1,2.24,3.57,4.64,4.17,7.67.64,3.27,1.37,6.98,5.75,10.15,4.39,3.17,8.14,2.69,11.44,2.27,3.07-.39,5.49-.7,8.59,1.54,3.11,2.24,3.58,4.64,4.17,7.67.64,3.27,1.37,6.98,5.75,10.15,4.39,3.17,8.13,2.69,11.44,2.27,3.07-.39,9.39-2.68,9.39-2.68l12.49-3.89,21.68,2.88c-1.01,1.32-1.61,2.97-1.61,4.75,0,4.35,3.54,7.89,7.89,7.89s7.89-3.54,7.89-7.89c0-4.12-3.17-7.5-7.2-7.85ZM118.69,20.82c2.14,0,3.89,1.74,3.89,3.89s-1.74,3.89-3.89,3.89-3.89-1.74-3.89-3.89,1.74-3.89,3.89-3.89ZM121.18,52.41c-2.14,0-3.89-1.74-3.89-3.89s1.74-3.89,3.89-3.89,3.89,1.74,3.89,3.89-1.74,3.89-3.89,3.89Z"/>
      <path class="cls-1" d="M81.29,60.03c-.79,1.94-1.72,3.8-2.77,5.59-.07-.32-.13-.63-.19-.95-.59-3.04-1.07-5.43-4.17-7.67-3.11-2.24-5.53-1.93-8.6-1.54-3.31.42-7.06.9-11.44-2.27-4.38-3.17-5.11-6.87-5.75-10.15-.59-3.04-1.06-5.43-4.17-7.67-3.1-2.24-5.53-1.93-8.6-1.54-3.31.42-7.05.9-11.44-2.27-4.38-3.17-5.11-6.87-5.75-10.15-.59-3.03-1.06-5.43-4.17-7.67l2.34-3.24c4.38,3.17,5.11,6.87,5.75,10.15.59,3.03,1.06,5.43,4.17,7.67,3.1,2.24,5.53,1.93,8.59,1.54,3.31-.42,7.06-.9,11.44,2.27,4.39,3.17,5.11,6.88,5.75,10.15.59,3.03,1.06,5.43,4.17,7.67,3.11,2.24,5.53,1.94,8.6,1.54,3.31-.42,7.06-.9,11.44,2.27,2.72,1.96,4.03,4.13,4.79,6.27Z"/>
      <path class="cls-1" d="M36.4.28c1.36-.16,2.73-.25,4.1-.28.56,1.56,1.47,2.96,3.34,4.31,3.1,2.24,5.53,1.94,8.59,1.54,3.31-.42,7.06-.9,11.44,2.27,4.38,3.17,5.11,6.87,5.75,10.15.59,3.03,1.07,5.43,4.17,7.67,2.74,1.98,4.95,1.97,7.54,1.67.51,1.26.96,2.55,1.35,3.86-3.26.41-6.94.8-11.23-2.29-4.39-3.17-5.11-6.88-5.75-10.15-.59-3.03-1.06-5.43-4.17-7.67-3.1-2.24-5.52-1.93-8.59-1.54-3.31.42-7.06.9-11.44-2.27-3.14-2.26-4.4-4.81-5.1-7.27Z"/>
    </g>
  </g>
</svg>