<?xml version="1.0" encoding="UTF-8"?>
<svg id="Layer_2" data-name="Layer 2" xmlns="http://www.w3.org/2000/svg" version="1.1" viewBox="0 0 129.1 65.6">
  <defs>
    <style>
      .cls-1 {
        fill: #cb9700;
      }

      .cls-1, .cls-2 {
        stroke-width: 0px;
      }

      .cls-2 {
        fill: #2b5597;
      }
    </style>
  </defs>
  <g id="Colour_Logo_1" data-name="Colour Logo 1">
    <g id="Coloured">
      <circle id="Eye" class="cls-2" cx="16.3" cy="32.9" r="1.2"/>
      <path id="Faceline" class="cls-2" d="M35.2,44.1l-16.5,6c-1,.3-2-.1-2.3-1.1l-1.7-4.7s0,0,0-.1l-1.8-4.2c-.2-.4-.5-.8-.9-1l-.5-.2c-.9-.4-1.3-1.5-.9-2.4l7.1-16c.2-.4.2-1,0-1.4h0c-.6-1.5-2.7-1.6-3.4,0l-8.6,19.3c-.4.9,0,2,.9,2.4l2.7,1.2c.5.2.8.6,1,1.1l3.9,10.8c.3,1,1.4,1.4,2.3,1.1l19.9-7.2c1.5-.6,1.6-2.7.2-3.4h0c-.4-.2-.9-.2-1.4,0Z"/>
      <path class="cls-1" d="M117,40h0l-17.9-2.4,17.1-5.3s0,0,0,0h.2c2.8-1,4.9-3.7,4.9-6.9s-3.2-7.2-7.2-7.2-7.2,3.2-7.2,7.2.9,3.9,2.3,5.3l-18.7,5.8-8.6-1.1h0c-2.3-.6-4.4-.3-6.3,0-2.8.4-5,.6-7.9-1.4-2.8-2-3.3-4.2-3.8-7-.6-3-1.3-6.4-5.3-9.3-4-2.9-7.4-2.5-10.5-2.1-2.8.4-5,.6-7.9-1.4s-3.3-4.2-3.8-7c-.2-1.1-.4-2.3-.9-3.5-1.2.2-2.4.5-3.6.9.4,1,.6,2.1.8,3.3.6,3,1.3,6.4,5.3,9.3,4,2.9,7.4,2.5,10.5,2.1,2.8-.4,5-.6,7.9,1.4,2.8,2,3.3,4.2,3.8,7,.6,3,1.3,6.4,5.3,9.3,4,2.9,7.4,2.5,10.5,2.1,2.1-.3,3.9-.5,5.8.3l-10.7,3.3c-.3,0-.6,0-.9.1-2.8.4-5,.6-7.9-1.4s-3.3-4.2-3.8-7c-.6-3-1.3-6.4-5.3-9.3-4-2.9-7.4-2.5-10.5-2.1-2.8.4-5,.6-7.9-1.4-2.8-2-3.3-4.2-3.8-7-.5-2.6-1.1-5.5-3.9-8.2-1.1.5-2.3,1.1-3.4,1.7v.2c2.7,2,3.1,4.2,3.7,7,.6,3,1.3,6.4,5.3,9.3,4,2.9,7.4,2.5,10.5,2.1,2.8-.4,5-.6,7.9,1.4,2.8,2,3.3,4.2,3.8,7,.6,3,1.3,6.4,5.3,9.3,4,2.9,7.4,2.5,10.5,2.1,2.8-.4,8.6-2.5,8.6-2.5l11.4-3.6,19.8,2.6c-.9,1.2-1.5,2.7-1.5,4.3,0,4,3.2,7.2,7.2,7.2s7.2-3.2,7.2-7.2-2.9-6.9-6.6-7.2h0ZM114.1,21.8c2,0,3.6,1.6,3.6,3.6s-1.6,3.6-3.6,3.6-3.6-1.6-3.6-3.6,1.6-3.6,3.6-3.6ZM116.3,50.7c-2,0-3.6-1.6-3.6-3.6s1.6-3.6,3.6-3.6,3.6,1.6,3.6,3.6-1.6,3.6-3.6,3.6Z"/>
      <path class="cls-2" d="M79.9,57.7c-.7,1.8-1.6,3.5-2.5,5.1,0-.3-.1-.6-.2-.9-.5-2.8-1-5-3.8-7-2.8-2-5.1-1.8-7.9-1.4-3,.4-6.5.8-10.5-2.1-4-2.9-4.7-6.3-5.3-9.3-.5-2.8-1-5-3.8-7-2.8-2-5.1-1.8-7.9-1.4-3,.4-6.4.8-10.5-2.1-4-2.9-4.7-6.3-5.3-9.3-.5-2.8-1-5-3.8-7l2.1-3c4,2.9,4.7,6.3,5.3,9.3.5,2.8,1,5,3.8,7,2.8,2,5.1,1.8,7.9,1.4,3-.4,6.5-.8,10.5,2.1,4,2.9,4.7,6.3,5.3,9.3.5,2.8,1,5,3.8,7,2.8,2,5.1,1.8,7.9,1.4,3-.4,6.5-.8,10.5,2.1,2.5,1.8,3.7,3.8,4.4,5.7h0Z"/>
      <path class="cls-2" d="M38.8,3.1c1.2-.1,2.5-.2,3.7-.3.5,1.4,1.3,2.7,3.1,3.9,2.8,2,5.1,1.8,7.9,1.4,3-.4,6.5-.8,10.5,2.1,4,2.9,4.7,6.3,5.3,9.3.5,2.8,1,5,3.8,7,2.5,1.8,4.5,1.8,6.9,1.5.5,1.2.9,2.3,1.2,3.5-3,.4-6.3.7-10.3-2.1-4-2.9-4.7-6.3-5.3-9.3-.5-2.8-1-5-3.8-7-2.8-2-5-1.8-7.9-1.4-3,.4-6.5.8-10.5-2.1-2.9-2.1-4-4.4-4.7-6.6Z"/>
    </g>
  </g>
</svg>