<?xml version="1.0" encoding="UTF-8"?>
<svg id="Layer_2" data-name="Layer 2" xmlns="http://www.w3.org/2000/svg" viewBox="0 0 103.66 100.86">
  <defs>
    <style>
      .cls-1 {
        fill: #020202;
        stroke-width: 0px;
      }
    </style>
  </defs>
  <g id="Logo5">
    <g id="Logo5-2" data-name="Logo5">
      <path id="Scissors" class="cls-1" d="M93.94,21.02c-5.36,0-9.71,4.36-9.71,9.71,0,1.6.4,3.11,1.09,4.45l-12.56,10.26c-.34-.17-.68-.29-1.04-.36l.41-.07-2.43-18.98c4.92-2.02,8.4-6.86,8.4-12.51,0-7.46-6.07-13.52-13.52-13.52-3.55,0-6.78,1.39-9.19,3.64-1.55,1.3-3.45,2.22-5.59,2.56-3.02.48-5.95-.27-8.3-1.88-.49.46-.94.97-1.34,1.51,2.79,1.98,6.32,2.92,9.95,2.34.81-.13,1.59-.34,2.34-.6-.89,1.8-1.4,3.82-1.4,5.95,0,7.46,6.07,13.52,13.52,13.52.16,0,.31-.02.46-.02l3.85,18.39c-.76.37-1.42.96-1.88,1.75-.66,1.14-.73,2.46-.33,3.61-6.11,2.32-11.97,5.59-17.36,9.87-7.46,5.93-13.25,13.18-17.34,21.14l36.3-28.87c.11.08.21.17.33.24.94.54,1.98.68,2.97.5l8.56,46.35c2.14-8.69,2.53-17.96.8-27.33-1.34-7.24-3.84-13.96-7.26-20.03.35-.31.67-.66.92-1.09.63-1.08.73-2.32.4-3.43l13.48-9.35c1.56,1.07,3.44,1.69,5.47,1.69,5.36,0,9.71-4.36,9.71-9.71s-4.36-9.71-9.71-9.71ZM53.06,13.52c0-6.35,5.17-11.52,11.52-11.52s11.52,5.17,11.52,11.52-5.17,11.52-11.52,11.52-11.52-5.17-11.52-11.52ZM93.94,38.45c-4.25,0-7.71-3.46-7.71-7.71s3.46-7.71,7.71-7.71,7.71,3.46,7.71,7.71-3.46,7.71-7.71,7.71ZM57.51,13.32c-.47,0-.86-.38-.86-.86s.38-.86.86-.86.86.38.86.86-.38.86-.86.86ZM61.21,16.36c.12.11.23.24.33.37-.55.39-1.21.62-1.93.62-.91,0-1.73-.37-2.34-.96.12-.12.25-.22.39-.32.51.48,1.2.78,1.95.78.59,0,1.14-.18,1.6-.49ZM61.92,12.46c0,.47-.38.86-.86.86s-.86-.38-.86-.86.38-.86.86-.86.86.38.86.86Z"/>
      <path id="Comb" class="cls-1" d="M55.7,96.91l-22.98-41.04,10.98-6.34c.89-.52,1.2-1.66.68-2.56s-1.66-1.2-2.56-.68l-10.93,6.31-3.69-6.59,10.81-6.24c.89-.52,1.2-1.66.68-2.56s-1.66-1.2-2.56-.68l-10.77,6.22-3.87-6.91,10.82-6.25c.89-.52,1.2-1.66.68-2.56-.52-.89-1.66-1.2-2.56-.68l-10.78,6.22-3.69-6.59,10.65-6.15c.89-.52,1.2-1.66.68-2.56-.52-.89-1.66-1.2-2.56-.68l-10.61,6.12-4.59-8.2,12.91-7.45c1.42-.82,1.91-2.64,1.09-4.07-1.52-2.64-4.89-3.54-7.53-2.02L1.97,9.12C.09,10.21-.56,12.62.53,14.51l2.13,3.68s.04.03.06.04l48.4,81.33c.74,1.25,2.35,1.67,3.61.94h0c1.26-.73,1.7-2.33.99-3.59Z"/>
    </g>
  </g>
</svg>