<?xml version="1.0" encoding="UTF-8"?>
<svg id="Layer_2" data-name="Layer 2" xmlns="http://www.w3.org/2000/svg" viewBox="0 0 80.87 85.35">
  <defs>
    <style>
      .cls-1 {
        stroke-width: 0px;
      }
    </style>
  </defs>
  <g id="Logo4">
    <g id="Logo4-2" data-name="Logo4">
      <path id="Scissors" class="cls-1" d="M66.74,57.09c-2.7,0-5.21.77-7.36,2.09l-6.31-15.39L65.26,1.76c.2-.7-.16-1.44-.84-1.67-.67-.24-1.42.11-1.7.79l-13.63,33.23L35.47.88c-.28-.68-1.02-1.02-1.7-.79-.67.24-1.04.97-.84,1.67l12.19,42.04-6.31,15.39c-2.15-1.32-4.66-2.09-7.36-2.09-7.79,0-14.13,6.34-14.13,14.13s6.34,14.13,14.13,14.13,14.13-6.34,14.13-14.13c0-.46-.03-.92-.07-1.38l3.58-12.35,3.58,12.35c-.04.45-.07.91-.07,1.38,0,7.79,6.34,14.13,14.13,14.13s14.13-6.34,14.13-14.13-6.34-14.13-14.13-14.13ZM31.46,81.35c-5.59,0-10.13-4.54-10.13-10.13s4.54-10.13,10.13-10.13c2.17,0,4.17.69,5.82,1.85,2.22,1.57,3.78,4,4.19,6.81.07.48.12.97.12,1.47,0,5.59-4.54,10.13-10.13,10.13ZM49.1,45.42c-.9,0-1.63-.73-1.63-1.63s.73-1.63,1.63-1.63,1.63.73,1.63,1.63-.73,1.63-1.63,1.63ZM66.74,81.35c-5.59,0-10.13-4.54-10.13-10.13,0-.5.05-.99.12-1.47.41-2.81,1.97-5.24,4.19-6.81,1.65-1.16,3.65-1.85,5.82-1.85,5.59,0,10.13,4.54,10.13,10.13s-4.54,10.13-10.13,10.13ZM26.28,67c0,.9-.73,1.63-1.63,1.63s-1.63-.73-1.63-1.63.73-1.63,1.63-1.63,1.63.73,1.63,1.63ZM61.87,67c0,.9-.73,1.63-1.63,1.63s-1.63-.73-1.63-1.63.73-1.63,1.63-1.63,1.63.73,1.63,1.63Z"/>
      <path id="Comb" class="cls-1" d="M18.34,6.43c.63,0,1.14.51,1.14,1.14s-.51,1.14-1.14,1.14-1.14-.51-1.14-1.14.51-1.14,1.14-1.14ZM21.95,5.94c0,.63.51,1.14,1.14,1.14s1.14-.51,1.14-1.14-.51-1.14-1.14-1.14-1.14.51-1.14,1.14ZM21.31,49.57c1.1,0,2-.9,2-2s-.9-2-2-2H4v-4.55h17.31c1.1,0,2-.9,2-2s-.9-2-2-2H4v-4.55h17.31c1.1,0,2-.9,2-2s-.9-2-2-2H4v-4.55h17.31c1.1,0,2-.9,2-2s-.9-2-2-2H4v-4.55h17.31c1.1,0,2-.9,2-2s-.9-2-2-2H4v-4.77l20.26-2.6c1.1,0,2-.9,2-2s-.9-2-2-2H2.05c-.16,0-.31.02-.45.06-.91.19-1.6.99-1.6,1.96v81.34c0,1.1.9,2,2,2s2-.9,2-2v-33.78h17.31Z"/>
    </g>
  </g>
</svg>