<?xml version="1.0" encoding="UTF-8"?>
<svg id="Layer_2" data-name="Layer 2" xmlns="http://www.w3.org/2000/svg" viewBox="0 0 93.31 113.14">
  <defs>
    <style>
      .cls-1 {
        fill: #020202;
        stroke-width: 0px;
      }
    </style>
  </defs>
  <g id="Logo3">
    <path id="Logo3-2" data-name="Logo3" class="cls-1" d="M79.33,20.57c-7.71,0-13.99,6.28-13.99,13.99,0,.59.05,1.18.12,1.75-6.09-1.11-13.92-2.52-22.02-3.98L20.84.63c-.47-.65-1.37-.82-2.04-.38-.31.2,8.13,15.01,17.24,30.77C17.68,27.75.13,24.73.04,25.11c-.18.78.28,1.57,1.06,1.78l38.79,10.77c2.22,3.82,4.41,7.59,6.45,11.1-1.72-.47-3.49-.79-5.29-.97-1.46-.15-2.94-.21-4.44-.16-16.85.57-30.33,13.83-31.57,30.28-.09,1.18-.12,2.37-.08,3.57,0,.14.02.28.03.43.05.97.13,1.93.25,2.87.18,1.34.45,2.65.79,3.94.34,1.3.75,2.57,1.24,3.8.5,1.25,1.08,2.45,1.72,3.62.76,1.37,1.6,2.68,2.54,3.92.82,1.09,1.71,2.13,2.66,3.11,5.98,6.16,14.33,9.98,23.5,9.98.37,0,.74,0,1.12-.02,15.07-.51,27.44-11.17,30.77-25.18.31-1.29.54-2.61.69-3.95.1-.94.17-1.9.19-2.86.01-.62.01-1.23,0-1.86-.03-.75-.08-1.48-.16-2.22-.05-.5-.11-.99-.18-1.48-.19-1.33-.47-2.63-.82-3.91-1.34-4.9-3.82-9.41-7.27-13.23l-13-18.23,23.31,6.47c2.06,1.19,4.43,1.88,6.97,1.88,7.71,0,13.99-6.27,13.99-13.99s-6.27-13.99-13.99-13.99ZM41.56,36.46c-.77,0-1.39-.62-1.39-1.39s.62-1.39,1.39-1.39,1.39.62,1.39,1.39-.62,1.39-1.39,1.39ZM19.71,57.97c-.97,2.35-1.21,4.64-1.43,6.78-.37,3.61-.69,6.72-4.27,9.94-1.7,1.53-3.3,2.32-4.9,2.74.8-7.82,4.75-14.76,10.59-19.47ZM38.69,109.12c-7.58.25-14.59-2.48-19.9-7.14.95-.07,1.91-.08,2.91-.09,3.88.02,8.29,0,13.01-4.25,4.72-4.26,5.17-8.64,5.57-12.5.37-3.61.69-6.72,4.27-9.94.81-.73,1.6-1.29,2.37-1.73,1.54,1.44,1.86,3.28,2.23,5.53.48,2.93,1.08,6.57,5.07,9.06,2.14,1.33,4.15,1.65,5.99,1.52,1.59-.11,3.06-.55,4.38-.95.26-.08.51-.15.75-.22-3.39,11.6-13.92,20.28-26.64,20.71ZM66.25,84.07c-1,.19-1.94.47-2.81.74-2.59.78-4.64,1.39-7.09-.14-2.45-1.53-2.8-3.64-3.24-6.31-.32-1.94-.7-4.19-2.07-6.22.84-.11,1.69-.15,2.56-.16.48,2.91,1.1,6.52,5.05,8.99,2.14,1.33,4.15,1.65,5.99,1.52.62-.04,1.21-.14,1.79-.27-.04.62-.1,1.23-.18,1.84ZM66.38,78.14c-1.93.51-3.64.67-5.61-.56-2.25-1.41-2.73-3.3-3.13-5.67.79-.05,1.59-.13,2.42-.27.68.93,1.59,1.81,2.82,2.58,1.1.69,2.16,1.1,3.19,1.32.15.86.25,1.73.32,2.6ZM64.59,70.08c.07.19.13.4.2.59-.2-.14-.4-.27-.57-.42.12-.06.25-.11.37-.18ZM60.2,62.42c.56.7,1.08,1.43,1.57,2.17.4.61.78,1.23,1.14,1.86-.23.13-.47.24-.7.36-1.29.62-2.57.92-3.86,1.05-.27.03-.54.04-.81.05-.23.01-.47.04-.7.05-.57.02-1.16.02-1.75.02-.12,0-.24,0-.37,0-.7,0-1.42,0-2.15.03-3.29.13-6.88.8-10.68,4.22-4.72,4.26-5.17,8.64-5.57,12.5-.37,3.61-.69,6.72-4.27,9.94s-6.72,3.2-10.33,3.22c-1.98-.01-4.1,0-6.32.56-.81-1-1.56-2.06-2.24-3.17.76-.04,1.54-.05,2.34-.05.14,0,.27,0,.41,0,3.84,0,8.17-.07,12.81-4.25,4.72-4.26,5.17-8.64,5.57-12.5.37-3.6.69-6.72,4.27-9.94,3.58-3.23,6.72-3.22,10.33-3.22.54,0,1.09,0,1.65,0,1.51-.03,3.08-.15,4.71-.57.12-.03.24-.08.36-.11.65-.19,1.31-.41,1.98-.71.86-.39,1.73-.87,2.61-1.5ZM53.42,56.27c.65.43,1.28.88,1.9,1.36.7.54,1.39,1.12,2.05,1.73.03.03.06.06.08.08-.45.29-.9.53-1.35.74-.88.41-1.74.67-2.61.84-1.5.29-3.02.3-4.62.3-3.9,0-8.29,0-13.01,4.25-4.72,4.26-5.17,8.64-5.57,12.5-.37,3.6-.69,6.72-4.27,9.94-3.51,3.16-6.59,3.22-10.12,3.22-.07,0-.14,0-.21,0-1.43,0-2.94,0-4.51.22-.39-.94-.74-1.9-1.03-2.88,3.78,0,8.01-.17,12.54-4.25,4.72-4.26,5.17-8.64,5.57-12.5.37-3.6.69-6.72,4.27-9.94s6.68-3.22,10.33-3.22c2.62,0,5.46-.03,8.48-1.32.68-.29,1.37-.63,2.07-1.07ZM49.1,53.95c-2.03.71-4.03.72-6.23.71-3.87-.03-8.29,0-13.01,4.25-4.72,4.26-5.17,8.64-5.57,12.5-.37,3.6-.69,6.72-4.27,9.94-3.57,3.22-6.68,3.25-10.33,3.22-.14,0-.28,0-.42,0-.15-.99-.24-1.99-.28-3.01,2.44-.45,5.02-1.48,7.7-3.9,4.72-4.26,5.17-8.64,5.57-12.5.37-3.61.69-6.72,4.27-9.94,3.58-3.23,6.68-3.23,10.33-3.22,1.35,0,2.77,0,4.25-.18,2.77.32,5.46,1.04,7.99,2.13ZM79.33,44.55c-.58,0-1.15-.06-1.7-.16-3.87-.67-6.97-3.56-7.95-7.31-.21-.81-.33-1.65-.33-2.52,0-5.51,4.48-9.99,9.99-9.99s9.99,4.48,9.99,9.99-4.48,9.99-9.99,9.99ZM54.78,92.86c-.93,2.14-3.06,3.63-5.53,3.63s-4.6-1.5-5.53-3.63c-.29-.66.19-1.41.92-1.41.39,0,.75.23.91.6.62,1.44,2.05,2.44,3.71,2.44s3.09-1.01,3.71-2.44c.16-.36.51-.6.91-.6.72,0,1.2.74.92,1.41Z"/>
  </g>
</svg>