<?xml version="1.0" encoding="UTF-8"?>
<svg id="Layer_1" data-name="Layer 1" xmlns="http://www.w3.org/2000/svg" viewBox="0 0 107.84 62.25">
  <defs>
    <style>
      .cls-1 {
        fill: #2b5597;
      }

      .cls-2 {
        fill: #cb9700;
      }
    </style>
  </defs>
  <g id="Logo_wordmark" data-name="Logo wordmark">
    <path class="cls-1" d="M0,62.25v-13.67h3.04v6.07h3.04v-6.07h3.03v13.67h-3.03v-6.07h-3.04v6.07H0Z"/>
    <path class="cls-1" d="M18.24,56.18v-1.53c0-.41-.15-.77-.45-1.07-.3-.3-.66-.45-1.08-.45h-1.51c-.9,0-1.4.5-1.51,1.51h-1.53c.24-2.02,1.26-3.03,3.04-3.03h3.04c.83,0,1.54.3,2.13.89s.89,1.31.89,2.13v7.6h-3.03v-1.51c-.12,1.01-.63,1.51-1.53,1.51h-1.51c-.83,0-1.54-.3-2.14-.89-.6-.6-.9-1.31-.9-2.15s.3-1.54.9-2.13c.6-.6,1.31-.89,2.14-.89h3.04ZM18.24,57.69h-1.53c-.41,0-.77.15-1.07.45-.3.3-.45.65-.45,1.07s.15.77.45,1.07c.3.3.65.46,1.07.46s.79-.15,1.08-.46c.3-.3.45-.66.45-1.07v-1.51Z"/>
    <path class="cls-1" d="M24.31,50.1v-1.51h3.04v1.51h-3.04ZM24.31,62.25v-10.62h3.04v10.62h-3.04Z"/>
    <path class="cls-1" d="M33.42,62.25h-3.04v-10.62h3.04v3.03c.12-1.01.43-1.76.94-2.27s1.21-.76,2.1-.76h1.51v3.03h-3.04c-.41,0-.77.15-1.07.45s-.45.66-.45,1.08v6.07Z"/>
    <path class="cls-1" d="M51.64,51.63h-1.51c-.13-1.02-.61-1.53-1.44-1.53-.53,0-.94.13-1.2.38s-.4.64-.4,1.15c0,.38.15.74.44,1.08l3.23,3.61c.59.67.89,1.39.89,2.15v.75c0,.83-.3,1.54-.89,2.14-.6.6-1.31.9-2.15.9h-1.51c-1.01,0-1.77-.25-2.28-.76-.51-.5-.77-1.27-.77-2.29h1.53v.26c0,.41.16.73.47.95.32.22.66.33,1.04.33.53,0,.92-.13,1.16-.39s.36-.64.36-1.14c0-.39-.15-.75-.44-1.08l-3.23-3.61c-.6-.66-.89-1.37-.89-2.15v-.75c0-.83.3-1.54.89-2.14s1.31-.9,2.15-.9h1.51c1.91,0,2.92,1.01,3.04,3.04Z"/>
    <path class="cls-1" d="M63.78,51.63v10.62h-3.03v-1.51c-.12,1.01-.63,1.51-1.53,1.51h-1.51c-.83,0-1.54-.3-2.14-.89-.6-.6-.9-1.31-.9-2.15v-7.58h3.04v7.58c0,.41.15.77.45,1.07.3.3.65.46,1.07.46s.79-.15,1.08-.46c.3-.3.45-.66.45-1.07v-7.58h3.03Z"/>
    <path class="cls-1" d="M66.82,62.25v-10.62h3.04v1.51c.06-.51.22-.89.47-1.14.26-.25.6-.37,1.04-.37h1.53c.83,0,1.54.3,2.13.89s.89,1.31.89,2.13v7.6h-3.03v-7.6c0-.41-.15-.77-.45-1.07-.3-.3-.66-.45-1.08-.45s-.77.15-1.07.45c-.3.3-.45.65-.45,1.07v7.6h-3.04Z"/>
    <path class="cls-1" d="M86.57,54.65h-1.51c-.13-1.01-.61-1.51-1.44-1.51-.53,0-.94.11-1.2.32s-.4.53-.4.94c0,.44.73,1.05,2.2,1.84,1.2.64,1.89,1.18,2.08,1.6.18.43.27.88.27,1.37,0,.84-.3,1.55-.89,2.15-.59.6-1.31.89-2.15.89h-1.51c-2.03,0-3.04-1.01-3.04-3.04h1.53c.12,1.02.59,1.53,1.42,1.53.55,0,.95-.11,1.22-.32s.4-.53.4-.96-.73-1.03-2.2-1.82c-1.2-.64-1.9-1.18-2.09-1.6-.19-.42-.28-.88-.28-1.37,0-.84.3-1.55.9-2.15.6-.6,1.32-.89,2.14-.89h1.51c1.91,0,2.92,1.01,3.04,3.03Z"/>
    <path class="cls-1" d="M98.71,57.69h-6.07v1.51c0,.41.15.77.45,1.07.3.3.65.46,1.07.46h1.53c1.01,0,1.51-.51,1.51-1.53h1.51c-.23,2.03-1.24,3.04-3.03,3.04h-3.04c-.83,0-1.54-.3-2.14-.89-.6-.6-.9-1.31-.9-2.15v-4.56c0-.83.3-1.54.9-2.13.6-.6,1.32-.89,2.14-.89h3.04c.83,0,1.54.3,2.13.89s.89,1.31.89,2.13v3.04ZM92.64,56.18h3.04v-1.53c0-.41-.15-.77-.45-1.07s-.66-.45-1.08-.45-.77.15-1.07.45c-.3.3-.45.65-.45,1.07v1.53Z"/>
    <path class="cls-1" d="M103.28,48.58h3.03v3.04h1.53v1.51h-1.53v6.07c0,.5.16.88.49,1.14.33.26.63.39.89.39h.15v1.51h-1.53c-.83,0-1.54-.3-2.13-.89-.6-.6-.89-1.31-.89-2.15v-6.07h-1.53v-1.51h1.53v-3.04Z"/>
  </g>
  <g id="Logo">
    <circle id="Eye" class="cls-1" cx="21.5" cy="20.22" r=".82"/>
    <path id="Faceline" class="cls-1" d="M34.17,27.77l-11.07,4c-.64.23-1.34-.1-1.58-.74l-1.15-3.17s-.02-.04-.03-.07l-1.22-2.84c-.12-.29-.35-.51-.63-.64l-.31-.14c-.62-.28-.9-1-.63-1.62l4.77-10.76c.13-.3.14-.64.02-.94h0c-.39-1.02-1.83-1.06-2.27-.06l-5.77,13.01c-.28.62,0,1.35.63,1.62l1.82.81c.31.14.54.39.66.71l2.62,7.24c.23.64.94.97,1.58.74l13.38-4.84c1.03-.37,1.1-1.81.1-2.27h0c-.3-.14-.63-.15-.94-.04Z"/>
    <path class="cls-2" d="M89.19,25.02h0s-12.03-1.6-12.03-1.6l11.49-3.58s.03,0,.05-.01l.11-.03h0c1.9-.66,3.28-2.47,3.28-4.59,0-2.68-2.18-4.85-4.85-4.85s-4.85,2.18-4.85,4.85c0,1.39.59,2.65,1.54,3.54l-12.56,3.91-5.77-.77h0c-1.54-.38-2.95-.21-4.24-.05-1.89.24-3.38.43-5.29-.95-1.91-1.38-2.2-2.85-2.57-4.72-.39-2.01-.84-4.3-3.54-6.24-2.7-1.95-5-1.65-7.04-1.39-1.89.24-3.38.43-5.29-.95-1.91-1.38-2.2-2.85-2.56-4.72-.15-.75-.3-1.55-.58-2.34-.81.16-1.61.36-2.4.6.27.68.41,1.42.57,2.22.39,2.01.84,4.29,3.54,6.24,2.7,1.95,5.01,1.65,7.04,1.39,1.89-.24,3.38-.43,5.29.95,1.91,1.38,2.2,2.85,2.57,4.72.39,2.01.84,4.3,3.54,6.24,2.7,1.95,5.01,1.65,7.04,1.39,1.4-.18,2.59-.32,3.89.18l-7.18,2.23c-.2.02-.39.05-.58.07-1.89.24-3.38.43-5.29-.95-1.91-1.38-2.2-2.85-2.57-4.72-.39-2.01-.84-4.3-3.54-6.24-2.7-1.95-5.01-1.65-7.04-1.39-1.89.24-3.38.43-5.29-.95-1.91-1.38-2.2-2.85-2.56-4.72-.34-1.76-.73-3.73-2.63-5.5-.77.34-1.53.72-2.27,1.14l-.08.11c1.91,1.38,2.2,2.85,2.56,4.72.39,2.01.84,4.29,3.54,6.24,2.7,1.95,5.01,1.65,7.04,1.39,1.89-.24,3.38-.43,5.29.95,1.91,1.38,2.2,2.85,2.57,4.72.39,2.01.84,4.3,3.54,6.24,2.7,1.95,5,1.65,7.04,1.39,1.89-.24,5.78-1.65,5.78-1.65l7.68-2.39,13.33,1.77c-.62.81-.99,1.83-.99,2.93,0,2.68,2.18,4.85,4.85,4.85s4.85-2.18,4.85-4.85c0-2.53-1.95-4.62-4.43-4.83ZM87.23,12.81c1.32,0,2.39,1.07,2.39,2.39s-1.07,2.39-2.39,2.39-2.39-1.07-2.39-2.39,1.07-2.39,2.39-2.39ZM88.77,32.24c-1.32,0-2.39-1.07-2.39-2.39s1.07-2.39,2.39-2.39,2.39,1.07,2.39,2.39-1.07,2.39-2.39,2.39Z"/>
    <path class="cls-1" d="M64.23,36.93c-.49,1.19-1.06,2.34-1.7,3.44-.04-.2-.08-.39-.12-.58-.37-1.87-.66-3.34-2.57-4.72-1.91-1.38-3.4-1.19-5.29-.95-2.04.26-4.34.55-7.04-1.4-2.7-1.95-3.15-4.23-3.54-6.24-.37-1.87-.65-3.34-2.57-4.72-1.91-1.38-3.4-1.19-5.29-.95-2.03.26-4.34.55-7.04-1.39-2.7-1.95-3.14-4.23-3.54-6.24-.37-1.87-.65-3.34-2.56-4.72l1.44-2c2.7,1.95,3.14,4.23,3.54,6.24.37,1.87.65,3.34,2.56,4.72,1.91,1.38,3.4,1.19,5.29.95,2.04-.26,4.34-.55,7.04,1.39,2.7,1.95,3.15,4.23,3.54,6.24.37,1.87.65,3.34,2.57,4.72,1.91,1.38,3.4,1.19,5.29.95,2.04-.26,4.34-.55,7.04,1.4,1.67,1.21,2.48,2.54,2.94,3.86Z"/>
    <path class="cls-1" d="M36.61.17c.84-.1,1.68-.16,2.52-.17.35.96.91,1.82,2.05,2.65,1.91,1.38,3.4,1.19,5.29.95,2.04-.26,4.34-.55,7.04,1.39,2.7,1.95,3.15,4.23,3.54,6.24.37,1.87.66,3.34,2.57,4.72,1.69,1.22,3.04,1.21,4.64,1.03.31.78.59,1.57.83,2.38-2,.25-4.27.49-6.91-1.41-2.7-1.95-3.15-4.23-3.54-6.24-.37-1.87-.65-3.34-2.57-4.72-1.91-1.38-3.4-1.19-5.29-.95-2.04.26-4.34.55-7.04-1.39-1.93-1.39-2.71-2.96-3.14-4.47Z"/>
  </g>
</svg>