<?xml version="1.0" encoding="UTF-8"?>
<svg id="Layer_1" xmlns="http://www.w3.org/2000/svg" version="1.1" viewBox="0 0 573 573">
  <!-- Generator: Adobe Illustrator 29.1.0, SVG Export Plug-In . SVG Version: 2.1.0 Build 142)  -->
  <defs>
    <style>
      .st0 {
        fill: #432420;
      }

      .st1 {
        fill: none;
        stroke: #000;
      }
    </style>
  </defs>
  <path class="st0" d="M187.2,287.9s0,0,0,0h0s0,0,0,0Z"/>
  <path class="st0" d="M280.4,284.2c-4.8-7-14.9-8.8-21.2-2.8-.1.6.8,1.7,2,3.2,2.4,2.9,5.7,6.8,2.5,9.3-6-12.8-17.8-20.2-31.7-13.7-16.2,7.6-17,33.8-12.8,48.7-4.6-5.4-8.9-4.6-13.7-3.6-2.9.6-6.1,1.2-9.6.4-3.9-.9-11.5-9.3-7.2-10.8,1-.4,1.8,1.2,2.6,2.8.8,1.6,1.7,3.4,2.9,3.6,22,10.5,26.6-21,9.3-29.3-9.7-4.6-17.5-1.2-25.7,2.4-2.8,1.2-5.6,2.5-8.6,3.4-2.9-2.6,15.9-10.3,18-10-3.9-12.9-10.9-26.1-26.7-19.2-12.2,5.3-10,23.7-7.3,34.2-22.2-3-18.4,24.2-1.8,28.3,1.2.3,2.8.4,4.4.5,1.9.1,3.8.2,4.4.7.4.3,1.2,1.8,2.3,4,2.6,5.1,6.9,13.9,13,17.8,15.2,9.8,47.9,2.7,45.7-19.2l7.6,7.8c9.2,5.7,19,3,25.8-4.8,6.4,9.1,19.5,11.2,25.7.7,6.5-11,7.2-43.8,0-54.4ZM251.2,320.4c0,.2-.1.3-.2.5-.5,1.3-.9,2.4-2.8,2-.4-.5.3-3.8,1-6.9.5-2.3,1-4.6,1-5.6,0-1.6-.5-3.5-1-5.4-.4-1.6-.8-3.3-.9-4.7,0-.3,0-.6-.1-.8-.2-1.1-.3-1.8,1.5-1.5,3.5,1.8,2.9,18.9,1.5,22.5Z"/>
  <path class="st1" d="M187.2,287.9s0,0,0,0h0s0,0,0,0ZM187.2,287.9c-3.9-12.9-10.9-26.1-26.7-19.2-12.2,5.3-10,23.7-7.3,34.2-22.2-3-18.4,24.2-1.8,28.3,1.2.3,2.8.4,4.4.5,1.9.1,3.8.2,4.4.7.4.3,1.2,1.8,2.3,4,2.6,5.1,6.9,13.9,13,17.8,15.2,9.8,47.9,2.7,45.7-19.2l7.6,7.8c9.2,5.7,19,3,25.8-4.8,6.4,9.1,19.5,11.2,25.7.7,6.5-11,7.2-43.8,0-54.4-4.8-7-14.9-8.8-21.2-2.8-.1.6.8,1.7,2,3.2,2.4,2.9,5.6,6.8,2.5,9.3-5.9-12.8-17.8-20.2-31.7-13.7-16.2,7.6-17,33.8-12.8,48.7-4.6-5.4-8.9-4.6-13.7-3.6-2.9.6-6.1,1.2-9.6.4-3.9-.9-11.5-9.3-7.2-10.8,1-.4,1.8,1.2,2.6,2.8.8,1.6,1.7,3.4,2.9,3.6,22,10.5,26.6-21,9.3-29.3-9.7-4.6-17.5-1.2-25.7,2.4-2.8,1.2-5.6,2.5-8.6,3.4-2.9-2.6,15.9-10.3,18-10ZM248.2,322.9c1.9.3,2.3-.7,2.8-2,0-.2.1-.3.2-.5,1.4-3.6,2-20.6-1.5-22.5-1.8-.3-1.7.4-1.5,1.5,0,.3,0,.6.1.9,0,1.4.5,3.1.9,4.7.5,1.9,1,3.8,1,5.4s-.5,3.2-1,5.6c-.7,3.2-1.4,6.5-1,6.9Z"/>
  <path class="st0" d="M428.2,247.9v-20.5c0-2.3,3.7-12.5,5.2-14.8,8.4-13.2,25.6-8.2,30.3,5.4,4.9,14.2.8,52.6-5.4,66.5-9.9,22.1-35.3,27.3-55.9,16.8-14.9-7.5-25.8-26.2-9.6-38.3,6.8,11.1,15.4,17.4,28.9,15.8,5.4-.6,14.9-4.4,15.5-10.6.3-3.2-2.6-1.3-5.2.3-1.1.7-2.1,1.4-2.9,1.6-16.6,6.1-29.7-2.6-31.7-19.9-1.2-10.4-1.1-37.5,8.9-43.8,6.6-4.1,18.9-2.9,22.2,4.7,1.2,2.7.3,5.2-.6,7.8-.5,1.3-.9,2.6-1.1,3.9-.9,5.5-2.8,18.6-1.3,23.4.4,1.3,1.4,1.9,2.8,1.7Z"/>
  <path class="st1" d="M428.2,247.9v-20.5c0-2.3,3.7-12.5,5.2-14.8,8.4-13.2,25.6-8.2,30.3,5.4,4.9,14.2.8,52.6-5.4,66.5-9.9,22.1-35.3,27.3-55.9,16.8-14.9-7.5-25.8-26.2-9.6-38.3,6.8,11.1,15.4,17.4,28.9,15.8,5.4-.6,14.9-4.4,15.5-10.6.3-3.2-2.6-1.3-5.2.3-1.1.7-2.1,1.4-2.9,1.6-16.6,6.1-29.7-2.6-31.7-19.9-1.2-10.4-1.1-37.5,8.9-43.8,6.6-4.1,18.9-2.9,22.2,4.7,1.2,2.7.3,5.2-.6,7.8-.5,1.3-.9,2.6-1.1,3.9-.9,5.5-2.8,18.6-1.3,23.4.4,1.3,1.4,1.9,2.8,1.7Z"/>
  <path class="st0" d="M145.2,221.9c0,3.5,3,2.6,6,1.7,1.3-.4,2.5-.7,3.5-.8,7.9-.1,20.5,4.3,24.3,11.7,7.8,15.5-7.2,34.6-22.8,22.3-1,13.5-9.9,35.8-27.2,29.7-12.7-4.4-11.1-22.9-9.9-33.6-16.6-6.7-17.1-32.9,5.2-28.6,6.7-21.6,18.2-33.6,42.2-28.3,17.8,3.9,26.6,17.9,11.3,31.5-9.4-6.8-21.3-8.4-32.5-5.8h0Z"/>
  <path class="st1" d="M145.2,221.9c0,3.5,3,2.6,6,1.7,1.3-.4,2.5-.7,3.5-.8,7.9-.1,20.5,4.3,24.3,11.7,7.8,15.5-7.2,34.6-22.8,22.3-1,13.5-9.9,35.8-27.2,29.7-12.7-4.4-11.1-22.9-9.9-33.6-16.6-6.7-17.1-32.9,5.2-28.6,6.7-21.6,18.2-33.6,42.2-28.3,17.8,3.9,26.6,17.9,11.3,31.5-9.4-6.8-21.3-8.4-32.5-5.8h0Z"/>
  <path class="st0" d="M218.2,244.9h3c-1.6-12.9-2.4-39.7,15.5-41,21.8-1.6,19.5,33.4,17.4,47.4-1.4,8.9-4.4,20.7-15.4,20.6-2.9,0-9.5-2.7-10.4-5.7-.3-1,.7-3.4,1.8-5.9,2-4.6,4.1-9.7-1-7.7-1.8,20.7-28.4,27.3-37,6.9-3.9-9.3-4.5-34.9-1.3-44.3,4.2-12.4,20.4-15.6,27.8-4.1,1.9,2.9.8,7.2-.2,11.3-.5,2.1-1.1,4.3-1.2,6.1-.2,3.2.1,6.2.5,9.1.3,2.4.5,4.8.5,7.4h0Z"/>
  <path class="st1" d="M218.2,244.9h3c-1.6-12.9-2.4-39.7,15.5-41,21.8-1.6,19.5,33.4,17.4,47.4-1.4,8.9-4.4,20.7-15.4,20.6-2.9,0-9.5-2.7-10.4-5.7-.3-1,.7-3.4,1.8-5.9,2-4.6,4.1-9.7-1-7.7-1.8,20.7-28.4,27.3-37,6.9-3.9-9.3-4.5-34.9-1.3-44.3,4.2-12.4,20.4-15.6,27.8-4.1,1.9,2.9.8,7.2-.2,11.3-.5,2.1-1.1,4.3-1.2,6.1-.2,3.2.1,6.2.5,9.1.3,2.4.5,4.8.5,7.4h0Z"/>
  <path class="st0" d="M349.2,319.9c-.1,2.6,3,4.5,4.9,5.6,9.7,5.2,23.6,4.5,31.5-3.5,9.6,17.5-7.9,24.8-23,25-25.2.5-39.7-14.4-37.6-39.6,2-23.5,23-32.4,44.3-27.2,34.6,8.5,22.5,56.4-11.8,43.8-1.4-.5-2.5-1.3-3.5-2-1.5-1.1-2.8-2.1-5-2h0ZM361.1,295c-3.7-2.3-2.6,2-1.8,5.1.3,1,.5,2,.5,2.5,0,1.9-.4,3.9-.9,5.9-.3,1.2-.6,2.4-.7,3.5l3.1-.6c1.4-1.9,1.3-15.4-.2-16.3h0Z"/>
  <path class="st1" d="M349.2,319.9c-.1,2.6,3,4.5,4.9,5.6,9.7,5.2,23.6,4.5,31.5-3.5,9.6,17.5-7.9,24.8-23,25-25.2.5-39.7-14.4-37.6-39.6,2-23.5,23-32.4,44.3-27.2,34.6,8.5,22.5,56.4-11.8,43.8-1.4-.5-2.5-1.3-3.5-2-1.5-1.1-2.8-2.1-5-2h0ZM361.1,295c-3.7-2.3-2.6,2-1.8,5.1.3,1,.5,2,.5,2.5,0,1.9-.4,3.9-.9,5.9-.3,1.2-.6,2.4-.7,3.5l3.1-.6c1.4-1.9,1.3-15.4-.2-16.3h0Z"/>
  <path class="st0" d="M432.8,372.6c-10.3,10.3-27.8,4.3-38.6-2.2-12.6-7.6-17.3-19.8-3.6-29.2,5.6,7,13,14.4,22.5,14.8,1.5-1.3-4.8-4.2-8.1-5.7-.9-.4-1.6-.7-1.8-.9-11.4-7.1-15.1-18.2-8.5-30.4,7.6-14.1,24.3-11.2,36.7-5.8,13,5.7,22.7,18.2,8.2,28.5-.4-.3-.7-.7-1-1-4.5-4.5-8.5-8.4-14.6-11.1,0,0-.2,0-.3-.2-1.8-.8-8.7-4.1-8.5-1,0,.5,3.3,2.1,7.1,4,4.1,2,8.7,4.3,10.3,5.7,10.5,9.2,9.9,24.9.3,34.5h0Z"/>
  <path class="st1" d="M432.8,372.6c-10.3,10.3-27.8,4.3-38.6-2.2-12.6-7.6-17.3-19.8-3.6-29.2,5.6,7,13,14.4,22.5,14.8,1.5-1.3-4.8-4.2-8.1-5.7-.9-.4-1.6-.7-1.8-.9-11.4-7.1-15.1-18.2-8.5-30.4,7.6-14.1,24.3-11.2,36.7-5.8,13,5.7,22.7,18.2,8.2,28.5-.4-.3-.7-.7-1-1-4.5-4.5-8.5-8.4-14.6-11.1,0,0-.2,0-.3-.2-1.8-.8-8.7-4.1-8.5-1,0,.5,3.3,2.1,7.1,4,4.1,2,8.7,4.3,10.3,5.7,10.5,9.2,9.9,24.9.3,34.5h0Z"/>
  <path class="st0" d="M279.2,222.9c2.4,0,3.1-1.9,3.9-4,.3-.9.7-1.8,1.1-2.5,17.5-25.9,50.5-8.5,37.8,20.8-5.1,11.8-26.1,9.7-27.7-.8-.1-.8,0-1.8,0-2.8.1-2.7.3-5.6-3-5.6,0,1.3.2,2.6.3,3.9.8,10,1.5,19.7-2.5,29.4-6.6,15.8-23.3,13.5-28.5-2-3.2-9.6-3.8-36.3,0-45.5,3.1-7.7,10.8-12.6,18.7-8.1,6.3,3.6,4.7,6.4,2.7,9.9-1.2,2.1-2.6,4.5-2.6,7.5h0Z"/>
  <path class="st1" d="M279.2,222.9c2.4,0,3.1-1.9,3.9-4,.3-.9.7-1.8,1.1-2.5,17.5-25.9,50.5-8.5,37.8,20.8-5.1,11.8-26.1,9.7-27.7-.8-.1-.8,0-1.8,0-2.8.1-2.7.3-5.6-3-5.6,0,1.3.2,2.6.3,3.9.8,10,1.5,19.7-2.5,29.4-6.6,15.8-23.3,13.5-28.5-2-3.2-9.6-3.8-36.3,0-45.5,3.1-7.7,10.8-12.6,18.7-8.1,6.3,3.6,4.7,6.4,2.7,9.9-1.2,2.1-2.6,4.5-2.6,7.5h0Z"/>
  <path class="st0" d="M348.2,222.9c1.1,1.2,4.2-4.1,6.4-7.8.9-1.6,1.7-2.8,2-3.2,11.3-12.1,34-10.8,36.5,7.6,1,7.4-.6,23.2-9.6,25.2-5.7,1.3-15.1.3-18.3-5.2-.8-1.4-1-3.3-1.3-5.1-.4-3-.7-6-3.7-6.4,1.6,12.2,3.1,39.3-12.2,43.3-22.3,5.9-21.9-32.4-20.8-45.8,1.3-15.4,11.5-30.4,25.6-15.6l.2,2.3-4.8,10.7h0Z"/>
  <path class="st1" d="M348.2,222.9c1.1,1.2,4.2-4.1,6.4-7.8.9-1.6,1.7-2.8,2-3.2,11.3-12.1,34-10.8,36.5,7.6,1,7.4-.6,23.2-9.6,25.2-5.7,1.3-15.1.3-18.3-5.2-.8-1.4-1-3.3-1.3-5.1-.4-3-.7-6-3.7-6.4,1.6,12.2,3.1,39.3-12.2,43.3-22.3,5.9-21.9-32.4-20.8-45.8,1.3-15.4,11.5-30.4,25.6-15.6l.2,2.3-4.8,10.7h0Z"/>
  <path class="st0" d="M307,250.1c6.8-1,12.7,1.7,15.4,8.1,5.5,12.7-.6,63.6-6.4,77-7,16.2-24.8,12.7-27.5-4-2.1-13,0-33.3,1.9-46.6,0-.4.1-.9.2-1.4,1.5-10.8,4.3-31.3,16.4-33.1h0Z"/>
  <path class="st1" d="M307,250.1c6.8-1,12.7,1.7,15.4,8.1,5.5,12.7-.6,63.6-6.4,77-7,16.2-24.8,12.7-27.5-4-2.1-13,0-33.3,1.9-46.6,0-.4.1-.9.2-1.4,1.5-10.8,4.3-31.3,16.4-33.1h0Z"/>
  <path class="st0" d="M131.5,312.2c-.6.8-.9,1.7-1.2,2.6-.5,1.9-1.1,3.7-4.7,4.1-1.7.2-4.3-.9-6.9-1.9-2.2-.9-4.4-1.8-6.1-2-1.7-1.5-1.8-13.9-.9-16,1.1-2.5,3.2-2.7,5.3-2.9.8,0,1.6-.2,2.3-.4.8-.2,1.5-.6,2.2-.9,1.8-.9,3.6-1.7,6.5-.3.6.3,6.8,9.3,7,10,.9,4.6-.4,5.3-1.9,6.3-.6.4-1.3.8-1.8,1.5Z"/>
  <path class="st1" d="M131.5,312.2c-.6.8-.9,1.7-1.2,2.6-.5,1.9-1.1,3.7-4.7,4.1-1.7.2-4.3-.9-6.9-1.9-2.2-.9-4.4-1.8-6.1-2-1.7-1.5-1.8-13.9-.9-16,1.1-2.5,3.2-2.7,5.3-2.9.8,0,1.6-.2,2.3-.4.8-.2,1.5-.6,2.2-.9,1.8-.9,3.6-1.7,6.5-.3.6.3,6.8,9.3,7,10,.9,4.6-.4,5.3-1.9,6.3-.6.4-1.3.8-1.8,1.5Z"/>
  <path class="st0" d="M390,261.8c-6.4.7-7.4,5.9-8.3,10.2-.4,1.9-.7,3.6-1.5,4.6-4.6,6.2-9.5-5.9-2.6-14.6,3.7-4.7,14.1-10.6,12.4-.1h0Z"/>
  <path class="st1" d="M390,261.8c-6.4.7-7.4,5.9-8.3,10.2-.4,1.9-.7,3.6-1.5,4.6-4.6,6.2-9.5-5.9-2.6-14.6,3.7-4.7,14.1-10.6,12.4-.1h0Z"/>
  <path class="st0" d="M371.3,255.8c-5.6-8.9,19-12.3,15.2-4.2-1.3,2.8-11.7,4.5-15.2,4.2Z"/>
  <path class="st1" d="M371.3,255.8c-5.6-8.9,19-12.3,15.2-4.2-1.3,2.8-11.7,4.5-15.2,4.2Z"/>
</svg>