<?xml version="1.0" encoding="UTF-8"?>
<svg id="Layer_1" xmlns="http://www.w3.org/2000/svg" version="1.1" viewBox="0 0 576 176.5">
  <!-- Generator: Adobe Illustrator 29.1.0, SVG Export Plug-In . SVG Version: 2.1.0 Build 142)  -->
  <defs>
    <style>
      .st0, .st1 {
        isolation: isolate;
      }

      .st2 {
        fill: none;
        stroke: #000;
        stroke-miterlimit: 10;
      }

      .st1 {
        font-family: Futura-Medium, Futura;
        font-size: 24px;
        font-weight: 500;
      }

      .st3 {
        fill: #fbff86;
      }
    </style>
  </defs>
  <g class="st0">
    <text class="st1" transform="translate(278.8 44.2)"><tspan x="0" y="0">Sp</tspan></text>
    <text class="st1" transform="translate(307.2 44.2)"><tspan x="0" y="0">o</tspan></text>
    <text class="st1" transform="translate(321.8 44.2)"><tspan x="0" y="0">tlight</tspan></text>
  </g>
  <circle cx="70.6" cy="89.7" r="20.7"/>
  <rect x="105.5" y="21.4" width="37" height="37"/>
  <rect x="237.2" y="21.1" width="30.4" height="30.4"/>
  <circle class="st3" cx="252.4" cy="36.3" r="10"/>
  <polygon points="54.8 21.4 91.8 21.4 54.8 58.4 54.8 21.4"/>
  <rect class="st2" x="106.4" y="69" width="37" height="37"/>
  <g>
    <path d="M285,140l-2.2,1.3c-.4-.7-.8-1.2-1.2-1.4-.4-.2-.9-.4-1.5-.4s-1.4.2-1.9.6c-.5.4-.8,1-.8,1.6s.7,1.6,2,2.1l1.8.7c1.5.6,2.5,1.3,3.2,2.2s1,1.9,1,3.1-.5,3-1.7,4.1c-1.1,1.1-2.5,1.6-4.2,1.6s-2.9-.5-3.9-1.4c-1-.9-1.6-2.2-1.9-3.9l2.8-.6c.1,1.1.3,1.8.7,2.2.6.8,1.4,1.2,2.5,1.2s1.6-.3,2.1-.9.8-1.3.8-2.2,0-.7-.1-1-.2-.6-.5-.8-.5-.5-.8-.7-.7-.4-1.2-.6l-1.8-.7c-2.5-1-3.7-2.6-3.7-4.6s.5-2.5,1.6-3.4c1-.9,2.3-1.4,3.9-1.4s3.7,1,4.9,3h0Z"/>
    <path d="M290.9,161.6h-2.6v-17.6h2.6v1.2c1-1,2.2-1.6,3.5-1.6s2.9.6,3.9,1.7c1,1.1,1.5,2.6,1.5,4.4s-.5,3.1-1.5,4.3c-1,1.1-2.3,1.7-3.8,1.7s-2.5-.5-3.6-1.6v7.5ZM297.1,149.7c0-1.1-.3-2-.9-2.7-.6-.7-1.4-1-2.3-1s-1.8.3-2.4,1-.9,1.5-.9,2.6.3,2,.9,2.7c.6.7,1.4,1,2.3,1s1.7-.3,2.3-1c.6-.7.9-1.5.9-2.6h0Z"/>
    <path d="M302.1,149.6c0-1.6.6-3,1.8-4.2s2.6-1.7,4.3-1.7,3.1.6,4.3,1.8c1.2,1.2,1.8,2.6,1.8,4.3s-.6,3.1-1.8,4.3c-1.2,1.2-2.6,1.7-4.4,1.7s-3.1-.6-4.3-1.8c-1.2-1.2-1.7-2.6-1.7-4.4h0ZM304.8,149.6c0,1.1.3,2,.9,2.7.6.7,1.5,1,2.5,1s1.9-.3,2.5-1,.9-1.5.9-2.7-.3-2-.9-2.7c-.6-.7-1.5-1-2.5-1s-1.8.3-2.5,1-.9,1.5-.9,2.6h0Z"/>
    <path d="M319.9,146.4v8.9h-2.6v-9h-1.1v-2.5h1.1v-4.2h2.6v4.2h2v2.5s-2,0-2,0Z"/>
    <path d="M326.4,135.6l7,19.8h-9.5l2.1-19.8h.5Z"/>
    <path d="M335.4,139.2c0-.5.2-.9.5-1.2s.7-.5,1.2-.5.9.2,1.2.5.5.7.5,1.2-.2.9-.5,1.2-.7.5-1.2.5-.9-.2-1.2-.5-.5-.8-.5-1.2ZM338.4,143.9v11.4h-2.6v-11.4h2.6Z"/>
    <path d="M352.8,155.1c0,.5,0,1,0,1.4s0,.8-.1,1.1c-.2.9-.5,1.6-1.1,2.2-1,1.2-2.5,1.8-4.2,1.8s-2.8-.4-3.8-1.2c-1-.8-1.6-2-1.8-3.5h2.6c.1.6.3,1,.5,1.3.5.7,1.3,1.1,2.4,1.1,1.9,0,2.9-1.2,2.9-3.5v-1.6c-1,1.1-2.2,1.6-3.6,1.6s-2.8-.6-3.8-1.7c-1-1.1-1.5-2.6-1.5-4.3s.5-3.1,1.4-4.2c1-1.2,2.3-1.9,4-1.9s2.6.5,3.6,1.6v-1.3h2.6v11.1h0ZM350.2,149.7c0-1.1-.3-2-.9-2.7-.6-.7-1.4-1-2.3-1s-1.8.4-2.4,1.1c-.5.7-.8,1.5-.8,2.6s.3,1.9.8,2.5c.6.7,1.4,1.1,2.4,1.1s1.8-.4,2.4-1.1c.5-.7.8-1.5.8-2.6Z"/>
    <path d="M356.1,135.6h2.6v9.3c.9-.8,2-1.3,3.1-1.3s2.3.4,3.1,1.2c.7.7,1,1.9,1,3.5v7h-2.6v-6.8c0-.9-.2-1.6-.5-2s-.9-.6-1.6-.6-1.6.3-2,.9c-.4.6-.5,1.6-.5,3v5.5h-2.6v-19.8h0Z"/>
    <path d="M372,146.4v8.9h-2.6v-9h-1.1v-2.5h1.1v-4.2h2.6v4.2h2v2.5s-2,0-2,0Z"/>
    <g>
      <path class="st3" d="M328.5,157.9c-2.5,0-4.5-1.1-4.5-2.5s2.1-2.5,4.5-2.5,4.5,1.1,4.5,2.5-2.1,2.5-4.5,2.5Z"/>
      <path d="M328.5,153.2c2.3,0,4.3,1,4.3,2.2s-2,2.2-4.3,2.2-4.3-1-4.3-2.2,2-2.2,4.3-2.2M328.5,152.7c-2.6,0-4.8,1.2-4.8,2.7s2.1,2.7,4.8,2.7,4.8-1.2,4.8-2.7-2.1-2.7-4.8-2.7h0Z"/>
    </g>
  </g>
  <path d="M156.8,21.4v37h37V21.4s-37,0-37,0ZM175.3,53.7c-7.6,0-13.9-6.2-13.9-13.8s6.2-13.8,13.9-13.8,13.9,6.2,13.9,13.8-6.2,13.8-13.9,13.8Z"/>
  <g class="st0">
    <text class="st1" transform="translate(425.6 116.1)"><tspan x="0" y="0">Sp</tspan></text>
    <text class="st1" transform="translate(454 116.1)"><tspan x="0" y="0">o</tspan></text>
    <text class="st1" transform="translate(468.6 116.1)"><tspan x="0" y="0">tlight</tspan></text>
  </g>
  <g class="st0">
    <text class="st1" transform="translate(275.5 118.2)"><tspan x="0" y="0">Sp</tspan></text>
    <text class="st1" transform="translate(303.9 118.2)"><tspan x="0" y="0">o</tspan></text>
    <text class="st1" transform="translate(318.5 118.2)"><tspan x="0" y="0">tlight</tspan></text>
  </g>
  <g class="st0">
    <text class="st1" transform="translate(275.9 84)"><tspan x="0" y="0">Sp</tspan></text>
    <text class="st1" transform="translate(304.2 84)"><tspan x="0" y="0">o</tspan></text>
    <text class="st1" transform="translate(318.8 84)"><tspan x="0" y="0">tlight</tspan></text>
  </g>
  <g class="st0">
    <text class="st1" transform="translate(424.2 45)"><tspan x="0" y="0">Sp</tspan></text>
    <text class="st1" transform="translate(452.6 45)"><tspan x="0" y="0">o</tspan></text>
    <text class="st1" transform="translate(467.2 45)"><tspan x="0" y="0">tlight</tspan></text>
  </g>
  <rect x="237.4" y="95.6" width="28.5" height="28.5"/>
  <rect x="386.1" y="23.5" width="28.5" height="28.5"/>
  <g>
    <rect x="385.7" y="94.1" width="29.5" height="29.5"/>
    <polygon class="st3" points="400.5 98.9 401.7 105.3 406.7 100.8 403.7 106.6 410.5 105.8 404.5 108.9 410.5 112 403.7 111.1 406.7 117 401.7 112.5 400.5 118.9 399.2 112.5 394.3 117 397.2 111.1 390.5 112 396.5 108.9 390.5 105.8 397.2 106.6 394.3 100.8 399.2 105.3 400.5 98.9"/>
  </g>
  <path class="st3" d="M264,117.5c-.4-1.4-13.9-12.1-22.1-19v19h0c0,0,0,.2,0,.3,0,1.6,4.9,2.9,11.1,2.9s11.1-1.3,11.1-2.9,0-.2,0-.3h0,0Z"/>
  <circle cx="253.8" cy="117.6" r="1.1"/>
  <circle cx="258.9" cy="117.6" r="1"/>
  <g>
    <path d="M249,60.8c7.2,9.1,14.8,18.6,15.1,20.2h0c0,.1,0,.3,0,.4,0,2.5-5,4.4-11.1,4.4s-11.1-2-11.1-4.4,0-.3,0-.4h0v-20.2h-4.4v28.5h28.5v-28.5h-17.1,0Z"/>
    <path class="st3" d="M242,81c0,.1,0,.3,0,.4,0,2.5,4.9,4.4,11.1,4.4s11.1-2,11.1-4.4,0-.3,0-.4h0c-.3-1.6-7.9-11.1-15.1-20.2h-7v20.2h0,0Z"/>
  </g>
  <circle cx="254" cy="82.8" r="1.1"/>
  <circle cx="259" cy="82.8" r="1"/>
  <path class="st3" d="M410,28.2s-13.4,4.5-14.3,4.8c-.7.3-2.2,1.1-2.9,1.8l-.5.5c-2.3,2.9-2.2,7.2.5,9.8s7,2.9,9.9.5c.4-.3,1-.9,1.2-1.2.5-.7.9-1.6,1.1-2.2.3-.8,4.9-14.2,4.9-14.2Z"/>
  <path class="st2" d="M402.4,40.5c0,2.5-2,4.5-4.5,4.5s-4.5-2-4.5-4.5"/>
  <g class="st0">
    <text class="st1" transform="translate(424.2 81.9)"><tspan x="0" y="0">Sp</tspan></text>
    <text class="st1" transform="translate(452.6 81.9)"><tspan x="0" y="0">o</tspan></text>
    <text class="st1" transform="translate(467.2 81.9)"><tspan x="0" y="0">tlight</tspan></text>
  </g>
  <g>
    <path d="M410,78.5c-.4.9-.9,2.1-1.6,3.1-.4.5-1.2,1.3-1.7,1.7-4.1,3.3-10.2,3.1-14-.8s-4.1-9.9-.8-14l.7-.8c1-1,3.1-2.2,4.2-2.6.8-.3,8.7-3,14.4-4.9h-25v28.5h28.5v-23.7c-1.9,5.6-4.4,12.7-4.7,13.3h0Z"/>
    <path class="st3" d="M392.5,67.8l-.7.8c-3.3,4.1-3.1,10.2.8,14s9.9,4.1,14,.8c.5-.4,1.4-1.2,1.7-1.7.7-1,1.2-2.2,1.6-3.1.3-.6,2.7-7.7,4.7-13.3v-4.9h-3.6c-5.7,1.9-13.6,4.6-14.4,4.9-1,.4-3.1,1.6-4.2,2.6h0Z"/>
  </g>
  <path class="st2" d="M404.3,77.9c0,2.5-2,4.5-4.5,4.5s-4.5-2-4.5-4.5"/>
</svg>