<svg width="1261" height="499" viewBox="0 0 1261 499" fill="none" xmlns="http://www.w3.org/2000/svg">
<rect width="1261" height="499" rx="2" fill="white"/>
<rect x="0.5" y="0.5" width="1260" height="498" rx="1.5" stroke="white" stroke-opacity="0.1"/>
<rect x="73" y="320" width="195" height="103" rx="20" fill="#FBFF86"/>
<rect x="298" y="76" width="195" height="103" rx="20" fill="#B0D4B0"/>
<rect x="298" y="198" width="195" height="103" rx="20" fill="#B99FCE"/>
<rect x="298" y="320" width="195" height="103" rx="20" fill="black"/>
<rect x="73" y="198" width="195" height="103" rx="20" fill="#E2E2E2"/>
<rect x="73.5" y="76.5" width="194" height="102" rx="19.5" fill="white" stroke="black"/>
<path d="M592.938 100.297H584.531V106.094H592.641V109.516H584.531V121H580.891V96.875H592.938V100.297ZM599.703 105.781V114.516C599.703 117.036 600.698 118.297 602.688 118.297C604.677 118.297 605.672 117.036 605.672 114.516V105.781H609.188V114.594C609.188 115.812 609.036 116.865 608.734 117.75C608.443 118.542 607.938 119.255 607.219 119.891C606.031 120.922 604.521 121.438 602.688 121.438C600.865 121.438 599.359 120.922 598.172 119.891C597.443 119.255 596.927 118.542 596.625 117.75C596.333 117.042 596.188 115.99 596.188 114.594V105.781H599.703ZM617.25 109.062V121H613.734V109.062H612.234V105.781H613.734V100.203H617.25V105.781H619.984V109.062H617.25ZM625.891 105.781V114.516C625.891 117.036 626.885 118.297 628.875 118.297C630.865 118.297 631.859 117.036 631.859 114.516V105.781H635.375V114.594C635.375 115.812 635.224 116.865 634.922 117.75C634.63 118.542 634.125 119.255 633.406 119.891C632.219 120.922 630.708 121.438 628.875 121.438C627.052 121.438 625.547 120.922 624.359 119.891C623.63 119.255 623.115 118.542 622.812 117.75C622.521 117.042 622.375 115.99 622.375 114.594V105.781H625.891ZM639.812 105.781H643.328V107.141C643.974 106.464 644.547 106 645.047 105.75C645.557 105.49 646.161 105.359 646.859 105.359C647.786 105.359 648.755 105.661 649.766 106.266L648.156 109.484C647.49 109.005 646.839 108.766 646.203 108.766C644.286 108.766 643.328 110.214 643.328 113.109V121H639.812V105.781ZM662.781 105.781H666.312V121H662.781V119.406C661.333 120.76 659.776 121.438 658.109 121.438C656.005 121.438 654.266 120.677 652.891 119.156C651.526 117.604 650.844 115.667 650.844 113.344C650.844 111.062 651.526 109.161 652.891 107.641C654.255 106.12 655.964 105.359 658.016 105.359C659.786 105.359 661.375 106.089 662.781 107.547V105.781ZM654.438 113.344C654.438 114.802 654.828 115.99 655.609 116.906C656.411 117.833 657.422 118.297 658.641 118.297C659.943 118.297 660.995 117.849 661.797 116.953C662.599 116.026 663 114.849 663 113.422C663 111.995 662.599 110.818 661.797 109.891C660.995 108.984 659.953 108.531 658.672 108.531C657.464 108.531 656.453 108.99 655.641 109.906C654.839 110.833 654.438 111.979 654.438 113.344ZM680.453 121L685.531 95.0625L693.812 113.812L702.391 95.0625L706.953 121H703.219L700.891 106.438L693.75 122.109L686.812 106.422L684.219 121H680.453ZM725.266 114.219H714.359C714.453 115.469 714.859 116.464 715.578 117.203C716.297 117.932 717.219 118.297 718.344 118.297C719.219 118.297 719.943 118.089 720.516 117.672C721.078 117.255 721.719 116.484 722.438 115.359L725.406 117.016C724.948 117.797 724.464 118.469 723.953 119.031C723.443 119.583 722.896 120.042 722.312 120.406C721.729 120.76 721.099 121.021 720.422 121.188C719.745 121.354 719.01 121.438 718.219 121.438C715.948 121.438 714.125 120.708 712.75 119.25C711.375 117.781 710.688 115.833 710.688 113.406C710.688 111 711.354 109.052 712.688 107.562C714.031 106.094 715.812 105.359 718.031 105.359C720.271 105.359 722.042 106.073 723.344 107.5C724.635 108.917 725.281 110.88 725.281 113.391L725.266 114.219ZM721.656 111.344C721.167 109.469 719.984 108.531 718.109 108.531C717.682 108.531 717.281 108.599 716.906 108.734C716.531 108.859 716.188 109.047 715.875 109.297C715.573 109.536 715.312 109.828 715.094 110.172C714.875 110.516 714.708 110.906 714.594 111.344H721.656ZM740.344 94.6094H743.875V121H740.344V119.406C738.958 120.76 737.391 121.438 735.641 121.438C733.557 121.438 731.828 120.677 730.453 119.156C729.089 117.604 728.406 115.667 728.406 113.344C728.406 111.073 729.089 109.177 730.453 107.656C731.807 106.125 733.51 105.359 735.562 105.359C737.344 105.359 738.938 106.089 740.344 107.547V94.6094ZM732 113.344C732 114.802 732.391 115.99 733.172 116.906C733.974 117.833 734.984 118.297 736.203 118.297C737.505 118.297 738.557 117.849 739.359 116.953C740.161 116.026 740.562 114.849 740.562 113.422C740.562 111.995 740.161 110.818 739.359 109.891C738.557 108.984 737.516 108.531 736.234 108.531C735.026 108.531 734.016 108.99 733.203 109.906C732.401 110.833 732 111.979 732 113.344ZM751.828 105.781V121H748.312V105.781H751.828ZM747.781 99.4531C747.781 98.8385 748.005 98.3073 748.453 97.8594C748.901 97.4115 749.438 97.1875 750.062 97.1875C750.698 97.1875 751.24 97.4115 751.688 97.8594C752.135 98.2969 752.359 98.8333 752.359 99.4688C752.359 100.104 752.135 100.646 751.688 101.094C751.25 101.542 750.714 101.766 750.078 101.766C749.443 101.766 748.901 101.542 748.453 101.094C748.005 100.646 747.781 100.099 747.781 99.4531ZM759.797 105.781V114.516C759.797 117.036 760.792 118.297 762.781 118.297C764.771 118.297 765.766 117.036 765.766 114.516V105.781H769.281V114.594C769.281 115.812 769.13 116.865 768.828 117.75C768.536 118.542 768.031 119.255 767.312 119.891C766.125 120.922 764.615 121.438 762.781 121.438C760.958 121.438 759.453 120.922 758.266 119.891C757.536 119.255 757.021 118.542 756.719 117.75C756.427 117.042 756.281 115.99 756.281 114.594V105.781H759.797ZM773.719 105.781H777.234V107.188C777.911 106.479 778.49 106 778.969 105.75C779.479 105.49 780.12 105.359 780.891 105.359C782.609 105.359 783.969 106.109 784.969 107.609C786.073 106.109 787.568 105.359 789.453 105.359C792.88 105.359 794.594 107.438 794.594 111.594V121H791.062V112.547C791.062 111.089 790.885 110.057 790.531 109.453C790.167 108.839 789.568 108.531 788.734 108.531C787.766 108.531 787.057 108.896 786.609 109.625C786.172 110.354 785.953 111.526 785.953 113.141V121H782.422V112.594C782.422 109.885 781.641 108.531 780.078 108.531C779.089 108.531 778.365 108.901 777.906 109.641C777.458 110.38 777.234 111.547 777.234 113.141V121H773.719V105.781ZM580.219 180.609H583.734V193.047C584.984 191.922 586.365 191.359 587.875 191.359C589.594 191.359 590.969 191.917 592 193.031C592.875 194 593.312 195.547 593.312 197.672V207H589.797V198C589.797 196.781 589.578 195.901 589.141 195.359C588.714 194.807 588.021 194.531 587.062 194.531C585.833 194.531 584.969 194.911 584.469 195.672C583.979 196.443 583.734 197.766 583.734 199.641V207H580.219V180.609ZM604.234 186.281H600.062L602.062 182.875H607.875V207H604.234V186.281ZM618.078 205.25C618.078 204.667 618.292 204.161 618.719 203.734C619.146 203.307 619.656 203.094 620.25 203.094C620.844 203.094 621.354 203.307 621.781 203.734C622.208 204.161 622.422 204.672 622.422 205.266C622.422 205.87 622.208 206.385 621.781 206.812C621.365 207.229 620.854 207.438 620.25 207.438C619.635 207.438 619.12 207.229 618.703 206.812C618.286 206.396 618.078 205.875 618.078 205.25ZM618.078 193.5C618.078 192.927 618.292 192.427 618.719 192C619.146 191.573 619.656 191.359 620.25 191.359C620.844 191.359 621.354 191.573 621.781 192C622.208 192.427 622.422 192.938 622.422 193.531C622.422 194.135 622.208 194.651 621.781 195.078C621.365 195.495 620.854 195.703 620.25 195.703C619.646 195.703 619.13 195.49 618.703 195.062C618.286 194.646 618.078 194.125 618.078 193.5ZM643.344 195.797V192.688C644.885 192.688 645.922 192.516 646.453 192.172C647.401 191.568 647.875 190.599 647.875 189.266C647.875 188.234 647.531 187.396 646.844 186.75C646.167 186.094 645.286 185.766 644.203 185.766C643.193 185.766 642.411 186.01 641.859 186.5C641.328 187 640.932 187.844 640.672 189.031H637.047C637.422 186.76 638.193 185.099 639.359 184.047C640.526 182.984 642.156 182.453 644.25 182.453C646.365 182.453 648.089 183.078 649.422 184.328C650.755 185.568 651.422 187.167 651.422 189.125C651.422 191.333 650.547 193.052 648.797 194.281C650.797 195.458 651.797 197.37 651.797 200.016C651.797 202.182 651.068 203.953 649.609 205.328C648.151 206.703 646.281 207.391 644 207.391C641.094 207.391 638.938 206.323 637.531 204.188C636.948 203.292 636.578 202.052 636.422 200.469H639.938C640.125 201.635 640.578 202.531 641.297 203.156C642.026 203.771 642.974 204.078 644.141 204.078C645.318 204.078 646.292 203.688 647.062 202.906C647.833 202.104 648.219 201.089 648.219 199.859C648.219 198.234 647.641 197.078 646.484 196.391C645.807 195.995 644.76 195.797 643.344 195.797ZM662.828 203.578H671.812V207H655.609L663.984 196.859C664.807 195.849 665.495 194.974 666.047 194.234C666.609 193.495 667.036 192.875 667.328 192.375C667.922 191.396 668.219 190.516 668.219 189.734C668.219 188.609 667.823 187.667 667.031 186.906C666.24 186.146 665.26 185.766 664.094 185.766C661.656 185.766 660.26 187.208 659.906 190.094H656.281C656.865 185.01 659.432 182.469 663.984 182.469C666.182 182.469 668.026 183.167 669.516 184.562C671.016 185.958 671.766 187.688 671.766 189.75C671.766 191.062 671.417 192.349 670.719 193.609C670.365 194.266 669.844 195.047 669.156 195.953C668.479 196.849 667.62 197.911 666.578 199.141L662.828 203.578ZM680.297 215.281H676.781V191.781H680.297V193.438C681.682 192.052 683.255 191.359 685.016 191.359C687.109 191.359 688.833 192.13 690.188 193.672C691.562 195.203 692.25 197.135 692.25 199.469C692.25 201.75 691.568 203.651 690.203 205.172C688.849 206.682 687.141 207.438 685.078 207.438C683.297 207.438 681.703 206.724 680.297 205.297V215.281ZM688.656 199.484C688.656 198.026 688.26 196.839 687.469 195.922C686.667 194.995 685.656 194.531 684.438 194.531C683.146 194.531 682.099 194.979 681.297 195.875C680.495 196.771 680.094 197.948 680.094 199.406C680.094 200.833 680.495 202.01 681.297 202.938C682.089 203.844 683.13 204.297 684.422 204.297C685.641 204.297 686.646 203.839 687.438 202.922C688.25 202.005 688.656 200.859 688.656 199.484ZM699.875 195.062V207H696.359V195.062H694.859V191.781H696.359V186.203H699.875V191.781H702.609V195.062H699.875ZM580.219 223.609H583.734V236.047C584.984 234.922 586.365 234.359 587.875 234.359C589.594 234.359 590.969 234.917 592 236.031C592.875 237 593.312 238.547 593.312 240.672V250H589.797V241C589.797 239.781 589.578 238.901 589.141 238.359C588.714 237.807 588.021 237.531 587.062 237.531C585.833 237.531 584.969 237.911 584.469 238.672C583.979 239.443 583.734 240.766 583.734 242.641V250H580.219V223.609ZM603.578 246.578H612.562V250H596.359L604.734 239.859C605.557 238.849 606.245 237.974 606.797 237.234C607.359 236.495 607.786 235.875 608.078 235.375C608.672 234.396 608.969 233.516 608.969 232.734C608.969 231.609 608.573 230.667 607.781 229.906C606.99 229.146 606.01 228.766 604.844 228.766C602.406 228.766 601.01 230.208 600.656 233.094H597.031C597.615 228.01 600.182 225.469 604.734 225.469C606.932 225.469 608.776 226.167 610.266 227.562C611.766 228.958 612.516 230.688 612.516 232.75C612.516 234.062 612.167 235.349 611.469 236.609C611.115 237.266 610.594 238.047 609.906 238.953C609.229 239.849 608.37 240.911 607.328 242.141L603.578 246.578ZM619.703 245.484L622.828 246.703L618.375 255.625L616 254.641L619.703 245.484ZM640.797 223.609V236.547C642.203 235.089 643.797 234.359 645.578 234.359C647.63 234.359 649.339 235.125 650.703 236.656C652.068 238.177 652.75 240.073 652.75 242.344C652.75 244.688 652.062 246.625 650.688 248.156C649.323 249.677 647.599 250.438 645.516 250.438C643.755 250.438 642.182 249.76 640.797 248.406V250H637.281V223.609H640.797ZM649.156 242.5C649.156 241.042 648.76 239.854 647.969 238.938C647.167 238 646.161 237.531 644.953 237.531C643.661 237.531 642.609 237.984 641.797 238.891C640.995 239.786 640.594 240.953 640.594 242.391C640.594 243.87 640.99 245.052 641.781 245.938C642.573 246.844 643.615 247.297 644.906 247.297C646.125 247.297 647.135 246.844 647.938 245.938C648.75 245.021 649.156 243.875 649.156 242.5ZM659.984 234.781V243.516C659.984 246.036 660.979 247.297 662.969 247.297C664.958 247.297 665.953 246.036 665.953 243.516V234.781H669.469V243.594C669.469 244.812 669.318 245.865 669.016 246.75C668.724 247.542 668.219 248.255 667.5 248.891C666.312 249.922 664.802 250.438 662.969 250.438C661.146 250.438 659.641 249.922 658.453 248.891C657.724 248.255 657.208 247.542 656.906 246.75C656.615 246.042 656.469 244.99 656.469 243.594V234.781H659.984ZM677.531 238.062V250H674.016V238.062H672.516V234.781H674.016V229.203H677.531V234.781H680.266V238.062H677.531ZM686.281 238.062V250H682.766V238.062H681.266V234.781H682.766V229.203H686.281V234.781H689.016V238.062H686.281ZM690.906 242.281C690.906 240.083 691.693 238.214 693.266 236.672C694.839 235.13 696.755 234.359 699.016 234.359C701.286 234.359 703.214 235.135 704.797 236.688C706.359 238.24 707.141 240.146 707.141 242.406C707.141 244.688 706.354 246.599 704.781 248.141C703.198 249.672 701.255 250.438 698.953 250.438C696.672 250.438 694.76 249.656 693.219 248.094C691.677 246.552 690.906 244.615 690.906 242.281ZM694.5 242.344C694.5 243.865 694.906 245.068 695.719 245.953C696.552 246.849 697.651 247.297 699.016 247.297C700.391 247.297 701.49 246.854 702.312 245.969C703.135 245.083 703.547 243.901 703.547 242.422C703.547 240.943 703.135 239.76 702.312 238.875C701.479 237.979 700.38 237.531 699.016 237.531C697.672 237.531 696.583 237.979 695.75 238.875C694.917 239.771 694.5 240.927 694.5 242.344ZM710.875 234.781H714.406V236.188C715.635 234.969 717.021 234.359 718.562 234.359C720.333 234.359 721.714 234.917 722.703 236.031C723.557 236.979 723.984 238.526 723.984 240.672V250H720.453V241.5C720.453 240 720.245 238.964 719.828 238.391C719.422 237.807 718.682 237.516 717.609 237.516C716.443 237.516 715.615 237.901 715.125 238.672C714.646 239.432 714.406 240.76 714.406 242.656V250H710.875V234.781ZM728.984 248.25C728.984 247.667 729.198 247.161 729.625 246.734C730.052 246.307 730.562 246.094 731.156 246.094C731.75 246.094 732.26 246.307 732.688 246.734C733.115 247.161 733.328 247.672 733.328 248.266C733.328 248.87 733.115 249.385 732.688 249.812C732.271 250.229 731.76 250.438 731.156 250.438C730.542 250.438 730.026 250.229 729.609 249.812C729.193 249.396 728.984 248.875 728.984 248.25ZM728.984 236.5C728.984 235.927 729.198 235.427 729.625 235C730.052 234.573 730.562 234.359 731.156 234.359C731.75 234.359 732.26 234.573 732.688 235C733.115 235.427 733.328 235.938 733.328 236.531C733.328 237.135 733.115 237.651 732.688 238.078C732.271 238.495 731.76 238.703 731.156 238.703C730.552 238.703 730.036 238.49 729.609 238.062C729.193 237.646 728.984 237.125 728.984 236.5ZM753.984 246.578H762.969V250H746.766L755.141 239.859C755.964 238.849 756.651 237.974 757.203 237.234C757.766 236.495 758.193 235.875 758.484 235.375C759.078 234.396 759.375 233.516 759.375 232.734C759.375 231.609 758.979 230.667 758.188 229.906C757.396 229.146 756.417 228.766 755.25 228.766C752.812 228.766 751.417 230.208 751.062 233.094H747.438C748.021 228.01 750.589 225.469 755.141 225.469C757.339 225.469 759.182 226.167 760.672 227.562C762.172 228.958 762.922 230.688 762.922 232.75C762.922 234.062 762.573 235.349 761.875 236.609C761.521 237.266 761 238.047 760.312 238.953C759.635 239.849 758.776 240.911 757.734 242.141L753.984 246.578ZM781.281 243.266H783.844V246.578H781.281V250H777.641V246.578H765.797L781.281 224.078V243.266ZM777.641 243.266V235.188L772.078 243.266H777.641ZM790.984 258.281H787.469V234.781H790.984V236.438C792.37 235.052 793.943 234.359 795.703 234.359C797.797 234.359 799.521 235.13 800.875 236.672C802.25 238.203 802.938 240.135 802.938 242.469C802.938 244.75 802.255 246.651 800.891 248.172C799.536 249.682 797.828 250.438 795.766 250.438C793.984 250.438 792.391 249.724 790.984 248.297V258.281ZM799.344 242.484C799.344 241.026 798.948 239.839 798.156 238.922C797.354 237.995 796.344 237.531 795.125 237.531C793.833 237.531 792.786 237.979 791.984 238.875C791.182 239.771 790.781 240.948 790.781 242.406C790.781 243.833 791.182 245.01 791.984 245.938C792.776 246.844 793.818 247.297 795.109 247.297C796.328 247.297 797.333 246.839 798.125 245.922C798.938 245.005 799.344 243.859 799.344 242.484ZM810.562 238.062V250H807.047V238.062H805.547V234.781H807.047V229.203H810.562V234.781H813.297V238.062H810.562ZM583.734 301.281H580.219V277.781H583.734V279.438C585.12 278.052 586.693 277.359 588.453 277.359C590.547 277.359 592.271 278.13 593.625 279.672C595 281.203 595.688 283.135 595.688 285.469C595.688 287.75 595.005 289.651 593.641 291.172C592.286 292.682 590.578 293.438 588.516 293.438C586.734 293.438 585.141 292.724 583.734 291.297V301.281ZM592.094 285.484C592.094 284.026 591.698 282.839 590.906 281.922C590.104 280.995 589.094 280.531 587.875 280.531C586.583 280.531 585.536 280.979 584.734 281.875C583.932 282.771 583.531 283.948 583.531 285.406C583.531 286.833 583.932 288.01 584.734 288.938C585.526 289.844 586.568 290.297 587.859 290.297C589.078 290.297 590.083 289.839 590.875 288.922C591.688 288.005 592.094 286.859 592.094 285.484ZM599.953 291.25C599.953 290.667 600.167 290.161 600.594 289.734C601.021 289.307 601.531 289.094 602.125 289.094C602.719 289.094 603.229 289.307 603.656 289.734C604.083 290.161 604.297 290.672 604.297 291.266C604.297 291.87 604.083 292.385 603.656 292.812C603.24 293.229 602.729 293.438 602.125 293.438C601.51 293.438 600.995 293.229 600.578 292.812C600.161 292.396 599.953 291.875 599.953 291.25ZM599.953 279.5C599.953 278.927 600.167 278.427 600.594 278C601.021 277.573 601.531 277.359 602.125 277.359C602.719 277.359 603.229 277.573 603.656 278C604.083 278.427 604.297 278.938 604.297 279.531C604.297 280.135 604.083 280.651 603.656 281.078C603.24 281.495 602.729 281.703 602.125 281.703C601.521 281.703 601.005 281.49 600.578 281.062C600.161 280.646 599.953 280.125 599.953 279.5ZM625.609 272.281H621.438L623.438 268.875H629.25V293H625.609V272.281ZM646.438 268.031L649.109 270.031L643.344 277.875C643.656 277.833 643.922 277.802 644.141 277.781C644.359 277.76 644.531 277.75 644.656 277.75C646.615 277.75 648.307 278.5 649.734 280C651.151 281.479 651.859 283.26 651.859 285.344C651.859 287.552 651.068 289.448 649.484 291.031C647.911 292.604 646.021 293.391 643.812 293.391C641.625 293.391 639.708 292.615 638.062 291.062C636.448 289.51 635.641 287.672 635.641 285.547C635.641 283.641 636.427 281.62 638 279.484L646.438 268.031ZM648.312 285.578C648.312 284.297 647.87 283.214 646.984 282.328C646.089 281.432 645.01 280.984 643.75 280.984C642.479 280.984 641.401 281.427 640.516 282.312C639.63 283.198 639.188 284.271 639.188 285.531C639.188 286.792 639.63 287.865 640.516 288.75C641.401 289.635 642.484 290.078 643.766 290.078C645.016 290.078 646.083 289.635 646.969 288.75C647.865 287.854 648.312 286.797 648.312 285.578ZM659.359 301.281H655.844V277.781H659.359V279.438C660.745 278.052 662.318 277.359 664.078 277.359C666.172 277.359 667.896 278.13 669.25 279.672C670.625 281.203 671.312 283.135 671.312 285.469C671.312 287.75 670.63 289.651 669.266 291.172C667.911 292.682 666.203 293.438 664.141 293.438C662.359 293.438 660.766 292.724 659.359 291.297V301.281ZM667.719 285.484C667.719 284.026 667.323 282.839 666.531 281.922C665.729 280.995 664.719 280.531 663.5 280.531C662.208 280.531 661.161 280.979 660.359 281.875C659.557 282.771 659.156 283.948 659.156 285.406C659.156 286.833 659.557 288.01 660.359 288.938C661.151 289.844 662.193 290.297 663.484 290.297C664.703 290.297 665.708 289.839 666.5 288.922C667.312 288.005 667.719 286.859 667.719 285.484ZM678.938 281.062V293H675.422V281.062H673.922V277.781H675.422V272.203H678.938V277.781H681.672V281.062H678.938Z" fill="black"/>
<rect x="905" y="87" width="263" height="55" rx="27.5" fill="black"/>
<path d="M942.703 107.973H936.398V112.32H942.48V114.887H936.398V123.5H933.668V105.406H942.703V107.973ZM948.059 112.086V123.5H945.422V112.086H948.059ZM945.023 107.34C945.023 106.879 945.191 106.48 945.527 106.145C945.863 105.809 946.266 105.641 946.734 105.641C947.211 105.641 947.617 105.809 947.953 106.145C948.289 106.473 948.457 106.875 948.457 107.352C948.457 107.828 948.289 108.234 947.953 108.57C947.625 108.906 947.223 109.074 946.746 109.074C946.27 109.074 945.863 108.906 945.527 108.57C945.191 108.234 945.023 107.824 945.023 107.34ZM951.398 112.086H954.047V113.141C954.969 112.227 956.008 111.77 957.164 111.77C958.492 111.77 959.527 112.188 960.27 113.023C960.91 113.734 961.23 114.895 961.23 116.504V123.5H958.582V117.125C958.582 116 958.426 115.223 958.113 114.793C957.809 114.355 957.254 114.137 956.449 114.137C955.574 114.137 954.953 114.426 954.586 115.004C954.227 115.574 954.047 116.57 954.047 117.992V123.5H951.398V112.086ZM972.984 103.707H975.633V123.5H972.984V122.305C971.945 123.32 970.77 123.828 969.457 123.828C967.895 123.828 966.598 123.258 965.566 122.117C964.543 120.953 964.031 119.5 964.031 117.758C964.031 116.055 964.543 114.633 965.566 113.492C966.582 112.344 967.859 111.77 969.398 111.77C970.734 111.77 971.93 112.316 972.984 113.41V103.707ZM966.727 117.758C966.727 118.852 967.02 119.742 967.605 120.43C968.207 121.125 968.965 121.473 969.879 121.473C970.855 121.473 971.645 121.137 972.246 120.465C972.848 119.77 973.148 118.887 973.148 117.816C973.148 116.746 972.848 115.863 972.246 115.168C971.645 114.488 970.863 114.148 969.902 114.148C968.996 114.148 968.238 114.492 967.629 115.18C967.027 115.875 966.727 116.734 966.727 117.758ZM990.527 115.684L984.621 105.406H987.762L991.898 112.637L996.047 105.406H999.188L993.258 115.684V123.5H990.527V115.684ZM998.602 117.711C998.602 116.062 999.191 114.66 1000.37 113.504C1001.55 112.348 1002.99 111.77 1004.68 111.77C1006.39 111.77 1007.83 112.352 1009.02 113.516C1010.19 114.68 1010.78 116.109 1010.78 117.805C1010.78 119.516 1010.19 120.949 1009.01 122.105C1007.82 123.254 1006.36 123.828 1004.64 123.828C1002.93 123.828 1001.49 123.242 1000.34 122.07C999.18 120.914 998.602 119.461 998.602 117.711ZM1001.3 117.758C1001.3 118.898 1001.6 119.801 1002.21 120.465C1002.84 121.137 1003.66 121.473 1004.68 121.473C1005.71 121.473 1006.54 121.141 1007.16 120.477C1007.77 119.812 1008.08 118.926 1008.08 117.816C1008.08 116.707 1007.77 115.82 1007.16 115.156C1006.53 114.484 1005.71 114.148 1004.68 114.148C1003.68 114.148 1002.86 114.484 1002.23 115.156C1001.61 115.828 1001.3 116.695 1001.3 117.758ZM1016.21 112.086V118.637C1016.21 120.527 1016.96 121.473 1018.45 121.473C1019.95 121.473 1020.69 120.527 1020.69 118.637V112.086H1023.33V118.695C1023.33 119.609 1023.21 120.398 1022.99 121.062C1022.77 121.656 1022.39 122.191 1021.85 122.668C1020.96 123.441 1019.83 123.828 1018.45 123.828C1017.09 123.828 1015.96 123.441 1015.07 122.668C1014.52 122.191 1014.13 121.656 1013.91 121.062C1013.69 120.531 1013.58 119.742 1013.58 118.695V112.086H1016.21ZM1026.66 112.086H1029.29V113.105C1029.78 112.598 1030.21 112.25 1030.58 112.062C1030.96 111.867 1031.42 111.77 1031.94 111.77C1032.64 111.77 1033.36 111.996 1034.12 112.449L1032.91 114.863C1032.41 114.504 1031.93 114.324 1031.45 114.324C1030.01 114.324 1029.29 115.41 1029.29 117.582V123.5H1026.66V112.086ZM1053.77 108.102L1051.56 109.414C1051.14 108.695 1050.75 108.227 1050.38 108.008C1049.98 107.758 1049.48 107.633 1048.86 107.633C1048.11 107.633 1047.48 107.848 1046.98 108.277C1046.48 108.699 1046.23 109.23 1046.23 109.871C1046.23 110.754 1046.88 111.465 1048.2 112.004L1050 112.742C1051.47 113.336 1052.54 114.062 1053.22 114.922C1053.9 115.773 1054.24 116.82 1054.24 118.062C1054.24 119.727 1053.69 121.102 1052.58 122.188C1051.46 123.281 1050.07 123.828 1048.42 123.828C1046.85 123.828 1045.55 123.363 1044.53 122.434C1043.52 121.504 1042.89 120.195 1042.64 118.508L1045.41 117.898C1045.53 118.961 1045.75 119.695 1046.06 120.102C1046.62 120.883 1047.45 121.273 1048.52 121.273C1049.38 121.273 1050.08 120.988 1050.64 120.418C1051.21 119.848 1051.49 119.125 1051.49 118.25C1051.49 117.898 1051.44 117.578 1051.34 117.289C1051.24 116.992 1051.09 116.723 1050.88 116.48C1050.68 116.23 1050.41 116 1050.08 115.789C1049.75 115.57 1049.36 115.363 1048.91 115.168L1047.16 114.441C1044.69 113.395 1043.45 111.863 1043.45 109.848C1043.45 108.488 1043.97 107.352 1045.01 106.438C1046.05 105.516 1047.34 105.055 1048.89 105.055C1050.97 105.055 1052.6 106.07 1053.77 108.102ZM1067.43 118.414H1059.25C1059.32 119.352 1059.62 120.098 1060.16 120.652C1060.7 121.199 1061.39 121.473 1062.23 121.473C1062.89 121.473 1063.43 121.316 1063.86 121.004C1064.29 120.691 1064.77 120.113 1065.3 119.27L1067.53 120.512C1067.19 121.098 1066.82 121.602 1066.44 122.023C1066.06 122.438 1065.65 122.781 1065.21 123.055C1064.77 123.32 1064.3 123.516 1063.79 123.641C1063.29 123.766 1062.73 123.828 1062.14 123.828C1060.44 123.828 1059.07 123.281 1058.04 122.188C1057.01 121.086 1056.49 119.625 1056.49 117.805C1056.49 116 1056.99 114.539 1057.99 113.422C1059 112.32 1060.34 111.77 1062 111.77C1063.68 111.77 1065.01 112.305 1065.98 113.375C1066.95 114.438 1067.44 115.91 1067.44 117.793L1067.43 118.414ZM1064.72 116.258C1064.35 114.852 1063.46 114.148 1062.06 114.148C1061.74 114.148 1061.44 114.199 1061.16 114.301C1060.88 114.395 1060.62 114.535 1060.38 114.723C1060.16 114.902 1059.96 115.121 1059.8 115.379C1059.63 115.637 1059.51 115.93 1059.42 116.258H1064.72ZM1078.73 112.086H1081.38V123.5H1078.73V122.305C1077.65 123.32 1076.48 123.828 1075.23 123.828C1073.65 123.828 1072.35 123.258 1071.32 122.117C1070.29 120.953 1069.78 119.5 1069.78 117.758C1069.78 116.047 1070.29 114.621 1071.32 113.48C1072.34 112.34 1073.62 111.77 1075.16 111.77C1076.49 111.77 1077.68 112.316 1078.73 113.41V112.086ZM1072.48 117.758C1072.48 118.852 1072.77 119.742 1073.36 120.43C1073.96 121.125 1074.71 121.473 1075.63 121.473C1076.61 121.473 1077.39 121.137 1078 120.465C1078.6 119.77 1078.9 118.887 1078.9 117.816C1078.9 116.746 1078.6 115.863 1078 115.168C1077.39 114.488 1076.61 114.148 1075.65 114.148C1074.75 114.148 1073.99 114.492 1073.38 115.18C1072.78 115.875 1072.48 116.734 1072.48 117.758ZM1087.43 114.547V123.5H1084.79V114.547H1083.67V112.086H1084.79V107.902H1087.43V112.086H1089.48V114.547H1087.43ZM1091.96 122.188C1091.96 121.75 1092.12 121.371 1092.45 121.051C1092.77 120.73 1093.15 120.57 1093.59 120.57C1094.04 120.57 1094.42 120.73 1094.74 121.051C1095.06 121.371 1095.22 121.754 1095.22 122.199C1095.22 122.652 1095.06 123.039 1094.74 123.359C1094.43 123.672 1094.05 123.828 1093.59 123.828C1093.13 123.828 1092.75 123.672 1092.43 123.359C1092.12 123.047 1091.96 122.656 1091.96 122.188ZM1092.27 119.469V105.406H1094.92V119.469H1092.27Z" fill="white"/>
<mask id="mask0_220_2904" style="mask-type:alpha" maskUnits="userSpaceOnUse" x="1117" y="102" width="25" height="25">
<rect x="1117.5" y="102.5" width="24" height="24" fill="white"/>
</mask>
<g mask="url(#mask0_220_2904)">
<path d="M1131.5 120.5L1130.1 119.05L1133.65 115.5H1121.5V113.5H1133.65L1130.1 109.95L1131.5 108.5L1137.5 114.5L1131.5 120.5Z" fill="white"/>
</g>
<rect x="905" y="158" width="263" height="55" rx="27.5" fill="#E2E2E2"/>
<path d="M942.703 178.973H936.398V183.32H942.48V185.887H936.398V194.5H933.668V176.406H942.703V178.973ZM948.059 183.086V194.5H945.422V183.086H948.059ZM945.023 178.34C945.023 177.879 945.191 177.48 945.527 177.145C945.863 176.809 946.266 176.641 946.734 176.641C947.211 176.641 947.617 176.809 947.953 177.145C948.289 177.473 948.457 177.875 948.457 178.352C948.457 178.828 948.289 179.234 947.953 179.57C947.625 179.906 947.223 180.074 946.746 180.074C946.27 180.074 945.863 179.906 945.527 179.57C945.191 179.234 945.023 178.824 945.023 178.34ZM951.398 183.086H954.047V184.141C954.969 183.227 956.008 182.77 957.164 182.77C958.492 182.77 959.527 183.188 960.27 184.023C960.91 184.734 961.23 185.895 961.23 187.504V194.5H958.582V188.125C958.582 187 958.426 186.223 958.113 185.793C957.809 185.355 957.254 185.137 956.449 185.137C955.574 185.137 954.953 185.426 954.586 186.004C954.227 186.574 954.047 187.57 954.047 188.992V194.5H951.398V183.086ZM972.984 174.707H975.633V194.5H972.984V193.305C971.945 194.32 970.77 194.828 969.457 194.828C967.895 194.828 966.598 194.258 965.566 193.117C964.543 191.953 964.031 190.5 964.031 188.758C964.031 187.055 964.543 185.633 965.566 184.492C966.582 183.344 967.859 182.77 969.398 182.77C970.734 182.77 971.93 183.316 972.984 184.41V174.707ZM966.727 188.758C966.727 189.852 967.02 190.742 967.605 191.43C968.207 192.125 968.965 192.473 969.879 192.473C970.855 192.473 971.645 192.137 972.246 191.465C972.848 190.77 973.148 189.887 973.148 188.816C973.148 187.746 972.848 186.863 972.246 186.168C971.645 185.488 970.863 185.148 969.902 185.148C968.996 185.148 968.238 185.492 967.629 186.18C967.027 186.875 966.727 187.734 966.727 188.758ZM990.527 186.684L984.621 176.406H987.762L991.898 183.637L996.047 176.406H999.188L993.258 186.684V194.5H990.527V186.684ZM998.602 188.711C998.602 187.062 999.191 185.66 1000.37 184.504C1001.55 183.348 1002.99 182.77 1004.68 182.77C1006.39 182.77 1007.83 183.352 1009.02 184.516C1010.19 185.68 1010.78 187.109 1010.78 188.805C1010.78 190.516 1010.19 191.949 1009.01 193.105C1007.82 194.254 1006.36 194.828 1004.64 194.828C1002.93 194.828 1001.49 194.242 1000.34 193.07C999.18 191.914 998.602 190.461 998.602 188.711ZM1001.3 188.758C1001.3 189.898 1001.6 190.801 1002.21 191.465C1002.84 192.137 1003.66 192.473 1004.68 192.473C1005.71 192.473 1006.54 192.141 1007.16 191.477C1007.77 190.812 1008.08 189.926 1008.08 188.816C1008.08 187.707 1007.77 186.82 1007.16 186.156C1006.53 185.484 1005.71 185.148 1004.68 185.148C1003.68 185.148 1002.86 185.484 1002.23 186.156C1001.61 186.828 1001.3 187.695 1001.3 188.758ZM1016.21 183.086V189.637C1016.21 191.527 1016.96 192.473 1018.45 192.473C1019.95 192.473 1020.69 191.527 1020.69 189.637V183.086H1023.33V189.695C1023.33 190.609 1023.21 191.398 1022.99 192.062C1022.77 192.656 1022.39 193.191 1021.85 193.668C1020.96 194.441 1019.83 194.828 1018.45 194.828C1017.09 194.828 1015.96 194.441 1015.07 193.668C1014.52 193.191 1014.13 192.656 1013.91 192.062C1013.69 191.531 1013.58 190.742 1013.58 189.695V183.086H1016.21ZM1026.66 183.086H1029.29V184.105C1029.78 183.598 1030.21 183.25 1030.58 183.062C1030.96 182.867 1031.42 182.77 1031.94 182.77C1032.64 182.77 1033.36 182.996 1034.12 183.449L1032.91 185.863C1032.41 185.504 1031.93 185.324 1031.45 185.324C1030.01 185.324 1029.29 186.41 1029.29 188.582V194.5H1026.66V183.086ZM1053.77 179.102L1051.56 180.414C1051.14 179.695 1050.75 179.227 1050.38 179.008C1049.98 178.758 1049.48 178.633 1048.86 178.633C1048.11 178.633 1047.48 178.848 1046.98 179.277C1046.48 179.699 1046.23 180.23 1046.23 180.871C1046.23 181.754 1046.88 182.465 1048.2 183.004L1050 183.742C1051.47 184.336 1052.54 185.062 1053.22 185.922C1053.9 186.773 1054.24 187.82 1054.24 189.062C1054.24 190.727 1053.69 192.102 1052.58 193.188C1051.46 194.281 1050.07 194.828 1048.42 194.828C1046.85 194.828 1045.55 194.363 1044.53 193.434C1043.52 192.504 1042.89 191.195 1042.64 189.508L1045.41 188.898C1045.53 189.961 1045.75 190.695 1046.06 191.102C1046.62 191.883 1047.45 192.273 1048.52 192.273C1049.38 192.273 1050.08 191.988 1050.64 191.418C1051.21 190.848 1051.49 190.125 1051.49 189.25C1051.49 188.898 1051.44 188.578 1051.34 188.289C1051.24 187.992 1051.09 187.723 1050.88 187.48C1050.68 187.23 1050.41 187 1050.08 186.789C1049.75 186.57 1049.36 186.363 1048.91 186.168L1047.16 185.441C1044.69 184.395 1043.45 182.863 1043.45 180.848C1043.45 179.488 1043.97 178.352 1045.01 177.438C1046.05 176.516 1047.34 176.055 1048.89 176.055C1050.97 176.055 1052.6 177.07 1053.77 179.102ZM1067.43 189.414H1059.25C1059.32 190.352 1059.62 191.098 1060.16 191.652C1060.7 192.199 1061.39 192.473 1062.23 192.473C1062.89 192.473 1063.43 192.316 1063.86 192.004C1064.29 191.691 1064.77 191.113 1065.3 190.27L1067.53 191.512C1067.19 192.098 1066.82 192.602 1066.44 193.023C1066.06 193.438 1065.65 193.781 1065.21 194.055C1064.77 194.32 1064.3 194.516 1063.79 194.641C1063.29 194.766 1062.73 194.828 1062.14 194.828C1060.44 194.828 1059.07 194.281 1058.04 193.188C1057.01 192.086 1056.49 190.625 1056.49 188.805C1056.49 187 1056.99 185.539 1057.99 184.422C1059 183.32 1060.34 182.77 1062 182.77C1063.68 182.77 1065.01 183.305 1065.98 184.375C1066.95 185.438 1067.44 186.91 1067.44 188.793L1067.43 189.414ZM1064.72 187.258C1064.35 185.852 1063.46 185.148 1062.06 185.148C1061.74 185.148 1061.44 185.199 1061.16 185.301C1060.88 185.395 1060.62 185.535 1060.38 185.723C1060.16 185.902 1059.96 186.121 1059.8 186.379C1059.63 186.637 1059.51 186.93 1059.42 187.258H1064.72ZM1078.73 183.086H1081.38V194.5H1078.73V193.305C1077.65 194.32 1076.48 194.828 1075.23 194.828C1073.65 194.828 1072.35 194.258 1071.32 193.117C1070.29 191.953 1069.78 190.5 1069.78 188.758C1069.78 187.047 1070.29 185.621 1071.32 184.48C1072.34 183.34 1073.62 182.77 1075.16 182.77C1076.49 182.77 1077.68 183.316 1078.73 184.41V183.086ZM1072.48 188.758C1072.48 189.852 1072.77 190.742 1073.36 191.43C1073.96 192.125 1074.71 192.473 1075.63 192.473C1076.61 192.473 1077.39 192.137 1078 191.465C1078.6 190.77 1078.9 189.887 1078.9 188.816C1078.9 187.746 1078.6 186.863 1078 186.168C1077.39 185.488 1076.61 185.148 1075.65 185.148C1074.75 185.148 1073.99 185.492 1073.38 186.18C1072.78 186.875 1072.48 187.734 1072.48 188.758ZM1087.43 185.547V194.5H1084.79V185.547H1083.67V183.086H1084.79V178.902H1087.43V183.086H1089.48V185.547H1087.43ZM1091.96 193.188C1091.96 192.75 1092.12 192.371 1092.45 192.051C1092.77 191.73 1093.15 191.57 1093.59 191.57C1094.04 191.57 1094.42 191.73 1094.74 192.051C1095.06 192.371 1095.22 192.754 1095.22 193.199C1095.22 193.652 1095.06 194.039 1094.74 194.359C1094.43 194.672 1094.05 194.828 1093.59 194.828C1093.13 194.828 1092.75 194.672 1092.43 194.359C1092.12 194.047 1091.96 193.656 1091.96 193.188ZM1092.27 190.469V176.406H1094.92V190.469H1092.27Z" fill="black"/>
<mask id="mask1_220_2904" style="mask-type:alpha" maskUnits="userSpaceOnUse" x="1117" y="173" width="25" height="25">
<rect x="1117.5" y="173.5" width="24" height="24" fill="white"/>
</mask>
<g mask="url(#mask1_220_2904)">
<path d="M1131.5 191.5L1130.1 190.05L1133.65 186.5H1121.5V184.5H1133.65L1130.1 180.95L1131.5 179.5L1137.5 185.5L1131.5 191.5Z" fill="black"/>
</g>
<rect x="905" y="250" width="95" height="36" rx="18" fill="#B0D4B0"/>
<path d="M950.117 272.07H944.953L943.609 275H941.648L947.617 262.18L953.375 275H951.383L950.117 272.07ZM949.375 270.359L947.586 266.258L945.711 270.359H949.375ZM956.312 261.805V275H954.555V261.805H956.312ZM960.297 261.805V275H958.539V261.805H960.297Z" fill="black"/>
<rect x="905" y="302" width="95" height="36" rx="18" fill="#B0D4B0" fill-opacity="0.6"/>
<path d="M950.117 324.07H944.953L943.609 327H941.648L947.617 314.18L953.375 327H951.383L950.117 324.07ZM949.375 322.359L947.586 318.258L945.711 322.359H949.375ZM956.312 313.805V327H954.555V313.805H956.312ZM960.297 313.805V327H958.539V313.805H960.297Z" fill="black"/>
<rect x="905.5" y="375.5" width="212" height="21" rx="10.5" stroke="#B99FCE"/>
<rect x="905" y="375" width="118" height="22" rx="11" fill="#B99FCE"/>
<mask id="mask2_220_2904" style="mask-type:alpha" maskUnits="userSpaceOnUse" x="1047" y="256" width="30" height="30">
<rect x="1047" y="256" width="30" height="30" fill="#D9D9D9"/>
</mask>
<g mask="url(#mask2_220_2904)">
<path d="M1062 282.25L1060.19 280.625C1058.08 278.729 1056.34 277.094 1054.97 275.719C1053.59 274.344 1052.5 273.109 1051.69 272.016C1050.87 270.922 1050.31 269.917 1049.98 269C1049.66 268.083 1049.5 267.146 1049.5 266.188C1049.5 264.229 1050.16 262.594 1051.47 261.281C1052.78 259.969 1054.42 259.312 1056.38 259.312C1057.46 259.312 1058.49 259.542 1059.47 260C1060.45 260.458 1061.29 261.104 1062 261.938C1062.71 261.104 1063.55 260.458 1064.53 260C1065.51 259.542 1066.54 259.312 1067.62 259.312C1069.58 259.312 1071.22 259.969 1072.53 261.281C1073.84 262.594 1074.5 264.229 1074.5 266.188C1074.5 267.146 1074.34 268.083 1074.02 269C1073.69 269.917 1073.13 270.922 1072.31 272.016C1071.5 273.109 1070.41 274.344 1069.03 275.719C1067.66 277.094 1065.92 278.729 1063.81 280.625L1062 282.25ZM1062 278.875C1064 277.083 1065.65 275.547 1066.94 274.266C1068.23 272.984 1069.25 271.87 1070 270.922C1070.75 269.974 1071.27 269.13 1071.56 268.391C1071.85 267.651 1072 266.917 1072 266.188C1072 264.938 1071.58 263.896 1070.75 263.062C1069.92 262.229 1068.88 261.812 1067.62 261.812C1066.65 261.812 1065.74 262.089 1064.91 262.641C1064.07 263.193 1063.5 263.896 1063.19 264.75H1060.81C1060.5 263.896 1059.93 263.193 1059.09 262.641C1058.26 262.089 1057.35 261.812 1056.38 261.812C1055.12 261.812 1054.08 262.229 1053.25 263.062C1052.42 263.896 1052 264.938 1052 266.188C1052 266.917 1052.15 267.651 1052.44 268.391C1052.73 269.13 1053.25 269.974 1054 270.922C1054.75 271.87 1055.77 272.984 1057.06 274.266C1058.35 275.547 1060 277.083 1062 278.875Z" fill="black"/>
</g>
<mask id="mask3_220_2904" style="mask-type:alpha" maskUnits="userSpaceOnUse" x="1047" y="302" width="30" height="30">
<rect x="1047" y="302" width="30" height="30" fill="#D9D9D9"/>
</mask>
<g mask="url(#mask3_220_2904)">
<path d="M1059.69 326.313L1061.5 327.938L1063.31 326.313C1065.42 324.417 1067.16 322.781 1068.53 321.406C1069.91 320.031 1071 318.797 1071.81 317.703C1072.62 316.609 1073.19 315.604 1073.52 314.688C1073.84 313.771 1074 312.833 1074 311.875C1074 309.917 1073.34 308.281 1072.03 306.969C1070.72 305.656 1069.08 305 1067.12 305C1066.04 305 1065.01 305.229 1064.03 305.688C1063.05 306.146 1062.21 306.792 1061.5 307.625C1060.79 306.792 1059.95 306.146 1058.97 305.688C1057.99 305.229 1056.96 305 1055.88 305C1053.92 305 1052.28 305.656 1050.97 306.969C1049.66 308.281 1049 309.917 1049 311.875C1049 312.833 1049.16 313.771 1049.48 314.688C1049.81 315.604 1050.38 316.609 1051.19 317.703C1052 318.797 1053.09 320.031 1054.47 321.406C1055.84 322.781 1057.58 324.417 1059.69 326.313Z" fill="black"/>
</g>
</svg>
