<svg width="1200" height="290" viewBox="0 0 1200 290" fill="none" xmlns="http://www.w3.org/2000/svg">
<rect width="1200" height="290" rx="30" fill="#F3F3F3"/>
<rect x="127" y="29" width="280" height="64" rx="20" fill="#9DB580"/>
<path d="M241.138 68V54H243.698V66H249.898V68H241.138ZM256.404 68.24C255.444 68.24 254.578 68.02 253.804 67.58C253.044 67.14 252.438 66.5333 251.984 65.76C251.544 64.9733 251.324 64.0667 251.324 63.04C251.324 62.0133 251.551 61.1133 252.004 60.34C252.458 59.5533 253.064 58.94 253.824 58.5C254.598 58.06 255.464 57.84 256.424 57.84C257.371 57.84 258.224 58.06 258.984 58.5C259.758 58.94 260.364 59.5533 260.804 60.34C261.258 61.1133 261.484 62.0133 261.484 63.04C261.484 64.0667 261.258 64.9733 260.804 65.76C260.364 66.5333 259.758 67.14 258.984 67.58C258.211 68.02 257.351 68.24 256.404 68.24ZM256.404 66.02C257.071 66.02 257.651 65.7733 258.144 65.28C258.638 64.7733 258.884 64.0267 258.884 63.04C258.884 62.0533 258.638 61.3133 258.144 60.82C257.651 60.3133 257.078 60.06 256.424 60.06C255.744 60.06 255.158 60.3133 254.664 60.82C254.184 61.3133 253.944 62.0533 253.944 63.04C253.944 64.0267 254.184 64.7733 254.664 65.28C255.158 65.7733 255.738 66.02 256.404 66.02ZM267.348 65.04C266.868 65.04 266.422 64.9867 266.008 64.88L265.268 65.62C265.495 65.74 265.802 65.84 266.188 65.92C266.575 66 267.202 66.08 268.068 66.16C269.388 66.28 270.348 66.5933 270.948 67.1C271.548 67.6067 271.848 68.3067 271.848 69.2C271.848 69.7867 271.688 70.34 271.368 70.86C271.048 71.3933 270.555 71.82 269.888 72.14C269.222 72.4733 268.368 72.64 267.328 72.64C265.915 72.64 264.775 72.3733 263.908 71.84C263.042 71.32 262.608 70.5333 262.608 69.48C262.608 68.5867 263.042 67.8133 263.908 67.16C263.642 67.04 263.408 66.9133 263.208 66.78C263.022 66.6467 262.855 66.5067 262.708 66.36V65.9L264.448 64.06C263.675 63.38 263.288 62.5067 263.288 61.44C263.288 60.7733 263.448 60.1667 263.768 59.62C264.102 59.0733 264.568 58.64 265.168 58.32C265.768 58 266.495 57.84 267.348 57.84C267.908 57.84 268.428 57.92 268.908 58.08H272.668V59.64L270.968 59.76C271.235 60.2667 271.368 60.8267 271.368 61.44C271.368 62.1067 271.208 62.7133 270.888 63.26C270.568 63.8067 270.102 64.24 269.488 64.56C268.888 64.88 268.175 65.04 267.348 65.04ZM267.348 63.08C267.868 63.08 268.295 62.94 268.628 62.66C268.975 62.38 269.148 61.98 269.148 61.46C269.148 60.94 268.975 60.54 268.628 60.26C268.295 59.98 267.868 59.84 267.348 59.84C266.802 59.84 266.362 59.98 266.028 60.26C265.695 60.54 265.528 60.94 265.528 61.46C265.528 61.98 265.695 62.38 266.028 62.66C266.362 62.94 266.802 63.08 267.348 63.08ZM264.948 69.22C264.948 69.7133 265.175 70.08 265.628 70.32C266.095 70.5733 266.662 70.7 267.328 70.7C267.968 70.7 268.488 70.5667 268.888 70.3C269.288 70.0467 269.488 69.7 269.488 69.26C269.488 68.9 269.355 68.6 269.088 68.36C268.835 68.12 268.322 67.9733 267.548 67.92C267.002 67.88 266.495 67.82 266.028 67.74C265.642 67.9533 265.362 68.1867 265.188 68.44C265.028 68.6933 264.948 68.9533 264.948 69.22ZM280.681 56.54C280.214 56.54 279.827 56.4 279.521 56.12C279.227 55.84 279.081 55.4867 279.081 55.06C279.081 54.6333 279.227 54.2867 279.521 54.02C279.827 53.74 280.214 53.6 280.681 53.6C281.147 53.6 281.527 53.74 281.821 54.02C282.127 54.2867 282.281 54.6333 282.281 55.06C282.281 55.4867 282.127 55.84 281.821 56.12C281.527 56.4 281.147 56.54 280.681 56.54ZM279.401 68V58.08H281.961V68H279.401ZM284.633 68V58.08H286.893L287.093 59.76C287.399 59.1733 287.839 58.7067 288.413 58.36C288.999 58.0133 289.686 57.84 290.473 57.84C291.699 57.84 292.653 58.2267 293.333 59C294.013 59.7733 294.353 60.9067 294.353 62.4V68H291.793V62.64C291.793 61.7867 291.619 61.1333 291.273 60.68C290.926 60.2267 290.386 60 289.653 60C288.933 60 288.339 60.2533 287.873 60.76C287.419 61.2667 287.193 61.9733 287.193 62.88V68H284.633Z" fill="black"/>
<rect x="127" y="113" width="280" height="64" rx="20" fill="#627952"/>
<path d="M241.138 152V138H243.698V150H249.898V152H241.138ZM256.404 152.24C255.444 152.24 254.578 152.02 253.804 151.58C253.044 151.14 252.438 150.533 251.984 149.76C251.544 148.973 251.324 148.067 251.324 147.04C251.324 146.013 251.551 145.113 252.004 144.34C252.458 143.553 253.064 142.94 253.824 142.5C254.598 142.06 255.464 141.84 256.424 141.84C257.371 141.84 258.224 142.06 258.984 142.5C259.758 142.94 260.364 143.553 260.804 144.34C261.258 145.113 261.484 146.013 261.484 147.04C261.484 148.067 261.258 148.973 260.804 149.76C260.364 150.533 259.758 151.14 258.984 151.58C258.211 152.02 257.351 152.24 256.404 152.24ZM256.404 150.02C257.071 150.02 257.651 149.773 258.144 149.28C258.638 148.773 258.884 148.027 258.884 147.04C258.884 146.053 258.638 145.313 258.144 144.82C257.651 144.313 257.078 144.06 256.424 144.06C255.744 144.06 255.158 144.313 254.664 144.82C254.184 145.313 253.944 146.053 253.944 147.04C253.944 148.027 254.184 148.773 254.664 149.28C255.158 149.773 255.738 150.02 256.404 150.02ZM267.348 149.04C266.868 149.04 266.422 148.987 266.008 148.88L265.268 149.62C265.495 149.74 265.802 149.84 266.188 149.92C266.575 150 267.202 150.08 268.068 150.16C269.388 150.28 270.348 150.593 270.948 151.1C271.548 151.607 271.848 152.307 271.848 153.2C271.848 153.787 271.688 154.34 271.368 154.86C271.048 155.393 270.555 155.82 269.888 156.14C269.222 156.473 268.368 156.64 267.328 156.64C265.915 156.64 264.775 156.373 263.908 155.84C263.042 155.32 262.608 154.533 262.608 153.48C262.608 152.587 263.042 151.813 263.908 151.16C263.642 151.04 263.408 150.913 263.208 150.78C263.022 150.647 262.855 150.507 262.708 150.36V149.9L264.448 148.06C263.675 147.38 263.288 146.507 263.288 145.44C263.288 144.773 263.448 144.167 263.768 143.62C264.102 143.073 264.568 142.64 265.168 142.32C265.768 142 266.495 141.84 267.348 141.84C267.908 141.84 268.428 141.92 268.908 142.08H272.668V143.64L270.968 143.76C271.235 144.267 271.368 144.827 271.368 145.44C271.368 146.107 271.208 146.713 270.888 147.26C270.568 147.807 270.102 148.24 269.488 148.56C268.888 148.88 268.175 149.04 267.348 149.04ZM267.348 147.08C267.868 147.08 268.295 146.94 268.628 146.66C268.975 146.38 269.148 145.98 269.148 145.46C269.148 144.94 268.975 144.54 268.628 144.26C268.295 143.98 267.868 143.84 267.348 143.84C266.802 143.84 266.362 143.98 266.028 144.26C265.695 144.54 265.528 144.94 265.528 145.46C265.528 145.98 265.695 146.38 266.028 146.66C266.362 146.94 266.802 147.08 267.348 147.08ZM264.948 153.22C264.948 153.713 265.175 154.08 265.628 154.32C266.095 154.573 266.662 154.7 267.328 154.7C267.968 154.7 268.488 154.567 268.888 154.3C269.288 154.047 269.488 153.7 269.488 153.26C269.488 152.9 269.355 152.6 269.088 152.36C268.835 152.12 268.322 151.973 267.548 151.92C267.002 151.88 266.495 151.82 266.028 151.74C265.642 151.953 265.362 152.187 265.188 152.44C265.028 152.693 264.948 152.953 264.948 153.22ZM280.681 140.54C280.214 140.54 279.827 140.4 279.521 140.12C279.227 139.84 279.081 139.487 279.081 139.06C279.081 138.633 279.227 138.287 279.521 138.02C279.827 137.74 280.214 137.6 280.681 137.6C281.147 137.6 281.527 137.74 281.821 138.02C282.127 138.287 282.281 138.633 282.281 139.06C282.281 139.487 282.127 139.84 281.821 140.12C281.527 140.4 281.147 140.54 280.681 140.54ZM279.401 152V142.08H281.961V152H279.401ZM284.633 152V142.08H286.893L287.093 143.76C287.399 143.173 287.839 142.707 288.413 142.36C288.999 142.013 289.686 141.84 290.473 141.84C291.699 141.84 292.653 142.227 293.333 143C294.013 143.773 294.353 144.907 294.353 146.4V152H291.793V146.64C291.793 145.787 291.619 145.133 291.273 144.68C290.926 144.227 290.386 144 289.653 144C288.933 144 288.339 144.253 287.873 144.76C287.419 145.267 287.193 145.973 287.193 146.88V152H284.633Z" fill="white"/>
<rect x="127" y="197" width="280" height="64" rx="20" fill="#465939"/>
<path d="M241.138 236V222H243.698V234H249.898V236H241.138ZM256.404 236.24C255.444 236.24 254.578 236.02 253.804 235.58C253.044 235.14 252.438 234.533 251.984 233.76C251.544 232.973 251.324 232.067 251.324 231.04C251.324 230.013 251.551 229.113 252.004 228.34C252.458 227.553 253.064 226.94 253.824 226.5C254.598 226.06 255.464 225.84 256.424 225.84C257.371 225.84 258.224 226.06 258.984 226.5C259.758 226.94 260.364 227.553 260.804 228.34C261.258 229.113 261.484 230.013 261.484 231.04C261.484 232.067 261.258 232.973 260.804 233.76C260.364 234.533 259.758 235.14 258.984 235.58C258.211 236.02 257.351 236.24 256.404 236.24ZM256.404 234.02C257.071 234.02 257.651 233.773 258.144 233.28C258.638 232.773 258.884 232.027 258.884 231.04C258.884 230.053 258.638 229.313 258.144 228.82C257.651 228.313 257.078 228.06 256.424 228.06C255.744 228.06 255.158 228.313 254.664 228.82C254.184 229.313 253.944 230.053 253.944 231.04C253.944 232.027 254.184 232.773 254.664 233.28C255.158 233.773 255.738 234.02 256.404 234.02ZM267.348 233.04C266.868 233.04 266.422 232.987 266.008 232.88L265.268 233.62C265.495 233.74 265.802 233.84 266.188 233.92C266.575 234 267.202 234.08 268.068 234.16C269.388 234.28 270.348 234.593 270.948 235.1C271.548 235.607 271.848 236.307 271.848 237.2C271.848 237.787 271.688 238.34 271.368 238.86C271.048 239.393 270.555 239.82 269.888 240.14C269.222 240.473 268.368 240.64 267.328 240.64C265.915 240.64 264.775 240.373 263.908 239.84C263.042 239.32 262.608 238.533 262.608 237.48C262.608 236.587 263.042 235.813 263.908 235.16C263.642 235.04 263.408 234.913 263.208 234.78C263.022 234.647 262.855 234.507 262.708 234.36V233.9L264.448 232.06C263.675 231.38 263.288 230.507 263.288 229.44C263.288 228.773 263.448 228.167 263.768 227.62C264.102 227.073 264.568 226.64 265.168 226.32C265.768 226 266.495 225.84 267.348 225.84C267.908 225.84 268.428 225.92 268.908 226.08H272.668V227.64L270.968 227.76C271.235 228.267 271.368 228.827 271.368 229.44C271.368 230.107 271.208 230.713 270.888 231.26C270.568 231.807 270.102 232.24 269.488 232.56C268.888 232.88 268.175 233.04 267.348 233.04ZM267.348 231.08C267.868 231.08 268.295 230.94 268.628 230.66C268.975 230.38 269.148 229.98 269.148 229.46C269.148 228.94 268.975 228.54 268.628 228.26C268.295 227.98 267.868 227.84 267.348 227.84C266.802 227.84 266.362 227.98 266.028 228.26C265.695 228.54 265.528 228.94 265.528 229.46C265.528 229.98 265.695 230.38 266.028 230.66C266.362 230.94 266.802 231.08 267.348 231.08ZM264.948 237.22C264.948 237.713 265.175 238.08 265.628 238.32C266.095 238.573 266.662 238.7 267.328 238.7C267.968 238.7 268.488 238.567 268.888 238.3C269.288 238.047 269.488 237.7 269.488 237.26C269.488 236.9 269.355 236.6 269.088 236.36C268.835 236.12 268.322 235.973 267.548 235.92C267.002 235.88 266.495 235.82 266.028 235.74C265.642 235.953 265.362 236.187 265.188 236.44C265.028 236.693 264.948 236.953 264.948 237.22ZM280.681 224.54C280.214 224.54 279.827 224.4 279.521 224.12C279.227 223.84 279.081 223.487 279.081 223.06C279.081 222.633 279.227 222.287 279.521 222.02C279.827 221.74 280.214 221.6 280.681 221.6C281.147 221.6 281.527 221.74 281.821 222.02C282.127 222.287 282.281 222.633 282.281 223.06C282.281 223.487 282.127 223.84 281.821 224.12C281.527 224.4 281.147 224.54 280.681 224.54ZM279.401 236V226.08H281.961V236H279.401ZM284.633 236V226.08H286.893L287.093 227.76C287.399 227.173 287.839 226.707 288.413 226.36C288.999 226.013 289.686 225.84 290.473 225.84C291.699 225.84 292.653 226.227 293.333 227C294.013 227.773 294.353 228.907 294.353 230.4V236H291.793V230.64C291.793 229.787 291.619 229.133 291.273 228.68C290.926 228.227 290.386 228 289.653 228C288.933 228 288.339 228.253 287.873 228.76C287.419 229.267 287.193 229.973 287.193 230.88V236H284.633Z" fill="white"/>
<rect x="477" y="29" width="280" height="64" rx="20" fill="#EEE1CC"/>
<path d="M587.74 68.24C586.713 68.24 585.806 68.0667 585.02 67.72C584.233 67.36 583.613 66.8533 583.16 66.2C582.706 65.5333 582.473 64.7267 582.46 63.78H585.16C585.186 64.4333 585.42 64.9867 585.86 65.44C586.313 65.88 586.933 66.1 587.72 66.1C588.4 66.1 588.94 65.94 589.34 65.62C589.74 65.2867 589.94 64.8467 589.94 64.3C589.94 63.7267 589.76 63.28 589.4 62.96C589.053 62.64 588.586 62.38 588 62.18C587.413 61.98 586.786 61.7667 586.12 61.54C585.04 61.1667 584.213 60.6867 583.64 60.1C583.08 59.5133 582.8 58.7333 582.8 57.76C582.786 56.9333 582.98 56.2267 583.38 55.64C583.793 55.04 584.353 54.58 585.06 54.26C585.766 53.9267 586.58 53.76 587.5 53.76C588.433 53.76 589.253 53.9267 589.96 54.26C590.68 54.5933 591.24 55.06 591.64 55.66C592.053 56.26 592.273 56.9733 592.3 57.8H589.56C589.546 57.3067 589.353 56.8733 588.98 56.5C588.62 56.1133 588.113 55.92 587.46 55.92C586.9 55.9067 586.426 56.0467 586.04 56.34C585.666 56.62 585.48 57.0333 585.48 57.58C585.48 58.0467 585.626 58.42 585.92 58.7C586.213 58.9667 586.613 59.1933 587.12 59.38C587.626 59.5667 588.206 59.7667 588.86 59.98C589.553 60.22 590.186 60.5 590.76 60.82C591.333 61.14 591.793 61.5667 592.14 62.1C592.486 62.62 592.66 63.2933 592.66 64.12C592.66 64.8533 592.473 65.5333 592.1 66.16C591.726 66.7867 591.173 67.2933 590.44 67.68C589.706 68.0533 588.806 68.24 587.74 68.24ZM596.213 56.54C595.746 56.54 595.36 56.4 595.053 56.12C594.76 55.84 594.613 55.4867 594.613 55.06C594.613 54.6333 594.76 54.2867 595.053 54.02C595.36 53.74 595.746 53.6 596.213 53.6C596.68 53.6 597.06 53.74 597.353 54.02C597.66 54.2867 597.813 54.6333 597.813 55.06C597.813 55.4867 597.66 55.84 597.353 56.12C597.06 56.4 596.68 56.54 596.213 56.54ZM594.933 68V58.08H597.493V68H594.933ZM604.365 65.04C603.885 65.04 603.439 64.9867 603.025 64.88L602.285 65.62C602.512 65.74 602.819 65.84 603.205 65.92C603.592 66 604.219 66.08 605.085 66.16C606.405 66.28 607.365 66.5933 607.965 67.1C608.565 67.6067 608.865 68.3067 608.865 69.2C608.865 69.7867 608.705 70.34 608.385 70.86C608.065 71.3933 607.572 71.82 606.905 72.14C606.239 72.4733 605.385 72.64 604.345 72.64C602.932 72.64 601.792 72.3733 600.925 71.84C600.059 71.32 599.625 70.5333 599.625 69.48C599.625 68.5867 600.059 67.8133 600.925 67.16C600.659 67.04 600.425 66.9133 600.225 66.78C600.039 66.6467 599.872 66.5067 599.725 66.36V65.9L601.465 64.06C600.692 63.38 600.305 62.5067 600.305 61.44C600.305 60.7733 600.465 60.1667 600.785 59.62C601.119 59.0733 601.585 58.64 602.185 58.32C602.785 58 603.512 57.84 604.365 57.84C604.925 57.84 605.445 57.92 605.925 58.08H609.685V59.64L607.985 59.76C608.252 60.2667 608.385 60.8267 608.385 61.44C608.385 62.1067 608.225 62.7133 607.905 63.26C607.585 63.8067 607.119 64.24 606.505 64.56C605.905 64.88 605.192 65.04 604.365 65.04ZM604.365 63.08C604.885 63.08 605.312 62.94 605.645 62.66C605.992 62.38 606.165 61.98 606.165 61.46C606.165 60.94 605.992 60.54 605.645 60.26C605.312 59.98 604.885 59.84 604.365 59.84C603.819 59.84 603.379 59.98 603.045 60.26C602.712 60.54 602.545 60.94 602.545 61.46C602.545 61.98 602.712 62.38 603.045 62.66C603.379 62.94 603.819 63.08 604.365 63.08ZM601.965 69.22C601.965 69.7133 602.192 70.08 602.645 70.32C603.112 70.5733 603.679 70.7 604.345 70.7C604.985 70.7 605.505 70.5667 605.905 70.3C606.305 70.0467 606.505 69.7 606.505 69.26C606.505 68.9 606.372 68.6 606.105 68.36C605.852 68.12 605.339 67.9733 604.565 67.92C604.019 67.88 603.512 67.82 603.045 67.74C602.659 67.9533 602.379 68.1867 602.205 68.44C602.045 68.6933 601.965 68.9533 601.965 69.22ZM611.552 68V58.08H613.812L614.012 59.76C614.319 59.1733 614.759 58.7067 615.332 58.36C615.919 58.0133 616.605 57.84 617.392 57.84C618.619 57.84 619.572 58.2267 620.252 59C620.932 59.7733 621.272 60.9067 621.272 62.4V68H618.712V62.64C618.712 61.7867 618.539 61.1333 618.192 60.68C617.845 60.2267 617.305 60 616.572 60C615.852 60 615.259 60.2533 614.792 60.76C614.339 61.2667 614.112 61.9733 614.112 62.88V68H611.552ZM632.205 68.24C630.965 68.24 630.005 67.8533 629.325 67.08C628.659 66.3067 628.325 65.1733 628.325 63.68V58.08H630.865V63.44C630.865 64.2933 631.039 64.9467 631.385 65.4C631.732 65.8533 632.279 66.08 633.025 66.08C633.732 66.08 634.312 65.8267 634.765 65.32C635.232 64.8133 635.465 64.1067 635.465 63.2V58.08H638.025V68H635.765L635.565 66.32C635.259 66.9067 634.812 67.3733 634.225 67.72C633.652 68.0667 632.979 68.24 632.205 68.24ZM640.653 72.4V58.08H642.933L643.213 59.5C643.533 59.06 643.953 58.6733 644.473 58.34C645.007 58.0067 645.693 57.84 646.533 57.84C647.467 57.84 648.3 58.0667 649.033 58.52C649.767 58.9733 650.347 59.5933 650.773 60.38C651.2 61.1667 651.413 62.06 651.413 63.06C651.413 64.06 651.2 64.9533 650.773 65.74C650.347 66.5133 649.767 67.1267 649.033 67.58C648.3 68.02 647.467 68.24 646.533 68.24C645.787 68.24 645.133 68.1 644.573 67.82C644.013 67.54 643.56 67.1467 643.213 66.64V72.4H640.653ZM645.993 66C646.807 66 647.48 65.7267 648.013 65.18C648.547 64.6333 648.813 63.9267 648.813 63.06C648.813 62.1933 648.547 61.48 648.013 60.92C647.48 60.36 646.807 60.08 645.993 60.08C645.167 60.08 644.487 60.36 643.953 60.92C643.433 61.4667 643.173 62.1733 643.173 63.04C643.173 63.9067 643.433 64.62 643.953 65.18C644.487 65.7267 645.167 66 645.993 66Z" fill="black"/>
<rect x="477" y="113" width="280" height="64" rx="20" fill="#705F44"/>
<path d="M587.74 152.24C586.713 152.24 585.806 152.067 585.02 151.72C584.233 151.36 583.613 150.853 583.16 150.2C582.706 149.533 582.473 148.727 582.46 147.78H585.16C585.186 148.433 585.42 148.987 585.86 149.44C586.313 149.88 586.933 150.1 587.72 150.1C588.4 150.1 588.94 149.94 589.34 149.62C589.74 149.287 589.94 148.847 589.94 148.3C589.94 147.727 589.76 147.28 589.4 146.96C589.053 146.64 588.586 146.38 588 146.18C587.413 145.98 586.786 145.767 586.12 145.54C585.04 145.167 584.213 144.687 583.64 144.1C583.08 143.513 582.8 142.733 582.8 141.76C582.786 140.933 582.98 140.227 583.38 139.64C583.793 139.04 584.353 138.58 585.06 138.26C585.766 137.927 586.58 137.76 587.5 137.76C588.433 137.76 589.253 137.927 589.96 138.26C590.68 138.593 591.24 139.06 591.64 139.66C592.053 140.26 592.273 140.973 592.3 141.8H589.56C589.546 141.307 589.353 140.873 588.98 140.5C588.62 140.113 588.113 139.92 587.46 139.92C586.9 139.907 586.426 140.047 586.04 140.34C585.666 140.62 585.48 141.033 585.48 141.58C585.48 142.047 585.626 142.42 585.92 142.7C586.213 142.967 586.613 143.193 587.12 143.38C587.626 143.567 588.206 143.767 588.86 143.98C589.553 144.22 590.186 144.5 590.76 144.82C591.333 145.14 591.793 145.567 592.14 146.1C592.486 146.62 592.66 147.293 592.66 148.12C592.66 148.853 592.473 149.533 592.1 150.16C591.726 150.787 591.173 151.293 590.44 151.68C589.706 152.053 588.806 152.24 587.74 152.24ZM596.213 140.54C595.746 140.54 595.36 140.4 595.053 140.12C594.76 139.84 594.613 139.487 594.613 139.06C594.613 138.633 594.76 138.287 595.053 138.02C595.36 137.74 595.746 137.6 596.213 137.6C596.68 137.6 597.06 137.74 597.353 138.02C597.66 138.287 597.813 138.633 597.813 139.06C597.813 139.487 597.66 139.84 597.353 140.12C597.06 140.4 596.68 140.54 596.213 140.54ZM594.933 152V142.08H597.493V152H594.933ZM604.365 149.04C603.885 149.04 603.439 148.987 603.025 148.88L602.285 149.62C602.512 149.74 602.819 149.84 603.205 149.92C603.592 150 604.219 150.08 605.085 150.16C606.405 150.28 607.365 150.593 607.965 151.1C608.565 151.607 608.865 152.307 608.865 153.2C608.865 153.787 608.705 154.34 608.385 154.86C608.065 155.393 607.572 155.82 606.905 156.14C606.239 156.473 605.385 156.64 604.345 156.64C602.932 156.64 601.792 156.373 600.925 155.84C600.059 155.32 599.625 154.533 599.625 153.48C599.625 152.587 600.059 151.813 600.925 151.16C600.659 151.04 600.425 150.913 600.225 150.78C600.039 150.647 599.872 150.507 599.725 150.36V149.9L601.465 148.06C600.692 147.38 600.305 146.507 600.305 145.44C600.305 144.773 600.465 144.167 600.785 143.62C601.119 143.073 601.585 142.64 602.185 142.32C602.785 142 603.512 141.84 604.365 141.84C604.925 141.84 605.445 141.92 605.925 142.08H609.685V143.64L607.985 143.76C608.252 144.267 608.385 144.827 608.385 145.44C608.385 146.107 608.225 146.713 607.905 147.26C607.585 147.807 607.119 148.24 606.505 148.56C605.905 148.88 605.192 149.04 604.365 149.04ZM604.365 147.08C604.885 147.08 605.312 146.94 605.645 146.66C605.992 146.38 606.165 145.98 606.165 145.46C606.165 144.94 605.992 144.54 605.645 144.26C605.312 143.98 604.885 143.84 604.365 143.84C603.819 143.84 603.379 143.98 603.045 144.26C602.712 144.54 602.545 144.94 602.545 145.46C602.545 145.98 602.712 146.38 603.045 146.66C603.379 146.94 603.819 147.08 604.365 147.08ZM601.965 153.22C601.965 153.713 602.192 154.08 602.645 154.32C603.112 154.573 603.679 154.7 604.345 154.7C604.985 154.7 605.505 154.567 605.905 154.3C606.305 154.047 606.505 153.7 606.505 153.26C606.505 152.9 606.372 152.6 606.105 152.36C605.852 152.12 605.339 151.973 604.565 151.92C604.019 151.88 603.512 151.82 603.045 151.74C602.659 151.953 602.379 152.187 602.205 152.44C602.045 152.693 601.965 152.953 601.965 153.22ZM611.552 152V142.08H613.812L614.012 143.76C614.319 143.173 614.759 142.707 615.332 142.36C615.919 142.013 616.605 141.84 617.392 141.84C618.619 141.84 619.572 142.227 620.252 143C620.932 143.773 621.272 144.907 621.272 146.4V152H618.712V146.64C618.712 145.787 618.539 145.133 618.192 144.68C617.845 144.227 617.305 144 616.572 144C615.852 144 615.259 144.253 614.792 144.76C614.339 145.267 614.112 145.973 614.112 146.88V152H611.552ZM632.205 152.24C630.965 152.24 630.005 151.853 629.325 151.08C628.659 150.307 628.325 149.173 628.325 147.68V142.08H630.865V147.44C630.865 148.293 631.039 148.947 631.385 149.4C631.732 149.853 632.279 150.08 633.025 150.08C633.732 150.08 634.312 149.827 634.765 149.32C635.232 148.813 635.465 148.107 635.465 147.2V142.08H638.025V152H635.765L635.565 150.32C635.259 150.907 634.812 151.373 634.225 151.72C633.652 152.067 632.979 152.24 632.205 152.24ZM640.653 156.4V142.08H642.933L643.213 143.5C643.533 143.06 643.953 142.673 644.473 142.34C645.007 142.007 645.693 141.84 646.533 141.84C647.467 141.84 648.3 142.067 649.033 142.52C649.767 142.973 650.347 143.593 650.773 144.38C651.2 145.167 651.413 146.06 651.413 147.06C651.413 148.06 651.2 148.953 650.773 149.74C650.347 150.513 649.767 151.127 649.033 151.58C648.3 152.02 647.467 152.24 646.533 152.24C645.787 152.24 645.133 152.1 644.573 151.82C644.013 151.54 643.56 151.147 643.213 150.64V156.4H640.653ZM645.993 150C646.807 150 647.48 149.727 648.013 149.18C648.547 148.633 648.813 147.927 648.813 147.06C648.813 146.193 648.547 145.48 648.013 144.92C647.48 144.36 646.807 144.08 645.993 144.08C645.167 144.08 644.487 144.36 643.953 144.92C643.433 145.467 643.173 146.173 643.173 147.04C643.173 147.907 643.433 148.62 643.953 149.18C644.487 149.727 645.167 150 645.993 150Z" fill="white"/>
<rect x="477" y="197" width="280" height="64" rx="20" fill="#544732"/>
<path d="M587.74 236.24C586.713 236.24 585.806 236.067 585.02 235.72C584.233 235.36 583.613 234.853 583.16 234.2C582.706 233.533 582.473 232.727 582.46 231.78H585.16C585.186 232.433 585.42 232.987 585.86 233.44C586.313 233.88 586.933 234.1 587.72 234.1C588.4 234.1 588.94 233.94 589.34 233.62C589.74 233.287 589.94 232.847 589.94 232.3C589.94 231.727 589.76 231.28 589.4 230.96C589.053 230.64 588.586 230.38 588 230.18C587.413 229.98 586.786 229.767 586.12 229.54C585.04 229.167 584.213 228.687 583.64 228.1C583.08 227.513 582.8 226.733 582.8 225.76C582.786 224.933 582.98 224.227 583.38 223.64C583.793 223.04 584.353 222.58 585.06 222.26C585.766 221.927 586.58 221.76 587.5 221.76C588.433 221.76 589.253 221.927 589.96 222.26C590.68 222.593 591.24 223.06 591.64 223.66C592.053 224.26 592.273 224.973 592.3 225.8H589.56C589.546 225.307 589.353 224.873 588.98 224.5C588.62 224.113 588.113 223.92 587.46 223.92C586.9 223.907 586.426 224.047 586.04 224.34C585.666 224.62 585.48 225.033 585.48 225.58C585.48 226.047 585.626 226.42 585.92 226.7C586.213 226.967 586.613 227.193 587.12 227.38C587.626 227.567 588.206 227.767 588.86 227.98C589.553 228.22 590.186 228.5 590.76 228.82C591.333 229.14 591.793 229.567 592.14 230.1C592.486 230.62 592.66 231.293 592.66 232.12C592.66 232.853 592.473 233.533 592.1 234.16C591.726 234.787 591.173 235.293 590.44 235.68C589.706 236.053 588.806 236.24 587.74 236.24ZM596.213 224.54C595.746 224.54 595.36 224.4 595.053 224.12C594.76 223.84 594.613 223.487 594.613 223.06C594.613 222.633 594.76 222.287 595.053 222.02C595.36 221.74 595.746 221.6 596.213 221.6C596.68 221.6 597.06 221.74 597.353 222.02C597.66 222.287 597.813 222.633 597.813 223.06C597.813 223.487 597.66 223.84 597.353 224.12C597.06 224.4 596.68 224.54 596.213 224.54ZM594.933 236V226.08H597.493V236H594.933ZM604.365 233.04C603.885 233.04 603.439 232.987 603.025 232.88L602.285 233.62C602.512 233.74 602.819 233.84 603.205 233.92C603.592 234 604.219 234.08 605.085 234.16C606.405 234.28 607.365 234.593 607.965 235.1C608.565 235.607 608.865 236.307 608.865 237.2C608.865 237.787 608.705 238.34 608.385 238.86C608.065 239.393 607.572 239.82 606.905 240.14C606.239 240.473 605.385 240.64 604.345 240.64C602.932 240.64 601.792 240.373 600.925 239.84C600.059 239.32 599.625 238.533 599.625 237.48C599.625 236.587 600.059 235.813 600.925 235.16C600.659 235.04 600.425 234.913 600.225 234.78C600.039 234.647 599.872 234.507 599.725 234.36V233.9L601.465 232.06C600.692 231.38 600.305 230.507 600.305 229.44C600.305 228.773 600.465 228.167 600.785 227.62C601.119 227.073 601.585 226.64 602.185 226.32C602.785 226 603.512 225.84 604.365 225.84C604.925 225.84 605.445 225.92 605.925 226.08H609.685V227.64L607.985 227.76C608.252 228.267 608.385 228.827 608.385 229.44C608.385 230.107 608.225 230.713 607.905 231.26C607.585 231.807 607.119 232.24 606.505 232.56C605.905 232.88 605.192 233.04 604.365 233.04ZM604.365 231.08C604.885 231.08 605.312 230.94 605.645 230.66C605.992 230.38 606.165 229.98 606.165 229.46C606.165 228.94 605.992 228.54 605.645 228.26C605.312 227.98 604.885 227.84 604.365 227.84C603.819 227.84 603.379 227.98 603.045 228.26C602.712 228.54 602.545 228.94 602.545 229.46C602.545 229.98 602.712 230.38 603.045 230.66C603.379 230.94 603.819 231.08 604.365 231.08ZM601.965 237.22C601.965 237.713 602.192 238.08 602.645 238.32C603.112 238.573 603.679 238.7 604.345 238.7C604.985 238.7 605.505 238.567 605.905 238.3C606.305 238.047 606.505 237.7 606.505 237.26C606.505 236.9 606.372 236.6 606.105 236.36C605.852 236.12 605.339 235.973 604.565 235.92C604.019 235.88 603.512 235.82 603.045 235.74C602.659 235.953 602.379 236.187 602.205 236.44C602.045 236.693 601.965 236.953 601.965 237.22ZM611.552 236V226.08H613.812L614.012 227.76C614.319 227.173 614.759 226.707 615.332 226.36C615.919 226.013 616.605 225.84 617.392 225.84C618.619 225.84 619.572 226.227 620.252 227C620.932 227.773 621.272 228.907 621.272 230.4V236H618.712V230.64C618.712 229.787 618.539 229.133 618.192 228.68C617.845 228.227 617.305 228 616.572 228C615.852 228 615.259 228.253 614.792 228.76C614.339 229.267 614.112 229.973 614.112 230.88V236H611.552ZM632.205 236.24C630.965 236.24 630.005 235.853 629.325 235.08C628.659 234.307 628.325 233.173 628.325 231.68V226.08H630.865V231.44C630.865 232.293 631.039 232.947 631.385 233.4C631.732 233.853 632.279 234.08 633.025 234.08C633.732 234.08 634.312 233.827 634.765 233.32C635.232 232.813 635.465 232.107 635.465 231.2V226.08H638.025V236H635.765L635.565 234.32C635.259 234.907 634.812 235.373 634.225 235.72C633.652 236.067 632.979 236.24 632.205 236.24ZM640.653 240.4V226.08H642.933L643.213 227.5C643.533 227.06 643.953 226.673 644.473 226.34C645.007 226.007 645.693 225.84 646.533 225.84C647.467 225.84 648.3 226.067 649.033 226.52C649.767 226.973 650.347 227.593 650.773 228.38C651.2 229.167 651.413 230.06 651.413 231.06C651.413 232.06 651.2 232.953 650.773 233.74C650.347 234.513 649.767 235.127 649.033 235.58C648.3 236.02 647.467 236.24 646.533 236.24C645.787 236.24 645.133 236.1 644.573 235.82C644.013 235.54 643.56 235.147 643.213 234.64V240.4H640.653ZM645.993 234C646.807 234 647.48 233.727 648.013 233.18C648.547 232.633 648.813 231.927 648.813 231.06C648.813 230.193 648.547 229.48 648.013 228.92C647.48 228.36 646.807 228.08 645.993 228.08C645.167 228.08 644.487 228.36 643.953 228.92C643.433 229.467 643.173 230.173 643.173 231.04C643.173 231.907 643.433 232.62 643.953 233.18C644.487 233.727 645.167 234 645.993 234Z" fill="white"/>
<circle cx="881" cy="53" r="36" fill="#EEE1CC"/>
<path fill-rule="evenodd" clip-rule="evenodd" d="M895.25 52.5C895.25 52.0441 895.069 51.607 894.747 51.2846C894.424 50.9623 893.987 50.7812 893.531 50.7812H873.618L880.998 43.4044C881.321 43.0816 881.502 42.6439 881.502 42.1875C881.502 41.7311 881.321 41.2933 880.998 40.9706C880.675 40.6479 880.238 40.4666 879.781 40.4666C879.325 40.4666 878.887 40.6479 878.564 40.9706L868.252 51.2831C868.092 51.4428 867.965 51.6324 867.878 51.8412C867.792 52.05 867.747 52.2739 867.747 52.5C867.747 52.7261 867.792 52.9499 867.878 53.1587C867.965 53.3675 868.092 53.5572 868.252 53.7169L878.564 64.0294C878.887 64.3521 879.325 64.5334 879.781 64.5334C880.238 64.5334 880.675 64.3521 880.998 64.0294C881.321 63.7066 881.502 63.2689 881.502 62.8125C881.502 62.3561 881.321 61.9183 880.998 61.5956L873.618 54.2187H893.531C893.987 54.2187 894.424 54.0376 894.747 53.7153C895.069 53.393 895.25 52.9558 895.25 52.5Z" fill="black"/>
<circle cx="881" cy="145" r="36" fill="#705F44"/>
<path fill-rule="evenodd" clip-rule="evenodd" d="M895.25 144.5C895.25 144.044 895.069 143.607 894.747 143.285C894.424 142.962 893.987 142.781 893.531 142.781H873.618L880.998 135.404C881.321 135.082 881.502 134.644 881.502 134.187C881.502 133.731 881.321 133.293 880.998 132.971C880.675 132.648 880.238 132.467 879.781 132.467C879.325 132.467 878.887 132.648 878.564 132.971L868.252 143.283C868.092 143.443 867.965 143.632 867.878 143.841C867.792 144.05 867.747 144.274 867.747 144.5C867.747 144.726 867.792 144.95 867.878 145.159C867.965 145.368 868.092 145.557 868.252 145.717L878.564 156.029C878.887 156.352 879.325 156.533 879.781 156.533C880.238 156.533 880.675 156.352 880.998 156.029C881.321 155.707 881.502 155.269 881.502 154.812C881.502 154.356 881.321 153.918 880.998 153.596L873.618 146.219H893.531C893.987 146.219 894.424 146.038 894.747 145.715C895.069 145.393 895.25 144.956 895.25 144.5Z" fill="white"/>
<circle cx="881" cy="237" r="36" fill="#544732"/>
<path fill-rule="evenodd" clip-rule="evenodd" d="M895.25 236.5C895.25 236.044 895.069 235.607 894.747 235.285C894.424 234.962 893.987 234.781 893.531 234.781H873.618L880.998 227.404C881.321 227.082 881.502 226.644 881.502 226.187C881.502 225.731 881.321 225.293 880.998 224.971C880.675 224.648 880.238 224.467 879.781 224.467C879.325 224.467 878.887 224.648 878.564 224.971L868.252 235.283C868.092 235.443 867.965 235.632 867.878 235.841C867.792 236.05 867.747 236.274 867.747 236.5C867.747 236.726 867.792 236.95 867.878 237.159C867.965 237.368 868.092 237.557 868.252 237.717L878.564 248.029C878.887 248.352 879.325 248.533 879.781 248.533C880.238 248.533 880.675 248.352 880.998 248.029C881.321 247.707 881.502 247.269 881.502 246.812C881.502 246.356 881.321 245.918 880.998 245.596L873.618 238.219H893.531C893.987 238.219 894.424 238.038 894.747 237.715C895.069 237.393 895.25 236.956 895.25 236.5Z" fill="white"/>
<circle cx="1037" cy="53" r="36" fill="#9DB580"/>
<path fill-rule="evenodd" clip-rule="evenodd" d="M1022.75 52.5C1022.75 52.0441 1022.93 51.607 1023.25 51.2846C1023.58 50.9623 1024.01 50.7812 1024.47 50.7812H1044.38L1037 43.4044C1036.68 43.0816 1036.5 42.6439 1036.5 42.1875C1036.5 41.7311 1036.68 41.2933 1037 40.9706C1037.32 40.6479 1037.76 40.4666 1038.22 40.4666C1038.68 40.4666 1039.11 40.6479 1039.44 40.9706L1049.75 51.2831C1049.91 51.4428 1050.04 51.6324 1050.12 51.8412C1050.21 52.05 1050.25 52.2739 1050.25 52.5C1050.25 52.7261 1050.21 52.9499 1050.12 53.1587C1050.04 53.3675 1049.91 53.5572 1049.75 53.7169L1039.44 64.0294C1039.11 64.3521 1038.68 64.5334 1038.22 64.5334C1037.76 64.5334 1037.32 64.3521 1037 64.0294C1036.68 63.7066 1036.5 63.2689 1036.5 62.8125C1036.5 62.3561 1036.68 61.9183 1037 61.5956L1044.38 54.2187H1024.47C1024.01 54.2187 1023.58 54.0376 1023.25 53.7153C1022.93 53.393 1022.75 52.9558 1022.75 52.5Z" fill="black"/>
<circle cx="1037" cy="145" r="36" fill="#627952"/>
<path fill-rule="evenodd" clip-rule="evenodd" d="M1022.75 144.5C1022.75 144.044 1022.93 143.607 1023.25 143.285C1023.58 142.962 1024.01 142.781 1024.47 142.781H1044.38L1037 135.404C1036.68 135.082 1036.5 134.644 1036.5 134.187C1036.5 133.731 1036.68 133.293 1037 132.971C1037.32 132.648 1037.76 132.467 1038.22 132.467C1038.68 132.467 1039.11 132.648 1039.44 132.971L1049.75 143.283C1049.91 143.443 1050.04 143.632 1050.12 143.841C1050.21 144.05 1050.25 144.274 1050.25 144.5C1050.25 144.726 1050.21 144.95 1050.12 145.159C1050.04 145.368 1049.91 145.557 1049.75 145.717L1039.44 156.029C1039.11 156.352 1038.68 156.533 1038.22 156.533C1037.76 156.533 1037.32 156.352 1037 156.029C1036.68 155.707 1036.5 155.269 1036.5 154.812C1036.5 154.356 1036.68 153.918 1037 153.596L1044.38 146.219H1024.47C1024.01 146.219 1023.58 146.038 1023.25 145.715C1022.93 145.393 1022.75 144.956 1022.75 144.5Z" fill="white"/>
<circle cx="1037" cy="237" r="36" fill="#465939"/>
<path fill-rule="evenodd" clip-rule="evenodd" d="M1022.75 236.5C1022.75 236.044 1022.93 235.607 1023.25 235.285C1023.58 234.962 1024.01 234.781 1024.47 234.781H1044.38L1037 227.404C1036.68 227.082 1036.5 226.644 1036.5 226.187C1036.5 225.731 1036.68 225.293 1037 224.971C1037.32 224.648 1037.76 224.467 1038.22 224.467C1038.68 224.467 1039.11 224.648 1039.44 224.971L1049.75 235.283C1049.91 235.443 1050.04 235.632 1050.12 235.841C1050.21 236.05 1050.25 236.274 1050.25 236.5C1050.25 236.726 1050.21 236.95 1050.12 237.159C1050.04 237.368 1049.91 237.557 1049.75 237.717L1039.44 248.029C1039.11 248.352 1038.68 248.533 1038.22 248.533C1037.76 248.533 1037.32 248.352 1037 248.029C1036.68 247.707 1036.5 247.269 1036.5 246.812C1036.5 246.356 1036.68 245.918 1037 245.596L1044.38 238.219H1024.47C1024.01 238.219 1023.58 238.038 1023.25 237.715C1022.93 237.393 1022.75 236.956 1022.75 236.5Z" fill="white"/>
</svg>
