<svg width="577" height="499" viewBox="0 0 577 499" fill="none" xmlns="http://www.w3.org/2000/svg">
<rect x="1" width="576" height="498.502" fill="#F3F3F3"/>
<path d="M429 497C429 497 131.641 497 0.749939 497C0.749939 497 0.749947 487.891 0.749947 357C43.8765 298.186 113.479 260 192 260C322.891 260 429 366.109 429 497Z" fill="white"/>
<circle cx="168" cy="167" r="143" fill="#A7BF87"/>
<circle cx="128" cy="387" r="64" fill="#D9D9D9"/>
<circle cx="18" cy="18" r="18" transform="matrix(-1 0 0 1 82 320)" fill="black"/>
<circle cx="419" cy="177" r="83" fill="#705F44"/>
<circle cx="247" cy="249" r="89" fill="#627952"/>
<circle cx="287" cy="338" r="65" fill="#465939"/>
<circle cx="352" cy="359" r="49" fill="#3F4636"/>
<circle cx="463.5" cy="244.5" r="44.5" fill="#EEE1CC"/>
<path d="M98.088 75V63.8H102.232C103.128 63.8 103.869 63.9493 104.456 64.248C105.043 64.5467 105.48 64.9573 105.768 65.48C106.056 66.0027 106.2 66.5893 106.2 67.24C106.2 67.8587 106.061 68.4293 105.784 68.952C105.507 69.464 105.075 69.88 104.488 70.2C103.901 70.5093 103.149 70.664 102.232 70.664H100.136V75H98.088ZM100.136 69H102.104C102.819 69 103.331 68.8453 103.64 68.536C103.96 68.216 104.12 67.784 104.12 67.24C104.12 66.6853 103.96 66.2533 103.64 65.944C103.331 65.624 102.819 65.464 102.104 65.464H100.136V69ZM107.759 75V67.064H109.583L109.775 68.552C110.063 68.04 110.452 67.6347 110.943 67.336C111.444 67.0267 112.031 66.872 112.703 66.872V69.032H112.127C111.679 69.032 111.279 69.1013 110.927 69.24C110.575 69.3787 110.297 69.6187 110.095 69.96C109.903 70.3013 109.807 70.776 109.807 71.384V75H107.759ZM115.207 65.832C114.833 65.832 114.524 65.72 114.279 65.496C114.044 65.272 113.927 64.9893 113.927 64.648C113.927 64.3067 114.044 64.0293 114.279 63.816C114.524 63.592 114.833 63.48 115.207 63.48C115.58 63.48 115.884 63.592 116.119 63.816C116.364 64.0293 116.487 64.3067 116.487 64.648C116.487 64.9893 116.364 65.272 116.119 65.496C115.884 65.72 115.58 65.832 115.207 65.832ZM114.183 75V67.064H116.231V75H114.183ZM118.368 75V67.064H120.176L120.352 68.136C120.608 67.752 120.944 67.448 121.36 67.224C121.787 66.9893 122.277 66.872 122.832 66.872C124.059 66.872 124.928 67.3467 125.44 68.296C125.728 67.8587 126.112 67.512 126.592 67.256C127.083 67 127.616 66.872 128.192 66.872C129.227 66.872 130.021 67.1813 130.576 67.8C131.131 68.4187 131.408 69.3253 131.408 70.52V75H129.36V70.712C129.36 70.0293 129.227 69.5067 128.96 69.144C128.704 68.7813 128.304 68.6 127.76 68.6C127.205 68.6 126.757 68.8027 126.416 69.208C126.085 69.6133 125.92 70.1787 125.92 70.904V75H123.872V70.712C123.872 70.0293 123.739 69.5067 123.472 69.144C123.205 68.7813 122.795 68.6 122.24 68.6C121.696 68.6 121.253 68.8027 120.912 69.208C120.581 69.6133 120.416 70.1787 120.416 70.904V75H118.368ZM136.089 75.192C135.406 75.192 134.846 75.0853 134.409 74.872C133.971 74.648 133.646 74.3547 133.433 73.992C133.219 73.6293 133.113 73.2293 133.113 72.792C133.113 72.056 133.401 71.4587 133.977 71C134.553 70.5413 135.417 70.312 136.569 70.312H138.585V70.12C138.585 69.576 138.43 69.176 138.121 68.92C137.811 68.664 137.427 68.536 136.969 68.536C136.553 68.536 136.19 68.6373 135.881 68.84C135.571 69.032 135.379 69.32 135.305 69.704H133.305C133.358 69.128 133.55 68.6267 133.881 68.2C134.222 67.7733 134.659 67.448 135.193 67.224C135.726 66.9893 136.323 66.872 136.985 66.872C138.115 66.872 139.006 67.1547 139.657 67.72C140.307 68.2853 140.633 69.0853 140.633 70.12V75H138.889L138.697 73.72C138.462 74.1467 138.131 74.4987 137.705 74.776C137.289 75.0533 136.75 75.192 136.089 75.192ZM136.553 73.592C137.139 73.592 137.593 73.4 137.913 73.016C138.243 72.632 138.451 72.1573 138.537 71.592H136.793C136.249 71.592 135.859 71.6933 135.625 71.896C135.39 72.088 135.273 72.328 135.273 72.616C135.273 72.9253 135.39 73.1653 135.625 73.336C135.859 73.5067 136.169 73.592 136.553 73.592ZM142.587 75V67.064H144.411L144.603 68.552C144.891 68.04 145.28 67.6347 145.771 67.336C146.272 67.0267 146.859 66.872 147.531 66.872V69.032H146.955C146.507 69.032 146.107 69.1013 145.755 69.24C145.403 69.3787 145.126 69.6187 144.923 69.96C144.731 70.3013 144.635 70.776 144.635 71.384V75H142.587ZM149.923 78.52L151.763 74.472H151.283L148.195 67.064H150.419L152.643 72.648L154.963 67.064H157.139L152.099 78.52H149.923Z" fill="white"/>
<path d="M374.912 146.192C374.091 146.192 373.365 146.053 372.736 145.776C372.107 145.488 371.611 145.083 371.248 144.56C370.885 144.027 370.699 143.381 370.688 142.624H372.848C372.869 143.147 373.056 143.589 373.408 143.952C373.771 144.304 374.267 144.48 374.896 144.48C375.44 144.48 375.872 144.352 376.192 144.096C376.512 143.829 376.672 143.477 376.672 143.04C376.672 142.581 376.528 142.224 376.24 141.968C375.963 141.712 375.589 141.504 375.12 141.344C374.651 141.184 374.149 141.013 373.616 140.832C372.752 140.533 372.091 140.149 371.632 139.68C371.184 139.211 370.96 138.587 370.96 137.808C370.949 137.147 371.104 136.581 371.424 136.112C371.755 135.632 372.203 135.264 372.768 135.008C373.333 134.741 373.984 134.608 374.72 134.608C375.467 134.608 376.123 134.741 376.688 135.008C377.264 135.275 377.712 135.648 378.032 136.128C378.363 136.608 378.539 137.179 378.56 137.84H376.368C376.357 137.445 376.203 137.099 375.904 136.8C375.616 136.491 375.211 136.336 374.688 136.336C374.24 136.325 373.861 136.437 373.552 136.672C373.253 136.896 373.104 137.227 373.104 137.664C373.104 138.037 373.221 138.336 373.456 138.56C373.691 138.773 374.011 138.955 374.416 139.104C374.821 139.253 375.285 139.413 375.808 139.584C376.363 139.776 376.869 140 377.328 140.256C377.787 140.512 378.155 140.853 378.432 141.28C378.709 141.696 378.848 142.235 378.848 142.896C378.848 143.483 378.699 144.027 378.4 144.528C378.101 145.029 377.659 145.435 377.072 145.744C376.485 146.043 375.765 146.192 374.912 146.192ZM384.443 146.192C383.643 146.192 382.934 146.021 382.315 145.68C381.696 145.339 381.211 144.859 380.859 144.24C380.507 143.621 380.331 142.907 380.331 142.096C380.331 141.275 380.502 140.544 380.843 139.904C381.195 139.264 381.675 138.768 382.283 138.416C382.902 138.053 383.627 137.872 384.459 137.872C385.238 137.872 385.926 138.043 386.523 138.384C387.12 138.725 387.584 139.195 387.915 139.792C388.256 140.379 388.427 141.035 388.427 141.76C388.427 141.877 388.422 142 388.411 142.128C388.411 142.256 388.406 142.389 388.395 142.528H382.363C382.406 143.147 382.619 143.632 383.003 143.984C383.398 144.336 383.872 144.512 384.427 144.512C384.843 144.512 385.19 144.421 385.467 144.24C385.755 144.048 385.968 143.803 386.107 143.504H388.187C388.038 144.005 387.787 144.464 387.435 144.88C387.094 145.285 386.667 145.605 386.155 145.84C385.654 146.075 385.083 146.192 384.443 146.192ZM384.459 139.536C383.958 139.536 383.515 139.68 383.131 139.968C382.747 140.245 382.502 140.672 382.395 141.248H386.347C386.315 140.725 386.123 140.309 385.771 140C385.419 139.691 384.982 139.536 384.459 139.536ZM394.037 146.192C393.227 146.192 392.512 146.016 391.893 145.664C391.275 145.312 390.784 144.821 390.421 144.192C390.069 143.563 389.893 142.843 389.893 142.032C389.893 141.221 390.069 140.501 390.421 139.872C390.784 139.243 391.275 138.752 391.893 138.4C392.512 138.048 393.227 137.872 394.037 137.872C395.051 137.872 395.904 138.139 396.597 138.672C397.291 139.195 397.733 139.92 397.925 140.848H395.765C395.659 140.464 395.445 140.165 395.125 139.952C394.816 139.728 394.448 139.616 394.021 139.616C393.456 139.616 392.976 139.829 392.581 140.256C392.187 140.683 391.989 141.275 391.989 142.032C391.989 142.789 392.187 143.381 392.581 143.808C392.976 144.235 393.456 144.448 394.021 144.448C394.448 144.448 394.816 144.341 395.125 144.128C395.445 143.915 395.659 143.611 395.765 143.216H397.925C397.733 144.112 397.291 144.832 396.597 145.376C395.904 145.92 395.051 146.192 394.037 146.192ZM403.551 146.192C402.783 146.192 402.09 146.016 401.471 145.664C400.863 145.312 400.378 144.827 400.015 144.208C399.663 143.579 399.487 142.853 399.487 142.032C399.487 141.211 399.668 140.491 400.031 139.872C400.394 139.243 400.879 138.752 401.487 138.4C402.106 138.048 402.799 137.872 403.567 137.872C404.324 137.872 405.007 138.048 405.615 138.4C406.234 138.752 406.719 139.243 407.071 139.872C407.434 140.491 407.615 141.211 407.615 142.032C407.615 142.853 407.434 143.579 407.071 144.208C406.719 144.827 406.234 145.312 405.615 145.664C404.996 146.016 404.308 146.192 403.551 146.192ZM403.551 144.416C404.084 144.416 404.548 144.219 404.943 143.824C405.338 143.419 405.535 142.821 405.535 142.032C405.535 141.243 405.338 140.651 404.943 140.256C404.548 139.851 404.09 139.648 403.567 139.648C403.023 139.648 402.554 139.851 402.159 140.256C401.775 140.651 401.583 141.243 401.583 142.032C401.583 142.821 401.775 143.419 402.159 143.824C402.554 144.219 403.018 144.416 403.551 144.416ZM409.446 146V138.064H411.254L411.414 139.408C411.66 138.939 412.012 138.565 412.47 138.288C412.94 138.011 413.489 137.872 414.118 137.872C415.1 137.872 415.862 138.181 416.406 138.8C416.95 139.419 417.222 140.325 417.222 141.52V146H415.174V141.712C415.174 141.029 415.036 140.507 414.758 140.144C414.481 139.781 414.049 139.6 413.462 139.6C412.886 139.6 412.412 139.803 412.038 140.208C411.676 140.613 411.494 141.179 411.494 141.904V146H409.446ZM422.829 146.192C422.082 146.192 421.415 146.011 420.829 145.648C420.242 145.285 419.778 144.789 419.437 144.16C419.095 143.531 418.925 142.816 418.925 142.016C418.925 141.216 419.095 140.507 419.437 139.888C419.778 139.259 420.242 138.768 420.829 138.416C421.415 138.053 422.082 137.872 422.829 137.872C423.426 137.872 423.949 137.984 424.397 138.208C424.845 138.432 425.207 138.747 425.485 139.152V134.48H427.533V146H425.709L425.485 144.864C425.229 145.216 424.887 145.525 424.461 145.792C424.045 146.059 423.501 146.192 422.829 146.192ZM423.261 144.4C423.922 144.4 424.461 144.181 424.877 143.744C425.303 143.296 425.517 142.725 425.517 142.032C425.517 141.339 425.303 140.773 424.877 140.336C424.461 139.888 423.922 139.664 423.261 139.664C422.61 139.664 422.071 139.883 421.645 140.32C421.218 140.757 421.005 141.323 421.005 142.016C421.005 142.709 421.218 143.28 421.645 143.728C422.071 144.176 422.61 144.4 423.261 144.4ZM432.354 146.192C431.671 146.192 431.111 146.085 430.674 145.872C430.237 145.648 429.911 145.355 429.698 144.992C429.485 144.629 429.378 144.229 429.378 143.792C429.378 143.056 429.666 142.459 430.242 142C430.818 141.541 431.682 141.312 432.834 141.312H434.85V141.12C434.85 140.576 434.695 140.176 434.386 139.92C434.077 139.664 433.693 139.536 433.234 139.536C432.818 139.536 432.455 139.637 432.146 139.84C431.837 140.032 431.645 140.32 431.57 140.704H429.57C429.623 140.128 429.815 139.627 430.146 139.2C430.487 138.773 430.925 138.448 431.458 138.224C431.991 137.989 432.589 137.872 433.25 137.872C434.381 137.872 435.271 138.155 435.922 138.72C436.573 139.285 436.898 140.085 436.898 141.12V146H435.154L434.962 144.72C434.727 145.147 434.397 145.499 433.97 145.776C433.554 146.053 433.015 146.192 432.354 146.192ZM432.818 144.592C433.405 144.592 433.858 144.4 434.178 144.016C434.509 143.632 434.717 143.157 434.802 142.592H433.058C432.514 142.592 432.125 142.693 431.89 142.896C431.655 143.088 431.538 143.328 431.538 143.616C431.538 143.925 431.655 144.165 431.89 144.336C432.125 144.507 432.434 144.592 432.818 144.592ZM438.853 146V138.064H440.677L440.869 139.552C441.157 139.04 441.546 138.635 442.036 138.336C442.538 138.027 443.125 137.872 443.797 137.872V140.032H443.221C442.773 140.032 442.373 140.101 442.021 140.24C441.669 140.379 441.391 140.619 441.189 140.96C440.997 141.301 440.901 141.776 440.901 142.384V146H438.853ZM446.188 149.52L448.028 145.472H447.548L444.46 138.064H446.684L448.908 143.648L451.228 138.064H453.404L448.364 149.52H446.188Z" fill="white"/>
<path d="M386.088 39V27.8H390.232C391.128 27.8 391.869 27.9493 392.456 28.248C393.043 28.5467 393.48 28.9573 393.768 29.48C394.056 30.0027 394.2 30.5893 394.2 31.24C394.2 31.8587 394.061 32.4293 393.784 32.952C393.507 33.464 393.075 33.88 392.488 34.2C391.901 34.5093 391.149 34.664 390.232 34.664H388.136V39H386.088ZM388.136 33H390.104C390.819 33 391.331 32.8453 391.64 32.536C391.96 32.216 392.12 31.784 392.12 31.24C392.12 30.6853 391.96 30.2533 391.64 29.944C391.331 29.624 390.819 29.464 390.104 29.464H388.136V33ZM395.759 39V31.064H397.583L397.775 32.552C398.063 32.04 398.452 31.6347 398.943 31.336C399.444 31.0267 400.031 30.872 400.703 30.872V33.032H400.127C399.679 33.032 399.279 33.1013 398.927 33.24C398.575 33.3787 398.297 33.6187 398.095 33.96C397.903 34.3013 397.807 34.776 397.807 35.384V39H395.759ZM403.207 29.832C402.833 29.832 402.524 29.72 402.279 29.496C402.044 29.272 401.927 28.9893 401.927 28.648C401.927 28.3067 402.044 28.0293 402.279 27.816C402.524 27.592 402.833 27.48 403.207 27.48C403.58 27.48 403.884 27.592 404.119 27.816C404.364 28.0293 404.487 28.3067 404.487 28.648C404.487 28.9893 404.364 29.272 404.119 29.496C403.884 29.72 403.58 29.832 403.207 29.832ZM402.183 39V31.064H404.231V39H402.183ZM406.368 39V31.064H408.176L408.352 32.136C408.608 31.752 408.944 31.448 409.36 31.224C409.787 30.9893 410.277 30.872 410.832 30.872C412.059 30.872 412.928 31.3467 413.44 32.296C413.728 31.8587 414.112 31.512 414.592 31.256C415.083 31 415.616 30.872 416.192 30.872C417.227 30.872 418.021 31.1813 418.576 31.8C419.131 32.4187 419.408 33.3253 419.408 34.52V39H417.36V34.712C417.36 34.0293 417.227 33.5067 416.96 33.144C416.704 32.7813 416.304 32.6 415.76 32.6C415.205 32.6 414.757 32.8027 414.416 33.208C414.085 33.6133 413.92 34.1787 413.92 34.904V39H411.872V34.712C411.872 34.0293 411.739 33.5067 411.472 33.144C411.205 32.7813 410.795 32.6 410.24 32.6C409.696 32.6 409.253 32.8027 408.912 33.208C408.581 33.6133 408.416 34.1787 408.416 34.904V39H406.368ZM424.089 39.192C423.406 39.192 422.846 39.0853 422.409 38.872C421.971 38.648 421.646 38.3547 421.433 37.992C421.219 37.6293 421.113 37.2293 421.113 36.792C421.113 36.056 421.401 35.4587 421.977 35C422.553 34.5413 423.417 34.312 424.569 34.312H426.585V34.12C426.585 33.576 426.43 33.176 426.121 32.92C425.811 32.664 425.427 32.536 424.969 32.536C424.553 32.536 424.19 32.6373 423.881 32.84C423.571 33.032 423.379 33.32 423.305 33.704H421.305C421.358 33.128 421.55 32.6267 421.881 32.2C422.222 31.7733 422.659 31.448 423.193 31.224C423.726 30.9893 424.323 30.872 424.985 30.872C426.115 30.872 427.006 31.1547 427.657 31.72C428.307 32.2853 428.633 33.0853 428.633 34.12V39H426.889L426.697 37.72C426.462 38.1467 426.131 38.4987 425.705 38.776C425.289 39.0533 424.75 39.192 424.089 39.192ZM424.553 37.592C425.139 37.592 425.593 37.4 425.913 37.016C426.243 36.632 426.451 36.1573 426.537 35.592H424.793C424.249 35.592 423.859 35.6933 423.625 35.896C423.39 36.088 423.273 36.328 423.273 36.616C423.273 36.9253 423.39 37.1653 423.625 37.336C423.859 37.5067 424.169 37.592 424.553 37.592ZM430.587 39V31.064H432.411L432.603 32.552C432.891 32.04 433.28 31.6347 433.771 31.336C434.272 31.0267 434.859 30.872 435.531 30.872V33.032H434.955C434.507 33.032 434.107 33.1013 433.755 33.24C433.403 33.3787 433.126 33.6187 432.923 33.96C432.731 34.3013 432.635 34.776 432.635 35.384V39H430.587ZM437.923 42.52L439.763 38.472H439.283L436.195 31.064H438.419L440.643 36.648L442.963 31.064H445.139L440.099 42.52H437.923ZM450.338 39V27.8H454.834C455.997 27.8 456.882 28.072 457.49 28.616C458.109 29.1493 458.418 29.8373 458.418 30.68C458.418 31.384 458.226 31.9493 457.842 32.376C457.469 32.792 457.01 33.0747 456.466 33.224C457.106 33.352 457.634 33.672 458.05 34.184C458.466 34.6853 458.674 35.272 458.674 35.944C458.674 36.8293 458.354 37.56 457.714 38.136C457.074 38.712 456.167 39 454.994 39H450.338ZM452.386 32.504H454.53C455.106 32.504 455.549 32.3707 455.858 32.104C456.167 31.8373 456.322 31.4587 456.322 30.968C456.322 30.4987 456.167 30.1307 455.858 29.864C455.559 29.5867 455.106 29.448 454.498 29.448H452.386V32.504ZM452.386 37.336H454.674C455.282 37.336 455.751 37.1973 456.082 36.92C456.423 36.632 456.594 36.232 456.594 35.72C456.594 35.1973 456.418 34.7867 456.066 34.488C455.714 34.1893 455.239 34.04 454.642 34.04H452.386V37.336ZM463.12 39.192C462.437 39.192 461.877 39.0853 461.44 38.872C461.002 38.648 460.677 38.3547 460.464 37.992C460.25 37.6293 460.144 37.2293 460.144 36.792C460.144 36.056 460.432 35.4587 461.008 35C461.584 34.5413 462.448 34.312 463.6 34.312H465.616V34.12C465.616 33.576 465.461 33.176 465.152 32.92C464.842 32.664 464.458 32.536 464 32.536C463.584 32.536 463.221 32.6373 462.912 32.84C462.602 33.032 462.41 33.32 462.336 33.704H460.336C460.389 33.128 460.581 32.6267 460.912 32.2C461.253 31.7733 461.69 31.448 462.224 31.224C462.757 30.9893 463.354 30.872 464.016 30.872C465.146 30.872 466.037 31.1547 466.688 31.72C467.338 32.2853 467.664 33.0853 467.664 34.12V39H465.92L465.728 37.72C465.493 38.1467 465.162 38.4987 464.736 38.776C464.32 39.0533 463.781 39.192 463.12 39.192ZM463.584 37.592C464.17 37.592 464.624 37.4 464.944 37.016C465.274 36.632 465.482 36.1573 465.568 35.592H463.824C463.28 35.592 462.89 35.6933 462.656 35.896C462.421 36.088 462.304 36.328 462.304 36.616C462.304 36.9253 462.421 37.1653 462.656 37.336C462.89 37.5067 463.2 37.592 463.584 37.592ZM473.506 39.192C472.695 39.192 471.981 39.016 471.362 38.664C470.743 38.312 470.253 37.8213 469.89 37.192C469.538 36.5627 469.362 35.8427 469.362 35.032C469.362 34.2213 469.538 33.5013 469.89 32.872C470.253 32.2427 470.743 31.752 471.362 31.4C471.981 31.048 472.695 30.872 473.506 30.872C474.519 30.872 475.373 31.1387 476.066 31.672C476.759 32.1947 477.202 32.92 477.394 33.848H475.234C475.127 33.464 474.914 33.1653 474.594 32.952C474.285 32.728 473.917 32.616 473.49 32.616C472.925 32.616 472.445 32.8293 472.05 33.256C471.655 33.6827 471.458 34.2747 471.458 35.032C471.458 35.7893 471.655 36.3813 472.05 36.808C472.445 37.2347 472.925 37.448 473.49 37.448C473.917 37.448 474.285 37.3413 474.594 37.128C474.914 36.9147 475.127 36.6107 475.234 36.216H477.394C477.202 37.112 476.759 37.832 476.066 38.376C475.373 38.92 474.519 39.192 473.506 39.192ZM479.212 39V27.48H481.26V34.28L484.076 31.064H486.508L483.26 34.68L487.036 39H484.476L481.26 35.016V39H479.212ZM491.666 36.632C491.282 36.632 490.924 36.5893 490.594 36.504L490.002 37.096C490.183 37.192 490.428 37.272 490.738 37.336C491.047 37.4 491.548 37.464 492.242 37.528C493.298 37.624 494.066 37.8747 494.546 38.28C495.026 38.6853 495.266 39.2453 495.266 39.96C495.266 40.4293 495.138 40.872 494.882 41.288C494.626 41.7147 494.231 42.056 493.698 42.312C493.164 42.5787 492.482 42.712 491.65 42.712C490.519 42.712 489.607 42.4987 488.914 42.072C488.22 41.656 487.874 41.0267 487.874 40.184C487.874 39.4693 488.22 38.8507 488.914 38.328C488.7 38.232 488.514 38.1307 488.354 38.024C488.204 37.9173 488.071 37.8053 487.954 37.688V37.32L489.346 35.848C488.727 35.304 488.418 34.6053 488.418 33.752C488.418 33.2187 488.546 32.7333 488.802 32.296C489.068 31.8587 489.442 31.512 489.922 31.256C490.402 31 490.983 30.872 491.666 30.872C492.114 30.872 492.53 30.936 492.914 31.064H495.922V32.312L494.562 32.408C494.775 32.8133 494.882 33.2613 494.882 33.752C494.882 34.2853 494.754 34.7707 494.498 35.208C494.242 35.6453 493.868 35.992 493.378 36.248C492.898 36.504 492.327 36.632 491.666 36.632ZM491.666 35.064C492.082 35.064 492.423 34.952 492.69 34.728C492.967 34.504 493.106 34.184 493.106 33.768C493.106 33.352 492.967 33.032 492.69 32.808C492.423 32.584 492.082 32.472 491.666 32.472C491.228 32.472 490.876 32.584 490.61 32.808C490.343 33.032 490.21 33.352 490.21 33.768C490.21 34.184 490.343 34.504 490.61 34.728C490.876 34.952 491.228 35.064 491.666 35.064ZM489.746 39.976C489.746 40.3707 489.927 40.664 490.29 40.856C490.663 41.0587 491.116 41.16 491.65 41.16C492.162 41.16 492.578 41.0533 492.898 40.84C493.218 40.6373 493.378 40.36 493.378 40.008C493.378 39.72 493.271 39.48 493.058 39.288C492.855 39.096 492.444 38.9787 491.826 38.936C491.388 38.904 490.983 38.856 490.61 38.792C490.3 38.9627 490.076 39.1493 489.938 39.352C489.81 39.5547 489.746 39.7627 489.746 39.976ZM497.415 39V31.064H499.239L499.431 32.552C499.719 32.04 500.108 31.6347 500.599 31.336C501.1 31.0267 501.687 30.872 502.359 30.872V33.032H501.783C501.335 33.032 500.935 33.1013 500.583 33.24C500.231 33.3787 499.954 33.6187 499.751 33.96C499.559 34.3013 499.463 34.776 499.463 35.384V39H497.415ZM507.426 39.192C506.658 39.192 505.965 39.016 505.346 38.664C504.738 38.312 504.253 37.8267 503.89 37.208C503.538 36.5787 503.362 35.8533 503.362 35.032C503.362 34.2107 503.543 33.4907 503.906 32.872C504.269 32.2427 504.754 31.752 505.362 31.4C505.981 31.048 506.674 30.872 507.442 30.872C508.199 30.872 508.882 31.048 509.49 31.4C510.109 31.752 510.594 32.2427 510.946 32.872C511.309 33.4907 511.49 34.2107 511.49 35.032C511.49 35.8533 511.309 36.5787 510.946 37.208C510.594 37.8267 510.109 38.312 509.49 38.664C508.871 39.016 508.183 39.192 507.426 39.192ZM507.426 37.416C507.959 37.416 508.423 37.2187 508.818 36.824C509.213 36.4187 509.41 35.8213 509.41 35.032C509.41 34.2427 509.213 33.6507 508.818 33.256C508.423 32.8507 507.965 32.648 507.442 32.648C506.898 32.648 506.429 32.8507 506.034 33.256C505.65 33.6507 505.458 34.2427 505.458 35.032C505.458 35.8213 505.65 36.4187 506.034 36.824C506.429 37.2187 506.893 37.416 507.426 37.416ZM516.297 39.192C515.305 39.192 514.537 38.8827 513.993 38.264C513.46 37.6453 513.193 36.7387 513.193 35.544V31.064H515.225V35.352C515.225 36.0347 515.364 36.5573 515.641 36.92C515.919 37.2827 516.356 37.464 516.953 37.464C517.519 37.464 517.983 37.2613 518.345 36.856C518.719 36.4507 518.905 35.8853 518.905 35.16V31.064H520.953V39H519.145L518.985 37.656C518.74 38.1253 518.383 38.4987 517.913 38.776C517.455 39.0533 516.916 39.192 516.297 39.192ZM523.056 39V31.064H524.864L525.024 32.408C525.269 31.9387 525.621 31.5653 526.08 31.288C526.549 31.0107 527.098 30.872 527.728 30.872C528.709 30.872 529.472 31.1813 530.016 31.8C530.56 32.4187 530.832 33.3253 530.832 34.52V39H528.784V34.712C528.784 34.0293 528.645 33.5067 528.368 33.144C528.09 32.7813 527.658 32.6 527.072 32.6C526.496 32.6 526.021 32.8027 525.648 33.208C525.285 33.6133 525.104 34.1787 525.104 34.904V39H523.056ZM536.438 39.192C535.691 39.192 535.025 39.0107 534.438 38.648C533.851 38.2853 533.387 37.7893 533.046 37.16C532.705 36.5307 532.534 35.816 532.534 35.016C532.534 34.216 532.705 33.5067 533.046 32.888C533.387 32.2587 533.851 31.768 534.438 31.416C535.025 31.0533 535.691 30.872 536.438 30.872C537.035 30.872 537.558 30.984 538.006 31.208C538.454 31.432 538.817 31.7467 539.094 32.152V27.48H541.142V39H539.318L539.094 37.864C538.838 38.216 538.497 38.5253 538.07 38.792C537.654 39.0587 537.11 39.192 536.438 39.192ZM536.87 37.4C537.531 37.4 538.07 37.1813 538.486 36.744C538.913 36.296 539.126 35.7253 539.126 35.032C539.126 34.3387 538.913 33.7733 538.486 33.336C538.07 32.888 537.531 32.664 536.87 32.664C536.219 32.664 535.681 32.8827 535.254 33.32C534.827 33.7573 534.614 34.3227 534.614 35.016C534.614 35.7093 534.827 36.28 535.254 36.728C535.681 37.176 536.219 37.4 536.87 37.4Z" fill="#705F44"/>
<path d="M224.912 467.192C224.091 467.192 223.365 467.053 222.736 466.776C222.107 466.488 221.611 466.083 221.248 465.56C220.885 465.027 220.699 464.381 220.688 463.624H222.848C222.869 464.147 223.056 464.589 223.408 464.952C223.771 465.304 224.267 465.48 224.896 465.48C225.44 465.48 225.872 465.352 226.192 465.096C226.512 464.829 226.672 464.477 226.672 464.04C226.672 463.581 226.528 463.224 226.24 462.968C225.963 462.712 225.589 462.504 225.12 462.344C224.651 462.184 224.149 462.013 223.616 461.832C222.752 461.533 222.091 461.149 221.632 460.68C221.184 460.211 220.96 459.587 220.96 458.808C220.949 458.147 221.104 457.581 221.424 457.112C221.755 456.632 222.203 456.264 222.768 456.008C223.333 455.741 223.984 455.608 224.72 455.608C225.467 455.608 226.123 455.741 226.688 456.008C227.264 456.275 227.712 456.648 228.032 457.128C228.363 457.608 228.539 458.179 228.56 458.84H226.368C226.357 458.445 226.203 458.099 225.904 457.8C225.616 457.491 225.211 457.336 224.688 457.336C224.24 457.325 223.861 457.437 223.552 457.672C223.253 457.896 223.104 458.227 223.104 458.664C223.104 459.037 223.221 459.336 223.456 459.56C223.691 459.773 224.011 459.955 224.416 460.104C224.821 460.253 225.285 460.413 225.808 460.584C226.363 460.776 226.869 461 227.328 461.256C227.787 461.512 228.155 461.853 228.432 462.28C228.709 462.696 228.848 463.235 228.848 463.896C228.848 464.483 228.699 465.027 228.4 465.528C228.101 466.029 227.659 466.435 227.072 466.744C226.485 467.043 225.765 467.192 224.912 467.192ZM234.443 467.192C233.643 467.192 232.934 467.021 232.315 466.68C231.696 466.339 231.211 465.859 230.859 465.24C230.507 464.621 230.331 463.907 230.331 463.096C230.331 462.275 230.502 461.544 230.843 460.904C231.195 460.264 231.675 459.768 232.283 459.416C232.902 459.053 233.627 458.872 234.459 458.872C235.238 458.872 235.926 459.043 236.523 459.384C237.12 459.725 237.584 460.195 237.915 460.792C238.256 461.379 238.427 462.035 238.427 462.76C238.427 462.877 238.422 463 238.411 463.128C238.411 463.256 238.406 463.389 238.395 463.528H232.363C232.406 464.147 232.619 464.632 233.003 464.984C233.398 465.336 233.872 465.512 234.427 465.512C234.843 465.512 235.19 465.421 235.467 465.24C235.755 465.048 235.968 464.803 236.107 464.504H238.187C238.038 465.005 237.787 465.464 237.435 465.88C237.094 466.285 236.667 466.605 236.155 466.84C235.654 467.075 235.083 467.192 234.443 467.192ZM234.459 460.536C233.958 460.536 233.515 460.68 233.131 460.968C232.747 461.245 232.502 461.672 232.395 462.248H236.347C236.315 461.725 236.123 461.309 235.771 461C235.419 460.691 234.982 460.536 234.459 460.536ZM244.037 467.192C243.227 467.192 242.512 467.016 241.893 466.664C241.275 466.312 240.784 465.821 240.421 465.192C240.069 464.563 239.893 463.843 239.893 463.032C239.893 462.221 240.069 461.501 240.421 460.872C240.784 460.243 241.275 459.752 241.893 459.4C242.512 459.048 243.227 458.872 244.037 458.872C245.051 458.872 245.904 459.139 246.597 459.672C247.291 460.195 247.733 460.92 247.925 461.848H245.765C245.659 461.464 245.445 461.165 245.125 460.952C244.816 460.728 244.448 460.616 244.021 460.616C243.456 460.616 242.976 460.829 242.581 461.256C242.187 461.683 241.989 462.275 241.989 463.032C241.989 463.789 242.187 464.381 242.581 464.808C242.976 465.235 243.456 465.448 244.021 465.448C244.448 465.448 244.816 465.341 245.125 465.128C245.445 464.915 245.659 464.611 245.765 464.216H247.925C247.733 465.112 247.291 465.832 246.597 466.376C245.904 466.92 245.051 467.192 244.037 467.192ZM253.551 467.192C252.783 467.192 252.09 467.016 251.471 466.664C250.863 466.312 250.378 465.827 250.015 465.208C249.663 464.579 249.487 463.853 249.487 463.032C249.487 462.211 249.668 461.491 250.031 460.872C250.394 460.243 250.879 459.752 251.487 459.4C252.106 459.048 252.799 458.872 253.567 458.872C254.324 458.872 255.007 459.048 255.615 459.4C256.234 459.752 256.719 460.243 257.071 460.872C257.434 461.491 257.615 462.211 257.615 463.032C257.615 463.853 257.434 464.579 257.071 465.208C256.719 465.827 256.234 466.312 255.615 466.664C254.996 467.016 254.308 467.192 253.551 467.192ZM253.551 465.416C254.084 465.416 254.548 465.219 254.943 464.824C255.338 464.419 255.535 463.821 255.535 463.032C255.535 462.243 255.338 461.651 254.943 461.256C254.548 460.851 254.09 460.648 253.567 460.648C253.023 460.648 252.554 460.851 252.159 461.256C251.775 461.651 251.583 462.243 251.583 463.032C251.583 463.821 251.775 464.419 252.159 464.824C252.554 465.219 253.018 465.416 253.551 465.416ZM259.446 467V459.064H261.254L261.414 460.408C261.66 459.939 262.012 459.565 262.47 459.288C262.94 459.011 263.489 458.872 264.118 458.872C265.1 458.872 265.862 459.181 266.406 459.8C266.95 460.419 267.222 461.325 267.222 462.52V467H265.174V462.712C265.174 462.029 265.036 461.507 264.758 461.144C264.481 460.781 264.049 460.6 263.462 460.6C262.886 460.6 262.412 460.803 262.038 461.208C261.676 461.613 261.494 462.179 261.494 462.904V467H259.446ZM272.829 467.192C272.082 467.192 271.415 467.011 270.829 466.648C270.242 466.285 269.778 465.789 269.437 465.16C269.095 464.531 268.925 463.816 268.925 463.016C268.925 462.216 269.095 461.507 269.437 460.888C269.778 460.259 270.242 459.768 270.829 459.416C271.415 459.053 272.082 458.872 272.829 458.872C273.426 458.872 273.949 458.984 274.397 459.208C274.845 459.432 275.207 459.747 275.485 460.152V455.48H277.533V467H275.709L275.485 465.864C275.229 466.216 274.887 466.525 274.461 466.792C274.045 467.059 273.501 467.192 272.829 467.192ZM273.261 465.4C273.922 465.4 274.461 465.181 274.877 464.744C275.303 464.296 275.517 463.725 275.517 463.032C275.517 462.339 275.303 461.773 274.877 461.336C274.461 460.888 273.922 460.664 273.261 460.664C272.61 460.664 272.071 460.883 271.645 461.32C271.218 461.757 271.005 462.323 271.005 463.016C271.005 463.709 271.218 464.28 271.645 464.728C272.071 465.176 272.61 465.4 273.261 465.4ZM282.354 467.192C281.671 467.192 281.111 467.085 280.674 466.872C280.237 466.648 279.911 466.355 279.698 465.992C279.485 465.629 279.378 465.229 279.378 464.792C279.378 464.056 279.666 463.459 280.242 463C280.818 462.541 281.682 462.312 282.834 462.312H284.85V462.12C284.85 461.576 284.695 461.176 284.386 460.92C284.077 460.664 283.693 460.536 283.234 460.536C282.818 460.536 282.455 460.637 282.146 460.84C281.837 461.032 281.645 461.32 281.57 461.704H279.57C279.623 461.128 279.815 460.627 280.146 460.2C280.487 459.773 280.925 459.448 281.458 459.224C281.991 458.989 282.589 458.872 283.25 458.872C284.381 458.872 285.271 459.155 285.922 459.72C286.573 460.285 286.898 461.085 286.898 462.12V467H285.154L284.962 465.72C284.727 466.147 284.397 466.499 283.97 466.776C283.554 467.053 283.015 467.192 282.354 467.192ZM282.818 465.592C283.405 465.592 283.858 465.4 284.178 465.016C284.509 464.632 284.717 464.157 284.802 463.592H283.058C282.514 463.592 282.125 463.693 281.89 463.896C281.655 464.088 281.538 464.328 281.538 464.616C281.538 464.925 281.655 465.165 281.89 465.336C282.125 465.507 282.434 465.592 282.818 465.592ZM288.853 467V459.064H290.677L290.869 460.552C291.157 460.04 291.546 459.635 292.036 459.336C292.538 459.027 293.125 458.872 293.797 458.872V461.032H293.221C292.773 461.032 292.373 461.101 292.021 461.24C291.669 461.379 291.391 461.619 291.189 461.96C290.997 462.301 290.901 462.776 290.901 463.384V467H288.853ZM296.188 470.52L298.028 466.472H297.548L294.46 459.064H296.684L298.908 464.648L301.228 459.064H303.404L298.364 470.52H296.188ZM308.604 467V455.8H313.1C314.262 455.8 315.148 456.072 315.756 456.616C316.374 457.149 316.684 457.837 316.684 458.68C316.684 459.384 316.492 459.949 316.108 460.376C315.734 460.792 315.276 461.075 314.732 461.224C315.372 461.352 315.9 461.672 316.316 462.184C316.732 462.685 316.94 463.272 316.94 463.944C316.94 464.829 316.62 465.56 315.98 466.136C315.34 466.712 314.433 467 313.26 467H308.604ZM310.652 460.504H312.796C313.372 460.504 313.814 460.371 314.124 460.104C314.433 459.837 314.588 459.459 314.588 458.968C314.588 458.499 314.433 458.131 314.124 457.864C313.825 457.587 313.372 457.448 312.764 457.448H310.652V460.504ZM310.652 465.336H312.94C313.548 465.336 314.017 465.197 314.348 464.92C314.689 464.632 314.86 464.232 314.86 463.72C314.86 463.197 314.684 462.787 314.332 462.488C313.98 462.189 313.505 462.04 312.908 462.04H310.652V465.336ZM321.385 467.192C320.703 467.192 320.143 467.085 319.705 466.872C319.268 466.648 318.943 466.355 318.729 465.992C318.516 465.629 318.409 465.229 318.409 464.792C318.409 464.056 318.697 463.459 319.273 463C319.849 462.541 320.713 462.312 321.865 462.312H323.881V462.12C323.881 461.576 323.727 461.176 323.417 460.92C323.108 460.664 322.724 460.536 322.265 460.536C321.849 460.536 321.487 460.637 321.177 460.84C320.868 461.032 320.676 461.32 320.601 461.704H318.601C318.655 461.128 318.847 460.627 319.177 460.2C319.519 459.773 319.956 459.448 320.489 459.224C321.023 458.989 321.62 458.872 322.281 458.872C323.412 458.872 324.303 459.155 324.953 459.72C325.604 460.285 325.929 461.085 325.929 462.12V467H324.185L323.993 465.72C323.759 466.147 323.428 466.499 323.001 466.776C322.585 467.053 322.047 467.192 321.385 467.192ZM321.849 465.592C322.436 465.592 322.889 465.4 323.209 465.016C323.54 464.632 323.748 464.157 323.833 463.592H322.089C321.545 463.592 321.156 463.693 320.921 463.896C320.687 464.088 320.569 464.328 320.569 464.616C320.569 464.925 320.687 465.165 320.921 465.336C321.156 465.507 321.465 465.592 321.849 465.592ZM331.772 467.192C330.961 467.192 330.246 467.016 329.628 466.664C329.009 466.312 328.518 465.821 328.156 465.192C327.804 464.563 327.628 463.843 327.628 463.032C327.628 462.221 327.804 461.501 328.156 460.872C328.518 460.243 329.009 459.752 329.628 459.4C330.246 459.048 330.961 458.872 331.772 458.872C332.785 458.872 333.638 459.139 334.332 459.672C335.025 460.195 335.468 460.92 335.66 461.848H333.5C333.393 461.464 333.18 461.165 332.86 460.952C332.55 460.728 332.182 460.616 331.756 460.616C331.19 460.616 330.71 460.829 330.316 461.256C329.921 461.683 329.724 462.275 329.724 463.032C329.724 463.789 329.921 464.381 330.316 464.808C330.71 465.235 331.19 465.448 331.756 465.448C332.182 465.448 332.55 465.341 332.86 465.128C333.18 464.915 333.393 464.611 333.5 464.216H335.66C335.468 465.112 335.025 465.832 334.332 466.376C333.638 466.92 332.785 467.192 331.772 467.192ZM337.478 467V455.48H339.526V462.28L342.342 459.064H344.774L341.526 462.68L345.302 467H342.742L339.526 463.016V467H337.478ZM349.931 464.632C349.547 464.632 349.19 464.589 348.859 464.504L348.267 465.096C348.449 465.192 348.694 465.272 349.003 465.336C349.313 465.4 349.814 465.464 350.507 465.528C351.563 465.624 352.331 465.875 352.811 466.28C353.291 466.685 353.531 467.245 353.531 467.96C353.531 468.429 353.403 468.872 353.147 469.288C352.891 469.715 352.497 470.056 351.963 470.312C351.43 470.579 350.747 470.712 349.915 470.712C348.785 470.712 347.873 470.499 347.179 470.072C346.486 469.656 346.139 469.027 346.139 468.184C346.139 467.469 346.486 466.851 347.179 466.328C346.966 466.232 346.779 466.131 346.619 466.024C346.47 465.917 346.337 465.805 346.219 465.688V465.32L347.611 463.848C346.993 463.304 346.683 462.605 346.683 461.752C346.683 461.219 346.811 460.733 347.067 460.296C347.334 459.859 347.707 459.512 348.187 459.256C348.667 459 349.249 458.872 349.931 458.872C350.379 458.872 350.795 458.936 351.179 459.064H354.187V460.312L352.827 460.408C353.041 460.813 353.147 461.261 353.147 461.752C353.147 462.285 353.019 462.771 352.763 463.208C352.507 463.645 352.134 463.992 351.643 464.248C351.163 464.504 350.593 464.632 349.931 464.632ZM349.931 463.064C350.347 463.064 350.689 462.952 350.955 462.728C351.233 462.504 351.371 462.184 351.371 461.768C351.371 461.352 351.233 461.032 350.955 460.808C350.689 460.584 350.347 460.472 349.931 460.472C349.494 460.472 349.142 460.584 348.875 460.808C348.609 461.032 348.475 461.352 348.475 461.768C348.475 462.184 348.609 462.504 348.875 462.728C349.142 462.952 349.494 463.064 349.931 463.064ZM348.011 467.976C348.011 468.371 348.193 468.664 348.555 468.856C348.929 469.059 349.382 469.16 349.915 469.16C350.427 469.16 350.843 469.053 351.163 468.84C351.483 468.637 351.643 468.36 351.643 468.008C351.643 467.72 351.537 467.48 351.323 467.288C351.121 467.096 350.71 466.979 350.091 466.936C349.654 466.904 349.249 466.856 348.875 466.792C348.566 466.963 348.342 467.149 348.203 467.352C348.075 467.555 348.011 467.763 348.011 467.976ZM355.681 467V459.064H357.505L357.697 460.552C357.985 460.04 358.374 459.635 358.865 459.336C359.366 459.027 359.953 458.872 360.625 458.872V461.032H360.049C359.601 461.032 359.201 461.101 358.849 461.24C358.497 461.379 358.219 461.619 358.017 461.96C357.825 462.301 357.729 462.776 357.729 463.384V467H355.681ZM365.692 467.192C364.924 467.192 364.23 467.016 363.612 466.664C363.004 466.312 362.518 465.827 362.156 465.208C361.804 464.579 361.628 463.853 361.628 463.032C361.628 462.211 361.809 461.491 362.172 460.872C362.534 460.243 363.02 459.752 363.628 459.4C364.246 459.048 364.94 458.872 365.708 458.872C366.465 458.872 367.148 459.048 367.756 459.4C368.374 459.752 368.86 460.243 369.212 460.872C369.574 461.491 369.756 462.211 369.756 463.032C369.756 463.853 369.574 464.579 369.212 465.208C368.86 465.827 368.374 466.312 367.756 466.664C367.137 467.016 366.449 467.192 365.692 467.192ZM365.692 465.416C366.225 465.416 366.689 465.219 367.084 464.824C367.478 464.419 367.676 463.821 367.676 463.032C367.676 462.243 367.478 461.651 367.084 461.256C366.689 460.851 366.23 460.648 365.708 460.648C365.164 460.648 364.694 460.851 364.3 461.256C363.916 461.651 363.724 462.243 363.724 463.032C363.724 463.821 363.916 464.419 364.3 464.824C364.694 465.219 365.158 465.416 365.692 465.416ZM374.563 467.192C373.571 467.192 372.803 466.883 372.259 466.264C371.726 465.645 371.459 464.739 371.459 463.544V459.064H373.491V463.352C373.491 464.035 373.63 464.557 373.907 464.92C374.184 465.283 374.622 465.464 375.219 465.464C375.784 465.464 376.248 465.261 376.611 464.856C376.984 464.451 377.171 463.885 377.171 463.16V459.064H379.219V467H377.411L377.251 465.656C377.006 466.125 376.648 466.499 376.179 466.776C375.72 467.053 375.182 467.192 374.563 467.192ZM381.321 467V459.064H383.129L383.289 460.408C383.535 459.939 383.887 459.565 384.345 459.288C384.815 459.011 385.364 458.872 385.993 458.872C386.975 458.872 387.737 459.181 388.281 459.8C388.825 460.419 389.097 461.325 389.097 462.52V467H387.049V462.712C387.049 462.029 386.911 461.507 386.633 461.144C386.356 460.781 385.924 460.6 385.337 460.6C384.761 460.6 384.287 460.803 383.913 461.208C383.551 461.613 383.369 462.179 383.369 462.904V467H381.321ZM394.704 467.192C393.957 467.192 393.29 467.011 392.704 466.648C392.117 466.285 391.653 465.789 391.312 465.16C390.97 464.531 390.8 463.816 390.8 463.016C390.8 462.216 390.97 461.507 391.312 460.888C391.653 460.259 392.117 459.768 392.704 459.416C393.29 459.053 393.957 458.872 394.704 458.872C395.301 458.872 395.824 458.984 396.272 459.208C396.72 459.432 397.082 459.747 397.36 460.152V455.48H399.408V467H397.584L397.36 465.864C397.104 466.216 396.762 466.525 396.336 466.792C395.92 467.059 395.376 467.192 394.704 467.192ZM395.136 465.4C395.797 465.4 396.336 465.181 396.752 464.744C397.178 464.296 397.392 463.725 397.392 463.032C397.392 462.339 397.178 461.773 396.752 461.336C396.336 460.888 395.797 460.664 395.136 460.664C394.485 460.664 393.946 460.883 393.52 461.32C393.093 461.757 392.88 462.323 392.88 463.016C392.88 463.709 393.093 464.28 393.52 464.728C393.946 465.176 394.485 465.4 395.136 465.4Z" fill="#705F44"/>
<path d="M26.088 315V303.8H29.912C31.224 303.8 32.3013 304.035 33.144 304.504C33.9973 304.963 34.6267 305.613 35.032 306.456C35.448 307.288 35.656 308.269 35.656 309.4C35.656 310.531 35.448 311.517 35.032 312.36C34.6267 313.192 33.9973 313.843 33.144 314.312C32.3013 314.771 31.224 315 29.912 315H26.088ZM28.136 313.24H29.816C30.7547 313.24 31.496 313.091 32.04 312.792C32.584 312.483 32.9733 312.045 33.208 311.48C33.4427 310.904 33.56 310.211 33.56 309.4C33.56 308.6 33.4427 307.912 33.208 307.336C32.9733 306.76 32.584 306.317 32.04 306.008C31.496 305.699 30.7547 305.544 29.816 305.544H28.136V313.24ZM40.151 315.192C39.4683 315.192 38.9083 315.085 38.471 314.872C38.0337 314.648 37.7083 314.355 37.495 313.992C37.2817 313.629 37.175 313.229 37.175 312.792C37.175 312.056 37.463 311.459 38.039 311C38.615 310.541 39.479 310.312 40.631 310.312H42.647V310.12C42.647 309.576 42.4923 309.176 42.183 308.92C41.8737 308.664 41.4897 308.536 41.031 308.536C40.615 308.536 40.2523 308.637 39.943 308.84C39.6337 309.032 39.4417 309.32 39.367 309.704H37.367C37.4203 309.128 37.6123 308.627 37.943 308.2C38.2843 307.773 38.7217 307.448 39.255 307.224C39.7883 306.989 40.3857 306.872 41.047 306.872C42.1777 306.872 43.0683 307.155 43.719 307.72C44.3697 308.285 44.695 309.085 44.695 310.12V315H42.951L42.759 313.72C42.5243 314.147 42.1937 314.499 41.767 314.776C41.351 315.053 40.8123 315.192 40.151 315.192ZM40.615 313.592C41.2017 313.592 41.655 313.4 41.975 313.016C42.3057 312.632 42.5137 312.157 42.599 311.592H40.855C40.311 311.592 39.9217 311.693 39.687 311.896C39.4523 312.088 39.335 312.328 39.335 312.616C39.335 312.925 39.4523 313.165 39.687 313.336C39.9217 313.507 40.231 313.592 40.615 313.592ZM46.6494 315V307.064H48.4734L48.6654 308.552C48.9534 308.04 49.3427 307.635 49.8334 307.336C50.3347 307.027 50.9214 306.872 51.5934 306.872V309.032H51.0174C50.5694 309.032 50.1694 309.101 49.8174 309.24C49.4654 309.379 49.188 309.619 48.9854 309.96C48.7934 310.301 48.6974 310.776 48.6974 311.384V315H46.6494ZM52.9931 315V303.48H55.0411V310.28L57.8571 307.064H60.2891L57.0411 310.68L60.8171 315H58.2571L55.0411 311.016V315H52.9931Z" fill="#705F44"/>
</svg>
