<?xml version="1.0" encoding="UTF-8"?>
<svg id="Layer_1" xmlns="http://www.w3.org/2000/svg" version="1.1" viewBox="0 0 577 499">
  <!-- Generator: Adobe Illustrator 29.0.1, SVG Export Plug-In . SVG Version: 2.1.0 Build 192)  -->
  <defs>
    <style>
      .st0 {
        fill: #79addc;
      }

      .st1 {
        fill: #a7bf87;
      }

      .st2 {
        fill: #567751;
      }

      .st3 {
        fill: #627952;
      }

      .st4 {
        fill: #465939;
      }

      .st5 {
        fill: #fff;
      }

      .st6 {
        fill: #ff9e88;
      }

      .st7 {
        fill: #5c5c6d;
      }

      .st8 {
        fill: #3f4636;
      }

      .st9 {
        fill: #f78b98;
      }

      .st10 {
        fill: #eee1cc;
      }

      .st11 {
        fill: #705f44;
      }

      .st12 {
        fill: #f3f3f3;
      }
    </style>
  </defs>
  <rect class="st12" x="1" width="576" height="498.5"/>
  <path class="st5" d="M429,497H.7s0-9.1,0-140c43.1-58.8,112.7-97,191.3-97,130.9,0,237,106.1,237,237Z"/>
  <circle class="st1" cx="193.5" cy="192.5" r="168.5"/>
  <circle class="st11" cx="450.4" cy="151.5" r="83"/>
  <circle class="st3" cx="127" cy="251" r="89"/>
  <circle class="st4" cx="153.4" cy="329.1" r="65"/>
  <circle class="st8" cx="201.5" cy="399.4" r="49"/>
  <circle class="st10" cx="494.9" cy="219" r="44.5"/>
  <path class="st7" d="M527.7,348.3l-14.4,1.8c-1.9.2-3.4,2.6-4.4,4.3l-8.4,15.3c-2.6,4.9-8.6,4.6-10.9,1.7l-5.2-12.4c-1.2-1.4-3.2-2-5-1.4l-16.2,2.4c-3.6,1.2-7-2.2-5.5-5.5l6.2-12.4c.7-1.7.2-3.6-1.2-4.8l-9.6-7.5c-2.9-2.3-1.8-5.8,2.2-7.3l11.2-4.8c1.6-.5,4-3,4.7-4.8l4.8-13.9c1.5-6.2,10.4-7.8,13.4-1.9l4.9,11c1,2.3,2.5,2.1,5,1.4l16.8-5.8c3.6-1.2,7,2.2,5.5,5.5l-6.8,15.8c-.7,1.7-.2,3.6,1.2,4.8l13.7,11c2.9,2.3,1.5,6.9-2.2,7.3h0Z"/>
  <path class="st0" d="M410.8,422.9l-15.1-15.9c-9.9-9.7-2.7-19.9,4.2-27.7l9.7-12c6.9-8.6,15-18.5,29.7-7.5l25.3,23.6c12.6,11.8,3.9,19.4-4,30.7l-8,11.1c-11.2,14.9-28.5,11.8-41.7-2.2h0Z"/>
  <path class="st6" d="M272.4,287c2.2-2.1,3.4-5.1,3.4-8.2h0c0-20.2,16.2-36.4,35.9-36,18.6.4,33.8,16,34.2,35,.5,20.2-15.4,36.8-35.1,36.8h0c-4.5,0-8.9,1.4-12.6,4.1-3.6,2.7-8.2,4.3-13.1,4-10.5-.6-19-9.5-19.2-20.2-.1-6.2,2.4-11.7,6.4-15.6h0Z"/>
  <path class="st2" d="M410.4,331h-3.9c-18.5,0-30.2-11.3-33.3-27.2l-5-29.9c0-10.1,8-17.2,22.7-18.4l35.5-4.3c10-1.5,24,5.6,21.5,17.1l-6.6,35.4c-4.5,14.6-12.5,27.3-30.9,27.3h0Z"/>
  <path class="st9" d="M378.5,354.7c-.5-7.6-5.9-13.7-12.8-14.6-1.4-.2-3.5.2-5.1.5-1.1.2-2.1-.5-2.5-1.7-1.6-5.3-6.2-8.8-12.6-8.8s-5.6.8-7.7,2.1c-2,1.2-4.5.9-6.2-.7-2.4-2.5-5.7-3.9-9.3-3.7-6.6.3-12,6.3-12.4,13.7,0,.6,0,1.2,0,1.8.2,2.5-.8,5-2.5,6.6-5.5,4.9-8.9,11.3-8.9,18.4,0,13.1,11.4,24,26.6,26.7,1.8.3,3.4,1.7,4,3.7,1.6,5.4,5.5,9.2,10.1,9.2s6.2-1.9,8.2-4.9c1-1.6,2.9-2.2,4.6-1.5,1.4.6,2.9.9,4.5.9,6.5,0,14.4-5.7,11.7-11.4-.6-1.2-2.8-5,1.1-5.7,3.4-.5,9.3-3.4,9.3-10s-.4-4-1.1-5.8c-.9-2.3-1-5,0-7.3.9-2.2,1.3-4.7,1.1-7.3h0Z"/>
  <g>
    <path d="M460.2,465.3v9.2h-2.1v-7.1c0,0,0,0,0,0l-2.3,7.1h-1.9l-2.3-7.1h0v2.8c0,0,0,4.2,0,4.2h-2.1v-9.2h3.4l1.5,4.7.5,2h0l.5-1.9,1.4-4.7h3.3Z"/>
    <path d="M465.9,470.1c0-.3,0-.6-.3-.8-.2-.2-.4-.3-.7-.3s-.6,0-.8.2c-.2.2-.4.4-.5.8l-2-.5c.1-.7.5-1.2,1-1.6.6-.4,1.3-.6,2.4-.6s1.3,0,1.7.3c.5.2.8.5,1.1.9.3.4.4.9.4,1.5v2.6c0,.4.2.5.5.5s.3,0,.4,0v1.4c-.4.1-.8.2-1.2.2s-.7,0-1-.2c-.3-.1-.5-.3-.7-.5-.2-.2-.2-.5-.2-.9h0c0,0,.3-.2.3-.2,0,.4-.1.7-.4,1-.2.3-.5.5-.9.6-.4.1-.8.2-1.2.2s-.9,0-1.2-.2-.6-.4-.8-.7c-.2-.3-.3-.6-.3-1.1s.2-.9.5-1.3c.3-.3.8-.6,1.4-.7l2.6-.5v1.3s-1.4.3-1.4.3c-.3,0-.5.1-.6.2s-.2.3-.2.5,0,.4.2.5c.1.1.3.2.5.2s.3,0,.5,0,.3-.1.4-.2c.1,0,.2-.2.3-.4s0-.3,0-.5v-1.8Z"/>
    <path d="M473.1,474.7c-.7,0-1.4-.1-2-.3-.6-.2-1.1-.6-1.5-1l1.1-1.3c.2.3.6.5.9.7.4.2.8.3,1.3.3s.5,0,.7-.1c.2,0,.3-.2.3-.4s0-.2-.1-.3c0,0-.3-.2-.6-.2l-1-.2c-.9-.2-1.5-.4-1.9-.8-.4-.4-.6-.8-.6-1.4s.1-.7.4-1.1c.2-.3.6-.6,1.1-.9.5-.2,1.1-.3,1.9-.3s1.3.1,1.9.3,1,.5,1.3.9l-1.1,1.3c-.2-.3-.5-.5-.9-.7-.4-.2-.7-.2-1.1-.2s-.4,0-.6,0-.3.1-.3.2c0,0-.1.2-.1.3s0,.2.2.3c.1,0,.3.2.7.2l1.3.3c.7.1,1.2.4,1.6.7.3.3.5.8.5,1.3s-.1.8-.4,1.2c-.2.4-.6.7-1.1.9s-1.1.3-1.8.3Z"/>
    <path d="M480.9,467.4c.7,0,1.3,0,1.8.3.5.2.8.5,1.1.8.3.3.4.7.5,1.1l-2.2.7c0-.4-.2-.7-.4-.9-.2-.2-.4-.3-.7-.3s-.5,0-.7.2c-.2.1-.4.4-.5.6s-.2.7-.2,1.1,0,.8.2,1.1c.1.3.3.5.5.6.2.1.4.2.7.2s.4,0,.6-.1c.2,0,.3-.2.4-.4s.2-.4.2-.6l2.1.7c0,.4-.2.8-.5,1.1-.3.3-.7.6-1.1.8s-1,.3-1.6.3-1.4-.1-2-.4c-.6-.3-1-.7-1.3-1.2-.3-.5-.5-1.2-.5-2s.2-1.4.5-2c.3-.5.7-1,1.3-1.2.6-.3,1.2-.4,1.9-.4Z"/>
    <path d="M488.8,467.4c.7,0,1.4.1,1.9.4s1,.7,1.3,1.2.5,1.2.5,2-.2,1.4-.5,2-.7,1-1.3,1.2c-.6.3-1.2.4-1.9.4s-1.4-.1-1.9-.4c-.6-.3-1-.7-1.3-1.2s-.5-1.2-.5-2,.2-1.4.5-2,.7-1,1.3-1.2c.6-.3,1.2-.4,1.9-.4ZM488.8,469.1c-.3,0-.5,0-.7.2-.2.1-.3.3-.4.6s-.2.7-.2,1.1,0,.8.2,1.1c.1.3.3.5.4.6.2.1.4.2.7.2s.5,0,.7-.2c.2-.1.3-.3.4-.6.1-.3.2-.7.2-1.1s0-.8-.2-1.1-.3-.5-.4-.6c-.2-.1-.4-.2-.7-.2Z"/>
    <path d="M498.8,467.6v1.7h-5.7v-1.7h5.7ZM496.8,465.3v6.7c0,.3,0,.6.2.7.2.1.4.2.7.2s.4,0,.6,0c.2,0,.3-.1.4-.2l.3,1.5c-.2.2-.5.3-.9.4s-.7.1-1.1.1c-.5,0-1,0-1.4-.2-.4-.1-.7-.4-.9-.7-.2-.3-.3-.8-.3-1.3v-6.5l2.4-.7Z"/>
  </g>
  <g>
    <path d="M36.9,465.2c.9,0,1.6.1,2.3.4.7.3,1.2.7,1.7,1.2l-1.2,1.6c-.4-.4-.8-.7-1.3-.9s-1-.3-1.6-.3-.6,0-.8.1c-.2,0-.4.2-.5.3s-.1.3-.1.4,0,.4.3.5c.2.1.5.2.9.3l1.6.3c.9.2,1.6.5,2,.9.4.4.6,1,.6,1.6s-.2,1.2-.5,1.7c-.3.5-.8.8-1.4,1s-1.3.3-2,.3-1.2,0-1.8-.2c-.6-.1-1.1-.3-1.5-.6-.4-.3-.8-.5-1.1-.9l1.2-1.6c.2.3.5.5.9.7.3.2.7.4,1.1.5.4.1.8.2,1.2.2s.6,0,.8,0c.2,0,.4-.2.5-.3.1-.1.2-.3.2-.5s0-.4-.2-.5c-.1-.1-.4-.2-.8-.3l-1.7-.4c-.5-.1-1-.3-1.4-.5-.4-.2-.7-.5-1-.8-.2-.3-.4-.8-.4-1.3s.2-1.1.5-1.5c.3-.5.8-.8,1.4-1.1.6-.3,1.3-.4,2.1-.4Z"/>
    <path d="M45.6,474.7c-.8,0-1.4-.1-2-.4-.6-.3-1-.7-1.3-1.2-.3-.5-.5-1.2-.5-2s.2-1.4.5-2c.3-.5.7-1,1.3-1.2.6-.3,1.2-.4,1.9-.4s1.4.1,1.9.4c.5.3.9.7,1.2,1.2.3.5.4,1.1.4,1.7s0,.3,0,.5c0,.2,0,.3,0,.4h-5.5v-1.3h4.5l-1.1.4c0-.6,0-1-.3-1.3-.2-.3-.5-.4-.9-.4s-.6,0-.8.2c-.2.1-.4.4-.5.7s-.2.7-.2,1.1,0,.8.2,1.1c.1.3.3.5.5.6.2.1.5.2.8.2s.6,0,.8-.2c.2-.1.4-.3.5-.6l1.9.6c-.1.4-.4.7-.7,1-.3.3-.7.5-1.1.6-.4.1-.9.2-1.4.2Z"/>
    <path d="M53.6,467.4c.7,0,1.3,0,1.8.3.5.2.8.5,1.1.8.3.3.4.7.5,1.1l-2.2.7c0-.4-.2-.7-.4-.9-.2-.2-.4-.3-.7-.3s-.5,0-.7.2c-.2.1-.4.4-.5.6s-.2.7-.2,1.1,0,.8.2,1.1c.1.3.3.5.5.6.2.1.4.2.7.2s.4,0,.6-.1c.2,0,.3-.2.4-.4s.2-.4.2-.6l2.1.7c0,.4-.2.8-.5,1.1-.3.3-.7.6-1.1.8s-1,.3-1.6.3-1.4-.1-2-.4c-.6-.3-1-.7-1.3-1.2-.3-.5-.5-1.2-.5-2s.2-1.4.5-2c.3-.5.7-1,1.3-1.2.6-.3,1.2-.4,1.9-.4Z"/>
    <path d="M61.5,467.4c.7,0,1.4.1,1.9.4s1,.7,1.3,1.2.5,1.2.5,2-.2,1.4-.5,2-.7,1-1.3,1.2c-.6.3-1.2.4-1.9.4s-1.4-.1-1.9-.4c-.6-.3-1-.7-1.3-1.2s-.5-1.2-.5-2,.2-1.4.5-2,.7-1,1.3-1.2c.6-.3,1.2-.4,1.9-.4ZM61.5,469.1c-.3,0-.5,0-.7.2-.2.1-.3.3-.4.6s-.2.7-.2,1.1,0,.8.2,1.1c.1.3.3.5.4.6.2.1.4.2.7.2s.5,0,.7-.2c.2-.1.3-.3.4-.6.1-.3.2-.7.2-1.1s0-.8-.2-1.1-.3-.5-.4-.6c-.2-.1-.4-.2-.7-.2Z"/>
    <path d="M66.6,474.6v-7h2.1v2.4c.1,0-.1-.3-.1-.3,0-.5.3-.9.5-1.3s.5-.6.9-.8c.4-.2.8-.3,1.2-.3s.9,0,1.3.3c.4.2.6.5.8.8.2.4.3.8.3,1.4v4.7h-2.4v-4c0-.5,0-.8-.3-1s-.4-.3-.7-.3-.4,0-.6.2c-.2.1-.4.3-.5.5-.1.2-.2.5-.2.9v3.7h-2.4Z"/>
    <path d="M77.9,474.7c-.6,0-1.1-.1-1.5-.4-.4-.3-.8-.7-1-1.2-.2-.5-.4-1.2-.4-1.9s.1-1.4.4-2,.6-1,1-1.2,1-.4,1.5-.4,1.1.2,1.5.6c.4.4.6.9.7,1.5l-.2.3v-5.2h2.4v10h-2.1l-.2-2.4.3.2c0,.5-.2.9-.4,1.2-.2.3-.5.6-.9.8-.3.2-.7.3-1.2.3ZM78.7,473c.3,0,.5,0,.7-.2s.3-.4.4-.7c.1-.3.2-.6.2-1.1s0-.7-.1-1c0-.3-.2-.5-.4-.6s-.4-.2-.7-.2c-.4,0-.7.2-1,.5-.2.3-.4.8-.4,1.4s.1,1.1.3,1.4c.2.3.6.5,1,.5Z"/>
    <path d="M88,470.1c0-.3,0-.6-.3-.8-.2-.2-.4-.3-.7-.3s-.6,0-.8.2c-.2.2-.4.4-.5.8l-2-.5c.1-.7.5-1.2,1-1.6.6-.4,1.3-.6,2.4-.6s1.3,0,1.7.3c.5.2.8.5,1.1.9.3.4.4.9.4,1.5v2.6c0,.4.2.5.5.5s.3,0,.4,0v1.4c-.4.1-.8.2-1.2.2s-.7,0-1-.2c-.3-.1-.5-.3-.7-.5-.2-.2-.2-.5-.2-.9h0c0,0,.3-.2.3-.2,0,.4-.1.7-.4,1-.2.3-.5.5-.9.6-.4.1-.8.2-1.2.2s-.9,0-1.2-.2-.6-.4-.8-.7c-.2-.3-.3-.6-.3-1.1s.2-.9.5-1.3c.3-.3.8-.6,1.4-.7l2.6-.5v1.3s-1.4.3-1.4.3c-.3,0-.5.1-.6.2s-.2.3-.2.5,0,.4.2.5c.1.1.3.2.5.2s.3,0,.5,0,.3-.1.4-.2c.1,0,.2-.2.3-.4s0-.3,0-.5v-1.8Z"/>
    <path d="M92.2,474.6v-7h2.1v1.5c.3-.5.5-.9.9-1.2.4-.3.8-.4,1.3-.4s.3,0,.5,0c.1,0,.2,0,.3.1l-.2,2c0,0-.2,0-.4,0s-.3,0-.5,0-.5,0-.8.2c-.2.1-.4.3-.6.5-.1.2-.2.5-.2.9v3.5h-2.4Z"/>
    <path d="M105.2,467.6l-2.5,7c-.3.7-.5,1.3-.9,1.8-.3.4-.7.8-1.1,1s-.9.3-1.5.3-.8,0-1.1-.1c-.3,0-.6-.2-.9-.3l.5-1.6c.2.1.3.2.5.3.2,0,.4,0,.7,0s.5,0,.7-.1c.2,0,.3-.3.4-.5l.2-.4-.8-1.9-2.1-5.2h2.6l1.1,4,.3,1.5.4-1.5,1.1-3.9h2.4Z"/>
    <path d="M109.9,474.6v-9.2h4.5c1.1,0,2,.2,2.5.7.5.4.8,1,.8,1.8s-.2,1-.5,1.4c-.3.4-.8.6-1.4.7h0c.7.1,1.2.4,1.6.7.4.4.5.9.5,1.4,0,.8-.3,1.4-.8,1.8-.6.4-1.4.7-2.5.7h-4.7ZM112.2,469.1h1.8c.9,0,1.3-.3,1.3-1s-.4-1-1.3-1h-1.8v2ZM112.2,472.9h2c.4,0,.8,0,1-.3.2-.2.3-.4.3-.8s-.1-.6-.3-.7c-.2-.2-.5-.3-1-.3h-2v2Z"/>
    <path d="M123.2,470.1c0-.3,0-.6-.3-.8-.2-.2-.4-.3-.7-.3s-.6,0-.8.2c-.2.2-.4.4-.5.8l-2-.5c.1-.7.5-1.2,1-1.6.6-.4,1.3-.6,2.4-.6s1.3,0,1.7.3c.5.2.8.5,1.1.9.3.4.4.9.4,1.5v2.6c0,.4.2.5.5.5s.3,0,.4,0v1.4c-.4.1-.8.2-1.2.2s-.7,0-1-.2c-.3-.1-.5-.3-.7-.5-.2-.2-.2-.5-.2-.9h0c0,0,.3-.2.3-.2,0,.4-.1.7-.4,1-.2.3-.5.5-.9.6-.4.1-.8.2-1.2.2s-.9,0-1.2-.2-.6-.4-.8-.7c-.2-.3-.3-.6-.3-1.1s.2-.9.5-1.3c.3-.3.8-.6,1.4-.7l2.6-.5v1.3s-1.4.3-1.4.3c-.3,0-.5.1-.6.2s-.2.3-.2.5,0,.4.2.5c.1.1.3.2.5.2s.3,0,.5,0,.3-.1.4-.2c.1,0,.2-.2.3-.4s0-.3,0-.5v-1.8Z"/>
    <path d="M130.7,467.4c.7,0,1.3,0,1.8.3.5.2.8.5,1.1.8.3.3.4.7.5,1.1l-2.2.7c0-.4-.2-.7-.4-.9-.2-.2-.4-.3-.7-.3s-.5,0-.7.2c-.2.1-.4.4-.5.6s-.2.7-.2,1.1,0,.8.2,1.1c.1.3.3.5.5.6.2.1.4.2.7.2s.4,0,.6-.1c.2,0,.3-.2.4-.4s.2-.4.2-.6l2.1.7c0,.4-.2.8-.5,1.1-.3.3-.7.6-1.1.8s-1,.3-1.6.3-1.4-.1-2-.4c-.6-.3-1-.7-1.3-1.2-.3-.5-.5-1.2-.5-2s.2-1.4.5-2c.3-.5.7-1,1.3-1.2.6-.3,1.2-.4,1.9-.4Z"/>
    <path d="M137.7,464.6v10h-2.4v-10h2.4ZM143,467.6l-3.4,3.6h-.4c0,.1-2,2.4-2,2.4v-2.4s3.2-3.5,3.2-3.5h2.6ZM140,469.7l3.2,4.9h-2.6l-2.1-3.5,1.6-1.4Z"/>
    <path d="M148.4,473c.8,0,1.4.2,1.9.5.4.3.7.8.7,1.5s-.2,1.1-.5,1.4c-.3.4-.8.7-1.3.9-.6.2-1.3.3-2,.3-1.3,0-2.2-.2-2.7-.5-.6-.3-.8-.7-.8-1.3s.2-.7.5-1c.3-.2.8-.4,1.6-.4v.2c-.6,0-1-.2-1.3-.5s-.4-.6-.4-1.1.2-.8.5-1.1c.4-.3.8-.4,1.4-.5l.9.4h-.2c-.4,0-.6,0-.8.2s-.2.2-.2.4,0,.3.2.4.3.1.6.1h2.2ZM147.2,467.4c.7,0,1.3,0,1.8.3.5.2.9.5,1.2.8.3.3.4.8.4,1.3s-.1.9-.4,1.3c-.3.4-.7.6-1.2.8-.5.2-1.1.3-1.8.3-1.1,0-2-.2-2.5-.6-.6-.4-.9-1-.9-1.8s.1-.9.4-1.3c.3-.4.7-.6,1.2-.8.5-.2,1.1-.3,1.8-.3ZM147.1,476c.4,0,.8,0,1.1,0,.3,0,.5-.1.7-.3s.2-.2.2-.4,0-.2-.2-.3-.3-.1-.6-.1h-2.5c-.2,0-.3,0-.4.1-.1,0-.2.2-.2.3,0,.2.2.4.5.5.3.1.8.2,1.3.2ZM147.2,468.8c-.3,0-.6,0-.7.3-.2.2-.3.4-.3.8s0,.6.3.7c.2.2.4.3.7.3s.5,0,.7-.3c.2-.2.3-.4.3-.7s0-.6-.3-.8c-.2-.2-.4-.3-.7-.3ZM150.8,465.7l.2,1.6c0,0-.1,0-.2,0,0,0-.1,0-.2,0-.4,0-.7.1-.9.3s-.3.5-.3.7l-.8-.3c0-.4,0-.8.2-1.1.1-.4.4-.6.7-.9.3-.2.7-.3,1.1-.3h.1s0,0,.1,0Z"/>
    <path d="M151.9,474.6v-7h2.1v1.5c.3-.5.5-.9.9-1.2.4-.3.8-.4,1.3-.4s.3,0,.5,0c.1,0,.2,0,.3.1l-.2,2c0,0-.2,0-.4,0s-.3,0-.5,0-.5,0-.8.2c-.2.1-.4.3-.6.5-.1.2-.2.5-.2.9v3.5h-2.4Z"/>
    <path d="M161.1,467.4c.7,0,1.4.1,1.9.4s1,.7,1.3,1.2.5,1.2.5,2-.2,1.4-.5,2-.7,1-1.3,1.2c-.6.3-1.2.4-1.9.4s-1.4-.1-1.9-.4c-.6-.3-1-.7-1.3-1.2s-.5-1.2-.5-2,.2-1.4.5-2,.7-1,1.3-1.2c.6-.3,1.2-.4,1.9-.4ZM161.1,469.1c-.3,0-.5,0-.7.2-.2.1-.3.3-.4.6s-.2.7-.2,1.1,0,.8.2,1.1c.1.3.3.5.4.6.2.1.4.2.7.2s.5,0,.7-.2c.2-.1.3-.3.4-.6.1-.3.2-.7.2-1.1s0-.8-.2-1.1-.3-.5-.4-.6c-.2-.1-.4-.2-.7-.2Z"/>
    <path d="M168.6,474.7c-.5,0-.9,0-1.3-.2-.4-.2-.6-.4-.8-.8-.2-.4-.3-.8-.3-1.4v-4.7h2.4v4.1c0,.4,0,.8.3.9.2.2.4.3.8.3s.3,0,.5,0c.1,0,.3-.2.4-.3s.2-.3.3-.5c0-.2,0-.4,0-.7v-3.8h2.4v7h-2.1v-1.3c-.3.5-.6.9-1,1.1s-.9.4-1.5.4Z"/>
    <path d="M174.9,474.6v-7h2.1v2.4c.1,0-.1-.3-.1-.3,0-.5.3-.9.5-1.3s.5-.6.9-.8c.4-.2.8-.3,1.2-.3s.9,0,1.3.3c.4.2.6.5.8.8.2.4.3.8.3,1.4v4.7h-2.4v-4c0-.5,0-.8-.3-1s-.4-.3-.7-.3-.4,0-.6.2c-.2.1-.4.3-.5.5-.1.2-.2.5-.2.9v3.7h-2.4Z"/>
    <path d="M186.1,474.7c-.6,0-1.1-.1-1.5-.4-.4-.3-.8-.7-1-1.2-.2-.5-.4-1.2-.4-1.9s.1-1.4.4-2,.6-1,1-1.2,1-.4,1.5-.4,1.1.2,1.5.6c.4.4.6.9.7,1.5l-.2.3v-5.2h2.4v10h-2.1l-.2-2.4.3.2c0,.5-.2.9-.4,1.2-.2.3-.5.6-.9.8-.3.2-.7.3-1.2.3ZM186.9,473c.3,0,.5,0,.7-.2s.3-.4.4-.7c.1-.3.2-.6.2-1.1s0-.7-.1-1c0-.3-.2-.5-.4-.6s-.4-.2-.7-.2c-.4,0-.7.2-1,.5-.2.3-.4.8-.4,1.4s.1,1.1.3,1.4c.2.3.6.5,1,.5Z"/>
  </g>
  <g>
    <path class="st5" d="M105.1,93c.8,0,1.4.1,1.9.4.5.2.9.6,1.2,1,.3.5.4,1,.4,1.7s-.1,1.2-.4,1.7c-.3.5-.7.8-1.2,1-.5.2-1.2.4-1.9.4h-1.8v3.1h-2.4v-9.2h4.2ZM104.7,97.4c.5,0,.9-.1,1.1-.3.3-.2.4-.5.4-1s-.1-.7-.4-1c-.3-.2-.6-.3-1.1-.3h-1.5v2.5h1.5Z"/>
    <path class="st5" d="M110,102.2v-7h2.1v1.5c.3-.5.5-.9.9-1.2.4-.3.8-.4,1.3-.4s.3,0,.5,0c.1,0,.2,0,.3.1l-.2,2c0,0-.2,0-.4,0s-.3,0-.5,0-.5,0-.8.2c-.2.1-.4.3-.6.5-.1.2-.2.5-.2.9v3.5h-2.4Z"/>
    <path class="st5" d="M117.2,94.4c-.5,0-.8,0-1.1-.3-.2-.2-.3-.5-.3-.9s.1-.7.3-.9c.2-.2.6-.3,1.1-.3s.8,0,1,.3c.2.2.3.5.3.9s-.1.7-.3.9c-.2.2-.6.3-1,.3ZM118.4,95.2v7h-2.4v-7h2.4Z"/>
    <path class="st5" d="M120.1,102.2v-7h2.1v1.4c.3-.5.6-.9,1-1.1s.9-.4,1.4-.4,1,.1,1.4.3.7.6.9,1c.1-.3.3-.6.6-.8.2-.2.5-.4.8-.5.3-.1.6-.2,1-.2.5,0,.9,0,1.2.3.4.2.6.5.8.8.2.4.3.8.3,1.4v4.7h-2.4v-4.1c0-.4,0-.8-.3-.9-.2-.2-.4-.3-.7-.3s-.4,0-.6.2c-.2.1-.3.3-.4.5s-.2.5-.2.9v3.7h-2.4v-4.1c0-.4,0-.8-.3-.9s-.4-.3-.7-.3-.4,0-.6.2c-.2.1-.3.3-.5.5-.1.2-.2.5-.2.9v3.7h-2.4Z"/>
    <path class="st5" d="M137.2,97.8c0-.3,0-.6-.3-.8-.2-.2-.4-.3-.7-.3s-.6,0-.8.2c-.2.2-.4.4-.5.8l-2-.5c.1-.7.5-1.2,1-1.6.6-.4,1.3-.6,2.4-.6s1.3,0,1.7.3c.5.2.8.5,1.1.9.3.4.4.9.4,1.5v2.6c0,.4.2.5.5.5s.3,0,.4,0v1.4c-.4.1-.8.2-1.2.2s-.7,0-1-.2c-.3-.1-.5-.3-.7-.5-.2-.2-.2-.5-.2-.9h0c0,0,.3-.2.3-.2,0,.4-.1.7-.4,1-.2.3-.5.5-.9.6-.4.1-.8.2-1.2.2s-.9,0-1.2-.2-.6-.4-.8-.7c-.2-.3-.3-.6-.3-1.1s.2-.9.5-1.3c.3-.3.8-.6,1.4-.7l2.6-.5v1.3s-1.4.3-1.4.3c-.3,0-.5.1-.6.2s-.2.3-.2.5,0,.4.2.5c.1.1.3.2.5.2s.3,0,.5,0,.3-.1.4-.2c.1,0,.2-.2.3-.4s0-.3,0-.5v-1.8Z"/>
    <path class="st5" d="M141.4,102.2v-7h2.1v1.5c.3-.5.5-.9.9-1.2.4-.3.8-.4,1.3-.4s.3,0,.5,0c.1,0,.2,0,.3.1l-.2,2c0,0-.2,0-.4,0s-.3,0-.5,0-.5,0-.8.2c-.2.1-.4.3-.6.5-.1.2-.2.5-.2.9v3.5h-2.4Z"/>
    <path class="st5" d="M154.4,95.2l-2.5,7c-.3.7-.5,1.3-.9,1.8-.3.4-.7.8-1.1,1s-.9.3-1.5.3-.8,0-1.1-.1c-.3,0-.6-.2-.9-.3l.5-1.6c.2.1.3.2.5.3.2,0,.4,0,.7,0s.5,0,.7-.1c.2,0,.3-.3.4-.5l.2-.4-.8-1.9-2.1-5.2h2.6l1.1,4,.3,1.5.4-1.5,1.1-3.9h2.4Z"/>
  </g>
  <g>
    <path class="st5" d="M409,92.9c.9,0,1.6.1,2.3.4.7.3,1.2.7,1.7,1.2l-1.2,1.6c-.4-.4-.8-.7-1.3-.9s-1-.3-1.6-.3-.6,0-.8.1c-.2,0-.4.2-.5.3,0,.1-.1.3-.1.4s0,.4.3.5c.2.1.5.2.9.3l1.6.3c.9.2,1.6.5,2,.9.4.4.6,1,.6,1.6s-.2,1.2-.5,1.7c-.3.5-.8.8-1.4,1-.6.2-1.3.3-2,.3s-1.2,0-1.8-.2c-.6-.1-1.1-.3-1.5-.6-.4-.3-.8-.5-1.1-.9l1.2-1.6c.2.3.5.5.9.7s.7.4,1.1.5c.4.1.8.2,1.2.2s.6,0,.8,0c.2,0,.4-.2.5-.3.1-.1.2-.3.2-.5s0-.4-.2-.5c-.1-.1-.4-.2-.8-.3l-1.7-.4c-.5-.1-1-.3-1.4-.5-.4-.2-.7-.5-1-.8s-.4-.8-.4-1.3.2-1.1.5-1.5c.3-.5.8-.8,1.4-1.1.6-.3,1.3-.4,2.1-.4Z"/>
    <path class="st5" d="M417.7,102.4c-.8,0-1.4-.1-2-.4s-1-.7-1.3-1.2c-.3-.5-.5-1.2-.5-2s.2-1.4.5-2c.3-.5.7-1,1.3-1.2.6-.3,1.2-.4,1.9-.4s1.4.1,1.9.4c.5.3.9.7,1.2,1.2.3.5.4,1.1.4,1.7s0,.3,0,.5c0,.2,0,.3,0,.4h-5.5v-1.3h4.5l-1.1.4c0-.6,0-1-.3-1.3-.2-.3-.5-.4-.9-.4s-.6,0-.8.2c-.2.1-.4.4-.5.7s-.2.7-.2,1.1,0,.8.2,1.1c.1.3.3.5.5.6.2.1.5.2.8.2s.6,0,.8-.2.4-.3.5-.6l1.9.6c-.1.4-.4.7-.7,1-.3.3-.7.5-1.1.6-.4.1-.9.2-1.4.2Z"/>
    <path class="st5" d="M425.7,95.1c.7,0,1.3,0,1.8.3.5.2.8.5,1.1.8.3.3.4.7.5,1.1l-2.2.7c0-.4-.2-.7-.4-.9-.2-.2-.4-.3-.7-.3s-.5,0-.7.2c-.2.1-.4.4-.5.6s-.2.7-.2,1.1,0,.8.2,1.1c.1.3.3.5.5.6.2.1.4.2.7.2s.4,0,.6-.1c.2,0,.3-.2.4-.4s.2-.4.2-.6l2.1.7c0,.4-.2.8-.5,1.1-.3.3-.7.6-1.1.8s-1,.3-1.6.3-1.4-.1-2-.4c-.6-.3-1-.7-1.3-1.2-.3-.5-.5-1.2-.5-2s.2-1.4.5-2c.3-.5.7-1,1.3-1.2.6-.3,1.2-.4,1.9-.4Z"/>
    <path class="st5" d="M433.7,95.1c.7,0,1.4.1,1.9.4s1,.7,1.3,1.2.5,1.2.5,2-.2,1.4-.5,2-.7,1-1.3,1.2c-.6.3-1.2.4-1.9.4s-1.4-.1-1.9-.4c-.6-.3-1-.7-1.3-1.2s-.5-1.2-.5-2,.2-1.4.5-2,.7-1,1.3-1.2c.6-.3,1.2-.4,1.9-.4ZM433.7,96.8c-.3,0-.5,0-.7.2-.2.1-.3.3-.4.6s-.2.7-.2,1.1,0,.8.2,1.1c.1.3.3.5.4.6.2.1.4.2.7.2s.5,0,.7-.2c.2-.1.3-.3.4-.6.1-.3.2-.7.2-1.1s0-.8-.2-1.1-.3-.5-.4-.6c-.2-.1-.4-.2-.7-.2Z"/>
    <path class="st5" d="M438.7,102.2v-7h2.1v2.4c.1,0-.1-.3-.1-.3,0-.5.3-.9.5-1.3s.5-.6.9-.8c.4-.2.8-.3,1.2-.3s.9,0,1.3.3c.4.2.6.5.8.8.2.4.3.8.3,1.4v4.7h-2.4v-4c0-.5,0-.8-.3-1s-.4-.3-.7-.3-.4,0-.6.2c-.2.1-.4.3-.5.5-.1.2-.2.5-.2.9v3.7h-2.4Z"/>
    <path class="st5" d="M450,102.4c-.6,0-1.1-.1-1.5-.4-.4-.3-.8-.7-1-1.2-.2-.5-.4-1.2-.4-1.9s.1-1.4.4-2,.6-1,1-1.2,1-.4,1.5-.4,1.1.2,1.5.6c.4.4.6.9.7,1.5l-.2.3v-5.2h2.4v10h-2.1l-.2-2.4.3.2c0,.5-.2.9-.4,1.2-.2.3-.5.6-.9.8-.3.2-.7.3-1.2.3ZM450.8,100.6c.3,0,.5,0,.7-.2s.3-.4.4-.7c.1-.3.2-.6.2-1.1s0-.7-.1-1c0-.3-.2-.5-.4-.6s-.4-.2-.7-.2c-.4,0-.7.2-1,.5-.2.3-.4.8-.4,1.4s.1,1.1.3,1.4c.2.3.6.5,1,.5Z"/>
    <path class="st5" d="M460.1,97.8c0-.3,0-.6-.3-.8-.2-.2-.4-.3-.7-.3s-.6,0-.8.2c-.2.2-.4.4-.5.8l-2-.5c.1-.7.5-1.2,1-1.6.6-.4,1.3-.6,2.4-.6s1.3,0,1.7.3c.5.2.8.5,1.1.9.3.4.4.9.4,1.5v2.6c0,.4.2.5.5.5s.3,0,.4,0v1.4c-.4.1-.8.2-1.2.2s-.7,0-1-.2c-.3-.1-.5-.3-.7-.5-.2-.2-.2-.5-.2-.9h0c0,0,.3-.2.3-.2,0,.4-.1.7-.4,1-.2.3-.5.5-.9.6-.4.1-.8.2-1.2.2s-.9,0-1.2-.2-.6-.4-.8-.7c-.2-.3-.3-.6-.3-1.1s.2-.9.5-1.3c.3-.3.8-.6,1.4-.7l2.6-.5v1.3s-1.4.3-1.4.3c-.3,0-.5.1-.6.2s-.2.3-.2.5,0,.4.2.5c.1.1.3.2.5.2s.3,0,.5,0,.3-.1.4-.2c.1,0,.2-.2.3-.4s0-.3,0-.5v-1.8Z"/>
    <path class="st5" d="M464.3,102.2v-7h2.1v1.5c.3-.5.5-.9.9-1.2.4-.3.8-.4,1.3-.4s.3,0,.5,0c.1,0,.2,0,.3.1l-.2,2c0,0-.2,0-.4,0s-.3,0-.5,0-.5,0-.8.2c-.2.1-.4.3-.6.5-.1.2-.2.5-.2.9v3.5h-2.4Z"/>
    <path class="st5" d="M477.3,95.2l-2.5,7c-.3.7-.5,1.3-.9,1.8-.3.4-.7.8-1.1,1s-.9.3-1.5.3-.8,0-1.1-.1c-.3,0-.6-.2-.9-.3l.5-1.6c.2.1.3.2.5.3.2,0,.4,0,.7,0s.5,0,.7-.1c.2,0,.3-.3.4-.5l.2-.4-.8-1.9-2.1-5.2h2.6l1.1,4,.3,1.5.4-1.5,1.1-3.9h2.4Z"/>
  </g>
  <g>
    <path d="M421.2,28.5c.8,0,1.4.1,1.9.4.5.2.9.6,1.2,1,.3.5.4,1,.4,1.7s-.1,1.2-.4,1.7c-.3.5-.7.8-1.2,1-.5.2-1.2.4-1.9.4h-1.8v3.1h-2.4v-9.2h4.2ZM420.8,32.8c.5,0,.9-.1,1.1-.3.3-.2.4-.5.4-1s-.1-.7-.4-1c-.3-.2-.6-.3-1.1-.3h-1.5v2.5h1.5Z"/>
    <path d="M426.1,37.7v-7h2.1v1.5c.3-.5.5-.9.9-1.2.4-.3.8-.4,1.3-.4s.3,0,.5,0c.1,0,.2,0,.3.1l-.2,2c0,0-.2,0-.4,0s-.3,0-.5,0-.5,0-.8.2c-.2.1-.4.3-.6.5-.1.2-.2.5-.2.9v3.5h-2.4Z"/>
    <path d="M433.3,29.9c-.5,0-.8,0-1.1-.3-.2-.2-.3-.5-.3-.9s.1-.7.3-.9c.2-.2.6-.3,1.1-.3s.8,0,1,.3c.2.2.3.5.3.9s-.1.7-.3.9c-.2.2-.6.3-1,.3ZM434.5,30.7v7h-2.4v-7h2.4Z"/>
    <path d="M436.2,37.7v-7h2.1v1.4c.3-.5.6-.9,1-1.1s.9-.4,1.4-.4,1,.1,1.4.3.7.6.9,1c.1-.3.3-.6.6-.8.2-.2.5-.4.8-.5.3-.1.6-.2,1-.2.5,0,.9,0,1.2.3.4.2.6.5.8.8.2.4.3.8.3,1.4v4.7h-2.4v-4.1c0-.4,0-.8-.3-.9-.2-.2-.4-.3-.7-.3s-.4,0-.6.2c-.2.1-.3.3-.4.5s-.2.5-.2.9v3.7h-2.4v-4.1c0-.4,0-.8-.3-.9s-.4-.3-.7-.3-.4,0-.6.2c-.2.1-.3.3-.5.5-.1.2-.2.5-.2.9v3.7h-2.4Z"/>
    <path d="M453.3,33.3c0-.3,0-.6-.3-.8-.2-.2-.4-.3-.7-.3s-.6,0-.8.2c-.2.2-.4.4-.5.8l-2-.5c.1-.7.5-1.2,1-1.6.6-.4,1.3-.6,2.4-.6s1.3,0,1.7.3c.5.2.8.5,1.1.9.3.4.4.9.4,1.5v2.6c0,.4.2.5.5.5s.3,0,.4,0v1.4c-.4.1-.8.2-1.2.2s-.7,0-1-.2c-.3-.1-.5-.3-.7-.5-.2-.2-.2-.5-.2-.9h0c0,0,.3-.2.3-.2,0,.4-.1.7-.4,1-.2.3-.5.5-.9.6-.4.1-.8.2-1.2.2s-.9,0-1.2-.2-.6-.4-.8-.7c-.2-.3-.3-.6-.3-1.1s.2-.9.5-1.3c.3-.3.8-.6,1.4-.7l2.6-.5v1.3s-1.4.3-1.4.3c-.3,0-.5.1-.6.2s-.2.3-.2.5,0,.4.2.5c.1.1.3.2.5.2s.3,0,.5,0,.3-.1.4-.2c.1,0,.2-.2.3-.4s0-.3,0-.5v-1.8Z"/>
    <path d="M457.5,37.7v-7h2.1v1.5c.3-.5.5-.9.9-1.2.4-.3.8-.4,1.3-.4s.3,0,.5,0c.1,0,.2,0,.3.1l-.2,2c0,0-.2,0-.4,0s-.3,0-.5,0-.5,0-.8.2c-.2.1-.4.3-.6.5-.1.2-.2.5-.2.9v3.5h-2.4Z"/>
    <path d="M470.5,30.7l-2.5,7c-.3.7-.5,1.3-.9,1.8-.3.4-.7.8-1.1,1s-.9.3-1.5.3-.8,0-1.1-.1c-.3,0-.6-.2-.9-.3l.5-1.6c.2.1.3.2.5.3.2,0,.4,0,.7,0s.5,0,.7-.1c.2,0,.3-.3.4-.5l.2-.4-.8-1.9-2.1-5.2h2.6l1.1,4,.3,1.5.4-1.5,1.1-3.9h2.4Z"/>
    <path d="M475.3,37.7v-9.2h4.5c1.1,0,2,.2,2.5.7.5.4.8,1,.8,1.8s-.2,1-.5,1.4c-.3.4-.8.6-1.4.7h0c.7.1,1.2.4,1.6.7.4.4.5.9.5,1.4,0,.8-.3,1.4-.8,1.8-.6.4-1.4.7-2.5.7h-4.7ZM477.6,32.3h1.8c.9,0,1.3-.3,1.3-1s-.4-1-1.3-1h-1.8v2ZM477.6,36h2c.4,0,.8,0,1-.3.2-.2.3-.4.3-.8s-.1-.6-.3-.7c-.2-.2-.5-.3-1-.3h-2v2Z"/>
    <path d="M488.6,33.3c0-.3,0-.6-.3-.8-.2-.2-.4-.3-.7-.3s-.6,0-.8.2c-.2.2-.4.4-.5.8l-2-.5c.1-.7.5-1.2,1-1.6.6-.4,1.3-.6,2.4-.6s1.3,0,1.7.3c.5.2.8.5,1.1.9.3.4.4.9.4,1.5v2.6c0,.4.2.5.5.5s.3,0,.4,0v1.4c-.4.1-.8.2-1.2.2s-.7,0-1-.2c-.3-.1-.5-.3-.7-.5-.2-.2-.2-.5-.2-.9h0c0,0,.3-.2.3-.2,0,.4-.1.7-.4,1-.2.3-.5.5-.9.6-.4.1-.8.2-1.2.2s-.9,0-1.2-.2-.6-.4-.8-.7c-.2-.3-.3-.6-.3-1.1s.2-.9.5-1.3c.3-.3.8-.6,1.4-.7l2.6-.5v1.3s-1.4.3-1.4.3c-.3,0-.5.1-.6.2s-.2.3-.2.5,0,.4.2.5c.1.1.3.2.5.2s.3,0,.5,0,.3-.1.4-.2c.1,0,.2-.2.3-.4s0-.3,0-.5v-1.8Z"/>
    <path d="M496,30.6c.7,0,1.3,0,1.8.3.5.2.8.5,1.1.8.3.3.4.7.5,1.1l-2.2.7c0-.4-.2-.7-.4-.9-.2-.2-.4-.3-.7-.3s-.5,0-.7.2c-.2.1-.4.4-.5.6s-.2.7-.2,1.1,0,.8.2,1.1c.1.3.3.5.5.6.2.1.4.2.7.2s.4,0,.6-.1c.2,0,.3-.2.4-.4s.2-.4.2-.6l2.1.7c0,.4-.2.8-.5,1.1-.3.3-.7.6-1.1.8s-1,.3-1.6.3-1.4-.1-2-.4c-.6-.3-1-.7-1.3-1.2-.3-.5-.5-1.2-.5-2s.2-1.4.5-2c.3-.5.7-1,1.3-1.2.6-.3,1.2-.4,1.9-.4Z"/>
    <path d="M503,27.8v10h-2.4v-10h2.4ZM508.3,30.7l-3.4,3.6h-.4c0,.1-2,2.4-2,2.4v-2.4s3.2-3.5,3.2-3.5h2.6ZM505.3,32.8l3.2,4.9h-2.6l-2.1-3.5,1.6-1.4Z"/>
    <path d="M513.7,36.2c.8,0,1.4.2,1.9.5.4.3.7.8.7,1.5s-.2,1.1-.5,1.4c-.3.4-.8.7-1.3.9-.6.2-1.3.3-2,.3-1.3,0-2.2-.2-2.7-.5-.6-.3-.8-.7-.8-1.3s.2-.7.5-1c.3-.2.8-.4,1.6-.4v.2c-.6,0-1-.2-1.3-.5s-.4-.6-.4-1.1.2-.8.5-1.1c.4-.3.8-.4,1.4-.5l.9.4h-.2c-.4,0-.6,0-.8.2s-.2.2-.2.4,0,.3.2.4.3.1.6.1h2.2ZM512.5,30.6c.7,0,1.3,0,1.8.3.5.2.9.5,1.2.8.3.3.4.8.4,1.3s-.1.9-.4,1.3c-.3.4-.7.6-1.2.8-.5.2-1.1.3-1.8.3-1.1,0-2-.2-2.5-.6-.6-.4-.9-1-.9-1.8s.1-.9.4-1.3c.3-.4.7-.6,1.2-.8.5-.2,1.1-.3,1.8-.3ZM512.4,39.2c.4,0,.8,0,1.1,0,.3,0,.5-.1.7-.3s.2-.2.2-.4,0-.2-.2-.3-.3-.1-.6-.1h-2.5c-.2,0-.3,0-.4.1-.1,0-.2.2-.2.3,0,.2.2.4.5.5.3.1.8.2,1.3.2ZM512.5,32c-.3,0-.6,0-.7.3-.2.2-.3.4-.3.8s0,.6.3.7c.2.2.4.3.7.3s.5,0,.7-.3c.2-.2.3-.4.3-.7s0-.6-.3-.8c-.2-.2-.4-.3-.7-.3ZM516.1,28.9l.2,1.6c0,0-.1,0-.2,0,0,0-.1,0-.2,0-.4,0-.7.1-.9.3s-.3.5-.3.7l-.8-.3c0-.4,0-.8.2-1.1.1-.4.4-.6.7-.9.3-.2.7-.3,1.1-.3h.1s0,0,.1,0Z"/>
    <path d="M517.2,37.7v-7h2.1v1.5c.3-.5.5-.9.9-1.2.4-.3.8-.4,1.3-.4s.3,0,.5,0c.1,0,.2,0,.3.1l-.2,2c0,0-.2,0-.4,0s-.3,0-.5,0-.5,0-.8.2c-.2.1-.4.3-.6.5-.1.2-.2.5-.2.9v3.5h-2.4Z"/>
    <path d="M526.5,30.6c.7,0,1.4.1,1.9.4s1,.7,1.3,1.2.5,1.2.5,2-.2,1.4-.5,2-.7,1-1.3,1.2c-.6.3-1.2.4-1.9.4s-1.4-.1-1.9-.4c-.6-.3-1-.7-1.3-1.2s-.5-1.2-.5-2,.2-1.4.5-2,.7-1,1.3-1.2c.6-.3,1.2-.4,1.9-.4ZM526.5,32.3c-.3,0-.5,0-.7.2-.2.1-.3.3-.4.6s-.2.7-.2,1.1,0,.8.2,1.1c.1.3.3.5.4.6.2.1.4.2.7.2s.5,0,.7-.2c.2-.1.3-.3.4-.6.1-.3.2-.7.2-1.1s0-.8-.2-1.1-.3-.5-.4-.6c-.2-.1-.4-.2-.7-.2Z"/>
    <path d="M533.9,37.9c-.5,0-.9,0-1.3-.2-.4-.2-.6-.4-.8-.8-.2-.4-.3-.8-.3-1.4v-4.7h2.4v4.1c0,.4,0,.8.3.9.2.2.4.3.8.3s.3,0,.5,0c.1,0,.3-.2.4-.3s.2-.3.3-.5c0-.2,0-.4,0-.7v-3.8h2.4v7h-2.1v-1.3c-.3.5-.6.9-1,1.1s-.9.4-1.5.4Z"/>
    <path d="M540.2,37.7v-7h2.1v2.4c.1,0-.1-.3-.1-.3,0-.5.3-.9.5-1.3s.5-.6.9-.8c.4-.2.8-.3,1.2-.3s.9,0,1.3.3c.4.2.6.5.8.8.2.4.3.8.3,1.4v4.7h-2.4v-4c0-.5,0-.8-.3-1s-.4-.3-.7-.3-.4,0-.6.2c-.2.1-.4.3-.5.5-.1.2-.2.5-.2.9v3.7h-2.4Z"/>
    <path d="M551.4,37.9c-.6,0-1.1-.1-1.5-.4-.4-.3-.8-.7-1-1.2-.2-.5-.4-1.2-.4-1.9s.1-1.4.4-2,.6-1,1-1.2,1-.4,1.5-.4,1.1.2,1.5.6c.4.4.6.9.7,1.5l-.2.3v-5.2h2.4v10h-2.1l-.2-2.4.3.2c0,.5-.2.9-.4,1.2-.2.3-.5.6-.9.8-.3.2-.7.3-1.2.3ZM552.3,36.1c.3,0,.5,0,.7-.2s.3-.4.4-.7c.1-.3.2-.6.2-1.1s0-.7-.1-1c0-.3-.2-.5-.4-.6s-.4-.2-.7-.2c-.4,0-.7.2-1,.5-.2.3-.4.8-.4,1.4s.1,1.1.3,1.4c.2.3.6.5,1,.5Z"/>
  </g>
</svg>