<?xml version="1.0" encoding="UTF-8"?>
<svg id="Layer_1" xmlns="http://www.w3.org/2000/svg" version="1.1" viewBox="0 0 553.1 162">
  <!-- Generator: Adobe Illustrator 29.0.1, SVG Export Plug-In . SVG Version: 2.1.0 Build 192)  -->
  <defs>
    <style>
      .st0 {
        fill: #a7bf87;
      }

      .st1 {
        fill: #465939;
      }

      .st2 {
        fill: #fff;
      }
    </style>
  </defs>
  <path class="st1" d="M217.1,101.9c-1.4,0-2.5-.4-3.4-1.3-.9-.9-1.3-2-1.3-3.3v-43.4h9.7v43.4c0,1.3-.5,2.4-1.4,3.3-.9.8-2.1,1.3-3.5,1.3ZM200.6,58.1c-1.3,0-2.4-.4-3.3-1.2-.8-.8-1.3-1.8-1.3-3.1s.4-2.3,1.3-3.1c.9-.8,2-1.2,3.3-1.2h33.2c1.3,0,2.4.4,3.2,1.2.9.8,1.3,1.8,1.3,3.1s-.4,2.3-1.3,3.1c-.8.7-1.9,1.1-3.2,1.1h-33.2ZM245.5,101.9c-1.3,0-2.4-.4-3.2-1.3-.8-.9-1.3-2-1.3-3.3v-30.9c0-1.3.4-2.4,1.3-3.2.8-.9,1.9-1.3,3.2-1.3s2.4.4,3.2,1.3c.8.8,1.3,1.9,1.3,3.2v7l-.5-5c.5-1.2,1.2-2.2,2.1-3.1.9-.9,1.9-1.7,3-2.3,1.1-.6,2.3-1.1,3.5-1.4,1.2-.3,2.5-.4,3.7-.4s2.7.4,3.7,1.3c1,.8,1.6,1.8,1.6,3,0,1.6-.4,2.8-1.3,3.6-.8.7-1.8,1-2.8,1s-1.8-.2-2.6-.5c-.7-.3-1.6-.5-2.6-.5s-1.8.2-2.8.7c-.9.4-1.7,1-2.5,1.9-.7.9-1.4,2-1.9,3.4-.4,1.3-.7,2.8-.7,4.6v17.7c0,1.3-.4,2.4-1.3,3.3-.8.8-1.9,1.3-3.2,1.3ZM305.4,61.1c1.3,0,2.4.4,3.2,1.3.8.8,1.3,1.9,1.3,3.3v31.7c0,1.3-.4,2.4-1.3,3.3-.8.8-1.9,1.3-3.2,1.3s-2.4-.4-3.2-1.3c-.8-.9-1.3-2-1.3-3.3v-3.7l1.6.7c0,.6-.3,1.4-1,2.4-.7.9-1.6,1.8-2.8,2.7-1.2.9-2.6,1.7-4.3,2.3-1.6.6-3.3.9-5.2.9-3.4,0-6.6-.9-9.4-2.6-2.8-1.8-5-4.2-6.7-7.3-1.6-3.1-2.4-6.7-2.4-10.8s.8-7.7,2.4-10.8c1.6-3.1,3.8-5.6,6.6-7.3,2.7-1.8,5.8-2.7,9.1-2.7s4.1.3,5.9,1c1.8.6,3.3,1.5,4.6,2.5,1.3,1,2.4,2,3.1,3.1.7,1,1.1,1.8,1.1,2.5l-2.7,1v-5.5c0-1.3.4-2.4,1.3-3.2.8-.9,1.9-1.3,3.2-1.3ZM290.3,94.4c2.2,0,4.1-.5,5.8-1.6,1.6-1.1,2.9-2.6,3.8-4.5.9-1.9,1.4-4,1.4-6.4s-.5-4.5-1.4-6.4c-.9-1.9-2.2-3.4-3.8-4.5-1.6-1.1-3.6-1.6-5.8-1.6s-4,.5-5.7,1.6c-1.6,1.1-2.9,2.6-3.9,4.5-.9,1.9-1.3,4-1.3,6.4s.4,4.5,1.3,6.4c.9,1.9,2.2,3.4,3.9,4.5,1.6,1.1,3.5,1.6,5.7,1.6ZM341.1,61.1c3.7,0,6.5.8,8.4,2.3,1.9,1.5,3.3,3.6,4,6.2.7,2.5,1.1,5.4,1.1,8.5v19.2c0,1.3-.4,2.4-1.3,3.3-.8.8-1.9,1.3-3.2,1.3s-2.4-.4-3.2-1.3c-.8-.9-1.3-2-1.3-3.3v-19.2c0-1.6-.2-3.1-.7-4.4-.4-1.3-1.1-2.4-2.2-3.2-1.1-.8-2.7-1.2-4.7-1.2s-3.7.4-5.1,1.2c-1.3.8-2.4,1.9-3.1,3.2-.7,1.3-1,2.8-1,4.4v19.2c0,1.3-.4,2.4-1.3,3.3-.8.8-1.9,1.3-3.2,1.3s-2.4-.4-3.2-1.3c-.8-.9-1.3-2-1.3-3.3v-30.9c0-1.3.4-2.4,1.3-3.2.8-.9,1.9-1.3,3.2-1.3s2.4.4,3.2,1.3c.8.8,1.3,1.9,1.3,3.2v3.2l-1.1-.2c.4-.8,1.1-1.7,1.9-2.7.8-1,1.8-1.9,3-2.8,1.1-.8,2.4-1.5,3.9-2,1.4-.5,3-.8,4.7-.8ZM397.1,61.9c1.3,0,2.4.4,3.2,1.3.8.8,1.3,1.9,1.3,3.3v45.9c0,1.3-.4,2.4-1.3,3.2-.8.9-1.9,1.3-3.2,1.3s-2.4-.4-3.2-1.3c-.8-.8-1.3-1.9-1.3-3.2v-18.6l1.6.7c0,.6-.3,1.4-1,2.4-.7.9-1.6,1.8-2.8,2.7-1.2.9-2.6,1.7-4.3,2.3-1.6.6-3.3.9-5.2.9-3.4,0-6.6-.9-9.4-2.6-2.8-1.8-5-4.2-6.7-7.3-1.6-3.1-2.4-6.7-2.4-10.8s.8-7.7,2.4-10.8c1.6-3.1,3.8-5.6,6.6-7.3,2.7-1.8,5.8-2.7,9.1-2.7s4.1.3,5.9,1c1.8.6,3.3,1.5,4.6,2.5,1.3,1,2.4,2,3.1,3.1.7,1,1.1,1.8,1.1,2.5l-2.7,1v-4.7c0-1.3.4-2.4,1.3-3.2.8-.9,1.9-1.3,3.2-1.3ZM381.9,94.4c2.2,0,4.1-.5,5.8-1.6,1.6-1.1,2.9-2.6,3.8-4.5.9-1.9,1.4-4,1.4-6.4s-.5-4.5-1.4-6.4c-.9-1.9-2.2-3.4-3.8-4.5-1.6-1.1-3.6-1.6-5.8-1.6s-4,.5-5.7,1.6c-1.6,1.1-2.9,2.6-3.9,4.5-.9,1.9-1.3,4-1.3,6.4s.4,4.5,1.3,6.4c.9,1.9,2.2,3.4,3.9,4.5,1.6,1.1,3.5,1.6,5.7,1.6ZM441,61.9c1.3,0,2.4.4,3.2,1.3.8.8,1.3,1.9,1.3,3.2v19c0,5.3-1.5,9.5-4.4,12.6-2.9,3.1-7.2,4.6-12.7,4.6s-9.8-1.5-12.7-4.6c-2.9-3.1-4.3-7.3-4.3-12.6v-19c0-1.3.4-2.4,1.3-3.2.8-.9,1.9-1.3,3.2-1.3s2.4.4,3.2,1.3c.8.8,1.3,1.9,1.3,3.2v19c0,3,.7,5.3,2,6.8,1.3,1.4,3.4,2.2,6.1,2.2s4.8-.7,6.1-2.2c1.3-1.5,2-3.8,2-6.8v-19c0-1.3.4-2.4,1.3-3.2.8-.9,1.9-1.3,3.2-1.3ZM463.7,97.3c0,1.3-.4,2.4-1.3,3.3-.8.8-1.9,1.3-3.2,1.3s-2.4-.4-3.2-1.3c-.8-.9-1.3-2-1.3-3.3v-30.9c0-1.3.4-2.4,1.3-3.2.8-.9,1.9-1.3,3.2-1.3s2.4.4,3.2,1.3c.8.8,1.3,1.9,1.3,3.2v30.9ZM459.1,57c-1.7,0-2.9-.3-3.6-.8-.7-.5-1-1.5-1-2.9v-1.4c0-1.4.4-2.4,1.1-2.9.8-.5,2-.8,3.6-.8s3,.3,3.7.8c.7.5,1,1.5,1,2.9v1.4c0,1.4-.4,2.4-1.1,3-.7.5-2,.7-3.7.7ZM493.5,46.5c1.1,0,2.2.1,3.2.4s1.9.8,2.6,1.5c.7.6,1,1.5,1,2.6s-.4,2.2-1.1,3c-.7.7-1.5,1-2.5,1s-1.1,0-2-.3c-.9-.2-1.8-.4-2.6-.4-1.2,0-2.2.3-2.9.8-.6.5-1.1,1.2-1.3,1.9-.3.7-.4,1.3-.4,1.9v38.3c0,1.3-.4,2.4-1.3,3.3-.8.8-1.9,1.3-3.2,1.3s-2.4-.4-3.2-1.3c-.8-.9-1.3-2-1.3-3.3v-38.2c0-3.5,1.2-6.5,3.7-9,2.5-2.4,6.2-3.7,11.2-3.7ZM494.3,62.6c1.2,0,2.2.4,3,1.2.8.7,1.2,1.7,1.2,2.9s-.4,2.2-1.2,3c-.8.7-1.8,1.1-3,1.1h-19.8c-1.2,0-2.2-.4-3-1.1-.8-.8-1.2-1.8-1.2-3s.4-2.2,1.2-2.9c.8-.8,1.8-1.2,3-1.2h19.8ZM535.3,61.9c1.3,0,2.4.4,3.2,1.3.8.8,1.3,1.9,1.3,3.2v31.8c0,4.6-.9,8.2-2.6,10.9-1.7,2.7-4,4.7-6.9,5.9-2.9,1.2-6.1,1.8-9.7,1.8s-3.3-.1-5.1-.4c-1.8-.2-3.3-.6-4.4-1.1-1.5-.6-2.5-1.5-3.1-2.5-.5-.9-.6-2-.3-3.1.4-1.4,1.2-2.4,2.2-3,1-.5,2-.5,3.1-.1.8.3,1.8.6,3.1,1.1,1.3.5,2.8.8,4.5.8s4.2-.3,5.7-1c1.5-.6,2.7-1.6,3.4-3.1.8-1.4,1.2-3.4,1.2-6v-5l1.6,1.8c-.8,1.6-1.9,3-3.2,4.1-1.2,1-2.7,1.8-4.5,2.4-1.7.5-3.7.8-6,.8s-5-.6-7-1.8c-1.9-1.2-3.5-2.9-4.6-5.1-1.1-2.2-1.6-4.7-1.6-7.5v-21.9c0-1.3.4-2.4,1.3-3.2.8-.9,1.9-1.3,3.2-1.3s2.4.4,3.2,1.3c.8.8,1.3,1.9,1.3,3.2v19.2c0,3.2.7,5.5,2.1,6.9,1.4,1.3,3.4,1.9,6,1.9s3.2-.3,4.4-1c1.2-.7,2.1-1.7,2.8-3,.6-1.3,1-3,1-4.9v-19.2c0-1.3.4-2.4,1.3-3.2.8-.9,1.9-1.3,3.2-1.3Z"/>
  <path class="st0" d="M141.9,1.8H20.1C10,1.8,1.8,10,1.8,20.1v109.4c18.8,24.8,48.3,12.6,64.7-4.1,1.7-1.7,4.2-2.4,6.6-1.9,28.3,6.1,76.2-10.9,76.2-49.6v-6.6c0-2.7.9-5.4,2.5-7.6,3.3-4.4,6.1-8.7,8.3-12.8v-26.8c0-10.1-8.2-18.3-18.2-18.3h0Z"/>
  <path class="st0" d="M140,0H22C9.9,0,0,9.9,0,22v118.1c0,12.1,9.9,22,22,22h118.1c12.1,0,22-9.9,22-22V22c0-12.1-9.9-22-22-22ZM159.5,140c0,10.7-8.7,19.4-19.4,19.4H22c-10.7,0-19.4-8.7-19.4-19.4V22C2.5,11.2,11.2,2.5,22,2.5h118.1c10.7,0,19.4,8.7,19.4,19.4v118.1Z"/>
  <path class="st2" d="M46.1,44.2c-3,0-6.4-.9-10.3-3.1-.7-.4-1-1.3-.5-2,.4-.7,1.4-.9,2.1-.5,5.3,3,12.9,5,18.9-2.9.5-.7,1.5-.8,2.1-.3.7.5.8,1.4.3,2.1-2.2,3-6.3,6.8-12.6,6.8h0Z"/>
  <path class="st2" d="M78.8,36.8c-2.3,0-4.9-.5-8-1.7-.7-.3-1.1-1.2-.8-1.9.3-.8,1.1-1.2,1.9-.8,5.5,2.2,13,3.1,17.4-5.7.4-.7,1.2-1,2-.6.7.4,1,1.3.6,2-1.9,3.7-5.8,8.9-13.1,8.9h0Z"/>
  <path class="st2" d="M50.8,66.3c-10.4,0-19.5-2.1-26.1-6.2-.7-.4-.9-1.4-.5-2.2.4-.7,1.4-1,2.1-.5,23.6,14.8,68.7.3,89-21.9.6-.6,1.5-.7,2.1,0,.6.6.6,1.6,0,2.2-11.6,12.7-29,22.4-47.8,26.5-6.5,1.4-12.9,2.1-18.9,2.1h0Z"/>
</svg>