<?xml version="1.0" encoding="UTF-8"?>
<svg id="Layer_1" xmlns="http://www.w3.org/2000/svg" xmlns:xlink="http://www.w3.org/1999/xlink" version="1.1" viewBox="0 0 983 727">
  <!-- Generator: Adobe Illustrator 29.1.0, SVG Export Plug-In . SVG Version: 2.1.0 Build 142)  -->
  <defs>
    <style>
      .st0 {
        fill: #a7bf87;
      }

      .st1 {
        fill: #a7a7a7;
      }

      .st2 {
        isolation: isolate;
        opacity: .5;
      }

      .st3 {
        fill: #465939;
      }

      .st4 {
        fill: #fff;
      }

      .st5 {
        fill: #f3f3f3;
      }
    </style>
  </defs>
  <path class="st5" d="M30,0h923c16.6,0,30,13.4,30,30v667c0,16.6-13.4,30-30,30H30c-16.6,0-30-13.4-30-30V30C0,13.4,13.4,0,30,0Z"/>
  <path class="st3" d="M120.4,435c-.7,0-1.2-.2-1.7-.6-.4-.4-.6-1-.6-1.6v-20.9h4.7v20.9c0,.6-.2,1.2-.7,1.6-.5.4-1,.6-1.7.6ZM112.4,413.9c-.6,0-1.2-.2-1.6-.6s-.6-.9-.6-1.5.2-1.1.6-1.5,1-.6,1.6-.6h16c.6,0,1.1.2,1.5.6s.6.9.6,1.5-.2,1.1-.6,1.5c-.4.4-.9.5-1.5.5h-16ZM134,435c-.6,0-1.1-.2-1.5-.6s-.6-1-.6-1.6v-14.9c0-.6.2-1.1.6-1.5.4-.4.9-.6,1.5-.6s1.1.2,1.5.6.6.9.6,1.5v3.4l-.3-2.4c.3-.6.6-1.1,1-1.5.4-.5.9-.8,1.4-1.1.5-.3,1.1-.5,1.7-.7.6-.1,1.2-.2,1.8-.2s1.3.2,1.8.6.8.9.8,1.4c0,.8-.2,1.4-.6,1.7-.4.3-.9.5-1.3.5s-.9-.1-1.3-.3c-.4-.2-.8-.3-1.3-.3s-.9.1-1.3.3c-.4.2-.8.5-1.2.9s-.7,1-.9,1.6-.3,1.4-.3,2.2v8.5c0,.6-.2,1.2-.6,1.6-.3.7-.8.9-1.5.9ZM162.8,415.4c.6,0,1.1.2,1.5.6s.6.9.6,1.6v15.2c0,.6-.2,1.2-.6,1.6-.4.4-.9.6-1.5.6s-1.1-.2-1.5-.6-.6-1-.6-1.6v-1.8l.8.3c0,.3-.2.7-.5,1.2-.3.4-.8.9-1.4,1.3-.6.4-1.3.8-2.1,1.1-.8.3-1.6.4-2.5.4-1.7,0-3.2-.4-4.5-1.3s-2.4-2-3.2-3.5-1.2-3.2-1.2-5.2.4-3.7,1.2-5.2,1.8-2.7,3.2-3.5c1.3-.9,2.8-1.3,4.4-1.3s2,.2,2.8.5c.9.3,1.6.7,2.2,1.2.6.5,1.1,1,1.5,1.5s.5.9.5,1.2l-1.3.5v-2.6c0-.6.2-1.1.6-1.5.5-.5,1-.7,1.6-.7ZM155.6,431.4c1.1,0,2-.3,2.8-.8s1.4-1.2,1.8-2.2c.5-.9.7-1.9.7-3.1s-.2-2.2-.7-3.1c-.4-.9-1-1.6-1.8-2.2-.8-.5-1.7-.8-2.8-.8s-1.9.3-2.7.8-1.4,1.2-1.9,2.2c-.4.9-.6,1.9-.6,3.1s.2,2.1.6,3.1c.5.9,1.1,1.6,1.9,2.2.7.5,1.6.8,2.7.8ZM180,415.4c1.8,0,3.1.4,4,1.1s1.6,1.7,1.9,3c.4,1.2.5,2.6.5,4.1v9.2c0,.6-.2,1.2-.6,1.6-.4.4-.9.6-1.5.6s-1.1-.2-1.5-.6-.6-1-.6-1.6v-9.2c0-.8-.1-1.5-.3-2.1s-.6-1.2-1.1-1.5c-.5-.4-1.3-.6-2.3-.6s-1.8.2-2.4.6c-.6.4-1.2.9-1.5,1.5s-.5,1.3-.5,2.1v9.2c0,.6-.2,1.2-.6,1.6-.4.4-.9.6-1.5.6s-1.1-.2-1.5-.6-.6-1-.6-1.6v-14.9c0-.6.2-1.1.6-1.5.4-.4.9-.6,1.5-.6s1.1.2,1.5.6.6.9.6,1.5v1.5h-.5c.2-.5.5-.9.9-1.4s.9-.9,1.4-1.3c.6-.4,1.2-.7,1.9-1,.6-.2,1.3-.3,2.2-.3ZM206.9,415.7c.6,0,1.1.2,1.5.6s.6.9.6,1.6v22.1c0,.6-.2,1.1-.6,1.5-.4.4-.9.6-1.5.6s-1.1-.2-1.5-.6-.6-.9-.6-1.5v-9l.8.3c0,.3-.2.7-.5,1.2-.3.4-.8.9-1.4,1.3-.6.4-1.3.8-2.1,1.1-.8.3-1.6.4-2.5.4-1.7,0-3.2-.4-4.5-1.3s-2.4-2-3.2-3.5-1.2-3.2-1.2-5.2.4-3.7,1.2-5.2,1.8-2.7,3.2-3.5c1.3-.9,2.8-1.3,4.4-1.3s2,.2,2.8.5c.9.3,1.6.7,2.2,1.2.6.5,1.1,1,1.5,1.5s.5.9.5,1.2l-1.3.5v-2.3c0-.6.2-1.1.6-1.5.4-.4,1-.7,1.6-.7ZM199.6,431.4c1.1,0,2-.3,2.8-.8s1.4-1.2,1.8-2.2c.5-.9.7-1.9.7-3.1s-.2-2.2-.7-3.1c-.4-.9-1-1.6-1.8-2.2-.8-.5-1.7-.8-2.8-.8s-1.9.3-2.7.8-1.4,1.2-1.9,2.2c-.4.9-.6,1.9-.6,3.1s.2,2.1.6,3.1c.5.9,1.1,1.6,1.9,2.2.8.5,1.7.8,2.7.8ZM228,415.7c.6,0,1.1.2,1.5.6s.6.9.6,1.5v9.1c0,2.5-.7,4.6-2.1,6-1.4,1.5-3.5,2.2-6.1,2.2s-4.7-.7-6.1-2.2c-1.4-1.5-2.1-3.5-2.1-6v-9.1c0-.6.2-1.1.6-1.5.4-.4.9-.6,1.5-.6s1.1.2,1.5.6.6.9.6,1.5v9.1c0,1.5.3,2.6,1,3.3.6.7,1.6,1,2.9,1s2.3-.3,3-1c.6-.7,1-1.8,1-3.3v-9.1c0-.6.2-1.1.6-1.5.5-.3,1-.6,1.6-.6ZM238.9,432.8c0,.6-.2,1.2-.6,1.6-.4.4-.9.6-1.5.6s-1.1-.2-1.5-.6-.6-1-.6-1.6v-14.9c0-.6.2-1.1.6-1.5.4-.4.9-.6,1.5-.6s1.1.2,1.5.6.6.9.6,1.5v14.9ZM236.7,413.4c-.8,0-1.4-.1-1.7-.4s-.5-.7-.5-1.4v-.7c0-.7.2-1.2.5-1.4.4-.3,1-.4,1.7-.4s1.4.1,1.8.4.5.7.5,1.4v.7c0,.7-.2,1.2-.5,1.4-.4.3-1,.4-1.8.4ZM253.3,408.4c.5,0,1,.1,1.5.2s.9.4,1.3.7c.3.3.5.7.5,1.3s-.2,1.1-.5,1.4c-.3.3-.7.5-1.2.5s-.5,0-1-.1c-.4-.1-.9-.2-1.3-.2-.6,0-1.1.1-1.4.4-.3.3-.5.6-.6.9s-.2.6-.2.9v18.4c0,.6-.2,1.2-.6,1.6-.4.4-.9.6-1.5.6s-1.1-.2-1.5-.6-.6-1-.6-1.6v-18.4c0-1.7.6-3.1,1.8-4.3s2.9-1.7,5.3-1.7ZM253.6,416.1c.6,0,1.1.2,1.4.6.4.4.6.8.6,1.4s-.2,1.1-.6,1.4c-.4.4-.9.5-1.4.5h-9.5c-.6,0-1.1-.2-1.4-.5s-.6-.9-.6-1.4.2-1,.6-1.4c.4-.4.9-.6,1.4-.6h9.5ZM273.4,415.7c.6,0,1.1.2,1.5.6s.6.9.6,1.5v15.3c0,2.2-.4,4-1.3,5.3-.8,1.3-1.9,2.3-3.3,2.8s-3,.9-4.7.9-1.6-.1-2.4-.2c-.9-.1-1.6-.3-2.1-.5-.7-.3-1.2-.7-1.5-1.2s-.3-.9-.1-1.5c.2-.7.6-1.2,1-1.4.5-.2,1-.3,1.5-.1.4.1.9.3,1.5.5.6.3,1.3.4,2.2.4s2-.2,2.7-.5,1.3-.8,1.7-1.5c.4-.7.6-1.7.6-2.9v-2.2l.8.9c-.4.8-.9,1.5-1.5,2s-1.3.9-2.2,1.2c-.8.3-1.8.4-2.9.4s-2.4-.3-3.3-.9-1.7-1.4-2.2-2.4c-.5-1.1-.8-2.3-.8-3.6v-10.5c0-.6.2-1.1.6-1.5s.9-.6,1.5-.6,1.1.2,1.5.6.6.9.6,1.5v9.2c0,1.6.3,2.7,1,3.3.7.6,1.7.9,2.9.9s1.5-.2,2.1-.5,1-.8,1.3-1.4.5-1.4.5-2.3v-9.2c0-.6.2-1.1.6-1.5.4-.6.9-.9,1.6-.9Z"/>
  <path class="st0" d="M293.7,111H93.3c-20.5,0-37.3,16.8-37.3,37.3v200.4c0,20.5,16.8,37.3,37.3,37.3h200.4c20.5,0,37.3-16.8,37.3-37.3v-200.4c0-20.5-16.8-37.3-37.3-37.3ZM326.7,348.7c0,18.2-14.8,33-33,33H93.3c-18.2,0-33-14.8-33-33v-19.3c31.7,41.6,81.2,21,108.9-6.9,2.9-2.9,7-4.1,11-3.2,47.6,10.3,128.2-18.3,128.2-83.2v-11c0-4.6,1.5-9.1,4.3-12.7,5.6-7.4,10.2-14.5,14-21.4v157.7Z"/>
  <path class="st4" d="M134.1,186.2c-5,0-10.8-1.5-17.4-5.4-1.2-.7-1.6-2.3-.9-3.5s2.3-1.6,3.5-.9c9,5.3,21.8,8.7,31.8-5,.8-1.1,2.4-1.4,3.6-.6,1.1.8,1.4,2.4.6,3.6-3.8,5.1-10.7,11.7-21.2,11.8h0Z"/>
  <path class="st4" d="M190.1,174.3c-4.1,0-8.7-.9-14.1-3-1.3-.5-2-2-1.4-3.3.5-1.3,2-2,3.3-1.4,9.7,3.8,22.9,5.2,30.7-9.7.7-1.3,2.2-1.7,3.5-1.1,1.3.7,1.7,2.2,1.1,3.5-3.3,6.2-10.2,15-23.1,15h0Z"/>
  <path class="st4" d="M141.2,223.1c-17.6,0-33.2-3.5-44.4-10.2-1.2-.7-1.6-2.3-.9-3.5s2.3-1.6,3.5-.9c40.2,24.1,116.9.5,151.4-35.8,1-1,2.6-1.1,3.6-.1s1.1,2.6.1,3.6c-19.8,20.8-49.4,36.6-81.3,43.3-11,2.4-21.9,3.6-32,3.6h0Z"/>
  <path d="M143.6,80v-14h9v2.1h-6.5v3.9h5.2v2h-5.2v6h-2.5ZM158.2,80.2c-1.2,0-2.2-.4-2.9-1.2-.7-.8-1-1.9-1-3.4v-5.6h2.5v5.4c0,.9.2,1.5.5,2s.9.7,1.6.7,1.3-.3,1.7-.8c.5-.5.7-1.2.7-2.1v-5.1h2.6v9.9h-2.3l-.2-1.7c-.3.6-.8,1.1-1.3,1.4-.4.4-1.1.5-1.9.5ZM166.7,80v-14.4h2.6v14.4h-2.6ZM171.9,80v-14.4h2.6v14.4h-2.6ZM188.2,80.2c-1.4,0-2.6-.3-3.6-.9s-1.8-1.5-2.3-2.5c-.5-1.1-.8-2.4-.8-3.8s.3-2.7.8-3.8c.5-1.1,1.3-1.9,2.3-2.6,1-.6,2.2-.9,3.6-.9s3.1.4,4.1,1.3c1.1.8,1.8,2,2,3.5h-2.8c-.2-.8-.5-1.4-1.1-1.8s-1.3-.7-2.2-.7c-1.3,0-2.3.4-3,1.3s-1.1,2.1-1.1,3.6.4,2.7,1.1,3.6c.7.9,1.7,1.3,3,1.3s1.7-.2,2.2-.6c.6-.4.9-1,1.1-1.7h2.8c-.3,1.4-.9,2.6-2,3.4-1,.9-2.4,1.3-4.1,1.3ZM201.3,80.2c-1,0-1.8-.2-2.6-.7-.8-.4-1.4-1-1.8-1.8-.4-.8-.7-1.7-.7-2.7s.2-1.9.7-2.7c.5-.8,1.1-1.4,1.8-1.8.8-.4,1.6-.7,2.6-.7s1.8.2,2.6.7c.8.4,1.4,1.1,1.8,1.8.5.8.7,1.7.7,2.7s-.2,1.9-.7,2.7c-.4.8-1,1.4-1.8,1.8-.8.5-1.6.7-2.6.7ZM201.3,78c.7,0,1.2-.2,1.7-.7s.7-1.3.7-2.2-.2-1.7-.7-2.2-1.1-.8-1.7-.8-1.3.3-1.8.8-.7,1.2-.7,2.2.2,1.7.7,2.2c.6.5,1.2.7,1.8.7ZM208.7,80v-14.4h2.6v14.4h-2.6ZM218.6,80.2c-1,0-1.8-.2-2.6-.7-.8-.4-1.4-1-1.8-1.8-.4-.8-.7-1.7-.7-2.7s.2-1.9.7-2.7c.5-.8,1.1-1.4,1.8-1.8.8-.4,1.6-.7,2.6-.7s1.8.2,2.6.7c.8.4,1.4,1.1,1.8,1.8.5.8.7,1.7.7,2.7s-.2,1.9-.7,2.7c-.4.8-1,1.4-1.8,1.8-.8.5-1.6.7-2.6.7ZM218.6,78c.7,0,1.2-.2,1.7-.7s.7-1.3.7-2.2-.2-1.7-.7-2.2-1.1-.8-1.7-.8-1.3.3-1.8.8-.7,1.2-.7,2.2.2,1.7.7,2.2c.6.5,1.2.7,1.8.7ZM229.7,80.2c-1.2,0-2.2-.4-2.9-1.2-.7-.8-1-1.9-1-3.4v-5.6h2.5v5.4c0,.9.2,1.5.5,2s.9.7,1.6.7,1.3-.3,1.7-.8c.5-.5.7-1.2.7-2.1v-5.1h2.6v9.9h-2.3l-.2-1.7c-.3.6-.8,1.1-1.3,1.4-.4.4-1.1.5-1.9.5ZM238.2,80v-9.9h2.3l.2,1.9c.4-.6.8-1.1,1.5-1.5.6-.4,1.4-.6,2.2-.6v2.7h-.7c-.6,0-1.1,0-1.5.3-.4.2-.8.5-1,.9s-.4,1-.4,1.8v4.4h-2.6Z"/>
  <path class="st3" d="M347.2,613c-.7,0-1.2-.2-1.7-.6-.4-.4-.6-1-.6-1.6v-20.9h4.7v20.9c0,.6-.2,1.2-.7,1.6-.4.4-1,.6-1.7.6ZM339.3,591.9c-.6,0-1.2-.2-1.6-.6-.4-.4-.6-.9-.6-1.5s.2-1.1.6-1.5,1-.6,1.6-.6h16c.6,0,1.1.2,1.5.6.4.4.6.9.6,1.5s-.2,1.1-.6,1.5-.9.5-1.5.5h-16ZM360.9,613c-.6,0-1.1-.2-1.5-.6-.4-.4-.6-1-.6-1.6v-14.9c0-.6.2-1.1.6-1.5s.9-.6,1.5-.6,1.1.2,1.5.6c.4.4.6.9.6,1.5v3.4l-.3-2.4c.3-.6.6-1.1,1-1.5.4-.5.9-.8,1.4-1.1s1.1-.5,1.7-.7,1.2-.2,1.8-.2,1.3.2,1.8.6c.5.4.8.9.8,1.4,0,.8-.2,1.4-.6,1.7s-.9.5-1.3.5-.9,0-1.3-.3-.8-.3-1.3-.3-.9,0-1.3.3-.8.5-1.2.9c-.4.4-.7,1-.9,1.6-.2.6-.3,1.4-.3,2.2v8.5c0,.6-.2,1.2-.6,1.6-.4.7-.9.9-1.5.9ZM389.7,593.4c.6,0,1.1.2,1.5.6.4.4.6.9.6,1.6v15.2c0,.6-.2,1.2-.6,1.6-.4.4-.9.6-1.5.6s-1.1-.2-1.5-.6c-.4-.4-.6-1-.6-1.6v-1.8l.8.3c0,.3-.2.7-.5,1.2-.3.4-.8.9-1.4,1.3-.6.4-1.3.8-2.1,1.1-.8.3-1.6.4-2.5.4-1.7,0-3.2-.4-4.5-1.3-1.3-.9-2.4-2-3.2-3.5-.8-1.5-1.2-3.2-1.2-5.2s.4-3.7,1.2-5.2c.8-1.5,1.8-2.7,3.2-3.5,1.3-.9,2.8-1.3,4.4-1.3s2,.2,2.8.5c.9.3,1.6.7,2.2,1.2s1.1,1,1.5,1.5.5.9.5,1.2l-1.3.5v-2.6c0-.6.2-1.1.6-1.5.4-.5,1-.7,1.6-.7ZM382.4,609.4c1.1,0,2-.3,2.8-.8s1.4-1.2,1.8-2.2c.5-.9.7-1.9.7-3.1s-.2-2.2-.7-3.1c-.4-.9-1-1.6-1.8-2.2-.8-.5-1.7-.8-2.8-.8s-1.9.3-2.7.8c-.8.5-1.4,1.2-1.9,2.2-.4.9-.6,1.9-.6,3.1s.2,2.1.6,3.1c.5.9,1.1,1.6,1.9,2.2.8.5,1.7.8,2.7.8ZM406.8,593.4c1.8,0,3.1.4,4,1.1.9.7,1.6,1.7,1.9,3,.4,1.2.5,2.6.5,4.1v9.2c0,.6-.2,1.2-.6,1.6-.4.4-.9.6-1.5.6s-1.1-.2-1.5-.6c-.4-.4-.6-1-.6-1.6v-9.2c0-.8-.1-1.5-.3-2.1-.2-.6-.6-1.2-1.1-1.5-.5-.4-1.3-.6-2.3-.6s-1.8.2-2.4.6c-.6.4-1.2.9-1.5,1.5s-.5,1.3-.5,2.1v9.2c0,.6-.2,1.2-.6,1.6-.4.4-.9.6-1.5.6s-1.1-.2-1.5-.6c-.4-.4-.6-1-.6-1.6v-14.9c0-.6.2-1.1.6-1.5s.9-.6,1.5-.6,1.1.2,1.5.6c.4.4.6.9.6,1.5v1.5h-.5c.2-.5.5-.9.9-1.4s.9-.9,1.4-1.3c.6-.4,1.2-.7,1.9-1,.6-.2,1.4-.3,2.2-.3ZM433.7,593.7c.6,0,1.1.2,1.5.6s.6.9.6,1.6v22.1c0,.6-.2,1.1-.6,1.5s-.9.6-1.5.6-1.1-.2-1.5-.6c-.4-.4-.6-.9-.6-1.5v-9l.8.3c0,.3-.2.7-.5,1.2-.3.4-.8.9-1.4,1.3-.6.4-1.3.8-2.1,1.1-.8.3-1.6.4-2.5.4-1.7,0-3.2-.4-4.5-1.3-1.3-.9-2.4-2-3.2-3.5-.8-1.5-1.2-3.2-1.2-5.2s.4-3.7,1.2-5.2c.8-1.5,1.8-2.7,3.2-3.5,1.3-.9,2.8-1.3,4.4-1.3s2,.2,2.8.5c.9.3,1.6.7,2.2,1.2s1.1,1,1.5,1.5.5.9.5,1.2l-1.3.5v-2.3c0-.6.2-1.1.6-1.5.5-.4,1-.7,1.6-.7ZM426.5,609.4c1.1,0,2-.3,2.8-.8s1.4-1.2,1.8-2.2c.5-.9.7-1.9.7-3.1s-.2-2.2-.7-3.1c-.4-.9-1-1.6-1.8-2.2-.8-.5-1.7-.8-2.8-.8s-1.9.3-2.7.8c-.8.5-1.4,1.2-1.9,2.2-.4.9-.6,1.9-.6,3.1s.2,2.1.6,3.1c.5.9,1.1,1.6,1.9,2.2.7.5,1.6.8,2.7.8ZM454.9,593.7c.6,0,1.1.2,1.5.6.4.4.6.9.6,1.5v9.1c0,2.5-.7,4.6-2.1,6-1.4,1.5-3.5,2.2-6.1,2.2s-4.7-.7-6.1-2.2-2.1-3.5-2.1-6v-9.1c0-.6.2-1.1.6-1.5s.9-.6,1.5-.6,1.1.2,1.5.6c.4.4.6.9.6,1.5v9.1c0,1.5.3,2.6,1,3.3.6.7,1.6,1,2.9,1s2.3-.3,3-1c.6-.7,1-1.8,1-3.3v-9.1c0-.6.2-1.1.6-1.5.4-.3.9-.6,1.6-.6ZM465.8,610.8c0,.6-.2,1.2-.6,1.6-.4.4-.9.6-1.5.6s-1.1-.2-1.5-.6c-.4-.4-.6-1-.6-1.6v-14.9c0-.6.2-1.1.6-1.5s.9-.6,1.5-.6,1.1.2,1.5.6c.4.4.6.9.6,1.5v14.9ZM463.6,591.4c-.8,0-1.4,0-1.7-.4-.3-.3-.5-.7-.5-1.4v-.7c0-.7.2-1.2.5-1.4.4-.3,1-.4,1.7-.4s1.4,0,1.8.4c.3.3.5.7.5,1.4v.7c0,.7-.2,1.2-.5,1.4-.4.3-1,.4-1.8.4ZM480.1,586.4c.5,0,1,0,1.5.2s.9.4,1.3.7c.3.3.5.7.5,1.3s-.2,1.1-.5,1.4c-.3.3-.7.5-1.2.5s-.5,0-1,0c-.4,0-.9-.2-1.3-.2-.6,0-1.1,0-1.4.4-.3.3-.5.6-.6.9-.1.3-.2.6-.2.9v18.4c0,.6-.2,1.2-.6,1.6-.4.4-.9.6-1.5.6s-1.1-.2-1.5-.6c-.4-.4-.6-1-.6-1.6v-18.4c0-1.7.6-3.1,1.8-4.3,1.1-1.2,2.9-1.7,5.3-1.7ZM480.5,594.1c.6,0,1.1.2,1.4.6.4.4.6.8.6,1.4s-.2,1.1-.6,1.4c-.4.4-.9.5-1.4.5h-9.5c-.6,0-1.1-.2-1.4-.5-.4-.4-.6-.9-.6-1.4s.2-1,.6-1.4.9-.6,1.4-.6h9.5ZM500.2,593.7c.6,0,1.1.2,1.5.6.4.4.6.9.6,1.5v15.3c0,2.2-.4,4-1.3,5.3-.8,1.3-1.9,2.3-3.3,2.8s-3,.9-4.7.9-1.6,0-2.4-.2c-.9,0-1.6-.3-2.1-.5-.7-.3-1.2-.7-1.5-1.2s-.3-.9-.1-1.5c.2-.7.6-1.2,1-1.4.5-.2,1-.3,1.5,0,.4,0,.9.3,1.5.5.6.3,1.3.4,2.2.4s2-.2,2.7-.5,1.3-.8,1.7-1.5c.4-.7.6-1.7.6-2.9v-2.2l.8.9c-.4.8-.9,1.5-1.5,2s-1.3.9-2.2,1.2c-.8.3-1.8.4-2.9.4s-2.4-.3-3.3-.9c-.9-.6-1.7-1.4-2.2-2.4-.5-1.1-.8-2.3-.8-3.6v-10.5c0-.6.2-1.1.6-1.5s.9-.6,1.5-.6,1.1.2,1.5.6c.4.4.6.9.6,1.5v9.2c0,1.6.3,2.7,1,3.3s1.7.9,2.9.9,1.5-.2,2.1-.5,1-.8,1.3-1.4c.3-.6.5-1.4.5-2.3v-9.2c0-.6.2-1.1.6-1.5.5-.6,1-.9,1.6-.9Z"/>
  <path class="st0" d="M305.6,548.6h-78.3c-6.5,0-11.7,5.2-11.7,11.7v70c12.1,15.9,31,8,41.6-2.7,1.1-1.1,2.7-1.6,4.2-1.2,18.2,3.9,49-7,49-31.8v-4.2c0-1.8.6-3.5,1.6-4.9,2.1-2.8,3.9-5.5,5.4-8.2v-17.1c0-6.3-5.3-11.6-11.8-11.6h0Z"/>
  <path class="st0" d="M304.8,547h-76.5c-7.8,0-14.2,6.4-14.2,14.2v76.5c0,7.8,6.4,14.2,14.2,14.2h76.5c7.8,0,14.2-6.4,14.2-14.2v-76.5c0-7.8-6.4-14.2-14.2-14.2ZM317.4,637.8c0,7-5.6,12.6-12.6,12.6h-76.5c-7,0-12.6-5.6-12.6-12.6v-76.5c0-7,5.6-12.6,12.6-12.6h76.5c7,0,12.6,5.6,12.6,12.6v76.5Z"/>
  <path class="st4" d="M243.8,575.7c-1.9,0-4.1-.6-6.6-2.1-.5-.3-.6-.9-.4-1.3.3-.5.9-.6,1.3-.4,3.4,2,8.3,3.3,12.1-1.9.3-.4.9-.5,1.4-.2.4.3.5.9.2,1.4-1.3,1.9-4,4.5-8,4.5h0Z"/>
  <path class="st4" d="M265.2,571.2c-1.6,0-3.3-.3-5.4-1.1-.5-.2-.7-.8-.6-1.3.2-.5.8-.8,1.3-.6,3.7,1.5,8.7,2,11.7-3.7.2-.5.8-.7,1.3-.4s.7.8.4,1.3c-1.1,2.4-3.8,5.8-8.7,5.8h0Z"/>
  <path class="st4" d="M246.5,589.8c-6.7,0-12.7-1.3-16.9-3.9-.5-.3-.6-.9-.3-1.3.3-.5.9-.6,1.3-.3,15.4,9.2,44.6.2,57.8-13.7.4-.4,1-.4,1.4,0s.4,1,0,1.4c-7.5,7.9-18.9,14-31,16.5-4.2.8-8.4,1.3-12.3,1.3h0Z"/>
  <path d="M311.6,508v-14h2.6v5.8h6.3v-5.8h2.6v14h-2.6v-6.1h-6.3v6.1h-2.6ZM330.4,508.2c-1,0-1.8-.2-2.6-.7-.8-.4-1.4-1-1.8-1.8s-.7-1.7-.7-2.7.2-1.9.7-2.7c.5-.8,1.1-1.4,1.8-1.8.8-.4,1.6-.7,2.6-.7s1.8.2,2.6.7c.8.4,1.4,1.1,1.8,1.8.5.8.7,1.7.7,2.7s-.2,1.9-.7,2.7c-.4.8-1,1.4-1.8,1.8-.8.5-1.6.7-2.6.7ZM330.4,506c.7,0,1.2-.2,1.7-.7s.7-1.3.7-2.2-.2-1.7-.7-2.2-1.1-.8-1.7-.8-1.3.3-1.8.8-.7,1.2-.7,2.2.2,1.7.7,2.2c.6.5,1.2.7,1.8.7ZM337.8,508v-9.9h2.3l.2,1.9c.4-.6.8-1.1,1.5-1.5.6-.4,1.4-.6,2.2-.6v2.7h-.7c-.6,0-1.1.1-1.5.3-.4.2-.8.5-1,.9s-.4,1-.4,1.8v4.5h-2.6ZM347.1,496.5c-.5,0-.9-.1-1.2-.4-.3-.3-.4-.6-.4-1.1s.1-.8.4-1c.3-.3.7-.4,1.2-.4s.8.1,1.1.4c.3.3.5.6.5,1s-.2.8-.5,1.1c-.3.3-.6.4-1.1.4ZM345.8,508v-9.9h2.6v9.9h-2.6ZM350.4,508v-2.1l5.1-5.7h-5v-2.1h7.9v2.1l-5.1,5.7h5.2v2.1h-8.1ZM365.4,508.2c-1,0-1.8-.2-2.6-.7-.8-.4-1.4-1-1.8-1.8s-.7-1.7-.7-2.7.2-1.9.7-2.7c.5-.8,1.1-1.4,1.8-1.8.8-.4,1.6-.7,2.6-.7s1.8.2,2.6.7c.8.4,1.4,1.1,1.8,1.8.5.8.7,1.7.7,2.7s-.2,1.9-.7,2.7c-.4.8-1,1.4-1.8,1.8-.8.5-1.7.7-2.6.7ZM365.4,506c.7,0,1.2-.2,1.7-.7s.7-1.3.7-2.2-.2-1.7-.7-2.2-1.1-.8-1.7-.8-1.3.3-1.8.8-.7,1.2-.7,2.2.2,1.7.7,2.2,1.1.7,1.8.7ZM372.8,508v-9.9h2.3l.2,1.7c.3-.6.7-1.1,1.3-1.4.6-.3,1.3-.5,2.1-.5,1.2,0,2.2.4,2.9,1.2s1,1.9,1,3.4v5.6h-2.6v-5.4c0-.9-.2-1.5-.5-2s-.9-.7-1.6-.7-1.3.3-1.8.8-.7,1.2-.7,2.1v5.1h-2.6ZM389.3,508c-1,0-1.9-.3-2.5-.8s-.9-1.4-.9-2.7v-4.3h-1.7v-2.1h1.7l.3-2.7h2.3v2.7h2.7v2.1h-2.7v4.3c0,.5.1.8.3,1,.2.2.6.3,1.1.3h1.2v2.2h-1.8ZM396.8,508.2c-.9,0-1.6-.1-2.1-.4s-1-.6-1.2-1.1-.4-1-.4-1.5c0-.9.4-1.7,1.1-2.2s1.8-.9,3.2-.9h2.5v-.2c0-.7-.2-1.2-.6-1.5s-.9-.5-1.4-.5-1,.1-1.4.4c-.4.2-.6.6-.7,1.1h-2.5c.1-.7.3-1.3.7-1.9.4-.5,1-.9,1.6-1.2.7-.3,1.4-.4,2.2-.4,1.4,0,2.5.4,3.3,1.1s1.2,1.7,1.2,3v6.1h-2.2l-.2-1.6c-.3.5-.7,1-1.2,1.3-.4.3-1.1.4-1.9.4ZM397.3,506.2c.7,0,1.3-.2,1.7-.7.4-.5.7-1.1.8-1.8h-2.2c-.7,0-1.2.1-1.5.4-.3.2-.4.5-.4.9s.1.7.4.9c.4.2.8.3,1.2.3ZM404.9,508v-14.4h2.6v14.4h-2.6Z"/>
  <path d="M418.4,435c-.7,0-1.2-.2-1.7-.6-.4-.4-.6-1-.6-1.6v-20.9h4.7v20.9c0,.6-.2,1.2-.7,1.6-.5.4-1,.6-1.7.6ZM410.4,413.9c-.6,0-1.2-.2-1.6-.6s-.6-.9-.6-1.5.2-1.1.6-1.5,1-.6,1.6-.6h16c.6,0,1.1.2,1.5.6s.6.9.6,1.5-.2,1.1-.6,1.5-.9.5-1.5.5h-16ZM432,435c-.6,0-1.1-.2-1.5-.6s-.6-1-.6-1.6v-14.9c0-.6.2-1.1.6-1.5s.9-.6,1.5-.6,1.1.2,1.5.6.6.9.6,1.5v3.4l-.3-2.4c.3-.6.6-1.1,1-1.5.4-.5.9-.8,1.4-1.1.5-.3,1.1-.5,1.7-.7.6-.1,1.2-.2,1.8-.2s1.3.2,1.8.6.8.9.8,1.4c0,.8-.2,1.4-.6,1.7-.4.3-.9.5-1.3.5s-.9-.1-1.3-.3c-.4-.2-.8-.3-1.3-.3s-.9.1-1.3.3c-.4.2-.8.5-1.2.9-.4.4-.7,1-.9,1.6-.2.6-.3,1.4-.3,2.2v8.5c0,.6-.2,1.2-.6,1.6-.3.7-.8.9-1.5.9ZM460.8,415.4c.6,0,1.1.2,1.5.6s.6.9.6,1.6v15.2c0,.6-.2,1.2-.6,1.6s-.9.6-1.5.6-1.1-.2-1.5-.6-.6-1-.6-1.6v-1.8l.8.3c0,.3-.2.7-.5,1.2-.3.4-.8.9-1.4,1.3s-1.3.8-2.1,1.1c-.8.3-1.6.4-2.5.4-1.7,0-3.2-.4-4.5-1.3s-2.4-2-3.2-3.5c-.8-1.5-1.2-3.2-1.2-5.2s.4-3.7,1.2-5.2c.8-1.5,1.8-2.7,3.2-3.5,1.3-.9,2.8-1.3,4.4-1.3s2,.2,2.8.5c.9.3,1.6.7,2.2,1.2s1.1,1,1.5,1.5.5.9.5,1.2l-1.3.5v-2.6c0-.6.2-1.1.6-1.5.5-.5,1-.7,1.6-.7ZM453.6,431.4c1.1,0,2-.3,2.8-.8s1.4-1.2,1.8-2.2c.5-.9.7-1.9.7-3.1s-.2-2.2-.7-3.1c-.4-.9-1-1.6-1.8-2.2-.8-.5-1.7-.8-2.8-.8s-1.9.3-2.7.8c-.8.5-1.4,1.2-1.9,2.2-.4.9-.6,1.9-.6,3.1s.2,2.1.6,3.1c.5.9,1.1,1.6,1.9,2.2.7.5,1.6.8,2.7.8ZM478,415.4c1.8,0,3.1.4,4,1.1s1.6,1.7,1.9,3c.4,1.2.5,2.6.5,4.1v9.2c0,.6-.2,1.2-.6,1.6s-.9.6-1.5.6-1.1-.2-1.5-.6-.6-1-.6-1.6v-9.2c0-.8-.1-1.5-.3-2.1-.2-.6-.6-1.2-1.1-1.5-.5-.4-1.3-.6-2.3-.6s-1.8.2-2.4.6-1.2.9-1.5,1.5-.5,1.3-.5,2.1v9.2c0,.6-.2,1.2-.6,1.6s-.9.6-1.5.6-1.1-.2-1.5-.6-.6-1-.6-1.6v-14.9c0-.6.2-1.1.6-1.5s.9-.6,1.5-.6,1.1.2,1.5.6.6.9.6,1.5v1.5h-.5c.2-.5.5-.9.9-1.4s.9-.9,1.4-1.3c.6-.4,1.2-.7,1.9-1,.6-.2,1.3-.3,2.2-.3ZM504.9,415.7c.6,0,1.1.2,1.5.6s.6.9.6,1.6v22.1c0,.6-.2,1.1-.6,1.5s-.9.6-1.5.6-1.1-.2-1.5-.6-.6-.9-.6-1.5v-9l.8.3c0,.3-.2.7-.5,1.2-.3.4-.8.9-1.4,1.3s-1.3.8-2.1,1.1c-.8.3-1.6.4-2.5.4-1.7,0-3.2-.4-4.5-1.3s-2.4-2-3.2-3.5c-.8-1.5-1.2-3.2-1.2-5.2s.4-3.7,1.2-5.2c.8-1.5,1.8-2.7,3.2-3.5,1.3-.9,2.8-1.3,4.4-1.3s2,.2,2.8.5c.9.3,1.6.7,2.2,1.2s1.1,1,1.5,1.5.5.9.5,1.2l-1.3.5v-2.3c0-.6.2-1.1.6-1.5s1-.7,1.6-.7ZM497.6,431.4c1.1,0,2-.3,2.8-.8s1.4-1.2,1.8-2.2c.5-.9.7-1.9.7-3.1s-.2-2.2-.7-3.1c-.4-.9-1-1.6-1.8-2.2-.8-.5-1.7-.8-2.8-.8s-1.9.3-2.7.8c-.8.5-1.4,1.2-1.9,2.2-.4.9-.6,1.9-.6,3.1s.2,2.1.6,3.1c.5.9,1.1,1.6,1.9,2.2.8.5,1.7.8,2.7.8ZM526,415.7c.6,0,1.1.2,1.5.6s.6.9.6,1.5v9.1c0,2.5-.7,4.6-2.1,6-1.4,1.5-3.5,2.2-6.1,2.2s-4.7-.7-6.1-2.2c-1.4-1.5-2.1-3.5-2.1-6v-9.1c0-.6.2-1.1.6-1.5.4-.4.9-.6,1.5-.6s1.1.2,1.5.6.6.9.6,1.5v9.1c0,1.5.3,2.6,1,3.3.6.7,1.6,1,2.9,1s2.3-.3,3-1c.6-.7,1-1.8,1-3.3v-9.1c0-.6.2-1.1.6-1.5.5-.3,1-.6,1.6-.6ZM536.9,432.8c0,.6-.2,1.2-.6,1.6-.4.4-.9.6-1.5.6s-1.1-.2-1.5-.6-.6-1-.6-1.6v-14.9c0-.6.2-1.1.6-1.5.4-.4.9-.6,1.5-.6s1.1.2,1.5.6.6.9.6,1.5v14.9ZM534.7,413.4c-.8,0-1.4-.1-1.7-.4s-.5-.7-.5-1.4v-.7c0-.7.2-1.2.5-1.4.4-.3,1-.4,1.7-.4s1.4.1,1.8.4.5.7.5,1.4v.7c0,.7-.2,1.2-.5,1.4-.4.3-1,.4-1.8.4ZM551.3,408.4c.5,0,1,.1,1.5.2s.9.4,1.3.7c.3.3.5.7.5,1.3s-.2,1.1-.5,1.4-.7.5-1.2.5-.5,0-1-.1c-.4-.1-.9-.2-1.3-.2-.6,0-1.1.1-1.4.4-.3.3-.5.6-.6.9s-.2.6-.2.9v18.4c0,.6-.2,1.2-.6,1.6-.4.4-.9.6-1.5.6s-1.1-.2-1.5-.6-.6-1-.6-1.6v-18.4c0-1.7.6-3.1,1.8-4.3s2.9-1.7,5.3-1.7ZM551.7,416.1c.6,0,1.1.2,1.4.6.4.4.6.8.6,1.4s-.2,1.1-.6,1.4c-.4.4-.9.5-1.4.5h-9.5c-.6,0-1.1-.2-1.4-.5-.4-.4-.6-.9-.6-1.4s.2-1,.6-1.4c.4-.4.9-.6,1.4-.6h9.5ZM571.4,415.7c.6,0,1.1.2,1.5.6s.6.9.6,1.5v15.3c0,2.2-.4,4-1.3,5.3-.8,1.3-1.9,2.3-3.3,2.8-1.4.6-3,.9-4.7.9s-1.6-.1-2.4-.2c-.9-.1-1.6-.3-2.1-.5-.7-.3-1.2-.7-1.5-1.2s-.3-.9,0-1.5c.2-.7.6-1.2,1-1.4.5-.2,1-.3,1.5-.1.4.1.9.3,1.5.5.6.3,1.3.4,2.2.4s2-.2,2.7-.5,1.3-.8,1.7-1.5.6-1.7.6-2.9v-2.2l.8.9c-.4.8-.9,1.5-1.5,2s-1.3.9-2.2,1.2c-.8.3-1.8.4-2.9.4s-2.4-.3-3.3-.9c-.9-.6-1.7-1.4-2.2-2.4-.5-1.1-.8-2.3-.8-3.6v-10.5c0-.6.2-1.1.6-1.5.4-.4.9-.6,1.5-.6s1.1.2,1.5.6.6.9.6,1.5v9.2c0,1.6.3,2.7,1,3.3.7.6,1.7.9,2.9.9s1.5-.2,2.1-.5,1-.8,1.3-1.4.5-1.4.5-2.3v-9.2c0-.6.2-1.1.6-1.5.4-.6.9-.9,1.6-.9Z"/>
  <path d="M414,80v-14h5.6c1.5,0,2.6.3,3.3,1,.8.7,1.2,1.5,1.2,2.6s-.2,1.6-.7,2.1-1,.9-1.7,1.1c.8.2,1.5.6,2,1.2s.8,1.4.8,2.2-.4,2-1.2,2.7c-.8.7-1.9,1.1-3.4,1.1h-5.9ZM416.5,71.9h2.7c.7,0,1.3-.2,1.7-.5.4-.3.6-.8.6-1.4s-.2-1-.6-1.4c-.4-.3-.9-.5-1.7-.5h-2.6v3.8h-.1ZM416.5,77.9h2.9c.8,0,1.3-.2,1.8-.5.4-.4.6-.9.6-1.5s-.2-1.2-.7-1.5-1-.6-1.8-.6h-2.8v4.1ZM426.5,80v-14.4h2.6v14.4h-2.6ZM435.1,80.2c-.9,0-1.6,0-2.1-.4s-1-.6-1.2-1.1c-.3-.5-.4-1-.4-1.5,0-.9.4-1.7,1.1-2.2s1.8-.9,3.2-.9h2.5v-.2c0-.7-.2-1.2-.6-1.5s-.9-.5-1.4-.5-1,0-1.4.4c-.4.2-.6.6-.7,1.1h-2.5c.1-.7.3-1.3.7-1.9.4-.5,1-.9,1.6-1.2.7-.3,1.4-.4,2.2-.4,1.4,0,2.5.4,3.3,1.1s1.2,1.7,1.2,3v6h-2.2l-.2-1.6c-.3.5-.7,1-1.2,1.3-.4.4-1.1.5-1.9.5ZM435.7,78.2c.7,0,1.3-.2,1.7-.7.4-.5.7-1.1.8-1.8h-2.2c-.7,0-1.2,0-1.5.4-.3.2-.4.5-.4.9s.1.7.4.9c.3.2.7.3,1.2.3ZM448.1,80.2c-1,0-1.9-.2-2.7-.7-.8-.4-1.4-1.1-1.8-1.8-.4-.8-.7-1.7-.7-2.7s.2-1.9.7-2.7c.5-.8,1.1-1.4,1.8-1.8.8-.4,1.7-.7,2.7-.7s2.3.3,3.2,1c.9.7,1.4,1.6,1.7,2.7h-2.7c-.1-.5-.4-.9-.8-1.1-.4-.3-.8-.4-1.4-.4s-1.3.3-1.8.8-.7,1.3-.7,2.2.2,1.7.7,2.2,1.1.8,1.8.8,1,0,1.4-.4.7-.6.8-1.1h2.7c-.2,1.1-.8,2-1.7,2.7-.9.7-1.9,1-3.2,1ZM455.2,80v-14.4h2.6v8.5l3.5-4h3l-4.1,4.5,4.8,5.4h-3.2l-4-5v5h-2.6ZM474.8,80.2c-.9,0-1.6,0-2.1-.4s-1-.6-1.2-1.1c-.3-.5-.4-1-.4-1.5,0-.9.4-1.7,1.1-2.2s1.8-.9,3.2-.9h2.5v-.2c0-.7-.2-1.2-.6-1.5s-.9-.5-1.4-.5-1,0-1.4.4c-.4.2-.6.6-.7,1.1h-2.5c.1-.7.3-1.3.7-1.9.4-.5,1-.9,1.6-1.2.7-.3,1.4-.4,2.2-.4,1.4,0,2.5.4,3.3,1.1s1.2,1.7,1.2,3v6h-2.2l-.2-1.6c-.3.5-.7,1-1.2,1.3-.4.4-1.1.5-1.9.5ZM475.4,78.2c.7,0,1.3-.2,1.7-.7.4-.5.7-1.1.8-1.8h-2.2c-.7,0-1.2,0-1.5.4-.3.2-.4.5-.4.9s.1.7.4.9c.3.2.7.3,1.2.3ZM482.9,80v-9.9h2.3l.2,1.7c.3-.6.7-1.1,1.3-1.4.6-.3,1.3-.5,2.1-.5,1.2,0,2.2.4,2.9,1.2.7.8,1,1.9,1,3.4v5.5h-2.6v-5.4c0-.9-.2-1.5-.5-2s-.9-.7-1.6-.7-1.3.3-1.8.8-.7,1.2-.7,2.1v5.2h-2.6ZM499.6,80.2c-.9,0-1.8-.2-2.5-.7s-1.3-1.1-1.7-1.9c-.4-.8-.6-1.7-.6-2.7s.2-1.9.6-2.7c.4-.8,1-1.4,1.7-1.8.7-.5,1.6-.7,2.5-.7s1.4,0,2,.4,1,.7,1.4,1.2v-5.8h2.6v14.5h-2.3l-.3-1.4c-.3.4-.7.8-1.3,1.2-.5.3-1.2.4-2.1.4ZM500.2,78c.8,0,1.5-.3,2-.8.5-.6.8-1.3.8-2.1s-.3-1.6-.8-2.1c-.5-.6-1.2-.8-2-.8s-1.5.3-2,.8-.8,1.3-.8,2.1.3,1.6.8,2.1,1.2.8,2,.8ZM515.8,80l-3.7-14h2.7l2.5,11.1,3-11.1h2.8l2.9,11.1,2.5-11.1h2.8l-3.8,14h-3l-2.8-10.4-2.9,10.4h-3ZM533.1,80v-14.4h2.6v6c.3-.5.8-1,1.3-1.3.6-.3,1.2-.5,2-.5,1.2,0,2.2.4,2.8,1.2.7.8,1,1.9,1,3.4v5.6h-2.5v-5.4c0-.9-.2-1.5-.5-2s-.9-.7-1.6-.7-1.3.3-1.8.8-.7,1.2-.7,2.1v5.2h-2.6ZM546.6,68.5c-.5,0-.9,0-1.2-.4s-.4-.6-.4-1.1,0-.8.4-1c.3-.3.7-.4,1.2-.4s.8,0,1.1.4.5.6.5,1-.2.8-.5,1.1c-.2.3-.6.4-1.1.4ZM545.3,80v-9.9h2.6v9.9h-2.6ZM555,80c-1,0-1.9-.3-2.5-.8s-.9-1.4-.9-2.7v-4.3h-1.7v-2.1h1.7l.3-2.7h2.3v2.7h2.7v2.1h-2.7v4.3c0,.5,0,.8.3,1s.6.3,1.1.3h1.2v2.2h-1.8ZM563.6,80.2c-1,0-1.9-.2-2.7-.6s-1.4-1-1.8-1.8-.7-1.7-.7-2.7.2-1.9.6-2.7c.4-.8,1-1.4,1.8-1.9s1.7-.7,2.7-.7,1.8.2,2.6.6c.7.4,1.3,1,1.7,1.8.4.7.6,1.6.6,2.5v1h-7.4c0,.8.3,1.4.8,1.8s1.1.7,1.8.7,1,0,1.3-.3c.4-.2.6-.5.8-.9h2.6c-.2.6-.5,1.2-.9,1.7s-1,.9-1.6,1.2c-.7.2-1.4.3-2.2.3ZM563.6,71.9c-.6,0-1.2.2-1.7.5s-.8.9-.9,1.6h4.9c0-.7-.3-1.2-.7-1.6s-1-.5-1.6-.5Z"/>
  <path d="M594,111h-201c-20.3,0-37,16.7-37,37v201c0,20.3,16.7,37,37,37h201c20.3,0,37-16.7,37-37v-201c0-20.3-16.7-37-37-37ZM626.7,349c0,18.1-14.6,32.7-32.7,32.7h-201c-18.1,0-32.7-14.6-32.7-32.7v-19.7c31.7,41.6,81.2,21,108.9-6.9,2.9-2.9,7-4.1,11-3.2,47.6,10.3,128.2-18.3,128.2-83.2v-11c0-4.6,1.5-9.1,4.3-12.7,5.6-7.4,10.2-14.5,14-21.4v-42.9s0,0,0,0v201Z"/>
  <path class="st4" d="M434.1,186.2c-5,0-10.8-1.5-17.4-5.4-1.2-.7-1.6-2.3-.9-3.5s2.3-1.6,3.5-.9c9,5.3,21.8,8.7,31.8-5,.8-1.1,2.4-1.4,3.6-.6,1.1.8,1.4,2.4.6,3.6-3.8,5.1-10.7,11.7-21.2,11.8h0Z"/>
  <path class="st4" d="M490.1,174.3c-4.1,0-8.7-.9-14.1-3-1.3-.5-2-2-1.4-3.3.5-1.3,2-2,3.3-1.4,9.7,3.8,22.9,5.2,30.7-9.7.7-1.3,2.2-1.7,3.5-1.1,1.3.7,1.7,2.2,1.1,3.5-3.3,6.2-10.2,15-23.1,15h0Z"/>
  <path class="st4" d="M441.2,223.1c-17.6,0-33.2-3.5-44.4-10.2-1.2-.7-1.6-2.3-.9-3.5s2.3-1.6,3.5-.9c40.2,24.1,116.9.5,151.4-35.8,1-1,2.6-1.1,3.6-.1s1.1,2.6,0,3.6c-19.8,20.8-49.4,36.6-81.3,43.3-11,2.4-21.8,3.6-32,3.6h0Z"/>
  <path class="st1" d="M707.4,434c-.7,0-1.2-.2-1.7-.6-.4-.4-.6-1-.6-1.6v-20.9h4.7v20.9c0,.6-.2,1.2-.7,1.6-.5.4-1,.6-1.7.6ZM699.4,412.9c-.6,0-1.2-.2-1.6-.6-.4-.4-.6-.9-.6-1.5s.2-1.1.6-1.5c.4-.4,1-.6,1.6-.6h16c.6,0,1.1.2,1.5.6s.6.9.6,1.5-.2,1.1-.6,1.5c-.4.4-.9.5-1.5.5h-16ZM721,434c-.6,0-1.1-.2-1.5-.6s-.6-1-.6-1.6v-14.9c0-.6.2-1.1.6-1.5.4-.4.9-.6,1.5-.6s1.1.2,1.5.6.6.9.6,1.5v3.4l-.3-2.4c.3-.6.6-1.1,1-1.5.4-.5.9-.8,1.4-1.1.5-.3,1.1-.5,1.7-.7.6-.1,1.2-.2,1.8-.2s1.3.2,1.8.6.8.9.8,1.4c0,.8-.2,1.4-.6,1.7-.4.3-.9.5-1.3.5s-.9-.1-1.3-.3-.8-.3-1.3-.3-.9.1-1.3.3-.8.5-1.2.9-.7,1-.9,1.6-.3,1.4-.3,2.2v8.5c0,.6-.2,1.2-.6,1.6-.3.7-.8.9-1.5.9ZM749.8,414.4c.6,0,1.1.2,1.5.6s.6.9.6,1.6v15.2c0,.6-.2,1.2-.6,1.6-.4.4-.9.6-1.5.6s-1.1-.2-1.5-.6-.6-1-.6-1.6v-1.8l.8.3c0,.3-.2.7-.5,1.2-.3.4-.8.9-1.4,1.3-.6.4-1.3.8-2.1,1.1-.8.3-1.6.4-2.5.4-1.7,0-3.2-.4-4.5-1.3s-2.4-2-3.2-3.5-1.2-3.2-1.2-5.2.4-3.7,1.2-5.2,1.8-2.7,3.2-3.5c1.3-.9,2.8-1.3,4.4-1.3s2,.2,2.8.5c.9.3,1.6.7,2.2,1.2.6.5,1.1,1,1.5,1.5s.5.9.5,1.2l-1.3.5v-2.6c0-.6.2-1.1.6-1.5.5-.5,1-.7,1.6-.7ZM742.6,430.4c1.1,0,2-.3,2.8-.8s1.4-1.2,1.8-2.2c.5-.9.7-1.9.7-3.1s-.2-2.2-.7-3.1c-.4-.9-1-1.6-1.8-2.2-.8-.5-1.7-.8-2.8-.8s-1.9.3-2.7.8-1.4,1.2-1.9,2.2c-.4.9-.6,1.9-.6,3.1s.2,2.1.6,3.1c.5.9,1.1,1.6,1.9,2.2.7.5,1.6.8,2.7.8ZM767,414.4c1.8,0,3.1.4,4,1.1s1.6,1.7,1.9,3c.4,1.2.5,2.6.5,4.1v9.2c0,.6-.2,1.2-.6,1.6-.4.4-.9.6-1.5.6s-1.1-.2-1.5-.6-.6-1-.6-1.6v-9.2c0-.8,0-1.5-.3-2.1s-.6-1.2-1.1-1.5c-.5-.4-1.3-.6-2.3-.6s-1.8.2-2.4.6c-.6.4-1.2.9-1.5,1.5s-.5,1.3-.5,2.1v9.2c0,.6-.2,1.2-.6,1.6-.4.4-.9.6-1.5.6s-1.1-.2-1.5-.6-.6-1-.6-1.6v-14.9c0-.6.2-1.1.6-1.5.4-.4.9-.6,1.5-.6s1.1.2,1.5.6.6.9.6,1.5v1.5h-.5c.2-.5.5-.9.9-1.4s.9-.9,1.4-1.3c.6-.4,1.2-.7,1.9-1,.6-.2,1.3-.3,2.2-.3ZM793.9,414.7c.6,0,1.1.2,1.5.6s.6.9.6,1.6v22.1c0,.6-.2,1.1-.6,1.5-.4.4-.9.6-1.5.6s-1.1-.2-1.5-.6-.6-.9-.6-1.5v-9l.8.3c0,.3-.2.7-.5,1.2-.3.4-.8.9-1.4,1.3-.6.4-1.3.8-2.1,1.1-.8.3-1.6.4-2.5.4-1.7,0-3.2-.4-4.5-1.3s-2.4-2-3.2-3.5-1.2-3.2-1.2-5.2.4-3.7,1.2-5.2,1.8-2.7,3.2-3.5c1.3-.9,2.8-1.3,4.4-1.3s2,.2,2.8.5c.9.3,1.6.7,2.2,1.2.6.5,1.1,1,1.5,1.5s.5.9.5,1.2l-1.3.5v-2.3c0-.6.2-1.1.6-1.5.4-.4,1-.7,1.6-.7ZM786.6,430.4c1.1,0,2-.3,2.8-.8s1.4-1.2,1.8-2.2c.5-.9.7-1.9.7-3.1s-.2-2.2-.7-3.1c-.4-.9-1-1.6-1.8-2.2-.8-.5-1.7-.8-2.8-.8s-1.9.3-2.7.8-1.4,1.2-1.9,2.2c-.4.9-.6,1.9-.6,3.1s.2,2.1.6,3.1c.5.9,1.1,1.6,1.9,2.2.8.5,1.7.8,2.7.8ZM815,414.7c.6,0,1.1.2,1.5.6s.6.9.6,1.5v9.1c0,2.5-.7,4.6-2.1,6-1.4,1.5-3.5,2.2-6.1,2.2s-4.7-.7-6.1-2.2c-1.4-1.5-2.1-3.5-2.1-6v-9.1c0-.6.2-1.1.6-1.5.4-.4.9-.6,1.5-.6s1.1.2,1.5.6.6.9.6,1.5v9.1c0,1.5.3,2.6,1,3.3.6.7,1.6,1,2.9,1s2.3-.3,3-1c.6-.7,1-1.8,1-3.3v-9.1c0-.6.2-1.1.6-1.5.5-.3,1-.6,1.6-.6ZM825.9,431.8c0,.6-.2,1.2-.6,1.6-.4.4-.9.6-1.5.6s-1.1-.2-1.5-.6-.6-1-.6-1.6v-14.9c0-.6.2-1.1.6-1.5.4-.4.9-.6,1.5-.6s1.1.2,1.5.6.6.9.6,1.5v14.9ZM823.7,412.4c-.8,0-1.4-.1-1.7-.4s-.5-.7-.5-1.4v-.7c0-.7.2-1.2.5-1.4.4-.3,1-.4,1.7-.4s1.4.1,1.8.4.5.7.5,1.4v.7c0,.7-.2,1.2-.5,1.4-.4.3-1,.4-1.8.4ZM840.3,407.4c.5,0,1,.1,1.5.2s.9.4,1.3.7c.3.3.5.7.5,1.3s-.2,1.1-.5,1.4-.7.5-1.2.5-.5,0-1-.1c-.4-.1-.9-.2-1.3-.2-.6,0-1.1.1-1.4.4-.3.3-.5.6-.6.9s-.2.6-.2.9v18.4c0,.6-.2,1.2-.6,1.6-.4.4-.9.6-1.5.6s-1.1-.2-1.5-.6-.6-1-.6-1.6v-18.4c0-1.7.6-3.1,1.8-4.3s2.9-1.7,5.3-1.7ZM840.7,415.1c.6,0,1.1.2,1.4.6.4.4.6.8.6,1.4s-.2,1.1-.6,1.4c-.4.4-.9.5-1.4.5h-9.5c-.6,0-1.1-.2-1.4-.5-.4-.4-.6-.9-.6-1.4s.2-1,.6-1.4c.4-.4.9-.6,1.4-.6h9.5ZM860.4,414.7c.6,0,1.1.2,1.5.6s.6.9.6,1.5v15.3c0,2.2-.4,4-1.3,5.3-.8,1.3-1.9,2.3-3.3,2.8-1.4.6-3,.9-4.7.9s-1.6-.1-2.4-.2c-.9-.1-1.6-.3-2.1-.5-.7-.3-1.2-.7-1.5-1.2s-.3-.9,0-1.5c.2-.7.6-1.2,1-1.4.5-.2,1-.3,1.5-.1.4.1.9.3,1.5.5.6.3,1.3.4,2.2.4s2-.2,2.7-.5,1.3-.8,1.7-1.5.6-1.7.6-2.9v-2.2l.8.9c-.4.8-.9,1.5-1.5,2s-1.3.9-2.2,1.2c-.8.3-1.8.4-2.9.4s-2.4-.3-3.3-.9c-.9-.6-1.7-1.4-2.2-2.4-.5-1.1-.8-2.3-.8-3.6v-10.5c0-.6.2-1.1.6-1.5.4-.4.9-.6,1.5-.6s1.1.2,1.5.6.6.9.6,1.5v9.2c0,1.6.3,2.7,1,3.3.7.6,1.7.9,2.9.9s1.5-.2,2.1-.5,1-.8,1.3-1.4.5-1.4.5-2.3v-9.2c0-.6.2-1.1.6-1.5.4-.6.9-.9,1.6-.9Z"/>
  <path d="M736.7,81.2c-1.3,0-2.5-.3-3.5-.9s-1.8-1.4-2.3-2.5-.8-2.3-.8-3.8.3-2.7.8-3.8c.6-1.1,1.4-2,2.4-2.6,1.1-.6,2.3-.9,3.7-.9s3,.4,4.1,1.2c1.1.8,1.8,1.9,2.1,3.3h-2.9c-.2-.7-.6-1.2-1.2-1.5-.6-.4-1.3-.6-2.2-.6-1.4,0-2.5.4-3.2,1.3-.8.9-1.1,2.1-1.1,3.6s.4,2.7,1.1,3.6c.8.8,1.8,1.3,3.1,1.3s2.2-.3,2.9-1,1-1.6,1.2-2.7h-3.5v-1.9h6.1v7.7h-2.4l-.2-1.8c-.5.7-1,1.2-1.7,1.5-.6.4-1.4.5-2.5.5ZM746,81v-9.9h2.3l.2,1.9c.4-.6.8-1.1,1.5-1.5.6-.4,1.4-.6,2.2-.6v2.7h-.7c-.6,0-1.1,0-1.5.3-.4.2-.8.5-1,.9s-.4,1-.4,1.8v4.4h-2.6ZM758.6,81.2c-1,0-1.9-.2-2.7-.6s-1.4-1-1.8-1.8-.7-1.7-.7-2.7.2-1.9.6-2.7c.4-.8,1-1.4,1.8-1.9s1.7-.7,2.7-.7,1.8.2,2.6.6c.7.4,1.3,1,1.7,1.8.4.7.6,1.6.6,2.5v1h-7.4c0,.8.3,1.4.8,1.8s1.1.7,1.8.7,1,0,1.3-.3c.4-.2.6-.5.8-.9h2.6c-.2.6-.5,1.2-.9,1.7s-1,.9-1.6,1.2c-.7.2-1.4.3-2.2.3ZM758.6,72.9c-.6,0-1.2.2-1.7.5s-.8.9-.9,1.6h4.9c0-.7-.3-1.2-.7-1.6s-1-.5-1.6-.5ZM766.4,85.4l2.3-5.1h-.6l-3.9-9.3h2.8l2.8,7,2.9-7h2.7l-6.3,14.3h-2.7ZM786,81.2c-.9,0-1.7,0-2.3-.4-.7-.3-1.2-.7-1.6-1.2-.4-.5-.6-1.1-.7-1.8h2.6c0,.4.3.7.6,1,.4.3.8.4,1.4.4s1,0,1.2-.3c.3-.2.4-.5.4-.8s-.2-.7-.6-.9c-.4-.2-.9-.3-1.6-.5-.4,0-.9-.2-1.3-.3-.4,0-.8-.3-1.2-.5s-.7-.5-.9-.8-.3-.7-.3-1.2c0-.9.3-1.6,1-2.2s1.7-.9,3-.9,2.1.3,2.8.8,1.1,1.3,1.3,2.3h-2.4c0-.7-.7-1.1-1.7-1.1s-.9,0-1.1.3c-.3.2-.4.4-.4.7s.2.5.6.7c.4.2.9.3,1.5.5.7.2,1.3.3,1.9.5.6.2,1.1.5,1.4.9.3.4.5.9.5,1.6s0,1.2-.5,1.7c-.3.5-.8.9-1.4,1.2-.6.2-1.3.3-2.2.3ZM797.3,81.2c-1,0-1.9-.2-2.7-.7-.8-.4-1.4-1.1-1.8-1.8-.4-.8-.7-1.7-.7-2.7s.2-1.9.7-2.7c.5-.8,1.1-1.4,1.8-1.8.8-.4,1.7-.7,2.7-.7s2.3.3,3.2,1,1.4,1.6,1.7,2.7h-2.7c0-.5-.4-.9-.8-1.1-.4-.3-.8-.4-1.4-.4s-1.3.3-1.8.8-.7,1.3-.7,2.2.2,1.7.7,2.2,1.1.8,1.8.8,1,0,1.4-.4.7-.6.8-1.1h2.7c-.2,1.1-.8,2-1.7,2.7-.9.7-2,1-3.2,1ZM807.8,81.2c-.9,0-1.6,0-2.1-.4s-1-.6-1.2-1.1c-.3-.5-.4-1-.4-1.5,0-.9.4-1.7,1.1-2.2.7-.6,1.8-.9,3.2-.9h2.5v-.2c0-.7-.2-1.2-.6-1.5-.4-.3-.9-.5-1.4-.5s-1,0-1.4.4c-.4.2-.6.6-.7,1.1h-2.5c0-.7.3-1.3.7-1.9.4-.5,1-.9,1.6-1.2.7-.3,1.4-.4,2.2-.4,1.4,0,2.5.4,3.3,1.1s1.2,1.7,1.2,3v6h-2.2l-.2-1.6c-.3.5-.7,1-1.2,1.3-.4.4-1,.5-1.9.5ZM808.4,79.2c.7,0,1.3-.2,1.7-.7s.7-1.1.8-1.8h-2.2c-.7,0-1.2,0-1.5.4-.3.2-.4.5-.4.9s0,.7.4.9c.3.2.7.3,1.2.3ZM816,81v-14.4h2.6v14.4h-2.6ZM825.9,81.2c-1,0-1.9-.2-2.7-.6s-1.4-1-1.8-1.8-.7-1.7-.7-2.7.2-1.9.6-2.7c.4-.8,1-1.4,1.8-1.9s1.7-.7,2.7-.7,1.8.2,2.6.6c.7.4,1.3,1,1.7,1.8.4.7.6,1.6.6,2.5v1h-7.5c0,.8.3,1.4.8,1.8s1.1.7,1.8.7,1,0,1.3-.3c.4-.2.6-.5.8-.9h2.6c-.2.6-.5,1.2-.9,1.7s-1,.9-1.6,1.2c-.5.2-1.3.3-2.1.3ZM826,72.9c-.6,0-1.2.2-1.7.5s-.8.9-.9,1.6h4.9c0-.7-.3-1.2-.7-1.6s-1-.5-1.6-.5Z"/>
  <g>
    <image class="st2" width="1234" height="1114" transform="translate(639.2 106.3) scale(.2)" xlink:href="329991AD886C315F.png"/>
    <path class="st1" d="M880.7,110h-200.4c-20.5,0-37.3,16.8-37.3,37.3v200.4c0,20.5,16.8,37.3,37.3,37.3h200.4c20.5,0,37.3-16.8,37.3-37.3v-200.4c0-20.5-16.8-37.3-37.3-37.3ZM880.7,380.7h-200.4c-18.2,0-33-14.8-33-33v-19.3c31.7,41.6,81.2,21,108.9-6.9,2.9-2.9,7-4.1,11-3.2,47.6,10.3,128.2-18.3,128.2-83.2v-11c0-4.6,1.5-9.1,4.3-12.7,5.6-7.4,10.2-14.5,14-21.4v157.7h0c0,18.2-14.8,33-33,33Z"/>
    <path class="st4" d="M721.1,185.2c-5,0-10.8-1.5-17.4-5.4-1.2-.7-1.6-2.3-.9-3.5.7-1.2,2.3-1.6,3.5-.9,9,5.3,21.8,8.7,31.8-5,.8-1.1,2.4-1.4,3.6-.6,1.1.8,1.4,2.4.6,3.6-3.8,5.1-10.7,11.7-21.2,11.8h0Z"/>
    <path class="st4" d="M777.1,173.3c-4.1,0-8.7-.9-14.1-3-1.3-.5-2-2-1.4-3.3.5-1.3,2-2,3.3-1.4,9.7,3.8,22.9,5.2,30.7-9.7.7-1.3,2.2-1.7,3.5-1.1,1.3.7,1.7,2.2,1.1,3.5-3.3,6.2-10.2,15-23.1,15h0Z"/>
    <path class="st4" d="M728.2,222.1c-17.6,0-33.2-3.5-44.4-10.2-1.2-.7-1.6-2.3-.9-3.5.7-1.2,2.3-1.6,3.5-.9,40.2,24.1,116.9.5,151.4-35.8,1-1,2.6-1.1,3.6-.1s1.1,2.6,0,3.6c-19.8,20.8-49.4,36.6-81.3,43.3-11,2.4-21.9,3.6-32,3.6h0Z"/>
  </g>
  <path d="M597.8,508v-14h9v2.1h-6.5v3.9h5.2v2h-5.2v6h-2.5ZM611.3,508.2c-.9,0-1.6-.1-2.1-.4s-1-.6-1.2-1.1c-.3-.5-.4-1-.4-1.5,0-.9.4-1.7,1.1-2.2.7-.6,1.8-.9,3.2-.9h2.5v-.2c0-.7-.2-1.2-.6-1.5-.4-.3-.9-.5-1.4-.5s-1,.1-1.4.4c-.4.2-.6.6-.7,1.1h-2.5c0-.7.3-1.3.7-1.9.4-.5,1-.9,1.6-1.2.7-.3,1.4-.4,2.2-.4,1.4,0,2.5.4,3.3,1.1s1.2,1.7,1.2,3v6.1h-2.2l-.2-1.6c-.3.5-.7,1-1.2,1.3-.4.3-1,.4-1.9.4ZM611.9,506.2c.7,0,1.3-.2,1.7-.7s.7-1.1.8-1.8h-2.2c-.7,0-1.2.1-1.5.4-.3.2-.4.5-.4.9s0,.7.4.9c.4.2.7.3,1.2.3ZM621.9,508l-3.6-9.9h2.7l2.5,7.5,2.5-7.5h2.7l-3.7,9.9h-3.1ZM631.6,496.5c-.5,0-.9-.1-1.2-.4s-.4-.6-.4-1.1,0-.8.4-1c.3-.3.7-.4,1.2-.4s.8.1,1.1.4.5.6.5,1-.2.8-.5,1.1c-.2.3-.6.4-1.1.4ZM630.3,508v-9.9h2.6v9.9h-2.6ZM640.4,508.2c-1,0-1.9-.2-2.7-.7-.8-.4-1.4-1.1-1.8-1.8-.4-.8-.7-1.7-.7-2.7s.2-1.9.7-2.7c.5-.8,1.1-1.4,1.8-1.8.8-.4,1.7-.7,2.7-.7s2.3.3,3.2,1,1.4,1.6,1.7,2.7h-2.7c0-.5-.4-.9-.8-1.1-.4-.3-.8-.4-1.4-.4s-1.3.3-1.8.8-.7,1.3-.7,2.2.2,1.7.7,2.2,1.1.8,1.8.8,1-.1,1.4-.4.7-.6.8-1.1h2.7c-.2,1.1-.8,2-1.7,2.7-.8.7-1.9,1-3.2,1ZM652.3,508.2c-1,0-1.8-.2-2.6-.7-.8-.4-1.4-1-1.8-1.8-.4-.8-.7-1.7-.7-2.7s.2-1.9.7-2.7c.5-.8,1.1-1.4,1.8-1.8.8-.4,1.6-.7,2.6-.7s1.8.2,2.6.7c.8.4,1.4,1.1,1.8,1.8.5.8.7,1.7.7,2.7s-.2,1.9-.7,2.7c-.4.8-1,1.4-1.8,1.8-.8.5-1.6.7-2.6.7ZM652.3,506c.7,0,1.2-.2,1.7-.7s.7-1.3.7-2.2-.2-1.7-.7-2.2-1.1-.8-1.7-.8-1.3.3-1.8.8-.7,1.2-.7,2.2.2,1.7.7,2.2c.6.5,1.1.7,1.8.7ZM659.7,508v-9.9h2.3l.2,1.7c.3-.6.7-1.1,1.3-1.4s1.3-.5,2.1-.5c1.2,0,2.2.4,2.9,1.2s1,1.9,1,3.4v5.6h-2.6v-5.4c0-.9-.2-1.5-.5-2s-.9-.7-1.6-.7-1.3.3-1.8.8-.7,1.2-.7,2.1v5.1h-2.6Z"/>
  <path class="st0" d="M675,539.3h-12c-1,0-1.8.8-1.8,1.8v10.7c1.8,2.4,4.7,1.2,6.3-.4.2-.2.4-.2.6-.2,2.8.6,7.5-1.1,7.5-4.8v-.6c0-.3,0-.5.2-.7.3-.4.6-.8.8-1.2v-2.9c.1-1-.7-1.8-1.6-1.7h0Z"/>
  <path class="st0" d="M674.8,539h-11.7c-1.2,0-2.2,1-2.2,2.2v11.7c0,1.2,1,2.2,2.2,2.2h11.7c1.2,0,2.2-1,2.2-2.2v-11.7c0-1.2-1-2.2-2.2-2.2ZM676.7,552.8c0,1.1-.9,1.9-1.9,1.9h-11.7c-1.1,0-1.9-.9-1.9-1.9v-11.7c0-1.1.9-1.9,1.9-1.9h11.7c1.1,0,1.9.9,1.9,1.9v11.7Z"/>
  <path class="st4" d="M665.5,543.4c-.3,0-.6,0-1-.3,0,0,0,0,0-.2s0,0,.2,0c.5.3,1.3.5,1.9-.3,0,0,0,0,.2,0,0,0,0,0,0,.2-.1.3-.5.7-1.2.7h0Z"/>
  <path class="st4" d="M668.8,542.7c-.2,0-.5,0-.8-.2,0,0,0,0,0-.2s0,0,.2,0c.6.2,1.3.3,1.8-.6,0,0,0,0,.2,0s0,0,0,.2c-.2.5-.6,1-1.4,1h0Z"/>
  <path class="st4" d="M666,545.5c-1,0-1.9-.2-2.6-.6,0,0,0,0,0-.2s0,0,.2,0c2.3,1.4,6.8,0,8.8-2.1,0,0,.2,0,.2,0s0,.2,0,.2c-1.2,1.2-2.9,2.1-4.7,2.5-.6.3-1.3.3-1.8.3h0Z"/>
  <path d="M564.3,553v-8.9l-1.8.4v-1.5l2.7-1.2h1.3v11.2h-2.2ZM572.8,553.2c-.8,0-1.6-.2-2.1-.5-.6-.3-1-.7-1.4-1.2s-.6-1.1-.8-1.7c0-.6-.2-1.3-.2-2,0-1.2.2-2.3.5-3.2.4-.9.9-1.6,1.5-2.1.7-.5,1.5-.8,2.4-.8s1.4.2,2,.5c.5.3,1,.7,1.3,1.2s.5,1,.5,1.6h-1.9c0-.5-.3-.9-.6-1.1-.3-.3-.7-.4-1.2-.4s-1.3.3-1.7,1-.7,1.6-.7,3c.3-.4.6-.8,1.2-1.1.5-.3,1.1-.4,1.7-.4s1.2,0,1.7.4,1,.7,1.3,1.3c.3.5.5,1.2.5,1.9s-.2,1.3-.5,1.9c-.3.6-.8,1-1.4,1.4-.6,0-1.3.3-2.1.3ZM572.7,551.4c.6,0,1.1-.2,1.5-.5.4-.4.6-.8.6-1.4s-.2-1.1-.6-1.4c-.4-.4-.9-.5-1.5-.5s-.8,0-1.1.3-.6.4-.7.7c-.2.3-.3.6-.3,1,0,.6.2,1.1.6,1.4.4.2.9.4,1.5.4ZM581.8,553l2.9-4-2.9-4h2.2l2,2.8,2-2.8h2.2l-2.9,4,2.9,4h-2.2l-2-2.8-2,2.8h-2.2ZM596.6,553v-8.9l-1.8.4v-1.5l2.7-1.2h1.3v11.2h-2.2ZM605.1,553.2c-.8,0-1.6-.2-2.1-.5-.6-.3-1-.7-1.4-1.2s-.6-1.1-.8-1.7c0-.6-.2-1.3-.2-2,0-1.2.2-2.3.5-3.2.4-.9.9-1.6,1.5-2.1.7-.5,1.5-.8,2.4-.8s1.4.2,2,.5c.5.3,1,.7,1.3,1.2s.5,1,.5,1.6h-1.9c0-.5-.3-.9-.6-1.1-.3-.3-.7-.4-1.2-.4s-1.3.3-1.7,1-.7,1.6-.7,3c.3-.4.6-.8,1.2-1.1.5-.3,1.1-.4,1.7-.4s1.2,0,1.7.4,1,.7,1.3,1.3c.3.5.5,1.2.5,1.9s-.2,1.3-.5,1.9c-.3.6-.8,1-1.4,1.4-.7,0-1.4.3-2.1.3ZM605,551.4c.6,0,1.1-.2,1.5-.5.4-.4.6-.8.6-1.4s-.2-1.1-.6-1.4c-.4-.4-.9-.5-1.5-.5s-.8,0-1.1.3-.6.4-.7.7c-.2.3-.3.6-.3,1,0,.6.2,1.1.6,1.4.3.2.8.4,1.5.4ZM614.8,556.5v-11.5h1.8l.2,1.1c.3-.4.6-.7,1-.9.4-.3,1-.4,1.6-.4s1.4.2,2,.5c.6.4,1,.9,1.4,1.5.3.6.5,1.3.5,2.1s-.2,1.5-.5,2.1-.8,1.1-1.4,1.5c-.6.4-1.3.5-2,.5s-1.1,0-1.6-.3-.8-.5-1.1-.9v4.6h-1.9ZM619,551.4c.7,0,1.2-.2,1.6-.7.4-.4.6-1,.6-1.7s-.2-1.3-.6-1.7c-.4-.4-1-.7-1.6-.7s-1.2.2-1.6.7c-.4.4-.6,1-.6,1.7s.2,1.3.6,1.7c.4.5,1,.7,1.6.7ZM624,553l2.9-4-2.9-4h2.2l2,2.8,2-2.8h2.2l-2.9,4,2.9,4h-2.2l-2-2.8-2,2.8h-2.2Z"/>
  <path class="st0" d="M686.9,579.5h-23.9c-2,0-3.6,1.6-3.6,3.6v21.3c3.7,4.8,9.4,2.4,12.7-.8.3-.3.8-.5,1.3-.4,5.5,1.2,14.9-2.1,14.9-9.7v-1.3c0-.5.2-1.1.5-1.5.7-.9,1.2-1.7,1.6-2.5v-5.2c0-1.9-1.5-3.5-3.5-3.5h0Z"/>
  <path class="st0" d="M686.7,579h-23.3c-2.4,0-4.3,2-4.3,4.3v23.3c0,2.4,2,4.3,4.3,4.3h23.3c2.4,0,4.3-2,4.3-4.3v-23.3c0-2.3-2-4.3-4.3-4.3ZM690.5,606.7c0,2.1-1.7,3.8-3.8,3.8h-23.3c-2.1,0-3.8-1.7-3.8-3.8v-23.3c0-2.1,1.7-3.8,3.8-3.8h23.3c2.1,0,3.8,1.7,3.8,3.8v23.3Z"/>
  <path class="st4" d="M668.1,587.7c-.6,0-1.3-.2-2-.6,0,0-.2-.3,0-.4s.3-.2.4,0c1,.6,2.5,1,3.7-.6,0,0,.3-.2.4,0s.2.3,0,.4c-.5.7-1.3,1.4-2.5,1.4h0Z"/>
  <path class="st4" d="M674.6,586.4c-.5,0-1,0-1.6-.3-.2,0-.2-.2-.2-.4,0-.2.2-.2.4-.2,1.1.4,2.7.6,3.6-1.1,0,0,.3-.2.4,0s.2.3,0,.4c-.4.6-1.2,1.7-2.7,1.7h0Z"/>
  <path class="st4" d="M668.9,592c-2,0-3.9-.4-5.2-1.2,0,0-.2-.3,0-.4s.3-.2.4,0c4.7,2.8,13.6,0,17.6-4.2,0,0,.3,0,.4,0,0,0,0,.3,0,.4-2.3,2.4-5.7,4.3-9.5,5-1.1.4-2.4.5-3.6.5h0Z"/>
  <path d="M563.8,598.2c-.7,0-1.4,0-2-.4-.6-.3-1.1-.7-1.4-1.2-.4-.5-.6-1.2-.6-2h2c0,.5.2,1,.5,1.4.4.4.8.5,1.5.5s1.1-.2,1.4-.5.5-.7.5-1.2-.2-1-.6-1.3c-.4-.3-1-.5-1.6-.5h-.8v-1.7h.8c.5,0,1,0,1.4-.4.4-.3.5-.6.5-1.1s0-.7-.4-1c-.3-.3-.6-.4-1.1-.4s-.9.2-1.2.5-.4.7-.5,1.1h-2c0-1,.4-1.9,1.1-2.4.7-.6,1.6-.9,2.6-.9s1.4,0,1.9.4c.5.3.9.6,1.2,1.1.3.4.4.9.4,1.5s-.2,1.2-.5,1.6c-.3.4-.8.7-1.3.9.6,0,1.1.4,1.5.9s.6,1.1.6,1.8,0,1.2-.4,1.7c-.3.5-.7.9-1.3,1.2-.7.2-1.4.4-2.2.4ZM569.3,598v-1.5c.7-.6,1.3-1.1,2-1.7.7-.6,1.2-1.1,1.7-1.6s.9-1.1,1.2-1.6.5-1,.5-1.5,0-.9-.4-1.2c-.2-.4-.7-.5-1.2-.5s-1,.2-1.3.6c-.3.4-.4.8-.4,1.4h-2c0-.8.2-1.5.5-2,.3-.6.8-1,1.4-1.2.6-.3,1.2-.4,1.9-.4,1.1,0,2,.3,2.7.9.6.6,1,1.4,1,2.4s0,1.2-.4,1.8c-.3.6-.6,1.2-1.1,1.7s-1,1.1-1.5,1.5c-.5.5-1,.9-1.6,1.3h4.8v1.7h-7.8ZM581.8,598l2.9-4-2.9-4h2.2l2,2.8,2-2.8h2.2l-2.9,4,2.9,4h-2.2l-2-2.8-2,2.8h-2.2ZM599,598.2c-.7,0-1.4,0-2-.4-.6-.3-1.1-.7-1.4-1.2-.4-.5-.6-1.2-.6-2h2c0,.5.2,1,.5,1.4.4.4.8.5,1.5.5s1.1-.2,1.4-.5.5-.7.5-1.2-.2-1-.6-1.3c-.4-.3-1-.5-1.6-.5h-.8v-1.7h.8c.5,0,1,0,1.4-.4.4-.3.5-.6.5-1.1s0-.7-.4-1c-.3-.3-.6-.4-1.1-.4s-.9.2-1.2.5-.4.7-.5,1.1h-2c0-1,.4-1.9,1.1-2.4.7-.6,1.6-.9,2.6-.9s1.4,0,1.9.4c.5.3.9.6,1.2,1.1.3.4.4.9.4,1.5s-.2,1.2-.5,1.6c-.3.4-.8.7-1.3.9.6,0,1.1.4,1.5.9s.6,1.1.6,1.8-.2,1.2-.4,1.7c-.3.5-.7.9-1.3,1.2-.7.2-1.4.4-2.2.4ZM604.6,598v-1.5c.7-.6,1.3-1.1,2-1.7.7-.6,1.2-1.1,1.7-1.6s.9-1.1,1.2-1.6.5-1,.5-1.5,0-.9-.4-1.2c-.2-.4-.7-.5-1.2-.5s-1,.2-1.3.6c-.3.4-.4.8-.4,1.4h-2c0-.8.2-1.5.5-2,.3-.6.8-1,1.4-1.2.6-.3,1.2-.4,1.9-.4,1.1,0,2,.3,2.7.9.6.6,1,1.4,1,2.4s0,1.2-.4,1.8c-.3.6-.6,1.2-1.1,1.7s-1,1.1-1.5,1.5c-.5.5-1.1.9-1.6,1.3h4.8v1.7h-7.8ZM617.8,601.5v-11.5h1.8l.2,1.1c.3-.4.6-.7,1-.9.4-.3,1-.4,1.6-.4s1.4.2,2,.5c.6.4,1.1.9,1.4,1.5.3.6.5,1.3.5,2.1s-.2,1.5-.5,2.1-.8,1.1-1.4,1.5c-.6.4-1.3.5-2,.5s-1.1,0-1.6-.3-.8-.5-1.1-.9v4.6h-1.9ZM622.1,596.4c.7,0,1.2-.2,1.6-.7s.6-1,.6-1.7-.2-1.3-.6-1.7-1-.7-1.6-.7-1.2.2-1.6.7c-.4.4-.6,1-.6,1.7s.2,1.3.6,1.7c.4.5.9.7,1.6.7ZM627.1,598l2.9-4-2.9-4h2.2l2,2.8,2-2.8h2.2l-2.9,4,2.9,4h-2.2l-2-2.8-2,2.8h-2.2Z"/>
  <path class="st0" d="M701.9,629.8h-35.8c-3,0-5.4,2.4-5.4,5.4v32c5.5,7.3,14.2,3.7,19-1.2.5-.5,1.2-.7,1.9-.6,8.3,1.8,22.4-3.2,22.4-14.5v-1.9c0-.8.3-1.6.7-2.2,1-1.3,1.8-2.5,2.4-3.7v-7.8c0-3.2-2.3-5.5-5.2-5.5h0Z"/>
  <path class="st0" d="M701.5,629h-35c-3.6,0-6.5,2.9-6.5,6.5v35c0,3.6,2.9,6.5,6.5,6.5h35c3.6,0,6.5-2.9,6.5-6.5v-35c0-3.6-2.9-6.5-6.5-6.5ZM707.2,670.5c0,3.2-2.6,5.8-5.8,5.8h-35c-3.2,0-5.8-2.6-5.8-5.8v-35c0-3.2,2.6-5.8,5.8-5.8h35c3.2,0,5.8,2.6,5.8,5.8v35Z"/>
  <path class="st4" d="M673.6,642.1c-.9,0-1.9-.3-3-.9-.2,0-.3-.4-.2-.6,0-.2.4-.3.6-.2,1.6.9,3.8,1.5,5.6-.9,0-.2.4-.2.6,0s.2.4,0,.6c-.6,1-1.8,2.1-3.7,2.1h0Z"/>
  <path class="st4" d="M683.4,640.1c-.7,0-1.5-.2-2.5-.5-.2,0-.3-.4-.3-.6,0-.2.4-.3.6-.3,1.7.7,4,.9,5.4-1.7,0-.2.4-.3.6-.2.2,0,.3.4.2.6-.5,1.1-1.7,2.7-4,2.7h0Z"/>
  <path class="st4" d="M674.9,648.6c-3.1,0-5.8-.6-7.7-1.8-.2,0-.3-.4-.2-.6,0-.2.4-.3.6-.2,7,4.2,20.4,0,26.4-6.2.2-.2.5-.2.6,0,.2.2.2.5,0,.6-3.5,3.6-8.6,6.4-14.2,7.6-1.9.4-3.8.6-5.5.6h0Z"/>
  <path d="M564.2,646v-2.1h-5.5v-1.6l5.2-7.5h2.3v7.3h1.5v1.8h-1.5v2.1h-2ZM560.9,642.1h3.5v-5.1l-3.5,5.1ZM573.3,646.2c-.8,0-1.5,0-2.1-.4-.6-.3-1.1-.7-1.5-1.2s-.5-1.1-.5-1.7.2-1.3.5-1.8c.4-.5.8-.9,1.4-1.1-.5-.2-.9-.5-1.2-1-.3-.4-.4-.9-.4-1.4s0-1,.4-1.5c.3-.5.7-.8,1.3-1.1s1.3-.4,2.1-.4,1.5,0,2.1.4c.6.3,1,.6,1.3,1.1.3.4.4.9.4,1.5s-.2,1-.5,1.4-.7.7-1.2,1c.6.2,1.1.6,1.4,1.1.4.5.5,1.1.5,1.8s-.2,1.2-.5,1.7c-.4.5-.9.9-1.5,1.2s-1.3.4-2,.4ZM573.3,639.4c.6,0,1,0,1.3-.4.3-.3.5-.7.5-1.1s-.2-.9-.5-1.2-.7-.4-1.3-.4-1,0-1.3.4c-.3.3-.5.7-.5,1.2s.2.8.5,1.1c.3.2.7.4,1.3.4ZM573.3,644.5c.7,0,1.2-.2,1.6-.5.4-.3.5-.8.5-1.3s-.2-1-.6-1.3c-.4-.3-.9-.5-1.5-.5s-1.2.2-1.6.5c-.4.3-.6.8-.6,1.3s.2.9.5,1.3c.5.3,1,.5,1.7.5ZM582.4,646l2.9-4-2.9-4h2.2l2,2.8,2-2.8h2.2l-2.9,4,2.9,4h-2.2l-2-2.8-2,2.8h-2.2ZM601.1,646v-2.1h-5.5v-1.6l5.2-7.5h2.3v7.3h1.5v1.8h-1.5v2.1h-2ZM597.8,642.1h3.5v-5.1l-3.5,5.1ZM610.2,646.2c-.8,0-1.5,0-2.1-.4-.6-.3-1.1-.7-1.5-1.2s-.5-1.1-.5-1.7.2-1.3.5-1.8c.4-.5.8-.9,1.4-1.1-.5-.2-.9-.5-1.2-1-.3-.4-.4-.9-.4-1.4s0-1,.4-1.5c.3-.5.7-.8,1.3-1.1s1.3-.4,2.1-.4,1.5,0,2.1.4c.6.3,1,.6,1.3,1.1.3.4.4.9.4,1.5s-.2,1-.5,1.4-.7.7-1.2,1c.6.2,1.1.6,1.4,1.1.4.5.5,1.1.5,1.8s-.2,1.2-.5,1.7c-.4.5-.9.9-1.5,1.2-.6.3-1.2.4-2,.4ZM610.2,639.4c.6,0,1,0,1.3-.4.3-.3.5-.7.5-1.1s-.2-.9-.5-1.2-.7-.4-1.3-.4-1,0-1.3.4c-.3.3-.5.7-.5,1.2s.2.8.5,1.1c.3.2.7.4,1.3.4ZM610.2,644.5c.7,0,1.2-.2,1.6-.5.4-.3.5-.8.5-1.3s-.2-1-.6-1.3c-.4-.3-.9-.5-1.5-.5s-1.2.2-1.6.5c-.4.3-.6.8-.6,1.3s.2.9.5,1.3c.5.3,1,.5,1.7.5ZM620.1,649.5v-11.5h1.8l.2,1.1c.3-.4.6-.7,1-.9.4-.3,1-.4,1.6-.4s1.4.2,2,.5c.6.4,1.1.9,1.4,1.5.3.6.5,1.3.5,2.1s-.2,1.5-.5,2.1-.8,1.1-1.4,1.5c-.6.4-1.3.5-2,.5s-1.1,0-1.6-.3c-.4-.2-.8-.5-1.1-.9v4.6h-1.9ZM624.3,644.4c.7,0,1.2-.2,1.6-.7.4-.4.6-1,.6-1.7s-.2-1.3-.6-1.7c-.4-.4-1-.7-1.6-.7s-1.2.2-1.6.7c-.4.4-.6,1-.6,1.7s.2,1.3.6,1.7c.4.5,1,.7,1.6.7ZM629.3,646l2.9-4-2.9-4h2.2l2,2.8,2-2.8h2.2l-2.9,4,2.9,4h-2.2l-2-2.8-2,2.8h-2.2Z"/>
</svg>