<svg width="1126" height="576" viewBox="0 0 1126 576" fill="none" xmlns="http://www.w3.org/2000/svg">
<rect width="1125" height="575" fill="#F3F3F3"/>
<path d="M216.232 469C215.56 469 215.008 468.796 214.576 468.388C214.144 467.956 213.928 467.428 213.928 466.804V445.924H218.608V466.804C218.608 467.428 218.38 467.956 217.924 468.388C217.492 468.796 216.928 469 216.232 469ZM208.276 447.94C207.652 447.94 207.124 447.748 206.692 447.364C206.284 446.98 206.08 446.476 206.08 445.852C206.08 445.228 206.284 444.736 206.692 444.376C207.124 443.992 207.652 443.8 208.276 443.8H224.26C224.884 443.8 225.4 443.992 225.808 444.376C226.24 444.76 226.456 445.264 226.456 445.888C226.456 446.512 226.24 447.016 225.808 447.4C225.4 447.76 224.884 447.94 224.26 447.94H208.276ZM229.891 469C229.267 469 228.751 468.796 228.343 468.388C227.935 467.956 227.731 467.428 227.731 466.804V451.936C227.731 451.312 227.935 450.796 228.343 450.388C228.751 449.956 229.267 449.74 229.891 449.74C230.515 449.74 231.031 449.956 231.439 450.388C231.847 450.796 232.051 451.312 232.051 451.936V455.32L231.799 452.908C232.063 452.332 232.399 451.828 232.807 451.396C233.239 450.94 233.719 450.568 234.247 450.28C234.775 449.968 235.339 449.74 235.939 449.596C236.539 449.452 237.139 449.38 237.739 449.38C238.459 449.38 239.059 449.584 239.539 449.992C240.043 450.4 240.295 450.88 240.295 451.432C240.295 452.224 240.091 452.8 239.683 453.16C239.275 453.496 238.831 453.664 238.351 453.664C237.895 453.664 237.475 453.58 237.091 453.412C236.731 453.244 236.311 453.16 235.831 453.16C235.399 453.16 234.955 453.268 234.499 453.484C234.067 453.676 233.659 453.988 233.275 454.42C232.915 454.852 232.615 455.392 232.375 456.04C232.159 456.664 232.051 457.408 232.051 458.272V466.804C232.051 467.428 231.847 467.956 231.439 468.388C231.031 468.796 230.515 469 229.891 469ZM258.686 449.38C259.31 449.38 259.826 449.584 260.234 449.992C260.642 450.4 260.846 450.928 260.846 451.576V466.804C260.846 467.428 260.642 467.956 260.234 468.388C259.826 468.796 259.31 469 258.686 469C258.062 469 257.546 468.796 257.138 468.388C256.73 467.956 256.526 467.428 256.526 466.804V465.04L257.318 465.364C257.318 465.676 257.15 466.06 256.814 466.516C256.478 466.948 256.022 467.38 255.446 467.812C254.87 468.244 254.186 468.616 253.394 468.928C252.626 469.216 251.786 469.36 250.874 469.36C249.218 469.36 247.718 468.94 246.374 468.1C245.03 467.236 243.962 466.06 243.17 464.572C242.402 463.06 242.018 461.332 242.018 459.388C242.018 457.42 242.402 455.692 243.17 454.204C243.962 452.692 245.018 451.516 246.338 450.676C247.658 449.812 249.122 449.38 250.73 449.38C251.762 449.38 252.71 449.536 253.574 449.848C254.438 450.16 255.182 450.556 255.806 451.036C256.454 451.516 256.946 452.008 257.282 452.512C257.642 452.992 257.822 453.4 257.822 453.736L256.526 454.204V451.576C256.526 450.952 256.73 450.436 257.138 450.028C257.546 449.596 258.062 449.38 258.686 449.38ZM251.414 465.4C252.47 465.4 253.394 465.136 254.186 464.608C254.978 464.08 255.59 463.36 256.022 462.448C256.478 461.536 256.706 460.516 256.706 459.388C256.706 458.236 256.478 457.204 256.022 456.292C255.59 455.38 254.978 454.66 254.186 454.132C253.394 453.604 252.47 453.34 251.414 453.34C250.382 453.34 249.47 453.604 248.678 454.132C247.886 454.66 247.262 455.38 246.806 456.292C246.374 457.204 246.158 458.236 246.158 459.388C246.158 460.516 246.374 461.536 246.806 462.448C247.262 463.36 247.886 464.08 248.678 464.608C249.47 465.136 250.382 465.4 251.414 465.4ZM275.82 449.38C277.596 449.38 278.94 449.752 279.852 450.496C280.788 451.24 281.424 452.236 281.76 453.484C282.12 454.708 282.3 456.076 282.3 457.588V466.804C282.3 467.428 282.096 467.956 281.688 468.388C281.28 468.796 280.764 469 280.14 469C279.516 469 279 468.796 278.592 468.388C278.184 467.956 277.98 467.428 277.98 466.804V457.588C277.98 456.796 277.872 456.088 277.656 455.464C277.464 454.816 277.104 454.3 276.576 453.916C276.048 453.532 275.292 453.34 274.308 453.34C273.348 453.34 272.532 453.532 271.86 453.916C271.212 454.3 270.708 454.816 270.348 455.464C270.012 456.088 269.844 456.796 269.844 457.588V466.804C269.844 467.428 269.64 467.956 269.232 468.388C268.824 468.796 268.308 469 267.684 469C267.06 469 266.544 468.796 266.136 468.388C265.728 467.956 265.524 467.428 265.524 466.804V451.936C265.524 451.312 265.728 450.796 266.136 450.388C266.544 449.956 267.06 449.74 267.684 449.74C268.308 449.74 268.824 449.956 269.232 450.388C269.64 450.796 269.844 451.312 269.844 451.936V453.484L269.304 453.376C269.52 452.968 269.832 452.536 270.24 452.08C270.648 451.6 271.128 451.156 271.68 450.748C272.232 450.34 272.856 450.016 273.552 449.776C274.248 449.512 275.004 449.38 275.82 449.38ZM302.737 449.74C303.361 449.74 303.877 449.944 304.285 450.352C304.693 450.76 304.897 451.288 304.897 451.936V474.004C304.897 474.628 304.693 475.144 304.285 475.552C303.877 475.984 303.361 476.2 302.737 476.2C302.113 476.2 301.597 475.984 301.189 475.552C300.781 475.144 300.577 474.628 300.577 474.004V465.04L301.369 465.364C301.369 465.676 301.201 466.06 300.865 466.516C300.529 466.948 300.073 467.38 299.497 467.812C298.921 468.244 298.237 468.616 297.445 468.928C296.677 469.216 295.837 469.36 294.925 469.36C293.269 469.36 291.769 468.94 290.425 468.1C289.081 467.236 288.013 466.06 287.221 464.572C286.453 463.06 286.069 461.332 286.069 459.388C286.069 457.42 286.453 455.692 287.221 454.204C288.013 452.692 289.069 451.516 290.389 450.676C291.709 449.812 293.173 449.38 294.781 449.38C295.813 449.38 296.761 449.536 297.625 449.848C298.489 450.16 299.233 450.556 299.857 451.036C300.505 451.516 300.997 452.008 301.333 452.512C301.693 452.992 301.873 453.4 301.873 453.736L300.577 454.204V451.936C300.577 451.312 300.781 450.796 301.189 450.388C301.597 449.956 302.113 449.74 302.737 449.74ZM295.465 465.4C296.521 465.4 297.445 465.136 298.237 464.608C299.029 464.08 299.641 463.36 300.073 462.448C300.529 461.536 300.757 460.516 300.757 459.388C300.757 458.236 300.529 457.204 300.073 456.292C299.641 455.38 299.029 454.66 298.237 454.132C297.445 453.604 296.521 453.34 295.465 453.34C294.433 453.34 293.521 453.604 292.729 454.132C291.937 454.66 291.313 455.38 290.857 456.292C290.425 457.204 290.209 458.236 290.209 459.388C290.209 460.516 290.425 461.536 290.857 462.448C291.313 463.36 291.937 464.08 292.729 464.608C293.521 465.136 294.433 465.4 295.465 465.4ZM323.866 449.74C324.49 449.74 325.006 449.956 325.414 450.388C325.822 450.796 326.026 451.312 326.026 451.936V461.08C326.026 463.624 325.318 465.64 323.902 467.128C322.486 468.616 320.446 469.36 317.782 469.36C315.118 469.36 313.078 468.616 311.662 467.128C310.27 465.64 309.574 463.624 309.574 461.08V451.936C309.574 451.312 309.778 450.796 310.186 450.388C310.594 449.956 311.11 449.74 311.734 449.74C312.358 449.74 312.874 449.956 313.282 450.388C313.69 450.796 313.894 451.312 313.894 451.936V461.08C313.894 462.544 314.218 463.636 314.866 464.356C315.514 465.052 316.486 465.4 317.782 465.4C319.102 465.4 320.086 465.052 320.734 464.356C321.382 463.636 321.706 462.544 321.706 461.08V451.936C321.706 451.312 321.91 450.796 322.318 450.388C322.726 449.956 323.242 449.74 323.866 449.74ZM334.771 466.804C334.771 467.428 334.567 467.956 334.159 468.388C333.751 468.796 333.235 469 332.611 469C331.987 469 331.471 468.796 331.063 468.388C330.655 467.956 330.451 467.428 330.451 466.804V451.936C330.451 451.312 330.655 450.796 331.063 450.388C331.471 449.956 331.987 449.74 332.611 449.74C333.235 449.74 333.751 449.956 334.159 450.388C334.567 450.796 334.771 451.312 334.771 451.936V466.804ZM332.575 447.4C331.759 447.4 331.183 447.268 330.847 447.004C330.511 446.74 330.343 446.272 330.343 445.6V444.916C330.343 444.22 330.523 443.752 330.883 443.512C331.267 443.248 331.843 443.116 332.611 443.116C333.451 443.116 334.039 443.248 334.375 443.512C334.711 443.776 334.879 444.244 334.879 444.916V445.6C334.879 446.296 334.699 446.776 334.339 447.04C333.979 447.28 333.391 447.4 332.575 447.4ZM349.111 442.36C349.639 442.36 350.155 442.432 350.659 442.576C351.163 442.72 351.583 442.96 351.919 443.296C352.255 443.608 352.423 444.028 352.423 444.556C352.423 445.156 352.243 445.636 351.883 445.996C351.547 446.332 351.151 446.5 350.695 446.5C350.479 446.5 350.155 446.452 349.723 446.356C349.291 446.236 348.871 446.176 348.463 446.176C347.863 446.176 347.395 446.308 347.059 446.572C346.747 446.836 346.531 447.148 346.411 447.508C346.291 447.844 346.231 448.144 346.231 448.408V466.804C346.231 467.428 346.027 467.956 345.619 468.388C345.211 468.796 344.695 469 344.071 469C343.447 469 342.931 468.796 342.523 468.388C342.115 467.956 341.911 467.428 341.911 466.804V448.444C341.911 446.74 342.511 445.3 343.711 444.124C344.911 442.948 346.711 442.36 349.111 442.36ZM349.507 450.1C350.083 450.1 350.563 450.292 350.947 450.676C351.331 451.036 351.523 451.504 351.523 452.08C351.523 452.656 351.331 453.136 350.947 453.52C350.563 453.88 350.083 454.06 349.507 454.06H339.967C339.391 454.06 338.911 453.88 338.527 453.52C338.143 453.136 337.951 452.656 337.951 452.08C337.951 451.504 338.143 451.036 338.527 450.676C338.911 450.292 339.391 450.1 339.967 450.1H349.507ZM369.218 449.74C369.842 449.74 370.358 449.956 370.766 450.388C371.174 450.796 371.378 451.312 371.378 451.936V467.236C371.378 469.444 370.958 471.196 370.118 472.492C369.302 473.812 368.198 474.76 366.806 475.336C365.414 475.912 363.854 476.2 362.126 476.2C361.358 476.2 360.542 476.14 359.678 476.02C358.814 475.9 358.106 475.72 357.554 475.48C356.834 475.168 356.33 474.772 356.042 474.292C355.778 473.836 355.73 473.344 355.898 472.816C356.114 472.12 356.462 471.64 356.942 471.376C357.422 471.136 357.926 471.112 358.454 471.304C358.838 471.424 359.342 471.604 359.966 471.844C360.59 472.108 361.31 472.24 362.126 472.24C363.23 472.24 364.142 472.084 364.862 471.772C365.606 471.484 366.158 470.98 366.518 470.26C366.902 469.564 367.094 468.604 367.094 467.38V464.968L367.85 465.832C367.442 466.624 366.926 467.284 366.302 467.812C365.702 468.316 364.982 468.7 364.142 468.964C363.302 469.228 362.342 469.36 361.262 469.36C359.99 469.36 358.874 469.072 357.914 468.496C356.978 467.896 356.246 467.08 355.718 466.048C355.19 464.992 354.926 463.792 354.926 462.448V451.936C354.926 451.312 355.13 450.796 355.538 450.388C355.946 449.956 356.462 449.74 357.086 449.74C357.71 449.74 358.226 449.956 358.634 450.388C359.042 450.796 359.246 451.312 359.246 451.936V461.152C359.246 462.712 359.582 463.816 360.254 464.464C360.95 465.088 361.91 465.4 363.134 465.4C363.974 465.4 364.682 465.244 365.258 464.932C365.834 464.596 366.278 464.116 366.59 463.492C366.902 462.844 367.058 462.064 367.058 461.152V451.936C367.058 451.312 367.262 450.796 367.67 450.388C368.078 449.956 368.594 449.74 369.218 449.74Z" fill="#465939"/>
<path d="M390.89 140.2H191.1C174.58 140.2 161.2 153.59 161.2 170.1V348.79C192.1 389.37 240.32 369.3 267.29 342.02C270.09 339.19 274.16 338.06 278.04 338.9C324.4 348.92 402.98 321.04 402.98 257.81V247.08C402.98 242.61 404.44 238.25 407.13 234.69C412.59 227.48 417.11 220.53 420.79 213.82V170.1C420.79 153.58 407.4 140.19 390.88 140.19L390.89 140.2Z" fill="#A7BF87"/>
<path d="M388.66 136H193.34C173.35 136 157 152.35 157 172.34V367.66C157 387.65 173.35 404 193.34 404H388.66C408.65 404 425 387.65 425 367.66V172.34C425 152.35 408.65 136 388.66 136ZM420.8 367.66C420.8 385.41 406.41 399.8 388.66 399.8H193.34C175.59 399.8 161.2 385.41 161.2 367.66V172.34C161.2 154.59 175.59 140.2 193.34 140.2H388.66C406.41 140.2 420.8 154.59 420.8 172.34V367.66Z" fill="#A7BF87"/>
<path d="M233.12 209.24C228.27 209.24 222.63 207.78 216.16 203.99C214.97 203.29 214.57 201.76 215.26 200.57C215.96 199.38 217.49 198.98 218.68 199.67C227.43 204.79 239.92 208.11 249.69 194.8C250.51 193.69 252.07 193.44 253.18 194.26C254.29 195.08 254.53 196.64 253.72 197.75C250.05 202.74 243.32 209.23 233.12 209.23V209.24Z" fill="white"/>
<path d="M287.72 197.7C283.76 197.7 279.22 196.85 274.02 194.8C272.74 194.29 272.11 192.84 272.61 191.56C273.12 190.28 274.56 189.64 275.85 190.15C285.31 193.88 298.17 195.26 305.78 180.66C306.42 179.43 307.93 178.96 309.15 179.6C310.37 180.24 310.85 181.75 310.21 182.97C307.01 189.12 300.28 197.71 287.71 197.71L287.72 197.7Z" fill="white"/>
<path d="M240.02 245.22C222.86 245.22 207.67 241.85 196.76 235.3C195.58 234.59 195.19 233.05 195.9 231.87C196.61 230.69 198.15 230.3 199.33 231.01C238.52 254.52 313.22 231.48 346.87 196.12C347.82 195.12 349.4 195.08 350.4 196.03C351.4 196.98 351.44 198.56 350.49 199.56C331.22 219.8 302.36 235.19 271.3 241.79C260.51 244.08 249.93 245.21 240.01 245.21L240.02 245.22Z" fill="white"/>
<rect x="549.968" width="288" height="288" fill="#EEE1CC"/>
<path d="M750.31 69.7135H636.686C627.291 69.7135 619.682 77.3285 619.682 86.718V188.342C637.255 211.42 664.678 200.006 680.017 184.491C681.609 182.882 683.924 182.239 686.13 182.717C712.496 188.416 757.185 172.56 757.185 136.6V130.498C757.185 127.956 758.016 125.476 759.546 123.451C762.651 119.351 765.221 115.398 767.314 111.582V86.718C767.314 77.3229 759.699 69.7078 750.304 69.7078L750.31 69.7135Z" fill="#627952"/>
<path d="M749.041 67.3247H637.96C626.591 67.3247 617.293 76.6232 617.293 87.9918V199.073C617.293 210.442 626.591 219.74 637.96 219.74H749.041C760.41 219.74 769.709 210.442 769.709 199.073V87.9918C769.709 76.6232 760.41 67.3247 749.041 67.3247ZM767.32 199.073C767.32 209.168 759.136 217.352 749.041 217.352H637.96C627.865 217.352 619.682 209.168 619.682 199.073V87.9918C619.682 77.8971 627.865 69.7133 637.96 69.7133H749.041C759.136 69.7133 767.32 77.8971 767.32 87.9918V199.073Z" fill="#627952"/>
<path d="M660.584 108.977C657.825 108.977 654.618 108.147 650.938 105.992C650.261 105.594 650.034 104.723 650.426 104.047C650.824 103.37 651.695 103.142 652.371 103.535C657.348 106.447 664.451 108.335 670.007 100.765C670.474 100.134 671.361 99.9917 671.992 100.458C672.623 100.924 672.76 101.812 672.299 102.443C670.212 105.281 666.384 108.972 660.584 108.972V108.977Z" fill="white"/>
<path d="M691.635 102.414C689.383 102.414 686.801 101.931 683.844 100.765C683.116 100.475 682.758 99.6503 683.042 98.9224C683.332 98.1944 684.151 97.8304 684.885 98.1205C690.265 100.242 697.578 101.027 701.906 92.7234C702.27 92.0239 703.129 91.7566 703.823 92.1205C704.517 92.4845 704.79 93.3433 704.426 94.0371C702.606 97.5347 698.778 102.42 691.63 102.42L691.635 102.414Z" fill="white"/>
<path d="M664.508 129.44C654.749 129.44 646.11 127.523 639.905 123.798C639.234 123.394 639.012 122.519 639.416 121.847C639.82 121.176 640.696 120.955 641.367 121.358C663.655 134.729 706.138 121.626 725.275 101.516C725.815 100.947 726.714 100.924 727.282 101.465C727.851 102.005 727.874 102.904 727.334 103.472C716.375 114.983 699.961 123.736 682.297 127.489C676.161 128.791 670.144 129.434 664.502 129.434L664.508 129.44Z" fill="white"/>
<rect x="549.968" y="288" width="288" height="288" fill="#465939"/>
<path d="M750.31 357.713H636.686C627.291 357.713 619.682 365.329 619.682 374.718V476.342C637.255 499.42 664.678 488.006 680.017 472.491C681.609 470.882 683.924 470.239 686.13 470.717C712.496 476.416 757.185 460.56 757.185 424.6V418.498C757.185 415.956 758.016 413.476 759.546 411.451C762.651 407.351 765.221 403.398 767.314 399.582V374.718C767.314 365.323 759.699 357.708 750.304 357.708L750.31 357.713Z" fill="white"/>
<path d="M749.041 355.325H637.96C626.591 355.325 617.293 364.623 617.293 375.992V487.073C617.293 498.442 626.591 507.74 637.96 507.74H749.041C760.41 507.74 769.709 498.442 769.709 487.073V375.992C769.709 364.623 760.41 355.325 749.041 355.325ZM767.32 487.073C767.32 497.168 759.136 505.352 749.041 505.352H637.96C627.865 505.352 619.682 497.168 619.682 487.073V375.992C619.682 365.897 627.865 357.713 637.96 357.713H749.041C759.136 357.713 767.32 365.897 767.32 375.992V487.073Z" fill="white"/>
<path d="M660.584 396.977C657.825 396.977 654.618 396.147 650.938 393.992C650.261 393.594 650.034 392.723 650.426 392.047C650.824 391.37 651.695 391.142 652.371 391.535C657.348 394.447 664.451 396.335 670.007 388.765C670.474 388.134 671.361 387.992 671.992 388.458C672.623 388.924 672.76 389.812 672.299 390.443C670.212 393.281 666.384 396.972 660.584 396.972V396.977Z" fill="#465939"/>
<path d="M691.635 390.414C689.383 390.414 686.801 389.931 683.844 388.765C683.116 388.475 682.758 387.65 683.042 386.922C683.332 386.194 684.151 385.83 684.885 386.12C690.265 388.242 697.578 389.027 701.906 380.723C702.27 380.024 703.129 379.757 703.823 380.121C704.517 380.485 704.79 381.343 704.426 382.037C702.606 385.535 698.778 390.42 691.63 390.42L691.635 390.414Z" fill="#465939"/>
<path d="M664.508 417.44C654.749 417.44 646.11 415.523 639.905 411.798C639.234 411.394 639.012 410.519 639.416 409.847C639.82 409.176 640.696 408.955 641.367 409.358C663.655 422.729 706.138 409.626 725.275 389.516C725.815 388.947 726.714 388.924 727.282 389.465C727.851 390.005 727.874 390.904 727.334 391.472C716.375 402.983 699.961 411.736 682.297 415.489C676.161 416.791 670.144 417.434 664.502 417.434L664.508 417.44Z" fill="#465939"/>
<rect x="837.968" y="286.697" width="288" height="288" fill="#D9D9D9"/>
<path d="M1038.31 356.41H924.686C915.291 356.41 907.682 364.025 907.682 373.415V475.038C925.255 498.117 952.678 486.703 968.017 471.188C969.609 469.579 971.924 468.936 974.13 469.414C1000.5 475.112 1045.19 459.257 1045.19 423.297V417.194C1045.19 414.652 1046.02 412.173 1047.55 410.148C1050.65 406.048 1053.22 402.095 1055.31 398.279V373.415C1055.31 364.02 1047.7 356.405 1038.3 356.405L1038.31 356.41Z" fill="black"/>
<path d="M1037.04 354.021H925.96C914.592 354.021 905.293 363.32 905.293 374.689V485.77C905.293 497.139 914.592 506.437 925.96 506.437H1037.04C1048.41 506.437 1057.71 497.139 1057.71 485.77V374.689C1057.71 363.32 1048.41 354.021 1037.04 354.021ZM1055.32 485.77C1055.32 495.865 1047.14 504.048 1037.04 504.048H925.96C915.865 504.048 907.682 495.865 907.682 485.77V374.689C907.682 364.594 915.865 356.41 925.96 356.41H1037.04C1047.14 356.41 1055.32 364.594 1055.32 374.689V485.77Z" fill="black"/>
<path d="M948.584 395.674C945.825 395.674 942.618 394.844 938.938 392.688C938.261 392.29 938.034 391.42 938.426 390.743C938.824 390.067 939.695 389.839 940.371 390.232C945.348 393.143 952.451 395.032 958.007 387.462C958.474 386.831 959.361 386.688 959.992 387.155C960.623 387.621 960.76 388.508 960.299 389.14C958.212 391.978 954.384 395.668 948.584 395.668V395.674Z" fill="#EEE1CC"/>
<path d="M979.635 389.111C977.383 389.111 974.801 388.628 971.844 387.462C971.116 387.172 970.758 386.347 971.042 385.619C971.332 384.891 972.151 384.527 972.885 384.817C978.265 386.939 985.578 387.723 989.906 379.42C990.27 378.721 991.129 378.453 991.823 378.817C992.517 379.181 992.79 380.04 992.426 380.734C990.606 384.231 986.778 389.117 979.63 389.117L979.635 389.111Z" fill="#EEE1CC"/>
<path d="M952.508 416.137C942.749 416.137 934.11 414.22 927.905 410.495C927.234 410.091 927.012 409.216 927.416 408.544C927.82 407.873 928.696 407.652 929.367 408.055C951.655 421.426 994.138 408.323 1013.27 388.213C1013.82 387.644 1014.71 387.621 1015.28 388.162C1015.85 388.702 1015.87 389.601 1015.33 390.169C1004.37 401.68 987.961 410.433 970.297 414.186C964.161 415.488 958.144 416.131 952.502 416.131L952.508 416.137Z" fill="#EEE1CC"/>
<rect x="836.665" width="288" height="288" fill="#705F44"/>
<path d="M1037.01 69.7135H923.383C913.988 69.7135 906.378 77.3285 906.378 86.718V188.342C923.952 211.42 951.375 200.006 966.713 184.491C968.306 182.882 970.621 182.239 972.827 182.717C999.193 188.416 1043.88 172.56 1043.88 136.6V130.498C1043.88 127.956 1044.71 125.476 1046.24 123.451C1049.35 119.351 1051.92 115.398 1054.01 111.582V86.718C1054.01 77.3229 1046.4 69.7078 1037 69.7078L1037.01 69.7135Z" fill="white"/>
<path d="M1035.74 67.3247H924.657C913.288 67.3247 903.99 76.6232 903.99 87.9918V199.073C903.99 210.442 913.288 219.74 924.657 219.74H1035.74C1047.11 219.74 1056.41 210.442 1056.41 199.073V87.9918C1056.41 76.6232 1047.11 67.3247 1035.74 67.3247ZM1054.02 199.073C1054.02 209.168 1045.83 217.352 1035.74 217.352H924.657C914.562 217.352 906.378 209.168 906.378 199.073V87.9918C906.378 77.8971 914.562 69.7133 924.657 69.7133H1035.74C1045.83 69.7133 1054.02 77.8971 1054.02 87.9918V199.073Z" fill="white"/>
<path d="M947.28 108.977C944.522 108.977 941.315 108.147 937.635 105.992C936.958 105.594 936.731 104.723 937.123 104.047C937.521 103.37 938.391 103.142 939.068 103.535C944.044 106.447 951.148 108.335 956.704 100.765C957.17 100.134 958.058 99.9917 958.689 100.458C959.32 100.924 959.457 101.812 958.996 102.443C956.909 105.281 953.081 108.972 947.28 108.972V108.977Z" fill="#705F44"/>
<path d="M978.332 102.414C976.08 102.414 973.498 101.931 970.541 100.765C969.813 100.475 969.455 99.6503 969.739 98.9224C970.029 98.1944 970.848 97.8304 971.582 98.1205C976.962 100.242 984.275 101.027 988.603 92.7234C988.967 92.0239 989.826 91.7566 990.52 92.1205C991.214 92.4845 991.487 93.3433 991.123 94.0371C989.303 97.5347 985.475 102.42 978.327 102.42L978.332 102.414Z" fill="#705F44"/>
<path d="M951.205 129.44C941.445 129.44 932.807 127.523 926.602 123.798C925.931 123.394 925.709 122.519 926.113 121.847C926.517 121.176 927.393 120.955 928.064 121.358C950.352 134.729 992.835 121.626 1011.97 101.516C1012.51 100.947 1013.41 100.924 1013.98 101.465C1014.55 102.005 1014.57 102.904 1014.03 103.472C1003.07 114.983 986.658 123.736 968.994 127.489C962.858 128.791 956.841 129.434 951.199 129.434L951.205 129.44Z" fill="#705F44"/>
</svg>
