<?xml version="1.0" encoding="utf-8"?>
<!-- Generator: Adobe Illustrator 28.2.0, SVG Export Plug-In . SVG Version: 6.00 Build 0)  -->
<svg version="1.1" id="Layer_1" xmlns="http://www.w3.org/2000/svg" xmlns:xlink="http://www.w3.org/1999/xlink" x="0px" y="0px"
	 viewBox="0 0 983 727" style="enable-background:new 0 0 983 727;" xml:space="preserve">
<style type="text/css">
	.st0{fill:#F3F3F3;}
	.st1{fill:#465939;}
	.st2{fill:#A7BF87;}
	.st3{fill:#FFFFFF;}
	.st4{fill:#A7A7A7;}
</style>
<path class="st0" d="M30,0h923c16.6,0,30,13.4,30,30v667c0,16.6-13.4,30-30,30H30c-16.6,0-30-13.4-30-30V30C0,13.4,13.4,0,30,0z"/>
<path class="st1" d="M120.4,435c-0.7,0-1.2-0.2-1.7-0.6c-0.4-0.4-0.6-1-0.6-1.6v-20.9h4.7v20.9c0,0.6-0.2,1.2-0.7,1.6
	C121.6,434.8,121.1,435,120.4,435z M112.4,413.9c-0.6,0-1.2-0.2-1.6-0.6c-0.4-0.4-0.6-0.9-0.6-1.5c0-0.6,0.2-1.1,0.6-1.5
	c0.4-0.4,1-0.6,1.6-0.6h16c0.6,0,1.1,0.2,1.5,0.6c0.4,0.4,0.6,0.9,0.6,1.5s-0.2,1.1-0.6,1.5c-0.4,0.4-0.9,0.5-1.5,0.5H112.4z
	 M134,435c-0.6,0-1.1-0.2-1.5-0.6c-0.4-0.4-0.6-1-0.6-1.6v-14.9c0-0.6,0.2-1.1,0.6-1.5c0.4-0.4,0.9-0.6,1.5-0.6
	c0.6,0,1.1,0.2,1.5,0.6c0.4,0.4,0.6,0.9,0.6,1.5v3.4l-0.3-2.4c0.3-0.6,0.6-1.1,1-1.5c0.4-0.5,0.9-0.8,1.4-1.1
	c0.5-0.3,1.1-0.5,1.7-0.7c0.6-0.1,1.2-0.2,1.8-0.2c0.7,0,1.3,0.2,1.8,0.6c0.5,0.4,0.8,0.9,0.8,1.4c0,0.8-0.2,1.4-0.6,1.7
	c-0.4,0.3-0.9,0.5-1.3,0.5c-0.5,0-0.9-0.1-1.3-0.3c-0.4-0.2-0.8-0.3-1.3-0.3c-0.4,0-0.9,0.1-1.3,0.3c-0.4,0.2-0.8,0.5-1.2,0.9
	c-0.4,0.4-0.7,1-0.9,1.6c-0.2,0.6-0.3,1.4-0.3,2.2v8.5c0,0.6-0.2,1.2-0.6,1.6C135.2,434.8,134.7,435,134,435z M162.8,415.4
	c0.6,0,1.1,0.2,1.5,0.6s0.6,0.9,0.6,1.6v15.2c0,0.6-0.2,1.2-0.6,1.6c-0.4,0.4-0.9,0.6-1.5,0.6c-0.6,0-1.1-0.2-1.5-0.6
	c-0.4-0.4-0.6-1-0.6-1.6V431l0.8,0.3c0,0.3-0.2,0.7-0.5,1.2c-0.3,0.4-0.8,0.9-1.4,1.3c-0.6,0.4-1.3,0.8-2.1,1.1
	c-0.8,0.3-1.6,0.4-2.5,0.4c-1.7,0-3.2-0.4-4.5-1.3c-1.3-0.9-2.4-2-3.2-3.5c-0.8-1.5-1.2-3.2-1.2-5.2c0-2,0.4-3.7,1.2-5.2
	c0.8-1.5,1.8-2.7,3.2-3.5c1.3-0.9,2.8-1.3,4.4-1.3c1,0,2,0.2,2.8,0.5c0.9,0.3,1.6,0.7,2.2,1.2c0.6,0.5,1.1,1,1.5,1.5
	c0.4,0.5,0.5,0.9,0.5,1.2l-1.3,0.5v-2.6c0-0.6,0.2-1.1,0.6-1.5C161.7,415.6,162.2,415.4,162.8,415.4z M155.6,431.4
	c1.1,0,2-0.3,2.8-0.8c0.8-0.5,1.4-1.2,1.8-2.2c0.5-0.9,0.7-1.9,0.7-3.1c0-1.2-0.2-2.2-0.7-3.1c-0.4-0.9-1-1.6-1.8-2.2
	c-0.8-0.5-1.7-0.8-2.8-0.8c-1,0-1.9,0.3-2.7,0.8c-0.8,0.5-1.4,1.2-1.9,2.2c-0.4,0.9-0.6,1.9-0.6,3.1c0,1.1,0.2,2.1,0.6,3.1
	c0.5,0.9,1.1,1.6,1.9,2.2C153.6,431.1,154.5,431.4,155.6,431.4z M180,415.4c1.8,0,3.1,0.4,4,1.1c0.9,0.7,1.6,1.7,1.9,3
	c0.4,1.2,0.5,2.6,0.5,4.1v9.2c0,0.6-0.2,1.2-0.6,1.6c-0.4,0.4-0.9,0.6-1.5,0.6c-0.6,0-1.1-0.2-1.5-0.6c-0.4-0.4-0.6-1-0.6-1.6v-9.2
	c0-0.8-0.1-1.5-0.3-2.1c-0.2-0.6-0.6-1.2-1.1-1.5c-0.5-0.4-1.3-0.6-2.3-0.6c-1,0-1.8,0.2-2.4,0.6c-0.6,0.4-1.2,0.9-1.5,1.5
	c-0.3,0.6-0.5,1.3-0.5,2.1v9.2c0,0.6-0.2,1.2-0.6,1.6c-0.4,0.4-0.9,0.6-1.5,0.6c-0.6,0-1.1-0.2-1.5-0.6c-0.4-0.4-0.6-1-0.6-1.6
	v-14.9c0-0.6,0.2-1.1,0.6-1.5c0.4-0.4,0.9-0.6,1.5-0.6c0.6,0,1.1,0.2,1.5,0.6c0.4,0.4,0.6,0.9,0.6,1.5v1.5l-0.5-0.1
	c0.2-0.4,0.5-0.8,0.9-1.3c0.4-0.5,0.9-0.9,1.4-1.3c0.6-0.4,1.2-0.7,1.9-1C178.4,415.5,179.1,415.4,180,415.4z M206.9,415.7
	c0.6,0,1.1,0.2,1.5,0.6c0.4,0.4,0.6,0.9,0.6,1.6V440c0,0.6-0.2,1.1-0.6,1.5c-0.4,0.4-0.9,0.6-1.5,0.6c-0.6,0-1.1-0.2-1.5-0.6
	c-0.4-0.4-0.6-0.9-0.6-1.5v-9l0.8,0.3c0,0.3-0.2,0.7-0.5,1.2c-0.3,0.4-0.8,0.9-1.4,1.3c-0.6,0.4-1.3,0.8-2.1,1.1
	c-0.8,0.3-1.6,0.4-2.5,0.4c-1.7,0-3.2-0.4-4.5-1.3c-1.3-0.9-2.4-2-3.2-3.5c-0.8-1.5-1.2-3.2-1.2-5.2c0-2,0.4-3.7,1.2-5.2
	c0.8-1.5,1.8-2.7,3.2-3.5c1.3-0.9,2.8-1.3,4.4-1.3c1,0,2,0.2,2.8,0.5c0.9,0.3,1.6,0.7,2.2,1.2c0.6,0.5,1.1,1,1.5,1.5
	c0.4,0.5,0.5,0.9,0.5,1.2l-1.3,0.5v-2.3c0-0.6,0.2-1.1,0.6-1.5C205.7,416,206.3,415.7,206.9,415.7z M199.6,431.4
	c1.1,0,2-0.3,2.8-0.8c0.8-0.5,1.4-1.2,1.8-2.2c0.5-0.9,0.7-1.9,0.7-3.1c0-1.2-0.2-2.2-0.7-3.1c-0.4-0.9-1-1.6-1.8-2.2
	c-0.8-0.5-1.7-0.8-2.8-0.8c-1,0-1.9,0.3-2.7,0.8c-0.8,0.5-1.4,1.2-1.9,2.2c-0.4,0.9-0.6,1.9-0.6,3.1c0,1.1,0.2,2.1,0.6,3.1
	c0.5,0.9,1.1,1.6,1.9,2.2C197.7,431.1,198.6,431.4,199.6,431.4z M228,415.7c0.6,0,1.1,0.2,1.5,0.6c0.4,0.4,0.6,0.9,0.6,1.5v9.1
	c0,2.5-0.7,4.6-2.1,6c-1.4,1.5-3.5,2.2-6.1,2.2s-4.7-0.7-6.1-2.2c-1.4-1.5-2.1-3.5-2.1-6v-9.1c0-0.6,0.2-1.1,0.6-1.5
	c0.4-0.4,0.9-0.6,1.5-0.6c0.6,0,1.1,0.2,1.5,0.6c0.4,0.4,0.6,0.9,0.6,1.5v9.1c0,1.5,0.3,2.6,1,3.3c0.6,0.7,1.6,1,2.9,1
	c1.3,0,2.3-0.3,3-1c0.6-0.7,1-1.8,1-3.3v-9.1c0-0.6,0.2-1.1,0.6-1.5C226.9,416,227.4,415.7,228,415.7z M238.9,432.8
	c0,0.6-0.2,1.2-0.6,1.6c-0.4,0.4-0.9,0.6-1.5,0.6c-0.6,0-1.1-0.2-1.5-0.6c-0.4-0.4-0.6-1-0.6-1.6v-14.9c0-0.6,0.2-1.1,0.6-1.5
	c0.4-0.4,0.9-0.6,1.5-0.6c0.6,0,1.1,0.2,1.5,0.6c0.4,0.4,0.6,0.9,0.6,1.5V432.8z M236.7,413.4c-0.8,0-1.4-0.1-1.7-0.4
	s-0.5-0.7-0.5-1.4v-0.7c0-0.7,0.2-1.2,0.5-1.4c0.4-0.3,1-0.4,1.7-0.4c0.8,0,1.4,0.1,1.8,0.4s0.5,0.7,0.5,1.4v0.7
	c0,0.7-0.2,1.2-0.5,1.4C238.1,413.3,237.5,413.4,236.7,413.4z M253.3,408.4c0.5,0,1,0.1,1.5,0.2c0.5,0.1,0.9,0.4,1.3,0.7
	c0.3,0.3,0.5,0.7,0.5,1.3c0,0.6-0.2,1.1-0.5,1.4c-0.3,0.3-0.7,0.5-1.2,0.5c-0.2,0-0.5,0-1-0.1c-0.4-0.1-0.9-0.2-1.3-0.2
	c-0.6,0-1.1,0.1-1.4,0.4c-0.3,0.3-0.5,0.6-0.6,0.9c-0.1,0.3-0.2,0.6-0.2,0.9v18.4c0,0.6-0.2,1.2-0.6,1.6c-0.4,0.4-0.9,0.6-1.5,0.6
	c-0.6,0-1.1-0.2-1.5-0.6c-0.4-0.4-0.6-1-0.6-1.6v-18.4c0-1.7,0.6-3.1,1.8-4.3S250.9,408.4,253.3,408.4z M253.6,416.1
	c0.6,0,1.1,0.2,1.4,0.6c0.4,0.4,0.6,0.8,0.6,1.4c0,0.6-0.2,1.1-0.6,1.4c-0.4,0.4-0.9,0.5-1.4,0.5h-9.5c-0.6,0-1.1-0.2-1.4-0.5
	c-0.4-0.4-0.6-0.9-0.6-1.4c0-0.6,0.2-1,0.6-1.4c0.4-0.4,0.9-0.6,1.4-0.6H253.6z M273.4,415.7c0.6,0,1.1,0.2,1.5,0.6
	c0.4,0.4,0.6,0.9,0.6,1.5v15.3c0,2.2-0.4,4-1.3,5.3c-0.8,1.3-1.9,2.3-3.3,2.8s-3,0.9-4.7,0.9c-0.8,0-1.6-0.1-2.4-0.2
	c-0.9-0.1-1.6-0.3-2.1-0.5c-0.7-0.3-1.2-0.7-1.5-1.2c-0.3-0.5-0.3-0.9-0.1-1.5c0.2-0.7,0.6-1.2,1-1.4c0.5-0.2,1-0.3,1.5-0.1
	c0.4,0.1,0.9,0.3,1.5,0.5c0.6,0.3,1.3,0.4,2.2,0.4c1.1,0,2-0.2,2.7-0.5c0.7-0.3,1.3-0.8,1.7-1.5c0.4-0.7,0.6-1.7,0.6-2.9V431
	l0.8,0.9c-0.4,0.8-0.9,1.5-1.5,2c-0.6,0.5-1.3,0.9-2.2,1.2c-0.8,0.3-1.8,0.4-2.9,0.4c-1.3,0-2.4-0.3-3.3-0.9
	c-0.9-0.6-1.7-1.4-2.2-2.4c-0.5-1.1-0.8-2.3-0.8-3.6v-10.5c0-0.6,0.2-1.1,0.6-1.5c0.4-0.4,0.9-0.6,1.5-0.6s1.1,0.2,1.5,0.6
	c0.4,0.4,0.6,0.9,0.6,1.5v9.2c0,1.6,0.3,2.7,1,3.3c0.7,0.6,1.7,0.9,2.9,0.9c0.8,0,1.5-0.2,2.1-0.5c0.6-0.3,1-0.8,1.3-1.4
	c0.3-0.6,0.5-1.4,0.5-2.3v-9.2c0-0.6,0.2-1.1,0.6-1.5C272.2,416,272.7,415.7,273.4,415.7z"/>
<path class="st2" d="M296,115.3H91c-17,0-30.7,13.7-30.7,30.7v183.4c31.7,41.6,81.2,21,108.9-6.9c2.9-2.9,7-4.1,11-3.2
	c47.6,10.3,128.2-18.3,128.2-83.2v-11c0-4.6,1.5-9.1,4.3-12.7c5.6-7.4,10.2-14.5,14-21.4V146C326.7,129,312.9,115.3,296,115.3
	L296,115.3z"/>
<path class="st2" d="M293.7,111H93.3C72.8,111,56,127.8,56,148.3v200.4c0,20.5,16.8,37.3,37.3,37.3h200.4
	c20.5,0,37.3-16.8,37.3-37.3V148.3C331,127.8,314.2,111,293.7,111z M326.7,348.7c0,18.2-14.8,33-33,33H93.3c-18.2,0-33-14.8-33-33
	V148.3c0-18.2,14.8-33,33-33h200.4c18.2,0,33,14.8,33,33V348.7z"/>
<path class="st3" d="M134.1,186.2c-5,0-10.8-1.5-17.4-5.4c-1.2-0.7-1.6-2.3-0.9-3.5c0.7-1.2,2.3-1.6,3.5-0.9c9,5.3,21.8,8.7,31.8-5
	c0.8-1.1,2.4-1.4,3.6-0.6c1.1,0.8,1.4,2.4,0.6,3.6C151.5,179.5,144.6,186.1,134.1,186.2L134.1,186.2z"/>
<path class="st3" d="M190.1,174.3c-4.1,0-8.7-0.9-14.1-3c-1.3-0.5-2-2-1.4-3.3c0.5-1.3,2-2,3.3-1.4c9.7,3.8,22.9,5.2,30.7-9.7
	c0.7-1.3,2.2-1.7,3.5-1.1c1.3,0.7,1.7,2.2,1.1,3.5C209.9,165.5,203,174.3,190.1,174.3L190.1,174.3z"/>
<path class="st3" d="M141.2,223.1c-17.6,0-33.2-3.5-44.4-10.2c-1.2-0.7-1.6-2.3-0.9-3.5c0.7-1.2,2.3-1.6,3.5-0.9
	c40.2,24.1,116.9,0.5,151.4-35.8c1-1,2.6-1.1,3.6-0.1c1,1,1.1,2.6,0.1,3.6c-19.8,20.8-49.4,36.6-81.3,43.3
	C162.2,221.9,151.3,223.1,141.2,223.1L141.2,223.1z"/>
<path d="M143.6,80V66h9v2.1h-6.5V72h5.2v2h-5.2v6H143.6z M158.2,80.2c-1.2,0-2.2-0.4-2.9-1.2c-0.7-0.8-1-1.9-1-3.4v-5.6h2.5v5.4
	c0,0.9,0.2,1.5,0.5,2c0.3,0.5,0.9,0.7,1.6,0.7c0.7,0,1.3-0.3,1.7-0.8c0.5-0.5,0.7-1.2,0.7-2.1v-5.1h2.6V80h-2.3l-0.2-1.7
	c-0.3,0.6-0.8,1.1-1.3,1.4C159.7,80.1,159,80.2,158.2,80.2z M166.7,80V65.6h2.6V80H166.7z M171.9,80V65.6h2.6V80H171.9z M188.2,80.2
	c-1.4,0-2.6-0.3-3.6-0.9c-1-0.6-1.8-1.5-2.3-2.5c-0.5-1.1-0.8-2.4-0.8-3.8c0-1.4,0.3-2.7,0.8-3.8c0.5-1.1,1.3-1.9,2.3-2.6
	c1-0.6,2.2-0.9,3.6-0.9c1.7,0,3.1,0.4,4.1,1.3c1.1,0.8,1.8,2,2,3.5h-2.8c-0.2-0.8-0.5-1.4-1.1-1.8c-0.6-0.4-1.3-0.7-2.2-0.7
	c-1.3,0-2.3,0.4-3,1.3c-0.7,0.9-1.1,2.1-1.1,3.6c0,1.5,0.4,2.7,1.1,3.6c0.7,0.9,1.7,1.3,3,1.3c0.9,0,1.7-0.2,2.2-0.6
	c0.6-0.4,0.9-1,1.1-1.7h2.8c-0.3,1.4-0.9,2.6-2,3.4C191.3,79.8,189.9,80.2,188.2,80.2z M201.3,80.2c-1,0-1.8-0.2-2.6-0.7
	c-0.8-0.4-1.4-1-1.8-1.8c-0.4-0.8-0.7-1.7-0.7-2.7s0.2-1.9,0.7-2.7c0.5-0.8,1.1-1.4,1.8-1.8c0.8-0.4,1.6-0.7,2.6-0.7
	c0.9,0,1.8,0.2,2.6,0.7c0.8,0.4,1.4,1.1,1.8,1.8c0.5,0.8,0.7,1.7,0.7,2.7s-0.2,1.9-0.7,2.7c-0.4,0.8-1,1.4-1.8,1.8
	C203.1,80,202.3,80.2,201.3,80.2z M201.3,78c0.7,0,1.2-0.2,1.7-0.7c0.5-0.5,0.7-1.3,0.7-2.2s-0.2-1.7-0.7-2.2
	c-0.5-0.5-1.1-0.8-1.7-0.8c-0.7,0-1.3,0.3-1.8,0.8c-0.5,0.5-0.7,1.2-0.7,2.2s0.2,1.7,0.7,2.2C200.1,77.8,200.7,78,201.3,78z
	 M208.7,80V65.6h2.6V80H208.7z M218.6,80.2c-1,0-1.8-0.2-2.6-0.7c-0.8-0.4-1.4-1-1.8-1.8c-0.4-0.8-0.7-1.7-0.7-2.7s0.2-1.9,0.7-2.7
	c0.5-0.8,1.1-1.4,1.8-1.8c0.8-0.4,1.6-0.7,2.6-0.7c0.9,0,1.8,0.2,2.6,0.7c0.8,0.4,1.4,1.1,1.8,1.8c0.5,0.8,0.7,1.7,0.7,2.7
	s-0.2,1.9-0.7,2.7c-0.4,0.8-1,1.4-1.8,1.8C220.4,80,219.6,80.2,218.6,80.2z M218.6,78c0.7,0,1.2-0.2,1.7-0.7
	c0.5-0.5,0.7-1.3,0.7-2.2s-0.2-1.7-0.7-2.2c-0.5-0.5-1.1-0.8-1.7-0.8c-0.7,0-1.3,0.3-1.8,0.8c-0.5,0.5-0.7,1.2-0.7,2.2
	s0.2,1.7,0.7,2.2C217.4,77.8,218,78,218.6,78z M229.7,80.2c-1.2,0-2.2-0.4-2.9-1.2c-0.7-0.8-1-1.9-1-3.4v-5.6h2.5v5.4
	c0,0.9,0.2,1.5,0.5,2c0.3,0.5,0.9,0.7,1.6,0.7c0.7,0,1.3-0.3,1.7-0.8c0.5-0.5,0.7-1.2,0.7-2.1v-5.1h2.6V80h-2.3l-0.2-1.7
	c-0.3,0.6-0.8,1.1-1.3,1.4C231.2,80.1,230.5,80.2,229.7,80.2z M238.2,80v-9.9h2.3l0.2,1.9c0.4-0.6,0.8-1.1,1.5-1.5
	c0.6-0.4,1.4-0.6,2.2-0.6v2.7h-0.7c-0.6,0-1.1,0.1-1.5,0.3c-0.4,0.2-0.8,0.5-1,0.9c-0.2,0.4-0.4,1-0.4,1.8V80H238.2z"/>
<path class="st1" d="M347.2,613c-0.7,0-1.2-0.2-1.7-0.6c-0.4-0.4-0.6-1-0.6-1.6v-20.9h4.7v20.9c0,0.6-0.2,1.2-0.7,1.6
	C348.5,612.8,347.9,613,347.2,613z M339.3,591.9c-0.6,0-1.2-0.2-1.6-0.6c-0.4-0.4-0.6-0.9-0.6-1.5c0-0.6,0.2-1.1,0.6-1.5
	c0.4-0.4,1-0.6,1.6-0.6h16c0.6,0,1.1,0.2,1.5,0.6c0.4,0.4,0.6,0.9,0.6,1.5s-0.2,1.1-0.6,1.5c-0.4,0.4-0.9,0.5-1.5,0.5H339.3z
	 M360.9,613c-0.6,0-1.1-0.2-1.5-0.6c-0.4-0.4-0.6-1-0.6-1.6v-14.9c0-0.6,0.2-1.1,0.6-1.5c0.4-0.4,0.9-0.6,1.5-0.6
	c0.6,0,1.1,0.2,1.5,0.6c0.4,0.4,0.6,0.9,0.6,1.5v3.4l-0.3-2.4c0.3-0.6,0.6-1.1,1-1.5c0.4-0.5,0.9-0.8,1.4-1.1
	c0.5-0.3,1.1-0.5,1.7-0.7s1.2-0.2,1.8-0.2c0.7,0,1.3,0.2,1.8,0.6c0.5,0.4,0.8,0.9,0.8,1.4c0,0.8-0.2,1.4-0.6,1.7
	c-0.4,0.3-0.9,0.5-1.3,0.5c-0.5,0-0.9-0.1-1.3-0.3c-0.4-0.2-0.8-0.3-1.3-0.3c-0.4,0-0.9,0.1-1.3,0.3c-0.4,0.2-0.8,0.5-1.2,0.9
	c-0.4,0.4-0.7,1-0.9,1.6c-0.2,0.6-0.3,1.4-0.3,2.2v8.5c0,0.6-0.2,1.2-0.6,1.6C362,612.8,361.5,613,360.9,613z M389.7,593.4
	c0.6,0,1.1,0.2,1.5,0.6c0.4,0.4,0.6,0.9,0.6,1.6v15.2c0,0.6-0.2,1.2-0.6,1.6c-0.4,0.4-0.9,0.6-1.5,0.6s-1.1-0.2-1.5-0.6
	c-0.4-0.4-0.6-1-0.6-1.6V609l0.8,0.3c0,0.3-0.2,0.7-0.5,1.2c-0.3,0.4-0.8,0.9-1.4,1.3c-0.6,0.4-1.3,0.8-2.1,1.1
	c-0.8,0.3-1.6,0.4-2.5,0.4c-1.7,0-3.2-0.4-4.5-1.3c-1.3-0.9-2.4-2-3.2-3.5c-0.8-1.5-1.2-3.2-1.2-5.2c0-2,0.4-3.7,1.2-5.2
	c0.8-1.5,1.8-2.7,3.2-3.5c1.3-0.9,2.8-1.3,4.4-1.3c1,0,2,0.2,2.8,0.5c0.9,0.3,1.6,0.7,2.2,1.2c0.6,0.5,1.1,1,1.5,1.5
	c0.4,0.5,0.5,0.9,0.5,1.2l-1.3,0.5v-2.6c0-0.6,0.2-1.1,0.6-1.5C388.5,593.6,389.1,593.4,389.7,593.4z M382.4,609.4
	c1.1,0,2-0.3,2.8-0.8c0.8-0.5,1.4-1.2,1.8-2.2c0.5-0.9,0.7-1.9,0.7-3.1c0-1.2-0.2-2.2-0.7-3.1c-0.4-0.9-1-1.6-1.8-2.2
	c-0.8-0.5-1.7-0.8-2.8-0.8c-1,0-1.9,0.3-2.7,0.8c-0.8,0.5-1.4,1.2-1.9,2.2c-0.4,0.9-0.6,1.9-0.6,3.1c0,1.1,0.2,2.1,0.6,3.1
	c0.5,0.9,1.1,1.6,1.9,2.2C380.5,609.1,381.4,609.4,382.4,609.4z M406.8,593.4c1.8,0,3.1,0.4,4,1.1c0.9,0.7,1.6,1.7,1.9,3
	c0.4,1.2,0.5,2.6,0.5,4.1v9.2c0,0.6-0.2,1.2-0.6,1.6c-0.4,0.4-0.9,0.6-1.5,0.6c-0.6,0-1.1-0.2-1.5-0.6c-0.4-0.4-0.6-1-0.6-1.6v-9.2
	c0-0.8-0.1-1.5-0.3-2.1c-0.2-0.6-0.6-1.2-1.1-1.5c-0.5-0.4-1.3-0.6-2.3-0.6c-1,0-1.8,0.2-2.4,0.6c-0.6,0.4-1.2,0.9-1.5,1.5
	c-0.3,0.6-0.5,1.3-0.5,2.1v9.2c0,0.6-0.2,1.2-0.6,1.6c-0.4,0.4-0.9,0.6-1.5,0.6c-0.6,0-1.1-0.2-1.5-0.6c-0.4-0.4-0.6-1-0.6-1.6
	v-14.9c0-0.6,0.2-1.1,0.6-1.5c0.4-0.4,0.9-0.6,1.5-0.6c0.6,0,1.1,0.2,1.5,0.6c0.4,0.4,0.6,0.9,0.6,1.5v1.5l-0.5-0.1
	c0.2-0.4,0.5-0.8,0.9-1.3c0.4-0.5,0.9-0.9,1.4-1.3c0.6-0.4,1.2-0.7,1.9-1C405.2,593.5,406,593.4,406.8,593.4z M433.7,593.7
	c0.6,0,1.1,0.2,1.5,0.6s0.6,0.9,0.6,1.6V618c0,0.6-0.2,1.1-0.6,1.5c-0.4,0.4-0.9,0.6-1.5,0.6s-1.1-0.2-1.5-0.6
	c-0.4-0.4-0.6-0.9-0.6-1.5v-9l0.8,0.3c0,0.3-0.2,0.7-0.5,1.2c-0.3,0.4-0.8,0.9-1.4,1.3c-0.6,0.4-1.3,0.8-2.1,1.1
	c-0.8,0.3-1.6,0.4-2.5,0.4c-1.7,0-3.2-0.4-4.5-1.3c-1.3-0.9-2.4-2-3.2-3.5c-0.8-1.5-1.2-3.2-1.2-5.2c0-2,0.4-3.7,1.2-5.2
	c0.8-1.5,1.8-2.7,3.2-3.5c1.3-0.9,2.8-1.3,4.4-1.3c1,0,2,0.2,2.8,0.5c0.9,0.3,1.6,0.7,2.2,1.2c0.6,0.5,1.1,1,1.5,1.5
	c0.4,0.5,0.5,0.9,0.5,1.2l-1.3,0.5v-2.3c0-0.6,0.2-1.1,0.6-1.5C432.6,594,433.1,593.7,433.7,593.7z M426.5,609.4
	c1.1,0,2-0.3,2.8-0.8c0.8-0.5,1.4-1.2,1.8-2.2c0.5-0.9,0.7-1.9,0.7-3.1c0-1.2-0.2-2.2-0.7-3.1c-0.4-0.9-1-1.6-1.8-2.2
	c-0.8-0.5-1.7-0.8-2.8-0.8c-1,0-1.9,0.3-2.7,0.8c-0.8,0.5-1.4,1.2-1.9,2.2c-0.4,0.9-0.6,1.9-0.6,3.1c0,1.1,0.2,2.1,0.6,3.1
	c0.5,0.9,1.1,1.6,1.9,2.2C424.5,609.1,425.4,609.4,426.5,609.4z M454.9,593.7c0.6,0,1.1,0.2,1.5,0.6c0.4,0.4,0.6,0.9,0.6,1.5v9.1
	c0,2.5-0.7,4.6-2.1,6c-1.4,1.5-3.5,2.2-6.1,2.2s-4.7-0.7-6.1-2.2c-1.4-1.5-2.1-3.5-2.1-6v-9.1c0-0.6,0.2-1.1,0.6-1.5
	c0.4-0.4,0.9-0.6,1.5-0.6c0.6,0,1.1,0.2,1.5,0.6c0.4,0.4,0.6,0.9,0.6,1.5v9.1c0,1.5,0.3,2.6,1,3.3c0.6,0.7,1.6,1,2.9,1
	c1.3,0,2.3-0.3,3-1c0.6-0.7,1-1.8,1-3.3v-9.1c0-0.6,0.2-1.1,0.6-1.5C453.7,594,454.2,593.7,454.9,593.7z M465.8,610.8
	c0,0.6-0.2,1.2-0.6,1.6c-0.4,0.4-0.9,0.6-1.5,0.6s-1.1-0.2-1.5-0.6c-0.4-0.4-0.6-1-0.6-1.6v-14.9c0-0.6,0.2-1.1,0.6-1.5
	c0.4-0.4,0.9-0.6,1.5-0.6s1.1,0.2,1.5,0.6c0.4,0.4,0.6,0.9,0.6,1.5V610.8z M463.6,591.4c-0.8,0-1.4-0.1-1.7-0.4
	c-0.3-0.3-0.5-0.7-0.5-1.4v-0.7c0-0.7,0.2-1.2,0.5-1.4c0.4-0.3,1-0.4,1.7-0.4c0.8,0,1.4,0.1,1.8,0.4c0.3,0.3,0.5,0.7,0.5,1.4v0.7
	c0,0.7-0.2,1.2-0.5,1.4C465,591.3,464.4,591.4,463.6,591.4z M480.1,586.4c0.5,0,1,0.1,1.5,0.2s0.9,0.4,1.3,0.7
	c0.3,0.3,0.5,0.7,0.5,1.3c0,0.6-0.2,1.1-0.5,1.4c-0.3,0.3-0.7,0.5-1.2,0.5c-0.2,0-0.5,0-1-0.1c-0.4-0.1-0.9-0.2-1.3-0.2
	c-0.6,0-1.1,0.1-1.4,0.4c-0.3,0.3-0.5,0.6-0.6,0.9c-0.1,0.3-0.2,0.6-0.2,0.9v18.4c0,0.6-0.2,1.2-0.6,1.6c-0.4,0.4-0.9,0.6-1.5,0.6
	c-0.6,0-1.1-0.2-1.5-0.6c-0.4-0.4-0.6-1-0.6-1.6v-18.4c0-1.7,0.6-3.1,1.8-4.3C475.9,586.9,477.7,586.4,480.1,586.4z M480.5,594.1
	c0.6,0,1.1,0.2,1.4,0.6c0.4,0.4,0.6,0.8,0.6,1.4s-0.2,1.1-0.6,1.4c-0.4,0.4-0.9,0.5-1.4,0.5H471c-0.6,0-1.1-0.2-1.4-0.5
	c-0.4-0.4-0.6-0.9-0.6-1.4s0.2-1,0.6-1.4c0.4-0.4,0.9-0.6,1.4-0.6H480.5z M500.2,593.7c0.6,0,1.1,0.2,1.5,0.6
	c0.4,0.4,0.6,0.9,0.6,1.5v15.3c0,2.2-0.4,4-1.3,5.3c-0.8,1.3-1.9,2.3-3.3,2.8s-3,0.9-4.7,0.9c-0.8,0-1.6-0.1-2.4-0.2
	c-0.9-0.1-1.6-0.3-2.1-0.5c-0.7-0.3-1.2-0.7-1.5-1.2c-0.3-0.5-0.3-0.9-0.1-1.5c0.2-0.7,0.6-1.2,1-1.4c0.5-0.2,1-0.3,1.5-0.1
	c0.4,0.1,0.9,0.3,1.5,0.5c0.6,0.3,1.3,0.4,2.2,0.4c1.1,0,2-0.2,2.7-0.5c0.7-0.3,1.3-0.8,1.7-1.5c0.4-0.7,0.6-1.7,0.6-2.9V609
	l0.8,0.9c-0.4,0.8-0.9,1.5-1.5,2c-0.6,0.5-1.3,0.9-2.2,1.2c-0.8,0.3-1.8,0.4-2.9,0.4c-1.3,0-2.4-0.3-3.3-0.9
	c-0.9-0.6-1.7-1.4-2.2-2.4c-0.5-1.1-0.8-2.3-0.8-3.6v-10.5c0-0.6,0.2-1.1,0.6-1.5c0.4-0.4,0.9-0.6,1.5-0.6s1.1,0.2,1.5,0.6
	c0.4,0.4,0.6,0.9,0.6,1.5v9.2c0,1.6,0.3,2.7,1,3.3c0.7,0.6,1.7,0.9,2.9,0.9c0.8,0,1.5-0.2,2.1-0.5c0.6-0.3,1-0.8,1.3-1.4
	c0.3-0.6,0.5-1.4,0.5-2.3v-9.2c0-0.6,0.2-1.1,0.6-1.5C499.1,594,499.6,593.7,500.2,593.7z"/>
<path class="st2" d="M305.6,548.6h-78.3c-6.5,0-11.7,5.2-11.7,11.7v70c12.1,15.9,31,8,41.6-2.7c1.1-1.1,2.7-1.6,4.2-1.2
	c18.2,3.9,49-7,49-31.8v-4.2c0-1.8,0.6-3.5,1.6-4.9c2.1-2.8,3.9-5.5,5.4-8.2v-17.1C317.4,553.9,312.1,548.6,305.6,548.6L305.6,548.6
	z"/>
<path class="st2" d="M304.8,547h-76.5c-7.8,0-14.2,6.4-14.2,14.2v76.5c0,7.8,6.4,14.2,14.2,14.2h76.5c7.8,0,14.2-6.4,14.2-14.2
	v-76.5C319,553.4,312.6,547,304.8,547z M317.4,637.8c0,7-5.6,12.6-12.6,12.6h-76.5c-7,0-12.6-5.6-12.6-12.6v-76.5
	c0-7,5.6-12.6,12.6-12.6h76.5c7,0,12.6,5.6,12.6,12.6V637.8z"/>
<path class="st3" d="M243.8,575.7c-1.9,0-4.1-0.6-6.6-2.1c-0.5-0.3-0.6-0.9-0.4-1.3c0.3-0.5,0.9-0.6,1.3-0.4c3.4,2,8.3,3.3,12.1-1.9
	c0.3-0.4,0.9-0.5,1.4-0.2c0.4,0.3,0.5,0.9,0.2,1.4C250.5,573.1,247.8,575.7,243.8,575.7L243.8,575.7z"/>
<path class="st3" d="M265.2,571.2c-1.6,0-3.3-0.3-5.4-1.1c-0.5-0.2-0.7-0.8-0.6-1.3c0.2-0.5,0.8-0.8,1.3-0.6c3.7,1.5,8.7,2,11.7-3.7
	c0.2-0.5,0.8-0.7,1.3-0.4c0.5,0.3,0.7,0.8,0.4,1.3C272.8,567.8,270.1,571.2,265.2,571.2L265.2,571.2z"/>
<path class="st3" d="M246.5,589.8c-6.7,0-12.7-1.3-16.9-3.9c-0.5-0.3-0.6-0.9-0.3-1.3c0.3-0.5,0.9-0.6,1.3-0.3
	c15.4,9.2,44.6,0.2,57.8-13.7c0.4-0.4,1-0.4,1.4,0c0.4,0.4,0.4,1,0,1.4c-7.5,7.9-18.9,14-31,16.5
	C254.6,589.3,250.4,589.8,246.5,589.8L246.5,589.8z"/>
<path d="M311.6,508v-14h2.6v5.8h6.3V494h2.6v14h-2.6v-6.1h-6.3v6.1H311.6z M330.4,508.2c-1,0-1.8-0.2-2.6-0.7
	c-0.8-0.4-1.4-1-1.8-1.8c-0.4-0.8-0.7-1.7-0.7-2.7c0-1,0.2-1.9,0.7-2.7c0.5-0.8,1.1-1.4,1.8-1.8c0.8-0.4,1.6-0.7,2.6-0.7
	c0.9,0,1.8,0.2,2.6,0.7c0.8,0.4,1.4,1.1,1.8,1.8c0.5,0.8,0.7,1.7,0.7,2.7c0,1-0.2,1.9-0.7,2.7c-0.4,0.8-1,1.4-1.8,1.8
	C332.2,508,331.4,508.2,330.4,508.2z M330.4,506c0.7,0,1.2-0.2,1.7-0.7c0.5-0.5,0.7-1.3,0.7-2.2s-0.2-1.7-0.7-2.2
	c-0.5-0.5-1.1-0.8-1.7-0.8c-0.7,0-1.3,0.3-1.8,0.8c-0.5,0.5-0.7,1.2-0.7,2.2s0.2,1.7,0.7,2.2C329.2,505.8,329.8,506,330.4,506z
	 M337.8,508v-9.9h2.3l0.2,1.9c0.4-0.6,0.8-1.1,1.5-1.5c0.6-0.4,1.4-0.6,2.2-0.6v2.7h-0.7c-0.6,0-1.1,0.1-1.5,0.3
	c-0.4,0.2-0.8,0.5-1,0.9c-0.2,0.4-0.4,1-0.4,1.8v4.5H337.8z M347.1,496.5c-0.5,0-0.9-0.1-1.2-0.4c-0.3-0.3-0.4-0.6-0.4-1.1
	s0.1-0.8,0.4-1c0.3-0.3,0.7-0.4,1.2-0.4c0.5,0,0.8,0.1,1.1,0.4c0.3,0.3,0.5,0.6,0.5,1s-0.2,0.8-0.5,1.1
	C347.9,496.4,347.6,496.5,347.1,496.5z M345.8,508v-9.9h2.6v9.9H345.8z M350.4,508v-2.1l5.1-5.7h-5v-2.1h7.9v2.1l-5.1,5.7h5.2v2.1
	H350.4z M365.4,508.2c-1,0-1.8-0.2-2.6-0.7c-0.8-0.4-1.4-1-1.8-1.8c-0.4-0.8-0.7-1.7-0.7-2.7c0-1,0.2-1.9,0.7-2.7
	c0.5-0.8,1.1-1.4,1.8-1.8c0.8-0.4,1.6-0.7,2.6-0.7c0.9,0,1.8,0.2,2.6,0.7c0.8,0.4,1.4,1.1,1.8,1.8c0.5,0.8,0.7,1.7,0.7,2.7
	c0,1-0.2,1.9-0.7,2.7c-0.4,0.8-1,1.4-1.8,1.8C367.2,508,366.3,508.2,365.4,508.2z M365.4,506c0.7,0,1.2-0.2,1.7-0.7
	c0.5-0.5,0.7-1.3,0.7-2.2s-0.2-1.7-0.7-2.2c-0.5-0.5-1.1-0.8-1.7-0.8c-0.7,0-1.3,0.3-1.8,0.8c-0.5,0.5-0.7,1.2-0.7,2.2
	s0.2,1.7,0.7,2.2C364.1,505.8,364.7,506,365.4,506z M372.8,508v-9.9h2.3l0.2,1.7c0.3-0.6,0.7-1.1,1.3-1.4c0.6-0.3,1.3-0.5,2.1-0.5
	c1.2,0,2.2,0.4,2.9,1.2s1,1.9,1,3.4v5.6h-2.6v-5.4c0-0.9-0.2-1.5-0.5-2c-0.3-0.5-0.9-0.7-1.6-0.7c-0.7,0-1.3,0.3-1.8,0.8
	c-0.5,0.5-0.7,1.2-0.7,2.1v5.1H372.8z M389.3,508c-1,0-1.9-0.3-2.5-0.8c-0.6-0.5-0.9-1.4-0.9-2.7v-4.3h-1.7v-2.1h1.7l0.3-2.7h2.3
	v2.7h2.7v2.1h-2.7v4.3c0,0.5,0.1,0.8,0.3,1c0.2,0.2,0.6,0.3,1.1,0.3h1.2v2.2H389.3z M396.8,508.2c-0.9,0-1.6-0.1-2.1-0.4
	c-0.5-0.3-1-0.6-1.2-1.1s-0.4-1-0.4-1.5c0-0.9,0.4-1.7,1.1-2.2s1.8-0.9,3.2-0.9h2.5v-0.2c0-0.7-0.2-1.2-0.6-1.5
	c-0.4-0.3-0.9-0.5-1.4-0.5c-0.5,0-1,0.1-1.4,0.4c-0.4,0.2-0.6,0.6-0.7,1.1h-2.5c0.1-0.7,0.3-1.3,0.7-1.9c0.4-0.5,1-0.9,1.6-1.2
	c0.7-0.3,1.4-0.4,2.2-0.4c1.4,0,2.5,0.4,3.3,1.1c0.8,0.7,1.2,1.7,1.2,3v6.1h-2.2l-0.2-1.6c-0.3,0.5-0.7,1-1.2,1.3
	C398.3,508.1,397.6,508.2,396.8,508.2z M397.3,506.2c0.7,0,1.3-0.2,1.7-0.7c0.4-0.5,0.7-1.1,0.8-1.8h-2.2c-0.7,0-1.2,0.1-1.5,0.4
	c-0.3,0.2-0.4,0.5-0.4,0.9c0,0.4,0.1,0.7,0.4,0.9C396.5,506.1,396.9,506.2,397.3,506.2z M404.9,508v-14.4h2.6V508H404.9z"/>
<path d="M418.4,435c-0.7,0-1.2-0.2-1.7-0.6c-0.4-0.4-0.6-1-0.6-1.6v-20.9h4.7v20.9c0,0.6-0.2,1.2-0.7,1.6
	C419.6,434.8,419.1,435,418.4,435z M410.4,413.9c-0.6,0-1.2-0.2-1.6-0.6c-0.4-0.4-0.6-0.9-0.6-1.5c0-0.6,0.2-1.1,0.6-1.5
	c0.4-0.4,1-0.6,1.6-0.6h16c0.6,0,1.1,0.2,1.5,0.6c0.4,0.4,0.6,0.9,0.6,1.5s-0.2,1.1-0.6,1.5c-0.4,0.4-0.9,0.5-1.5,0.5H410.4z
	 M432,435c-0.6,0-1.1-0.2-1.5-0.6c-0.4-0.4-0.6-1-0.6-1.6v-14.9c0-0.6,0.2-1.1,0.6-1.5c0.4-0.4,0.9-0.6,1.5-0.6
	c0.6,0,1.1,0.2,1.5,0.6c0.4,0.4,0.6,0.9,0.6,1.5v3.4l-0.3-2.4c0.3-0.6,0.6-1.1,1-1.5c0.4-0.5,0.9-0.8,1.4-1.1
	c0.5-0.3,1.1-0.5,1.7-0.7c0.6-0.1,1.2-0.2,1.8-0.2c0.7,0,1.3,0.2,1.8,0.6c0.5,0.4,0.8,0.9,0.8,1.4c0,0.8-0.2,1.4-0.6,1.7
	c-0.4,0.3-0.9,0.5-1.3,0.5c-0.5,0-0.9-0.1-1.3-0.3c-0.4-0.2-0.8-0.3-1.3-0.3c-0.4,0-0.9,0.1-1.3,0.3c-0.4,0.2-0.8,0.5-1.2,0.9
	c-0.4,0.4-0.7,1-0.9,1.6c-0.2,0.6-0.3,1.4-0.3,2.2v8.5c0,0.6-0.2,1.2-0.6,1.6C433.2,434.8,432.7,435,432,435z M460.8,415.4
	c0.6,0,1.1,0.2,1.5,0.6c0.4,0.4,0.6,0.9,0.6,1.6v15.2c0,0.6-0.2,1.2-0.6,1.6c-0.4,0.4-0.9,0.6-1.5,0.6c-0.6,0-1.1-0.2-1.5-0.6
	c-0.4-0.4-0.6-1-0.6-1.6V431l0.8,0.3c0,0.3-0.2,0.7-0.5,1.2c-0.3,0.4-0.8,0.9-1.4,1.3c-0.6,0.4-1.3,0.8-2.1,1.1
	c-0.8,0.3-1.6,0.4-2.5,0.4c-1.7,0-3.2-0.4-4.5-1.3c-1.3-0.9-2.4-2-3.2-3.5c-0.8-1.5-1.2-3.2-1.2-5.2c0-2,0.4-3.7,1.2-5.2
	c0.8-1.5,1.8-2.7,3.2-3.5c1.3-0.9,2.8-1.3,4.4-1.3c1,0,2,0.2,2.8,0.5c0.9,0.3,1.6,0.7,2.2,1.2c0.6,0.5,1.1,1,1.5,1.5
	c0.4,0.5,0.5,0.9,0.5,1.2l-1.3,0.5v-2.6c0-0.6,0.2-1.1,0.6-1.5C459.7,415.6,460.2,415.4,460.8,415.4z M453.6,431.4
	c1.1,0,2-0.3,2.8-0.8c0.8-0.5,1.4-1.2,1.8-2.2c0.5-0.9,0.7-1.9,0.7-3.1c0-1.2-0.2-2.2-0.7-3.1c-0.4-0.9-1-1.6-1.8-2.2
	c-0.8-0.5-1.7-0.8-2.8-0.8c-1,0-1.9,0.3-2.7,0.8c-0.8,0.5-1.4,1.2-1.9,2.2c-0.4,0.9-0.6,1.9-0.6,3.1c0,1.1,0.2,2.1,0.6,3.1
	c0.5,0.9,1.1,1.6,1.9,2.2C451.6,431.1,452.5,431.4,453.6,431.4z M478,415.4c1.8,0,3.1,0.4,4,1.1c0.9,0.7,1.6,1.7,1.9,3
	c0.4,1.2,0.5,2.6,0.5,4.1v9.2c0,0.6-0.2,1.2-0.6,1.6c-0.4,0.4-0.9,0.6-1.5,0.6c-0.6,0-1.1-0.2-1.5-0.6c-0.4-0.4-0.6-1-0.6-1.6v-9.2
	c0-0.8-0.1-1.5-0.3-2.1c-0.2-0.6-0.6-1.2-1.1-1.5c-0.5-0.4-1.3-0.6-2.3-0.6c-1,0-1.8,0.2-2.4,0.6c-0.6,0.4-1.2,0.9-1.5,1.5
	c-0.3,0.6-0.5,1.3-0.5,2.1v9.2c0,0.6-0.2,1.2-0.6,1.6c-0.4,0.4-0.9,0.6-1.5,0.6c-0.6,0-1.1-0.2-1.5-0.6c-0.4-0.4-0.6-1-0.6-1.6
	v-14.9c0-0.6,0.2-1.1,0.6-1.5c0.4-0.4,0.9-0.6,1.5-0.6c0.6,0,1.1,0.2,1.5,0.6c0.4,0.4,0.6,0.9,0.6,1.5v1.5l-0.5-0.1
	c0.2-0.4,0.5-0.8,0.9-1.3c0.4-0.5,0.9-0.9,1.4-1.3c0.6-0.4,1.2-0.7,1.9-1C476.4,415.5,477.1,415.4,478,415.4z M504.9,415.7
	c0.6,0,1.1,0.2,1.5,0.6c0.4,0.4,0.6,0.9,0.6,1.6V440c0,0.6-0.2,1.1-0.6,1.5c-0.4,0.4-0.9,0.6-1.5,0.6s-1.1-0.2-1.5-0.6
	c-0.4-0.4-0.6-0.9-0.6-1.5v-9l0.8,0.3c0,0.3-0.2,0.7-0.5,1.2c-0.3,0.4-0.8,0.9-1.4,1.3c-0.6,0.4-1.3,0.8-2.1,1.1
	c-0.8,0.3-1.6,0.4-2.5,0.4c-1.7,0-3.2-0.4-4.5-1.3c-1.3-0.9-2.4-2-3.2-3.5c-0.8-1.5-1.2-3.2-1.2-5.2c0-2,0.4-3.7,1.2-5.2
	c0.8-1.5,1.8-2.7,3.2-3.5c1.3-0.9,2.8-1.3,4.4-1.3c1,0,2,0.2,2.8,0.5c0.9,0.3,1.6,0.7,2.2,1.2c0.6,0.5,1.1,1,1.5,1.5
	c0.4,0.5,0.5,0.9,0.5,1.2l-1.3,0.5v-2.3c0-0.6,0.2-1.1,0.6-1.5C503.7,416,504.3,415.7,504.9,415.7z M497.6,431.4
	c1.1,0,2-0.3,2.8-0.8c0.8-0.5,1.4-1.2,1.8-2.2c0.5-0.9,0.7-1.9,0.7-3.1c0-1.2-0.2-2.2-0.7-3.1c-0.4-0.9-1-1.6-1.8-2.2
	c-0.8-0.5-1.7-0.8-2.8-0.8c-1,0-1.9,0.3-2.7,0.8c-0.8,0.5-1.4,1.2-1.9,2.2c-0.4,0.9-0.6,1.9-0.6,3.1c0,1.1,0.2,2.1,0.6,3.1
	c0.5,0.9,1.1,1.6,1.9,2.2C495.7,431.1,496.6,431.4,497.6,431.4z M526,415.7c0.6,0,1.1,0.2,1.5,0.6c0.4,0.4,0.6,0.9,0.6,1.5v9.1
	c0,2.5-0.7,4.6-2.1,6c-1.4,1.5-3.5,2.2-6.1,2.2s-4.7-0.7-6.1-2.2c-1.4-1.5-2.1-3.5-2.1-6v-9.1c0-0.6,0.2-1.1,0.6-1.5
	c0.4-0.4,0.9-0.6,1.5-0.6c0.6,0,1.1,0.2,1.5,0.6c0.4,0.4,0.6,0.9,0.6,1.5v9.1c0,1.5,0.3,2.6,1,3.3c0.6,0.7,1.6,1,2.9,1
	c1.3,0,2.3-0.3,3-1c0.6-0.7,1-1.8,1-3.3v-9.1c0-0.6,0.2-1.1,0.6-1.5C524.9,416,525.4,415.7,526,415.7z M536.9,432.8
	c0,0.6-0.2,1.2-0.6,1.6c-0.4,0.4-0.9,0.6-1.5,0.6c-0.6,0-1.1-0.2-1.5-0.6c-0.4-0.4-0.6-1-0.6-1.6v-14.9c0-0.6,0.2-1.1,0.6-1.5
	c0.4-0.4,0.9-0.6,1.5-0.6c0.6,0,1.1,0.2,1.5,0.6c0.4,0.4,0.6,0.9,0.6,1.5V432.8z M534.7,413.4c-0.8,0-1.4-0.1-1.7-0.4
	s-0.5-0.7-0.5-1.4v-0.7c0-0.7,0.2-1.2,0.5-1.4c0.4-0.3,1-0.4,1.7-0.4c0.8,0,1.4,0.1,1.8,0.4s0.5,0.7,0.5,1.4v0.7
	c0,0.7-0.2,1.2-0.5,1.4C536.1,413.3,535.5,413.4,534.7,413.4z M551.3,408.4c0.5,0,1,0.1,1.5,0.2c0.5,0.1,0.9,0.4,1.3,0.7
	c0.3,0.3,0.5,0.7,0.5,1.3c0,0.6-0.2,1.1-0.5,1.4c-0.3,0.3-0.7,0.5-1.2,0.5c-0.2,0-0.5,0-1-0.1c-0.4-0.1-0.9-0.2-1.3-0.2
	c-0.6,0-1.1,0.1-1.4,0.4c-0.3,0.3-0.5,0.6-0.6,0.9c-0.1,0.3-0.2,0.6-0.2,0.9v18.4c0,0.6-0.2,1.2-0.6,1.6c-0.4,0.4-0.9,0.6-1.5,0.6
	c-0.6,0-1.1-0.2-1.5-0.6c-0.4-0.4-0.6-1-0.6-1.6v-18.4c0-1.7,0.6-3.1,1.8-4.3S548.9,408.4,551.3,408.4z M551.7,416.1
	c0.6,0,1.1,0.2,1.4,0.6c0.4,0.4,0.6,0.8,0.6,1.4c0,0.6-0.2,1.1-0.6,1.4c-0.4,0.4-0.9,0.5-1.4,0.5h-9.5c-0.6,0-1.1-0.2-1.4-0.5
	c-0.4-0.4-0.6-0.9-0.6-1.4c0-0.6,0.2-1,0.6-1.4c0.4-0.4,0.9-0.6,1.4-0.6H551.7z M571.4,415.7c0.6,0,1.1,0.2,1.5,0.6
	c0.4,0.4,0.6,0.9,0.6,1.5v15.3c0,2.2-0.4,4-1.3,5.3c-0.8,1.3-1.9,2.3-3.3,2.8c-1.4,0.6-3,0.9-4.7,0.9c-0.8,0-1.6-0.1-2.4-0.2
	c-0.9-0.1-1.6-0.3-2.1-0.5c-0.7-0.3-1.2-0.7-1.5-1.2c-0.3-0.5-0.3-0.9-0.1-1.5c0.2-0.7,0.6-1.2,1-1.4c0.5-0.2,1-0.3,1.5-0.1
	c0.4,0.1,0.9,0.3,1.5,0.5c0.6,0.3,1.3,0.4,2.2,0.4c1.1,0,2-0.2,2.7-0.5c0.7-0.3,1.3-0.8,1.7-1.5c0.4-0.7,0.6-1.7,0.6-2.9V431
	l0.8,0.9c-0.4,0.8-0.9,1.5-1.5,2c-0.6,0.5-1.3,0.9-2.2,1.2c-0.8,0.3-1.8,0.4-2.9,0.4c-1.3,0-2.4-0.3-3.3-0.9
	c-0.9-0.6-1.7-1.4-2.2-2.4c-0.5-1.1-0.8-2.3-0.8-3.6v-10.5c0-0.6,0.2-1.1,0.6-1.5c0.4-0.4,0.9-0.6,1.5-0.6s1.1,0.2,1.5,0.6
	c0.4,0.4,0.6,0.9,0.6,1.5v9.2c0,1.6,0.3,2.7,1,3.3c0.7,0.6,1.7,0.9,2.9,0.9c0.8,0,1.5-0.2,2.1-0.5c0.6-0.3,1-0.8,1.3-1.4
	c0.3-0.6,0.5-1.4,0.5-2.3v-9.2c0-0.6,0.2-1.1,0.6-1.5C570.2,416,570.7,415.7,571.4,415.7z"/>
<path d="M414,80V66h5.6c1.5,0,2.6,0.3,3.3,1c0.8,0.7,1.2,1.5,1.2,2.6c0,0.9-0.2,1.6-0.7,2.1c-0.5,0.5-1,0.9-1.7,1.1
	c0.8,0.2,1.5,0.6,2,1.2c0.5,0.6,0.8,1.4,0.8,2.2c0,1.1-0.4,2-1.2,2.7c-0.8,0.7-1.9,1.1-3.4,1.1H414z M416.5,71.9h2.7
	c0.7,0,1.3-0.2,1.7-0.5c0.4-0.3,0.6-0.8,0.6-1.4c0-0.6-0.2-1-0.6-1.4c-0.4-0.3-0.9-0.5-1.7-0.5h-2.6V71.9z M416.5,77.9h2.9
	c0.8,0,1.3-0.2,1.8-0.5c0.4-0.4,0.6-0.9,0.6-1.5c0-0.7-0.2-1.2-0.7-1.5s-1-0.6-1.8-0.6h-2.8V77.9z M426.5,80V65.6h2.6V80H426.5z
	 M435.1,80.2c-0.9,0-1.6-0.1-2.1-0.4c-0.5-0.3-1-0.6-1.2-1.1c-0.3-0.5-0.4-1-0.4-1.5c0-0.9,0.4-1.7,1.1-2.2s1.8-0.9,3.2-0.9h2.5
	v-0.2c0-0.7-0.2-1.2-0.6-1.5c-0.4-0.3-0.9-0.5-1.4-0.5c-0.5,0-1,0.1-1.4,0.4c-0.4,0.2-0.6,0.6-0.7,1.1h-2.5c0.1-0.7,0.3-1.3,0.7-1.9
	c0.4-0.5,1-0.9,1.6-1.2c0.7-0.3,1.4-0.4,2.2-0.4c1.4,0,2.5,0.4,3.3,1.1c0.8,0.7,1.2,1.7,1.2,3V80h-2.2l-0.2-1.6
	c-0.3,0.5-0.7,1-1.2,1.3C436.6,80.1,435.9,80.2,435.1,80.2z M435.7,78.2c0.7,0,1.3-0.2,1.7-0.7c0.4-0.5,0.7-1.1,0.8-1.8H436
	c-0.7,0-1.2,0.1-1.5,0.4c-0.3,0.2-0.4,0.5-0.4,0.9c0,0.4,0.1,0.7,0.4,0.9C434.8,78.1,435.2,78.2,435.7,78.2z M448.1,80.2
	c-1,0-1.9-0.2-2.7-0.7c-0.8-0.4-1.4-1.1-1.8-1.8c-0.4-0.8-0.7-1.7-0.7-2.7s0.2-1.9,0.7-2.7c0.5-0.8,1.1-1.4,1.8-1.8
	c0.8-0.4,1.7-0.7,2.7-0.7c1.3,0,2.3,0.3,3.2,1c0.9,0.7,1.4,1.6,1.7,2.7h-2.7c-0.1-0.5-0.4-0.9-0.8-1.1c-0.4-0.3-0.8-0.4-1.4-0.4
	c-0.7,0-1.3,0.3-1.8,0.8c-0.5,0.5-0.7,1.3-0.7,2.2s0.2,1.7,0.7,2.2c0.5,0.5,1.1,0.8,1.8,0.8c0.5,0,1-0.1,1.4-0.4
	c0.4-0.3,0.7-0.6,0.8-1.1h2.7c-0.2,1.1-0.8,2-1.7,2.7C450.4,79.9,449.4,80.2,448.1,80.2z M455.2,80V65.6h2.6v8.5l3.5-4h3l-4.1,4.5
	L465,80h-3.2l-4-5v5H455.2z M474.8,80.2c-0.9,0-1.6-0.1-2.1-0.4c-0.5-0.3-1-0.6-1.2-1.1c-0.3-0.5-0.4-1-0.4-1.5
	c0-0.9,0.4-1.7,1.1-2.2s1.8-0.9,3.2-0.9h2.5v-0.2c0-0.7-0.2-1.2-0.6-1.5c-0.4-0.3-0.9-0.5-1.4-0.5c-0.5,0-1,0.1-1.4,0.4
	c-0.4,0.2-0.6,0.6-0.7,1.1h-2.5c0.1-0.7,0.3-1.3,0.7-1.9c0.4-0.5,1-0.9,1.6-1.2c0.7-0.3,1.4-0.4,2.2-0.4c1.4,0,2.5,0.4,3.3,1.1
	c0.8,0.7,1.2,1.7,1.2,3V80h-2.2l-0.2-1.6c-0.3,0.5-0.7,1-1.2,1.3C476.3,80.1,475.6,80.2,474.8,80.2z M475.4,78.2
	c0.7,0,1.3-0.2,1.7-0.7c0.4-0.5,0.7-1.1,0.8-1.8h-2.2c-0.7,0-1.2,0.1-1.5,0.4c-0.3,0.2-0.4,0.5-0.4,0.9c0,0.4,0.1,0.7,0.4,0.9
	C474.5,78.1,474.9,78.2,475.4,78.2z M482.9,80v-9.9h2.3l0.2,1.7c0.3-0.6,0.7-1.1,1.3-1.4c0.6-0.3,1.3-0.5,2.1-0.5
	c1.2,0,2.2,0.4,2.9,1.2c0.7,0.8,1,1.9,1,3.4V80h-2.6v-5.4c0-0.9-0.2-1.5-0.5-2c-0.3-0.5-0.9-0.7-1.6-0.7c-0.7,0-1.3,0.3-1.8,0.8
	c-0.5,0.5-0.7,1.2-0.7,2.1V80H482.9z M499.6,80.2c-0.9,0-1.8-0.2-2.5-0.7c-0.7-0.5-1.3-1.1-1.7-1.9c-0.4-0.8-0.6-1.7-0.6-2.7
	s0.2-1.9,0.6-2.7c0.4-0.8,1-1.4,1.7-1.8c0.7-0.5,1.6-0.7,2.5-0.7c0.7,0,1.4,0.1,2,0.4c0.6,0.3,1,0.7,1.4,1.2v-5.8h2.6V80h-2.3
	l-0.3-1.4c-0.3,0.4-0.7,0.8-1.3,1.2C501.2,80.1,500.5,80.2,499.6,80.2z M500.2,78c0.8,0,1.5-0.3,2-0.8c0.5-0.6,0.8-1.3,0.8-2.1
	s-0.3-1.6-0.8-2.1c-0.5-0.6-1.2-0.8-2-0.8c-0.8,0-1.5,0.3-2,0.8c-0.5,0.5-0.8,1.3-0.8,2.1c0,0.9,0.3,1.6,0.8,2.1
	C498.7,77.7,499.4,78,500.2,78z M515.8,80l-3.7-14h2.7l2.5,11.1l3-11.1h2.8l2.9,11.1l2.5-11.1h2.8l-3.8,14h-3l-2.8-10.4L518.8,80
	H515.8z M533.1,80V65.6h2.6v6c0.3-0.5,0.8-1,1.3-1.3c0.6-0.3,1.2-0.5,2-0.5c1.2,0,2.2,0.4,2.8,1.2c0.7,0.8,1,1.9,1,3.4V80h-2.5v-5.4
	c0-0.9-0.2-1.5-0.5-2c-0.3-0.5-0.9-0.7-1.6-0.7c-0.7,0-1.3,0.3-1.8,0.8c-0.5,0.5-0.7,1.2-0.7,2.1V80H533.1z M546.6,68.5
	c-0.5,0-0.9-0.1-1.2-0.4c-0.3-0.3-0.4-0.6-0.4-1.1c0-0.4,0.1-0.8,0.4-1c0.3-0.3,0.7-0.4,1.2-0.4c0.5,0,0.8,0.1,1.1,0.4
	c0.3,0.3,0.5,0.6,0.5,1c0,0.4-0.2,0.8-0.5,1.1C547.5,68.4,547.1,68.5,546.6,68.5z M545.3,80v-9.9h2.6V80H545.3z M555,80
	c-1,0-1.9-0.3-2.5-0.8c-0.6-0.5-0.9-1.4-0.9-2.7v-4.3h-1.7v-2.1h1.7l0.3-2.7h2.3v2.7h2.7v2.1h-2.7v4.3c0,0.5,0.1,0.8,0.3,1
	c0.2,0.2,0.6,0.3,1.1,0.3h1.2V80H555z M563.6,80.2c-1,0-1.9-0.2-2.7-0.6c-0.8-0.4-1.4-1-1.8-1.8s-0.7-1.7-0.7-2.7
	c0-1,0.2-1.9,0.6-2.7c0.4-0.8,1-1.4,1.8-1.9c0.8-0.5,1.7-0.7,2.7-0.7c1,0,1.8,0.2,2.6,0.6c0.7,0.4,1.3,1,1.7,1.8
	c0.4,0.7,0.6,1.6,0.6,2.5c0,0.1,0,0.3,0,0.5c0,0.2,0,0.3,0,0.5H561c0.1,0.8,0.3,1.4,0.8,1.8c0.5,0.4,1.1,0.7,1.8,0.7
	c0.5,0,1-0.1,1.3-0.3c0.4-0.2,0.6-0.5,0.8-0.9h2.6c-0.2,0.6-0.5,1.2-0.9,1.7c-0.4,0.5-1,0.9-1.6,1.2
	C565.1,80.1,564.4,80.2,563.6,80.2z M563.6,71.9c-0.6,0-1.2,0.2-1.7,0.5c-0.5,0.3-0.8,0.9-0.9,1.6h4.9c0-0.7-0.3-1.2-0.7-1.6
	S564.2,71.9,563.6,71.9z"/>
<path d="M594.5,115.3h-202c-17.8,0-32.2,14.4-32.2,32.2v181.8c31.7,41.6,81.2,21,108.9-6.9c2.9-2.9,7-4.1,11-3.2
	c47.6,10.3,128.2-18.3,128.2-83.2v-11c0-4.6,1.5-9.1,4.3-12.7c5.6-7.4,10.2-14.5,14-21.4v-43.3C626.7,129.7,612.2,115.3,594.5,115.3
	L594.5,115.3z"/>
<path d="M594,111H393c-20.3,0-37,16.7-37,37v201c0,20.3,16.7,37,37,37h201c20.3,0,37-16.7,37-37V148C631,127.7,614.3,111,594,111z
	 M626.7,349c0,18.1-14.6,32.7-32.7,32.7H393c-18.1,0-32.7-14.6-32.7-32.7V148c0-18.1,14.6-32.7,32.7-32.7h201
	c18.1,0,32.7,14.6,32.7,32.7V349z"/>
<path class="st3" d="M434.1,186.2c-5,0-10.8-1.5-17.4-5.4c-1.2-0.7-1.6-2.3-0.9-3.5c0.7-1.2,2.3-1.6,3.5-0.9c9,5.3,21.8,8.7,31.8-5
	c0.8-1.1,2.4-1.4,3.6-0.6c1.1,0.8,1.4,2.4,0.6,3.6C451.5,179.5,444.6,186.1,434.1,186.2L434.1,186.2z"/>
<path class="st3" d="M490.1,174.3c-4.1,0-8.7-0.9-14.1-3c-1.3-0.5-2-2-1.4-3.3c0.5-1.3,2-2,3.3-1.4c9.7,3.8,22.9,5.2,30.7-9.7
	c0.7-1.3,2.2-1.7,3.5-1.1c1.3,0.7,1.7,2.2,1.1,3.5C509.9,165.5,503,174.3,490.1,174.3L490.1,174.3z"/>
<path class="st3" d="M441.2,223.1c-17.6,0-33.2-3.5-44.4-10.2c-1.2-0.7-1.6-2.3-0.9-3.5c0.7-1.2,2.3-1.6,3.5-0.9
	c40.2,24.1,116.9,0.5,151.4-35.8c1-1,2.6-1.1,3.6-0.1c1,1,1.1,2.6,0.1,3.6c-19.8,20.8-49.4,36.6-81.3,43.3
	C462.2,221.9,451.4,223.1,441.2,223.1L441.2,223.1z"/>
<path class="st4" d="M707.4,434c-0.7,0-1.2-0.2-1.7-0.6c-0.4-0.4-0.6-1-0.6-1.6v-20.9h4.7v20.9c0,0.6-0.2,1.2-0.7,1.6
	C708.6,433.8,708.1,434,707.4,434z M699.4,412.9c-0.6,0-1.2-0.2-1.6-0.6c-0.4-0.4-0.6-0.9-0.6-1.5c0-0.6,0.2-1.1,0.6-1.5
	c0.4-0.4,1-0.6,1.6-0.6h16c0.6,0,1.1,0.2,1.5,0.6c0.4,0.4,0.6,0.9,0.6,1.5s-0.2,1.1-0.6,1.5c-0.4,0.4-0.9,0.5-1.5,0.5H699.4z
	 M721,434c-0.6,0-1.1-0.2-1.5-0.6c-0.4-0.4-0.6-1-0.6-1.6v-14.9c0-0.6,0.2-1.1,0.6-1.5c0.4-0.4,0.9-0.6,1.5-0.6
	c0.6,0,1.1,0.2,1.5,0.6c0.4,0.4,0.6,0.9,0.6,1.5v3.4l-0.3-2.4c0.3-0.6,0.6-1.1,1-1.5c0.4-0.5,0.9-0.8,1.4-1.1
	c0.5-0.3,1.1-0.5,1.7-0.7c0.6-0.1,1.2-0.2,1.8-0.2c0.7,0,1.3,0.2,1.8,0.6c0.5,0.4,0.8,0.9,0.8,1.4c0,0.8-0.2,1.4-0.6,1.7
	c-0.4,0.3-0.9,0.5-1.3,0.5c-0.5,0-0.9-0.1-1.3-0.3c-0.4-0.2-0.8-0.3-1.3-0.3c-0.4,0-0.9,0.1-1.3,0.3c-0.4,0.2-0.8,0.5-1.2,0.9
	c-0.4,0.4-0.7,1-0.9,1.6c-0.2,0.6-0.3,1.4-0.3,2.2v8.5c0,0.6-0.2,1.2-0.6,1.6C722.2,433.8,721.7,434,721,434z M749.8,414.4
	c0.6,0,1.1,0.2,1.5,0.6c0.4,0.4,0.6,0.9,0.6,1.6v15.2c0,0.6-0.2,1.2-0.6,1.6c-0.4,0.4-0.9,0.6-1.5,0.6c-0.6,0-1.1-0.2-1.5-0.6
	c-0.4-0.4-0.6-1-0.6-1.6V430l0.8,0.3c0,0.3-0.2,0.7-0.5,1.2c-0.3,0.4-0.8,0.9-1.4,1.3c-0.6,0.4-1.3,0.8-2.1,1.1
	c-0.8,0.3-1.6,0.4-2.5,0.4c-1.7,0-3.2-0.4-4.5-1.3c-1.3-0.9-2.4-2-3.2-3.5c-0.8-1.5-1.2-3.2-1.2-5.2c0-2,0.4-3.7,1.2-5.2
	c0.8-1.5,1.8-2.7,3.2-3.5c1.3-0.9,2.8-1.3,4.4-1.3c1,0,2,0.2,2.8,0.5c0.9,0.3,1.6,0.7,2.2,1.2c0.6,0.5,1.1,1,1.5,1.5
	c0.4,0.5,0.5,0.9,0.5,1.2l-1.3,0.5v-2.6c0-0.6,0.2-1.1,0.6-1.5C748.7,414.6,749.2,414.4,749.8,414.4z M742.6,430.4
	c1.1,0,2-0.3,2.8-0.8c0.8-0.5,1.4-1.2,1.8-2.2c0.5-0.9,0.7-1.9,0.7-3.1c0-1.2-0.2-2.2-0.7-3.1c-0.4-0.9-1-1.6-1.8-2.2
	c-0.8-0.5-1.7-0.8-2.8-0.8c-1,0-1.9,0.3-2.7,0.8c-0.8,0.5-1.4,1.2-1.9,2.2c-0.4,0.9-0.6,1.9-0.6,3.1c0,1.1,0.2,2.1,0.6,3.1
	c0.5,0.9,1.1,1.6,1.9,2.2C740.6,430.1,741.5,430.4,742.6,430.4z M767,414.4c1.8,0,3.1,0.4,4,1.1c0.9,0.7,1.6,1.7,1.9,3
	c0.4,1.2,0.5,2.6,0.5,4.1v9.2c0,0.6-0.2,1.2-0.6,1.6c-0.4,0.4-0.9,0.6-1.5,0.6c-0.6,0-1.1-0.2-1.5-0.6c-0.4-0.4-0.6-1-0.6-1.6v-9.2
	c0-0.8-0.1-1.5-0.3-2.1c-0.2-0.6-0.6-1.2-1.1-1.5c-0.5-0.4-1.3-0.6-2.3-0.6c-1,0-1.8,0.2-2.4,0.6c-0.6,0.4-1.2,0.9-1.5,1.5
	c-0.3,0.6-0.5,1.3-0.5,2.1v9.2c0,0.6-0.2,1.2-0.6,1.6c-0.4,0.4-0.9,0.6-1.5,0.6c-0.6,0-1.1-0.2-1.5-0.6c-0.4-0.4-0.6-1-0.6-1.6
	v-14.9c0-0.6,0.2-1.1,0.6-1.5c0.4-0.4,0.9-0.6,1.5-0.6c0.6,0,1.1,0.2,1.5,0.6c0.4,0.4,0.6,0.9,0.6,1.5v1.5l-0.5-0.1
	c0.2-0.4,0.5-0.8,0.9-1.3c0.4-0.5,0.9-0.9,1.4-1.3c0.6-0.4,1.2-0.7,1.9-1C765.4,414.5,766.1,414.4,767,414.4z M793.9,414.7
	c0.6,0,1.1,0.2,1.5,0.6c0.4,0.4,0.6,0.9,0.6,1.6V439c0,0.6-0.2,1.1-0.6,1.5c-0.4,0.4-0.9,0.6-1.5,0.6c-0.6,0-1.1-0.2-1.5-0.6
	c-0.4-0.4-0.6-0.9-0.6-1.5v-9l0.8,0.3c0,0.3-0.2,0.7-0.5,1.2c-0.3,0.4-0.8,0.9-1.4,1.3c-0.6,0.4-1.3,0.8-2.1,1.1
	c-0.8,0.3-1.6,0.4-2.5,0.4c-1.7,0-3.2-0.4-4.5-1.3c-1.3-0.9-2.4-2-3.2-3.5c-0.8-1.5-1.2-3.2-1.2-5.2c0-2,0.4-3.7,1.2-5.2
	c0.8-1.5,1.8-2.7,3.2-3.5c1.3-0.9,2.8-1.3,4.4-1.3c1,0,2,0.2,2.8,0.5c0.9,0.3,1.6,0.7,2.2,1.2c0.6,0.5,1.1,1,1.5,1.5
	c0.4,0.5,0.5,0.9,0.5,1.2l-1.3,0.5v-2.3c0-0.6,0.2-1.1,0.6-1.5C792.7,415,793.3,414.7,793.9,414.7z M786.6,430.4
	c1.1,0,2-0.3,2.8-0.8c0.8-0.5,1.4-1.2,1.8-2.2c0.5-0.9,0.7-1.9,0.7-3.1c0-1.2-0.2-2.2-0.7-3.1c-0.4-0.9-1-1.6-1.8-2.2
	c-0.8-0.5-1.7-0.8-2.8-0.8c-1,0-1.9,0.3-2.7,0.8c-0.8,0.5-1.4,1.2-1.9,2.2c-0.4,0.9-0.6,1.9-0.6,3.1c0,1.1,0.2,2.1,0.6,3.1
	c0.5,0.9,1.1,1.6,1.9,2.2C784.7,430.1,785.6,430.4,786.6,430.4z M815,414.7c0.6,0,1.1,0.2,1.5,0.6c0.4,0.4,0.6,0.9,0.6,1.5v9.1
	c0,2.5-0.7,4.6-2.1,6c-1.4,1.5-3.5,2.2-6.1,2.2s-4.7-0.7-6.1-2.2c-1.4-1.5-2.1-3.5-2.1-6v-9.1c0-0.6,0.2-1.1,0.6-1.5
	c0.4-0.4,0.9-0.6,1.5-0.6c0.6,0,1.1,0.2,1.5,0.6c0.4,0.4,0.6,0.9,0.6,1.5v9.1c0,1.5,0.3,2.6,1,3.3c0.6,0.7,1.6,1,2.9,1
	c1.3,0,2.3-0.3,3-1c0.6-0.7,1-1.8,1-3.3v-9.1c0-0.6,0.2-1.1,0.6-1.5C813.9,415,814.4,414.7,815,414.7z M825.9,431.8
	c0,0.6-0.2,1.2-0.6,1.6c-0.4,0.4-0.9,0.6-1.5,0.6c-0.6,0-1.1-0.2-1.5-0.6c-0.4-0.4-0.6-1-0.6-1.6v-14.9c0-0.6,0.2-1.1,0.6-1.5
	c0.4-0.4,0.9-0.6,1.5-0.6c0.6,0,1.1,0.2,1.5,0.6c0.4,0.4,0.6,0.9,0.6,1.5V431.8z M823.7,412.4c-0.8,0-1.4-0.1-1.7-0.4
	s-0.5-0.7-0.5-1.4v-0.7c0-0.7,0.2-1.2,0.5-1.4c0.4-0.3,1-0.4,1.7-0.4c0.8,0,1.4,0.1,1.8,0.4s0.5,0.7,0.5,1.4v0.7
	c0,0.7-0.2,1.2-0.5,1.4C825.1,412.3,824.5,412.4,823.7,412.4z M840.3,407.4c0.5,0,1,0.1,1.5,0.2c0.5,0.1,0.9,0.4,1.3,0.7
	c0.3,0.3,0.5,0.7,0.5,1.3c0,0.6-0.2,1.1-0.5,1.4c-0.3,0.3-0.7,0.5-1.2,0.5c-0.2,0-0.5,0-1-0.1c-0.4-0.1-0.9-0.2-1.3-0.2
	c-0.6,0-1.1,0.1-1.4,0.4c-0.3,0.3-0.5,0.6-0.6,0.9c-0.1,0.3-0.2,0.6-0.2,0.9v18.4c0,0.6-0.2,1.2-0.6,1.6c-0.4,0.4-0.9,0.6-1.5,0.6
	c-0.6,0-1.1-0.2-1.5-0.6c-0.4-0.4-0.6-1-0.6-1.6v-18.4c0-1.7,0.6-3.1,1.8-4.3S837.9,407.4,840.3,407.4z M840.7,415.1
	c0.6,0,1.1,0.2,1.4,0.6c0.4,0.4,0.6,0.8,0.6,1.4c0,0.6-0.2,1.1-0.6,1.4c-0.4,0.4-0.9,0.5-1.4,0.5h-9.5c-0.6,0-1.1-0.2-1.4-0.5
	c-0.4-0.4-0.6-0.9-0.6-1.4c0-0.6,0.2-1,0.6-1.4c0.4-0.4,0.9-0.6,1.4-0.6H840.7z M860.4,414.7c0.6,0,1.1,0.2,1.5,0.6
	c0.4,0.4,0.6,0.9,0.6,1.5v15.3c0,2.2-0.4,4-1.3,5.3c-0.8,1.3-1.9,2.3-3.3,2.8c-1.4,0.6-3,0.9-4.7,0.9c-0.8,0-1.6-0.1-2.4-0.2
	c-0.9-0.1-1.6-0.3-2.1-0.5c-0.7-0.3-1.2-0.7-1.5-1.2c-0.3-0.5-0.3-0.9-0.1-1.5c0.2-0.7,0.6-1.2,1-1.4c0.5-0.2,1-0.3,1.5-0.1
	c0.4,0.1,0.9,0.3,1.5,0.5c0.6,0.3,1.3,0.4,2.2,0.4c1.1,0,2-0.2,2.7-0.5c0.7-0.3,1.3-0.8,1.7-1.5c0.4-0.7,0.6-1.7,0.6-2.9V430
	l0.8,0.9c-0.4,0.8-0.9,1.5-1.5,2c-0.6,0.5-1.3,0.9-2.2,1.2c-0.8,0.3-1.8,0.4-2.9,0.4c-1.3,0-2.4-0.3-3.3-0.9
	c-0.9-0.6-1.7-1.4-2.2-2.4c-0.5-1.1-0.8-2.3-0.8-3.6v-10.5c0-0.6,0.2-1.1,0.6-1.5c0.4-0.4,0.9-0.6,1.5-0.6s1.1,0.2,1.5,0.6
	c0.4,0.4,0.6,0.9,0.6,1.5v9.2c0,1.6,0.3,2.7,1,3.3c0.7,0.6,1.7,0.9,2.9,0.9c0.8,0,1.5-0.2,2.1-0.5c0.6-0.3,1-0.8,1.3-1.4
	c0.3-0.6,0.5-1.4,0.5-2.3v-9.2c0-0.6,0.2-1.1,0.6-1.5C859.2,415,859.7,414.7,860.4,414.7z"/>
<path d="M736.7,81.2c-1.3,0-2.5-0.3-3.5-0.9c-1-0.6-1.8-1.4-2.3-2.5c-0.5-1.1-0.8-2.3-0.8-3.8c0-1.4,0.3-2.7,0.8-3.8
	c0.6-1.1,1.4-2,2.4-2.6c1.1-0.6,2.3-0.9,3.7-0.9c1.6,0,3,0.4,4.1,1.2c1.1,0.8,1.8,1.9,2.1,3.3h-2.9c-0.2-0.7-0.6-1.2-1.2-1.5
	c-0.6-0.4-1.3-0.6-2.2-0.6c-1.4,0-2.5,0.4-3.2,1.3c-0.8,0.9-1.1,2.1-1.1,3.6s0.4,2.7,1.1,3.6c0.8,0.8,1.8,1.3,3.1,1.3
	c1.3,0,2.2-0.3,2.9-1c0.7-0.7,1-1.6,1.2-2.7h-3.5v-1.9h6.1V81h-2.4l-0.2-1.8c-0.5,0.7-1,1.2-1.7,1.5
	C738.6,81.1,737.8,81.2,736.7,81.2z M746,81v-9.9h2.3l0.2,1.9c0.4-0.6,0.8-1.1,1.5-1.5c0.6-0.4,1.4-0.6,2.2-0.6v2.7h-0.7
	c-0.6,0-1.1,0.1-1.5,0.3c-0.4,0.2-0.8,0.5-1,0.9c-0.2,0.4-0.4,1-0.4,1.8V81H746z M758.6,81.2c-1,0-1.9-0.2-2.7-0.6
	c-0.8-0.4-1.4-1-1.8-1.8s-0.7-1.7-0.7-2.7c0-1,0.2-1.9,0.6-2.7c0.4-0.8,1-1.4,1.8-1.9c0.8-0.5,1.7-0.7,2.7-0.7c1,0,1.8,0.2,2.6,0.6
	c0.7,0.4,1.3,1,1.7,1.8c0.4,0.7,0.6,1.6,0.6,2.5c0,0.1,0,0.3,0,0.5c0,0.2,0,0.3,0,0.5H756c0.1,0.8,0.3,1.4,0.8,1.8
	c0.5,0.4,1.1,0.7,1.8,0.7c0.5,0,1-0.1,1.3-0.3c0.4-0.2,0.6-0.5,0.8-0.9h2.6c-0.2,0.6-0.5,1.2-0.9,1.7c-0.4,0.5-1,0.9-1.6,1.2
	C760.1,81.1,759.4,81.2,758.6,81.2z M758.6,72.9c-0.6,0-1.2,0.2-1.7,0.5c-0.5,0.3-0.8,0.9-0.9,1.6h4.9c0-0.7-0.3-1.2-0.7-1.6
	S759.2,72.9,758.6,72.9z M766.4,85.4l2.3-5.1h-0.6l-3.9-9.3h2.8l2.8,7l2.9-7h2.7l-6.3,14.3H766.4z M786,81.2c-0.9,0-1.7-0.1-2.3-0.4
	c-0.7-0.3-1.2-0.7-1.6-1.2c-0.4-0.5-0.6-1.1-0.7-1.8h2.6c0.1,0.4,0.3,0.7,0.6,1c0.4,0.3,0.8,0.4,1.4,0.4s1-0.1,1.2-0.3
	c0.3-0.2,0.4-0.5,0.4-0.8c0-0.4-0.2-0.7-0.6-0.9c-0.4-0.2-0.9-0.3-1.6-0.5c-0.4-0.1-0.9-0.2-1.3-0.3c-0.4-0.1-0.8-0.3-1.2-0.5
	c-0.4-0.2-0.7-0.5-0.9-0.8c-0.2-0.3-0.3-0.7-0.3-1.2c0-0.9,0.3-1.6,1-2.2c0.7-0.6,1.7-0.9,3-0.9c1.2,0,2.1,0.3,2.8,0.8
	c0.7,0.5,1.1,1.3,1.3,2.3h-2.4c-0.1-0.7-0.7-1.1-1.7-1.1c-0.5,0-0.9,0.1-1.1,0.3c-0.3,0.2-0.4,0.4-0.4,0.7c0,0.3,0.2,0.5,0.6,0.7
	c0.4,0.2,0.9,0.3,1.5,0.5c0.7,0.2,1.3,0.3,1.9,0.5c0.6,0.2,1.1,0.5,1.4,0.9c0.3,0.4,0.5,0.9,0.5,1.6c0,0.6-0.1,1.2-0.5,1.7
	c-0.3,0.5-0.8,0.9-1.4,1.2C787.6,81.1,786.9,81.2,786,81.2z M797.3,81.2c-1,0-1.9-0.2-2.7-0.7c-0.8-0.4-1.4-1.1-1.8-1.8
	c-0.4-0.8-0.7-1.7-0.7-2.7s0.2-1.9,0.7-2.7c0.5-0.8,1.1-1.4,1.8-1.8c0.8-0.4,1.7-0.7,2.7-0.7c1.3,0,2.3,0.3,3.2,1
	c0.9,0.7,1.4,1.6,1.7,2.7h-2.7c-0.1-0.5-0.4-0.9-0.8-1.1c-0.4-0.3-0.8-0.4-1.4-0.4c-0.7,0-1.3,0.3-1.8,0.8c-0.5,0.5-0.7,1.3-0.7,2.2
	s0.2,1.7,0.7,2.2c0.5,0.5,1.1,0.8,1.8,0.8c0.5,0,1-0.1,1.4-0.4c0.4-0.3,0.7-0.6,0.8-1.1h2.7c-0.2,1.1-0.8,2-1.7,2.7
	C799.6,80.9,798.5,81.2,797.3,81.2z M807.8,81.2c-0.9,0-1.6-0.1-2.1-0.4c-0.5-0.3-1-0.6-1.2-1.1c-0.3-0.5-0.4-1-0.4-1.5
	c0-0.9,0.4-1.7,1.1-2.2c0.7-0.6,1.8-0.9,3.2-0.9h2.5v-0.2c0-0.7-0.2-1.2-0.6-1.5c-0.4-0.3-0.9-0.5-1.4-0.5c-0.5,0-1,0.1-1.4,0.4
	c-0.4,0.2-0.6,0.6-0.7,1.1h-2.5c0.1-0.7,0.3-1.3,0.7-1.9c0.4-0.5,1-0.9,1.6-1.2c0.7-0.3,1.4-0.4,2.2-0.4c1.4,0,2.5,0.4,3.3,1.1
	c0.8,0.7,1.2,1.7,1.2,3V81h-2.2l-0.2-1.6c-0.3,0.5-0.7,1-1.2,1.3C809.3,81.1,808.7,81.2,807.8,81.2z M808.4,79.2
	c0.7,0,1.3-0.2,1.7-0.7c0.4-0.5,0.7-1.1,0.8-1.8h-2.2c-0.7,0-1.2,0.1-1.5,0.4c-0.3,0.2-0.4,0.5-0.4,0.9c0,0.4,0.1,0.7,0.4,0.9
	C807.5,79.1,807.9,79.2,808.4,79.2z M816,81V66.6h2.6V81H816z M825.9,81.2c-1,0-1.9-0.2-2.7-0.6c-0.8-0.4-1.4-1-1.8-1.8
	s-0.7-1.7-0.7-2.7c0-1,0.2-1.9,0.6-2.7c0.4-0.8,1-1.4,1.8-1.9c0.8-0.5,1.7-0.7,2.7-0.7c1,0,1.8,0.2,2.6,0.6c0.7,0.4,1.3,1,1.7,1.8
	c0.4,0.7,0.6,1.6,0.6,2.5c0,0.1,0,0.3,0,0.5c0,0.2,0,0.3,0,0.5h-7.5c0.1,0.8,0.3,1.4,0.8,1.8c0.5,0.4,1.1,0.7,1.8,0.7
	c0.5,0,1-0.1,1.3-0.3c0.4-0.2,0.6-0.5,0.8-0.9h2.6c-0.2,0.6-0.5,1.2-0.9,1.7c-0.4,0.5-1,0.9-1.6,1.2
	C827.5,81.1,826.7,81.2,825.9,81.2z M826,72.9c-0.6,0-1.2,0.2-1.7,0.5c-0.5,0.3-0.8,0.9-0.9,1.6h4.9c0-0.7-0.3-1.2-0.7-1.6
	S826.6,72.9,826,72.9z"/>
<g>
	<g>
		<g>
			
				<image style="overflow:visible;opacity:0.5;" width="1236" height="1116" xlink:href="329991AD886C315F.png"  transform="matrix(0.24 0 0 0.24 639.24 106.24)">
			</image>
			<g>
				<path class="st4" d="M883,114.3H678c-17,0-30.7,13.7-30.7,30.7v183.4c31.7,41.6,81.2,21,108.9-6.9c2.9-2.9,7-4.1,11-3.2
					c47.6,10.3,128.2-18.3,128.2-83.2v-11c0-4.6,1.5-9.1,4.3-12.7c5.6-7.4,10.2-14.5,14-21.4V145C913.7,128,899.9,114.3,883,114.3
					L883,114.3z"/>
			</g>
		</g>
	</g>
	<path class="st4" d="M880.7,110H680.3c-20.5,0-37.3,16.8-37.3,37.3v200.4c0,20.5,16.8,37.3,37.3,37.3h200.4
		c20.5,0,37.3-16.8,37.3-37.3V147.3C918,126.8,901.2,110,880.7,110z M913.7,347.7c0,18.2-14.8,33-33,33H680.3c-18.2,0-33-14.8-33-33
		V147.3c0-18.2,14.8-33,33-33h200.4c18.2,0,33,14.8,33,33V347.7z"/>
	<path class="st3" d="M721.1,185.2c-5,0-10.8-1.5-17.4-5.4c-1.2-0.7-1.6-2.3-0.9-3.5c0.7-1.2,2.3-1.6,3.5-0.9c9,5.3,21.8,8.7,31.8-5
		c0.8-1.1,2.4-1.4,3.6-0.6c1.1,0.8,1.4,2.4,0.6,3.6C738.5,178.5,731.6,185.1,721.1,185.2L721.1,185.2z"/>
	<path class="st3" d="M777.1,173.3c-4.1,0-8.7-0.9-14.1-3c-1.3-0.5-2-2-1.4-3.3c0.5-1.3,2-2,3.3-1.4c9.7,3.8,22.9,5.2,30.7-9.7
		c0.7-1.3,2.2-1.7,3.5-1.1c1.3,0.7,1.7,2.2,1.1,3.5C796.9,164.5,790,173.3,777.1,173.3L777.1,173.3z"/>
	<path class="st3" d="M728.2,222.1c-17.6,0-33.2-3.5-44.4-10.2c-1.2-0.7-1.6-2.3-0.9-3.5c0.7-1.2,2.3-1.6,3.5-0.9
		c40.2,24.1,116.9,0.5,151.4-35.8c1-1,2.6-1.1,3.6-0.1c1,1,1.1,2.6,0.1,3.6c-19.8,20.8-49.4,36.6-81.3,43.3
		C749.2,220.9,738.3,222.1,728.2,222.1L728.2,222.1z"/>
</g>
<path d="M597.8,508v-14h9v2.1h-6.5v3.9h5.2v2h-5.2v6H597.8z M611.3,508.2c-0.9,0-1.6-0.1-2.1-0.4c-0.5-0.3-1-0.6-1.2-1.1
	c-0.3-0.5-0.4-1-0.4-1.5c0-0.9,0.4-1.7,1.1-2.2c0.7-0.6,1.8-0.9,3.2-0.9h2.5v-0.2c0-0.7-0.2-1.2-0.6-1.5c-0.4-0.3-0.9-0.5-1.4-0.5
	c-0.5,0-1,0.1-1.4,0.4c-0.4,0.2-0.6,0.6-0.7,1.1h-2.5c0.1-0.7,0.3-1.3,0.7-1.9c0.4-0.5,1-0.9,1.6-1.2c0.7-0.3,1.4-0.4,2.2-0.4
	c1.4,0,2.5,0.4,3.3,1.1s1.2,1.7,1.2,3v6.1h-2.2l-0.2-1.6c-0.3,0.5-0.7,1-1.2,1.3C612.8,508.1,612.2,508.2,611.3,508.2z M611.9,506.2
	c0.7,0,1.3-0.2,1.7-0.7c0.4-0.5,0.7-1.1,0.8-1.8h-2.2c-0.7,0-1.2,0.1-1.5,0.4c-0.3,0.2-0.4,0.5-0.4,0.9c0,0.4,0.1,0.7,0.4,0.9
	C611.1,506.1,611.4,506.2,611.9,506.2z M621.9,508l-3.6-9.9h2.7l2.5,7.5l2.5-7.5h2.7L625,508H621.9z M631.6,496.5
	c-0.5,0-0.9-0.1-1.2-0.4c-0.3-0.3-0.4-0.6-0.4-1.1s0.1-0.8,0.4-1c0.3-0.3,0.7-0.4,1.2-0.4c0.5,0,0.8,0.1,1.1,0.4
	c0.3,0.3,0.5,0.6,0.5,1s-0.2,0.8-0.5,1.1C632.5,496.4,632.1,496.5,631.6,496.5z M630.3,508v-9.9h2.6v9.9H630.3z M640.4,508.2
	c-1,0-1.9-0.2-2.7-0.7c-0.8-0.4-1.4-1.1-1.8-1.8c-0.4-0.8-0.7-1.7-0.7-2.7s0.2-1.9,0.7-2.7c0.5-0.8,1.1-1.4,1.8-1.8
	c0.8-0.4,1.7-0.7,2.7-0.7c1.3,0,2.3,0.3,3.2,1c0.9,0.7,1.4,1.6,1.7,2.7h-2.7c-0.1-0.5-0.4-0.9-0.8-1.1c-0.4-0.3-0.8-0.4-1.4-0.4
	c-0.7,0-1.3,0.3-1.8,0.8c-0.5,0.5-0.7,1.3-0.7,2.2c0,0.9,0.2,1.7,0.7,2.2c0.5,0.5,1.1,0.8,1.8,0.8c0.5,0,1-0.1,1.4-0.4
	c0.4-0.3,0.7-0.6,0.8-1.1h2.7c-0.2,1.1-0.8,2-1.7,2.7C642.8,507.9,641.7,508.2,640.4,508.2z M652.3,508.2c-1,0-1.8-0.2-2.6-0.7
	c-0.8-0.4-1.4-1-1.8-1.8c-0.4-0.8-0.7-1.7-0.7-2.7c0-1,0.2-1.9,0.7-2.7c0.5-0.8,1.1-1.4,1.8-1.8c0.8-0.4,1.6-0.7,2.6-0.7
	c0.9,0,1.8,0.2,2.6,0.7c0.8,0.4,1.4,1.1,1.8,1.8c0.5,0.8,0.7,1.7,0.7,2.7c0,1-0.2,1.9-0.7,2.7c-0.4,0.8-1,1.4-1.8,1.8
	C654.1,508,653.3,508.2,652.3,508.2z M652.3,506c0.7,0,1.2-0.2,1.7-0.7c0.5-0.5,0.7-1.3,0.7-2.2s-0.2-1.7-0.7-2.2
	c-0.5-0.5-1.1-0.8-1.7-0.8c-0.7,0-1.3,0.3-1.8,0.8c-0.5,0.5-0.7,1.2-0.7,2.2s0.2,1.7,0.7,2.2C651.1,505.8,651.6,506,652.3,506z
	 M659.7,508v-9.9h2.3l0.2,1.7c0.3-0.6,0.7-1.1,1.3-1.4c0.6-0.3,1.3-0.5,2.1-0.5c1.2,0,2.2,0.4,2.9,1.2s1,1.9,1,3.4v5.6h-2.6v-5.4
	c0-0.9-0.2-1.5-0.5-2c-0.3-0.5-0.9-0.7-1.6-0.7c-0.7,0-1.3,0.3-1.8,0.8c-0.5,0.5-0.7,1.2-0.7,2.1v5.1H659.7z"/>
<path class="st2" d="M675,539.3H663c-1,0-1.8,0.8-1.8,1.8v10.7c1.8,2.4,4.7,1.2,6.3-0.4c0.2-0.2,0.4-0.2,0.6-0.2
	c2.8,0.6,7.5-1.1,7.5-4.8v-0.6c0-0.3,0.1-0.5,0.2-0.7c0.3-0.4,0.6-0.8,0.8-1.2V541C676.7,540,675.9,539.2,675,539.3L675,539.3z"/>
<path class="st2" d="M674.8,539h-11.7c-1.2,0-2.2,1-2.2,2.2v11.7c0,1.2,1,2.2,2.2,2.2h11.7c1.2,0,2.2-1,2.2-2.2v-11.7
	C677,540,676,539,674.8,539z M676.7,552.8c0,1.1-0.9,1.9-1.9,1.9h-11.7c-1.1,0-1.9-0.9-1.9-1.9v-11.7c0-1.1,0.9-1.9,1.9-1.9h11.7
	c1.1,0,1.9,0.9,1.9,1.9V552.8z"/>
<path class="st3" d="M665.5,543.4c-0.3,0-0.6-0.1-1-0.3c-0.1,0-0.1-0.1-0.1-0.2c0-0.1,0.1-0.1,0.2-0.1c0.5,0.3,1.3,0.5,1.9-0.3
	c0-0.1,0.1-0.1,0.2,0c0.1,0,0.1,0.1,0,0.2C666.6,543,666.2,543.4,665.5,543.4L665.5,543.4z"/>
<path class="st3" d="M668.8,542.7c-0.2,0-0.5-0.1-0.8-0.2c-0.1,0-0.1-0.1-0.1-0.2c0-0.1,0.1-0.1,0.2-0.1c0.6,0.2,1.3,0.3,1.8-0.6
	c0-0.1,0.1-0.1,0.2-0.1c0.1,0,0.1,0.1,0.1,0.2C670,542.2,669.6,542.7,668.8,542.7L668.8,542.7z"/>
<path class="st3" d="M666,545.5c-1,0-1.9-0.2-2.6-0.6c-0.1,0-0.1-0.1-0.1-0.2c0-0.1,0.1-0.1,0.2-0.1c2.3,1.4,6.8,0,8.8-2.1
	c0.1-0.1,0.2-0.1,0.2,0s0.1,0.2,0,0.2c-1.2,1.2-2.9,2.1-4.7,2.5C667.2,545.5,666.5,545.5,666,545.5L666,545.5z"/>
<path d="M564.3,553v-8.9l-1.8,0.4V543l2.7-1.2h1.3V553H564.3z M572.8,553.2c-0.8,0-1.6-0.2-2.1-0.5c-0.6-0.3-1-0.7-1.4-1.2
	s-0.6-1.1-0.8-1.7c-0.1-0.6-0.2-1.3-0.2-2c0-1.2,0.2-2.3,0.5-3.2c0.4-0.9,0.9-1.6,1.5-2.1c0.7-0.5,1.5-0.8,2.4-0.8
	c0.8,0,1.4,0.2,2,0.5c0.5,0.3,1,0.7,1.3,1.2c0.3,0.5,0.5,1,0.5,1.6h-1.9c-0.1-0.5-0.3-0.9-0.6-1.1c-0.3-0.3-0.7-0.4-1.2-0.4
	c-0.7,0-1.3,0.3-1.7,1c-0.4,0.7-0.7,1.6-0.7,3c0.3-0.4,0.6-0.8,1.2-1.1c0.5-0.3,1.1-0.4,1.7-0.4c0.6,0,1.2,0.1,1.7,0.4
	s1,0.7,1.3,1.3c0.3,0.5,0.5,1.2,0.5,1.9c0,0.7-0.2,1.3-0.5,1.9c-0.3,0.6-0.8,1-1.4,1.4C574.3,553,573.6,553.2,572.8,553.2z
	 M572.7,551.4c0.6,0,1.1-0.2,1.5-0.5c0.4-0.4,0.6-0.8,0.6-1.4c0-0.6-0.2-1.1-0.6-1.4c-0.4-0.4-0.9-0.5-1.5-0.5
	c-0.4,0-0.8,0.1-1.1,0.3c-0.3,0.2-0.6,0.4-0.7,0.7c-0.2,0.3-0.3,0.6-0.3,1c0,0.6,0.2,1.1,0.6,1.4
	C571.6,551.2,572.1,551.4,572.7,551.4z M581.8,553l2.9-4l-2.9-4h2.2l2,2.8l2-2.8h2.2l-2.9,4l2.9,4H588l-2-2.8l-2,2.8H581.8z
	 M596.6,553v-8.9l-1.8,0.4V543l2.7-1.2h1.3V553H596.6z M605.1,553.2c-0.8,0-1.6-0.2-2.1-0.5c-0.6-0.3-1-0.7-1.4-1.2
	s-0.6-1.1-0.8-1.7c-0.1-0.6-0.2-1.3-0.2-2c0-1.2,0.2-2.3,0.5-3.2c0.4-0.9,0.9-1.6,1.5-2.1c0.7-0.5,1.5-0.8,2.4-0.8
	c0.8,0,1.4,0.2,2,0.5c0.5,0.3,1,0.7,1.3,1.2c0.3,0.5,0.5,1,0.5,1.6h-1.9c-0.1-0.5-0.3-0.9-0.6-1.1c-0.3-0.3-0.7-0.4-1.2-0.4
	c-0.7,0-1.3,0.3-1.7,1c-0.4,0.7-0.7,1.6-0.7,3c0.3-0.4,0.6-0.8,1.2-1.1c0.5-0.3,1.1-0.4,1.7-0.4c0.6,0,1.2,0.1,1.7,0.4
	s1,0.7,1.3,1.3c0.3,0.5,0.5,1.2,0.5,1.9c0,0.7-0.2,1.3-0.5,1.9c-0.3,0.6-0.8,1-1.4,1.4C606.5,553,605.8,553.2,605.1,553.2z
	 M605,551.4c0.6,0,1.1-0.2,1.5-0.5c0.4-0.4,0.6-0.8,0.6-1.4c0-0.6-0.2-1.1-0.6-1.4c-0.4-0.4-0.9-0.5-1.5-0.5c-0.4,0-0.8,0.1-1.1,0.3
	c-0.3,0.2-0.6,0.4-0.7,0.7c-0.2,0.3-0.3,0.6-0.3,1c0,0.6,0.2,1.1,0.6,1.4C603.8,551.2,604.3,551.4,605,551.4z M614.8,556.5v-11.5
	h1.8l0.2,1.1c0.3-0.4,0.6-0.7,1-0.9c0.4-0.3,1-0.4,1.6-0.4c0.7,0,1.4,0.2,2,0.5c0.6,0.4,1,0.9,1.4,1.5c0.3,0.6,0.5,1.3,0.5,2.1
	c0,0.8-0.2,1.5-0.5,2.1c-0.3,0.6-0.8,1.1-1.4,1.5c-0.6,0.4-1.3,0.5-2,0.5c-0.6,0-1.1-0.1-1.6-0.3s-0.8-0.5-1.1-0.9v4.6H614.8z
	 M619,551.4c0.7,0,1.2-0.2,1.6-0.7c0.4-0.4,0.6-1,0.6-1.7c0-0.7-0.2-1.3-0.6-1.7c-0.4-0.4-1-0.7-1.6-0.7c-0.7,0-1.2,0.2-1.6,0.7
	c-0.4,0.4-0.6,1-0.6,1.7s0.2,1.3,0.6,1.7C617.8,551.2,618.4,551.4,619,551.4z M624,553l2.9-4l-2.9-4h2.2l2,2.8l2-2.8h2.2l-2.9,4
	l2.9,4h-2.2l-2-2.8l-2,2.8H624z"/>
<path class="st2" d="M686.9,579.5h-23.9c-2,0-3.6,1.6-3.6,3.6v21.3c3.7,4.8,9.4,2.4,12.7-0.8c0.3-0.3,0.8-0.5,1.3-0.4
	c5.5,1.2,14.9-2.1,14.9-9.7v-1.3c0-0.5,0.2-1.1,0.5-1.5c0.7-0.9,1.2-1.7,1.6-2.5v-5.2C690.5,581.1,688.9,579.5,686.9,579.5
	L686.9,579.5z"/>
<path class="st2" d="M686.7,579h-23.3c-2.4,0-4.3,2-4.3,4.3v23.3c0,2.4,2,4.3,4.3,4.3h23.3c2.4,0,4.3-2,4.3-4.3v-23.3
	C691,581,689,579,686.7,579z M690.5,606.7c0,2.1-1.7,3.8-3.8,3.8h-23.3c-2.1,0-3.8-1.7-3.8-3.8v-23.3c0-2.1,1.7-3.8,3.8-3.8h23.3
	c2.1,0,3.8,1.7,3.8,3.8V606.7z"/>
<path class="st3" d="M668.1,587.7c-0.6,0-1.3-0.2-2-0.6c-0.1-0.1-0.2-0.3-0.1-0.4c0.1-0.1,0.3-0.2,0.4-0.1c1,0.6,2.5,1,3.7-0.6
	c0.1-0.1,0.3-0.2,0.4-0.1c0.1,0.1,0.2,0.3,0.1,0.4C670.1,587,669.3,587.7,668.1,587.7L668.1,587.7z"/>
<path class="st3" d="M674.6,586.4c-0.5,0-1-0.1-1.6-0.3c-0.2-0.1-0.2-0.2-0.2-0.4c0.1-0.2,0.2-0.2,0.4-0.2c1.1,0.4,2.7,0.6,3.6-1.1
	c0.1-0.1,0.3-0.2,0.4-0.1s0.2,0.3,0.1,0.4C676.9,585.3,676.1,586.4,674.6,586.4L674.6,586.4z"/>
<path class="st3" d="M668.9,592c-2,0-3.9-0.4-5.2-1.2c-0.1-0.1-0.2-0.3-0.1-0.4c0.1-0.1,0.3-0.2,0.4-0.1c4.7,2.8,13.6,0.1,17.6-4.2
	c0.1-0.1,0.3-0.1,0.4,0c0.1,0.1,0.1,0.3,0,0.4c-2.3,2.4-5.7,4.3-9.5,5C671.4,591.9,670.1,592,668.9,592L668.9,592z"/>
<path d="M563.8,598.2c-0.7,0-1.4-0.1-2-0.4c-0.6-0.3-1.1-0.7-1.4-1.2c-0.4-0.5-0.6-1.2-0.6-2h2c0,0.5,0.2,1,0.5,1.4
	c0.4,0.4,0.8,0.5,1.5,0.5c0.6,0,1.1-0.2,1.4-0.5s0.5-0.7,0.5-1.2c0-0.6-0.2-1-0.6-1.3c-0.4-0.3-1-0.5-1.6-0.5h-0.8v-1.7h0.8
	c0.5,0,1-0.1,1.4-0.4c0.4-0.3,0.5-0.6,0.5-1.1c0-0.4-0.1-0.7-0.4-1c-0.3-0.3-0.6-0.4-1.1-0.4c-0.5,0-0.9,0.2-1.2,0.5
	c-0.3,0.3-0.4,0.7-0.5,1.1h-2c0-1,0.4-1.9,1.1-2.4c0.7-0.6,1.6-0.9,2.6-0.9c0.8,0,1.4,0.1,1.9,0.4c0.5,0.3,0.9,0.6,1.2,1.1
	c0.3,0.4,0.4,0.9,0.4,1.5c0,0.6-0.2,1.2-0.5,1.6c-0.3,0.4-0.8,0.7-1.3,0.9c0.6,0.1,1.1,0.4,1.5,0.9c0.4,0.5,0.6,1.1,0.6,1.8
	c0,0.6-0.1,1.2-0.4,1.7c-0.3,0.5-0.7,0.9-1.3,1.2C565.3,598,564.6,598.2,563.8,598.2z M569.3,598v-1.5c0.7-0.6,1.3-1.1,2-1.7
	c0.7-0.6,1.2-1.1,1.7-1.6c0.5-0.5,0.9-1.1,1.2-1.6c0.3-0.5,0.5-1,0.5-1.5c0-0.5-0.1-0.9-0.4-1.2c-0.2-0.4-0.7-0.5-1.2-0.5
	c-0.6,0-1,0.2-1.3,0.6c-0.3,0.4-0.4,0.8-0.4,1.4h-2c0-0.8,0.2-1.5,0.5-2c0.3-0.6,0.8-1,1.4-1.2c0.6-0.3,1.2-0.4,1.9-0.4
	c1.1,0,2,0.3,2.7,0.9c0.6,0.6,1,1.4,1,2.4c0,0.6-0.1,1.2-0.4,1.8c-0.3,0.6-0.6,1.2-1.1,1.7c-0.5,0.5-1,1.1-1.5,1.5
	c-0.5,0.5-1,0.9-1.6,1.3h4.8v1.7H569.3z M581.8,598l2.9-4l-2.9-4h2.2l2,2.8l2-2.8h2.2l-2.9,4l2.9,4H588l-2-2.8l-2,2.8H581.8z
	 M599,598.2c-0.7,0-1.4-0.1-2-0.4c-0.6-0.3-1.1-0.7-1.4-1.2c-0.4-0.5-0.6-1.2-0.6-2h2c0,0.5,0.2,1,0.5,1.4c0.4,0.4,0.8,0.5,1.5,0.5
	c0.6,0,1.1-0.2,1.4-0.5s0.5-0.7,0.5-1.2c0-0.6-0.2-1-0.6-1.3c-0.4-0.3-1-0.5-1.6-0.5h-0.8v-1.7h0.8c0.5,0,1-0.1,1.4-0.4
	c0.4-0.3,0.5-0.6,0.5-1.1c0-0.4-0.1-0.7-0.4-1c-0.3-0.3-0.6-0.4-1.1-0.4c-0.5,0-0.9,0.2-1.2,0.5c-0.3,0.3-0.4,0.7-0.5,1.1h-2
	c0-1,0.4-1.9,1.1-2.4c0.7-0.6,1.6-0.9,2.6-0.9c0.8,0,1.4,0.1,1.9,0.4c0.5,0.3,0.9,0.6,1.2,1.1c0.3,0.4,0.4,0.9,0.4,1.5
	c0,0.6-0.2,1.2-0.5,1.6c-0.3,0.4-0.8,0.7-1.3,0.9c0.6,0.1,1.1,0.4,1.5,0.9c0.4,0.5,0.6,1.1,0.6,1.8c0,0.6-0.2,1.2-0.4,1.7
	c-0.3,0.5-0.7,0.9-1.3,1.2C600.5,598,599.8,598.2,599,598.2z M604.6,598v-1.5c0.7-0.6,1.3-1.1,2-1.7c0.7-0.6,1.2-1.1,1.7-1.6
	c0.5-0.5,0.9-1.1,1.2-1.6c0.3-0.5,0.5-1,0.5-1.5c0-0.5-0.1-0.9-0.4-1.2c-0.2-0.4-0.7-0.5-1.2-0.5c-0.6,0-1,0.2-1.3,0.6
	c-0.3,0.4-0.4,0.8-0.4,1.4h-2c0-0.8,0.2-1.5,0.5-2c0.3-0.6,0.8-1,1.4-1.2c0.6-0.3,1.2-0.4,1.9-0.4c1.1,0,2,0.3,2.7,0.9
	c0.6,0.6,1,1.4,1,2.4c0,0.6-0.1,1.2-0.4,1.8c-0.3,0.6-0.6,1.2-1.1,1.7c-0.5,0.5-1,1.1-1.5,1.5c-0.5,0.5-1.1,0.9-1.6,1.3h4.8v1.7
	H604.6z M617.8,601.5v-11.5h1.8l0.2,1.1c0.3-0.4,0.6-0.7,1-0.9c0.4-0.3,1-0.4,1.6-0.4c0.7,0,1.4,0.2,2,0.5c0.6,0.4,1.1,0.9,1.4,1.5
	c0.3,0.6,0.5,1.3,0.5,2.1c0,0.8-0.2,1.5-0.5,2.1c-0.3,0.6-0.8,1.1-1.4,1.5c-0.6,0.4-1.3,0.5-2,0.5c-0.6,0-1.1-0.1-1.6-0.3
	s-0.8-0.5-1.1-0.9v4.6H617.8z M622.1,596.4c0.7,0,1.2-0.2,1.6-0.7s0.6-1,0.6-1.7c0-0.7-0.2-1.3-0.6-1.7s-1-0.7-1.6-0.7
	c-0.7,0-1.2,0.2-1.6,0.7c-0.4,0.4-0.6,1-0.6,1.7s0.2,1.3,0.6,1.7C620.9,596.2,621.4,596.4,622.1,596.4z M627.1,598l2.9-4l-2.9-4h2.2
	l2,2.8l2-2.8h2.2l-2.9,4l2.9,4h-2.2l-2-2.8l-2,2.8H627.1z"/>
<path class="st2" d="M701.9,629.8h-35.8c-3,0-5.4,2.4-5.4,5.4v32c5.5,7.3,14.2,3.7,19-1.2c0.5-0.5,1.2-0.7,1.9-0.6
	c8.3,1.8,22.4-3.2,22.4-14.5v-1.9c0-0.8,0.3-1.6,0.7-2.2c1-1.3,1.8-2.5,2.4-3.7v-7.8C707.2,632.1,704.8,629.8,701.9,629.8
	L701.9,629.8z"/>
<path class="st2" d="M701.5,629h-35c-3.6,0-6.5,2.9-6.5,6.5v35c0,3.6,2.9,6.5,6.5,6.5h35c3.6,0,6.5-2.9,6.5-6.5v-35
	C708,631.9,705.1,629,701.5,629z M707.2,670.5c0,3.2-2.6,5.8-5.8,5.8h-35c-3.2,0-5.8-2.6-5.8-5.8v-35c0-3.2,2.6-5.8,5.8-5.8h35
	c3.2,0,5.8,2.6,5.8,5.8V670.5z"/>
<path class="st3" d="M673.6,642.1c-0.9,0-1.9-0.3-3-0.9c-0.2-0.1-0.3-0.4-0.2-0.6c0.1-0.2,0.4-0.3,0.6-0.2c1.6,0.9,3.8,1.5,5.6-0.9
	c0.1-0.2,0.4-0.2,0.6-0.1s0.2,0.4,0.1,0.6C676.7,641,675.5,642.1,673.6,642.1L673.6,642.1z"/>
<path class="st3" d="M683.4,640.1c-0.7,0-1.5-0.2-2.5-0.5c-0.2-0.1-0.3-0.4-0.3-0.6c0.1-0.2,0.4-0.3,0.6-0.3c1.7,0.7,4,0.9,5.4-1.7
	c0.1-0.2,0.4-0.3,0.6-0.2c0.2,0.1,0.3,0.4,0.2,0.6C686.9,638.5,685.7,640.1,683.4,640.1L683.4,640.1z"/>
<path class="st3" d="M674.9,648.6c-3.1,0-5.8-0.6-7.7-1.8c-0.2-0.1-0.3-0.4-0.2-0.6c0.1-0.2,0.4-0.3,0.6-0.2
	c7,4.2,20.4,0.1,26.4-6.2c0.2-0.2,0.5-0.2,0.6,0c0.2,0.2,0.2,0.5,0,0.6c-3.5,3.6-8.6,6.4-14.2,7.6
	C678.5,648.4,676.6,648.6,674.9,648.6L674.9,648.6z"/>
<path d="M564.2,646v-2.1h-5.5v-1.6l5.2-7.5h2.3v7.3h1.5v1.8h-1.5v2.1H564.2z M560.9,642.1h3.5v-5.1L560.9,642.1z M573.3,646.2
	c-0.8,0-1.5-0.1-2.1-0.4c-0.6-0.3-1.1-0.7-1.5-1.2c-0.4-0.5-0.5-1.1-0.5-1.7c0-0.7,0.2-1.3,0.5-1.8c0.4-0.5,0.8-0.9,1.4-1.1
	c-0.5-0.2-0.9-0.5-1.2-1c-0.3-0.4-0.4-0.9-0.4-1.4c0-0.5,0.1-1,0.4-1.5c0.3-0.5,0.7-0.8,1.3-1.1c0.6-0.3,1.3-0.4,2.1-0.4
	c0.8,0,1.5,0.1,2.1,0.4c0.6,0.3,1,0.6,1.3,1.1c0.3,0.4,0.4,0.9,0.4,1.5c0,0.5-0.2,1-0.5,1.4c-0.3,0.4-0.7,0.7-1.2,1
	c0.6,0.2,1.1,0.6,1.4,1.1c0.4,0.5,0.5,1.1,0.5,1.8c0,0.7-0.2,1.2-0.5,1.7c-0.4,0.5-0.9,0.9-1.5,1.2
	C574.7,646.1,574,646.2,573.3,646.2z M573.3,639.4c0.6,0,1-0.1,1.3-0.4c0.3-0.3,0.5-0.7,0.5-1.1c0-0.5-0.2-0.9-0.5-1.2
	c-0.3-0.3-0.7-0.4-1.3-0.4c-0.6,0-1,0.1-1.3,0.4c-0.3,0.3-0.5,0.7-0.5,1.2c0,0.5,0.2,0.8,0.5,1.1
	C572.3,639.2,572.7,639.4,573.3,639.4z M573.3,644.5c0.7,0,1.2-0.2,1.6-0.5c0.4-0.3,0.5-0.8,0.5-1.3c0-0.6-0.2-1-0.6-1.3
	c-0.4-0.3-0.9-0.5-1.5-0.5s-1.2,0.2-1.6,0.5c-0.4,0.3-0.6,0.8-0.6,1.3c0,0.5,0.2,0.9,0.5,1.3C572.1,644.3,572.6,644.5,573.3,644.5z
	 M582.4,646l2.9-4l-2.9-4h2.2l2,2.8l2-2.8h2.2l-2.9,4l2.9,4h-2.2l-2-2.8l-2,2.8H582.4z M601.1,646v-2.1h-5.5v-1.6l5.2-7.5h2.3v7.3
	h1.5v1.8h-1.5v2.1H601.1z M597.8,642.1h3.5v-5.1L597.8,642.1z M610.2,646.2c-0.8,0-1.5-0.1-2.1-0.4c-0.6-0.3-1.1-0.7-1.5-1.2
	c-0.4-0.5-0.5-1.1-0.5-1.7c0-0.7,0.2-1.3,0.5-1.8c0.4-0.5,0.8-0.9,1.4-1.1c-0.5-0.2-0.9-0.5-1.2-1c-0.3-0.4-0.4-0.9-0.4-1.4
	c0-0.5,0.1-1,0.4-1.5c0.3-0.5,0.7-0.8,1.3-1.1c0.6-0.3,1.3-0.4,2.1-0.4c0.8,0,1.5,0.1,2.1,0.4c0.6,0.3,1,0.6,1.3,1.1
	c0.3,0.4,0.4,0.9,0.4,1.5c0,0.5-0.2,1-0.5,1.4c-0.3,0.4-0.7,0.7-1.2,1c0.6,0.2,1.1,0.6,1.4,1.1c0.4,0.5,0.5,1.1,0.5,1.8
	c0,0.7-0.2,1.2-0.5,1.7c-0.4,0.5-0.9,0.9-1.5,1.2C611.6,646.1,611,646.2,610.2,646.2z M610.2,639.4c0.6,0,1-0.1,1.3-0.4
	c0.3-0.3,0.5-0.7,0.5-1.1c0-0.5-0.2-0.9-0.5-1.2c-0.3-0.3-0.7-0.4-1.3-0.4c-0.6,0-1,0.1-1.3,0.4c-0.3,0.3-0.5,0.7-0.5,1.2
	c0,0.5,0.2,0.8,0.5,1.1C609.2,639.2,609.6,639.4,610.2,639.4z M610.2,644.5c0.7,0,1.2-0.2,1.6-0.5c0.4-0.3,0.5-0.8,0.5-1.3
	c0-0.6-0.2-1-0.6-1.3c-0.4-0.3-0.9-0.5-1.5-0.5c-0.6,0-1.2,0.2-1.6,0.5c-0.4,0.3-0.6,0.8-0.6,1.3c0,0.5,0.2,0.9,0.5,1.3
	C609,644.3,609.5,644.5,610.2,644.5z M620.1,649.5v-11.5h1.8l0.2,1.1c0.3-0.4,0.6-0.7,1-0.9c0.4-0.3,1-0.4,1.6-0.4
	c0.7,0,1.4,0.2,2,0.5c0.6,0.4,1.1,0.9,1.4,1.5c0.3,0.6,0.5,1.3,0.5,2.1c0,0.8-0.2,1.5-0.5,2.1c-0.3,0.6-0.8,1.1-1.4,1.5
	c-0.6,0.4-1.3,0.5-2,0.5c-0.6,0-1.1-0.1-1.6-0.3c-0.4-0.2-0.8-0.5-1.1-0.9v4.6H620.1z M624.3,644.4c0.7,0,1.2-0.2,1.6-0.7
	c0.4-0.4,0.6-1,0.6-1.7c0-0.7-0.2-1.3-0.6-1.7c-0.4-0.4-1-0.7-1.6-0.7c-0.7,0-1.2,0.2-1.6,0.7c-0.4,0.4-0.6,1-0.6,1.7
	s0.2,1.3,0.6,1.7C623.1,644.2,623.7,644.4,624.3,644.4z M629.3,646l2.9-4l-2.9-4h2.2l2,2.8l2-2.8h2.2l-2.9,4l2.9,4h-2.2l-2-2.8
	l-2,2.8H629.3z"/>
</svg>
