<svg width="983" height="445" viewBox="0 0 983 445" fill="none" xmlns="http://www.w3.org/2000/svg">
<rect width="983" height="445" rx="30" fill="#F3F3F3"/>
<path d="M692.914 139.033C688.581 138.348 685.119 141.357 685.448 148.606C685.532 150.41 687.026 151.832 688.835 151.832H701.199C703.141 151.832 704.683 150.206 704.581 148.268L702.977 113.202C702.883 111.402 701.394 109.993 699.594 109.993C697.679 109.993 696.146 111.58 696.208 113.495L696.803 135.57C696.874 137.686 695.008 139.366 692.914 139.033Z" fill="#5C5C6D"/>
<path d="M669.488 139.033C665.155 138.348 661.693 141.357 662.022 148.606C662.106 150.41 663.599 151.832 665.408 151.832H677.773C679.715 151.832 681.257 150.206 681.155 148.268L679.55 113.202C679.457 111.402 677.968 109.993 676.168 109.993C674.253 109.993 672.719 111.58 672.782 113.495L673.377 135.57C673.448 137.686 671.582 139.366 669.488 139.033Z" fill="#5C5C6D"/>
<path d="M723.199 106.82L708.79 108.633C706.901 108.873 705.43 111.22 704.435 112.948L696.004 128.202C693.421 133.09 687.395 132.797 685.079 129.917L679.897 117.553C678.737 116.108 676.733 115.548 674.937 116.171L658.786 118.575C655.213 119.811 651.804 116.406 653.257 113.051L659.417 100.669C660.146 98.9886 659.653 97.0464 658.191 95.8731L648.635 88.4199C645.729 86.0821 646.831 82.5755 650.88 81.0822L662.093 76.3045C663.693 75.78 666.115 73.2956 666.831 71.5534L671.675 57.6069C673.137 51.3626 682.101 49.7626 685.124 55.7447L690.026 66.7846C691.012 69.1001 692.541 68.8512 694.986 68.1668L711.826 62.3358C715.399 61.1002 718.808 64.5046 717.354 67.8601L710.506 83.6688C709.777 85.3488 710.27 87.291 711.732 88.4643L725.439 99.4819C728.345 101.82 726.963 106.344 723.194 106.82H723.199Z" fill="#5C5C6D"/>
<path d="M674.479 96.8464C674.266 96.8464 674.053 96.7842 673.861 96.6597C673.35 96.3175 673.213 95.6286 673.555 95.1175C676.164 91.2198 680.146 89.1309 684.772 89.2643C689.639 89.3976 693.977 91.882 695.359 94.2109C695.675 94.7397 695.497 95.4197 694.972 95.7353C694.443 96.0508 693.763 95.8775 693.448 95.3486C692.532 93.8064 688.986 91.6064 684.71 91.4864C681.995 91.4109 678.181 92.1975 675.399 96.353C675.186 96.673 674.835 96.8464 674.475 96.8464H674.479Z" fill="white"/>
<path d="M676.084 86.6954C677.078 86.6954 677.884 85.4896 677.884 84.0021C677.884 82.5147 677.078 81.3088 676.084 81.3088C675.09 81.3088 674.284 82.5147 674.284 84.0021C674.284 85.4896 675.09 86.6954 676.084 86.6954Z" fill="white"/>
<path d="M689.43 85.3976C690.424 85.3976 691.23 84.1918 691.23 82.7043C691.23 81.2169 690.424 80.011 689.43 80.011C688.436 80.011 687.63 81.2169 687.63 82.7043C687.63 84.1918 688.436 85.3976 689.43 85.3976Z" fill="white"/>
<path d="M695.79 87.3532C695.79 88.0065 695.195 88.5398 694.457 88.5398C693.719 88.5398 693.124 88.0109 693.124 87.3532C692.95 86.6776 692.173 85.3976 692.911 85.3976C693.648 85.3976 695.79 86.6954 695.79 87.3532Z" fill="white"/>
<path d="M671.671 78.1533C671.226 78.1533 670.982 78.1178 670.951 78.1089C670.586 78.0511 670.342 77.7044 670.4 77.3444C670.457 76.98 670.804 76.7356 671.164 76.7933C671.186 76.7933 673.466 77.1133 677.799 75.34C678.142 75.2022 678.528 75.3667 678.671 75.7045C678.808 76.0467 678.648 76.4333 678.306 76.5756C674.968 77.94 672.733 78.1533 671.666 78.1533H671.671Z" fill="white"/>
<path d="M692.19 77.2645C692.635 77.2645 692.879 77.2289 692.91 77.22C693.275 77.1622 693.519 76.8156 693.461 76.4556C693.404 76.0911 693.057 75.8467 692.697 75.9045C692.675 75.9045 690.395 76.2245 686.062 74.4512C685.719 74.3134 685.333 74.4778 685.19 74.8156C685.053 75.1578 685.213 75.5445 685.555 75.6867C688.893 77.0511 691.128 77.2645 692.195 77.2645H692.19Z" fill="white"/>
<path d="M560.581 138.302C556.248 137.618 552.786 140.627 553.115 147.875C553.199 149.68 554.693 151.102 556.502 151.102H568.866C570.808 151.102 572.35 149.475 572.248 147.538L570.644 117.08C570.55 115.28 569.061 113.871 567.261 113.871C565.346 113.871 563.813 115.458 563.875 117.374L564.47 134.844C564.541 136.96 562.675 138.64 560.581 138.307V138.302Z" fill="#79ADDC"/>
<path d="M583.835 141.093C579.502 140.409 576.039 143.418 576.368 150.667C576.453 152.471 577.946 153.893 579.755 153.893H592.119C594.061 153.893 595.604 152.266 595.501 150.329L593.897 119.871C593.804 118.071 592.315 116.662 590.515 116.662C588.599 116.662 587.066 118.249 587.128 120.165L587.724 137.636C587.795 139.751 585.928 141.431 583.835 141.098V141.093Z" fill="#79ADDC"/>
<path d="M556.964 116.956L541.862 101.036C531.955 91.3427 539.16 81.1339 546.026 73.294L555.724 61.3297C562.671 52.7609 570.684 42.8765 585.39 53.8631L610.661 77.4273C623.248 89.2583 614.515 96.8404 606.617 108.111L598.639 119.174C587.435 134.036 570.097 131.022 556.96 116.956H556.964Z" fill="#79ADDC"/>
<path d="M569.133 87.765C568.897 87.765 568.657 87.6894 568.453 87.5339C567.968 87.1561 567.879 86.4583 568.253 85.9739C570.19 83.4761 573.404 82.2584 576.857 82.725C579.297 83.0539 581.19 84.1783 581.804 85.6628C582.039 86.2317 581.768 86.8805 581.199 87.1116C580.63 87.3428 579.981 87.0761 579.75 86.5072C579.501 85.9028 578.324 85.165 576.564 84.925C575.568 84.7917 572.15 84.5694 570.013 87.3339C569.795 87.6183 569.466 87.765 569.133 87.765Z" fill="white"/>
<path d="M565.044 71.9829C564.599 71.9829 564.355 71.9474 564.324 71.9385C563.959 71.8807 563.715 71.534 563.773 71.174C563.83 70.8096 564.177 70.5651 564.537 70.6229C564.559 70.6229 566.839 70.9429 571.173 69.1696C571.515 69.0318 571.901 69.1963 572.044 69.534C572.181 69.8763 572.021 70.2629 571.679 70.4051C568.341 71.7696 566.106 71.9829 565.039 71.9829H565.044Z" fill="white"/>
<path d="M585.56 71.9829C586.004 71.9829 586.248 71.9474 586.28 71.9385C586.644 71.8807 586.888 71.534 586.831 71.174C586.773 70.8096 586.426 70.5651 586.066 70.6229C586.044 70.6229 583.764 70.9429 579.431 69.1696C579.088 69.0318 578.702 69.1963 578.56 69.534C578.422 69.8763 578.582 70.2629 578.924 70.4051C582.262 71.7696 584.497 71.9829 585.564 71.9829H585.56Z" fill="white"/>
<path d="M568.284 79.6584C569.278 79.6584 570.084 78.4526 570.084 76.9651C570.084 75.4776 569.278 74.2718 568.284 74.2718C567.29 74.2718 566.484 75.4776 566.484 76.9651C566.484 78.4526 567.29 79.6584 568.284 79.6584Z" fill="white"/>
<path d="M581.631 78.8051C582.625 78.8051 583.431 77.5992 583.431 76.1118C583.431 74.6243 582.625 73.4185 581.631 73.4185C580.636 73.4185 579.831 74.6243 579.831 76.1118C579.831 77.5992 580.636 78.8051 581.631 78.8051Z" fill="white"/>
<path d="M260.373 136.96C263.995 136.386 266.893 138.906 266.617 144.964C266.546 146.475 265.297 147.662 263.786 147.662H253.448C251.826 147.662 250.533 146.302 250.622 144.68L251.964 119.209C252.044 117.702 253.288 116.525 254.791 116.525C256.395 116.525 257.675 117.853 257.622 119.453L257.124 134.062C257.062 135.831 258.626 137.235 260.377 136.955L260.373 136.96Z" fill="#FF9E88"/>
<path d="M238.671 141.693C242.293 141.12 245.191 143.64 244.915 149.697C244.844 151.208 243.595 152.395 242.084 152.395H231.746C230.124 152.395 228.831 151.035 228.92 149.413L230.262 123.942C230.342 122.436 231.586 121.258 233.089 121.258C234.693 121.258 235.973 122.587 235.92 124.187L235.422 138.795C235.36 140.564 236.924 141.969 238.675 141.689L238.671 141.693Z" fill="#FF9E88"/>
<path d="M213.418 96.1338C215.627 94.0183 216.836 91.0672 216.831 87.974C216.831 87.9562 216.831 87.9384 216.831 87.9206C216.831 67.7921 233 51.5346 252.759 52.0102C271.372 52.4591 286.55 68.001 286.99 87.054C287.457 107.289 271.572 123.844 251.915 123.84C251.888 123.84 251.862 123.84 251.835 123.84C247.311 123.831 242.889 125.213 239.244 127.964C235.626 130.698 231.084 132.222 226.191 131.969C215.671 131.418 207.231 122.502 207.005 111.72C206.876 105.565 209.369 100.009 213.418 96.1294V96.1338Z" fill="#FF9E88"/>
<path d="M263.368 82.8141C259.644 82.8141 256.573 81.9563 254.244 80.9341C249.088 78.6719 246.386 75.2053 246.275 75.0586C245.902 74.5698 245.991 73.872 246.48 73.4987C246.968 73.1253 247.666 73.2187 248.04 73.7031C248.44 74.2187 258.079 86.294 275.941 77.3164C276.492 77.0408 277.159 77.263 277.435 77.8097C277.71 78.3564 277.488 79.0275 276.941 79.303C271.772 81.8985 267.221 82.8185 263.373 82.8185L263.368 82.8141Z" fill="white"/>
<path d="M254.488 72.2676C254.164 72.2676 253.844 72.1298 253.626 71.8587C253.239 71.3832 253.311 70.6854 253.786 70.2943L255.279 69.0765L253.951 67.5077C253.555 67.041 253.613 66.3388 254.079 65.9433C254.546 65.5477 255.248 65.6055 255.644 66.0722L257.208 67.921C257.533 68.3077 257.688 68.7921 257.644 69.2988C257.599 69.8054 257.355 70.2543 256.964 70.5743L255.186 72.0232C254.982 72.192 254.733 72.272 254.484 72.272L254.488 72.2676Z" fill="white"/>
<path d="M268.684 73.5609C268.368 73.5609 268.053 73.4276 267.835 73.1698L266.23 71.2721C265.902 70.881 265.746 70.3876 265.79 69.881C265.839 69.3743 266.079 68.9165 266.475 68.5921L268.301 67.1032C268.777 66.7166 269.479 66.7877 269.866 67.2632C270.253 67.7388 270.181 68.4366 269.706 68.8277L268.146 70.0987L269.533 71.7343C269.928 72.2009 269.87 72.9031 269.404 73.2987C269.195 73.4765 268.941 73.5609 268.688 73.5609H268.684Z" fill="white"/>
<path d="M451.542 139.291C447.209 138.607 443.746 141.615 444.075 148.864C444.16 150.668 445.653 152.091 447.462 152.091H459.826C461.768 152.091 463.311 150.464 463.208 148.526L461.604 118.069C461.511 116.269 460.022 114.86 458.222 114.86C456.306 114.86 454.773 116.447 454.835 118.363L455.431 135.833C455.502 137.949 453.635 139.629 451.542 139.295V139.291Z" fill="#567751"/>
<path d="M480.737 140.131C485.07 139.447 488.532 142.455 488.203 149.704C488.119 151.508 486.625 152.931 484.817 152.931H472.452C470.51 152.931 468.968 151.304 469.07 149.366L470.675 118.909C470.768 117.109 472.257 115.7 474.057 115.7C475.972 115.7 477.506 117.287 477.443 119.203L476.848 136.673C476.777 138.789 478.643 140.469 480.737 140.135V140.131Z" fill="#567751"/>
<path d="M469.186 129.998H465.297C446.844 129.998 435.062 118.705 432.022 102.807L427 72.9057C427 62.7815 434.986 55.6972 449.697 54.4972L485.194 50.1906C495.239 48.7329 509.243 55.7505 506.696 67.2925L500.132 102.652C495.599 117.291 487.599 129.998 469.19 129.998H469.186Z" fill="#567751"/>
<path d="M457.399 83.4966C456.844 83.4966 456.368 83.0832 456.297 82.5188C456.222 81.9099 456.657 81.3544 457.266 81.2788L476.466 78.9322C477.083 78.8567 477.63 79.2922 477.706 79.9011C477.781 80.51 477.346 81.0655 476.737 81.1411L457.537 83.4877C457.493 83.4921 457.444 83.4966 457.399 83.4966Z" fill="white"/>
<path d="M459.244 73.2924C460.238 73.2924 461.044 72.0866 461.044 70.5991C461.044 69.1116 460.238 67.9058 459.244 67.9058C458.25 67.9058 457.444 69.1116 457.444 70.5991C457.444 72.0866 458.25 73.2924 459.244 73.2924Z" fill="white"/>
<path d="M472.612 71.6124C473.606 71.6124 474.412 70.4066 474.412 68.9192C474.412 67.4317 473.606 66.2259 472.612 66.2259C471.618 66.2259 470.812 67.4317 470.812 68.9192C470.812 70.4066 471.618 71.6124 472.612 71.6124Z" fill="white"/>
<path d="M341.481 136.083C337.699 135.483 334.677 138.114 334.965 144.439C335.037 146.017 336.343 147.257 337.921 147.257H348.713C350.406 147.257 351.753 145.835 351.664 144.146L350.264 117.562C350.18 115.993 348.886 114.762 347.313 114.762C345.642 114.762 344.299 116.149 344.357 117.82L344.877 133.07C344.939 134.919 343.308 136.381 341.481 136.092V136.083Z" fill="#F78B98"/>
<path d="M362.576 141.084C358.793 140.483 355.771 143.115 356.06 149.44C356.131 151.017 357.438 152.257 359.016 152.257H369.807C371.501 152.257 372.847 150.835 372.759 149.146L371.359 122.562C371.274 120.994 369.981 119.762 368.407 119.762C366.736 119.762 365.394 121.149 365.452 122.82L365.972 138.07C366.034 139.919 364.403 141.381 362.576 141.092V141.084Z" fill="#F78B98"/>
<path d="M396.978 77.8933C396.507 70.2662 391.04 64.1814 384.199 63.2881C382.83 63.1103 380.701 63.4836 379.132 63.8036C378.048 64.0259 377.008 63.3058 376.661 62.1413C375.083 56.8699 370.456 53.372 364.043 53.372C361.158 53.372 358.487 54.1498 356.327 55.461C354.331 56.6744 351.829 56.4077 350.135 54.7143C347.686 52.2608 344.388 50.8296 340.792 51.0163C334.157 51.3585 328.747 57.3277 328.401 64.6881C328.374 65.2882 328.378 65.8838 328.414 66.4705C328.574 69.0039 327.663 71.493 325.867 73.0708C320.36 77.9244 317 84.387 317 91.4852C317 104.548 328.383 115.464 343.584 118.14C345.433 118.464 346.997 119.878 347.579 121.851C349.162 127.212 353.078 131.007 357.656 131.007C360.909 131.007 363.829 129.092 365.812 126.06C366.852 124.469 368.696 123.86 370.363 124.536C371.75 125.096 373.27 125.407 374.865 125.407C381.341 125.407 389.284 119.691 386.586 113.998C386.031 112.824 383.826 109.011 387.728 108.299C391.124 107.757 397 104.93 397 98.2989C397 96.2321 396.613 94.2809 395.929 92.5475C395.004 90.2051 394.951 87.5605 395.858 85.2048C396.716 82.9869 397.124 80.5024 396.964 77.8978L396.978 77.8933Z" fill="#F78B98"/>
<path d="M345.068 89.8851C340.592 89.8851 336.534 88.7339 334.156 86.6849C333.69 86.2849 333.641 85.5826 334.041 85.1159C334.441 84.6492 335.143 84.6003 335.61 85.0004C340.028 88.8095 351.54 88.805 358.678 83.3647C359.167 82.9914 359.865 83.0892 360.233 83.5736C360.607 84.0625 360.509 84.7604 360.025 85.1293C355.709 88.4183 350.122 89.8851 345.068 89.8851Z" fill="white"/>
<path d="M340.806 79.2089C341.8 79.2089 342.606 78.003 342.606 76.5154C342.606 75.0279 341.8 73.822 340.806 73.822C339.812 73.822 339.006 75.0279 339.006 76.5154C339.006 78.003 339.812 79.2089 340.806 79.2089Z" fill="white"/>
<path d="M354.153 77.9111C355.147 77.9111 355.953 76.7052 355.953 75.2176C355.953 73.73 355.147 72.5241 354.153 72.5241C353.159 72.5241 352.353 73.73 352.353 75.2176C352.353 76.7052 353.159 77.9111 354.153 77.9111Z" fill="white"/>
<path d="M336.453 261.192C335.408 261.192 334.49 260.952 333.701 260.472C332.912 259.981 332.298 259.304 331.861 258.44C331.424 257.565 331.205 256.557 331.205 255.416C331.205 254.275 331.424 253.267 331.861 252.392C332.309 251.517 332.938 250.835 333.749 250.344C334.57 249.853 335.536 249.608 336.645 249.608C337.904 249.608 338.949 249.912 339.781 250.52C340.624 251.128 341.168 251.965 341.413 253.032H339.861C339.712 252.36 339.354 251.827 338.789 251.432C338.234 251.037 337.52 250.84 336.645 250.84C335.824 250.84 335.109 251.027 334.501 251.4C333.893 251.763 333.418 252.285 333.077 252.968C332.746 253.651 332.581 254.467 332.581 255.416C332.581 256.365 332.746 257.181 333.077 257.864C333.408 258.547 333.866 259.075 334.453 259.448C335.04 259.811 335.722 259.992 336.501 259.992C337.696 259.992 338.597 259.645 339.205 258.952C339.813 258.248 340.16 257.288 340.245 256.072H337.013V255.016H341.621V261H340.389L340.277 259.16C339.872 259.811 339.376 260.312 338.789 260.664C338.202 261.016 337.424 261.192 336.453 261.192ZM347.283 261.192C346.536 261.192 345.864 261.021 345.267 260.68C344.669 260.339 344.195 259.859 343.843 259.24C343.501 258.611 343.331 257.875 343.331 257.032C343.331 256.189 343.507 255.459 343.859 254.84C344.211 254.211 344.685 253.725 345.283 253.384C345.891 253.043 346.568 252.872 347.315 252.872C348.061 252.872 348.733 253.043 349.331 253.384C349.928 253.725 350.397 254.211 350.739 254.84C351.091 255.459 351.267 256.189 351.267 257.032C351.267 257.875 351.091 258.611 350.739 259.24C350.387 259.859 349.907 260.339 349.299 260.68C348.701 261.021 348.029 261.192 347.283 261.192ZM347.283 260.04C347.741 260.04 348.168 259.928 348.563 259.704C348.957 259.48 349.277 259.144 349.523 258.696C349.768 258.248 349.891 257.693 349.891 257.032C349.891 256.371 349.768 255.816 349.523 255.368C349.288 254.92 348.973 254.584 348.579 254.36C348.184 254.136 347.763 254.024 347.315 254.024C346.856 254.024 346.429 254.136 346.035 254.36C345.64 254.584 345.32 254.92 345.075 255.368C344.829 255.816 344.707 256.371 344.707 257.032C344.707 257.693 344.829 258.248 345.075 258.696C345.32 259.144 345.635 259.48 346.019 259.704C346.413 259.928 346.835 260.04 347.283 260.04ZM356.751 261.192C356.005 261.192 355.333 261.021 354.735 260.68C354.138 260.339 353.663 259.859 353.311 259.24C352.97 258.611 352.799 257.875 352.799 257.032C352.799 256.189 352.975 255.459 353.327 254.84C353.679 254.211 354.154 253.725 354.751 253.384C355.359 253.043 356.037 252.872 356.783 252.872C357.53 252.872 358.202 253.043 358.799 253.384C359.397 253.725 359.866 254.211 360.207 254.84C360.559 255.459 360.735 256.189 360.735 257.032C360.735 257.875 360.559 258.611 360.207 259.24C359.855 259.859 359.375 260.339 358.767 260.68C358.17 261.021 357.498 261.192 356.751 261.192ZM356.751 260.04C357.21 260.04 357.637 259.928 358.031 259.704C358.426 259.48 358.746 259.144 358.991 258.696C359.237 258.248 359.359 257.693 359.359 257.032C359.359 256.371 359.237 255.816 358.991 255.368C358.757 254.92 358.442 254.584 358.047 254.36C357.653 254.136 357.231 254.024 356.783 254.024C356.325 254.024 355.898 254.136 355.503 254.36C355.109 254.584 354.789 254.92 354.543 255.368C354.298 255.816 354.175 256.371 354.175 257.032C354.175 257.693 354.298 258.248 354.543 258.696C354.789 259.144 355.103 259.48 355.487 259.704C355.882 259.928 356.303 260.04 356.751 260.04ZM366.204 261.192C365.415 261.192 364.721 261.011 364.124 260.648C363.537 260.285 363.079 259.789 362.748 259.16C362.428 258.531 362.268 257.816 362.268 257.016C362.268 256.216 362.433 255.507 362.764 254.888C363.095 254.259 363.553 253.768 364.14 253.416C364.727 253.053 365.42 252.872 366.22 252.872C366.871 252.872 367.447 253.005 367.948 253.272C368.449 253.539 368.839 253.912 369.116 254.392V249.48H370.46V261H369.244L369.116 259.688C368.86 260.072 368.492 260.419 368.012 260.728C367.532 261.037 366.929 261.192 366.204 261.192ZM366.348 260.024C366.881 260.024 367.351 259.901 367.756 259.656C368.172 259.4 368.492 259.048 368.716 258.6C368.951 258.152 369.068 257.629 369.068 257.032C369.068 256.435 368.951 255.912 368.716 255.464C368.492 255.016 368.172 254.669 367.756 254.424C367.351 254.168 366.881 254.04 366.348 254.04C365.825 254.04 365.356 254.168 364.94 254.424C364.535 254.669 364.215 255.016 363.98 255.464C363.756 255.912 363.644 256.435 363.644 257.032C363.644 257.629 363.756 258.152 363.98 258.6C364.215 259.048 364.535 259.4 364.94 259.656C365.356 259.901 365.825 260.024 366.348 260.024Z" fill="#3F4636"/>
<path d="M378.985 200.487C378.661 195.244 374.902 191.061 370.2 190.447C369.258 190.325 367.795 190.582 366.716 190.802C365.97 190.954 365.255 190.459 365.017 189.659C363.932 186.035 360.751 183.631 356.342 183.631C354.359 183.631 352.522 184.165 351.037 185.067C349.665 185.901 347.945 185.717 346.78 184.553C345.097 182.867 342.829 181.883 340.357 182.011C335.795 182.246 332.076 186.35 331.838 191.41C331.82 191.822 331.823 192.232 331.847 192.635C331.957 194.377 331.331 196.088 330.096 197.172C326.31 200.509 324 204.951 324 209.831C324 218.811 331.826 226.315 342.276 228.154C343.547 228.378 344.623 229.349 345.023 230.706C346.111 234.391 348.803 237 351.951 237C354.188 237 356.195 235.683 357.558 233.599C358.273 232.505 359.541 232.087 360.687 232.551C361.64 232.936 362.685 233.15 363.782 233.15C368.235 233.15 373.695 229.221 371.84 225.307C371.458 224.5 369.943 221.879 372.626 221.39C374.96 221.017 379 219.074 379 214.515C379 213.094 378.734 211.753 378.264 210.561C377.628 208.951 377.591 207.133 378.215 205.514C378.804 203.989 379.086 202.281 378.976 200.491L378.985 200.487Z" fill="#F78B98"/>
<path d="M343.297 208.731C340.22 208.731 337.43 207.94 335.795 206.531C335.474 206.256 335.441 205.773 335.716 205.453C335.991 205.132 336.473 205.098 336.794 205.373C339.832 207.992 347.746 207.989 352.653 204.249C352.99 203.992 353.469 204.059 353.723 204.392C353.98 204.728 353.912 205.208 353.579 205.462C350.612 207.723 346.771 208.731 343.297 208.731Z" fill="white"/>
<path d="M340.366 201.389C341.05 201.389 341.604 200.56 341.604 199.537C341.604 198.515 341.05 197.686 340.366 197.686C339.683 197.686 339.129 198.515 339.129 199.537C339.129 200.56 339.683 201.389 340.366 201.389Z" fill="white"/>
<path d="M349.543 200.5C350.226 200.5 350.78 199.671 350.78 198.648C350.78 197.625 350.226 196.796 349.543 196.796C348.859 196.796 348.305 197.625 348.305 198.648C348.305 199.671 348.859 200.5 349.543 200.5Z" fill="white"/>
<path d="M563.52 257V245.8H567.456C568.245 245.8 568.896 245.928 569.408 246.184C569.931 246.429 570.32 246.771 570.576 247.208C570.832 247.635 570.96 248.115 570.96 248.648C570.96 249.373 570.763 249.944 570.368 250.36C569.984 250.776 569.52 251.064 568.976 251.224C569.392 251.299 569.771 251.464 570.112 251.72C570.453 251.976 570.72 252.296 570.912 252.68C571.115 253.064 571.216 253.485 571.216 253.944C571.216 254.509 571.077 255.027 570.8 255.496C570.523 255.955 570.112 256.323 569.568 256.6C569.024 256.867 568.363 257 567.584 257H563.52ZM564.864 250.696H567.36C568.075 250.696 568.624 250.531 569.008 250.2C569.392 249.859 569.584 249.389 569.584 248.792C569.584 248.227 569.392 247.773 569.008 247.432C568.635 247.091 568.069 246.92 567.312 246.92H564.864V250.696ZM564.864 255.88H567.44C568.208 255.88 568.8 255.704 569.216 255.352C569.632 254.989 569.84 254.488 569.84 253.848C569.84 253.219 569.621 252.717 569.184 252.344C568.747 251.96 568.155 251.768 567.408 251.768H564.864V255.88ZM575.705 257.192C575.044 257.192 574.494 257.08 574.057 256.856C573.62 256.632 573.294 256.333 573.081 255.96C572.868 255.587 572.761 255.181 572.761 254.744C572.761 253.933 573.07 253.309 573.689 252.872C574.308 252.435 575.15 252.216 576.217 252.216H578.361V252.12C578.361 251.427 578.18 250.904 577.817 250.552C577.454 250.189 576.969 250.008 576.361 250.008C575.838 250.008 575.385 250.141 575.001 250.408C574.628 250.664 574.393 251.043 574.297 251.544H572.921C572.974 250.968 573.166 250.483 573.497 250.088C573.838 249.693 574.26 249.395 574.761 249.192C575.262 248.979 575.796 248.872 576.361 248.872C577.47 248.872 578.302 249.171 578.857 249.768C579.422 250.355 579.705 251.139 579.705 252.12V257H578.505L578.425 255.576C578.201 256.024 577.87 256.408 577.433 256.728C577.006 257.037 576.43 257.192 575.705 257.192ZM575.913 256.056C576.425 256.056 576.862 255.923 577.225 255.656C577.598 255.389 577.881 255.043 578.073 254.616C578.265 254.189 578.361 253.741 578.361 253.272V253.256H576.329C575.54 253.256 574.98 253.395 574.649 253.672C574.329 253.939 574.169 254.275 574.169 254.68C574.169 255.096 574.318 255.432 574.617 255.688C574.926 255.933 575.358 256.056 575.913 256.056ZM585.321 257.192C584.532 257.192 583.839 257.011 583.241 256.648C582.655 256.285 582.196 255.789 581.865 255.16C581.545 254.531 581.385 253.816 581.385 253.016C581.385 252.216 581.551 251.507 581.881 250.888C582.212 250.259 582.671 249.768 583.257 249.416C583.844 249.053 584.537 248.872 585.337 248.872C585.988 248.872 586.564 249.005 587.065 249.272C587.567 249.539 587.956 249.912 588.233 250.392V245.48H589.577V257H588.361L588.233 255.688C587.977 256.072 587.609 256.419 587.129 256.728C586.649 257.037 586.047 257.192 585.321 257.192ZM585.465 256.024C585.999 256.024 586.468 255.901 586.873 255.656C587.289 255.4 587.609 255.048 587.833 254.6C588.068 254.152 588.185 253.629 588.185 253.032C588.185 252.435 588.068 251.912 587.833 251.464C587.609 251.016 587.289 250.669 586.873 250.424C586.468 250.168 585.999 250.04 585.465 250.04C584.943 250.04 584.473 250.168 584.057 250.424C583.652 250.669 583.332 251.016 583.097 251.464C582.873 251.912 582.761 252.435 582.761 253.032C582.761 253.629 582.873 254.152 583.097 254.6C583.332 255.048 583.652 255.4 584.057 255.656C584.473 255.901 584.943 256.024 585.465 256.024Z" fill="#3F4636"/>
<path d="M562.725 225.719L552.343 214.774C545.532 208.11 550.485 201.092 555.206 195.702L561.873 187.477C566.649 181.586 572.158 174.79 582.268 182.343L599.642 198.544C608.295 206.677 602.291 211.89 596.862 219.639L591.377 227.244C583.674 237.461 571.754 235.39 562.722 225.719H562.725Z" fill="#79ADDC"/>
<path d="M571.091 205.651C570.929 205.651 570.764 205.599 570.624 205.492C570.291 205.232 570.23 204.752 570.486 204.419C571.818 202.702 574.028 201.865 576.402 202.186C578.079 202.412 579.381 203.185 579.803 204.205C579.965 204.596 579.778 205.043 579.387 205.201C578.996 205.36 578.55 205.177 578.391 204.786C578.22 204.37 577.41 203.863 576.2 203.698C575.516 203.606 573.166 203.454 571.696 205.354C571.547 205.55 571.32 205.651 571.091 205.651Z" fill="white"/>
<path d="M568.28 194.801C567.975 194.801 567.806 194.776 567.785 194.77C567.535 194.73 567.366 194.492 567.406 194.244C567.446 193.994 567.684 193.826 567.932 193.866C567.947 193.866 569.515 194.086 572.494 192.866C572.729 192.772 572.995 192.885 573.093 193.117C573.187 193.352 573.077 193.618 572.842 193.716C570.547 194.654 569.01 194.801 568.277 194.801H568.28Z" fill="white"/>
<path d="M582.384 194.801C582.69 194.801 582.858 194.776 582.879 194.77C583.13 194.73 583.298 194.492 583.258 194.244C583.219 193.994 582.98 193.826 582.733 193.866C582.718 193.866 581.15 194.086 578.171 192.866C577.936 192.772 577.67 192.885 577.572 193.117C577.477 193.352 577.587 193.618 577.823 193.716C580.117 194.654 581.654 194.801 582.388 194.801H582.384Z" fill="white"/>
<path d="M570.508 200.077C571.191 200.077 571.745 199.248 571.745 198.226C571.745 197.203 571.191 196.374 570.508 196.374C569.825 196.374 569.271 197.203 569.271 198.226C569.271 199.248 569.825 200.077 570.508 200.077Z" fill="white"/>
<path d="M579.684 199.491C580.367 199.491 580.921 198.662 580.921 197.639C580.921 196.616 580.367 195.787 579.684 195.787C579 195.787 578.446 196.616 578.446 197.639C578.446 198.662 579 199.491 579.684 199.491Z" fill="white"/>
<path d="M660.917 261V250.904H657.573V249.8H665.605V250.904H662.261V261H660.917ZM669.297 261.192C668.54 261.192 667.868 261.021 667.281 260.68C666.694 260.328 666.23 259.843 665.889 259.224C665.558 258.605 665.393 257.875 665.393 257.032C665.393 256.2 665.558 255.475 665.889 254.856C666.22 254.227 666.678 253.741 667.265 253.4C667.862 253.048 668.55 252.872 669.329 252.872C670.097 252.872 670.758 253.048 671.313 253.4C671.878 253.741 672.31 254.195 672.609 254.76C672.908 255.325 673.057 255.933 673.057 256.584C673.057 256.701 673.052 256.819 673.041 256.936C673.041 257.053 673.041 257.187 673.041 257.336H666.721C666.753 257.944 666.892 258.451 667.137 258.856C667.393 259.251 667.708 259.549 668.081 259.752C668.465 259.955 668.87 260.056 669.297 260.056C669.852 260.056 670.316 259.928 670.689 259.672C671.062 259.416 671.334 259.069 671.505 258.632H672.833C672.62 259.368 672.209 259.981 671.601 260.472C671.004 260.952 670.236 261.192 669.297 261.192ZM669.297 254.008C668.657 254.008 668.086 254.205 667.585 254.6C667.094 254.984 666.812 255.549 666.737 256.296H671.729C671.697 255.581 671.452 255.021 670.993 254.616C670.534 254.211 669.969 254.008 669.297 254.008ZM674.838 261V253.064H676.054L676.166 254.584C676.412 254.061 676.785 253.645 677.286 253.336C677.788 253.027 678.406 252.872 679.142 252.872V254.28H678.774C678.305 254.28 677.873 254.365 677.478 254.536C677.084 254.696 676.769 254.973 676.534 255.368C676.3 255.763 676.182 256.307 676.182 257V261H674.838ZM680.651 261V253.064H681.867L681.979 254.584C682.224 254.061 682.598 253.645 683.099 253.336C683.6 253.027 684.219 252.872 684.955 252.872V254.28H684.587C684.118 254.28 683.686 254.365 683.291 254.536C682.896 254.696 682.582 254.973 682.347 255.368C682.112 255.763 681.995 256.307 681.995 257V261H680.651ZM687.279 251.304C687.013 251.304 686.789 251.219 686.607 251.048C686.437 250.867 686.351 250.643 686.351 250.376C686.351 250.12 686.437 249.907 686.607 249.736C686.789 249.565 687.013 249.48 687.279 249.48C687.535 249.48 687.754 249.565 687.935 249.736C688.117 249.907 688.207 250.12 688.207 250.376C688.207 250.643 688.117 250.867 687.935 251.048C687.754 251.219 687.535 251.304 687.279 251.304ZM686.607 261V253.064H687.951V261H686.607ZM694.532 261.192C693.881 261.192 693.3 261.059 692.788 260.792C692.286 260.525 691.902 260.152 691.636 259.672L691.508 261H690.292V249.48H691.636V254.376C691.892 253.992 692.254 253.645 692.724 253.336C693.204 253.027 693.812 252.872 694.548 252.872C695.337 252.872 696.025 253.053 696.612 253.416C697.198 253.779 697.652 254.275 697.972 254.904C698.302 255.533 698.468 256.248 698.468 257.048C698.468 257.848 698.302 258.563 697.972 259.192C697.652 259.811 697.193 260.301 696.596 260.664C696.009 261.016 695.321 261.192 694.532 261.192ZM694.388 260.024C694.921 260.024 695.39 259.901 695.796 259.656C696.201 259.4 696.521 259.048 696.756 258.6C696.99 258.152 697.108 257.629 697.108 257.032C697.108 256.435 696.99 255.912 696.756 255.464C696.521 255.016 696.201 254.669 695.796 254.424C695.39 254.168 694.921 254.04 694.388 254.04C693.854 254.04 693.385 254.168 692.98 254.424C692.574 254.669 692.254 255.016 692.02 255.464C691.785 255.912 691.668 256.435 691.668 257.032C691.668 257.629 691.785 258.152 692.02 258.6C692.254 259.048 692.574 259.4 692.98 259.656C693.385 259.901 693.854 260.024 694.388 260.024ZM700.338 261V249.48H701.682V261H700.338ZM707.453 261.192C706.696 261.192 706.024 261.021 705.437 260.68C704.851 260.328 704.387 259.843 704.045 259.224C703.715 258.605 703.549 257.875 703.549 257.032C703.549 256.2 703.715 255.475 704.045 254.856C704.376 254.227 704.835 253.741 705.421 253.4C706.019 253.048 706.707 252.872 707.485 252.872C708.253 252.872 708.915 253.048 709.469 253.4C710.035 253.741 710.467 254.195 710.765 254.76C711.064 255.325 711.213 255.933 711.213 256.584C711.213 256.701 711.208 256.819 711.197 256.936C711.197 257.053 711.197 257.187 711.197 257.336H704.877C704.909 257.944 705.048 258.451 705.293 258.856C705.549 259.251 705.864 259.549 706.237 259.752C706.621 259.955 707.027 260.056 707.453 260.056C708.008 260.056 708.472 259.928 708.845 259.672C709.219 259.416 709.491 259.069 709.661 258.632H710.989C710.776 259.368 710.365 259.981 709.757 260.472C709.16 260.952 708.392 261.192 707.453 261.192ZM707.453 254.008C706.813 254.008 706.243 254.205 705.741 254.6C705.251 254.984 704.968 255.549 704.893 256.296H709.885C709.853 255.581 709.608 255.021 709.149 254.616C708.691 254.211 708.125 254.008 707.453 254.008Z" fill="#3F4636"/>
<path d="M709.387 219.69L699.481 220.936C698.182 221.101 697.171 222.819 696.486 223.903L690.69 234.39C688.915 237.752 684.771 237.55 683.179 235.57L679.617 227.069C678.819 226.076 677.441 225.691 676.207 226.119L665.103 227.772C662.646 228.621 660.303 226.281 661.302 223.974L665.537 215.461C666.038 214.306 665.699 212.97 664.694 212.164L658.124 207.04C656.126 205.432 656.884 203.021 659.667 201.995L667.376 198.71C668.476 198.349 670.142 196.641 670.634 195.443L673.964 185.855C674.969 181.562 681.132 180.462 683.21 184.575L686.58 192.165C687.259 193.757 688.31 193.586 689.99 193.115L701.568 189.106C704.024 188.257 706.368 190.597 705.369 192.904L700.66 203.773C700.159 204.928 700.498 206.263 701.503 207.07L710.927 214.645C712.925 216.252 711.975 219.363 709.384 219.69H709.387Z" fill="#5C5C6D"/>
<path d="M675.892 212.833C675.745 212.833 675.599 212.79 675.467 212.705C675.116 212.469 675.021 211.996 675.256 211.644C677.05 208.965 679.788 207.528 682.968 207.62C686.314 207.712 689.296 209.42 690.247 211.021C690.464 211.385 690.341 211.852 689.981 212.069C689.617 212.286 689.15 212.167 688.933 211.803C688.303 210.743 685.865 209.23 682.926 209.148C681.059 209.096 678.437 209.637 676.524 212.494C676.378 212.714 676.136 212.833 675.889 212.833H675.892Z" fill="white"/>
<path d="M676.995 205.854C677.679 205.854 678.233 205.025 678.233 204.002C678.233 202.98 677.679 202.151 676.995 202.151C676.312 202.151 675.758 202.98 675.758 204.002C675.758 205.025 676.312 205.854 676.995 205.854Z" fill="white"/>
<path d="M686.171 204.962C686.855 204.962 687.409 204.133 687.409 203.11C687.409 202.087 686.855 201.258 686.171 201.258C685.488 201.258 684.934 202.087 684.934 203.11C684.934 204.133 685.488 204.962 686.171 204.962Z" fill="white"/>
<path d="M690.543 206.306C690.543 206.755 690.134 207.122 689.627 207.122C689.119 207.122 688.71 206.758 688.71 206.306C688.591 205.842 688.056 204.962 688.563 204.962C689.071 204.962 690.543 205.854 690.543 206.306Z" fill="white"/>
<path d="M673.961 199.981C673.655 199.981 673.487 199.957 673.466 199.95C673.215 199.911 673.047 199.672 673.087 199.425C673.127 199.174 673.365 199.006 673.612 199.046C673.628 199.046 675.195 199.266 678.174 198.047C678.41 197.952 678.675 198.065 678.773 198.297C678.868 198.533 678.758 198.799 678.523 198.896C676.228 199.834 674.691 199.981 673.958 199.981H673.961Z" fill="white"/>
<path d="M688.068 199.37C688.374 199.37 688.542 199.345 688.563 199.339C688.814 199.3 688.982 199.061 688.942 198.814C688.902 198.563 688.664 198.395 688.416 198.435C688.401 198.435 686.834 198.655 683.854 197.436C683.619 197.341 683.353 197.454 683.256 197.686C683.161 197.922 683.271 198.187 683.506 198.285C685.801 199.223 687.338 199.37 688.071 199.37H688.068Z" fill="white"/>
<path d="M461.467 261.192C460.369 261.192 459.403 260.952 458.571 260.472C457.75 259.981 457.105 259.299 456.635 258.424C456.177 257.549 455.947 256.541 455.947 255.4C455.947 254.259 456.177 253.256 456.635 252.392C457.105 251.517 457.75 250.835 458.571 250.344C459.403 249.853 460.369 249.608 461.467 249.608C462.577 249.608 463.542 249.853 464.363 250.344C465.195 250.835 465.841 251.517 466.299 252.392C466.758 253.256 466.987 254.259 466.987 255.4C466.987 256.541 466.758 257.549 466.299 258.424C465.841 259.299 465.195 259.981 464.363 260.472C463.542 260.952 462.577 261.192 461.467 261.192ZM461.467 260.008C462.289 260.008 463.009 259.827 463.627 259.464C464.257 259.091 464.742 258.563 465.083 257.88C465.435 257.187 465.611 256.36 465.611 255.4C465.611 254.44 465.435 253.619 465.083 252.936C464.742 252.253 464.257 251.731 463.627 251.368C463.009 250.995 462.289 250.808 461.467 250.808C460.646 250.808 459.921 250.995 459.291 251.368C458.673 251.731 458.187 252.253 457.835 252.936C457.494 253.619 457.323 254.44 457.323 255.4C457.323 256.36 457.494 257.187 457.835 257.88C458.187 258.563 458.673 259.091 459.291 259.464C459.921 259.827 460.646 260.008 461.467 260.008ZM468.846 261V249.48H470.19V256.408L473.438 253.064H475.086L471.566 256.648L475.534 261H473.822L470.19 256.888V261H468.846Z" fill="#3F4636"/>
<path d="M466.003 238H463.329C450.643 238 442.543 230.236 440.453 219.306L437 198.748C437 191.788 442.491 186.917 452.604 186.092L477.009 183.131C483.914 182.129 493.542 186.954 491.791 194.889L487.278 219.199C484.161 229.264 478.662 238 466.006 238H466.003Z" fill="#567751"/>
<path d="M457.899 206.03C457.517 206.03 457.19 205.745 457.142 205.357C457.09 204.939 457.389 204.557 457.808 204.505L471.007 202.891C471.432 202.84 471.808 203.139 471.86 203.558C471.912 203.976 471.612 204.358 471.194 204.41L457.994 206.023C457.964 206.026 457.93 206.03 457.899 206.03Z" fill="white"/>
<path d="M459.168 199.014C459.851 199.014 460.405 198.185 460.405 197.162C460.405 196.14 459.851 195.311 459.168 195.311C458.484 195.311 457.93 196.14 457.93 197.162C457.93 198.185 458.484 199.014 459.168 199.014Z" fill="white"/>
<path d="M468.359 197.859C469.042 197.859 469.596 197.03 469.596 196.007C469.596 194.985 469.042 194.156 468.359 194.156C467.675 194.156 467.121 194.985 467.121 196.007C467.121 197.03 467.675 197.859 468.359 197.859Z" fill="white"/>
<path d="M232.32 260.192C231.275 260.192 230.358 259.952 229.568 259.472C228.779 258.981 228.166 258.304 227.728 257.44C227.291 256.565 227.072 255.557 227.072 254.416C227.072 253.275 227.291 252.267 227.728 251.392C228.176 250.517 228.806 249.835 229.616 249.344C230.438 248.853 231.403 248.608 232.512 248.608C233.771 248.608 234.816 248.912 235.648 249.52C236.491 250.128 237.035 250.965 237.28 252.032H235.728C235.579 251.36 235.222 250.827 234.656 250.432C234.102 250.037 233.387 249.84 232.512 249.84C231.691 249.84 230.976 250.027 230.368 250.4C229.76 250.763 229.286 251.285 228.944 251.968C228.614 252.651 228.448 253.467 228.448 254.416C228.448 255.365 228.614 256.181 228.944 256.864C229.275 257.547 229.734 258.075 230.32 258.448C230.907 258.811 231.59 258.992 232.368 258.992C233.563 258.992 234.464 258.645 235.072 257.952C235.68 257.248 236.027 256.288 236.112 255.072H232.88V254.016H237.488V260H236.256L236.144 258.16C235.739 258.811 235.243 259.312 234.656 259.664C234.07 260.016 233.291 260.192 232.32 260.192ZM239.534 260V252.064H240.75L240.862 253.584C241.107 253.061 241.48 252.645 241.982 252.336C242.483 252.027 243.102 251.872 243.838 251.872V253.28H243.47C243 253.28 242.568 253.365 242.174 253.536C241.779 253.696 241.464 253.973 241.23 254.368C240.995 254.763 240.878 255.307 240.878 256V260H239.534ZM248.617 260.192C247.86 260.192 247.188 260.021 246.601 259.68C246.015 259.328 245.551 258.843 245.209 258.224C244.879 257.605 244.713 256.875 244.713 256.032C244.713 255.2 244.879 254.475 245.209 253.856C245.54 253.227 245.999 252.741 246.585 252.4C247.183 252.048 247.871 251.872 248.649 251.872C249.417 251.872 250.079 252.048 250.633 252.4C251.199 252.741 251.631 253.195 251.929 253.76C252.228 254.325 252.377 254.933 252.377 255.584C252.377 255.701 252.372 255.819 252.361 255.936C252.361 256.053 252.361 256.187 252.361 256.336H246.041C246.073 256.944 246.212 257.451 246.457 257.856C246.713 258.251 247.028 258.549 247.401 258.752C247.785 258.955 248.191 259.056 248.617 259.056C249.172 259.056 249.636 258.928 250.009 258.672C250.383 258.416 250.655 258.069 250.825 257.632H252.153C251.94 258.368 251.529 258.981 250.921 259.472C250.324 259.952 249.556 260.192 248.617 260.192ZM248.617 253.008C247.977 253.008 247.407 253.205 246.905 253.6C246.415 253.984 246.132 254.549 246.057 255.296H251.049C251.017 254.581 250.772 254.021 250.313 253.616C249.855 253.211 249.289 253.008 248.617 253.008ZM256.799 260.192C256.137 260.192 255.588 260.08 255.151 259.856C254.713 259.632 254.388 259.333 254.175 258.96C253.961 258.587 253.855 258.181 253.855 257.744C253.855 256.933 254.164 256.309 254.783 255.872C255.401 255.435 256.244 255.216 257.311 255.216H259.455V255.12C259.455 254.427 259.273 253.904 258.911 253.552C258.548 253.189 258.063 253.008 257.455 253.008C256.932 253.008 256.479 253.141 256.095 253.408C255.721 253.664 255.487 254.043 255.391 254.544H254.015C254.068 253.968 254.26 253.483 254.591 253.088C254.932 252.693 255.353 252.395 255.855 252.192C256.356 251.979 256.889 251.872 257.455 251.872C258.564 251.872 259.396 252.171 259.951 252.768C260.516 253.355 260.799 254.139 260.799 255.12V260H259.599L259.519 258.576C259.295 259.024 258.964 259.408 258.527 259.728C258.1 260.037 257.524 260.192 256.799 260.192ZM257.007 259.056C257.519 259.056 257.956 258.923 258.319 258.656C258.692 258.389 258.975 258.043 259.167 257.616C259.359 257.189 259.455 256.741 259.455 256.272V256.256H257.423C256.633 256.256 256.073 256.395 255.743 256.672C255.423 256.939 255.263 257.275 255.263 257.68C255.263 258.096 255.412 258.432 255.711 258.688C256.02 258.933 256.452 259.056 257.007 259.056ZM265.732 260C265.007 260 264.436 259.824 264.02 259.472C263.604 259.12 263.396 258.485 263.396 257.568V253.2H262.02V252.064H263.396L263.572 250.16H264.74V252.064H267.076V253.2H264.74V257.568C264.74 258.069 264.842 258.411 265.044 258.592C265.247 258.763 265.604 258.848 266.116 258.848H266.948V260H265.732Z" fill="#3F4636"/>
<path d="M223.412 212.344C224.931 210.889 225.762 208.86 225.759 206.733C225.759 206.721 225.759 206.709 225.759 206.697C225.759 192.858 236.875 181.68 250.46 182.007C263.256 182.316 273.691 193.001 273.993 206.101C274.314 220.013 263.394 231.396 249.879 231.392C249.861 231.392 249.842 231.392 249.824 231.392C246.714 231.386 243.673 232.337 241.168 234.228C238.681 236.107 235.558 237.155 232.194 236.981C224.962 236.605 219.159 230.473 219.003 223.063C218.915 218.831 220.629 215.011 223.412 212.344Z" fill="#FF9E88"/>
<path d="M257.753 203.189C255.193 203.189 253.081 202.599 251.48 201.896C247.936 200.341 246.078 197.958 246.002 197.857C245.745 197.521 245.806 197.041 246.142 196.784C246.478 196.527 246.958 196.592 247.215 196.925C247.49 197.279 254.117 205.581 266.397 199.409C266.776 199.22 267.234 199.372 267.424 199.748C267.613 200.124 267.46 200.585 267.085 200.775C263.531 202.559 260.402 203.192 257.756 203.192L257.753 203.189Z" fill="white"/>
<path d="M251.648 195.938C251.425 195.938 251.205 195.843 251.056 195.657C250.79 195.33 250.839 194.85 251.166 194.581L252.192 193.744L251.279 192.665C251.007 192.344 251.046 191.861 251.367 191.59C251.688 191.318 252.171 191.357 252.443 191.678L253.518 192.949C253.741 193.215 253.848 193.548 253.818 193.897C253.787 194.245 253.619 194.554 253.35 194.774L252.128 195.77C251.987 195.886 251.816 195.941 251.645 195.941L251.648 195.938Z" fill="white"/>
<path d="M261.407 196.827C261.19 196.827 260.973 196.735 260.824 196.558L259.721 195.253C259.495 194.984 259.388 194.645 259.418 194.297C259.452 193.948 259.617 193.634 259.889 193.411L261.145 192.387C261.471 192.121 261.954 192.17 262.22 192.497C262.486 192.824 262.437 193.304 262.11 193.573L261.038 194.447L261.991 195.571C262.263 195.892 262.223 196.375 261.902 196.647C261.759 196.769 261.585 196.827 261.41 196.827H261.407Z" fill="white"/>
<rect x="207" y="291" width="79" height="79" fill="#FF9E88"/>
<path d="M225.176 394L226.608 385.273H227.46L226.028 394H225.176ZM221.205 391.58L221.341 390.727H227.852L227.716 391.58H221.205ZM222.108 394L223.54 385.273H224.392L222.96 394H222.108ZM221.716 388.545L221.852 387.693H228.364L228.227 388.545H221.716ZM229.627 394V385.273H234.86V386.21H230.684V389.159H234.468V390.097H230.684V394H229.627ZM236.67 394V385.273H241.903V386.21H237.727V389.159H241.511V390.097H237.727V394H236.67ZM246.338 385.153C246.696 385.156 247.054 385.224 247.412 385.358C247.77 385.491 248.097 385.713 248.392 386.023C248.688 386.33 248.925 386.749 249.104 387.28C249.283 387.811 249.372 388.477 249.372 389.278C249.372 390.054 249.298 390.743 249.151 391.345C249.006 391.945 248.795 392.45 248.52 392.862C248.247 393.274 247.915 393.587 247.523 393.8C247.134 394.013 246.693 394.119 246.202 394.119C245.713 394.119 245.277 394.023 244.893 393.83C244.513 393.634 244.2 393.362 243.956 393.016C243.714 392.666 243.56 392.261 243.491 391.801H244.531C244.625 392.202 244.811 392.533 245.089 392.794C245.371 393.053 245.741 393.182 246.202 393.182C246.875 393.182 247.406 392.888 247.795 392.3C248.188 391.712 248.384 390.881 248.384 389.807H248.315C248.156 390.045 247.967 390.251 247.749 390.425C247.53 390.598 247.287 390.732 247.02 390.825C246.753 390.919 246.469 390.966 246.168 390.966C245.668 390.966 245.209 390.842 244.791 390.595C244.376 390.345 244.044 390.003 243.794 389.568C243.547 389.131 243.423 388.631 243.423 388.068C243.423 387.534 243.543 387.045 243.781 386.602C244.023 386.156 244.361 385.801 244.795 385.537C245.233 385.273 245.747 385.145 246.338 385.153ZM246.338 386.091C245.98 386.091 245.658 386.18 245.371 386.359C245.087 386.536 244.861 386.774 244.693 387.075C244.528 387.374 244.446 387.705 244.446 388.068C244.446 388.432 244.526 388.763 244.685 389.061C244.847 389.357 245.067 389.592 245.345 389.768C245.626 389.942 245.946 390.028 246.304 390.028C246.574 390.028 246.825 389.976 247.058 389.871C247.291 389.763 247.494 389.616 247.668 389.432C247.844 389.244 247.982 389.033 248.081 388.797C248.18 388.558 248.23 388.31 248.23 388.051C248.23 387.71 248.148 387.391 247.983 387.092C247.821 386.794 247.597 386.553 247.31 386.368C247.026 386.183 246.702 386.091 246.338 386.091ZM251.201 394V385.273H256.468V386.21H252.258V389.159H256.196V390.097H252.258V393.062H256.537V394H251.201ZM261.015 394.119C260.43 394.119 259.913 394.016 259.464 393.808C259.018 393.598 258.67 393.31 258.42 392.943C258.17 392.574 258.047 392.153 258.049 391.682C258.047 391.312 258.119 390.972 258.267 390.659C258.414 390.344 258.616 390.081 258.872 389.871C259.13 389.658 259.419 389.523 259.737 389.466V389.415C259.319 389.307 258.987 389.072 258.74 388.712C258.493 388.348 258.37 387.935 258.373 387.472C258.37 387.028 258.483 386.632 258.71 386.283C258.937 385.933 259.25 385.658 259.647 385.456C260.048 385.254 260.504 385.153 261.015 385.153C261.521 385.153 261.973 385.254 262.37 385.456C262.768 385.658 263.081 385.933 263.308 386.283C263.538 386.632 263.654 387.028 263.657 387.472C263.654 387.935 263.528 388.348 263.278 388.712C263.031 389.072 262.703 389.307 262.294 389.415V389.466C262.609 389.523 262.893 389.658 263.146 389.871C263.399 390.081 263.6 390.344 263.751 390.659C263.902 390.972 263.978 391.312 263.981 391.682C263.978 392.153 263.85 392.574 263.598 392.943C263.348 393.31 263 393.598 262.554 393.808C262.11 394.016 261.598 394.119 261.015 394.119ZM261.015 393.182C261.41 393.182 261.751 393.118 262.038 392.99C262.325 392.862 262.547 392.682 262.703 392.449C262.859 392.216 262.939 391.943 262.941 391.631C262.939 391.301 262.853 391.01 262.686 390.757C262.518 390.504 262.289 390.305 262 390.161C261.713 390.016 261.385 389.943 261.015 389.943C260.643 389.943 260.311 390.016 260.018 390.161C259.728 390.305 259.5 390.504 259.332 390.757C259.167 391.01 259.086 391.301 259.089 391.631C259.086 391.943 259.162 392.216 259.315 392.449C259.471 392.682 259.694 392.862 259.984 392.99C260.274 393.118 260.618 393.182 261.015 393.182ZM261.015 389.04C261.328 389.04 261.605 388.977 261.846 388.852C262.091 388.727 262.282 388.553 262.422 388.328C262.561 388.104 262.632 387.841 262.635 387.54C262.632 387.244 262.562 386.987 262.426 386.768C262.289 386.547 262.1 386.376 261.859 386.257C261.618 386.135 261.336 386.074 261.015 386.074C260.689 386.074 260.403 386.135 260.159 386.257C259.914 386.376 259.725 386.547 259.592 386.768C259.458 386.987 259.393 387.244 259.396 387.54C259.393 387.841 259.46 388.104 259.596 388.328C259.735 388.553 259.927 388.727 260.172 388.852C260.416 388.977 260.697 389.04 261.015 389.04ZM268.41 394.119C267.825 394.119 267.308 394.016 266.859 393.808C266.413 393.598 266.065 393.31 265.815 392.943C265.565 392.574 265.441 392.153 265.444 391.682C265.441 391.312 265.513 390.972 265.661 390.659C265.809 390.344 266.011 390.081 266.266 389.871C266.525 389.658 266.813 389.523 267.131 389.466V389.415C266.714 389.307 266.381 389.072 266.134 388.712C265.887 388.348 265.765 387.935 265.768 387.472C265.765 387.028 265.877 386.632 266.104 386.283C266.332 385.933 266.644 385.658 267.042 385.456C267.442 385.254 267.898 385.153 268.41 385.153C268.915 385.153 269.367 385.254 269.765 385.456C270.163 385.658 270.475 385.933 270.702 386.283C270.933 386.632 271.049 387.028 271.052 387.472C271.049 387.935 270.923 388.348 270.673 388.712C270.425 389.072 270.097 389.307 269.688 389.415V389.466C270.004 389.523 270.288 389.658 270.54 389.871C270.793 390.081 270.995 390.344 271.146 390.659C271.296 390.972 271.373 391.312 271.376 391.682C271.373 392.153 271.245 392.574 270.992 392.943C270.742 393.31 270.394 393.598 269.948 393.808C269.505 394.016 268.992 394.119 268.41 394.119ZM268.41 393.182C268.805 393.182 269.146 393.118 269.433 392.99C269.719 392.862 269.941 392.682 270.097 392.449C270.254 392.216 270.333 391.943 270.336 391.631C270.333 391.301 270.248 391.01 270.08 390.757C269.913 390.504 269.684 390.305 269.394 390.161C269.107 390.016 268.779 389.943 268.41 389.943C268.038 389.943 267.705 390.016 267.413 390.161C267.123 390.305 266.894 390.504 266.727 390.757C266.562 391.01 266.481 391.301 266.484 391.631C266.481 391.943 266.556 392.216 266.71 392.449C266.866 392.682 267.089 392.862 267.379 392.99C267.668 393.118 268.012 393.182 268.41 393.182ZM268.41 389.04C268.722 389.04 268.999 388.977 269.241 388.852C269.485 388.727 269.677 388.553 269.816 388.328C269.955 388.104 270.026 387.841 270.029 387.54C270.026 387.244 269.957 386.987 269.82 386.768C269.684 386.547 269.495 386.376 269.254 386.257C269.012 386.135 268.731 386.074 268.41 386.074C268.083 386.074 267.798 386.135 267.553 386.257C267.309 386.376 267.12 386.547 266.987 386.768C266.853 386.987 266.788 387.244 266.79 387.54C266.788 387.841 266.854 388.104 266.991 388.328C267.13 388.553 267.322 388.727 267.566 388.852C267.81 388.977 268.092 389.04 268.41 389.04Z" fill="black"/>
<rect x="316" y="291" width="79" height="79" fill="#F78B98"/>
<path d="M334.176 394L335.608 385.273H336.46L335.028 394H334.176ZM330.205 391.58L330.341 390.727H336.852L336.716 391.58H330.205ZM331.108 394L332.54 385.273H333.392L331.96 394H331.108ZM330.716 388.545L330.852 387.693H337.364L337.227 388.545H330.716ZM338.627 394V385.273H343.86V386.21H339.684V389.159H343.468V390.097H339.684V394H338.627ZM345.789 394L349.693 386.278V386.21H345.193V385.273H350.784V386.261L346.897 394H345.789ZM354.992 394.119C354.407 394.119 353.89 394.016 353.441 393.808C352.995 393.598 352.647 393.31 352.397 392.943C352.147 392.574 352.023 392.153 352.026 391.682C352.023 391.312 352.096 390.972 352.243 390.659C352.391 390.344 352.593 390.081 352.848 389.871C353.107 389.658 353.395 389.523 353.713 389.466V389.415C353.296 389.307 352.963 389.072 352.716 388.712C352.469 388.348 352.347 387.935 352.35 387.472C352.347 387.028 352.459 386.632 352.686 386.283C352.914 385.933 353.226 385.658 353.624 385.456C354.025 385.254 354.48 385.153 354.992 385.153C355.498 385.153 355.949 385.254 356.347 385.456C356.745 385.658 357.057 385.933 357.284 386.283C357.515 386.632 357.631 387.028 357.634 387.472C357.631 387.935 357.505 388.348 357.255 388.712C357.007 389.072 356.679 389.307 356.27 389.415V389.466C356.586 389.523 356.87 389.658 357.123 389.871C357.375 390.081 357.577 390.344 357.728 390.659C357.878 390.972 357.955 391.312 357.958 391.682C357.955 392.153 357.827 392.574 357.574 392.943C357.324 393.31 356.976 393.598 356.53 393.808C356.087 394.016 355.574 394.119 354.992 394.119ZM354.992 393.182C355.387 393.182 355.728 393.118 356.015 392.99C356.301 392.862 356.523 392.682 356.679 392.449C356.836 392.216 356.915 391.943 356.918 391.631C356.915 391.301 356.83 391.01 356.662 390.757C356.495 390.504 356.266 390.305 355.976 390.161C355.689 390.016 355.361 389.943 354.992 389.943C354.62 389.943 354.287 390.016 353.995 390.161C353.705 390.305 353.476 390.504 353.309 390.757C353.144 391.01 353.063 391.301 353.066 391.631C353.063 391.943 353.138 392.216 353.292 392.449C353.448 392.682 353.671 392.862 353.961 392.99C354.25 393.118 354.594 393.182 354.992 393.182ZM354.992 389.04C355.304 389.04 355.581 388.977 355.823 388.852C356.067 388.727 356.259 388.553 356.398 388.328C356.537 388.104 356.608 387.841 356.611 387.54C356.608 387.244 356.539 386.987 356.402 386.768C356.266 386.547 356.077 386.376 355.836 386.257C355.594 386.135 355.313 386.074 354.992 386.074C354.665 386.074 354.38 386.135 354.135 386.257C353.891 386.376 353.702 386.547 353.569 386.768C353.435 386.987 353.37 387.244 353.373 387.54C353.37 387.841 353.436 388.104 353.573 388.328C353.712 388.553 353.904 388.727 354.148 388.852C354.392 388.977 354.674 389.04 354.992 389.04ZM359.744 394V385.273H362.795C363.403 385.273 363.905 385.378 364.3 385.588C364.695 385.795 364.989 386.075 365.182 386.428C365.375 386.777 365.472 387.165 365.472 387.591C365.472 387.966 365.405 388.276 365.271 388.52C365.141 388.764 364.967 388.957 364.751 389.099C364.538 389.241 364.307 389.347 364.057 389.415V389.5C364.324 389.517 364.592 389.611 364.862 389.781C365.132 389.952 365.358 390.196 365.54 390.514C365.722 390.832 365.812 391.222 365.812 391.682C365.812 392.119 365.713 392.513 365.514 392.862C365.315 393.212 365.001 393.489 364.572 393.693C364.143 393.898 363.585 394 362.898 394H359.744ZM360.801 393.062H362.898C363.588 393.062 364.078 392.929 364.368 392.662C364.661 392.392 364.807 392.065 364.807 391.682C364.807 391.386 364.732 391.114 364.581 390.864C364.43 390.611 364.216 390.409 363.938 390.259C363.659 390.105 363.33 390.028 362.949 390.028H360.801V393.062ZM360.801 389.108H362.761C363.08 389.108 363.366 389.045 363.622 388.92C363.881 388.795 364.085 388.619 364.236 388.392C364.389 388.165 364.466 387.898 364.466 387.591C364.466 387.207 364.332 386.882 364.065 386.615C363.798 386.345 363.375 386.21 362.795 386.21H360.801V389.108ZM370.174 385.153C370.532 385.156 370.89 385.224 371.248 385.358C371.606 385.491 371.933 385.713 372.228 386.023C372.523 386.33 372.761 386.749 372.94 387.28C373.119 387.811 373.208 388.477 373.208 389.278C373.208 390.054 373.134 390.743 372.987 391.345C372.842 391.945 372.631 392.45 372.356 392.862C372.083 393.274 371.751 393.587 371.359 393.8C370.969 394.013 370.529 394.119 370.038 394.119C369.549 394.119 369.113 394.023 368.729 393.83C368.349 393.634 368.036 393.362 367.792 393.016C367.55 392.666 367.396 392.261 367.327 391.801H368.367C368.461 392.202 368.647 392.533 368.925 392.794C369.207 393.053 369.577 393.182 370.038 393.182C370.711 393.182 371.242 392.888 371.631 392.3C372.023 391.712 372.219 390.881 372.219 389.807H372.151C371.992 390.045 371.803 390.251 371.585 390.425C371.366 390.598 371.123 390.732 370.856 390.825C370.589 390.919 370.305 390.966 370.004 390.966C369.504 390.966 369.045 390.842 368.627 390.595C368.212 390.345 367.88 390.003 367.63 389.568C367.383 389.131 367.259 388.631 367.259 388.068C367.259 387.534 367.379 387.045 367.617 386.602C367.859 386.156 368.197 385.801 368.631 385.537C369.069 385.273 369.583 385.145 370.174 385.153ZM370.174 386.091C369.816 386.091 369.494 386.18 369.207 386.359C368.923 386.536 368.697 386.774 368.529 387.075C368.364 387.374 368.282 387.705 368.282 388.068C368.282 388.432 368.362 388.763 368.521 389.061C368.683 389.357 368.903 389.592 369.181 389.768C369.462 389.942 369.782 390.028 370.14 390.028C370.41 390.028 370.661 389.976 370.894 389.871C371.127 389.763 371.33 389.616 371.504 389.432C371.68 389.244 371.817 389.033 371.917 388.797C372.016 388.558 372.066 388.31 372.066 388.051C372.066 387.71 371.984 387.391 371.819 387.092C371.657 386.794 371.433 386.553 371.146 386.368C370.862 386.183 370.538 386.091 370.174 386.091ZM377.679 394.119C377.094 394.119 376.577 394.016 376.128 393.808C375.682 393.598 375.334 393.31 375.084 392.943C374.834 392.574 374.711 392.153 374.713 391.682C374.711 391.312 374.783 390.972 374.931 390.659C375.078 390.344 375.28 390.081 375.536 389.871C375.794 389.658 376.083 389.523 376.401 389.466V389.415C375.983 389.307 375.651 389.072 375.404 388.712C375.157 388.348 375.034 387.935 375.037 387.472C375.034 387.028 375.147 386.632 375.374 386.283C375.601 385.933 375.914 385.658 376.311 385.456C376.712 385.254 377.168 385.153 377.679 385.153C378.185 385.153 378.637 385.254 379.034 385.456C379.432 385.658 379.745 385.933 379.972 386.283C380.202 386.632 380.319 387.028 380.321 387.472C380.319 387.935 380.192 388.348 379.942 388.712C379.695 389.072 379.367 389.307 378.958 389.415V389.466C379.273 389.523 379.557 389.658 379.81 389.871C380.063 390.081 380.265 390.344 380.415 390.659C380.566 390.972 380.642 391.312 380.645 391.682C380.642 392.153 380.515 392.574 380.262 392.943C380.012 393.31 379.664 393.598 379.218 393.808C378.775 394.016 378.262 394.119 377.679 394.119ZM377.679 393.182C378.074 393.182 378.415 393.118 378.702 392.99C378.989 392.862 379.211 392.682 379.367 392.449C379.523 392.216 379.603 391.943 379.605 391.631C379.603 391.301 379.517 391.01 379.35 390.757C379.182 390.504 378.953 390.305 378.664 390.161C378.377 390.016 378.049 389.943 377.679 389.943C377.307 389.943 376.975 390.016 376.682 390.161C376.392 390.305 376.164 390.504 375.996 390.757C375.831 391.01 375.75 391.301 375.753 391.631C375.75 391.943 375.826 392.216 375.979 392.449C376.135 392.682 376.358 392.862 376.648 392.99C376.938 393.118 377.282 393.182 377.679 393.182ZM377.679 389.04C377.992 389.04 378.269 388.977 378.51 388.852C378.755 388.727 378.946 388.553 379.086 388.328C379.225 388.104 379.296 387.841 379.299 387.54C379.296 387.244 379.226 386.987 379.09 386.768C378.953 386.547 378.765 386.376 378.523 386.257C378.282 386.135 378 386.074 377.679 386.074C377.353 386.074 377.067 386.135 376.823 386.257C376.578 386.376 376.39 386.547 376.256 386.768C376.123 386.987 376.057 387.244 376.06 387.54C376.057 387.841 376.124 388.104 376.26 388.328C376.4 388.553 376.591 388.727 376.836 388.852C377.08 388.977 377.361 389.04 377.679 389.04Z" fill="black"/>
<rect x="425" y="291" width="79" height="79" fill="#567751"/>
<path d="M444.176 394L445.608 385.273H446.46L445.028 394H444.176ZM440.205 391.58L440.341 390.727H446.852L446.716 391.58H440.205ZM441.108 394L442.54 385.273H443.392L441.96 394H441.108ZM440.716 388.545L440.852 387.693H447.364L447.227 388.545H440.716ZM451.201 394.119C450.701 394.119 450.251 394.02 449.85 393.821C449.45 393.622 449.129 393.349 448.887 393.003C448.646 392.656 448.513 392.261 448.491 391.818H449.513C449.553 392.213 449.732 392.54 450.05 392.798C450.371 393.054 450.755 393.182 451.201 393.182C451.559 393.182 451.877 393.098 452.156 392.93C452.437 392.763 452.657 392.533 452.816 392.24C452.978 391.945 453.059 391.611 453.059 391.239C453.059 390.858 452.975 390.518 452.808 390.22C452.643 389.919 452.415 389.682 452.126 389.509C451.836 389.335 451.505 389.247 451.133 389.244C450.866 389.241 450.592 389.283 450.31 389.368C450.029 389.45 449.798 389.557 449.616 389.688L448.627 389.568L449.156 385.273H453.69V386.21H450.042L449.735 388.784H449.786C449.965 388.642 450.19 388.524 450.46 388.43C450.729 388.337 451.011 388.29 451.303 388.29C451.837 388.29 452.313 388.418 452.731 388.673C453.151 388.926 453.481 389.273 453.719 389.713C453.961 390.153 454.082 390.656 454.082 391.222C454.082 391.778 453.957 392.276 453.707 392.713C453.46 393.148 453.119 393.491 452.684 393.744C452.249 393.994 451.755 394.119 451.201 394.119ZM458.672 394.119C458.314 394.114 457.956 394.045 457.598 393.915C457.24 393.784 456.914 393.564 456.618 393.254C456.323 392.942 456.086 392.52 455.907 391.989C455.728 391.455 455.638 390.784 455.638 389.977C455.638 389.205 455.711 388.52 455.855 387.923C456 387.324 456.211 386.82 456.486 386.411C456.762 385.999 457.094 385.686 457.483 385.473C457.875 385.26 458.317 385.153 458.809 385.153C459.297 385.153 459.732 385.251 460.113 385.447C460.496 385.641 460.809 385.911 461.05 386.257C461.292 386.604 461.448 387.003 461.519 387.455H460.479C460.382 387.062 460.195 386.737 459.917 386.479C459.638 386.22 459.269 386.091 458.809 386.091C458.132 386.091 457.6 386.385 457.211 386.973C456.824 387.561 456.63 388.386 456.627 389.449H456.695C456.854 389.207 457.043 389.001 457.262 388.831C457.483 388.658 457.728 388.524 457.995 388.43C458.262 388.337 458.544 388.29 458.843 388.29C459.343 388.29 459.8 388.415 460.215 388.665C460.63 388.912 460.962 389.254 461.212 389.692C461.462 390.126 461.587 390.625 461.587 391.188C461.587 391.727 461.466 392.222 461.225 392.67C460.983 393.116 460.644 393.472 460.206 393.736C459.772 393.997 459.26 394.125 458.672 394.119ZM458.672 393.182C459.03 393.182 459.351 393.092 459.635 392.913C459.922 392.734 460.148 392.494 460.313 392.193C460.48 391.892 460.564 391.557 460.564 391.188C460.564 390.827 460.483 390.499 460.321 390.203C460.162 389.905 459.942 389.668 459.661 389.491C459.382 389.315 459.064 389.227 458.706 389.227C458.436 389.227 458.185 389.281 457.952 389.389C457.719 389.494 457.515 389.639 457.338 389.824C457.165 390.009 457.029 390.22 456.929 390.459C456.83 390.695 456.78 390.943 456.78 391.205C456.78 391.551 456.861 391.875 457.023 392.176C457.188 392.477 457.412 392.72 457.696 392.905C457.983 393.089 458.309 393.182 458.672 393.182ZM463.536 394L467.439 386.278V386.21H462.939V385.273H468.53V386.261L464.643 394H463.536ZM470.625 394L474.529 386.278V386.21H470.029V385.273H475.62V386.261L471.733 394H470.625ZM479.818 394.119C479.318 394.119 478.868 394.02 478.467 393.821C478.067 393.622 477.746 393.349 477.504 393.003C477.263 392.656 477.131 392.261 477.108 391.818H478.131C478.17 392.213 478.349 392.54 478.668 392.798C478.989 393.054 479.372 393.182 479.818 393.182C480.176 393.182 480.494 393.098 480.773 392.93C481.054 392.763 481.274 392.533 481.433 392.24C481.595 391.945 481.676 391.611 481.676 391.239C481.676 390.858 481.592 390.518 481.425 390.22C481.26 389.919 481.033 389.682 480.743 389.509C480.453 389.335 480.122 389.247 479.75 389.244C479.483 389.241 479.209 389.283 478.928 389.368C478.646 389.45 478.415 389.557 478.233 389.688L477.244 389.568L477.773 385.273H482.307V386.21H478.659L478.352 388.784H478.403C478.582 388.642 478.807 388.524 479.077 388.43C479.347 388.337 479.628 388.29 479.92 388.29C480.455 388.29 480.93 388.418 481.348 388.673C481.768 388.926 482.098 389.273 482.337 389.713C482.578 390.153 482.699 390.656 482.699 391.222C482.699 391.778 482.574 392.276 482.324 392.713C482.077 393.148 481.736 393.491 481.301 393.744C480.866 393.994 480.372 394.119 479.818 394.119ZM487.46 385.273V394H486.403V386.381H486.352L484.221 387.795V386.722L486.403 385.273H487.46Z" fill="black"/>
<rect x="534" y="291" width="79" height="79" fill="#79ADDC"/>
<path d="M550.176 394L551.608 385.273H552.46L551.028 394H550.176ZM546.205 391.58L546.341 390.727H552.852L552.716 391.58H546.205ZM547.108 394L548.54 385.273H549.392L547.96 394H547.108ZM546.716 388.545L546.852 387.693H553.364L553.227 388.545H546.716ZM554.746 394L558.65 386.278V386.21H554.15V385.273H559.741V386.261L555.854 394H554.746ZM563.99 385.153C564.348 385.156 564.706 385.224 565.064 385.358C565.422 385.491 565.749 385.713 566.044 386.023C566.34 386.33 566.577 386.749 566.756 387.28C566.935 387.811 567.025 388.477 567.025 389.278C567.025 390.054 566.951 390.743 566.803 391.345C566.658 391.945 566.448 392.45 566.172 392.862C565.9 393.274 565.567 393.587 565.175 393.8C564.786 394.013 564.346 394.119 563.854 394.119C563.365 394.119 562.929 394.023 562.546 393.83C562.165 393.634 561.853 393.362 561.608 393.016C561.367 392.666 561.212 392.261 561.144 391.801H562.184C562.277 392.202 562.463 392.533 562.742 392.794C563.023 393.053 563.394 393.182 563.854 393.182C564.527 393.182 565.059 392.888 565.448 392.3C565.84 391.712 566.036 390.881 566.036 389.807H565.968C565.809 390.045 565.62 390.251 565.401 390.425C565.182 390.598 564.939 390.732 564.672 390.825C564.405 390.919 564.121 390.966 563.82 390.966C563.32 390.966 562.861 390.842 562.444 390.595C562.029 390.345 561.696 390.003 561.446 389.568C561.199 389.131 561.076 388.631 561.076 388.068C561.076 387.534 561.195 387.045 561.434 386.602C561.675 386.156 562.013 385.801 562.448 385.537C562.885 385.273 563.4 385.145 563.99 385.153ZM563.99 386.091C563.632 386.091 563.31 386.18 563.023 386.359C562.739 386.536 562.513 386.774 562.346 387.075C562.181 387.374 562.098 387.705 562.098 388.068C562.098 388.432 562.178 388.763 562.337 389.061C562.499 389.357 562.719 389.592 562.998 389.768C563.279 389.942 563.598 390.028 563.956 390.028C564.226 390.028 564.478 389.976 564.711 389.871C564.944 389.763 565.147 389.616 565.32 389.432C565.496 389.244 565.634 389.033 565.733 388.797C565.833 388.558 565.882 388.31 565.882 388.051C565.882 387.71 565.8 387.391 565.635 387.092C565.473 386.794 565.249 386.553 564.962 386.368C564.678 386.183 564.354 386.091 563.99 386.091ZM569.212 394H568.104L571.308 385.273H572.399L575.604 394H574.496L571.888 386.653H571.82L569.212 394ZM569.621 390.591H574.087V391.528H569.621V390.591ZM579.656 394H576.963V385.273H579.776C580.622 385.273 581.347 385.447 581.949 385.797C582.551 386.143 583.013 386.642 583.334 387.293C583.655 387.94 583.815 388.716 583.815 389.619C583.815 390.528 583.653 391.311 583.33 391.967C583.006 392.621 582.534 393.124 581.915 393.476C581.295 393.825 580.543 394 579.656 394ZM578.02 393.062H579.588C580.31 393.062 580.908 392.923 581.382 392.645C581.857 392.366 582.21 391.97 582.443 391.456C582.676 390.942 582.793 390.33 582.793 389.619C582.793 388.915 582.678 388.308 582.447 387.8C582.217 387.288 581.874 386.896 581.416 386.624C580.959 386.348 580.389 386.21 579.707 386.21H578.02V393.062ZM588.281 394H585.588V385.273H588.401C589.247 385.273 589.972 385.447 590.574 385.797C591.176 386.143 591.638 386.642 591.959 387.293C592.28 387.94 592.44 388.716 592.44 389.619C592.44 390.528 592.278 391.311 591.955 391.967C591.631 392.621 591.159 393.124 590.54 393.476C589.92 393.825 589.168 394 588.281 394ZM586.645 393.062H588.213C588.935 393.062 589.533 392.923 590.007 392.645C590.482 392.366 590.835 391.97 591.068 391.456C591.301 390.942 591.418 390.33 591.418 389.619C591.418 388.915 591.303 388.308 591.072 387.8C590.842 387.288 590.499 386.896 590.041 386.624C589.584 386.348 589.014 386.21 588.332 386.21H586.645V393.062ZM601.236 388H600.179C600.116 387.696 600.007 387.429 599.851 387.199C599.697 386.969 599.51 386.776 599.288 386.619C599.07 386.46 598.827 386.341 598.56 386.261C598.293 386.182 598.014 386.142 597.724 386.142C597.196 386.142 596.717 386.276 596.288 386.543C595.862 386.81 595.523 387.203 595.27 387.723C595.02 388.243 594.895 388.881 594.895 389.636C594.895 390.392 595.02 391.03 595.27 391.55C595.523 392.07 595.862 392.463 596.288 392.73C596.717 392.997 597.196 393.131 597.724 393.131C598.014 393.131 598.293 393.091 598.56 393.011C598.827 392.932 599.07 392.814 599.288 392.658C599.51 392.499 599.697 392.304 599.851 392.074C600.007 391.841 600.116 391.574 600.179 391.273H601.236C601.156 391.719 601.011 392.118 600.801 392.47C600.591 392.822 600.33 393.122 600.017 393.369C599.705 393.614 599.354 393.8 598.964 393.928C598.578 394.055 598.165 394.119 597.724 394.119C596.98 394.119 596.318 393.938 595.739 393.574C595.159 393.21 594.703 392.693 594.371 392.023C594.038 391.352 593.872 390.557 593.872 389.636C593.872 388.716 594.038 387.92 594.371 387.25C594.703 386.58 595.159 386.062 595.739 385.699C596.318 385.335 596.98 385.153 597.724 385.153C598.165 385.153 598.578 385.217 598.964 385.345C599.354 385.473 599.705 385.661 600.017 385.908C600.33 386.152 600.591 386.45 600.801 386.803C601.011 387.152 601.156 387.551 601.236 388Z" fill="black"/>
<rect x="643" y="291" width="79" height="79" fill="#5C5C6D"/>
<path d="M659.176 394L660.608 385.273H661.46L660.028 394H659.176ZM655.205 391.58L655.341 390.727H661.852L661.716 391.58H655.205ZM656.108 394L657.54 385.273H658.392L656.96 394H656.108ZM655.716 388.545L655.852 387.693H662.364L662.227 388.545H655.716ZM666.201 394.119C665.701 394.119 665.251 394.02 664.85 393.821C664.45 393.622 664.129 393.349 663.887 393.003C663.646 392.656 663.513 392.261 663.491 391.818H664.513C664.553 392.213 664.732 392.54 665.05 392.798C665.371 393.054 665.755 393.182 666.201 393.182C666.559 393.182 666.877 393.098 667.156 392.93C667.437 392.763 667.657 392.533 667.816 392.24C667.978 391.945 668.059 391.611 668.059 391.239C668.059 390.858 667.975 390.518 667.808 390.22C667.643 389.919 667.415 389.682 667.126 389.509C666.836 389.335 666.505 389.247 666.133 389.244C665.866 389.241 665.592 389.283 665.31 389.368C665.029 389.45 664.798 389.557 664.616 389.688L663.627 389.568L664.156 385.273H668.69V386.21H665.042L664.735 388.784H664.786C664.965 388.642 665.19 388.524 665.46 388.43C665.729 388.337 666.011 388.29 666.303 388.29C666.837 388.29 667.313 388.418 667.731 388.673C668.151 388.926 668.481 389.273 668.719 389.713C668.961 390.153 669.082 390.656 669.082 391.222C669.082 391.778 668.957 392.276 668.707 392.713C668.46 393.148 668.119 393.491 667.684 393.744C667.249 393.994 666.755 394.119 666.201 394.119ZM677.951 388H676.894C676.831 387.696 676.722 387.429 676.566 387.199C676.412 386.969 676.225 386.776 676.003 386.619C675.784 386.46 675.542 386.341 675.275 386.261C675.007 386.182 674.729 386.142 674.439 386.142C673.911 386.142 673.432 386.276 673.003 386.543C672.577 386.81 672.238 387.203 671.985 387.723C671.735 388.243 671.61 388.881 671.61 389.636C671.61 390.392 671.735 391.03 671.985 391.55C672.238 392.07 672.577 392.463 673.003 392.73C673.432 392.997 673.911 393.131 674.439 393.131C674.729 393.131 675.007 393.091 675.275 393.011C675.542 392.932 675.784 392.814 676.003 392.658C676.225 392.499 676.412 392.304 676.566 392.074C676.722 391.841 676.831 391.574 676.894 391.273H677.951C677.871 391.719 677.726 392.118 677.516 392.47C677.306 392.822 677.044 393.122 676.732 393.369C676.419 393.614 676.069 393.8 675.679 393.928C675.293 394.055 674.88 394.119 674.439 394.119C673.695 394.119 673.033 393.938 672.453 393.574C671.874 393.21 671.418 392.693 671.086 392.023C670.753 391.352 670.587 390.557 670.587 389.636C670.587 388.716 670.753 387.92 671.086 387.25C671.418 386.58 671.874 386.062 672.453 385.699C673.033 385.335 673.695 385.153 674.439 385.153C674.88 385.153 675.293 385.217 675.679 385.345C676.069 385.473 676.419 385.661 676.732 385.908C677.044 386.152 677.306 386.45 677.516 386.803C677.726 387.152 677.871 387.551 677.951 388ZM682.232 394.119C681.732 394.119 681.282 394.02 680.881 393.821C680.481 393.622 680.16 393.349 679.918 393.003C679.677 392.656 679.545 392.261 679.522 391.818H680.545C680.585 392.213 680.763 392.54 681.082 392.798C681.403 393.054 681.786 393.182 682.232 393.182C682.59 393.182 682.908 393.098 683.187 392.93C683.468 392.763 683.688 392.533 683.847 392.24C684.009 391.945 684.09 391.611 684.09 391.239C684.09 390.858 684.006 390.518 683.839 390.22C683.674 389.919 683.447 389.682 683.157 389.509C682.867 389.335 682.536 389.247 682.164 389.244C681.897 389.241 681.623 389.283 681.342 389.368C681.06 389.45 680.829 389.557 680.647 389.688L679.658 389.568L680.187 385.273H684.721V386.21H681.073L680.766 388.784H680.817C680.996 388.642 681.221 388.524 681.491 388.43C681.761 388.337 682.042 388.29 682.335 388.29C682.869 388.29 683.344 388.418 683.762 388.673C684.183 388.926 684.512 389.273 684.751 389.713C684.992 390.153 685.113 390.656 685.113 391.222C685.113 391.778 684.988 392.276 684.738 392.713C684.491 393.148 684.15 393.491 683.715 393.744C683.281 393.994 682.786 394.119 682.232 394.119ZM693.982 388H692.925C692.863 387.696 692.753 387.429 692.597 387.199C692.444 386.969 692.256 386.776 692.034 386.619C691.816 386.46 691.573 386.341 691.306 386.261C691.039 386.182 690.76 386.142 690.471 386.142C689.942 386.142 689.463 386.276 689.034 386.543C688.608 386.81 688.269 387.203 688.016 387.723C687.766 388.243 687.641 388.881 687.641 389.636C687.641 390.392 687.766 391.03 688.016 391.55C688.269 392.07 688.608 392.463 689.034 392.73C689.463 392.997 689.942 393.131 690.471 393.131C690.76 393.131 691.039 393.091 691.306 393.011C691.573 392.932 691.816 392.814 692.034 392.658C692.256 392.499 692.444 392.304 692.597 392.074C692.753 391.841 692.863 391.574 692.925 391.273H693.982C693.902 391.719 693.757 392.118 693.547 392.47C693.337 392.822 693.076 393.122 692.763 393.369C692.451 393.614 692.1 393.8 691.711 393.928C691.324 394.055 690.911 394.119 690.471 394.119C689.726 394.119 689.064 393.938 688.485 393.574C687.905 393.21 687.449 392.693 687.117 392.023C686.784 391.352 686.618 390.557 686.618 389.636C686.618 388.716 686.784 387.92 687.117 387.25C687.449 386.58 687.905 386.062 688.485 385.699C689.064 385.335 689.726 385.153 690.471 385.153C690.911 385.153 691.324 385.217 691.711 385.345C692.1 385.473 692.451 385.661 692.763 385.908C693.076 386.152 693.337 386.45 693.547 386.803C693.757 387.152 693.902 387.551 693.982 388ZM698.434 394.119C698.076 394.114 697.718 394.045 697.36 393.915C697.002 393.784 696.675 393.564 696.38 393.254C696.085 392.942 695.847 392.52 695.668 391.989C695.489 391.455 695.4 390.784 695.4 389.977C695.4 389.205 695.472 388.52 695.617 387.923C695.762 387.324 695.972 386.82 696.248 386.411C696.523 385.999 696.856 385.686 697.245 385.473C697.637 385.26 698.079 385.153 698.57 385.153C699.059 385.153 699.494 385.251 699.874 385.447C700.258 385.641 700.57 385.911 700.812 386.257C701.053 386.604 701.21 387.003 701.281 387.455H700.241C700.144 387.062 699.957 386.737 699.678 386.479C699.4 386.22 699.031 386.091 698.57 386.091C697.894 386.091 697.362 386.385 696.972 386.973C696.586 387.561 696.391 388.386 696.388 389.449H696.457C696.616 389.207 696.805 389.001 697.023 388.831C697.245 388.658 697.489 388.524 697.756 388.43C698.023 388.337 698.306 388.29 698.604 388.29C699.104 388.29 699.562 388.415 699.977 388.665C700.391 388.912 700.724 389.254 700.974 389.692C701.224 390.126 701.349 390.625 701.349 391.188C701.349 391.727 701.228 392.222 700.987 392.67C700.745 393.116 700.406 393.472 699.968 393.736C699.533 393.997 699.022 394.125 698.434 394.119ZM698.434 393.182C698.792 393.182 699.113 393.092 699.397 392.913C699.684 392.734 699.91 392.494 700.075 392.193C700.242 391.892 700.326 391.557 700.326 391.188C700.326 390.827 700.245 390.499 700.083 390.203C699.924 389.905 699.704 389.668 699.423 389.491C699.144 389.315 698.826 389.227 698.468 389.227C698.198 389.227 697.947 389.281 697.714 389.389C697.481 389.494 697.276 389.639 697.1 389.824C696.927 390.009 696.79 390.22 696.691 390.459C696.592 390.695 696.542 390.943 696.542 391.205C696.542 391.551 696.623 391.875 696.785 392.176C696.95 392.477 697.174 392.72 697.458 392.905C697.745 393.089 698.07 393.182 698.434 393.182ZM705.871 394H703.178V385.273H705.99C706.837 385.273 707.561 385.447 708.164 385.797C708.766 386.143 709.228 386.642 709.549 387.293C709.87 387.94 710.03 388.716 710.03 389.619C710.03 390.528 709.868 391.311 709.544 391.967C709.221 392.621 708.749 393.124 708.13 393.476C707.51 393.825 706.757 394 705.871 394ZM704.235 393.062H705.803C706.525 393.062 707.123 392.923 707.597 392.645C708.071 392.366 708.425 391.97 708.658 391.456C708.891 390.942 709.007 390.33 709.007 389.619C709.007 388.915 708.892 388.308 708.662 387.8C708.432 387.288 708.088 386.896 707.631 386.624C707.174 386.348 706.604 386.21 705.922 386.21H704.235V393.062Z" fill="black"/>
</svg>
