<svg width="520" height="105" viewBox="0 0 520 105" fill="none" xmlns="http://www.w3.org/2000/svg">
<path d="M485.915 90.0325C481.581 89.3481 478.119 92.3569 478.448 99.6057C478.533 101.41 480.026 102.832 481.835 102.832H494.199C496.141 102.832 497.683 101.206 497.581 99.268L495.977 64.2018C495.883 62.4018 494.395 60.9929 492.595 60.9929C490.679 60.9929 489.146 62.5796 489.208 64.4951L489.803 86.5704C489.875 88.6859 488.008 90.3659 485.915 90.0325Z" fill="#5C5C6D"/>
<path d="M462.488 90.0325C458.155 89.3481 454.693 92.3569 455.022 99.6057C455.106 101.41 456.599 102.832 458.408 102.832H470.773C472.715 102.832 474.257 101.206 474.155 99.268L472.55 64.2018C472.457 62.4018 470.968 60.9929 469.168 60.9929C467.253 60.9929 465.719 62.5796 465.782 64.4951L466.377 86.5704C466.448 88.6859 464.582 90.3659 462.488 90.0325Z" fill="#5C5C6D"/>
<path d="M516.199 57.8196L501.79 59.6329C499.901 59.8729 498.43 62.2196 497.435 63.9484L489.004 79.2016C486.421 84.0904 480.395 83.7971 478.079 80.9171L472.897 68.5528C471.737 67.1084 469.733 66.5484 467.937 67.1706L451.786 69.575C448.213 70.8106 444.804 67.4062 446.257 64.0506L452.417 51.6686C453.146 49.9886 452.653 48.0464 451.191 46.8731L441.635 39.4199C438.729 37.0821 439.831 33.5755 443.88 32.0822L455.093 27.3045C456.693 26.78 459.115 24.2956 459.831 22.5534L464.675 8.60693C466.137 2.36257 475.101 0.762592 478.124 6.74474L483.026 17.7846C484.012 20.1001 485.541 19.8512 487.986 19.1668L504.826 13.3358C508.399 12.1002 511.808 15.5046 510.354 18.8601L503.506 34.6688C502.777 36.3488 503.27 38.291 504.732 39.4643L518.439 50.4819C521.345 52.8197 519.963 57.3441 516.194 57.8196H516.199Z" fill="#5C5C6D"/>
<path d="M467.479 47.8464C467.266 47.8464 467.053 47.7842 466.862 47.6597C466.351 47.3175 466.213 46.6286 466.555 46.1175C469.164 42.2198 473.146 40.1309 477.773 40.2643C482.639 40.3976 486.977 42.882 488.359 45.2109C488.675 45.7397 488.497 46.4197 487.972 46.7353C487.444 47.0508 486.764 46.8775 486.448 46.3486C485.533 44.8064 481.986 42.6064 477.71 42.4864C474.995 42.4109 471.182 43.1975 468.399 47.353C468.186 47.673 467.835 47.8464 467.475 47.8464H467.479Z" fill="white"/>
<path d="M469.084 37.6954C470.078 37.6954 470.884 36.4896 470.884 35.0021C470.884 33.5147 470.078 32.3088 469.084 32.3088C468.09 32.3088 467.284 33.5147 467.284 35.0021C467.284 36.4896 468.09 37.6954 469.084 37.6954Z" fill="white"/>
<path d="M482.43 36.3976C483.424 36.3976 484.23 35.1918 484.23 33.7043C484.23 32.2169 483.424 31.011 482.43 31.011C481.436 31.011 480.63 32.2169 480.63 33.7043C480.63 35.1918 481.436 36.3976 482.43 36.3976Z" fill="white"/>
<path d="M488.79 38.3532C488.79 39.0065 488.195 39.5398 487.457 39.5398C486.719 39.5398 486.124 39.0109 486.124 38.3532C485.95 37.6776 485.173 36.3976 485.91 36.3976C486.648 36.3976 488.79 37.6954 488.79 38.3532Z" fill="white"/>
<path d="M464.671 29.1533C464.226 29.1533 463.982 29.1178 463.951 29.1089C463.586 29.0511 463.342 28.7044 463.399 28.3444C463.457 27.98 463.804 27.7356 464.164 27.7933C464.186 27.7933 466.466 28.1133 470.799 26.34C471.142 26.2022 471.528 26.3667 471.67 26.7045C471.808 27.0467 471.648 27.4333 471.306 27.5756C467.968 28.94 465.733 29.1533 464.666 29.1533H464.671Z" fill="white"/>
<path d="M485.19 28.2645C485.635 28.2645 485.879 28.2289 485.91 28.22C486.275 28.1622 486.519 27.8156 486.461 27.4556C486.404 27.0911 486.057 26.8467 485.697 26.9045C485.675 26.9045 483.395 27.2245 479.061 25.4512C478.719 25.3134 478.333 25.4778 478.19 25.8156C478.053 26.1578 478.213 26.5445 478.555 26.6867C481.892 28.0511 484.128 28.2645 485.195 28.2645H485.19Z" fill="white"/>
<path d="M353.582 89.3022C349.248 88.6178 345.786 91.6266 346.115 98.8754C346.2 100.68 347.693 102.102 349.502 102.102H361.866C363.808 102.102 365.35 100.475 365.248 98.5377L363.644 68.0802C363.55 66.2802 362.062 64.8713 360.262 64.8713C358.346 64.8713 356.813 66.458 356.875 68.3735L357.471 85.8445C357.542 87.96 355.675 89.64 353.582 89.3066V89.3022Z" fill="#79ADDC"/>
<path d="M376.835 92.0933C372.502 91.4088 369.039 94.4177 369.368 101.667C369.453 103.471 370.946 104.893 372.755 104.893H385.119C387.061 104.893 388.604 103.266 388.501 101.329L386.897 70.8713C386.804 69.0713 385.315 67.6624 383.515 67.6624C381.599 67.6624 380.066 69.2491 380.128 71.1646L380.724 88.6355C380.795 90.7511 378.928 92.431 376.835 92.0977V92.0933Z" fill="#79ADDC"/>
<path d="M349.964 67.9558L334.862 52.0359C324.955 42.3427 332.16 32.1339 339.026 24.294L348.724 12.3297C355.671 3.76088 363.684 -6.12347 378.39 4.86309L403.661 28.4273C416.248 40.2583 407.515 47.8404 399.617 59.1114L391.639 70.1735C380.435 85.0356 363.097 82.0223 349.96 67.9558H349.964Z" fill="#79ADDC"/>
<path d="M362.133 38.765C361.897 38.765 361.657 38.6894 361.453 38.5339C360.968 38.1561 360.88 37.4583 361.253 36.9739C363.191 34.4761 366.404 33.2584 369.857 33.725C372.297 34.0539 374.191 35.1783 374.804 36.6628C375.039 37.2317 374.768 37.8805 374.199 38.1116C373.631 38.3428 372.982 38.0761 372.751 37.5072C372.502 36.9028 371.324 36.165 369.564 35.925C368.568 35.7917 365.151 35.5694 363.013 38.3339C362.795 38.6183 362.466 38.765 362.133 38.765Z" fill="white"/>
<path d="M358.044 22.9829C357.599 22.9829 357.355 22.9474 357.324 22.9385C356.959 22.8807 356.715 22.534 356.773 22.174C356.831 21.8096 357.177 21.5651 357.537 21.6229C357.559 21.6229 359.839 21.9429 364.173 20.1696C364.515 20.0318 364.902 20.1963 365.044 20.534C365.182 20.8763 365.022 21.2629 364.679 21.4051C361.342 22.7696 359.106 22.9829 358.039 22.9829H358.044Z" fill="white"/>
<path d="M378.559 22.9829C379.004 22.9829 379.248 22.9474 379.279 22.9385C379.644 22.8807 379.888 22.534 379.83 22.174C379.773 21.8096 379.426 21.5651 379.066 21.6229C379.044 21.6229 376.764 21.9429 372.431 20.1696C372.088 20.0318 371.702 20.1963 371.559 20.534C371.422 20.8763 371.582 21.2629 371.924 21.4051C375.262 22.7696 377.497 22.9829 378.564 22.9829H378.559Z" fill="white"/>
<path d="M361.284 30.6584C362.278 30.6584 363.084 29.4526 363.084 27.9651C363.084 26.4776 362.278 25.2718 361.284 25.2718C360.29 25.2718 359.484 26.4776 359.484 27.9651C359.484 29.4526 360.29 30.6584 361.284 30.6584Z" fill="white"/>
<path d="M374.63 29.8051C375.624 29.8051 376.43 28.5992 376.43 27.1118C376.43 25.6243 375.624 24.4185 374.63 24.4185C373.636 24.4185 372.83 25.6243 372.83 27.1118C372.83 28.5992 373.636 29.8051 374.63 29.8051Z" fill="white"/>
<path d="M53.3727 87.9597C56.9948 87.3864 59.8926 89.9063 59.617 95.964C59.5459 97.4751 58.297 98.6617 56.786 98.6617H46.4484C44.8262 98.6617 43.5329 97.3018 43.6218 95.6796L44.964 70.2089C45.0439 68.7023 46.2884 67.5245 47.7906 67.5245C49.395 67.5245 50.675 68.8534 50.6216 70.4534L50.1239 85.062C50.0616 86.8308 51.6261 88.2353 53.3771 87.9553L53.3727 87.9597Z" fill="#FF9E88"/>
<path d="M31.6708 92.693C35.293 92.1197 38.1907 94.6396 37.9152 100.697C37.8441 102.208 36.5952 103.395 35.0841 103.395H24.7465C23.1243 103.395 21.831 102.035 21.9199 100.413L23.2621 74.9422C23.3421 73.4356 24.5865 72.2578 26.0887 72.2578C27.6931 72.2578 28.9731 73.5867 28.9198 75.1866L28.422 89.7953C28.3598 91.5641 29.9242 92.9685 31.6753 92.6886L31.6708 92.693Z" fill="#FF9E88"/>
<path d="M6.41798 47.1338C8.62683 45.0183 9.8357 42.0672 9.83125 38.974C9.83125 38.9562 9.83125 38.9384 9.83125 38.9206C9.83125 18.7921 25.9998 2.53463 45.7595 3.01017C64.3725 3.45905 79.55 19.001 79.99 38.054C80.4566 58.2892 64.5725 74.8444 44.9151 74.84C44.8884 74.84 44.8617 74.84 44.8351 74.84C40.3107 74.8311 35.8886 76.2133 32.2442 78.9643C28.6265 81.6976 24.0843 83.2221 19.1911 82.9687C8.67128 82.4176 0.23143 73.5022 0.00476728 62.7202C-0.124119 56.5648 2.36917 51.0093 6.41798 47.1294V47.1338Z" fill="#FF9E88"/>
<path d="M56.3682 33.8141C52.6438 33.8141 49.5728 32.9563 47.2439 31.9341C42.0884 29.6719 39.3863 26.2053 39.2752 26.0586C38.9018 25.5698 38.9907 24.872 39.4796 24.4987C39.9685 24.1253 40.6662 24.2187 41.0396 24.7031C41.4396 25.2187 51.0794 37.294 68.9413 28.3164C69.4924 28.0408 70.159 28.263 70.4346 28.8097C70.7101 29.3564 70.4879 30.0275 69.9413 30.303C64.7725 32.8985 60.2214 33.8185 56.3726 33.8185L56.3682 33.8141Z" fill="white"/>
<path d="M47.4883 23.2676C47.1639 23.2676 46.8439 23.1298 46.6261 22.8587C46.2395 22.3832 46.3106 21.6854 46.7861 21.2943L48.2794 20.0765L46.9506 18.5077C46.555 18.041 46.6128 17.3388 47.0795 16.9433C47.5461 16.5477 48.2483 16.6055 48.6439 17.0722L50.2083 18.921C50.5327 19.3077 50.6883 19.7921 50.6438 20.2988C50.5994 20.8054 50.355 21.2543 49.9638 21.5743L48.1861 23.0232C47.9817 23.192 47.7328 23.272 47.4839 23.272L47.4883 23.2676Z" fill="white"/>
<path d="M61.6837 24.5609C61.3681 24.5609 61.0526 24.4276 60.8348 24.1698L59.2304 22.2721C58.9015 21.881 58.7459 21.3876 58.7904 20.881C58.8393 20.3743 59.0793 19.9165 59.4748 19.5921L61.3014 18.1032C61.777 17.7166 62.4792 17.7877 62.8659 18.2632C63.2525 18.7388 63.1814 19.4366 62.7059 19.8277L61.1459 21.0987L62.5325 22.7343C62.9281 23.2009 62.8703 23.9031 62.4036 24.2987C62.1948 24.4765 61.9414 24.5609 61.6881 24.5609H61.6837Z" fill="white"/>
<path d="M244.542 90.2909C240.209 89.6065 236.746 92.6153 237.075 99.8641C237.16 101.668 238.653 103.091 240.462 103.091H252.826C254.768 103.091 256.311 101.464 256.208 99.5263L254.604 69.0692C254.511 67.2692 253.022 65.8604 251.222 65.8604C249.306 65.8604 247.773 67.447 247.835 69.3625L248.431 86.8332C248.502 88.9487 246.635 90.6287 244.542 90.2954V90.2909Z" fill="#567751"/>
<path d="M273.737 91.131C278.07 90.4465 281.532 93.4554 281.203 100.704C281.119 102.508 279.625 103.931 277.817 103.931H265.452C263.51 103.931 261.968 102.304 262.07 100.366L263.675 69.9092C263.768 68.1092 265.257 66.7004 267.057 66.7004C268.972 66.7004 270.506 68.287 270.443 70.2025L269.848 87.6733C269.777 89.7888 271.643 91.4687 273.737 91.1354V91.131Z" fill="#567751"/>
<path d="M262.186 80.9978H258.297C239.844 80.9978 228.062 69.7047 225.022 53.8073L220 23.9057C220 13.7815 227.986 6.69719 242.697 5.49721L278.194 1.19064C288.239 -0.267108 302.243 6.75052 299.696 18.2925L293.132 53.6517C288.599 68.2914 280.599 80.9978 262.19 80.9978H262.186Z" fill="#567751"/>
<path d="M250.399 34.4966C249.844 34.4966 249.368 34.0832 249.297 33.5188C249.221 32.9099 249.657 32.3544 250.266 32.2788L269.465 29.9322C270.083 29.8567 270.63 30.2922 270.705 30.9011C270.781 31.51 270.345 32.0655 269.737 32.1411L250.537 34.4877C250.492 34.4921 250.444 34.4966 250.399 34.4966Z" fill="white"/>
<path d="M252.244 24.2924C253.238 24.2924 254.044 23.0866 254.044 21.5991C254.044 20.1116 253.238 18.9058 252.244 18.9058C251.25 18.9058 250.444 20.1116 250.444 21.5991C250.444 23.0866 251.25 24.2924 252.244 24.2924Z" fill="white"/>
<path d="M265.612 22.6124C266.606 22.6124 267.412 21.4066 267.412 19.9192C267.412 18.4317 266.606 17.2259 265.612 17.2259C264.618 17.2259 263.812 18.4317 263.812 19.9192C263.812 21.4066 264.618 22.6124 265.612 22.6124Z" fill="white"/>
<path d="M134.481 87.0832C130.699 86.4832 127.677 89.1144 127.965 95.4392C128.037 97.0171 129.343 98.2572 130.921 98.2572H141.713C143.406 98.2572 144.753 96.8349 144.664 95.1459L143.264 68.5622C143.18 66.9932 141.886 65.762 140.313 65.762C138.642 65.762 137.299 67.1488 137.357 68.82L137.877 84.0697C137.939 85.9187 136.308 87.381 134.481 87.0921V87.0832Z" fill="#F78B98"/>
<path d="M155.576 92.0835C151.793 91.4835 148.771 94.1147 149.06 100.44C149.131 102.017 150.438 103.257 152.016 103.257H162.807C164.501 103.257 165.848 101.835 165.759 100.146L164.359 73.5625C164.274 71.9935 162.981 70.7623 161.407 70.7623C159.736 70.7623 158.394 72.1491 158.452 73.8203L158.972 89.07C159.034 90.919 157.403 92.3813 155.576 92.0924V92.0835Z" fill="#F78B98"/>
<path d="M189.978 28.8933C189.507 21.2662 184.04 15.1814 177.199 14.2881C175.83 14.1103 173.701 14.4836 172.132 14.8036C171.048 15.0259 170.008 14.3058 169.661 13.1413C168.083 7.86993 163.456 4.37196 157.043 4.37196C154.158 4.37196 151.487 5.14978 149.327 6.46096C147.331 7.67436 144.829 7.40768 143.135 5.71425C140.686 3.26078 137.388 1.82959 133.792 2.01627C127.157 2.35851 121.747 8.32773 121.401 15.6881C121.374 16.2882 121.378 16.8838 121.414 17.4705C121.574 20.0039 120.663 22.493 118.867 24.0708C113.36 28.9244 110 35.387 110 42.4852C110 55.5481 121.383 66.4643 136.584 69.14C138.433 69.4645 139.997 70.8779 140.579 72.8513C142.162 78.2116 146.078 82.0074 150.656 82.0074C153.909 82.0074 156.829 80.0917 158.812 77.0604C159.852 75.4692 161.696 74.8603 163.363 75.5359C164.75 76.0959 166.27 76.4071 167.865 76.4071C174.341 76.4071 182.284 70.6912 179.586 64.9975C179.031 63.8242 176.826 60.0106 180.728 59.2994C184.124 58.7572 190 55.9304 190 49.2989C190 47.2321 189.613 45.2809 188.929 43.5475C188.004 41.2051 187.951 38.5605 188.858 36.2048C189.716 33.9869 190.124 31.5024 189.964 28.8978L189.978 28.8933Z" fill="#F78B98"/>
<path d="M138.068 40.8851C133.592 40.8851 129.534 39.7339 127.157 37.6849C126.69 37.2849 126.641 36.5826 127.041 36.1159C127.441 35.6492 128.143 35.6003 128.61 36.0004C133.028 39.8095 144.54 39.805 151.678 34.3647C152.167 33.9914 152.865 34.0892 153.234 34.5736C153.607 35.0625 153.509 35.7604 153.025 36.1293C148.709 39.4183 143.122 40.8851 138.068 40.8851Z" fill="white"/>
<path d="M133.806 30.2089C134.8 30.2089 135.606 29.003 135.606 27.5154C135.606 26.0279 134.8 24.822 133.806 24.822C132.812 24.822 132.006 26.0279 132.006 27.5154C132.006 29.003 132.812 30.2089 133.806 30.2089Z" fill="white"/>
<path d="M147.153 28.9111C148.147 28.9111 148.953 27.7052 148.953 26.2176C148.953 24.73 148.147 23.5241 147.153 23.5241C146.159 23.5241 145.353 24.73 145.353 26.2176C145.353 27.7052 146.159 28.9111 147.153 28.9111Z" fill="white"/>
</svg>
