<svg width="430" height="932" viewBox="0 0 430 932" fill="none" xmlns="http://www.w3.org/2000/svg">
<rect width="430" height="932" fill="#F3F3F3"/>
<path d="M141.232 497C140.56 497 140.008 496.796 139.576 496.388C139.144 495.956 138.928 495.428 138.928 494.804V473.924H143.608V494.804C143.608 495.428 143.38 495.956 142.924 496.388C142.492 496.796 141.928 497 141.232 497ZM133.276 475.94C132.652 475.94 132.124 475.748 131.692 475.364C131.284 474.98 131.08 474.476 131.08 473.852C131.08 473.228 131.284 472.736 131.692 472.376C132.124 471.992 132.652 471.8 133.276 471.8H149.26C149.884 471.8 150.4 471.992 150.808 472.376C151.24 472.76 151.456 473.264 151.456 473.888C151.456 474.512 151.24 475.016 150.808 475.4C150.4 475.76 149.884 475.94 149.26 475.94H133.276ZM154.891 497C154.267 497 153.751 496.796 153.343 496.388C152.935 495.956 152.731 495.428 152.731 494.804V479.936C152.731 479.312 152.935 478.796 153.343 478.388C153.751 477.956 154.267 477.74 154.891 477.74C155.515 477.74 156.031 477.956 156.439 478.388C156.847 478.796 157.051 479.312 157.051 479.936V483.32L156.799 480.908C157.063 480.332 157.399 479.828 157.807 479.396C158.239 478.94 158.719 478.568 159.247 478.28C159.775 477.968 160.339 477.74 160.939 477.596C161.539 477.452 162.139 477.38 162.739 477.38C163.459 477.38 164.059 477.584 164.539 477.992C165.043 478.4 165.295 478.88 165.295 479.432C165.295 480.224 165.091 480.8 164.683 481.16C164.275 481.496 163.831 481.664 163.351 481.664C162.895 481.664 162.475 481.58 162.091 481.412C161.731 481.244 161.311 481.16 160.831 481.16C160.399 481.16 159.955 481.268 159.499 481.484C159.067 481.676 158.659 481.988 158.275 482.42C157.915 482.852 157.615 483.392 157.375 484.04C157.159 484.664 157.051 485.408 157.051 486.272V494.804C157.051 495.428 156.847 495.956 156.439 496.388C156.031 496.796 155.515 497 154.891 497ZM183.686 477.38C184.31 477.38 184.826 477.584 185.234 477.992C185.642 478.4 185.846 478.928 185.846 479.576V494.804C185.846 495.428 185.642 495.956 185.234 496.388C184.826 496.796 184.31 497 183.686 497C183.062 497 182.546 496.796 182.138 496.388C181.73 495.956 181.526 495.428 181.526 494.804V493.04L182.318 493.364C182.318 493.676 182.15 494.06 181.814 494.516C181.478 494.948 181.022 495.38 180.446 495.812C179.87 496.244 179.186 496.616 178.394 496.928C177.626 497.216 176.786 497.36 175.874 497.36C174.218 497.36 172.718 496.94 171.374 496.1C170.03 495.236 168.962 494.06 168.17 492.572C167.402 491.06 167.018 489.332 167.018 487.388C167.018 485.42 167.402 483.692 168.17 482.204C168.962 480.692 170.018 479.516 171.338 478.676C172.658 477.812 174.122 477.38 175.73 477.38C176.762 477.38 177.71 477.536 178.574 477.848C179.438 478.16 180.182 478.556 180.806 479.036C181.454 479.516 181.946 480.008 182.282 480.512C182.642 480.992 182.822 481.4 182.822 481.736L181.526 482.204V479.576C181.526 478.952 181.73 478.436 182.138 478.028C182.546 477.596 183.062 477.38 183.686 477.38ZM176.414 493.4C177.47 493.4 178.394 493.136 179.186 492.608C179.978 492.08 180.59 491.36 181.022 490.448C181.478 489.536 181.706 488.516 181.706 487.388C181.706 486.236 181.478 485.204 181.022 484.292C180.59 483.38 179.978 482.66 179.186 482.132C178.394 481.604 177.47 481.34 176.414 481.34C175.382 481.34 174.47 481.604 173.678 482.132C172.886 482.66 172.262 483.38 171.806 484.292C171.374 485.204 171.158 486.236 171.158 487.388C171.158 488.516 171.374 489.536 171.806 490.448C172.262 491.36 172.886 492.08 173.678 492.608C174.47 493.136 175.382 493.4 176.414 493.4ZM200.82 477.38C202.596 477.38 203.94 477.752 204.852 478.496C205.788 479.24 206.424 480.236 206.76 481.484C207.12 482.708 207.3 484.076 207.3 485.588V494.804C207.3 495.428 207.096 495.956 206.688 496.388C206.28 496.796 205.764 497 205.14 497C204.516 497 204 496.796 203.592 496.388C203.184 495.956 202.98 495.428 202.98 494.804V485.588C202.98 484.796 202.872 484.088 202.656 483.464C202.464 482.816 202.104 482.3 201.576 481.916C201.048 481.532 200.292 481.34 199.308 481.34C198.348 481.34 197.532 481.532 196.86 481.916C196.212 482.3 195.708 482.816 195.348 483.464C195.012 484.088 194.844 484.796 194.844 485.588V494.804C194.844 495.428 194.64 495.956 194.232 496.388C193.824 496.796 193.308 497 192.684 497C192.06 497 191.544 496.796 191.136 496.388C190.728 495.956 190.524 495.428 190.524 494.804V479.936C190.524 479.312 190.728 478.796 191.136 478.388C191.544 477.956 192.06 477.74 192.684 477.74C193.308 477.74 193.824 477.956 194.232 478.388C194.64 478.796 194.844 479.312 194.844 479.936V481.484L194.304 481.376C194.52 480.968 194.832 480.536 195.24 480.08C195.648 479.6 196.128 479.156 196.68 478.748C197.232 478.34 197.856 478.016 198.552 477.776C199.248 477.512 200.004 477.38 200.82 477.38ZM227.737 477.74C228.361 477.74 228.877 477.944 229.285 478.352C229.693 478.76 229.897 479.288 229.897 479.936V502.004C229.897 502.628 229.693 503.144 229.285 503.552C228.877 503.984 228.361 504.2 227.737 504.2C227.113 504.2 226.597 503.984 226.189 503.552C225.781 503.144 225.577 502.628 225.577 502.004V493.04L226.369 493.364C226.369 493.676 226.201 494.06 225.865 494.516C225.529 494.948 225.073 495.38 224.497 495.812C223.921 496.244 223.237 496.616 222.445 496.928C221.677 497.216 220.837 497.36 219.925 497.36C218.269 497.36 216.769 496.94 215.425 496.1C214.081 495.236 213.013 494.06 212.221 492.572C211.453 491.06 211.069 489.332 211.069 487.388C211.069 485.42 211.453 483.692 212.221 482.204C213.013 480.692 214.069 479.516 215.389 478.676C216.709 477.812 218.173 477.38 219.781 477.38C220.813 477.38 221.761 477.536 222.625 477.848C223.489 478.16 224.233 478.556 224.857 479.036C225.505 479.516 225.997 480.008 226.333 480.512C226.693 480.992 226.873 481.4 226.873 481.736L225.577 482.204V479.936C225.577 479.312 225.781 478.796 226.189 478.388C226.597 477.956 227.113 477.74 227.737 477.74ZM220.465 493.4C221.521 493.4 222.445 493.136 223.237 492.608C224.029 492.08 224.641 491.36 225.073 490.448C225.529 489.536 225.757 488.516 225.757 487.388C225.757 486.236 225.529 485.204 225.073 484.292C224.641 483.38 224.029 482.66 223.237 482.132C222.445 481.604 221.521 481.34 220.465 481.34C219.433 481.34 218.521 481.604 217.729 482.132C216.937 482.66 216.313 483.38 215.857 484.292C215.425 485.204 215.209 486.236 215.209 487.388C215.209 488.516 215.425 489.536 215.857 490.448C216.313 491.36 216.937 492.08 217.729 492.608C218.521 493.136 219.433 493.4 220.465 493.4ZM248.866 477.74C249.49 477.74 250.006 477.956 250.414 478.388C250.822 478.796 251.026 479.312 251.026 479.936V489.08C251.026 491.624 250.318 493.64 248.902 495.128C247.486 496.616 245.446 497.36 242.782 497.36C240.118 497.36 238.078 496.616 236.662 495.128C235.27 493.64 234.574 491.624 234.574 489.08V479.936C234.574 479.312 234.778 478.796 235.186 478.388C235.594 477.956 236.11 477.74 236.734 477.74C237.358 477.74 237.874 477.956 238.282 478.388C238.69 478.796 238.894 479.312 238.894 479.936V489.08C238.894 490.544 239.218 491.636 239.866 492.356C240.514 493.052 241.486 493.4 242.782 493.4C244.102 493.4 245.086 493.052 245.734 492.356C246.382 491.636 246.706 490.544 246.706 489.08V479.936C246.706 479.312 246.91 478.796 247.318 478.388C247.726 477.956 248.242 477.74 248.866 477.74ZM259.771 494.804C259.771 495.428 259.567 495.956 259.159 496.388C258.751 496.796 258.235 497 257.611 497C256.987 497 256.471 496.796 256.063 496.388C255.655 495.956 255.451 495.428 255.451 494.804V479.936C255.451 479.312 255.655 478.796 256.063 478.388C256.471 477.956 256.987 477.74 257.611 477.74C258.235 477.74 258.751 477.956 259.159 478.388C259.567 478.796 259.771 479.312 259.771 479.936V494.804ZM257.575 475.4C256.759 475.4 256.183 475.268 255.847 475.004C255.511 474.74 255.343 474.272 255.343 473.6V472.916C255.343 472.22 255.523 471.752 255.883 471.512C256.267 471.248 256.843 471.116 257.611 471.116C258.451 471.116 259.039 471.248 259.375 471.512C259.711 471.776 259.879 472.244 259.879 472.916V473.6C259.879 474.296 259.699 474.776 259.339 475.04C258.979 475.28 258.391 475.4 257.575 475.4ZM274.111 470.36C274.639 470.36 275.155 470.432 275.659 470.576C276.163 470.72 276.583 470.96 276.919 471.296C277.255 471.608 277.423 472.028 277.423 472.556C277.423 473.156 277.243 473.636 276.883 473.996C276.547 474.332 276.151 474.5 275.695 474.5C275.479 474.5 275.155 474.452 274.723 474.356C274.291 474.236 273.871 474.176 273.463 474.176C272.863 474.176 272.395 474.308 272.059 474.572C271.747 474.836 271.531 475.148 271.411 475.508C271.291 475.844 271.231 476.144 271.231 476.408V494.804C271.231 495.428 271.027 495.956 270.619 496.388C270.211 496.796 269.695 497 269.071 497C268.447 497 267.931 496.796 267.523 496.388C267.115 495.956 266.911 495.428 266.911 494.804V476.444C266.911 474.74 267.511 473.3 268.711 472.124C269.911 470.948 271.711 470.36 274.111 470.36ZM274.507 478.1C275.083 478.1 275.563 478.292 275.947 478.676C276.331 479.036 276.523 479.504 276.523 480.08C276.523 480.656 276.331 481.136 275.947 481.52C275.563 481.88 275.083 482.06 274.507 482.06H264.967C264.391 482.06 263.911 481.88 263.527 481.52C263.143 481.136 262.951 480.656 262.951 480.08C262.951 479.504 263.143 479.036 263.527 478.676C263.911 478.292 264.391 478.1 264.967 478.1H274.507ZM294.218 477.74C294.842 477.74 295.358 477.956 295.766 478.388C296.174 478.796 296.378 479.312 296.378 479.936V495.236C296.378 497.444 295.958 499.196 295.118 500.492C294.302 501.812 293.198 502.76 291.806 503.336C290.414 503.912 288.854 504.2 287.126 504.2C286.358 504.2 285.542 504.14 284.678 504.02C283.814 503.9 283.106 503.72 282.554 503.48C281.834 503.168 281.33 502.772 281.042 502.292C280.778 501.836 280.73 501.344 280.898 500.816C281.114 500.12 281.462 499.64 281.942 499.376C282.422 499.136 282.926 499.112 283.454 499.304C283.838 499.424 284.342 499.604 284.966 499.844C285.59 500.108 286.31 500.24 287.126 500.24C288.23 500.24 289.142 500.084 289.862 499.772C290.606 499.484 291.158 498.98 291.518 498.26C291.902 497.564 292.094 496.604 292.094 495.38V492.968L292.85 493.832C292.442 494.624 291.926 495.284 291.302 495.812C290.702 496.316 289.982 496.7 289.142 496.964C288.302 497.228 287.342 497.36 286.262 497.36C284.99 497.36 283.874 497.072 282.914 496.496C281.978 495.896 281.246 495.08 280.718 494.048C280.19 492.992 279.926 491.792 279.926 490.448V479.936C279.926 479.312 280.13 478.796 280.538 478.388C280.946 477.956 281.462 477.74 282.086 477.74C282.71 477.74 283.226 477.956 283.634 478.388C284.042 478.796 284.246 479.312 284.246 479.936V489.152C284.246 490.712 284.582 491.816 285.254 492.464C285.95 493.088 286.91 493.4 288.134 493.4C288.974 493.4 289.682 493.244 290.258 492.932C290.834 492.596 291.278 492.116 291.59 491.492C291.902 490.844 292.058 490.064 292.058 489.152V479.936C292.058 479.312 292.262 478.796 292.67 478.388C293.078 477.956 293.594 477.74 294.218 477.74Z" fill="#465939"/>
<rect x="75" y="576" width="280" height="64" rx="20" fill="#9DB580"/>
<path d="M189.138 615V601H191.698V613H197.898V615H189.138ZM204.404 615.24C203.444 615.24 202.578 615.02 201.804 614.58C201.044 614.14 200.438 613.533 199.984 612.76C199.544 611.973 199.324 611.067 199.324 610.04C199.324 609.013 199.551 608.113 200.004 607.34C200.458 606.553 201.064 605.94 201.824 605.5C202.598 605.06 203.464 604.84 204.424 604.84C205.371 604.84 206.224 605.06 206.984 605.5C207.758 605.94 208.364 606.553 208.804 607.34C209.258 608.113 209.484 609.013 209.484 610.04C209.484 611.067 209.258 611.973 208.804 612.76C208.364 613.533 207.758 614.14 206.984 614.58C206.211 615.02 205.351 615.24 204.404 615.24ZM204.404 613.02C205.071 613.02 205.651 612.773 206.144 612.28C206.638 611.773 206.884 611.027 206.884 610.04C206.884 609.053 206.638 608.313 206.144 607.82C205.651 607.313 205.078 607.06 204.424 607.06C203.744 607.06 203.158 607.313 202.664 607.82C202.184 608.313 201.944 609.053 201.944 610.04C201.944 611.027 202.184 611.773 202.664 612.28C203.158 612.773 203.738 613.02 204.404 613.02ZM215.348 612.04C214.868 612.04 214.422 611.987 214.008 611.88L213.268 612.62C213.495 612.74 213.802 612.84 214.188 612.92C214.575 613 215.202 613.08 216.068 613.16C217.388 613.28 218.348 613.593 218.948 614.1C219.548 614.607 219.848 615.307 219.848 616.2C219.848 616.787 219.688 617.34 219.368 617.86C219.048 618.393 218.555 618.82 217.888 619.14C217.222 619.473 216.368 619.64 215.328 619.64C213.915 619.64 212.775 619.373 211.908 618.84C211.042 618.32 210.608 617.533 210.608 616.48C210.608 615.587 211.042 614.813 211.908 614.16C211.642 614.04 211.408 613.913 211.208 613.78C211.022 613.647 210.855 613.507 210.708 613.36V612.9L212.448 611.06C211.675 610.38 211.288 609.507 211.288 608.44C211.288 607.773 211.448 607.167 211.768 606.62C212.102 606.073 212.568 605.64 213.168 605.32C213.768 605 214.495 604.84 215.348 604.84C215.908 604.84 216.428 604.92 216.908 605.08H220.668V606.64L218.968 606.76C219.235 607.267 219.368 607.827 219.368 608.44C219.368 609.107 219.208 609.713 218.888 610.26C218.568 610.807 218.102 611.24 217.488 611.56C216.888 611.88 216.175 612.04 215.348 612.04ZM215.348 610.08C215.868 610.08 216.295 609.94 216.628 609.66C216.975 609.38 217.148 608.98 217.148 608.46C217.148 607.94 216.975 607.54 216.628 607.26C216.295 606.98 215.868 606.84 215.348 606.84C214.802 606.84 214.362 606.98 214.028 607.26C213.695 607.54 213.528 607.94 213.528 608.46C213.528 608.98 213.695 609.38 214.028 609.66C214.362 609.94 214.802 610.08 215.348 610.08ZM212.948 616.22C212.948 616.713 213.175 617.08 213.628 617.32C214.095 617.573 214.662 617.7 215.328 617.7C215.968 617.7 216.488 617.567 216.888 617.3C217.288 617.047 217.488 616.7 217.488 616.26C217.488 615.9 217.355 615.6 217.088 615.36C216.835 615.12 216.322 614.973 215.548 614.92C215.002 614.88 214.495 614.82 214.028 614.74C213.642 614.953 213.362 615.187 213.188 615.44C213.028 615.693 212.948 615.953 212.948 616.22ZM228.681 603.54C228.214 603.54 227.827 603.4 227.521 603.12C227.227 602.84 227.081 602.487 227.081 602.06C227.081 601.633 227.227 601.287 227.521 601.02C227.827 600.74 228.214 600.6 228.681 600.6C229.147 600.6 229.527 600.74 229.821 601.02C230.127 601.287 230.281 601.633 230.281 602.06C230.281 602.487 230.127 602.84 229.821 603.12C229.527 603.4 229.147 603.54 228.681 603.54ZM227.401 615V605.08H229.961V615H227.401ZM232.633 615V605.08H234.893L235.093 606.76C235.399 606.173 235.839 605.707 236.413 605.36C236.999 605.013 237.686 604.84 238.473 604.84C239.699 604.84 240.653 605.227 241.333 606C242.013 606.773 242.353 607.907 242.353 609.4V615H239.793V609.64C239.793 608.787 239.619 608.133 239.273 607.68C238.926 607.227 238.386 607 237.653 607C236.933 607 236.339 607.253 235.873 607.76C235.419 608.267 235.193 608.973 235.193 609.88V615H232.633Z" fill="black"/>
<rect x="75" y="664" width="280" height="64" rx="20" fill="#EEE1CC"/>
<path d="M185.74 703.24C184.713 703.24 183.806 703.067 183.02 702.72C182.233 702.36 181.613 701.853 181.16 701.2C180.706 700.533 180.473 699.727 180.46 698.78H183.16C183.186 699.433 183.42 699.987 183.86 700.44C184.313 700.88 184.933 701.1 185.72 701.1C186.4 701.1 186.94 700.94 187.34 700.62C187.74 700.287 187.94 699.847 187.94 699.3C187.94 698.727 187.76 698.28 187.4 697.96C187.053 697.64 186.586 697.38 186 697.18C185.413 696.98 184.786 696.767 184.12 696.54C183.04 696.167 182.213 695.687 181.64 695.1C181.08 694.513 180.8 693.733 180.8 692.76C180.786 691.933 180.98 691.227 181.38 690.64C181.793 690.04 182.353 689.58 183.06 689.26C183.766 688.927 184.58 688.76 185.5 688.76C186.433 688.76 187.253 688.927 187.96 689.26C188.68 689.593 189.24 690.06 189.64 690.66C190.053 691.26 190.273 691.973 190.3 692.8H187.56C187.546 692.307 187.353 691.873 186.98 691.5C186.62 691.113 186.113 690.92 185.46 690.92C184.9 690.907 184.426 691.047 184.04 691.34C183.666 691.62 183.48 692.033 183.48 692.58C183.48 693.047 183.626 693.42 183.92 693.7C184.213 693.967 184.613 694.193 185.12 694.38C185.626 694.567 186.206 694.767 186.86 694.98C187.553 695.22 188.186 695.5 188.76 695.82C189.333 696.14 189.793 696.567 190.14 697.1C190.486 697.62 190.66 698.293 190.66 699.12C190.66 699.853 190.473 700.533 190.1 701.16C189.726 701.787 189.173 702.293 188.44 702.68C187.706 703.053 186.806 703.24 185.74 703.24ZM194.213 691.54C193.746 691.54 193.36 691.4 193.053 691.12C192.76 690.84 192.613 690.487 192.613 690.06C192.613 689.633 192.76 689.287 193.053 689.02C193.36 688.74 193.746 688.6 194.213 688.6C194.68 688.6 195.06 688.74 195.353 689.02C195.66 689.287 195.813 689.633 195.813 690.06C195.813 690.487 195.66 690.84 195.353 691.12C195.06 691.4 194.68 691.54 194.213 691.54ZM192.933 703V693.08H195.493V703H192.933ZM202.365 700.04C201.885 700.04 201.439 699.987 201.025 699.88L200.285 700.62C200.512 700.74 200.819 700.84 201.205 700.92C201.592 701 202.219 701.08 203.085 701.16C204.405 701.28 205.365 701.593 205.965 702.1C206.565 702.607 206.865 703.307 206.865 704.2C206.865 704.787 206.705 705.34 206.385 705.86C206.065 706.393 205.572 706.82 204.905 707.14C204.239 707.473 203.385 707.64 202.345 707.64C200.932 707.64 199.792 707.373 198.925 706.84C198.059 706.32 197.625 705.533 197.625 704.48C197.625 703.587 198.059 702.813 198.925 702.16C198.659 702.04 198.425 701.913 198.225 701.78C198.039 701.647 197.872 701.507 197.725 701.36V700.9L199.465 699.06C198.692 698.38 198.305 697.507 198.305 696.44C198.305 695.773 198.465 695.167 198.785 694.62C199.119 694.073 199.585 693.64 200.185 693.32C200.785 693 201.512 692.84 202.365 692.84C202.925 692.84 203.445 692.92 203.925 693.08H207.685V694.64L205.985 694.76C206.252 695.267 206.385 695.827 206.385 696.44C206.385 697.107 206.225 697.713 205.905 698.26C205.585 698.807 205.119 699.24 204.505 699.56C203.905 699.88 203.192 700.04 202.365 700.04ZM202.365 698.08C202.885 698.08 203.312 697.94 203.645 697.66C203.992 697.38 204.165 696.98 204.165 696.46C204.165 695.94 203.992 695.54 203.645 695.26C203.312 694.98 202.885 694.84 202.365 694.84C201.819 694.84 201.379 694.98 201.045 695.26C200.712 695.54 200.545 695.94 200.545 696.46C200.545 696.98 200.712 697.38 201.045 697.66C201.379 697.94 201.819 698.08 202.365 698.08ZM199.965 704.22C199.965 704.713 200.192 705.08 200.645 705.32C201.112 705.573 201.679 705.7 202.345 705.7C202.985 705.7 203.505 705.567 203.905 705.3C204.305 705.047 204.505 704.7 204.505 704.26C204.505 703.9 204.372 703.6 204.105 703.36C203.852 703.12 203.339 702.973 202.565 702.92C202.019 702.88 201.512 702.82 201.045 702.74C200.659 702.953 200.379 703.187 200.205 703.44C200.045 703.693 199.965 703.953 199.965 704.22ZM209.552 703V693.08H211.812L212.012 694.76C212.319 694.173 212.759 693.707 213.332 693.36C213.919 693.013 214.605 692.84 215.392 692.84C216.619 692.84 217.572 693.227 218.252 694C218.932 694.773 219.272 695.907 219.272 697.4V703H216.712V697.64C216.712 696.787 216.539 696.133 216.192 695.68C215.845 695.227 215.305 695 214.572 695C213.852 695 213.259 695.253 212.792 695.76C212.339 696.267 212.112 696.973 212.112 697.88V703H209.552ZM230.205 703.24C228.965 703.24 228.005 702.853 227.325 702.08C226.659 701.307 226.325 700.173 226.325 698.68V693.08H228.865V698.44C228.865 699.293 229.039 699.947 229.385 700.4C229.732 700.853 230.279 701.08 231.025 701.08C231.732 701.08 232.312 700.827 232.765 700.32C233.232 699.813 233.465 699.107 233.465 698.2V693.08H236.025V703H233.765L233.565 701.32C233.259 701.907 232.812 702.373 232.225 702.72C231.652 703.067 230.979 703.24 230.205 703.24ZM238.653 707.4V693.08H240.933L241.213 694.5C241.533 694.06 241.953 693.673 242.473 693.34C243.007 693.007 243.693 692.84 244.533 692.84C245.467 692.84 246.3 693.067 247.033 693.52C247.767 693.973 248.347 694.593 248.773 695.38C249.2 696.167 249.413 697.06 249.413 698.06C249.413 699.06 249.2 699.953 248.773 700.74C248.347 701.513 247.767 702.127 247.033 702.58C246.3 703.02 245.467 703.24 244.533 703.24C243.787 703.24 243.133 703.1 242.573 702.82C242.013 702.54 241.56 702.147 241.213 701.64V707.4H238.653ZM243.993 701C244.807 701 245.48 700.727 246.013 700.18C246.547 699.633 246.813 698.927 246.813 698.06C246.813 697.193 246.547 696.48 246.013 695.92C245.48 695.36 244.807 695.08 243.993 695.08C243.167 695.08 242.487 695.36 241.953 695.92C241.433 696.467 241.173 697.173 241.173 698.04C241.173 698.907 241.433 699.62 241.953 700.18C242.487 700.727 243.167 701 243.993 701Z" fill="black"/>
<path d="M151.16 789.192C150.029 789.192 149.059 788.952 148.248 788.472C147.437 787.981 146.813 787.304 146.376 786.44C145.939 785.565 145.72 784.557 145.72 783.416C145.72 782.275 145.939 781.267 146.376 780.392C146.813 779.517 147.437 778.835 148.248 778.344C149.059 777.853 150.029 777.608 151.16 777.608C152.504 777.608 153.603 777.944 154.456 778.616C155.32 779.277 155.859 780.211 156.072 781.416H153.816C153.677 780.808 153.379 780.333 152.92 779.992C152.472 779.64 151.875 779.464 151.128 779.464C150.093 779.464 149.283 779.816 148.696 780.52C148.109 781.224 147.816 782.189 147.816 783.416C147.816 784.643 148.109 785.608 148.696 786.312C149.283 787.005 150.093 787.352 151.128 787.352C151.875 787.352 152.472 787.192 152.92 786.872C153.379 786.541 153.677 786.088 153.816 785.512H156.072C155.859 786.664 155.32 787.565 154.456 788.216C153.603 788.867 152.504 789.192 151.16 789.192ZM161.645 789.192C160.877 789.192 160.184 789.016 159.565 788.664C158.957 788.312 158.472 787.827 158.109 787.208C157.757 786.579 157.581 785.853 157.581 785.032C157.581 784.211 157.762 783.491 158.125 782.872C158.488 782.243 158.973 781.752 159.581 781.4C160.2 781.048 160.893 780.872 161.661 780.872C162.418 780.872 163.101 781.048 163.709 781.4C164.328 781.752 164.813 782.243 165.165 782.872C165.528 783.491 165.709 784.211 165.709 785.032C165.709 785.853 165.528 786.579 165.165 787.208C164.813 787.827 164.328 788.312 163.709 788.664C163.09 789.016 162.402 789.192 161.645 789.192ZM161.645 787.416C162.178 787.416 162.642 787.219 163.037 786.824C163.432 786.419 163.629 785.821 163.629 785.032C163.629 784.243 163.432 783.651 163.037 783.256C162.642 782.851 162.184 782.648 161.661 782.648C161.117 782.648 160.648 782.851 160.253 783.256C159.869 783.651 159.677 784.243 159.677 785.032C159.677 785.821 159.869 786.419 160.253 786.824C160.648 787.219 161.112 787.416 161.645 787.416ZM167.54 789V781.064H169.348L169.508 782.408C169.753 781.939 170.105 781.565 170.564 781.288C171.033 781.011 171.583 780.872 172.212 780.872C173.193 780.872 173.956 781.181 174.5 781.8C175.044 782.419 175.316 783.325 175.316 784.52V789H173.268V784.712C173.268 784.029 173.129 783.507 172.852 783.144C172.575 782.781 172.143 782.6 171.556 782.6C170.98 782.6 170.505 782.803 170.132 783.208C169.769 783.613 169.588 784.179 169.588 784.904V789H167.54ZM180.81 789C179.978 789 179.312 788.797 178.81 788.392C178.309 787.987 178.058 787.267 178.058 786.232V782.776H176.698V781.064H178.058L178.298 778.936H180.106V781.064H182.25V782.776H180.106V786.248C180.106 786.632 180.186 786.899 180.346 787.048C180.517 787.187 180.805 787.256 181.21 787.256H182.202V789H180.81ZM185.113 779.832C184.739 779.832 184.43 779.72 184.185 779.496C183.95 779.272 183.833 778.989 183.833 778.648C183.833 778.307 183.95 778.029 184.185 777.816C184.43 777.592 184.739 777.48 185.113 777.48C185.486 777.48 185.79 777.592 186.025 777.816C186.27 778.029 186.393 778.307 186.393 778.648C186.393 778.989 186.27 779.272 186.025 779.496C185.79 779.72 185.486 779.832 185.113 779.832ZM184.089 789V781.064H186.137V789H184.089ZM188.274 789V781.064H190.082L190.242 782.408C190.488 781.939 190.84 781.565 191.298 781.288C191.768 781.011 192.317 780.872 192.946 780.872C193.928 780.872 194.69 781.181 195.234 781.8C195.778 782.419 196.05 783.325 196.05 784.52V789H194.002V784.712C194.002 784.029 193.864 783.507 193.586 783.144C193.309 782.781 192.877 782.6 192.29 782.6C191.714 782.6 191.24 782.803 190.866 783.208C190.504 783.613 190.322 784.179 190.322 784.904V789H188.274ZM200.985 789.192C199.993 789.192 199.225 788.883 198.681 788.264C198.147 787.645 197.881 786.739 197.881 785.544V781.064H199.913V785.352C199.913 786.035 200.051 786.557 200.329 786.92C200.606 787.283 201.043 787.464 201.641 787.464C202.206 787.464 202.67 787.261 203.033 786.856C203.406 786.451 203.593 785.885 203.593 785.16V781.064H205.641V789H203.833L203.673 787.656C203.427 788.125 203.07 788.499 202.601 788.776C202.142 789.053 201.603 789.192 200.985 789.192ZM211.599 789.192C210.799 789.192 210.09 789.021 209.471 788.68C208.852 788.339 208.367 787.859 208.015 787.24C207.663 786.621 207.487 785.907 207.487 785.096C207.487 784.275 207.658 783.544 207.999 782.904C208.351 782.264 208.831 781.768 209.439 781.416C210.058 781.053 210.783 780.872 211.615 780.872C212.394 780.872 213.082 781.043 213.679 781.384C214.276 781.725 214.74 782.195 215.071 782.792C215.412 783.379 215.583 784.035 215.583 784.76C215.583 784.877 215.578 785 215.567 785.128C215.567 785.256 215.562 785.389 215.551 785.528H209.519C209.562 786.147 209.775 786.632 210.159 786.984C210.554 787.336 211.028 787.512 211.583 787.512C211.999 787.512 212.346 787.421 212.623 787.24C212.911 787.048 213.124 786.803 213.263 786.504H215.343C215.194 787.005 214.943 787.464 214.591 787.88C214.25 788.285 213.823 788.605 213.311 788.84C212.81 789.075 212.239 789.192 211.599 789.192ZM211.615 782.536C211.114 782.536 210.671 782.68 210.287 782.968C209.903 783.245 209.658 783.672 209.551 784.248H213.503C213.471 783.725 213.279 783.309 212.927 783C212.575 782.691 212.138 782.536 211.615 782.536ZM223.854 789.192C223.171 789.192 222.611 789.085 222.174 788.872C221.737 788.648 221.411 788.355 221.198 787.992C220.985 787.629 220.878 787.229 220.878 786.792C220.878 786.056 221.166 785.459 221.742 785C222.318 784.541 223.182 784.312 224.334 784.312H226.35V784.12C226.35 783.576 226.195 783.176 225.886 782.92C225.577 782.664 225.193 782.536 224.734 782.536C224.318 782.536 223.955 782.637 223.646 782.84C223.337 783.032 223.145 783.32 223.07 783.704H221.07C221.123 783.128 221.315 782.627 221.646 782.2C221.987 781.773 222.425 781.448 222.958 781.224C223.491 780.989 224.089 780.872 224.75 780.872C225.881 780.872 226.771 781.155 227.422 781.72C228.073 782.285 228.398 783.085 228.398 784.12V789H226.654L226.462 787.72C226.227 788.147 225.897 788.499 225.47 788.776C225.054 789.053 224.515 789.192 223.854 789.192ZM224.318 787.592C224.905 787.592 225.358 787.4 225.678 787.016C226.009 786.632 226.217 786.157 226.302 785.592H224.558C224.014 785.592 223.625 785.693 223.39 785.896C223.155 786.088 223.038 786.328 223.038 786.616C223.038 786.925 223.155 787.165 223.39 787.336C223.625 787.507 223.934 787.592 224.318 787.592ZM233.633 789.192C232.929 789.192 232.31 789.08 231.777 788.856C231.243 788.621 230.817 788.301 230.497 787.896C230.177 787.491 229.985 787.021 229.921 786.488H231.985C232.049 786.797 232.219 787.064 232.497 787.288C232.785 787.501 233.153 787.608 233.601 787.608C234.049 787.608 234.374 787.517 234.577 787.336C234.79 787.155 234.897 786.947 234.897 786.712C234.897 786.371 234.747 786.141 234.449 786.024C234.15 785.896 233.734 785.773 233.201 785.656C232.859 785.581 232.513 785.491 232.161 785.384C231.809 785.277 231.483 785.144 231.185 784.984C230.897 784.813 230.662 784.6 230.481 784.344C230.299 784.077 230.209 783.752 230.209 783.368C230.209 782.664 230.486 782.072 231.041 781.592C231.606 781.112 232.395 780.872 233.409 780.872C234.347 780.872 235.094 781.091 235.649 781.528C236.214 781.965 236.55 782.568 236.657 783.336H234.721C234.603 782.749 234.161 782.456 233.393 782.456C233.009 782.456 232.71 782.531 232.497 782.68C232.294 782.829 232.193 783.016 232.193 783.24C232.193 783.475 232.347 783.661 232.657 783.8C232.966 783.939 233.377 784.067 233.889 784.184C234.443 784.312 234.95 784.456 235.409 784.616C235.878 784.765 236.251 784.995 236.529 785.304C236.806 785.603 236.945 786.035 236.945 786.6C236.955 787.091 236.827 787.533 236.561 787.928C236.294 788.323 235.91 788.632 235.409 788.856C234.907 789.08 234.315 789.192 233.633 789.192ZM245.931 786.632C245.547 786.632 245.19 786.589 244.859 786.504L244.267 787.096C244.449 787.192 244.694 787.272 245.003 787.336C245.313 787.4 245.814 787.464 246.507 787.528C247.563 787.624 248.331 787.875 248.811 788.28C249.291 788.685 249.531 789.245 249.531 789.96C249.531 790.429 249.403 790.872 249.147 791.288C248.891 791.715 248.497 792.056 247.963 792.312C247.43 792.579 246.747 792.712 245.915 792.712C244.785 792.712 243.873 792.499 243.179 792.072C242.486 791.656 242.139 791.027 242.139 790.184C242.139 789.469 242.486 788.851 243.179 788.328C242.966 788.232 242.779 788.131 242.619 788.024C242.47 787.917 242.337 787.805 242.219 787.688V787.32L243.611 785.848C242.993 785.304 242.683 784.605 242.683 783.752C242.683 783.219 242.811 782.733 243.067 782.296C243.334 781.859 243.707 781.512 244.187 781.256C244.667 781 245.249 780.872 245.931 780.872C246.379 780.872 246.795 780.936 247.179 781.064H250.187V782.312L248.827 782.408C249.041 782.813 249.147 783.261 249.147 783.752C249.147 784.285 249.019 784.771 248.763 785.208C248.507 785.645 248.134 785.992 247.643 786.248C247.163 786.504 246.593 786.632 245.931 786.632ZM245.931 785.064C246.347 785.064 246.689 784.952 246.955 784.728C247.233 784.504 247.371 784.184 247.371 783.768C247.371 783.352 247.233 783.032 246.955 782.808C246.689 782.584 246.347 782.472 245.931 782.472C245.494 782.472 245.142 782.584 244.875 782.808C244.609 783.032 244.475 783.352 244.475 783.768C244.475 784.184 244.609 784.504 244.875 784.728C245.142 784.952 245.494 785.064 245.931 785.064ZM244.011 789.976C244.011 790.371 244.193 790.664 244.555 790.856C244.929 791.059 245.382 791.16 245.915 791.16C246.427 791.16 246.843 791.053 247.163 790.84C247.483 790.637 247.643 790.36 247.643 790.008C247.643 789.72 247.537 789.48 247.323 789.288C247.121 789.096 246.71 788.979 246.091 788.936C245.654 788.904 245.249 788.856 244.875 788.792C244.566 788.963 244.342 789.149 244.203 789.352C244.075 789.555 244.011 789.763 244.011 789.976ZM254.657 789.192C253.665 789.192 252.897 788.883 252.353 788.264C251.819 787.645 251.553 786.739 251.553 785.544V781.064H253.585V785.352C253.585 786.035 253.723 786.557 254.001 786.92C254.278 787.283 254.715 787.464 255.313 787.464C255.878 787.464 256.342 787.261 256.705 786.856C257.078 786.451 257.265 785.885 257.265 785.16V781.064H259.313V789H257.505L257.345 787.656C257.099 788.125 256.742 788.499 256.273 788.776C255.814 789.053 255.275 789.192 254.657 789.192ZM265.271 789.192C264.471 789.192 263.762 789.021 263.143 788.68C262.524 788.339 262.039 787.859 261.687 787.24C261.335 786.621 261.159 785.907 261.159 785.096C261.159 784.275 261.33 783.544 261.671 782.904C262.023 782.264 262.503 781.768 263.111 781.416C263.73 781.053 264.455 780.872 265.287 780.872C266.066 780.872 266.754 781.043 267.351 781.384C267.948 781.725 268.412 782.195 268.743 782.792C269.084 783.379 269.255 784.035 269.255 784.76C269.255 784.877 269.25 785 269.239 785.128C269.239 785.256 269.234 785.389 269.223 785.528H263.191C263.234 786.147 263.447 786.632 263.831 786.984C264.226 787.336 264.7 787.512 265.255 787.512C265.671 787.512 266.018 787.421 266.295 787.24C266.583 787.048 266.796 786.803 266.935 786.504H269.015C268.866 787.005 268.615 787.464 268.263 787.88C267.922 788.285 267.495 788.605 266.983 788.84C266.482 789.075 265.911 789.192 265.271 789.192ZM265.287 782.536C264.786 782.536 264.343 782.68 263.959 782.968C263.575 783.245 263.33 783.672 263.223 784.248H267.175C267.143 783.725 266.951 783.309 266.599 783C266.247 782.691 265.81 782.536 265.287 782.536ZM274.258 789.192C273.554 789.192 272.935 789.08 272.402 788.856C271.868 788.621 271.442 788.301 271.122 787.896C270.802 787.491 270.61 787.021 270.546 786.488H272.61C272.674 786.797 272.844 787.064 273.122 787.288C273.41 787.501 273.778 787.608 274.226 787.608C274.674 787.608 274.999 787.517 275.202 787.336C275.415 787.155 275.522 786.947 275.522 786.712C275.522 786.371 275.372 786.141 275.074 786.024C274.775 785.896 274.359 785.773 273.826 785.656C273.484 785.581 273.138 785.491 272.786 785.384C272.434 785.277 272.108 785.144 271.81 784.984C271.522 784.813 271.287 784.6 271.106 784.344C270.924 784.077 270.834 783.752 270.834 783.368C270.834 782.664 271.111 782.072 271.666 781.592C272.231 781.112 273.02 780.872 274.034 780.872C274.972 780.872 275.719 781.091 276.274 781.528C276.839 781.965 277.175 782.568 277.282 783.336H275.346C275.228 782.749 274.786 782.456 274.018 782.456C273.634 782.456 273.335 782.531 273.122 782.68C272.919 782.829 272.818 783.016 272.818 783.24C272.818 783.475 272.972 783.661 273.282 783.8C273.591 783.939 274.002 784.067 274.514 784.184C275.068 784.312 275.575 784.456 276.034 784.616C276.503 784.765 276.876 784.995 277.154 785.304C277.431 785.603 277.57 786.035 277.57 786.6C277.58 787.091 277.452 787.533 277.186 787.928C276.919 788.323 276.535 788.632 276.034 788.856C275.532 789.08 274.94 789.192 274.258 789.192ZM282.67 789C281.838 789 281.171 788.797 280.67 788.392C280.168 787.987 279.918 787.267 279.918 786.232V782.776H278.558V781.064H279.918L280.158 778.936H281.966V781.064H284.11V782.776H281.966V786.248C281.966 786.632 282.046 786.899 282.206 787.048C282.376 787.187 282.664 787.256 283.07 787.256H284.062V789H282.67Z" fill="#705F44"/>
<path d="M145 791H284.83V791.8H145V791Z" fill="#705F44"/>
<g clip-path="url(#clip0_157_971)">
<path d="M375.864 66.8875C374.728 63.0375 369.272 63.0375 368.136 66.8875L367.861 67.8225C367.692 68.3989 367.395 68.93 366.993 69.3768C366.592 69.8237 366.095 70.175 365.54 70.4049C364.985 70.6349 364.385 70.7377 363.785 70.7058C363.185 70.6738 362.6 70.508 362.072 70.2205L361.22 69.753C357.692 67.8335 353.833 71.6918 355.756 75.2172L356.22 76.0725C357.447 78.3275 356.284 81.1353 353.822 81.8612L352.887 82.1362C349.037 83.272 349.037 88.728 352.887 89.8637L353.822 90.1388C354.399 90.3084 354.93 90.605 355.377 91.0067C355.824 91.4083 356.175 91.9049 356.405 92.46C356.635 93.0151 356.738 93.6147 356.706 94.2147C356.674 94.8147 356.508 95.3999 356.22 95.9275L355.753 96.78C353.833 100.308 357.692 104.167 361.217 102.244L362.072 101.779C362.6 101.492 363.185 101.326 363.785 101.294C364.385 101.262 364.985 101.365 365.54 101.595C366.095 101.825 366.592 102.176 366.993 102.623C367.395 103.07 367.692 103.601 367.861 104.177L368.136 105.112C369.272 108.962 374.728 108.962 375.864 105.112L376.139 104.177C376.308 103.601 376.605 103.07 377.007 102.623C377.408 102.176 377.905 101.825 378.46 101.595C379.015 101.365 379.615 101.262 380.215 101.294C380.815 101.326 381.4 101.492 381.927 101.779L382.78 102.247C386.308 104.167 390.167 100.308 388.244 96.7827L387.779 95.9275C387.492 95.3999 387.326 94.8147 387.294 94.2147C387.262 93.6147 387.365 93.0151 387.595 92.46C387.825 91.9049 388.176 91.4083 388.623 91.0067C389.07 90.605 389.601 90.3084 390.177 90.1388L391.112 89.8637C394.962 88.728 394.962 83.272 391.112 82.1362L390.177 81.8612C389.601 81.6916 389.07 81.395 388.623 80.9933C388.176 80.5917 387.825 80.0951 387.595 79.54C387.365 78.9849 387.262 78.3853 387.294 77.7853C387.326 77.1853 387.492 76.6001 387.779 76.0725L388.247 75.22C390.167 71.6917 386.308 67.8335 382.783 69.7557L381.927 70.2205C381.4 70.508 380.815 70.6738 380.215 70.7058C379.615 70.7377 379.015 70.6349 378.46 70.4049C377.905 70.175 377.408 69.8237 377.007 69.3768C376.605 68.93 376.308 68.3989 376.139 67.8225L375.864 66.8875ZM372 94.0575C369.863 94.0575 367.814 93.2086 366.302 91.6975C364.791 90.1864 363.943 88.137 363.943 86C363.943 83.863 364.791 81.8136 366.302 80.3025C367.814 78.7914 369.863 77.9425 372 77.9425C374.136 77.9425 376.185 78.7911 377.696 80.3017C379.206 81.8122 380.055 83.861 380.055 85.9972C380.055 88.1335 379.206 90.1823 377.696 91.6928C376.185 93.2034 374.136 94.052 372 94.052V94.0575Z" fill="#9DB580"/>
</g>
<g clip-path="url(#clip1_157_971)">
<path d="M315.89 168.2H116.1C99.5799 168.2 86.2 181.59 86.2 198.1V376.79C117.1 417.37 165.32 397.3 192.29 370.02C195.09 367.19 199.16 366.06 203.04 366.9C249.4 376.92 327.98 349.04 327.98 285.81V275.08C327.98 270.61 329.44 266.25 332.13 262.69C337.59 255.48 342.11 248.53 345.79 241.82V198.1C345.79 181.58 332.4 168.19 315.88 168.19L315.89 168.2Z" fill="#A7BF87"/>
<path d="M313.66 164H118.34C98.35 164 82 180.35 82 200.34V395.66C82 415.65 98.35 432 118.34 432H313.66C333.65 432 350 415.65 350 395.66V200.34C350 180.35 333.65 164 313.66 164ZM345.8 395.66C345.8 413.41 331.41 427.8 313.66 427.8H118.34C100.59 427.8 86.2 413.41 86.2 395.66V200.34C86.2 182.59 100.59 168.2 118.34 168.2H313.66C331.41 168.2 345.8 182.59 345.8 200.34V395.66Z" fill="#A7BF87"/>
<path d="M158.12 237.24C153.27 237.24 147.63 235.78 141.16 231.99C139.97 231.29 139.57 229.76 140.26 228.57C140.96 227.38 142.49 226.98 143.68 227.67C152.43 232.79 164.92 236.11 174.69 222.8C175.51 221.69 177.07 221.44 178.18 222.26C179.29 223.08 179.53 224.64 178.72 225.75C175.05 230.74 168.32 237.23 158.12 237.23V237.24Z" fill="white"/>
<path d="M212.72 225.7C208.76 225.7 204.22 224.85 199.02 222.8C197.74 222.29 197.11 220.84 197.61 219.56C198.12 218.28 199.56 217.64 200.85 218.15C210.31 221.88 223.17 223.26 230.78 208.66C231.42 207.43 232.93 206.96 234.15 207.6C235.37 208.24 235.85 209.75 235.21 210.97C232.01 217.12 225.28 225.71 212.71 225.71L212.72 225.7Z" fill="white"/>
<path d="M165.02 273.22C147.86 273.22 132.67 269.85 121.76 263.3C120.58 262.59 120.19 261.05 120.9 259.87C121.61 258.69 123.15 258.3 124.33 259.01C163.52 282.52 238.22 259.48 271.87 224.12C272.82 223.12 274.4 223.08 275.4 224.03C276.4 224.98 276.44 226.56 275.49 227.56C256.22 247.8 227.36 263.19 196.3 269.79C185.51 272.08 174.93 273.21 165.01 273.21L165.02 273.22Z" fill="white"/>
</g>
<defs>
<clipPath id="clip0_157_971">
<rect width="44" height="44" fill="white" transform="translate(350 64)"/>
</clipPath>
<clipPath id="clip1_157_971">
<rect width="268" height="268" fill="white" transform="translate(82 164)"/>
</clipPath>
</defs>
</svg>
