<?xml version="1.0" encoding="UTF-8"?>
<svg id="Layer_2" xmlns="http://www.w3.org/2000/svg" version="1.1" viewBox="0 0 267.9 267.9">
  <!-- Generator: Adobe Illustrator 29.0.1, SVG Export Plug-In . SVG Version: 2.1.0 Build 192)  -->
  <defs>
    <style>
      .st0 {
        fill: #a7bf87;
      }

      .st1 {
        fill: #fff;
      }
    </style>
  </defs>
  <g id="Layer_2-2">
    <g id="logo-colour-2">
      <path class="st0" d="M206.2,34.9H61.7c-14.7,0-26.8,12.1-26.8,26.8v144.4c0,14.8,12.1,26.8,26.8,26.8h144.4c14.8,0,26.8-12.1,26.8-26.8V61.7c.2-14.7-12-26.8-26.7-26.8ZM206.3,229.9H61.7c-13.1,0-23.7-10.6-23.7-23.7v-14c22.8,30,58.5,15.2,78.5-5,2.1-2.1,5.1-3,8-2.3,34.3,7.4,92.4-13.2,92.4-60v-7.9c0-3.3,1.1-6.5,3-9.2,4-5.2,7.3-10.3,9.9-15.2l.2,113.6c0,13.2-10.6,23.7-23.7,23.7Z"/>
      <path class="st1" d="M91.2,89c-3.5,0-7.8-1.1-12.6-3.8-.9-.5-1.2-1.6-.7-2.5s1.6-1.2,2.5-.7c6.5,3.8,15.7,6.2,22.9-3.6.6-.8,1.8-1,2.6-.4.8.7,1,1.8.4,2.6-2.6,3.6-7.6,8.4-15.1,8.4h0Z"/>
      <path class="st1" d="M131.5,80.5c-3,0-6.3-.6-10.1-2.1-1-.4-1.4-1.5-1-2.4.4-1,1.4-1.4,2.4-1,7,2.7,16.5,3.8,22.1-7,.4-.9,1.6-1.3,2.5-.8s1.3,1.6.8,2.5c-2.4,4.5-7.3,10.8-16.7,10.8h0Z"/>
      <path class="st1" d="M96.3,115.6c-12.7,0-23.9-2.5-32-7.3-.9-.5-1.2-1.6-.7-2.5.5-.9,1.6-1.2,2.5-.7,29,17.4,84.2.4,109.1-25.8.7-.7,1.8-.7,2.6,0,.7.7.7,1.8.1,2.6-14.3,14.9-35.6,26.3-58.6,31.2-7.9,1.8-15.7,2.6-23,2.6h0Z"/>
    </g>
  </g>
</svg>