<?xml version="1.0" encoding="utf-8"?>
<!-- Generator: Adobe Illustrator 28.2.0, SVG Export Plug-In . SVG Version: 6.00 Build 0)  -->
<svg version="1.1" id="Layer_2_00000090990747190330336480000018269745407774456724_"
	 xmlns="http://www.w3.org/2000/svg" xmlns:xlink="http://www.w3.org/1999/xlink" x="0px" y="0px" viewBox="0 0 267.9 267.9"
	 style="enable-background:new 0 0 267.9 267.9;" xml:space="preserve">
<style type="text/css">
	.st0{fill:#A7BF87;}
	.st1{fill:#FFFFFF;}
</style>
<g id="Layer_2-2">
	<g id="logo-colour-2">
		<path class="st0" d="M207.9,38H60.1C47.9,38,38,47.9,38,60.1v132.1c22.8,30,58.5,15.2,78.5-5c2.1-2.1,5.1-3,8-2.3
			c34.3,7.4,92.4-13.2,92.4-60v-7.9c0-3.3,1.1-6.5,3-9.2c4.1-5.3,7.4-10.5,10.1-15.5V60.1C230,47.9,220.1,38,207.9,38L207.9,38
			L207.9,38z"/>
		<path class="st0" d="M206.2,34.9H61.7C47,34.9,34.9,47,34.9,61.7v144.4c0,14.8,12.1,26.8,26.8,26.8h144.4
			c14.8,0,26.8-12.1,26.8-26.8V61.7C233.1,47,220.9,34.9,206.2,34.9z M230,206.2c0,13.2-10.6,23.7-23.7,23.7H61.7
			C48.6,230,38,219.3,38,206.2V61.7C38,48.6,48.7,38,61.7,38h144.4c13.2,0,23.7,10.6,23.7,23.7L230,206.2L230,206.2L230,206.2z"/>
		<path class="st1" d="M91.2,89c-3.5,0-7.8-1.1-12.6-3.8c-0.9-0.5-1.2-1.6-0.7-2.5c0.5-0.9,1.6-1.2,2.5-0.7
			c6.5,3.8,15.7,6.2,22.9-3.6c0.6-0.8,1.8-1,2.6-0.4c0.8,0.7,1,1.8,0.4,2.6C103.7,84.2,98.7,89,91.2,89L91.2,89z"/>
		<path class="st1" d="M131.5,80.5c-3,0-6.3-0.6-10.1-2.1c-1-0.4-1.4-1.5-1-2.4c0.4-1,1.4-1.4,2.4-1c7,2.7,16.5,3.8,22.1-7
			c0.4-0.9,1.6-1.3,2.5-0.8s1.3,1.6,0.8,2.5C145.8,74.2,140.9,80.5,131.5,80.5L131.5,80.5z"/>
		<path class="st1" d="M96.3,115.6c-12.7,0-23.9-2.5-32-7.3c-0.9-0.5-1.2-1.6-0.7-2.5c0.5-0.9,1.6-1.2,2.5-0.7
			c29,17.4,84.2,0.4,109.1-25.8c0.7-0.7,1.8-0.7,2.6-0.1c0.7,0.7,0.7,1.8,0.1,2.6c-14.3,14.9-35.6,26.3-58.6,31.2
			C111.4,114.8,103.6,115.6,96.3,115.6C96.3,115.6,96.3,115.6,96.3,115.6z"/>
	</g>
</g>
</svg>
