<?xml version="1.0" encoding="utf-8"?>
<!-- Generator: Adobe Illustrator 28.2.0, SVG Export Plug-In . SVG Version: 6.00 Build 0)  -->
<svg version="1.1" id="Layer_1" xmlns="http://www.w3.org/2000/svg" xmlns:xlink="http://www.w3.org/1999/xlink" x="0px" y="0px"
	 viewBox="0 0 647.8 310" style="enable-background:new 0 0 647.8 310;" xml:space="preserve">
<style type="text/css">
	.st0{fill:#F3F3F3;}
	.st1{fill:#705F44;}
</style>
<path class="st0" d="M19.8,0H628c10.9,0,19.8,13.4,19.8,30v250c0,16.6-8.9,30-19.8,30H19.8C8.9,310,0,296.6,0,280V30
	C0,13.4,8.9,0,19.8,0z"/>
<path d="M250.8,158v-11.2h4.5c1.2,0,2,0.3,2.7,0.8c0.6,0.5,0.9,1.2,0.9,2.1c0,0.7-0.2,1.3-0.6,1.7c-0.4,0.4-0.8,0.7-1.4,0.8
	c0.6,0.1,1.2,0.4,1.6,1c0.4,0.5,0.6,1.1,0.6,1.8c0,0.9-0.3,1.6-1,2.2c-0.6,0.6-1.5,0.9-2.7,0.9H250.8z M252.9,151.5h2.1
	c0.6,0,1-0.1,1.3-0.4s0.5-0.6,0.5-1.1c0-0.5-0.2-0.8-0.5-1.1c-0.3-0.3-0.8-0.4-1.4-0.4h-2.1V151.5z M252.9,156.3h2.3
	c0.6,0,1.1-0.1,1.4-0.4c0.3-0.3,0.5-0.7,0.5-1.2c0-0.5-0.2-0.9-0.5-1.2c-0.4-0.3-0.8-0.4-1.4-0.4h-2.3V156.3z M264.7,158.2
	c-0.8,0-1.5-0.2-2.1-0.5c-0.6-0.4-1.1-0.8-1.5-1.5c-0.4-0.6-0.5-1.4-0.5-2.2s0.2-1.5,0.5-2.2c0.4-0.6,0.8-1.1,1.5-1.5
	c0.6-0.4,1.3-0.5,2.1-0.5c0.8,0,1.4,0.2,2,0.5c0.6,0.4,1.1,0.8,1.5,1.5c0.4,0.6,0.5,1.3,0.5,2.2s-0.2,1.5-0.5,2.2
	c-0.4,0.6-0.8,1.1-1.5,1.5C266.1,158,265.5,158.2,264.7,158.2z M264.7,156.4c0.5,0,1-0.2,1.4-0.6c0.4-0.4,0.6-1,0.6-1.8
	s-0.2-1.4-0.6-1.8c-0.4-0.4-0.9-0.6-1.4-0.6c-0.5,0-1,0.2-1.4,0.6c-0.4,0.4-0.6,1-0.6,1.8s0.2,1.4,0.6,1.8
	C263.7,156.2,264.2,156.4,264.7,156.4z M270.6,158v-11.5h2V158H270.6z M278.4,158.2c-0.7,0-1.4-0.2-2-0.5c-0.6-0.4-1.1-0.9-1.4-1.5
	c-0.3-0.6-0.5-1.3-0.5-2.1c0-0.8,0.2-1.5,0.5-2.1c0.3-0.6,0.8-1.1,1.4-1.5c0.6-0.4,1.3-0.5,2-0.5c0.6,0,1.1,0.1,1.6,0.3
	c0.4,0.2,0.8,0.5,1.1,0.9v-4.7h2V158h-1.8l-0.2-1.1c-0.3,0.4-0.6,0.7-1,0.9C279.6,158.1,279.1,158.2,278.4,158.2z M278.8,156.4
	c0.7,0,1.2-0.2,1.6-0.7c0.4-0.4,0.6-1,0.6-1.7c0-0.7-0.2-1.3-0.6-1.7c-0.4-0.4-1-0.7-1.6-0.7c-0.7,0-1.2,0.2-1.6,0.7
	c-0.4,0.4-0.6,1-0.6,1.7c0,0.7,0.2,1.3,0.6,1.7C277.6,156.2,278.2,156.4,278.8,156.4z M289,158v-11.2h4.5c1.2,0,2,0.3,2.7,0.8
	c0.6,0.5,0.9,1.2,0.9,2.1c0,0.7-0.2,1.3-0.6,1.7c-0.4,0.4-0.8,0.7-1.4,0.8c0.6,0.1,1.2,0.4,1.6,1c0.4,0.5,0.6,1.1,0.6,1.8
	c0,0.9-0.3,1.6-1,2.2c-0.6,0.6-1.5,0.9-2.7,0.9H289z M291.1,151.5h2.1c0.6,0,1-0.1,1.3-0.4c0.3-0.3,0.5-0.6,0.5-1.1
	c0-0.5-0.2-0.8-0.5-1.1c-0.3-0.3-0.8-0.4-1.4-0.4h-2.1V151.5z M291.1,156.3h2.3c0.6,0,1.1-0.1,1.4-0.4c0.3-0.3,0.5-0.7,0.5-1.2
	c0-0.5-0.2-0.9-0.5-1.2c-0.4-0.3-0.8-0.4-1.4-0.4h-2.3V156.3z M302.9,158.2c-0.8,0-1.5-0.2-2.1-0.5c-0.6-0.4-1.1-0.8-1.5-1.5
	c-0.4-0.6-0.5-1.4-0.5-2.2s0.2-1.5,0.5-2.2c0.4-0.6,0.8-1.1,1.5-1.5c0.6-0.4,1.3-0.5,2.1-0.5c0.8,0,1.4,0.2,2,0.5
	c0.6,0.4,1.1,0.8,1.5,1.5c0.4,0.6,0.5,1.3,0.5,2.2s-0.2,1.5-0.5,2.2c-0.4,0.6-0.8,1.1-1.5,1.5C304.3,158,303.6,158.2,302.9,158.2z
	 M302.9,156.4c0.5,0,1-0.2,1.4-0.6c0.4-0.4,0.6-1,0.6-1.8s-0.2-1.4-0.6-1.8c-0.4-0.4-0.9-0.6-1.4-0.6c-0.5,0-1,0.2-1.4,0.6
	c-0.4,0.4-0.6,1-0.6,1.8s0.2,1.4,0.6,1.8C301.9,156.2,302.4,156.4,302.9,156.4z M312.4,158.2c-0.7,0-1.4-0.2-2-0.5
	c-0.6-0.4-1-0.9-1.4-1.5c-0.3-0.6-0.5-1.3-0.5-2.1c0-0.8,0.2-1.5,0.5-2.1c0.3-0.6,0.8-1.1,1.4-1.5c0.6-0.4,1.3-0.5,2-0.5
	c0.6,0,1.1,0.1,1.6,0.3c0.4,0.2,0.8,0.5,1.1,0.9v-4.7h2V158h-1.8l-0.2-1.1c-0.3,0.4-0.6,0.7-1,0.9
	C313.6,158.1,313.1,158.2,312.4,158.2z M312.9,156.4c0.7,0,1.2-0.2,1.6-0.7c0.4-0.4,0.6-1,0.6-1.7c0-0.7-0.2-1.3-0.6-1.7
	c-0.4-0.4-1-0.7-1.6-0.7c-0.6,0-1.2,0.2-1.6,0.7c-0.4,0.4-0.6,1-0.6,1.7c0,0.7,0.2,1.3,0.6,1.7C311.7,156.2,312.2,156.4,312.9,156.4
	z M320.2,161.5l1.8-4h-0.5l-3.1-7.4h2.2l2.2,5.6l2.3-5.6h2.2l-5,11.5H320.2z"/>
<path d="M250.9,179v-11.2h3.9c0.8,0,1.4,0.1,2,0.4c0.5,0.2,0.9,0.6,1.2,1c0.3,0.4,0.4,0.9,0.4,1.4c0,0.7-0.2,1.3-0.6,1.7
	c-0.4,0.4-0.8,0.7-1.4,0.9c0.4,0.1,0.8,0.2,1.1,0.5s0.6,0.6,0.8,1c0.2,0.4,0.3,0.8,0.3,1.3c0,0.6-0.1,1.1-0.4,1.6
	c-0.3,0.5-0.7,0.8-1.2,1.1c-0.5,0.3-1.2,0.4-2,0.4H250.9z M252.3,172.7h2.5c0.7,0,1.3-0.2,1.6-0.5c0.4-0.3,0.6-0.8,0.6-1.4
	c0-0.6-0.2-1-0.6-1.4c-0.4-0.3-0.9-0.5-1.7-0.5h-2.4V172.7z M252.3,177.9h2.6c0.8,0,1.4-0.2,1.8-0.5c0.4-0.4,0.6-0.9,0.6-1.5
	c0-0.6-0.2-1.1-0.7-1.5c-0.4-0.4-1-0.6-1.8-0.6h-2.5V177.9z M264.1,179.2c-0.7,0-1.4-0.2-2-0.5c-0.6-0.3-1.1-0.8-1.4-1.4
	c-0.3-0.6-0.5-1.4-0.5-2.2s0.2-1.6,0.5-2.2c0.4-0.6,0.8-1.1,1.4-1.5c0.6-0.3,1.3-0.5,2-0.5c0.7,0,1.4,0.2,2,0.5
	c0.6,0.3,1.1,0.8,1.4,1.5c0.4,0.6,0.5,1.3,0.5,2.2s-0.2,1.6-0.5,2.2c-0.4,0.6-0.8,1.1-1.4,1.4C265.5,179,264.9,179.2,264.1,179.2z
	 M264.1,178c0.5,0,0.9-0.1,1.3-0.3s0.7-0.6,1-1s0.4-1,0.4-1.7s-0.1-1.2-0.4-1.7c-0.2-0.4-0.5-0.8-0.9-1c-0.4-0.2-0.8-0.3-1.3-0.3
	c-0.5,0-0.9,0.1-1.3,0.3c-0.4,0.2-0.7,0.6-1,1s-0.4,1-0.4,1.7s0.1,1.2,0.4,1.7s0.6,0.8,0.9,1C263.2,177.9,263.7,178,264.1,178z
	 M273.6,179.2c-0.8,0-1.5-0.2-2.1-0.5c-0.6-0.4-1-0.9-1.4-1.5c-0.3-0.6-0.5-1.3-0.5-2.1c0-0.8,0.2-1.5,0.5-2.1
	c0.3-0.6,0.8-1.1,1.4-1.5c0.6-0.4,1.3-0.5,2.1-0.5c0.6,0,1.2,0.1,1.7,0.4c0.5,0.3,0.9,0.6,1.2,1.1v-4.9h1.3V179h-1.2l-0.1-1.3
	c-0.3,0.4-0.6,0.7-1.1,1C274.9,179,274.3,179.2,273.6,179.2z M273.7,178c0.5,0,1-0.1,1.4-0.4c0.4-0.3,0.7-0.6,1-1.1
	c0.2-0.4,0.4-1,0.4-1.6s-0.1-1.1-0.4-1.6c-0.2-0.4-0.5-0.8-1-1c-0.4-0.3-0.9-0.4-1.4-0.4c-0.5,0-1,0.1-1.4,0.4c-0.4,0.2-0.7,0.6-1,1
	c-0.2,0.4-0.3,1-0.3,1.6s0.1,1.1,0.3,1.6c0.2,0.4,0.6,0.8,1,1.1C272.7,177.9,273.2,178,273.7,178z M280.9,182.5l2-4.3h-0.5l-3.2-7.2
	h1.5l2.6,6.2l2.8-6.2h1.4l-5.2,11.5H280.9z"/>
<path d="M253.3,196.1c-0.6,0-1.2-0.1-1.6-0.3s-0.8-0.5-1.1-0.9c-0.2-0.4-0.4-0.9-0.4-1.4h1.1c0,0.3,0.1,0.6,0.2,0.9
	c0.2,0.3,0.4,0.5,0.7,0.7c0.3,0.2,0.7,0.2,1.1,0.2c0.6,0,1-0.1,1.3-0.4s0.5-0.6,0.5-1c0-0.3-0.1-0.6-0.2-0.8
	c-0.1-0.2-0.3-0.4-0.6-0.5c-0.2-0.1-0.5-0.2-0.8-0.3c-0.3-0.1-0.6-0.2-1-0.3c-0.6-0.2-1.1-0.5-1.4-0.8c-0.3-0.3-0.5-0.8-0.5-1.3
	c0-0.4,0.1-0.8,0.3-1.2c0.2-0.4,0.5-0.6,0.9-0.8c0.4-0.2,0.9-0.3,1.4-0.3c0.5,0,1,0.1,1.4,0.3c0.4,0.2,0.7,0.5,0.9,0.8
	c0.2,0.4,0.3,0.8,0.3,1.2h-1.1c0-0.2-0.1-0.5-0.2-0.7c-0.1-0.2-0.3-0.4-0.6-0.6c-0.2-0.1-0.5-0.2-0.9-0.2c-0.5,0-0.8,0.1-1.1,0.3
	c-0.3,0.2-0.4,0.6-0.4,1c0,0.4,0.1,0.6,0.3,0.8c0.2,0.2,0.5,0.4,0.9,0.5c0.4,0.1,0.8,0.3,1.3,0.4c0.4,0.1,0.8,0.3,1.1,0.5
	s0.6,0.4,0.7,0.7c0.2,0.3,0.3,0.7,0.3,1.2c0,0.4-0.1,0.8-0.3,1.1c-0.2,0.4-0.5,0.6-0.9,0.9C254.5,196,254,196.1,253.3,196.1z
	 M257.5,196v-6h0.9l0.1,0.9c0.2-0.3,0.4-0.6,0.8-0.7s0.7-0.3,1.1-0.3c0.5,0,0.9,0.1,1.2,0.3c0.3,0.2,0.6,0.5,0.8,0.9
	c0.2-0.4,0.5-0.6,0.9-0.9c0.4-0.2,0.8-0.3,1.2-0.3c0.7,0,1.3,0.2,1.7,0.6c0.4,0.4,0.6,1.1,0.6,2v3.5h-1v-3.4c0-0.6-0.1-1.1-0.4-1.4
	c-0.2-0.3-0.6-0.5-1.1-0.5c-0.5,0-0.9,0.2-1.2,0.6c-0.3,0.4-0.5,0.9-0.5,1.6v3.1h-1v-3.4c0-0.6-0.1-1.1-0.4-1.4
	c-0.2-0.3-0.6-0.5-1.1-0.5c-0.5,0-0.9,0.2-1.2,0.6c-0.3,0.4-0.5,0.9-0.5,1.6v3.1H257.5z M270.2,196.1c-0.5,0-0.9-0.1-1.2-0.3
	s-0.6-0.4-0.7-0.7s-0.2-0.6-0.2-0.9c0-0.6,0.2-1.1,0.7-1.4c0.5-0.3,1.1-0.5,1.9-0.5h1.6v-0.1c0-0.5-0.1-0.9-0.4-1.2
	c-0.3-0.3-0.6-0.4-1.1-0.4c-0.4,0-0.7,0.1-1,0.3c-0.3,0.2-0.5,0.5-0.5,0.9h-1c0-0.4,0.2-0.8,0.4-1.1c0.3-0.3,0.6-0.5,0.9-0.7
	c0.4-0.2,0.8-0.2,1.2-0.2c0.8,0,1.5,0.2,1.9,0.7c0.4,0.4,0.6,1,0.6,1.8v3.7h-0.9l-0.1-1.1c-0.2,0.3-0.4,0.6-0.7,0.9
	C271.2,196,270.8,196.1,270.2,196.1z M270.4,195.3c0.4,0,0.7-0.1,1-0.3c0.3-0.2,0.5-0.5,0.6-0.8c0.1-0.3,0.2-0.7,0.2-1v0h-1.5
	c-0.6,0-1,0.1-1.3,0.3c-0.2,0.2-0.4,0.5-0.4,0.8c0,0.3,0.1,0.6,0.3,0.8C269.7,195.2,270,195.3,270.4,195.3z M274.8,196v-8.6h1v8.6
	H274.8z M277.4,196v-8.6h1v8.6H277.4z M283.3,196v-8.4h3c0.6,0,1.1,0.1,1.5,0.3c0.4,0.2,0.7,0.4,0.9,0.8c0.2,0.3,0.3,0.7,0.3,1.1
	c0,0.5-0.1,1-0.4,1.3c-0.3,0.3-0.6,0.5-1,0.6c0.3,0.1,0.6,0.2,0.9,0.4c0.3,0.2,0.5,0.4,0.6,0.7c0.2,0.3,0.2,0.6,0.2,0.9
	c0,0.4-0.1,0.8-0.3,1.2c-0.2,0.3-0.5,0.6-0.9,0.8c-0.4,0.2-0.9,0.3-1.5,0.3H283.3z M284.3,191.3h1.9c0.5,0,0.9-0.1,1.2-0.4
	c0.3-0.3,0.4-0.6,0.4-1.1c0-0.4-0.1-0.8-0.4-1c-0.3-0.3-0.7-0.4-1.3-0.4h-1.8V191.3z M284.3,195.2h1.9c0.6,0,1-0.1,1.3-0.4
	c0.3-0.3,0.5-0.6,0.5-1.1c0-0.5-0.2-0.8-0.5-1.1c-0.3-0.3-0.8-0.4-1.3-0.4h-1.9V195.2z M293.2,196.1c-0.6,0-1.1-0.1-1.5-0.4
	c-0.4-0.3-0.8-0.6-1.1-1.1c-0.3-0.5-0.4-1-0.4-1.7s0.1-1.2,0.4-1.6c0.3-0.5,0.6-0.8,1.1-1.1c0.5-0.3,1-0.4,1.5-0.4s1.1,0.1,1.5,0.4
	c0.4,0.3,0.8,0.6,1.1,1.1c0.3,0.5,0.4,1,0.4,1.6s-0.1,1.2-0.4,1.7c-0.3,0.5-0.6,0.8-1.1,1.1C294.2,196,293.7,196.1,293.2,196.1z
	 M293.2,195.3c0.3,0,0.7-0.1,1-0.3s0.5-0.4,0.7-0.8s0.3-0.8,0.3-1.2s-0.1-0.9-0.3-1.2c-0.2-0.3-0.4-0.6-0.7-0.8
	c-0.3-0.2-0.6-0.3-0.9-0.3c-0.3,0-0.7,0.1-1,0.3s-0.5,0.4-0.7,0.8s-0.3,0.8-0.3,1.2s0.1,0.9,0.3,1.2s0.4,0.6,0.7,0.8
	C292.5,195.2,292.8,195.3,293.2,195.3z M300.3,196.1c-0.6,0-1.1-0.1-1.6-0.4c-0.4-0.3-0.8-0.6-1-1.1c-0.2-0.5-0.4-1-0.4-1.6
	c0-0.6,0.1-1.1,0.4-1.6c0.2-0.5,0.6-0.8,1-1.1c0.4-0.3,1-0.4,1.6-0.4c0.5,0,0.9,0.1,1.3,0.3c0.4,0.2,0.7,0.5,0.9,0.8v-3.7h1v8.6
	h-0.9l-0.1-1c-0.2,0.3-0.5,0.5-0.8,0.8C301.3,196,300.8,196.1,300.3,196.1z M300.4,195.3c0.4,0,0.8-0.1,1.1-0.3
	c0.3-0.2,0.6-0.5,0.7-0.8c0.2-0.3,0.3-0.7,0.3-1.2s-0.1-0.8-0.3-1.2c-0.2-0.3-0.4-0.6-0.7-0.8c-0.3-0.2-0.7-0.3-1.1-0.3
	c-0.4,0-0.7,0.1-1.1,0.3c-0.3,0.2-0.5,0.4-0.7,0.8c-0.2,0.3-0.3,0.7-0.3,1.2s0.1,0.8,0.3,1.2c0.2,0.3,0.4,0.6,0.7,0.8
	C299.6,195.2,300,195.3,300.4,195.3z M305.8,198.6l1.5-3.2h-0.3l-2.4-5.4h1.1l2,4.6l2.1-4.6h1l-3.9,8.6H305.8z"/>
<path d="M435.9,200v-11.2h3.6c0.9,0,1.6,0.1,2.1,0.4c0.6,0.3,1,0.7,1.2,1.2c0.3,0.5,0.4,1.1,0.4,1.7c0,0.7-0.2,1.3-0.6,1.9
	c-0.4,0.6-1,1-1.8,1.2l2.4,4.8h-1.6l-2.3-4.6h-0.1h-2.2v4.6H435.9z M437.3,194.3h2.2c0.9,0,1.5-0.2,1.9-0.6c0.4-0.4,0.6-0.9,0.6-1.6
	c0-0.7-0.2-1.2-0.6-1.6c-0.4-0.4-1-0.6-1.9-0.6h-2.2V194.3z M448.4,200.2c-0.8,0-1.4-0.2-2-0.5c-0.6-0.4-1.1-0.8-1.4-1.5
	c-0.3-0.6-0.5-1.3-0.5-2.2c0-0.8,0.2-1.6,0.5-2.2c0.3-0.6,0.8-1.1,1.4-1.5c0.6-0.4,1.3-0.5,2.1-0.5c0.8,0,1.4,0.2,2,0.5
	c0.6,0.3,1,0.8,1.3,1.4c0.3,0.6,0.4,1.2,0.4,1.8c0,0.1,0,0.2,0,0.4c0,0.1,0,0.3,0,0.4h-6.3c0,0.6,0.2,1.1,0.4,1.5
	c0.3,0.4,0.6,0.7,0.9,0.9c0.4,0.2,0.8,0.3,1.2,0.3c0.6,0,1-0.1,1.4-0.4c0.4-0.3,0.6-0.6,0.8-1h1.3c-0.2,0.7-0.6,1.3-1.2,1.8
	C450.1,200,449.4,200.2,448.4,200.2z M448.4,193c-0.6,0-1.2,0.2-1.7,0.6c-0.5,0.4-0.8,0.9-0.8,1.7h5c0-0.7-0.3-1.3-0.7-1.7
	C449.7,193.2,449.1,193,448.4,193z M457.1,197.5c-0.4,0-0.9-0.1-1.2-0.2l-0.8,0.8c0.1,0.1,0.3,0.2,0.4,0.2c0.2,0.1,0.4,0.1,0.8,0.2
	c0.3,0,0.8,0.1,1.4,0.1c1.1,0.1,1.8,0.3,2.3,0.7c0.5,0.4,0.7,1,0.7,1.6c0,0.5-0.1,0.9-0.4,1.3c-0.2,0.4-0.6,0.8-1.2,1
	c-0.5,0.3-1.2,0.4-2,0.4c-0.7,0-1.3-0.1-1.9-0.3c-0.6-0.2-1-0.5-1.3-0.8c-0.3-0.4-0.5-0.8-0.5-1.4c0-0.3,0.1-0.6,0.2-1
	c0.2-0.3,0.5-0.7,0.9-1c-0.2-0.1-0.4-0.2-0.6-0.3c-0.2-0.1-0.3-0.2-0.4-0.4v-0.4l1.4-1.3c-0.6-0.5-0.9-1.2-0.9-2.1
	c0-0.5,0.1-1,0.4-1.4c0.2-0.4,0.6-0.8,1.1-1c0.5-0.3,1-0.4,1.7-0.4c0.5,0,0.9,0.1,1.2,0.2h2.9v1l-1.5,0.1c0.3,0.4,0.5,1,0.5,1.6
	c0,0.5-0.1,1-0.4,1.4c-0.2,0.4-0.6,0.8-1.1,1C458.3,197.4,457.7,197.5,457.1,197.5z M457.1,196.4c0.6,0,1-0.1,1.3-0.4
	c0.3-0.3,0.5-0.7,0.5-1.3c0-0.5-0.2-1-0.5-1.2c-0.3-0.3-0.8-0.4-1.3-0.4c-0.6,0-1,0.1-1.4,0.4c-0.3,0.3-0.5,0.7-0.5,1.2
	c0,0.6,0.2,1,0.5,1.3C456,196.3,456.5,196.4,457.1,196.4z M454.7,201c0,0.5,0.2,0.9,0.7,1.2c0.4,0.3,1,0.4,1.7,0.4
	c0.7,0,1.2-0.1,1.6-0.4c0.4-0.3,0.6-0.7,0.6-1.2c0-0.3-0.1-0.6-0.4-0.9c-0.3-0.2-0.8-0.4-1.5-0.4c-0.6,0-1.1-0.1-1.5-0.2
	c-0.4,0.2-0.7,0.5-0.9,0.8C454.8,200.6,454.7,200.8,454.7,201z M465.6,200.2c-0.9,0-1.7-0.3-2.2-0.8c-0.6-0.6-0.8-1.5-0.8-2.6v-4.6
	h1.3v4.5c0,1.7,0.7,2.5,2,2.5c0.7,0,1.3-0.2,1.7-0.7c0.5-0.5,0.7-1.2,0.7-2.1v-4.1h1.3v7.9h-1.2l-0.1-1.4c-0.2,0.5-0.6,0.9-1.1,1.2
	C466.8,200,466.3,200.2,465.6,200.2z M471.9,200v-11.5h1.3V200H471.9z M478.1,200.2c-0.7,0-1.2-0.1-1.6-0.3c-0.4-0.2-0.8-0.5-1-0.9
	c-0.2-0.4-0.3-0.8-0.3-1.2c0-0.8,0.3-1.4,0.9-1.9c0.6-0.4,1.5-0.7,2.5-0.7h2.1v-0.1c0-0.7-0.2-1.2-0.5-1.6c-0.4-0.4-0.8-0.5-1.5-0.5
	c-0.5,0-1,0.1-1.4,0.4c-0.4,0.3-0.6,0.6-0.7,1.1h-1.4c0.1-0.6,0.2-1.1,0.6-1.5c0.3-0.4,0.8-0.7,1.3-0.9c0.5-0.2,1-0.3,1.6-0.3
	c1.1,0,1.9,0.3,2.5,0.9c0.6,0.6,0.8,1.4,0.8,2.4v4.9h-1.2l-0.1-1.4c-0.2,0.4-0.6,0.8-1,1.2C479.4,200,478.8,200.2,478.1,200.2z
	 M478.3,199.1c0.5,0,0.9-0.1,1.3-0.4c0.4-0.3,0.7-0.6,0.8-1s0.3-0.9,0.3-1.3v0h-2c-0.8,0-1.3,0.1-1.7,0.4c-0.3,0.3-0.5,0.6-0.5,1
	c0,0.4,0.1,0.8,0.4,1C477.3,198.9,477.7,199.1,478.3,199.1z M484.1,200v-7.9h1.2l0.1,1.5c0.2-0.5,0.6-0.9,1.1-1.2s1.1-0.5,1.9-0.5
	v1.4H488c-0.5,0-0.9,0.1-1.3,0.3c-0.4,0.2-0.7,0.4-0.9,0.8c-0.2,0.4-0.4,0.9-0.4,1.6v4H484.1z M495.3,200v-9.7l-1.8,0.4v-0.9l2.3-1
	h0.9V200H495.3z M498.9,200v-0.9c0.8-0.6,1.5-1.2,2.1-1.8c0.7-0.6,1.3-1.2,1.8-1.8c0.5-0.6,0.9-1.2,1.2-1.8c0.3-0.6,0.5-1.1,0.5-1.7
	c0-0.4-0.1-0.8-0.2-1.1c-0.1-0.3-0.3-0.6-0.6-0.8c-0.3-0.2-0.7-0.3-1.2-0.3c-0.5,0-0.9,0.1-1.2,0.3c-0.3,0.2-0.6,0.5-0.8,0.9
	c-0.2,0.4-0.2,0.8-0.2,1.2H499c0-0.7,0.2-1.4,0.5-1.9c0.3-0.5,0.7-0.9,1.3-1.2c0.5-0.3,1.1-0.4,1.8-0.4c1,0,1.8,0.3,2.4,0.8
	c0.6,0.6,1,1.4,1,2.5c0,0.7-0.2,1.3-0.5,2c-0.3,0.6-0.8,1.3-1.3,1.9c-0.5,0.6-1.1,1.2-1.6,1.7c-0.6,0.5-1.1,1-1.6,1.4h5.4v1.1H498.9
	z M508.1,203.5v-11.5h1.2l0.1,1.3c0.3-0.4,0.6-0.7,1.1-1c0.5-0.3,1.1-0.5,1.8-0.5c0.8,0,1.5,0.2,2.1,0.5c0.6,0.4,1,0.9,1.4,1.5
	c0.3,0.6,0.5,1.3,0.5,2.1s-0.2,1.5-0.5,2.1c-0.3,0.6-0.8,1.1-1.4,1.5c-0.6,0.4-1.3,0.5-2.1,0.5c-0.7,0-1.2-0.1-1.7-0.4
	c-0.5-0.3-0.9-0.6-1.2-1.1v4.8H508.1z M512.2,199c0.5,0,1-0.1,1.4-0.4c0.4-0.3,0.7-0.6,1-1.1c0.2-0.4,0.4-1,0.4-1.6
	s-0.1-1.1-0.4-1.6c-0.2-0.4-0.6-0.8-1-1c-0.4-0.3-0.9-0.4-1.4-0.4c-0.5,0-1,0.1-1.4,0.4c-0.4,0.2-0.7,0.6-1,1
	c-0.2,0.4-0.4,1-0.4,1.6s0.1,1.1,0.4,1.6c0.2,0.4,0.6,0.8,1,1.1C511.2,198.9,511.7,199,512.2,199z M521,200c-0.7,0-1.3-0.2-1.7-0.5
	s-0.6-1-0.6-1.9v-4.4h-1.4v-1.1h1.4l0.2-1.9h1.2v1.9h2.3v1.1H520v4.4c0,0.5,0.1,0.8,0.3,1c0.2,0.2,0.6,0.3,1.1,0.3h0.8v1.2H521z
	 M527.1,200.2c-0.9,0-1.7-0.2-2.4-0.7c-0.6-0.5-1-1.1-1.1-2h1.4c0.1,0.4,0.3,0.8,0.7,1.1c0.4,0.3,0.8,0.4,1.5,0.4
	c0.6,0,1-0.1,1.2-0.4c0.3-0.2,0.4-0.5,0.4-0.9c0-0.5-0.2-0.8-0.5-1c-0.3-0.2-0.8-0.3-1.5-0.4c-0.4-0.1-0.9-0.2-1.3-0.4
	s-0.8-0.4-1.1-0.7c-0.3-0.3-0.4-0.7-0.4-1.2c0-0.7,0.3-1.3,0.8-1.7c0.5-0.4,1.2-0.7,2.1-0.7c0.8,0,1.5,0.2,2.1,0.6
	c0.5,0.4,0.9,1,0.9,1.8h-1.3c-0.1-0.4-0.2-0.7-0.5-0.9c-0.3-0.2-0.7-0.4-1.2-0.4c-0.5,0-0.9,0.1-1.1,0.3c-0.3,0.2-0.4,0.5-0.4,0.8
	c0,0.3,0.2,0.6,0.5,0.8c0.3,0.2,0.8,0.3,1.4,0.5c0.5,0.1,1,0.2,1.4,0.4c0.4,0.1,0.8,0.4,1.1,0.7c0.3,0.3,0.4,0.7,0.4,1.3
	c0,0.7-0.3,1.3-0.8,1.8C528.8,200,528,200.2,527.1,200.2z"/>
<path d="M435.9,179v-11.2h3.6c0.9,0,1.6,0.1,2.1,0.4c0.6,0.3,1,0.7,1.2,1.2c0.3,0.5,0.4,1.1,0.4,1.7c0,0.7-0.2,1.3-0.6,1.9
	c-0.4,0.6-1,1-1.8,1.2l2.4,4.8h-1.6l-2.3-4.6h-0.1h-2.2v4.6H435.9z M437.3,173.3h2.2c0.9,0,1.5-0.2,1.9-0.6c0.4-0.4,0.6-0.9,0.6-1.6
	c0-0.7-0.2-1.2-0.6-1.6c-0.4-0.4-1-0.6-1.9-0.6h-2.2V173.3z M448.4,179.2c-0.8,0-1.4-0.2-2-0.5c-0.6-0.4-1.1-0.8-1.4-1.5
	c-0.3-0.6-0.5-1.3-0.5-2.2c0-0.8,0.2-1.6,0.5-2.2c0.3-0.6,0.8-1.1,1.4-1.5c0.6-0.4,1.3-0.5,2.1-0.5c0.8,0,1.4,0.2,2,0.5
	c0.6,0.3,1,0.8,1.3,1.4c0.3,0.6,0.4,1.2,0.4,1.8c0,0.1,0,0.2,0,0.4c0,0.1,0,0.3,0,0.4h-6.3c0,0.6,0.2,1.1,0.4,1.5
	c0.3,0.4,0.6,0.7,0.9,0.9c0.4,0.2,0.8,0.3,1.2,0.3c0.6,0,1-0.1,1.4-0.4c0.4-0.3,0.6-0.6,0.8-1h1.3c-0.2,0.7-0.6,1.3-1.2,1.8
	C450.1,179,449.4,179.2,448.4,179.2z M448.4,172c-0.6,0-1.2,0.2-1.7,0.6c-0.5,0.4-0.8,0.9-0.8,1.7h5c0-0.7-0.3-1.3-0.7-1.7
	C449.7,172.2,449.1,172,448.4,172z M457.1,176.5c-0.4,0-0.9-0.1-1.2-0.2l-0.8,0.8c0.1,0.1,0.3,0.2,0.4,0.2c0.2,0.1,0.4,0.1,0.8,0.2
	c0.3,0,0.8,0.1,1.4,0.1c1.1,0.1,1.8,0.3,2.3,0.7c0.5,0.4,0.7,1,0.7,1.6c0,0.5-0.1,0.9-0.4,1.3c-0.2,0.4-0.6,0.8-1.2,1
	c-0.5,0.3-1.2,0.4-2,0.4c-0.7,0-1.3-0.1-1.9-0.3c-0.6-0.2-1-0.5-1.3-0.8c-0.3-0.4-0.5-0.8-0.5-1.4c0-0.3,0.1-0.6,0.2-1
	c0.2-0.3,0.5-0.7,0.9-1c-0.2-0.1-0.4-0.2-0.6-0.3c-0.2-0.1-0.3-0.2-0.4-0.4v-0.4l1.4-1.3c-0.6-0.5-0.9-1.2-0.9-2.1
	c0-0.5,0.1-1,0.4-1.4c0.2-0.4,0.6-0.8,1.1-1c0.5-0.3,1-0.4,1.7-0.4c0.5,0,0.9,0.1,1.2,0.2h2.9v1l-1.5,0.1c0.3,0.4,0.5,1,0.5,1.6
	c0,0.5-0.1,1-0.4,1.4c-0.2,0.4-0.6,0.8-1.1,1C458.3,176.4,457.7,176.5,457.1,176.5z M457.1,175.4c0.6,0,1-0.1,1.3-0.4
	c0.3-0.3,0.5-0.7,0.5-1.3c0-0.5-0.2-1-0.5-1.2c-0.3-0.3-0.8-0.4-1.3-0.4c-0.6,0-1,0.1-1.4,0.4c-0.3,0.3-0.5,0.7-0.5,1.2
	c0,0.6,0.2,1,0.5,1.3C456,175.3,456.5,175.4,457.1,175.4z M454.7,180c0,0.5,0.2,0.9,0.7,1.2c0.4,0.3,1,0.4,1.7,0.4
	c0.7,0,1.2-0.1,1.6-0.4c0.4-0.3,0.6-0.7,0.6-1.2c0-0.3-0.1-0.6-0.4-0.9c-0.3-0.2-0.8-0.4-1.5-0.4c-0.6,0-1.1-0.1-1.5-0.2
	c-0.4,0.2-0.7,0.5-0.9,0.8C454.8,179.6,454.7,179.8,454.7,180z M465.6,179.2c-0.9,0-1.7-0.3-2.2-0.8c-0.6-0.6-0.8-1.5-0.8-2.6v-4.6
	h1.3v4.5c0,1.7,0.7,2.5,2,2.5c0.7,0,1.3-0.2,1.7-0.7c0.5-0.5,0.7-1.2,0.7-2.1v-4.1h1.3v7.9h-1.2l-0.1-1.4c-0.2,0.5-0.6,0.9-1.1,1.2
	C466.8,179,466.3,179.2,465.6,179.2z M471.9,179v-11.5h1.3V179H471.9z M478.1,179.2c-0.7,0-1.2-0.1-1.6-0.3c-0.4-0.2-0.8-0.5-1-0.9
	c-0.2-0.4-0.3-0.8-0.3-1.2c0-0.8,0.3-1.4,0.9-1.9c0.6-0.4,1.5-0.7,2.5-0.7h2.1v-0.1c0-0.7-0.2-1.2-0.5-1.6c-0.4-0.4-0.8-0.5-1.5-0.5
	c-0.5,0-1,0.1-1.4,0.4c-0.4,0.3-0.6,0.6-0.7,1.1h-1.4c0.1-0.6,0.2-1.1,0.6-1.5c0.3-0.4,0.8-0.7,1.3-0.9c0.5-0.2,1-0.3,1.6-0.3
	c1.1,0,1.9,0.3,2.5,0.9c0.6,0.6,0.8,1.4,0.8,2.4v4.9h-1.2l-0.1-1.4c-0.2,0.4-0.6,0.8-1,1.2C479.4,179,478.8,179.2,478.1,179.2z
	 M478.3,178.1c0.5,0,0.9-0.1,1.3-0.4c0.4-0.3,0.7-0.6,0.8-1s0.3-0.9,0.3-1.3v0h-2c-0.8,0-1.3,0.1-1.7,0.4c-0.3,0.3-0.5,0.6-0.5,1
	c0,0.4,0.1,0.8,0.4,1C477.3,177.9,477.7,178.1,478.3,178.1z M484.1,179v-7.9h1.2l0.1,1.5c0.2-0.5,0.6-0.9,1.1-1.2s1.1-0.5,1.9-0.5
	v1.4H488c-0.5,0-0.9,0.1-1.3,0.3c-0.4,0.2-0.7,0.4-0.9,0.8c-0.2,0.4-0.4,0.9-0.4,1.6v4H484.1z M495.3,179v-9.7l-1.8,0.4v-0.9l2.3-1
	h0.9V179H495.3z M503.1,179.2c-0.8,0-1.5-0.1-2-0.4c-0.6-0.3-1-0.7-1.3-1.2c-0.3-0.5-0.6-1.1-0.7-1.7c-0.1-0.6-0.2-1.3-0.2-2
	c0-1.2,0.2-2.3,0.5-3.2c0.3-0.9,0.8-1.7,1.5-2.2c0.7-0.5,1.4-0.8,2.4-0.8c0.7,0,1.3,0.1,1.8,0.4c0.5,0.3,0.9,0.7,1.2,1.1
	c0.3,0.5,0.5,1,0.6,1.5h-1.2c-0.1-0.6-0.4-1.1-0.8-1.4c-0.4-0.3-0.9-0.5-1.5-0.5c-0.8,0-1.6,0.4-2.1,1.2c-0.6,0.8-0.9,2-0.9,3.7
	c0.3-0.5,0.7-0.9,1.2-1.3c0.6-0.4,1.2-0.6,2-0.6c0.6,0,1.2,0.1,1.8,0.4c0.6,0.3,1,0.7,1.4,1.3c0.4,0.5,0.5,1.2,0.5,1.9
	c0,0.6-0.2,1.2-0.5,1.8c-0.3,0.6-0.8,1-1.3,1.4C504.6,179,503.9,179.2,503.1,179.2z M503,178c0.5,0,0.9-0.1,1.3-0.3s0.7-0.5,0.9-0.9
	c0.2-0.4,0.3-0.8,0.3-1.3c0-0.8-0.3-1.4-0.8-1.8c-0.5-0.5-1.1-0.7-1.9-0.7c-0.5,0-0.9,0.1-1.3,0.4c-0.4,0.2-0.7,0.5-0.9,0.9
	c-0.2,0.4-0.3,0.8-0.3,1.2c0,0.5,0.1,0.9,0.3,1.3c0.2,0.4,0.5,0.7,0.9,0.9S502.5,178,503,178z M509.1,182.5v-11.5h1.2l0.1,1.3
	c0.3-0.4,0.6-0.7,1.1-1c0.5-0.3,1.1-0.5,1.8-0.5c0.8,0,1.5,0.2,2.1,0.5c0.6,0.4,1,0.9,1.4,1.5c0.3,0.6,0.5,1.3,0.5,2.1
	s-0.2,1.5-0.5,2.1c-0.3,0.6-0.8,1.1-1.4,1.5c-0.6,0.4-1.3,0.5-2.1,0.5c-0.7,0-1.2-0.1-1.7-0.4c-0.5-0.3-0.9-0.6-1.2-1.1v4.8H509.1z
	 M513.2,178c0.5,0,1-0.1,1.4-0.4c0.4-0.3,0.7-0.6,1-1.1c0.2-0.4,0.4-1,0.4-1.6s-0.1-1.1-0.4-1.6s-0.6-0.8-1-1
	c-0.4-0.3-0.9-0.4-1.4-0.4c-0.5,0-1,0.1-1.4,0.4c-0.4,0.2-0.7,0.6-1,1c-0.2,0.4-0.4,1-0.4,1.6s0.1,1.1,0.4,1.6
	c0.2,0.4,0.6,0.8,1,1.1C512.2,177.9,512.6,178,513.2,178z M521.9,179c-0.7,0-1.3-0.2-1.7-0.5s-0.6-1-0.6-1.9v-4.4h-1.4v-1.1h1.4
	l0.2-1.9h1.2v1.9h2.3v1.1h-2.3v4.4c0,0.5,0.1,0.8,0.3,1c0.2,0.2,0.6,0.3,1.1,0.3h0.8v1.2H521.9z M528,179.2c-0.9,0-1.7-0.2-2.4-0.7
	s-1-1.1-1.1-2h1.4c0.1,0.4,0.3,0.8,0.7,1.1c0.4,0.3,0.8,0.4,1.5,0.4c0.6,0,1-0.1,1.2-0.4c0.3-0.2,0.4-0.5,0.4-0.9
	c0-0.5-0.2-0.8-0.5-1c-0.3-0.2-0.8-0.3-1.5-0.4c-0.4-0.1-0.9-0.2-1.3-0.4s-0.8-0.4-1.1-0.7c-0.3-0.3-0.4-0.7-0.4-1.2
	c0-0.7,0.3-1.3,0.8-1.7c0.5-0.4,1.2-0.7,2.1-0.7c0.8,0,1.5,0.2,2.1,0.6c0.5,0.4,0.9,1,0.9,1.8h-1.3c-0.1-0.4-0.2-0.7-0.5-0.9
	c-0.3-0.2-0.7-0.4-1.2-0.4c-0.5,0-0.9,0.1-1.1,0.3c-0.3,0.2-0.4,0.5-0.4,0.8c0,0.3,0.2,0.6,0.5,0.8c0.3,0.2,0.8,0.3,1.4,0.5
	c0.5,0.1,1,0.2,1.4,0.4c0.4,0.1,0.8,0.4,1.1,0.7c0.3,0.3,0.4,0.7,0.4,1.3c0,0.7-0.3,1.3-0.8,1.8C529.7,179,529,179.2,528,179.2z"/>
<path d="M435.9,158v-11.2h3.9c0.8,0,1.4,0.1,2,0.4c0.5,0.2,0.9,0.6,1.2,1c0.3,0.4,0.4,0.9,0.4,1.4c0,0.7-0.2,1.3-0.6,1.7
	c-0.4,0.4-0.8,0.7-1.4,0.9c0.4,0.1,0.8,0.2,1.1,0.5s0.6,0.6,0.8,1c0.2,0.4,0.3,0.8,0.3,1.3c0,0.6-0.1,1.1-0.4,1.6
	c-0.3,0.5-0.7,0.8-1.2,1.1c-0.5,0.3-1.2,0.4-2,0.4H435.9z M437.3,151.7h2.5c0.7,0,1.3-0.2,1.6-0.5c0.4-0.3,0.6-0.8,0.6-1.4
	c0-0.6-0.2-1-0.6-1.4c-0.4-0.3-0.9-0.5-1.7-0.5h-2.4V151.7z M437.3,156.9h2.6c0.8,0,1.4-0.2,1.8-0.5c0.4-0.4,0.6-0.9,0.6-1.5
	c0-0.6-0.2-1.1-0.7-1.5c-0.4-0.4-1-0.6-1.8-0.6h-2.5V156.9z M449.1,158.2c-0.7,0-1.4-0.2-2-0.5c-0.6-0.3-1.1-0.8-1.4-1.4
	c-0.3-0.6-0.5-1.4-0.5-2.2s0.2-1.6,0.5-2.2c0.4-0.6,0.8-1.1,1.4-1.5c0.6-0.3,1.3-0.5,2-0.5s1.4,0.2,2,0.5s1.1,0.8,1.4,1.5
	c0.4,0.6,0.5,1.3,0.5,2.2s-0.2,1.6-0.5,2.2c-0.4,0.6-0.8,1.1-1.4,1.4C450.5,158,449.9,158.2,449.1,158.2z M449.1,157
	c0.5,0,0.9-0.1,1.3-0.3s0.7-0.6,1-1s0.4-1,0.4-1.7s-0.1-1.2-0.4-1.7c-0.2-0.4-0.5-0.8-0.9-1s-0.8-0.3-1.3-0.3
	c-0.5,0-0.9,0.1-1.3,0.3c-0.4,0.2-0.7,0.6-1,1s-0.4,1-0.4,1.7s0.1,1.2,0.4,1.7s0.6,0.8,0.9,1C448.2,156.9,448.7,157,449.1,157z
	 M455,158v-11.5h1.3V158H455z M462.1,158.2c-0.8,0-1.5-0.2-2.1-0.5c-0.6-0.4-1-0.9-1.4-1.5c-0.3-0.6-0.5-1.3-0.5-2.1
	c0-0.8,0.2-1.5,0.5-2.1c0.3-0.6,0.8-1.1,1.4-1.5c0.6-0.4,1.3-0.5,2.1-0.5c0.6,0,1.2,0.1,1.7,0.4c0.5,0.3,0.9,0.6,1.2,1.1v-4.9h1.3
	V158h-1.2l-0.1-1.3c-0.3,0.4-0.6,0.7-1.1,1C463.4,158,462.8,158.2,462.1,158.2z M462.2,157c0.5,0,1-0.1,1.4-0.4
	c0.4-0.3,0.7-0.6,1-1.1c0.2-0.4,0.4-1,0.4-1.6s-0.1-1.1-0.4-1.6c-0.2-0.4-0.5-0.8-1-1c-0.4-0.3-0.9-0.4-1.4-0.4
	c-0.5,0-1,0.1-1.4,0.4c-0.4,0.2-0.7,0.6-1,1c-0.2,0.4-0.3,1-0.3,1.6s0.1,1.1,0.3,1.6c0.2,0.4,0.6,0.8,1,1.1
	C461.3,156.9,461.7,157,462.2,157z M474,158v-9.7l-1.8,0.4v-0.9l2.3-1h0.9V158H474z M481.7,158.2c-0.8,0-1.5-0.1-2-0.4
	c-0.6-0.3-1-0.7-1.3-1.2c-0.3-0.5-0.6-1.1-0.7-1.7c-0.1-0.6-0.2-1.3-0.2-2c0-1.2,0.2-2.3,0.5-3.2c0.3-0.9,0.8-1.7,1.5-2.2
	c0.7-0.5,1.4-0.8,2.4-0.8c0.7,0,1.3,0.1,1.8,0.4c0.5,0.3,0.9,0.7,1.2,1.1c0.3,0.5,0.5,1,0.6,1.5H484c-0.1-0.6-0.4-1.1-0.8-1.4
	c-0.4-0.3-0.9-0.5-1.5-0.5c-0.8,0-1.6,0.4-2.1,1.2c-0.6,0.8-0.9,2-0.9,3.7c0.3-0.5,0.7-0.9,1.2-1.3c0.6-0.4,1.2-0.6,2-0.6
	c0.6,0,1.2,0.1,1.8,0.4c0.6,0.3,1,0.7,1.4,1.3c0.4,0.5,0.5,1.2,0.5,1.9c0,0.6-0.2,1.2-0.5,1.8c-0.3,0.6-0.8,1-1.3,1.4
	C483.2,158,482.5,158.2,481.7,158.2z M481.6,157c0.5,0,0.9-0.1,1.3-0.3s0.7-0.5,0.9-0.9c0.2-0.4,0.3-0.8,0.3-1.3
	c0-0.8-0.3-1.4-0.8-1.8c-0.5-0.5-1.1-0.7-1.9-0.7c-0.5,0-0.9,0.1-1.3,0.4c-0.4,0.2-0.7,0.5-0.9,0.9c-0.2,0.4-0.3,0.8-0.3,1.2
	c0,0.5,0.1,0.9,0.3,1.3c0.2,0.4,0.5,0.7,0.9,0.9S481.1,157,481.6,157z M487.7,161.5v-11.5h1.2l0.1,1.3c0.3-0.4,0.6-0.7,1.1-1
	c0.5-0.3,1.1-0.5,1.8-0.5c0.8,0,1.5,0.2,2.1,0.5c0.6,0.4,1,0.9,1.4,1.5c0.3,0.6,0.5,1.3,0.5,2.1s-0.2,1.5-0.5,2.1
	c-0.3,0.6-0.8,1.1-1.4,1.5c-0.6,0.4-1.3,0.5-2.1,0.5c-0.7,0-1.2-0.1-1.7-0.4c-0.5-0.3-0.9-0.6-1.2-1.1v4.8H487.7z M491.8,157
	c0.5,0,1-0.1,1.4-0.4c0.4-0.3,0.7-0.6,1-1.1c0.2-0.4,0.4-1,0.4-1.6s-0.1-1.1-0.4-1.6s-0.6-0.8-1-1c-0.4-0.3-0.9-0.4-1.4-0.4
	c-0.5,0-1,0.1-1.4,0.4c-0.4,0.2-0.7,0.6-1,1c-0.2,0.4-0.4,1-0.4,1.6s0.1,1.1,0.4,1.6c0.2,0.4,0.6,0.8,1,1.1
	C490.8,156.9,491.3,157,491.8,157z M500.6,158c-0.7,0-1.3-0.2-1.7-0.5s-0.6-1-0.6-1.9v-4.4h-1.4v-1.1h1.4l0.2-1.9h1.2v1.9h2.3v1.1
	h-2.3v4.4c0,0.5,0.1,0.8,0.3,1c0.2,0.2,0.6,0.3,1.1,0.3h0.8v1.2H500.6z M506.7,158.2c-0.9,0-1.7-0.2-2.4-0.7s-1-1.1-1.1-2h1.4
	c0.1,0.4,0.3,0.8,0.7,1.1c0.4,0.3,0.8,0.4,1.5,0.4c0.6,0,1-0.1,1.2-0.4c0.3-0.2,0.4-0.5,0.4-0.9c0-0.5-0.2-0.8-0.5-1
	c-0.3-0.2-0.8-0.3-1.5-0.4c-0.4-0.1-0.9-0.2-1.3-0.4s-0.8-0.4-1.1-0.7c-0.3-0.3-0.4-0.7-0.4-1.2c0-0.7,0.3-1.3,0.8-1.7
	c0.5-0.4,1.2-0.7,2.1-0.7c0.8,0,1.5,0.2,2.1,0.6c0.5,0.4,0.9,1,0.9,1.8h-1.3c-0.1-0.4-0.2-0.7-0.5-0.9c-0.3-0.2-0.7-0.4-1.2-0.4
	c-0.5,0-0.9,0.1-1.1,0.3c-0.3,0.2-0.4,0.5-0.4,0.8c0,0.3,0.2,0.6,0.5,0.8c0.3,0.2,0.8,0.3,1.4,0.5c0.5,0.1,1,0.2,1.4,0.4
	c0.4,0.1,0.8,0.4,1.1,0.7c0.3,0.3,0.4,0.7,0.4,1.3c0,0.7-0.3,1.3-0.8,1.8C508.3,158,507.6,158.2,506.7,158.2z"/>
<path d="M435.9,254v-11.2h3.9c0.8,0,1.4,0.1,2,0.4c0.5,0.2,0.9,0.6,1.2,1c0.3,0.4,0.4,0.9,0.4,1.4c0,0.7-0.2,1.3-0.6,1.7
	c-0.4,0.4-0.8,0.7-1.4,0.9c0.4,0.1,0.8,0.2,1.1,0.5s0.6,0.6,0.8,1c0.2,0.4,0.3,0.8,0.3,1.3c0,0.6-0.1,1.1-0.4,1.6
	c-0.3,0.5-0.7,0.8-1.2,1.1c-0.5,0.3-1.2,0.4-2,0.4H435.9z M437.3,247.7h2.5c0.7,0,1.3-0.2,1.6-0.5c0.4-0.3,0.6-0.8,0.6-1.4
	c0-0.6-0.2-1-0.6-1.4c-0.4-0.3-0.9-0.5-1.7-0.5h-2.4V247.7z M437.3,252.9h2.6c0.8,0,1.4-0.2,1.8-0.5c0.4-0.4,0.6-0.9,0.6-1.5
	c0-0.6-0.2-1.1-0.7-1.5c-0.4-0.4-1-0.6-1.8-0.6h-2.5V252.9z M449.1,254.2c-0.7,0-1.4-0.2-2-0.5c-0.6-0.3-1.1-0.8-1.4-1.4
	c-0.3-0.6-0.5-1.4-0.5-2.2s0.2-1.6,0.5-2.2c0.4-0.6,0.8-1.1,1.4-1.5c0.6-0.3,1.3-0.5,2-0.5s1.4,0.2,2,0.5s1.1,0.8,1.4,1.5
	c0.4,0.6,0.5,1.3,0.5,2.2s-0.2,1.6-0.5,2.2c-0.4,0.6-0.8,1.1-1.4,1.4C450.5,254,449.9,254.2,449.1,254.2z M449.1,253
	c0.5,0,0.9-0.1,1.3-0.3s0.7-0.6,1-1s0.4-1,0.4-1.7s-0.1-1.2-0.4-1.7c-0.2-0.4-0.5-0.8-0.9-1s-0.8-0.3-1.3-0.3
	c-0.5,0-0.9,0.1-1.3,0.3c-0.4,0.2-0.7,0.6-1,1s-0.4,1-0.4,1.7s0.1,1.2,0.4,1.7s0.6,0.8,0.9,1C448.2,252.9,448.7,253,449.1,253z
	 M455,254v-11.5h1.3V254H455z M462.1,254.2c-0.8,0-1.5-0.2-2.1-0.5c-0.6-0.4-1-0.9-1.4-1.5c-0.3-0.6-0.5-1.3-0.5-2.1
	c0-0.8,0.2-1.5,0.5-2.1c0.3-0.6,0.8-1.1,1.4-1.5c0.6-0.4,1.3-0.5,2.1-0.5c0.6,0,1.2,0.1,1.7,0.4c0.5,0.3,0.9,0.6,1.2,1.1v-4.9h1.3
	V254h-1.2l-0.1-1.3c-0.3,0.4-0.6,0.7-1.1,1C463.4,254,462.8,254.2,462.1,254.2z M462.2,253c0.5,0,1-0.1,1.4-0.4
	c0.4-0.3,0.7-0.6,1-1.1c0.2-0.4,0.4-1,0.4-1.6s-0.1-1.1-0.4-1.6c-0.2-0.4-0.5-0.8-1-1c-0.4-0.3-0.9-0.4-1.4-0.4
	c-0.5,0-1,0.1-1.4,0.4c-0.4,0.2-0.7,0.6-1,1c-0.2,0.4-0.3,1-0.3,1.6s0.1,1.1,0.3,1.6c0.2,0.4,0.6,0.8,1,1.1
	C461.3,252.9,461.7,253,462.2,253z M474,254v-9.7l-1.8,0.4v-0.9l2.3-1h0.9V254H474z M481.7,254.2c-0.8,0-1.5-0.1-2-0.4
	c-0.6-0.3-1-0.7-1.3-1.2c-0.3-0.5-0.6-1.1-0.7-1.7c-0.1-0.6-0.2-1.3-0.2-2c0-1.2,0.2-2.3,0.5-3.2c0.3-0.9,0.8-1.7,1.5-2.2
	c0.7-0.5,1.4-0.8,2.4-0.8c0.7,0,1.3,0.1,1.8,0.4c0.5,0.3,0.9,0.7,1.2,1.1c0.3,0.5,0.5,1,0.6,1.5H484c-0.1-0.6-0.4-1.1-0.8-1.4
	c-0.4-0.3-0.9-0.5-1.5-0.5c-0.8,0-1.6,0.4-2.1,1.2c-0.6,0.8-0.9,2-0.9,3.7c0.3-0.5,0.7-0.9,1.2-1.3c0.6-0.4,1.2-0.6,2-0.6
	c0.6,0,1.2,0.1,1.8,0.4c0.6,0.3,1,0.7,1.4,1.3c0.4,0.5,0.5,1.2,0.5,1.9c0,0.6-0.2,1.2-0.5,1.8c-0.3,0.6-0.8,1-1.3,1.4
	C483.2,254,482.5,254.2,481.7,254.2z M481.6,253c0.5,0,0.9-0.1,1.3-0.3s0.7-0.5,0.9-0.9c0.2-0.4,0.3-0.8,0.3-1.3
	c0-0.8-0.3-1.4-0.8-1.8c-0.5-0.5-1.1-0.7-1.9-0.7c-0.5,0-0.9,0.1-1.3,0.4c-0.4,0.2-0.7,0.5-0.9,0.9c-0.2,0.4-0.3,0.8-0.3,1.2
	c0,0.5,0.1,0.9,0.3,1.3c0.2,0.4,0.5,0.7,0.9,0.9S481.1,253,481.6,253z M487.7,257.5v-11.5h1.2l0.1,1.3c0.3-0.4,0.6-0.7,1.1-1
	c0.5-0.3,1.1-0.5,1.8-0.5c0.8,0,1.5,0.2,2.1,0.5c0.6,0.4,1,0.9,1.4,1.5c0.3,0.6,0.5,1.3,0.5,2.1s-0.2,1.5-0.5,2.1
	c-0.3,0.6-0.8,1.1-1.4,1.5c-0.6,0.4-1.3,0.5-2.1,0.5c-0.7,0-1.2-0.1-1.7-0.4c-0.5-0.3-0.9-0.6-1.2-1.1v4.8H487.7z M491.8,253
	c0.5,0,1-0.1,1.4-0.4c0.4-0.3,0.7-0.6,1-1.1c0.2-0.4,0.4-1,0.4-1.6s-0.1-1.1-0.4-1.6s-0.6-0.8-1-1c-0.4-0.3-0.9-0.4-1.4-0.4
	c-0.5,0-1,0.1-1.4,0.4c-0.4,0.2-0.7,0.6-1,1c-0.2,0.4-0.4,1-0.4,1.6s0.1,1.1,0.4,1.6c0.2,0.4,0.6,0.8,1,1.1
	C490.8,252.9,491.3,253,491.8,253z M500.6,254c-0.7,0-1.3-0.2-1.7-0.5s-0.6-1-0.6-1.9v-4.4h-1.4v-1.1h1.4l0.2-1.9h1.2v1.9h2.3v1.1
	h-2.3v4.4c0,0.5,0.1,0.8,0.3,1c0.2,0.2,0.6,0.3,1.1,0.3h0.8v1.2H500.6z M506.7,254.2c-0.9,0-1.7-0.2-2.4-0.7s-1-1.1-1.1-2h1.4
	c0.1,0.4,0.3,0.8,0.7,1.1c0.4,0.3,0.8,0.4,1.5,0.4c0.6,0,1-0.1,1.2-0.4c0.3-0.2,0.4-0.5,0.4-0.9c0-0.5-0.2-0.8-0.5-1
	c-0.3-0.2-0.8-0.3-1.5-0.4c-0.4-0.1-0.9-0.2-1.3-0.4s-0.8-0.4-1.1-0.7c-0.3-0.3-0.4-0.7-0.4-1.2c0-0.7,0.3-1.3,0.8-1.7
	c0.5-0.4,1.2-0.7,2.1-0.7c0.8,0,1.5,0.2,2.1,0.6c0.5,0.4,0.9,1,0.9,1.8h-1.3c-0.1-0.4-0.2-0.7-0.5-0.9c-0.3-0.2-0.7-0.4-1.2-0.4
	c-0.5,0-0.9,0.1-1.1,0.3c-0.3,0.2-0.4,0.5-0.4,0.8c0,0.3,0.2,0.6,0.5,0.8c0.3,0.2,0.8,0.3,1.4,0.5c0.5,0.1,1,0.2,1.4,0.4
	c0.4,0.1,0.8,0.4,1.1,0.7c0.3,0.3,0.4,0.7,0.4,1.3c0,0.7-0.3,1.3-0.8,1.8C508.3,254,507.6,254.2,506.7,254.2z"/>
<path d="M103.1,166v-14h5.2c1.1,0,2,0.2,2.8,0.6s1.3,0.9,1.6,1.5c0.4,0.7,0.5,1.4,0.5,2.2c0,0.8-0.2,1.5-0.5,2.1
	c-0.3,0.6-0.9,1.2-1.6,1.6c-0.7,0.4-1.7,0.6-2.8,0.6h-2.6v5.4H103.1z M105.7,158.5h2.5c0.9,0,1.5-0.2,1.9-0.6
	c0.4-0.4,0.6-0.9,0.6-1.6c0-0.7-0.2-1.2-0.6-1.6c-0.4-0.4-1-0.6-1.9-0.6h-2.5V158.5z M118,166.2c-0.9,0-1.6-0.1-2.1-0.4
	c-0.5-0.3-1-0.6-1.2-1.1c-0.3-0.5-0.4-1-0.4-1.5c0-0.9,0.4-1.7,1.1-2.2s1.8-0.9,3.2-0.9h2.5v-0.2c0-0.7-0.2-1.2-0.6-1.5
	c-0.4-0.3-0.9-0.5-1.4-0.5c-0.5,0-1,0.1-1.4,0.4c-0.4,0.2-0.6,0.6-0.7,1.1h-2.5c0.1-0.7,0.3-1.3,0.7-1.9c0.4-0.5,1-0.9,1.6-1.2
	c0.7-0.3,1.4-0.4,2.2-0.4c1.4,0,2.5,0.4,3.3,1.1c0.8,0.7,1.2,1.7,1.2,3v6.1h-2.2l-0.2-1.6c-0.3,0.5-0.7,1-1.2,1.3
	C119.5,166.1,118.8,166.2,118,166.2z M118.6,164.2c0.7,0,1.3-0.2,1.7-0.7c0.4-0.5,0.7-1.1,0.8-1.8h-2.2c-0.7,0-1.2,0.1-1.5,0.4
	c-0.3,0.2-0.4,0.5-0.4,0.9c0,0.4,0.1,0.7,0.4,0.9C117.7,164.1,118.1,164.2,118.6,164.2z M126.1,166v-9.9h2.3l0.2,1.9
	c0.4-0.6,0.8-1.1,1.5-1.5c0.6-0.4,1.4-0.6,2.2-0.6v2.7h-0.7c-0.6,0-1.1,0.1-1.5,0.3s-0.8,0.5-1,0.9c-0.2,0.4-0.4,1-0.4,1.8v4.5
	H126.1z M137.5,166.2c-0.9,0-1.6-0.1-2.1-0.4c-0.5-0.3-1-0.6-1.2-1.1c-0.3-0.5-0.4-1-0.4-1.5c0-0.9,0.4-1.7,1.1-2.2s1.8-0.9,3.2-0.9
	h2.5v-0.2c0-0.7-0.2-1.2-0.6-1.5c-0.4-0.3-0.9-0.5-1.4-0.5c-0.5,0-1,0.1-1.4,0.4c-0.4,0.2-0.6,0.6-0.7,1.1H134
	c0.1-0.7,0.3-1.3,0.7-1.9c0.4-0.5,1-0.9,1.6-1.2c0.7-0.3,1.4-0.4,2.2-0.4c1.4,0,2.5,0.4,3.3,1.1c0.8,0.7,1.2,1.7,1.2,3v6.1H141
	l-0.2-1.6c-0.3,0.5-0.7,1-1.2,1.3C139,166.1,138.3,166.2,137.5,166.2z M138.1,164.2c0.7,0,1.3-0.2,1.7-0.7c0.4-0.5,0.7-1.1,0.8-1.8
	h-2.2c-0.7,0-1.2,0.1-1.5,0.4c-0.3,0.2-0.4,0.5-0.4,0.9c0,0.4,0.1,0.7,0.4,0.9S137.6,164.2,138.1,164.2z M149.8,163
	c-0.5,0-0.9-0.1-1.3-0.2l-0.7,0.7c0.2,0.1,0.5,0.2,0.9,0.3s1,0.2,1.9,0.2c1.3,0.1,2.3,0.4,2.9,0.9c0.6,0.5,0.9,1.2,0.9,2.1
	c0,0.6-0.2,1.1-0.5,1.7c-0.3,0.5-0.8,1-1.5,1.3c-0.7,0.3-1.5,0.5-2.6,0.5c-1.4,0-2.6-0.3-3.4-0.8c-0.9-0.5-1.3-1.3-1.3-2.4
	c0-0.9,0.4-1.7,1.3-2.3c-0.3-0.1-0.5-0.2-0.7-0.4c-0.2-0.1-0.4-0.3-0.5-0.4v-0.5l1.7-1.8c-0.8-0.7-1.2-1.6-1.2-2.6
	c0-0.7,0.2-1.3,0.5-1.8c0.3-0.5,0.8-1,1.4-1.3c0.6-0.3,1.3-0.5,2.2-0.5c0.6,0,1.1,0.1,1.6,0.2h3.8v1.6l-1.7,0.1
	c0.3,0.5,0.4,1.1,0.4,1.7c0,0.7-0.2,1.3-0.5,1.8c-0.3,0.5-0.8,1-1.4,1.3C151.3,162.9,150.6,163,149.8,163z M149.8,161.1
	c0.5,0,0.9-0.1,1.3-0.4c0.3-0.3,0.5-0.7,0.5-1.2c0-0.5-0.2-0.9-0.5-1.2c-0.3-0.3-0.8-0.4-1.3-0.4c-0.5,0-1,0.1-1.3,0.4
	s-0.5,0.7-0.5,1.2c0,0.5,0.2,0.9,0.5,1.2S149.3,161.1,149.8,161.1z M147.4,167.2c0,0.5,0.2,0.9,0.7,1.1c0.5,0.3,1,0.4,1.7,0.4
	c0.6,0,1.2-0.1,1.6-0.4c0.4-0.3,0.6-0.6,0.6-1c0-0.4-0.1-0.7-0.4-0.9c-0.3-0.2-0.8-0.4-1.5-0.4c-0.5,0-1.1-0.1-1.5-0.2
	c-0.4,0.2-0.7,0.4-0.8,0.7C147.5,166.7,147.4,167,147.4,167.2z M157,166v-9.9h2.3l0.2,1.9c0.4-0.6,0.8-1.1,1.5-1.5
	c0.6-0.4,1.4-0.6,2.2-0.6v2.7h-0.7c-0.6,0-1.1,0.1-1.5,0.3s-0.8,0.5-1,0.9c-0.2,0.4-0.4,1-0.4,1.8v4.5H157z M168.3,166.2
	c-0.9,0-1.6-0.1-2.1-0.4c-0.5-0.3-1-0.6-1.2-1.1c-0.3-0.5-0.4-1-0.4-1.5c0-0.9,0.4-1.7,1.1-2.2s1.8-0.9,3.2-0.9h2.5v-0.2
	c0-0.7-0.2-1.2-0.6-1.5c-0.4-0.3-0.9-0.5-1.4-0.5c-0.5,0-1,0.1-1.4,0.4c-0.4,0.2-0.6,0.6-0.7,1.1h-2.5c0.1-0.7,0.3-1.3,0.7-1.9
	c0.4-0.5,1-0.9,1.6-1.2c0.7-0.3,1.4-0.4,2.2-0.4c1.4,0,2.5,0.4,3.3,1.1c0.8,0.7,1.2,1.7,1.2,3v6.1h-2.2l-0.2-1.6
	c-0.3,0.5-0.7,1-1.2,1.3C169.8,166.1,169.2,166.2,168.3,166.2z M168.9,164.2c0.7,0,1.3-0.2,1.7-0.7c0.4-0.5,0.7-1.1,0.8-1.8h-2.2
	c-0.7,0-1.2,0.1-1.5,0.4c-0.3,0.2-0.4,0.5-0.4,0.9c0,0.4,0.1,0.7,0.4,0.9C168,164.1,168.4,164.2,168.9,164.2z M176.5,170.4v-14.3
	h2.3l0.3,1.4c0.3-0.4,0.7-0.8,1.3-1.2c0.5-0.3,1.2-0.5,2.1-0.5c0.9,0,1.8,0.2,2.5,0.7c0.7,0.5,1.3,1.1,1.7,1.9
	c0.4,0.8,0.6,1.7,0.6,2.7s-0.2,1.9-0.6,2.7c-0.4,0.8-1,1.4-1.7,1.8c-0.7,0.4-1.6,0.7-2.5,0.7c-0.7,0-1.4-0.1-2-0.4
	c-0.6-0.3-1-0.7-1.4-1.2v5.8H176.5z M181.8,164c0.8,0,1.5-0.3,2-0.8c0.5-0.5,0.8-1.3,0.8-2.1s-0.3-1.6-0.8-2.1
	c-0.5-0.6-1.2-0.8-2-0.8c-0.8,0-1.5,0.3-2,0.8c-0.5,0.5-0.8,1.3-0.8,2.1c0,0.9,0.3,1.6,0.8,2.1C180.3,163.7,181,164,181.8,164z
	 M189.5,166v-14.4h2.6v6c0.3-0.5,0.8-1,1.3-1.3c0.6-0.3,1.2-0.5,2-0.5c1.2,0,2.2,0.4,2.8,1.2c0.7,0.8,1,1.9,1,3.4v5.6h-2.5v-5.4
	c0-0.9-0.2-1.5-0.5-2c-0.3-0.5-0.9-0.7-1.6-0.7c-0.7,0-1.3,0.3-1.8,0.8c-0.5,0.5-0.7,1.2-0.7,2.1v5.1H189.5z"/>
<path d="M103.1,121v-14h2.6v5.8h6.3V107h2.6v14H112v-6.1h-6.3v6.1H103.1z M116.9,121v-1.9c0.9-0.7,1.7-1.4,2.5-2.1
	c0.8-0.7,1.5-1.4,2.2-2.1c0.6-0.7,1.1-1.3,1.5-2c0.4-0.7,0.6-1.3,0.6-1.9c0-0.6-0.2-1.1-0.5-1.5c-0.3-0.4-0.8-0.7-1.5-0.7
	c-0.7,0-1.3,0.2-1.7,0.7c-0.4,0.5-0.6,1.1-0.6,1.7h-2.5c0-1,0.3-1.9,0.7-2.6c0.4-0.7,1-1.2,1.7-1.5c0.7-0.3,1.5-0.5,2.4-0.5
	c1.4,0,2.5,0.4,3.3,1.2c0.8,0.8,1.2,1.8,1.2,3c0,0.8-0.2,1.5-0.5,2.3c-0.3,0.7-0.8,1.4-1.4,2.1c-0.6,0.7-1.2,1.3-1.9,1.9
	c-0.7,0.6-1.3,1.1-1.9,1.6h6.1v2.1H116.9z"/>
<path d="M255.9,118.2c-1,0-1.9-0.2-2.7-0.5c-0.8-0.4-1.4-0.9-1.9-1.5c-0.5-0.7-0.7-1.5-0.7-2.4h2.7c0,0.7,0.3,1.2,0.7,1.7
	c0.5,0.4,1.1,0.7,1.9,0.7c0.7,0,1.2-0.2,1.6-0.5c0.4-0.3,0.6-0.8,0.6-1.3c0-0.6-0.2-1-0.5-1.3c-0.3-0.3-0.8-0.6-1.4-0.8
	s-1.2-0.4-1.9-0.6c-1.1-0.4-1.9-0.9-2.5-1.4c-0.6-0.6-0.8-1.4-0.8-2.3c0-0.8,0.2-1.5,0.6-2.1c0.4-0.6,1-1.1,1.7-1.4
	c0.7-0.3,1.5-0.5,2.4-0.5c0.9,0,1.8,0.2,2.5,0.5c0.7,0.3,1.3,0.8,1.7,1.4c0.4,0.6,0.6,1.3,0.7,2.1h-2.7c0-0.5-0.2-0.9-0.6-1.3
	c-0.4-0.4-0.9-0.6-1.5-0.6c-0.6,0-1,0.1-1.4,0.4c-0.4,0.3-0.6,0.7-0.6,1.2c0,0.5,0.1,0.8,0.4,1.1c0.3,0.3,0.7,0.5,1.2,0.7
	c0.5,0.2,1.1,0.4,1.7,0.6c0.7,0.2,1.3,0.5,1.9,0.8s1,0.7,1.4,1.3c0.3,0.5,0.5,1.2,0.5,2c0,0.7-0.2,1.4-0.6,2
	c-0.4,0.6-0.9,1.1-1.7,1.5C257.9,118.1,257,118.2,255.9,118.2z M266.7,118.2c-1.2,0-2.2-0.4-2.9-1.2c-0.7-0.8-1-1.9-1-3.4v-5.6h2.5
	v5.4c0,0.9,0.2,1.5,0.5,2c0.3,0.5,0.9,0.7,1.6,0.7c0.7,0,1.3-0.3,1.7-0.8c0.5-0.5,0.7-1.2,0.7-2.1v-5.1h2.6v9.9h-2.3l-0.2-1.7
	c-0.3,0.6-0.8,1.1-1.3,1.4C268.2,118.1,267.5,118.2,266.7,118.2z M281,118.2c-0.7,0-1.4-0.1-2-0.4s-1-0.7-1.4-1.2l-0.3,1.4h-2.3
	v-14.4h2.6v5.9c0.3-0.4,0.7-0.8,1.3-1.2c0.5-0.3,1.2-0.5,2.1-0.5c0.9,0,1.8,0.2,2.5,0.7c0.7,0.5,1.3,1.1,1.7,1.9
	c0.4,0.8,0.6,1.7,0.6,2.7s-0.2,1.9-0.6,2.7c-0.4,0.8-1,1.4-1.7,1.8C282.8,118,282,118.2,281,118.2z M280.5,116c0.8,0,1.5-0.3,2-0.8
	c0.5-0.5,0.8-1.3,0.8-2.1c0-0.9-0.3-1.6-0.8-2.1c-0.5-0.6-1.2-0.8-2-0.8c-0.8,0-1.5,0.3-2,0.8c-0.5,0.5-0.8,1.3-0.8,2.1
	c0,0.9,0.3,1.6,0.8,2.1C279,115.7,279.7,116,280.5,116z M288.2,118v-14.4h2.6v6c0.3-0.5,0.8-1,1.3-1.3c0.6-0.3,1.2-0.5,2-0.5
	c1.2,0,2.2,0.4,2.8,1.2c0.7,0.8,1,1.9,1,3.4v5.6h-2.5v-5.4c0-0.9-0.2-1.5-0.5-2c-0.3-0.5-0.9-0.7-1.6-0.7c-0.7,0-1.3,0.3-1.8,0.8
	c-0.5,0.5-0.7,1.2-0.7,2.1v5.1H288.2z M305.2,118.2c-1,0-1.9-0.2-2.7-0.6c-0.8-0.4-1.4-1-1.8-1.8c-0.4-0.8-0.7-1.7-0.7-2.7
	c0-1,0.2-1.9,0.6-2.7c0.4-0.8,1-1.4,1.8-1.9c0.8-0.5,1.7-0.7,2.7-0.7c1,0,1.8,0.2,2.6,0.6c0.7,0.4,1.3,1,1.7,1.8
	c0.4,0.7,0.6,1.6,0.6,2.5c0,0.1,0,0.3,0,0.5c0,0.2,0,0.3,0,0.5h-7.5c0.1,0.8,0.3,1.4,0.8,1.8c0.5,0.4,1.1,0.7,1.8,0.7
	c0.5,0,1-0.1,1.3-0.3c0.4-0.2,0.6-0.5,0.8-0.9h2.6c-0.2,0.6-0.5,1.2-0.9,1.7c-0.4,0.5-1,0.9-1.6,1.2
	C306.7,118.1,306,118.2,305.2,118.2z M305.2,109.9c-0.6,0-1.2,0.2-1.7,0.5c-0.5,0.3-0.8,0.9-0.9,1.6h4.9c0-0.7-0.3-1.2-0.7-1.6
	S305.9,109.9,305.2,109.9z M315.7,118.2c-0.9,0-1.6-0.1-2.1-0.4c-0.5-0.3-1-0.6-1.2-1.1c-0.3-0.5-0.4-1-0.4-1.5
	c0-0.9,0.4-1.7,1.1-2.2s1.8-0.9,3.2-0.9h2.5v-0.2c0-0.7-0.2-1.2-0.6-1.5c-0.4-0.3-0.9-0.5-1.4-0.5c-0.5,0-1,0.1-1.4,0.4
	c-0.4,0.2-0.6,0.6-0.7,1.1h-2.5c0.1-0.7,0.3-1.3,0.7-1.9c0.4-0.5,1-0.9,1.6-1.2c0.7-0.3,1.4-0.4,2.2-0.4c1.4,0,2.5,0.4,3.3,1.1
	c0.8,0.7,1.2,1.7,1.2,3v6.1h-2.2l-0.2-1.6c-0.3,0.5-0.7,1-1.2,1.3C317.2,118.1,316.6,118.2,315.7,118.2z M316.3,116.2
	c0.7,0,1.3-0.2,1.7-0.7c0.4-0.5,0.7-1.1,0.8-1.8h-2.2c-0.7,0-1.2,0.1-1.5,0.4c-0.3,0.2-0.4,0.5-0.4,0.9c0,0.4,0.1,0.7,0.4,0.9
	C315.5,116.1,315.8,116.2,316.3,116.2z M328.4,118.2c-0.9,0-1.8-0.2-2.5-0.7c-0.7-0.5-1.3-1.1-1.7-1.9c-0.4-0.8-0.6-1.7-0.6-2.7
	s0.2-1.9,0.6-2.7c0.4-0.8,1-1.4,1.7-1.8c0.7-0.5,1.6-0.7,2.5-0.7c0.7,0,1.4,0.1,2,0.4s1,0.7,1.4,1.2v-5.8h2.6V118H332l-0.3-1.4
	c-0.3,0.4-0.7,0.8-1.3,1.2C330,118.1,329.3,118.2,328.4,118.2z M329,116c0.8,0,1.5-0.3,2-0.8c0.5-0.6,0.8-1.3,0.8-2.1
	c0-0.9-0.3-1.6-0.8-2.1c-0.5-0.6-1.2-0.8-2-0.8c-0.8,0-1.5,0.3-2,0.8c-0.5,0.5-0.8,1.3-0.8,2.1c0,0.9,0.3,1.6,0.8,2.1
	C327.5,115.7,328.2,116,329,116z M338.3,106.5c-0.5,0-0.9-0.1-1.2-0.4c-0.3-0.3-0.4-0.6-0.4-1.1c0-0.4,0.1-0.8,0.4-1
	c0.3-0.3,0.7-0.4,1.2-0.4c0.5,0,0.8,0.1,1.1,0.4c0.3,0.3,0.5,0.6,0.5,1c0,0.4-0.2,0.8-0.5,1.1C339.1,106.4,338.8,106.5,338.3,106.5z
	 M337,118v-9.9h2.6v9.9H337z M342.2,118v-9.9h2.3l0.2,1.7c0.3-0.6,0.7-1.1,1.3-1.4c0.6-0.3,1.3-0.5,2.1-0.5c1.2,0,2.2,0.4,2.9,1.2
	c0.7,0.8,1,1.9,1,3.4v5.6h-2.6v-5.4c0-0.9-0.2-1.5-0.5-2c-0.3-0.5-0.9-0.7-1.6-0.7c-0.7,0-1.3,0.3-1.8,0.8c-0.5,0.5-0.7,1.2-0.7,2.1
	v5.1H342.2z M358.6,115c-0.5,0-0.9-0.1-1.3-0.2l-0.7,0.7c0.2,0.1,0.5,0.2,0.9,0.3c0.4,0.1,1,0.2,1.9,0.2c1.3,0.1,2.3,0.4,2.9,0.9
	c0.6,0.5,0.9,1.2,0.9,2.1c0,0.6-0.2,1.1-0.5,1.7c-0.3,0.5-0.8,1-1.5,1.3c-0.7,0.3-1.5,0.5-2.6,0.5c-1.4,0-2.6-0.3-3.4-0.8
	c-0.9-0.5-1.3-1.3-1.3-2.4c0-0.9,0.4-1.7,1.3-2.3c-0.3-0.1-0.5-0.2-0.7-0.4c-0.2-0.1-0.4-0.3-0.5-0.4v-0.5l1.7-1.8
	c-0.8-0.7-1.2-1.6-1.2-2.6c0-0.7,0.2-1.3,0.5-1.8c0.3-0.5,0.8-1,1.4-1.3c0.6-0.3,1.3-0.5,2.2-0.5c0.6,0,1.1,0.1,1.6,0.2h3.8v1.6
	l-1.7,0.1c0.3,0.5,0.4,1.1,0.4,1.7c0,0.7-0.2,1.3-0.5,1.8c-0.3,0.5-0.8,1-1.4,1.3C360.2,114.9,359.4,115,358.6,115z M358.6,113.1
	c0.5,0,0.9-0.1,1.3-0.4c0.3-0.3,0.5-0.7,0.5-1.2c0-0.5-0.2-0.9-0.5-1.2c-0.3-0.3-0.8-0.4-1.3-0.4c-0.5,0-1,0.1-1.3,0.4
	c-0.3,0.3-0.5,0.7-0.5,1.2c0,0.5,0.2,0.9,0.5,1.2C357.6,112.9,358.1,113.1,358.6,113.1z M356.2,119.2c0,0.5,0.2,0.9,0.7,1.1
	c0.5,0.3,1,0.4,1.7,0.4c0.6,0,1.2-0.1,1.6-0.4c0.4-0.3,0.6-0.6,0.6-1c0-0.4-0.1-0.7-0.4-0.9c-0.3-0.2-0.8-0.4-1.5-0.4
	c-0.5,0-1.1-0.1-1.5-0.2c-0.4,0.2-0.7,0.4-0.8,0.7C356.3,118.7,356.2,119,356.2,119.2z"/>
<path d="M435.9,114v-11.2h3.9c0.8,0,1.4,0.1,2,0.4c0.5,0.2,0.9,0.6,1.2,1c0.3,0.4,0.4,0.9,0.4,1.4c0,0.7-0.2,1.3-0.6,1.7
	c-0.4,0.4-0.8,0.7-1.4,0.9c0.4,0.1,0.8,0.2,1.1,0.5c0.3,0.3,0.6,0.6,0.8,1c0.2,0.4,0.3,0.8,0.3,1.3c0,0.6-0.1,1.1-0.4,1.6
	c-0.3,0.5-0.7,0.8-1.2,1.1c-0.5,0.3-1.2,0.4-2,0.4H435.9z M437.3,107.7h2.5c0.7,0,1.3-0.2,1.6-0.5c0.4-0.3,0.6-0.8,0.6-1.4
	c0-0.6-0.2-1-0.6-1.4c-0.4-0.3-0.9-0.5-1.7-0.5h-2.4V107.7z M437.3,112.9h2.6c0.8,0,1.4-0.2,1.8-0.5c0.4-0.4,0.6-0.9,0.6-1.5
	c0-0.6-0.2-1.1-0.7-1.5c-0.4-0.4-1-0.6-1.8-0.6h-2.5V112.9z M449.1,114.2c-0.7,0-1.4-0.2-2-0.5c-0.6-0.3-1.1-0.8-1.4-1.4
	c-0.3-0.6-0.5-1.4-0.5-2.2c0-0.8,0.2-1.6,0.5-2.2c0.4-0.6,0.8-1.1,1.4-1.5c0.6-0.3,1.3-0.5,2-0.5s1.4,0.2,2,0.5
	c0.6,0.3,1.1,0.8,1.4,1.5c0.4,0.6,0.5,1.3,0.5,2.2c0,0.8-0.2,1.6-0.5,2.2c-0.4,0.6-0.8,1.1-1.4,1.4
	C450.5,114,449.9,114.2,449.1,114.2z M449.1,113c0.5,0,0.9-0.1,1.3-0.3s0.7-0.6,1-1s0.4-1,0.4-1.7c0-0.7-0.1-1.2-0.4-1.7
	c-0.2-0.4-0.5-0.8-0.9-1s-0.8-0.3-1.3-0.3c-0.5,0-0.9,0.1-1.3,0.3c-0.4,0.2-0.7,0.6-1,1c-0.2,0.4-0.4,1-0.4,1.7
	c0,0.7,0.1,1.2,0.4,1.7s0.6,0.8,0.9,1C448.2,112.9,448.7,113,449.1,113z M455,114v-11.5h1.3V114H455z M462.1,114.2
	c-0.8,0-1.5-0.2-2.1-0.5c-0.6-0.4-1-0.9-1.4-1.5c-0.3-0.6-0.5-1.3-0.5-2.1c0-0.8,0.2-1.5,0.5-2.1c0.3-0.6,0.8-1.1,1.4-1.5
	c0.6-0.4,1.3-0.5,2.1-0.5c0.6,0,1.2,0.1,1.7,0.4c0.5,0.3,0.9,0.6,1.2,1.1v-4.9h1.3V114h-1.2l-0.1-1.3c-0.3,0.4-0.6,0.7-1.1,1
	C463.4,114,462.8,114.2,462.1,114.2z M462.2,113c0.5,0,1-0.1,1.4-0.4c0.4-0.3,0.7-0.6,1-1.1c0.2-0.4,0.4-1,0.4-1.6s-0.1-1.1-0.4-1.6
	c-0.2-0.4-0.5-0.8-1-1c-0.4-0.3-0.9-0.4-1.4-0.4c-0.5,0-1,0.1-1.4,0.4c-0.4,0.2-0.7,0.6-1,1c-0.2,0.4-0.3,1-0.3,1.6s0.1,1.1,0.3,1.6
	c0.2,0.4,0.6,0.8,1,1.1C461.3,112.9,461.7,113,462.2,113z M472.7,114v-0.9c0.8-0.6,1.5-1.2,2.1-1.8c0.7-0.6,1.3-1.2,1.8-1.8
	c0.5-0.6,0.9-1.2,1.2-1.8c0.3-0.6,0.5-1.1,0.5-1.7c0-0.4-0.1-0.8-0.2-1.1c-0.1-0.3-0.3-0.6-0.6-0.8c-0.3-0.2-0.7-0.3-1.2-0.3
	c-0.5,0-0.9,0.1-1.2,0.3c-0.3,0.2-0.6,0.5-0.8,0.9c-0.2,0.4-0.2,0.8-0.2,1.2h-1.3c0-0.7,0.2-1.4,0.5-1.9c0.3-0.5,0.7-0.9,1.3-1.2
	c0.5-0.3,1.1-0.4,1.8-0.4c1,0,1.8,0.3,2.4,0.8c0.6,0.6,1,1.4,1,2.5c0,0.7-0.2,1.3-0.5,2c-0.3,0.6-0.8,1.3-1.3,1.9
	c-0.5,0.6-1.1,1.2-1.6,1.7c-0.6,0.5-1.1,1-1.6,1.4h5.4v1.1H472.7z M486.2,114.2c-1,0-1.9-0.2-2.6-0.7c-0.7-0.5-1.3-1.2-1.6-2
	c-0.4-0.9-0.6-1.9-0.6-3s0.2-2.2,0.6-3c0.4-0.9,0.9-1.6,1.6-2c0.7-0.5,1.6-0.7,2.6-0.7s1.8,0.2,2.6,0.7c0.7,0.5,1.3,1.2,1.6,2
	c0.4,0.9,0.6,1.9,0.6,3s-0.2,2.2-0.6,3c-0.4,0.9-0.9,1.5-1.6,2C488.1,114,487.2,114.2,486.2,114.2z M486.2,113
	c0.7,0,1.2-0.2,1.7-0.5c0.5-0.4,0.9-0.9,1.2-1.6c0.3-0.7,0.4-1.5,0.4-2.5s-0.1-1.8-0.4-2.5c-0.3-0.7-0.7-1.2-1.2-1.6
	c-0.5-0.4-1.1-0.6-1.7-0.6c-0.7,0-1.2,0.2-1.8,0.6c-0.5,0.4-0.9,0.9-1.2,1.6c-0.3,0.7-0.4,1.5-0.4,2.5s0.1,1.8,0.4,2.5
	c0.3,0.7,0.7,1.2,1.2,1.6C485,112.8,485.6,113,486.2,113z M492.9,117.5v-11.5h1.2l0.1,1.3c0.3-0.4,0.6-0.7,1.1-1
	c0.5-0.3,1.1-0.5,1.8-0.5c0.8,0,1.5,0.2,2.1,0.5c0.6,0.4,1,0.9,1.4,1.5c0.3,0.6,0.5,1.3,0.5,2.1c0,0.8-0.2,1.5-0.5,2.1
	c-0.3,0.6-0.8,1.1-1.4,1.5c-0.6,0.4-1.3,0.5-2.1,0.5c-0.7,0-1.2-0.1-1.7-0.4c-0.5-0.3-0.9-0.6-1.2-1.1v4.8H492.9z M497,113
	c0.5,0,1-0.1,1.4-0.4c0.4-0.3,0.7-0.6,1-1.1c0.2-0.4,0.4-1,0.4-1.6s-0.1-1.1-0.4-1.6c-0.2-0.4-0.6-0.8-1-1c-0.4-0.3-0.9-0.4-1.4-0.4
	c-0.5,0-1,0.1-1.4,0.4c-0.4,0.2-0.7,0.6-1,1c-0.2,0.4-0.4,1-0.4,1.6s0.1,1.1,0.4,1.6c0.2,0.4,0.6,0.8,1,1.1
	C496,112.9,496.4,113,497,113z M505.7,114c-0.7,0-1.3-0.2-1.7-0.5c-0.4-0.4-0.6-1-0.6-1.9v-4.4H502v-1.1h1.4l0.2-1.9h1.2v1.9h2.3
	v1.1h-2.3v4.4c0,0.5,0.1,0.8,0.3,1c0.2,0.2,0.6,0.3,1.1,0.3h0.8v1.2H505.7z M511.8,114.2c-0.9,0-1.7-0.2-2.4-0.7
	c-0.6-0.5-1-1.1-1.1-2h1.4c0.1,0.4,0.3,0.8,0.7,1.1c0.4,0.3,0.8,0.4,1.5,0.4c0.6,0,1-0.1,1.2-0.4c0.3-0.2,0.4-0.5,0.4-0.9
	c0-0.5-0.2-0.8-0.5-1c-0.3-0.2-0.8-0.3-1.5-0.4c-0.4-0.1-0.9-0.2-1.3-0.4c-0.4-0.2-0.8-0.4-1.1-0.7c-0.3-0.3-0.4-0.7-0.4-1.2
	c0-0.7,0.3-1.3,0.8-1.7c0.5-0.4,1.2-0.7,2.1-0.7c0.8,0,1.5,0.2,2.1,0.6c0.5,0.4,0.9,1,0.9,1.8h-1.3c-0.1-0.4-0.2-0.7-0.5-0.9
	c-0.3-0.2-0.7-0.4-1.2-0.4c-0.5,0-0.9,0.1-1.1,0.3c-0.3,0.2-0.4,0.5-0.4,0.8c0,0.3,0.2,0.6,0.5,0.8c0.3,0.2,0.8,0.3,1.4,0.5
	c0.5,0.1,1,0.2,1.4,0.4c0.4,0.1,0.8,0.4,1.1,0.7c0.3,0.3,0.4,0.7,0.4,1.3c0,0.7-0.3,1.3-0.8,1.8C513.5,114,512.8,114.2,511.8,114.2z
	"/>
<path d="M103.1,70V56h2.6v5.8h6.3V56h2.6v14H112v-6.1h-6.3V70H103.1z M118.8,70V58.9l-2.3,0.5v-2l3.4-1.5h1.6v14H118.8z"/>
<path d="M255.1,74V51.6h2.7v9.9h11.6v-9.9h2.7V74h-2.7V63.7h-11.6V74H255.1z M283.8,74.4c-1.5,0-2.9-0.3-4-1
	c-1.2-0.7-2.1-1.7-2.8-2.9c-0.7-1.2-1-2.7-1-4.4c0-1.7,0.3-3.1,1-4.4c0.7-1.3,1.6-2.2,2.8-2.9c1.2-0.7,2.6-1.1,4.1-1.1
	c1.5,0,2.9,0.4,4,1.1c1.1,0.7,2,1.6,2.6,2.7c0.6,1.1,0.9,2.3,0.9,3.6c0,0.2,0,0.5,0,0.7c0,0.2,0,0.5,0,0.8h-12.6
	c0.1,1.2,0.3,2.2,0.8,3c0.5,0.8,1.1,1.4,1.9,1.8c0.8,0.4,1.6,0.6,2.4,0.6c1.1,0,2-0.3,2.8-0.8c0.7-0.5,1.3-1.2,1.6-2.1h2.7
	c-0.4,1.5-1.2,2.7-2.5,3.7C287.2,73.9,285.7,74.4,283.8,74.4z M283.8,60c-1.3,0-2.4,0.4-3.4,1.2c-1,0.8-1.5,1.9-1.7,3.4h10
	c-0.1-1.4-0.6-2.5-1.5-3.4C286.3,60.4,285.2,60,283.8,60z M300.2,74.4c-1.3,0-2.4-0.2-3.3-0.7c-0.9-0.4-1.5-1-2-1.8
	c-0.4-0.7-0.6-1.6-0.6-2.4c0-1.6,0.6-2.9,1.9-3.7c1.2-0.9,2.9-1.3,5.1-1.3h4.3v-0.2c0-1.4-0.4-2.4-1.1-3.1c-0.7-0.7-1.7-1.1-2.9-1.1
	c-1,0-2,0.3-2.7,0.8c-0.7,0.5-1.2,1.3-1.4,2.3h-2.8c0.1-1.2,0.5-2.1,1.2-2.9c0.7-0.8,1.5-1.4,2.5-1.8c1-0.4,2.1-0.6,3.2-0.6
	c2.2,0,3.9,0.6,5,1.8c1.1,1.2,1.7,2.7,1.7,4.7V74h-2.4l-0.2-2.8c-0.4,0.9-1.1,1.7-2,2.3C302.8,74.1,301.6,74.4,300.2,74.4z
	 M300.6,72.1c1,0,1.9-0.3,2.6-0.8c0.7-0.5,1.3-1.2,1.7-2.1c0.4-0.9,0.6-1.7,0.6-2.7v0h-4.1c-1.6,0-2.7,0.3-3.4,0.8
	c-0.6,0.5-1,1.2-1,2c0,0.8,0.3,1.5,0.9,2C298.6,71.9,299.5,72.1,300.6,72.1z M319.4,74.4c-1.6,0-3-0.4-4.2-1.1
	c-1.2-0.7-2.1-1.7-2.8-3c-0.6-1.3-1-2.7-1-4.3c0-1.6,0.3-3,1-4.3c0.7-1.3,1.6-2.2,2.8-2.9c1.2-0.7,2.6-1.1,4.2-1.1
	c1.3,0,2.5,0.3,3.5,0.8c1,0.5,1.8,1.3,2.3,2.2V51h2.7v23h-2.4l-0.3-2.6c-0.5,0.8-1.2,1.5-2.2,2.1C322.1,74.1,320.9,74.4,319.4,74.4z
	 M319.7,72c1.1,0,2-0.2,2.8-0.7c0.8-0.5,1.5-1.2,1.9-2.1c0.5-0.9,0.7-1.9,0.7-3.1c0-1.2-0.2-2.2-0.7-3.1c-0.4-0.9-1.1-1.6-1.9-2.1
	c-0.8-0.5-1.7-0.8-2.8-0.8c-1,0-2,0.3-2.8,0.8c-0.8,0.5-1.5,1.2-1.9,2.1c-0.4,0.9-0.7,1.9-0.7,3.1c0,1.2,0.2,2.2,0.7,3.1
	c0.5,0.9,1.1,1.6,1.9,2.1C317.7,71.8,318.7,72,319.7,72z M333.9,54.6c-0.5,0-1-0.2-1.3-0.5c-0.3-0.4-0.5-0.8-0.5-1.3
	c0-0.5,0.2-0.9,0.5-1.3c0.4-0.3,0.8-0.5,1.3-0.5c0.5,0,0.9,0.2,1.3,0.5c0.4,0.3,0.5,0.8,0.5,1.3c0,0.5-0.2,1-0.5,1.3
	C334.9,54.4,334.5,54.6,333.9,54.6z M332.6,74V58.1h2.7V74H332.6z M340,74V58.1h2.4l0.2,2.8c0.5-1,1.2-1.8,2.2-2.4
	c1-0.6,2-0.9,3.3-0.9c1.9,0,3.4,0.6,4.5,1.7c1.1,1.1,1.7,2.9,1.7,5.2V74h-2.7v-9c0-3.3-1.4-5-4.1-5c-1.4,0-2.5,0.5-3.4,1.5
	c-0.9,1-1.3,2.4-1.3,4.2V74H340z M364.6,69c-0.9,0-1.7-0.1-2.5-0.4l-1.6,1.5c0.2,0.2,0.5,0.3,0.9,0.4c0.4,0.1,0.9,0.2,1.5,0.3
	c0.7,0.1,1.6,0.2,2.8,0.3c2.1,0.1,3.7,0.6,4.6,1.5c0.9,0.8,1.4,1.9,1.4,3.3c0,0.9-0.3,1.8-0.8,2.6c-0.5,0.8-1.3,1.5-2.3,2
	c-1,0.5-2.3,0.8-4,0.8c-1.4,0-2.7-0.2-3.8-0.6c-1.1-0.4-2-0.9-2.6-1.7c-0.6-0.7-0.9-1.7-0.9-2.8c0-0.6,0.2-1.2,0.5-2
	c0.3-0.7,0.9-1.3,1.8-2c-0.5-0.2-0.9-0.4-1.2-0.6c-0.3-0.2-0.6-0.5-0.9-0.8v-0.7l2.7-2.7c-1.3-1.1-1.9-2.5-1.9-4.2
	c0-1,0.2-2,0.7-2.8c0.5-0.9,1.2-1.5,2.1-2c0.9-0.5,2.1-0.8,3.4-0.8c0.9,0,1.7,0.1,2.5,0.4h5.9v2l-3,0.1c0.6,0.9,0.9,1.9,0.9,3.1
	c0,1-0.3,2-0.8,2.8c-0.5,0.9-1.2,1.5-2.1,2C367,68.8,365.9,69,364.6,69z M364.6,66.8c1.1,0,2-0.3,2.7-0.9c0.7-0.6,1-1.5,1-2.6
	c0-1.1-0.3-1.9-1-2.5c-0.7-0.6-1.6-0.9-2.7-0.9c-1.2,0-2.1,0.3-2.8,0.9c-0.7,0.6-1,1.4-1,2.5c0,1.1,0.3,2,1,2.6
	C362.5,66.5,363.4,66.8,364.6,66.8z M359.9,76c0,1.1,0.4,1.9,1.3,2.4c0.9,0.5,2,0.8,3.4,0.8c1.3,0,2.4-0.3,3.2-0.9
	c0.8-0.6,1.2-1.3,1.2-2.3c0-0.7-0.3-1.3-0.8-1.8c-0.6-0.5-1.6-0.8-3.1-0.9c-1.2-0.1-2.2-0.2-3-0.3c-0.9,0.5-1.5,1-1.7,1.5
	C360,75.1,359.9,75.6,359.9,76z"/>
<path d="M435.9,58V46.8h3.6c0.9,0,1.6,0.1,2.1,0.4c0.6,0.3,1,0.7,1.2,1.2c0.3,0.5,0.4,1.1,0.4,1.7c0,0.7-0.2,1.3-0.6,1.9
	c-0.4,0.6-1,1-1.8,1.2l2.4,4.8h-1.6l-2.3-4.6h-0.1h-2.2V58H435.9z M437.3,52.3h2.2c0.9,0,1.5-0.2,1.9-0.6c0.4-0.4,0.6-0.9,0.6-1.6
	c0-0.7-0.2-1.2-0.6-1.6c-0.4-0.4-1-0.6-1.9-0.6h-2.2V52.3z M448.4,58.2c-0.8,0-1.4-0.2-2-0.5c-0.6-0.4-1.1-0.8-1.4-1.5
	c-0.3-0.6-0.5-1.3-0.5-2.2c0-0.8,0.2-1.6,0.5-2.2c0.3-0.6,0.8-1.1,1.4-1.5c0.6-0.4,1.3-0.5,2.1-0.5c0.8,0,1.4,0.2,2,0.5
	c0.6,0.3,1,0.8,1.3,1.4s0.4,1.2,0.4,1.8c0,0.1,0,0.2,0,0.4c0,0.1,0,0.3,0,0.4h-6.3c0,0.6,0.2,1.1,0.4,1.5c0.3,0.4,0.6,0.7,0.9,0.9
	c0.4,0.2,0.8,0.3,1.2,0.3c0.6,0,1-0.1,1.4-0.4c0.4-0.3,0.6-0.6,0.8-1h1.3c-0.2,0.7-0.6,1.3-1.2,1.8C450.1,58,449.4,58.2,448.4,58.2z
	 M448.4,51c-0.6,0-1.2,0.2-1.7,0.6c-0.5,0.4-0.8,0.9-0.8,1.7h5c0-0.7-0.3-1.3-0.7-1.7C449.7,51.2,449.1,51,448.4,51z M457.1,55.5
	c-0.4,0-0.9-0.1-1.2-0.2l-0.8,0.8c0.1,0.1,0.3,0.2,0.4,0.2c0.2,0.1,0.4,0.1,0.8,0.2c0.3,0,0.8,0.1,1.4,0.1c1.1,0.1,1.8,0.3,2.3,0.7
	c0.5,0.4,0.7,1,0.7,1.6c0,0.5-0.1,0.9-0.4,1.3c-0.2,0.4-0.6,0.8-1.2,1c-0.5,0.3-1.2,0.4-2,0.4c-0.7,0-1.3-0.1-1.9-0.3
	c-0.6-0.2-1-0.5-1.3-0.8c-0.3-0.4-0.5-0.8-0.5-1.4c0-0.3,0.1-0.6,0.2-1c0.2-0.3,0.5-0.7,0.9-1c-0.2-0.1-0.4-0.2-0.6-0.3
	c-0.2-0.1-0.3-0.2-0.4-0.4v-0.4l1.4-1.3c-0.6-0.5-0.9-1.2-0.9-2.1c0-0.5,0.1-1,0.4-1.4c0.2-0.4,0.6-0.8,1.1-1c0.5-0.3,1-0.4,1.7-0.4
	c0.5,0,0.9,0.1,1.2,0.2h2.9v1l-1.5,0.1c0.3,0.4,0.5,1,0.5,1.6c0,0.5-0.1,1-0.4,1.4c-0.2,0.4-0.6,0.8-1.1,1
	C458.3,55.4,457.7,55.5,457.1,55.5z M457.1,54.4c0.6,0,1-0.1,1.3-0.4c0.3-0.3,0.5-0.7,0.5-1.3c0-0.5-0.2-1-0.5-1.2
	c-0.3-0.3-0.8-0.4-1.3-0.4c-0.6,0-1,0.1-1.4,0.4c-0.3,0.3-0.5,0.7-0.5,1.2c0,0.6,0.2,1,0.5,1.3C456,54.3,456.5,54.4,457.1,54.4z
	 M454.7,59c0,0.5,0.2,0.9,0.7,1.2c0.4,0.3,1,0.4,1.7,0.4c0.7,0,1.2-0.1,1.6-0.4c0.4-0.3,0.6-0.7,0.6-1.2c0-0.3-0.1-0.6-0.4-0.9
	c-0.3-0.2-0.8-0.4-1.5-0.4c-0.6,0-1.1-0.1-1.5-0.2c-0.4,0.2-0.7,0.5-0.9,0.8C454.8,58.6,454.7,58.8,454.7,59z M465.6,58.2
	c-0.9,0-1.7-0.3-2.2-0.8c-0.6-0.6-0.8-1.5-0.8-2.6v-4.6h1.3v4.5c0,1.7,0.7,2.5,2,2.5c0.7,0,1.3-0.2,1.7-0.7c0.5-0.5,0.7-1.2,0.7-2.1
	v-4.1h1.3V58h-1.2l-0.1-1.4c-0.2,0.5-0.6,0.9-1.1,1.2C466.8,58,466.3,58.2,465.6,58.2z M471.9,58V46.5h1.3V58H471.9z M478.1,58.2
	c-0.7,0-1.2-0.1-1.6-0.3c-0.4-0.2-0.8-0.5-1-0.9c-0.2-0.4-0.3-0.8-0.3-1.2c0-0.8,0.3-1.4,0.9-1.9c0.6-0.4,1.5-0.7,2.5-0.7h2.1v-0.1
	c0-0.7-0.2-1.2-0.5-1.6c-0.4-0.4-0.8-0.5-1.5-0.5c-0.5,0-1,0.1-1.4,0.4c-0.4,0.3-0.6,0.6-0.7,1.1h-1.4c0.1-0.6,0.2-1.1,0.6-1.5
	c0.3-0.4,0.8-0.7,1.3-0.9c0.5-0.2,1-0.3,1.6-0.3c1.1,0,1.9,0.3,2.5,0.9c0.6,0.6,0.8,1.4,0.8,2.4V58h-1.2l-0.1-1.4
	c-0.2,0.4-0.6,0.8-1,1.2C479.4,58,478.8,58.2,478.1,58.2z M478.3,57.1c0.5,0,0.9-0.1,1.3-0.4c0.4-0.3,0.7-0.6,0.8-1s0.3-0.9,0.3-1.3
	v0h-2c-0.8,0-1.3,0.1-1.7,0.4c-0.3,0.3-0.5,0.6-0.5,1c0,0.4,0.1,0.8,0.4,1C477.3,56.9,477.7,57.1,478.3,57.1z M484.1,58v-7.9h1.2
	l0.1,1.5c0.2-0.5,0.6-0.9,1.1-1.2c0.5-0.3,1.1-0.5,1.9-0.5v1.4H488c-0.5,0-0.9,0.1-1.3,0.3c-0.4,0.2-0.7,0.4-0.9,0.8
	s-0.4,0.9-0.4,1.6v4H484.1z M497.7,58.2c-0.7,0-1.4-0.1-1.9-0.4c-0.6-0.3-1-0.7-1.4-1.2c-0.3-0.5-0.5-1.2-0.5-2h1.4
	c0,0.6,0.2,1.2,0.7,1.7c0.4,0.5,1.1,0.7,1.8,0.7s1.4-0.2,1.8-0.7c0.4-0.4,0.6-1,0.6-1.6c0-0.5-0.1-0.9-0.4-1.3
	c-0.2-0.3-0.6-0.6-1-0.7c-0.4-0.2-0.9-0.2-1.4-0.2h-0.8v-1.1h0.8c0.7,0,1.3-0.2,1.7-0.5c0.4-0.3,0.6-0.8,0.6-1.4
	c0-0.5-0.2-0.9-0.5-1.2c-0.3-0.3-0.8-0.5-1.4-0.5c-0.6,0-1.1,0.2-1.5,0.6c-0.4,0.4-0.6,0.8-0.6,1.4h-1.4c0-0.6,0.2-1.1,0.5-1.6
	c0.3-0.5,0.7-0.8,1.2-1.1c0.5-0.3,1.1-0.4,1.8-0.4c0.7,0,1.3,0.1,1.8,0.4c0.5,0.3,0.9,0.6,1.1,1c0.3,0.4,0.4,0.9,0.4,1.4
	c0,0.6-0.2,1.1-0.5,1.6c-0.3,0.5-0.8,0.8-1.4,0.9c0.7,0.1,1.2,0.5,1.6,0.9s0.7,1.1,0.7,1.9c0,0.6-0.1,1.2-0.4,1.7
	c-0.3,0.5-0.7,0.9-1.2,1.2S498.5,58.2,497.7,58.2z M503.5,58v-0.9c0.8-0.6,1.5-1.2,2.1-1.8c0.7-0.6,1.3-1.2,1.8-1.8
	c0.5-0.6,0.9-1.2,1.2-1.8c0.3-0.6,0.5-1.1,0.5-1.7c0-0.4-0.1-0.8-0.2-1.1c-0.1-0.3-0.3-0.6-0.6-0.8c-0.3-0.2-0.7-0.3-1.2-0.3
	c-0.5,0-0.9,0.1-1.2,0.3c-0.3,0.2-0.6,0.5-0.8,0.9c-0.2,0.4-0.2,0.8-0.2,1.2h-1.3c0-0.7,0.2-1.4,0.5-1.9c0.3-0.5,0.7-0.9,1.3-1.2
	c0.5-0.3,1.1-0.4,1.8-0.4c1,0,1.8,0.3,2.4,0.8c0.6,0.6,1,1.4,1,2.5c0,0.7-0.2,1.3-0.5,2c-0.3,0.6-0.8,1.3-1.3,1.9
	c-0.5,0.6-1.1,1.2-1.6,1.7c-0.6,0.5-1.1,1-1.6,1.4h5.4V58H503.5z M512.7,61.5V50.1h1.2l0.1,1.3c0.3-0.4,0.6-0.7,1.1-1
	c0.5-0.3,1.1-0.5,1.8-0.5c0.8,0,1.5,0.2,2.1,0.5c0.6,0.4,1,0.9,1.4,1.5c0.3,0.6,0.5,1.3,0.5,2.1s-0.2,1.5-0.5,2.1
	c-0.3,0.6-0.8,1.1-1.4,1.5c-0.6,0.4-1.3,0.5-2.1,0.5c-0.7,0-1.2-0.1-1.7-0.4c-0.5-0.3-0.9-0.6-1.2-1.1v4.8H512.7z M516.8,57
	c0.5,0,1-0.1,1.4-0.4c0.4-0.3,0.7-0.6,1-1.1c0.2-0.4,0.4-1,0.4-1.6c0-0.6-0.1-1.1-0.4-1.6c-0.2-0.4-0.6-0.8-1-1
	c-0.4-0.3-0.9-0.4-1.4-0.4c-0.5,0-1,0.1-1.4,0.4c-0.4,0.2-0.7,0.6-1,1c-0.2,0.4-0.4,1-0.4,1.6c0,0.6,0.1,1.1,0.4,1.6
	c0.2,0.4,0.6,0.8,1,1.1C515.8,56.9,516.3,57,516.8,57z M525.6,58c-0.7,0-1.3-0.2-1.7-0.5s-0.6-1-0.6-1.9v-4.4h-1.4v-1.1h1.4l0.2-1.9
	h1.2v1.9h2.3v1.1h-2.3v4.4c0,0.5,0.1,0.8,0.3,1c0.2,0.2,0.6,0.3,1.1,0.3h0.8V58H525.6z M531.7,58.2c-0.9,0-1.7-0.2-2.4-0.7
	c-0.6-0.5-1-1.1-1.1-2h1.4c0.1,0.4,0.3,0.8,0.7,1.1c0.4,0.3,0.8,0.4,1.5,0.4c0.6,0,1-0.1,1.2-0.4c0.3-0.2,0.4-0.5,0.4-0.9
	c0-0.5-0.2-0.8-0.5-1c-0.3-0.2-0.8-0.3-1.5-0.4c-0.4-0.1-0.9-0.2-1.3-0.4c-0.4-0.2-0.8-0.4-1.1-0.7c-0.3-0.3-0.4-0.7-0.4-1.2
	c0-0.7,0.3-1.3,0.8-1.7c0.5-0.4,1.2-0.7,2.1-0.7c0.8,0,1.5,0.2,2.1,0.6c0.5,0.4,0.9,1,0.9,1.8h-1.3c-0.1-0.4-0.2-0.7-0.5-0.9
	c-0.3-0.2-0.7-0.4-1.2-0.4c-0.5,0-0.9,0.1-1.1,0.3c-0.3,0.2-0.4,0.5-0.4,0.8c0,0.3,0.2,0.6,0.5,0.8c0.3,0.2,0.8,0.3,1.4,0.5
	c0.5,0.1,1,0.2,1.4,0.4c0.4,0.1,0.8,0.4,1.1,0.7c0.3,0.3,0.4,0.7,0.4,1.3c0,0.7-0.3,1.3-0.8,1.8C533.4,58,532.6,58.2,531.7,58.2z"/>
<path d="M103.1,256v-14h2.6v12h6.2v2H103.1z M115.5,244.5c-0.5,0-0.9-0.1-1.2-0.4c-0.3-0.3-0.4-0.6-0.4-1.1s0.1-0.8,0.4-1
	c0.3-0.3,0.7-0.4,1.2-0.4c0.5,0,0.8,0.1,1.1,0.4c0.3,0.3,0.5,0.6,0.5,1s-0.2,0.8-0.5,1.1C116.3,244.4,115.9,244.5,115.5,244.5z
	 M114.2,256v-9.9h2.6v9.9H114.2z M119.4,256v-9.9h2.3l0.2,1.7c0.3-0.6,0.7-1.1,1.3-1.4c0.6-0.3,1.3-0.5,2.1-0.5
	c1.2,0,2.2,0.4,2.9,1.2c0.7,0.8,1,1.9,1,3.4v5.6h-2.6v-5.4c0-0.9-0.2-1.5-0.5-2c-0.3-0.5-0.9-0.7-1.6-0.7c-0.7,0-1.3,0.3-1.8,0.8
	c-0.5,0.5-0.7,1.2-0.7,2.1v5.1H119.4z M131.6,256v-14.4h2.6v8.5l3.5-4h3l-4.1,4.5l4.7,5.4h-3.2l-4-5v5H131.6z M146.6,256.2
	c-0.9,0-1.7-0.1-2.3-0.4c-0.7-0.3-1.2-0.7-1.6-1.2c-0.4-0.5-0.6-1.1-0.7-1.8h2.6c0.1,0.4,0.3,0.7,0.6,1c0.4,0.3,0.8,0.4,1.4,0.4
	s1-0.1,1.2-0.3c0.3-0.2,0.4-0.5,0.4-0.8c0-0.4-0.2-0.7-0.6-0.9c-0.4-0.2-0.9-0.3-1.6-0.5c-0.4-0.1-0.9-0.2-1.3-0.3
	c-0.4-0.1-0.8-0.3-1.2-0.5c-0.4-0.2-0.7-0.5-0.9-0.8c-0.2-0.3-0.3-0.7-0.3-1.2c0-0.9,0.3-1.6,1-2.2c0.7-0.6,1.7-0.9,3-0.9
	c1.2,0,2.1,0.3,2.8,0.8c0.7,0.5,1.1,1.3,1.3,2.3h-2.4c-0.1-0.7-0.7-1.1-1.7-1.1c-0.5,0-0.9,0.1-1.1,0.3c-0.3,0.2-0.4,0.4-0.4,0.7
	c0,0.3,0.2,0.5,0.6,0.7c0.4,0.2,0.9,0.3,1.5,0.5c0.7,0.2,1.3,0.3,1.9,0.5c0.6,0.2,1.1,0.5,1.4,0.9c0.3,0.4,0.5,0.9,0.5,1.6
	c0,0.6-0.1,1.2-0.5,1.7c-0.3,0.5-0.8,0.9-1.4,1.2C148.1,256.1,147.4,256.2,146.6,256.2z"/>
<path class="st1" d="M258.9,252.2c-1.1,0-2.1-0.2-2.9-0.7c-0.8-0.5-1.4-1.2-1.9-2c-0.4-0.9-0.7-1.9-0.7-3s0.2-2.1,0.7-3
	c0.4-0.9,1.1-1.6,1.9-2c0.8-0.5,1.8-0.7,2.9-0.7c1.3,0,2.4,0.3,3.3,1c0.9,0.7,1.4,1.6,1.6,2.8h-2.3c-0.1-0.6-0.4-1.1-0.9-1.4
	c-0.4-0.4-1-0.5-1.8-0.5c-1,0-1.8,0.4-2.4,1.1c-0.6,0.7-0.9,1.7-0.9,2.9s0.3,2.2,0.9,2.9c0.6,0.7,1.4,1,2.4,1c0.7,0,1.3-0.2,1.8-0.5
	c0.5-0.3,0.8-0.8,0.9-1.4h2.3c-0.2,1.2-0.8,2.1-1.6,2.7C261.4,251.9,260.3,252.2,258.9,252.2z M269.4,252.2c-0.8,0-1.5-0.2-2.1-0.5
	c-0.6-0.4-1.1-0.8-1.5-1.5c-0.4-0.6-0.5-1.4-0.5-2.2s0.2-1.5,0.5-2.2c0.4-0.6,0.8-1.1,1.5-1.5c0.6-0.4,1.3-0.5,2.1-0.5
	c0.8,0,1.4,0.2,2,0.5c0.6,0.4,1.1,0.8,1.5,1.5c0.4,0.6,0.5,1.3,0.5,2.2s-0.2,1.5-0.5,2.2c-0.4,0.6-0.8,1.1-1.5,1.5
	C270.8,252,270.2,252.2,269.4,252.2z M269.4,250.4c0.5,0,1-0.2,1.4-0.6c0.4-0.4,0.6-1,0.6-1.8s-0.2-1.4-0.6-1.8
	c-0.4-0.4-0.9-0.6-1.4-0.6c-0.5,0-1,0.2-1.4,0.6c-0.4,0.4-0.6,1-0.6,1.8s0.2,1.4,0.6,1.8C268.4,250.2,268.9,250.4,269.4,250.4z
	 M275.3,252v-7.9h1.8l0.2,1.3c0.2-0.5,0.6-0.8,1.1-1.1c0.5-0.3,1-0.4,1.6-0.4c1,0,1.7,0.3,2.3,0.9s0.8,1.5,0.8,2.7v4.5h-2v-4.3
	c0-0.7-0.1-1.2-0.4-1.6c-0.3-0.4-0.7-0.5-1.3-0.5c-0.6,0-1.1,0.2-1.4,0.6c-0.4,0.4-0.5,1-0.5,1.7v4.1H275.3z M288.6,252
	c-0.8,0-1.5-0.2-2-0.6c-0.5-0.4-0.8-1.1-0.8-2.2v-3.5h-1.4v-1.7h1.4l0.2-2.1h1.8v2.1h2.1v1.7h-2.1v3.5c0,0.4,0.1,0.7,0.2,0.8
	c0.2,0.1,0.5,0.2,0.9,0.2h1v1.7H288.6z M292.9,242.8c-0.4,0-0.7-0.1-0.9-0.3c-0.2-0.2-0.4-0.5-0.4-0.8c0-0.3,0.1-0.6,0.4-0.8
	c0.2-0.2,0.6-0.3,0.9-0.3c0.4,0,0.7,0.1,0.9,0.3c0.2,0.2,0.4,0.5,0.4,0.8c0,0.3-0.1,0.6-0.4,0.8
	C293.5,242.7,293.2,242.8,292.9,242.8z M291.8,252v-7.9h2v7.9H291.8z M296,252v-7.9h1.8l0.2,1.3c0.2-0.5,0.6-0.8,1.1-1.1
	c0.5-0.3,1-0.4,1.6-0.4c1,0,1.7,0.3,2.3,0.9s0.8,1.5,0.8,2.7v4.5h-2v-4.3c0-0.7-0.1-1.2-0.4-1.6c-0.3-0.4-0.7-0.5-1.3-0.5
	c-0.6,0-1.1,0.2-1.4,0.6c-0.4,0.4-0.5,1-0.5,1.7v4.1H296z M308.7,252.2c-1,0-1.8-0.3-2.3-0.9c-0.5-0.6-0.8-1.5-0.8-2.7v-4.5h2v4.3
	c0,0.7,0.1,1.2,0.4,1.6c0.3,0.4,0.7,0.5,1.3,0.5c0.6,0,1-0.2,1.4-0.6c0.4-0.4,0.6-1,0.6-1.7v-4.1h2v7.9h-1.8l-0.2-1.3
	c-0.2,0.5-0.6,0.8-1.1,1.1C309.9,252.1,309.4,252.2,308.7,252.2z M319.4,252.2c-0.8,0-1.5-0.2-2.1-0.5c-0.6-0.3-1.1-0.8-1.5-1.4
	c-0.4-0.6-0.5-1.3-0.5-2.1c0-0.8,0.2-1.6,0.5-2.2c0.4-0.6,0.8-1.1,1.4-1.5c0.6-0.4,1.3-0.5,2.2-0.5c0.8,0,1.5,0.2,2.1,0.5
	c0.6,0.3,1.1,0.8,1.4,1.4c0.3,0.6,0.5,1.2,0.5,2c0,0.1,0,0.2,0,0.4c0,0.1,0,0.3,0,0.4h-6c0,0.6,0.3,1.1,0.6,1.5
	c0.4,0.4,0.9,0.5,1.4,0.5c0.4,0,0.8-0.1,1-0.3c0.3-0.2,0.5-0.4,0.6-0.7h2.1c-0.1,0.5-0.4,1-0.8,1.4c-0.3,0.4-0.8,0.7-1.3,1
	C320.6,252.1,320,252.2,319.4,252.2z M319.4,245.5c-0.5,0-0.9,0.1-1.3,0.4c-0.4,0.3-0.6,0.7-0.7,1.3h4c0-0.5-0.2-0.9-0.6-1.2
	S319.9,245.5,319.4,245.5z M331.6,252.2c-0.7,0-1.2-0.1-1.7-0.3c-0.4-0.2-0.8-0.5-1-0.9c-0.2-0.4-0.3-0.8-0.3-1.2
	c0-0.7,0.3-1.3,0.9-1.8c0.6-0.5,1.4-0.7,2.6-0.7h2v-0.2c0-0.5-0.2-0.9-0.5-1.2c-0.3-0.3-0.7-0.4-1.2-0.4c-0.4,0-0.8,0.1-1.1,0.3
	c-0.3,0.2-0.5,0.5-0.6,0.9h-2c0.1-0.6,0.2-1.1,0.6-1.5c0.3-0.4,0.8-0.8,1.3-1c0.5-0.2,1.1-0.4,1.8-0.4c1.1,0,2,0.3,2.7,0.8
	s1,1.4,1,2.4v4.9h-1.7l-0.2-1.3c-0.2,0.4-0.6,0.8-1,1.1C332.8,252.1,332.3,252.2,331.6,252.2z M332.1,250.6c0.6,0,1-0.2,1.4-0.6
	c0.3-0.4,0.5-0.9,0.6-1.4h-1.7c-0.5,0-0.9,0.1-1.2,0.3c-0.2,0.2-0.4,0.4-0.4,0.7c0,0.3,0.1,0.5,0.4,0.7
	C331.4,250.5,331.7,250.6,332.1,250.6z M341.4,252.2c-0.7,0-1.3-0.1-1.9-0.3c-0.5-0.2-1-0.6-1.3-1c-0.3-0.4-0.5-0.9-0.6-1.4h2.1
	c0.1,0.3,0.2,0.6,0.5,0.8c0.3,0.2,0.7,0.3,1.1,0.3s0.8-0.1,1-0.3c0.2-0.2,0.3-0.4,0.3-0.6c0-0.3-0.1-0.6-0.4-0.7
	c-0.3-0.1-0.7-0.3-1.2-0.4c-0.3-0.1-0.7-0.2-1-0.3c-0.4-0.1-0.7-0.2-1-0.4c-0.3-0.2-0.5-0.4-0.7-0.6c-0.2-0.3-0.3-0.6-0.3-1
	c0-0.7,0.3-1.3,0.8-1.8c0.6-0.5,1.4-0.7,2.4-0.7c0.9,0,1.7,0.2,2.2,0.7c0.6,0.4,0.9,1,1,1.8h-1.9c-0.1-0.6-0.6-0.9-1.3-0.9
	c-0.4,0-0.7,0.1-0.9,0.2c-0.2,0.1-0.3,0.3-0.3,0.6c0,0.2,0.2,0.4,0.5,0.6c0.3,0.1,0.7,0.3,1.2,0.4c0.6,0.1,1.1,0.3,1.5,0.4
	c0.5,0.1,0.8,0.4,1.1,0.7c0.3,0.3,0.4,0.7,0.4,1.3c0,0.5-0.1,0.9-0.4,1.3c-0.3,0.4-0.7,0.7-1.2,0.9
	C342.7,252.1,342.1,252.2,341.4,252.2z M353.7,249.6c-0.4,0-0.7,0-1.1-0.1l-0.6,0.6c0.2,0.1,0.4,0.2,0.7,0.2
	c0.3,0.1,0.8,0.1,1.5,0.2c1.1,0.1,1.8,0.3,2.3,0.8c0.5,0.4,0.7,1,0.7,1.7c0,0.5-0.1,0.9-0.4,1.3c-0.3,0.4-0.6,0.8-1.2,1
	c-0.5,0.3-1.2,0.4-2,0.4c-1.1,0-2-0.2-2.7-0.6c-0.7-0.4-1-1-1-1.9c0-0.7,0.3-1.3,1-1.9c-0.2-0.1-0.4-0.2-0.6-0.3
	c-0.1-0.1-0.3-0.2-0.4-0.3v-0.4l1.4-1.5c-0.6-0.5-0.9-1.2-0.9-2.1c0-0.5,0.1-1,0.4-1.5c0.3-0.4,0.6-0.8,1.1-1
	c0.5-0.3,1.1-0.4,1.7-0.4c0.4,0,0.9,0.1,1.2,0.2h3v1.2l-1.4,0.1c0.2,0.4,0.3,0.9,0.3,1.3c0,0.5-0.1,1-0.4,1.5
	c-0.3,0.4-0.6,0.8-1.1,1C354.9,249.5,354.4,249.6,353.7,249.6z M353.7,248.1c0.4,0,0.8-0.1,1-0.3c0.3-0.2,0.4-0.5,0.4-1
	s-0.1-0.7-0.4-1c-0.3-0.2-0.6-0.3-1-0.3c-0.4,0-0.8,0.1-1.1,0.3c-0.3,0.2-0.4,0.5-0.4,1s0.1,0.7,0.4,1
	C352.9,248,353.3,248.1,353.7,248.1z M351.8,253c0,0.4,0.2,0.7,0.5,0.9c0.4,0.2,0.8,0.3,1.4,0.3c0.5,0,0.9-0.1,1.2-0.3
	c0.3-0.2,0.5-0.5,0.5-0.8c0-0.3-0.1-0.5-0.3-0.7c-0.2-0.2-0.6-0.3-1.2-0.4c-0.4,0-0.8-0.1-1.2-0.1c-0.3,0.2-0.5,0.4-0.7,0.6
	C351.8,252.6,351.8,252.8,351.8,253z M362.4,252.2c-1,0-1.8-0.3-2.3-0.9c-0.5-0.6-0.8-1.5-0.8-2.7v-4.5h2v4.3c0,0.7,0.1,1.2,0.4,1.6
	c0.3,0.4,0.7,0.5,1.3,0.5c0.6,0,1-0.2,1.4-0.6c0.4-0.4,0.6-1,0.6-1.7v-4.1h2v7.9h-1.8l-0.2-1.3c-0.2,0.5-0.6,0.8-1.1,1.1
	C363.6,252.1,363,252.2,362.4,252.2z M373,252.2c-0.8,0-1.5-0.2-2.1-0.5c-0.6-0.3-1.1-0.8-1.5-1.4c-0.4-0.6-0.5-1.3-0.5-2.1
	c0-0.8,0.2-1.6,0.5-2.2c0.4-0.6,0.8-1.1,1.4-1.5c0.6-0.4,1.3-0.5,2.2-0.5c0.8,0,1.5,0.2,2.1,0.5s1.1,0.8,1.4,1.4
	c0.3,0.6,0.5,1.2,0.5,2c0,0.1,0,0.2,0,0.4c0,0.1,0,0.3,0,0.4h-6c0,0.6,0.3,1.1,0.6,1.5c0.4,0.4,0.9,0.5,1.4,0.5c0.4,0,0.8-0.1,1-0.3
	c0.3-0.2,0.5-0.4,0.6-0.7h2.1c-0.1,0.5-0.4,1-0.8,1.4c-0.3,0.4-0.8,0.7-1.3,1C374.2,252.1,373.7,252.2,373,252.2z M373,245.5
	c-0.5,0-0.9,0.1-1.3,0.4c-0.4,0.3-0.6,0.7-0.7,1.3h4c0-0.5-0.2-0.9-0.6-1.2S373.6,245.5,373,245.5z M382,252.2
	c-0.7,0-1.3-0.1-1.9-0.3c-0.5-0.2-1-0.6-1.3-1s-0.5-0.9-0.6-1.4h2.1c0.1,0.3,0.2,0.6,0.5,0.8c0.3,0.2,0.7,0.3,1.1,0.3s0.8-0.1,1-0.3
	c0.2-0.2,0.3-0.4,0.3-0.6c0-0.3-0.1-0.6-0.4-0.7c-0.3-0.1-0.7-0.3-1.2-0.4c-0.3-0.1-0.7-0.2-1-0.3c-0.4-0.1-0.7-0.2-1-0.4
	c-0.3-0.2-0.5-0.4-0.7-0.6c-0.2-0.3-0.3-0.6-0.3-1c0-0.7,0.3-1.3,0.8-1.8c0.6-0.5,1.4-0.7,2.4-0.7c0.9,0,1.7,0.2,2.2,0.7
	c0.6,0.4,0.9,1,1,1.8h-1.9c-0.1-0.6-0.6-0.9-1.3-0.9c-0.4,0-0.7,0.1-0.9,0.2c-0.2,0.1-0.3,0.3-0.3,0.6c0,0.2,0.2,0.4,0.5,0.6
	c0.3,0.1,0.7,0.3,1.2,0.4c0.6,0.1,1.1,0.3,1.5,0.4c0.5,0.1,0.8,0.4,1.1,0.7c0.3,0.3,0.4,0.7,0.4,1.3c0,0.5-0.1,0.9-0.4,1.3
	c-0.3,0.4-0.7,0.7-1.2,0.9C383.3,252.1,382.7,252.2,382,252.2z M390.4,252c-0.8,0-1.5-0.2-2-0.6c-0.5-0.4-0.8-1.1-0.8-2.2v-3.5h-1.4
	v-1.7h1.4l0.2-2.1h1.8v2.1h2.1v1.7h-2.1v3.5c0,0.4,0.1,0.7,0.2,0.8c0.2,0.1,0.5,0.2,0.9,0.2h1v1.7H390.4z"/>
<path class="st1" d="M252.8,254h139.8v0.8H252.8V254z"/>
</svg>
